<?xml version="1.0" encoding="utf-8"?>
<!-- Generator: Adobe Illustrator 23.0.3, SVG Export Plug-In . SVG Version: 6.00 Build 0)  -->
<svg version="1.1" id="Layer_1" xmlns="http://www.w3.org/2000/svg" xmlns:xlink="http://www.w3.org/1999/xlink" x="0px" y="0px"
	 viewBox="0 0 160 150" style="enable-background:new 0 0 160 150;" xml:space="preserve">
<style type="text/css">
	.st0{fill:#EBEBEB;}
	.st1{fill:#E0E0E0;}
	.st2{fill:#F5F5F5;}
	.st3{fill:#FAFAFA;}
	.st4{fill:#FFFFFF;}
	.st5{fill:#05648A;}
	.st6{fill:#263238;}
	.st7{fill:#455A64;}
	.st8{opacity:0.3;}
	.st9{fill:#FFBE9D;}
	.st10{fill:#EB996E;}
</style>
<g>
	<g id="freepik--background-complete--inject-21">
		<path class="st0" d="M112.6,124.2c0,0-4,3-0.2,7c0.1,0.1,0.2,0.1,0.3,0.1l34.7-0.2c0,0,3-3.3,0.5-7.1L112.6,124.2z"/>
		<path class="st1" d="M139.7,127.3c0,0-4.3,0.1-9.6,0.1c-5.3,0-9.6,0-9.6-0.1s4.3-0.1,9.6-0.1S139.7,127.3,139.7,127.3z"/>
		<path class="st1" d="M134.3,128.6c0,0-2,0.1-4.5,0.1c-2.5,0-4.5,0-4.5-0.1c0,0,2-0.1,4.5-0.1C132.2,128.5,134.3,128.5,134.3,128.6
			z"/>
		<path class="st1" d="M143.2,131c0,0,0.1-0.4,0.2-1c0.3-1.7,0.3-3.4,0-5.1c-0.1-0.6-0.2-1-0.2-1c0,0.1,0.1,0.2,0.1,0.3
			c0.1,0.2,0.1,0.4,0.2,0.8c0.4,1.7,0.4,3.4,0.1,5.1c-0.1,0.3-0.1,0.6-0.2,0.8C143.3,130.8,143.2,130.9,143.2,131z"/>
		<path class="st1" d="M145.8,123.9c0.1,0.1,0.1,0.2,0.2,0.3c0.1,0.1,0.1,0.2,0.2,0.3c0.1,0.1,0.1,0.3,0.2,0.4
			c0.1,0.4,0.3,0.8,0.3,1.1c0.1,0.5,0.1,1,0.1,1.5c0,0.5,0,1-0.1,1.5c-0.1,0.4-0.2,0.8-0.3,1.2c0,0.1-0.1,0.3-0.2,0.4
			c0,0.1-0.1,0.2-0.1,0.3c0,0.1-0.1,0.2-0.1,0.3c0,0,0.2-0.4,0.4-1c0.1-0.4,0.2-0.8,0.3-1.1c0.1-0.5,0.1-1,0.1-1.4
			c0-0.5-0.1-1-0.1-1.4c-0.1-0.4-0.2-0.8-0.3-1.1C146,124.3,145.8,123.9,145.8,123.9z"/>
		<path class="st1" d="M118.1,131c0,0-0.1-0.1-0.2-0.2c-0.1-0.1-0.1-0.2-0.2-0.3c-0.1-0.1-0.1-0.3-0.2-0.4c-0.1-0.4-0.3-0.7-0.3-1.1
			c-0.1-0.5-0.1-0.9-0.1-1.4c0-0.5,0.1-0.9,0.2-1.4c0.1-0.4,0.2-0.7,0.4-1.1c0.1-0.1,0.1-0.3,0.2-0.4c0-0.1,0.1-0.2,0.2-0.3
			c0-0.1,0.1-0.2,0.2-0.2c0,0-0.2,0.3-0.4,0.9c-0.1,0.3-0.3,0.7-0.3,1.1c-0.1,0.4-0.1,0.9-0.2,1.4c0,0.5,0,0.9,0.1,1.4
			c0.1,0.4,0.2,0.7,0.3,1.1C117.9,130.7,118.1,131,118.1,131z"/>
		<path class="st1" d="M114.3,131.9c-0.1-0.1-0.1-0.2-0.2-0.3c-0.1-0.1-0.1-0.2-0.2-0.3c-0.1-0.1-0.1-0.3-0.2-0.4
			c-0.2-0.4-0.3-0.8-0.4-1.2c-0.1-0.5-0.2-1-0.2-1.6c0-0.5,0-1.1,0.1-1.6c0.1-0.4,0.2-0.8,0.3-1.2c0.1-0.2,0.1-0.3,0.2-0.5
			c0-0.1,0.1-0.2,0.2-0.3c0-0.1,0.1-0.2,0.2-0.3c0,0-0.2,0.4-0.4,1.1c-0.1,0.4-0.2,0.8-0.3,1.2c-0.2,1-0.1,2.1,0.1,3.1
			c0.1,0.4,0.2,0.8,0.4,1.2C114.1,131.5,114.3,131.9,114.3,131.9z"/>
		<path class="st0" d="M146.1,141.6v6.6h-12.8v-6.6H146.1z"/>
		<path class="st1" d="M104.6,145c0,0.1,0,0.1,0,0.2c0.1,2,1.8,3.6,3.8,3.6h38.2v-0.5h-9.1c-1.8,0-3.3-1.5-3.3-3.3l0,0
			c0-1.8,1.5-3.3,3.3-3.3h9.1v-0.7l-38.2,0.1c-2.1,0-3.8,1.7-3.8,3.8C104.6,144.9,104.6,145,104.6,145z"/>
		<path class="st1" d="M146.1,145.1c0,0-2.6,0.1-5.9,0.1c-3.3,0-5.9,0-5.9-0.1s2.6-0.1,5.9-0.1C143.4,145,146.1,145,146.1,145.1z"/>
		<path class="st1" d="M145.9,146.5c0,0-2.5,0.1-5.6,0.1c-3.1,0-5.6,0-5.6-0.1c0,0,2.5-0.1,5.6-0.1
			C143.4,146.5,145.9,146.5,145.9,146.5z"/>
		<path class="st1" d="M146.1,147.9c0,0-2.2,0.1-5,0.1s-5,0-5-0.1c0,0,2.2-0.1,5-0.1S146.1,147.9,146.1,147.9z"/>
		<path class="st1" d="M146.1,143.7c0,0-2.6,0.1-5.8,0.1s-5.8,0-5.8-0.1c0,0,2.6-0.1,5.8-0.1S146.1,143.7,146.1,143.7z"/>
		<path class="st1" d="M145.9,142.4c0,0-2.3,0.1-5.1,0.1c-2.8,0-5.1,0-5.1-0.1c0,0,2.3-0.1,5.1-0.1S145.9,142.3,145.9,142.4z"/>
		<path class="st2" d="M109.2,141.2c-0.3,0.3-0.6,0.6-0.8,1c-1.2,1.7-1.2,4,0.1,5.7c0.3,0.3,0.5,0.7,0.8,0.9
			c-0.1-0.1-0.2-0.1-0.3-0.2c-0.2-0.2-0.5-0.4-0.6-0.7c-1.3-1.7-1.3-4.1-0.1-5.8c0.2-0.3,0.4-0.5,0.6-0.7
			C109.1,141.3,109.1,141.2,109.2,141.2z"/>
		<path class="st2" d="M107.9,141.1c-0.3,0.3-0.6,0.6-0.8,1c-1.2,1.7-1.2,4,0.1,5.7c0.3,0.3,0.5,0.6,0.8,0.9
			c-0.1-0.1-0.2-0.1-0.3-0.2c-0.2-0.2-0.5-0.4-0.6-0.7c-1.3-1.7-1.3-4.1-0.1-5.8c0.2-0.3,0.4-0.5,0.6-0.7
			C107.8,141.2,107.8,141.1,107.9,141.1z"/>
		<path class="st2" d="M133.9,141.2c-0.3,0.3-0.6,0.6-0.8,1c-1.2,1.7-1.2,4,0.1,5.7c0.3,0.3,0.5,0.7,0.8,0.9
			c-0.1-0.1-0.2-0.1-0.3-0.2c-0.2-0.2-0.5-0.4-0.6-0.7c-1.3-1.7-1.3-4.1-0.1-5.8c0.2-0.3,0.4-0.5,0.6-0.7
			C133.7,141.3,133.8,141.2,133.9,141.2z"/>
		<path class="st2" d="M132.6,141.1c-0.3,0.3-0.6,0.6-0.8,1c-1.2,1.7-1.2,4,0.1,5.7c0.3,0.3,0.5,0.7,0.8,0.9
			c-0.1-0.1-0.2-0.1-0.3-0.2c-0.2-0.2-0.4-0.4-0.6-0.7c-1.3-1.7-1.3-4.1-0.1-5.8c0.2-0.3,0.4-0.5,0.6-0.7
			C132.4,141.2,132.5,141.1,132.6,141.1z"/>
		<path class="st2" d="M113.6,146c0-0.9,0-1.8,0-2.7c0-0.2,0-0.5-0.1-0.7c-0.1-0.2-0.3-0.4-0.5-0.4c-0.3-0.1-0.9,0.1-1.1,0.5
			c-0.2,0.4-0.3,0.9-0.3,1.3c0,0.7,0,1.4,0.1,2.1c0,0.3,0.1,0.7,0.3,1c0.2,0.4,0.7,0.6,1.1,0.4c0.2-0.1,0.4-0.3,0.5-0.6
			C113.6,146.6,113.6,146.3,113.6,146z"/>
		<path class="st2" d="M128.4,145.2c0,0-2.8,0.1-6.2,0.1s-6.2,0-6.2-0.1s2.8-0.1,6.2-0.1S128.4,145.1,128.4,145.2z"/>
		<polygon class="st2" points="111,140.9 111,134.6 114.4,134.6 114.5,140.9 		"/>
		<path class="st1" d="M114.2,135.8c-1.1,0.1-2.1,0.1-3.2,0C112.1,135.7,113.1,135.7,114.2,135.8z"/>
		<path class="st1" d="M114.2,136.7c-1.1,0.1-2.1,0.1-3.2,0C112.1,136.6,113.1,136.6,114.2,136.7z"/>
		<path class="st1" d="M114.2,137.7c-1.1,0.1-2.1,0.1-3.2,0C112.1,137.6,113.1,137.6,114.2,137.7z"/>
		<path class="st1" d="M114.2,138.7c-1.1,0.1-2.1,0.1-3.2,0C112.1,138.6,113.1,138.6,114.2,138.7z"/>
		<path class="st1" d="M114.2,139.6c-1.1,0.1-2.1,0.1-3.2,0C112.1,139.5,113.1,139.5,114.2,139.6z"/>
		<path class="st0" d="M110.8,134.5h37.9c0.5,2.1,0.4,4.4,0,6.8h-37.8v-0.5h2.3c0.6,0,1.1-0.5,1.1-1.1l0,0V136
			c0-0.6-0.5-1.1-1.1-1.1h-2.5L110.8,134.5z"/>
		<path class="st3" d="M119.7,137.9h0.6c0,0,0,0,0.1,0c0,0,0.1,0.1,0.1,0.1c0,0,0,0,0,0c0,0.1,0,0.1,0,0.2c-0.1,0.3-0.2,0.5-0.4,0.7
			c-0.1,0.2-0.3,0.3-0.5,0.3h-0.1c-0.2,0-0.3-0.1-0.4-0.3c-0.1-0.2-0.2-0.5-0.2-0.8c0-0.2,0-0.4,0.1-0.5c0.1-0.3,0.2-0.5,0.4-0.7
			c0.1-0.2,0.3-0.3,0.6-0.3c0.1,0,0.2,0,0.2,0.1c0.2,0.1,0.3,0.3,0.4,0.5c0,0,0,0,0,0.1c0,0,0,0,0,0.1c0,0-0.1,0.1-0.1,0.1h0
			c0,0-0.1,0-0.1-0.1l0,0c0-0.1,0-0.1-0.1-0.1c-0.1-0.2-0.3-0.2-0.5-0.1c0,0,0,0-0.1,0c-0.2,0.1-0.3,0.3-0.3,0.5
			c-0.1,0.2-0.1,0.5-0.1,0.7c0,0.2,0,0.4,0.1,0.6c0,0.1,0.2,0.2,0.3,0.2c0.1,0,0.2-0.1,0.3-0.2c0.2-0.2,0.3-0.4,0.3-0.6h-0.5
			c-0.1,0-0.1-0.1-0.2-0.2c0,0,0,0,0,0C119.6,137.9,119.7,137.9,119.7,137.9z"/>
		<path class="st3" d="M121.9,136.6C121.9,136.6,121.9,136.7,121.9,136.6c0,0.1,0.2,0.9,0.5,2.4c0,0,0,0,0,0c0,0,0,0,0,0.1
			c0,0-0.1,0.1-0.1,0.1h0c-0.1,0-0.1,0-0.1-0.1l-0.2-0.8h-0.8l-0.4,0.8c0,0,0,0,0,0c0,0-0.1,0.1-0.1,0.1c0,0-0.1,0-0.1,0
			c0,0-0.1-0.1-0.1-0.1c0,0,0,0,0,0l0.1-0.3c0.5-1.2,0.9-1.9,1-2.1c0-0.1,0.1-0.1,0.1-0.1C121.8,136.6,121.9,136.6,121.9,136.6z
			 M121.7,137.2l-0.4,0.9h0.6L121.7,137.2z"/>
		<path class="st3" d="M124,139.2h-1.1c0,0-0.1,0-0.1,0c0,0-0.1-0.1-0.1-0.2l0,0c0,0,0.1-0.8,0.3-2.3c0,0,0,0,0-0.1
			c0-0.1,0.1-0.1,0.1-0.1c0,0,0,0,0.1,0c0,0,0.1,0.1,0.1,0.1c0,0.1,0,0.3-0.1,0.6c-0.1,1-0.2,1.5-0.2,1.6h1c0,0,0.1,0,0.1,0
			c0.1,0,0.1,0.1,0.1,0.1c0,0,0,0,0,0C124.1,139.2,124.1,139.2,124,139.2z"/>
		<path class="st3" d="M125.6,136.6C125.6,136.6,125.6,136.7,125.6,136.6c0,0.1,0.2,0.9,0.5,2.4c0,0,0,0,0,0c0,0,0,0,0,0.1
			c0,0-0.1,0.1-0.1,0.1h0c-0.1,0-0.1,0-0.1-0.1l-0.2-0.8h-0.8l-0.4,0.8c0,0,0,0,0,0c0,0-0.1,0.1-0.1,0.1c0,0-0.1,0-0.1,0
			c0,0-0.1-0.1-0.1-0.1c0,0,0,0,0,0l0.1-0.3c0.5-1.2,0.9-1.9,1-2.1c0-0.1,0.1-0.1,0.1-0.1C125.5,136.6,125.5,136.6,125.6,136.6z
			 M125.4,137.2L125,138h0.6L125.4,137.2z"/>
		<path class="st3" d="M127.4,138c0.1,0.2,0.2,0.4,0.2,0.6c0.1,0.3,0.2,0.5,0.2,0.5c0,0,0,0,0,0.1c0,0-0.1,0.1-0.1,0.1
			c-0.1,0-0.1,0-0.1-0.1l0-0.1c-0.1-0.1-0.2-0.4-0.3-0.8l-0.6,0.9c0,0-0.1,0.1-0.1,0.1c0,0,0,0-0.1,0c0,0-0.1-0.1-0.1-0.1v0
			c0,0,0-0.1,0.1-0.1c0.2-0.3,0.5-0.6,0.7-1l-0.1-0.2c-0.2-0.7-0.4-1-0.4-1c0,0,0,0,0-0.1c0,0,0.1-0.1,0.1-0.1c0.1,0,0.1,0,0.1,0.1
			l0.4,1l0.8-1c0,0,0.1-0.1,0.1-0.1c0,0,0,0,0.1,0c0,0,0.1,0.1,0.1,0.1c0,0,0,0,0,0.1L127.4,138z"/>
		<path class="st3" d="M130.2,136.6C130.2,136.6,130.3,136.6,130.2,136.6c0.1,0,0.1,0.1,0.1,0.1c-0.2,1.5-0.3,2.3-0.3,2.4
			c0,0.2-0.1,0.4-0.2,0.6c-0.3,0.4-0.7,0.5-1.1,0.3c-0.2-0.1-0.3-0.2-0.4-0.4c0,0,0,0,0-0.1c0,0,0,0,0-0.1c0,0,0.1-0.1,0.1-0.1
			c0,0,0.1,0,0.1,0.1c0.1,0.2,0.3,0.3,0.6,0.3c0.2,0,0.3-0.1,0.5-0.2c0.2-0.2,0.2-0.5,0.3-0.7c0,0.1-0.1,0.1-0.2,0.2
			c-0.1,0.1-0.3,0.1-0.4,0.1h-0.1c-0.2,0-0.3-0.1-0.4-0.3c-0.1-0.2-0.2-0.5-0.2-0.8c0-0.1,0-0.3,0-0.4c0-0.2,0.1-0.6,0.2-1
			c0,0,0,0,0,0c0-0.1,0.1-0.1,0.1-0.1c0,0,0,0,0.1,0c0,0,0.1,0.1,0.1,0.1c0,0.1,0,0.2-0.1,0.5c0,0.3-0.1,0.5-0.1,0.8
			c0,0.2,0,0.4,0.1,0.6c0.1,0.2,0.2,0.3,0.3,0.3h0c0.1,0,0.3-0.1,0.3-0.3c0.1-0.2,0.2-0.4,0.3-0.6l0.2-1.3c0,0,0,0,0-0.1
			C130.1,136.6,130.2,136.6,130.2,136.6z"/>
		<path class="st2" d="M147.3,141.4c0,0-0.1-1.6-0.1-3.5c0-1.9,0-3.5,0.1-3.5c0,0,0.1,1.6,0.1,3.5
			C147.3,139.8,147.3,141.4,147.3,141.4z"/>
		<path class="st1" d="M116.2,141.4c0,0-0.1-1.6-0.1-3.5c0-1.9,0-3.5,0.1-3.5c0,0,0.1,1.6,0.1,3.5
			C116.3,139.8,116.3,141.4,116.2,141.4z"/>
		<path class="st2" d="M147.9,141.4c0,0-0.1-1.6-0.1-3.5c0-1.9,0-3.5,0.1-3.5c0,0,0.1,1.6,0.1,3.5C148,139.8,148,141.4,147.9,141.4z
			"/>
		<path class="st1" d="M115.6,141.4c0,0-0.1-1.6-0.1-3.5c0-1.9,0-3.5,0.1-3.5c0,0,0.1,1.6,0.1,3.5
			C115.7,139.8,115.7,141.4,115.6,141.4z"/>
		<path class="st1" d="M138.1,135.5L138.1,135.5l4,3.2l0,0h0l-0.5,0.1l-3.4,0.9l0,0l-3.1-1.3l-0.9-0.4l-0.2-0.1l-0.1,0h0h0l0.1,0
			l0.2,0.1l0.9,0.4l3.1,1.3l0,0l3.4-0.9l0.5-0.1v0L138.1,135.5L138.1,135.5L138.1,135.5"/>
		<polygon class="st1" points="141.7,138.2 141.9,138.5 142.2,138.4 142.1,138.7 142.3,138.9 142,138.9 141.8,139.1 141.7,138.8 
			141.4,138.7 141.7,138.5 		"/>
		<polygon class="st1" points="137.9,139.5 138,139.6 138.2,139.6 138.1,139.8 138.2,139.9 138.1,139.9 137.9,140.1 137.9,139.9 
			137.7,139.8 137.9,139.7 		"/>
		<polygon class="st1" points="133.6,137.8 133.9,137.8 134,137.6 134.1,137.8 134.3,137.9 134.1,138 134.1,138.3 133.9,138.1 
			133.7,138.2 133.8,138 		"/>
		<polygon class="st1" points="143.5,135.6 143.8,135.6 143.9,135.4 144,135.6 144.2,135.7 144,135.8 144,136.1 143.8,135.9 
			143.6,136 143.6,135.8 		"/>
		<polygon class="st1" points="137.9,135.4 138,135.4 138.1,135.3 138.2,135.5 138.3,135.5 138.2,135.6 138.2,135.7 138.1,135.6 
			137.9,135.7 138,135.6 		"/>
		<path class="st1" d="M143.8,135.7c0,0-1.3,0-2.9-0.1c-1.6-0.1-2.9-0.1-2.9-0.2c0,0,1.3,0,2.9,0.1S143.8,135.7,143.8,135.7z"/>
		<path class="st1" d="M145.3,134.4h-38.5c-0.5-1.1-0.6-2.2,0-3.2h38.5C145.8,132.2,145.8,133.4,145.3,134.4z"/>
		<rect x="114.8" y="132.1" class="st0" width="20.8" height="1.2"/>
		<path class="st1" d="M108.3,134.4c-0.1-0.1-0.2-0.2-0.3-0.4c-0.2-0.3-0.3-0.7-0.3-1.1c0-0.4,0-0.8,0.1-1.2c0-0.2,0.1-0.3,0.2-0.4
			c0,0.2-0.1,0.3-0.1,0.5c-0.1,0.4-0.1,0.8-0.1,1.1c0,0.4,0.1,0.8,0.3,1.1C108.2,134.1,108.3,134.3,108.3,134.4z"/>
		<path class="st1" d="M109.2,134.4c-0.1-0.1-0.2-0.2-0.3-0.4c-0.4-0.7-0.5-1.6-0.2-2.3c0-0.2,0.1-0.3,0.2-0.4
			c0,0.2-0.1,0.3-0.1,0.5c-0.2,0.7-0.1,1.5,0.2,2.2C109,134.1,109.1,134.3,109.2,134.4z"/>
		<path class="st2" d="M143.7,134.4c0.2-0.5,0.2-1,0.3-1.6c0-0.5-0.1-1.1-0.3-1.6c0.3,0.5,0.4,1,0.4,1.6
			C144.2,133.3,144,133.9,143.7,134.4z"/>
		<path class="st2" d="M143,134.3c0,0,0.1-0.7,0.1-1.5c0-0.9-0.2-1.5-0.1-1.5c0.2,0.5,0.3,1,0.3,1.5
			C143.3,133.3,143.2,133.9,143,134.3z"/>
		<path class="st1" d="M142,8.4c0.7-0.4,1.4-0.7,2.2-1l0.5-2.2l3.7-0.1l0.5,2.2c0.8,0.2,1.5,0.5,2.2,0.9L153,7l2.7,2.6l-1.2,1.9
			c0.4,0.7,0.7,1.4,1,2.2l2.2,0.5l0.1,3.7l-2.2,0.5c-0.2,0.8-0.5,1.5-0.9,2.2l1.2,1.9l-2.6,2.7l-1.9-1.2c-0.7,0.4-1.4,0.7-2.2,1
			l-0.5,2.2l-3.7,0.1l-0.5-2.2c-0.8-0.2-1.5-0.5-2.2-0.9l-1.9,1.2l-2.7-2.6l1.2-1.9c-0.4-0.7-0.7-1.4-1-2.2l-2.2-0.5l-0.1-3.7
			l2.2-0.5c0.2-0.8,0.5-1.5,0.9-2.2l-1.2-1.9l2.6-2.7L142,8.4L142,8.4z M144,13.3c-1.5,1.6-1.5,4.1,0.1,5.6c1.6,1.5,4.1,1.5,5.6-0.1
			c1.5-1.6,1.5-4.1-0.1-5.6c0,0,0,0,0,0C148,11.7,145.5,11.8,144,13.3z"/>
		<path class="st1" d="M144,13.3c0.2-0.3,0.5-0.5,0.7-0.6c0.8-0.5,1.7-0.7,2.6-0.6c0.6,0.1,1.2,0.3,1.8,0.6c0.6,0.4,1.1,1,1.4,1.6
			c0.2,0.4,0.3,0.7,0.4,1.1c0.1,0.4,0.1,0.8,0,1.2c-0.2,1.8-1.6,3.2-3.4,3.5c-0.4,0.1-0.8,0.1-1.2,0c-0.4-0.1-0.8-0.2-1.1-0.3
			c-0.7-0.3-1.2-0.8-1.7-1.4c-0.4-0.5-0.6-1.1-0.7-1.7c-0.1-0.9,0.1-1.8,0.5-2.6C143.5,13.8,143.7,13.6,144,13.3
			c0,0-0.2,0.3-0.5,0.8c-0.4,0.8-0.6,1.7-0.4,2.5c0.2,1.3,1.1,2.4,2.3,2.9c0.3,0.2,0.7,0.3,1.1,0.3c0.4,0.1,0.8,0,1.2,0
			c1.7-0.3,2.9-1.6,3.2-3.3c0.1-0.4,0.1-0.8,0-1.2c-0.1-0.4-0.2-0.7-0.3-1.1c-0.6-1.2-1.7-2-3-2.2c-0.9-0.1-1.8,0.1-2.5,0.5
			C144.2,13.1,144,13.4,144,13.3z"/>
		<path class="st1" d="M142,8.4l-0.1-0.1l-0.4-0.2L140,7.3h0l-2.6,2.7V9.9l1.2,1.9l0,0l0,0c-0.4,0.7-0.7,1.5-0.9,2.2v0h0l-2.2,0.5
			l0.1-0.1c0,1.2,0,2.4,0.1,3.7l-0.1-0.1l2.2,0.4h0.1l0,0.1c0.2,0.8,0.5,1.5,0.9,2.2l0,0.1l0,0.1c-0.4,0.6-0.8,1.2-1.2,1.9v-0.1
			c0.8,0.8,1.7,1.7,2.7,2.6h-0.1l1.9-1.2l0.1,0l0.1,0c0.7,0.4,1.4,0.7,2.2,0.9l0.1,0l0,0.1c0.2,0.7,0.3,1.4,0.5,2.2l-0.1-0.1
			l3.7-0.1l-0.1,0.1c0.1-0.7,0.3-1.4,0.5-2.2v-0.1l0.1,0c0.8-0.2,1.5-0.5,2.2-0.9l0,0l0.1,0l0.1,0l1.9,1.1h-0.1l2.6-2.7v0.1
			c-0.4-0.6-0.8-1.3-1.2-1.9l0-0.1l0-0.1c0.4-0.7,0.7-1.4,0.9-2.2l0-0.1h0.1l2.2-0.5l-0.1,0.1c0-1.3,0-2.5-0.1-3.7l0.1,0.1l-2.2-0.5
			h-0.1v-0.1c-0.2-0.8-0.6-1.5-1-2.2l0-0.1l0-0.1l1.2-1.9l0,0.1l-2.7-2.6h0.1l-1.9,1.2l0,0l0,0c-0.7-0.4-1.4-0.7-2.2-0.9h0v0
			c-0.2-0.8-0.4-1.5-0.5-2.2l0.1,0.1l-3.7,0l0,0c-0.2,0.9-0.3,1.6-0.5,2.2v0h0c-0.6,0.2-1.1,0.4-1.7,0.6l-0.4,0.2
			C142.1,8.4,142,8.4,142,8.4c0.1,0,0.1-0.1,0.1-0.1c0.1-0.1,0.2-0.1,0.4-0.2c0.5-0.3,1.1-0.5,1.7-0.7l0,0c0.1-0.6,0.3-1.3,0.4-2.2
			v0h0l3.7-0.1h0.1v0.1c0.2,0.7,0.3,1.4,0.5,2.2l-0.1-0.1c0.8,0.2,1.6,0.5,2.3,0.9h-0.1L153,7l0.1,0l0.1,0l2.7,2.6l0.1,0.1l0,0.1
			c-0.4,0.6-0.8,1.3-1.2,1.9v-0.1c0.4,0.7,0.8,1.5,1,2.2l-0.1-0.1l2.2,0.5h0.1v0.1c0,1.2,0,2.4,0.1,3.7V18l-0.1,0l-2.2,0.5l0.1-0.1
			c-0.2,0.8-0.5,1.5-0.9,2.3v-0.1l1.2,1.9l0.1,0.1l-0.1,0.1l-2.6,2.7l-0.1,0.1l-0.1,0l-1.9-1.2h0.1c-0.7,0.4-1.5,0.8-2.2,1l0.1-0.1
			c-0.2,0.8-0.3,1.5-0.5,2.2l0,0.1h-0.1l-3.7,0.1h-0.1l0-0.1c-0.2-0.8-0.4-1.5-0.5-2.2l0.1,0.1c-0.8-0.2-1.6-0.5-2.3-0.9h0.1
			l-1.9,1.2l-0.1,0l-0.1-0.1l-2.7-2.6l-0.1-0.1l0-0.1l1.2-1.9V21c-0.4-0.7-0.7-1.5-1-2.2l0.1,0.1l-2.2-0.5h-0.1v-0.1
			c0-1.3,0-2.5-0.1-3.7v-0.1h0.1l2.2-0.5l-0.1,0.1c0.2-0.8,0.5-1.6,0.9-2.3v0.1c-0.4-0.7-0.9-1.3-1.2-1.9l0,0l0,0l2.6-2.7l0,0h0
			l1.4,0.9l0.4,0.2C141.9,8.3,141.9,8.4,142,8.4z"/>
		<path class="st1" d="M6.4,33.7C7,33.3,7.7,33,8.4,32.9l0.4-1.9l3.2-0.1l0.5,1.9c0.7,0.2,1.3,0.4,2,0.8l1.6-1.1l2.3,2.3l-1,1.7
			c0.4,0.6,0.6,1.3,0.8,1.9l1.9,0.4l0.1,3.2l-1.9,0.5c-0.2,0.7-0.4,1.3-0.8,2l1.1,1.6l-2.3,2.3l-1.7-1c-0.6,0.4-1.3,0.7-1.9,0.8
			l-0.4,1.9l-3.2,0.1l-0.5-1.9c-0.7-0.2-1.3-0.4-2-0.8L5,48.6l-2.3-2.2l1-1.7c-0.4-0.6-0.6-1.3-0.8-1.9l-1.9-0.4l-0.1-3.2l1.9-0.4
			c0.2-0.7,0.4-1.3,0.8-2L2.5,35l2.3-2.3L6.4,33.7L6.4,33.7z M8.1,38c-1.3,1.4-1.3,3.6,0.1,4.9c1.4,1.3,3.6,1.3,4.9-0.1
			c1.3-1.4,1.3-3.6-0.1-4.9C11.7,36.6,9.5,36.6,8.1,38C8.1,38,8.1,38,8.1,38z"/>
		<path class="st1" d="M8.1,38c0.2-0.2,0.4-0.4,0.7-0.6c0.7-0.4,1.5-0.6,2.3-0.5c1.2,0.1,2.3,0.9,2.8,2c0.2,0.3,0.3,0.6,0.3,1
			c0.1,0.4,0.1,0.7,0,1.1c-0.2,1.5-1.4,2.8-2.9,3c-0.4,0.1-0.7,0.1-1.1,0c-0.3,0-0.7-0.1-1-0.3c-0.6-0.3-1.1-0.7-1.4-1.2
			c-0.3-0.5-0.5-1-0.6-1.5c-0.1-0.8,0-1.6,0.5-2.3C7.7,38.4,7.9,38.2,8.1,38c-0.2,0.2-0.3,0.5-0.5,0.7c-0.4,0.7-0.5,1.5-0.4,2.2
			c0.2,1.1,0.9,2.1,2,2.6c0.3,0.1,0.6,0.2,0.9,0.3c0.3,0,0.7,0,1,0c1.5-0.3,2.6-1.4,2.8-2.9c0.1-0.3,0.1-0.7,0-1
			c0-0.3-0.1-0.6-0.3-0.9c-0.5-1-1.5-1.7-2.6-1.9c-0.8-0.1-1.5,0.1-2.2,0.5C8.6,37.7,8.4,37.8,8.1,38z"/>
		<path class="st1" d="M6.4,33.7c0,0-0.1,0-0.1-0.1L6,33.5l-1.3-0.7h0l-2.2,2.3V35l1.1,1.6l0,0l0,0C3.3,37.3,3,38,2.9,38.6v0h0
			l-1.9,0.5L1,39.1c0,1,0,2.1,0.1,3.2L1,42.2l1.9,0.4h0v0c0.2,0.7,0.5,1.3,0.8,1.9l0,0l0,0l-1,1.7v-0.1l2.3,2.2H5l1.6-1.1l0,0l0.1,0
			C7.3,47.8,8,48,8.7,48.2h0.1v0.1c0.1,0.6,0.3,1.2,0.5,1.9l-0.1-0.1l3.2-0.1l-0.1,0.1c0.1-0.6,0.3-1.3,0.4-1.9v-0.1l0.1,0
			c0.7-0.2,1.3-0.5,1.9-0.8l0,0l0.1,0l0.1,0l1.7,1l-0.1,0l2.3-2.3v0.1l-1.1-1.6l0,0l0-0.1c0.3-0.6,0.6-1.3,0.8-1.9v-0.1h0.1l1.9-0.5
			L20.1,42c0-1.1,0-2.2-0.1-3.2l0.1,0.1l-1.9-0.4h-0.1v-0.1c-0.2-0.7-0.5-1.3-0.8-1.9l0,0l0,0l1-1.7v0.1L16,32.5h0.1l-1.6,1.1l0,0
			l0,0c-0.6-0.3-1.3-0.6-1.9-0.8h0v0c-0.2-0.7-0.3-1.3-0.5-1.9l0.1,0l-3.2,0l0,0c-0.2,0.8-0.3,1.4-0.4,1.9v0h0
			c-0.5,0.1-1,0.3-1.5,0.6l-0.3,0.2C6.5,33.7,6.5,33.7,6.4,33.7l0.1-0.1l0.3-0.2c0.5-0.3,1-0.5,1.5-0.6l0,0c0.1-0.5,0.2-1.2,0.4-1.9
			v0h0l3.2-0.1h0v0c0.1,0.6,0.3,1.2,0.5,1.9l-0.1,0c0.7,0.2,1.4,0.4,2,0.8h-0.1l1.6-1.1l0.1,0l0,0l2.3,2.2l0,0l0,0.1l-1,1.7v-0.1
			c0.4,0.6,0.7,1.3,0.9,2l-0.1-0.1l1.9,0.4l0.1,0v0.1c0,1.1,0,2.1,0.1,3.2v0.1l-0.1,0l-1.9,0.5l0.1-0.1c-0.2,0.7-0.4,1.4-0.8,2v-0.1
			c0.4,0.5,0.7,1.1,1.1,1.6l0,0.1l-0.1,0.1l-2.3,2.3l-0.1,0.1l-0.1,0l-1.7-1h0.1c-0.6,0.4-1.3,0.7-2,0.9l0.1-0.1
			c-0.1,0.7-0.3,1.3-0.4,1.9l0,0.1h-0.1l-3.2,0.1H9v-0.1c-0.2-0.7-0.3-1.3-0.5-1.9l0.1,0.1c-0.7-0.2-1.4-0.4-2-0.8h0.1l-1.6,1.1
			l-0.1,0L5,48.6l-2.3-2.2l-0.1-0.1l0-0.1c0.4-0.6,0.7-1.2,1-1.7v0.1c-0.4-0.6-0.7-1.3-0.8-2l0.1,0.1l-1.9-0.4H0.9v-0.1
			c0-1.1,0-2.2,0-3.2v-0.1h0.1l1.9-0.5l0,0c0.2-0.7,0.4-1.4,0.8-2v0.1l-1.1-1.6l0,0l0,0l2.3-2.3h0h0L6,33.5l0.3,0.2L6.4,33.7z"/>
		<path class="st2" d="M26.6,4.4c0.7-0.4,1.5-0.8,2.3-1l0.5-2.3l3.9-0.1l0.6,2.3c0.8,0.2,1.6,0.5,2.3,0.9l2-1.3l2.8,2.7l-1.2,2
			c0.4,0.7,0.8,1.5,1,2.3l2.3,0.5l0.1,3.9l-2.3,0.5c-0.2,0.8-0.5,1.6-0.9,2.3l1.3,2L38.4,22l-2-1.2c-0.7,0.4-1.5,0.8-2.3,1l-0.5,2.3
			l-3.9,0.1l-0.6-2.3c-0.8-0.2-1.6-0.5-2.4-0.9l-2,1.3l-2.8-2.7l1.2-2c-0.4-0.7-0.8-1.5-1-2.3L20,14.7L20,10.9l2.3-0.6
			c0.2-0.8,0.5-1.6,0.9-2.4l-1.3-2l2.7-2.8L26.6,4.4L26.6,4.4z M28.7,9.6c-1.6,1.7-1.5,4.3,0.1,5.9c1.7,1.6,4.3,1.5,5.9-0.1
			c1.6-1.7,1.5-4.3-0.1-5.9C32.9,7.9,30.3,7.9,28.7,9.6C28.7,9.6,28.7,9.6,28.7,9.6z"/>
		<path class="st2" d="M28.7,9.6c0.2-0.3,0.5-0.5,0.8-0.7c0.8-0.5,1.8-0.7,2.7-0.6c0.7,0.1,1.3,0.3,1.8,0.7c0.6,0.4,1.2,1,1.5,1.7
			c0.4,0.8,0.5,1.6,0.4,2.4c-0.2,1.9-1.7,3.3-3.5,3.6c-0.8,0.1-1.7,0-2.5-0.3c-0.7-0.3-1.3-0.8-1.7-1.4c-0.9-1.3-1-3.1-0.2-4.5
			C28.2,10.1,28.4,9.8,28.7,9.6c0,0-0.3,0.3-0.6,0.9c-0.4,0.8-0.6,1.7-0.5,2.7c0.2,1.4,1.1,2.5,2.4,3.1c0.4,0.2,0.7,0.3,1.1,0.3
			c0.4,0.1,0.8,0,1.2,0c1.7-0.3,3.1-1.7,3.3-3.4c0.1-0.4,0.1-0.8,0-1.2c-0.1-0.4-0.2-0.8-0.3-1.1c-0.3-0.7-0.8-1.2-1.4-1.6
			c-0.5-0.4-1.1-0.6-1.8-0.7c-0.9-0.1-1.8,0.1-2.6,0.6C28.9,9.3,28.7,9.6,28.7,9.6z"/>
		<path class="st2" d="M26.6,4.4c0,0-0.1,0-0.1-0.1l-0.4-0.2l-1.5-0.9h0L22,6.1V6l1.3,2l0,0l0,0c-0.4,0.7-0.7,1.5-0.9,2.3v0h0
			L20,10.9l0.1-0.1c0,1.2,0.1,2.5,0.1,3.9l-0.1-0.1l2.3,0.5h0.1v0.1c0.2,0.8,0.6,1.6,1,2.3l0,0.1l0,0.1l-1.2,2l0-0.1l2.8,2.7h-0.1
			l2-1.3l0.1,0l0.1,0c0.7,0.4,1.5,0.7,2.3,0.9h0.1v0.1l0.6,2.3L29.8,24l3.9-0.1L33.5,24c0.2-0.7,0.3-1.5,0.5-2.3v-0.1l0.1,0
			c0.8-0.2,1.6-0.6,2.3-1l0,0l0.1,0l0.1,0l2,1.2l-0.1,0l2.7-2.8v0.1l-1.3-2l0-0.1l0-0.1c0.4-0.7,0.7-1.5,0.9-2.3l0-0.1h0.1l2.3-0.6
			l-0.1,0.1c0-1.3,0-2.6-0.1-3.9l0.1,0.1l-2.3-0.5h-0.1l0-0.1c-0.2-0.8-0.6-1.6-1-2.3l0-0.1l0-0.1l1.2-2l0,0.1L38.1,3h0.1l-2,1.3
			l0,0l0,0c-0.7-0.4-1.5-0.7-2.3-0.9h0v0l-0.6-2.3l0.1,0.1l-3.9,0.1l0.1,0c-0.2,0.9-0.4,1.7-0.5,2.3v0h0c-0.6,0.2-1.2,0.4-1.8,0.7
			l-0.4,0.2C26.7,4.4,26.6,4.4,26.6,4.4l0.1-0.1c0.1-0.1,0.2-0.1,0.4-0.2c0.6-0.3,1.2-0.5,1.8-0.7l0,0C29,2.8,29.1,2,29.3,1.1v0h0
			L33.2,1h0.1v0.1c0.2,0.7,0.4,1.4,0.6,2.3l0-0.1c0.8,0.2,1.6,0.5,2.4,0.9h-0.1l2-1.3l0.1,0l0.1,0.1L41,5.6L41,5.7l0,0.1l-1.2,2V7.6
			c0.4,0.7,0.8,1.5,1,2.3l-0.1-0.1l2.3,0.5h0.1v0.1c0,1.3,0,2.5,0.1,3.9v0.1l-0.1,0L40.8,15l0.1-0.1c-0.2,0.8-0.5,1.6-0.9,2.4v-0.1
			l1.3,2l0.1,0.1l-0.1,0.1l-2.7,2.8l-0.1,0.1l-0.1-0.1l-2-1.2h0.1c-0.7,0.4-1.5,0.8-2.3,1l0.1-0.1c-0.2,0.8-0.3,1.6-0.5,2.3l0,0.1
			h-0.1l-3.9,0.1h-0.1l0-0.1c-0.2-0.8-0.4-1.6-0.6-2.3l0.1,0.1c-0.8-0.2-1.6-0.5-2.4-0.9H27l-2,1.3l-0.1,0l-0.1-0.1l-2.8-2.7
			L22,19.5l0-0.1l1.2-2v0.1c-0.4-0.7-0.8-1.5-1-2.3l0.1,0.1L20,14.8l-0.1,0v-0.1c0-1.4,0-2.7-0.1-3.9v-0.1l0.1,0l2.3-0.6l-0.1,0.1
			c0.2-0.8,0.5-1.6,0.9-2.4V8c-0.5-0.7-0.9-1.4-1.3-2l0,0l0,0l2.7-2.8l0,0l0,0l1.5,0.9c0.2,0.1,0.3,0.2,0.4,0.2L26.6,4.4z"/>
		<path class="st2" d="M120.8,10.5c0.4-0.3,0.9-0.5,1.4-0.6l0.3-1.4l2.3,0l0.3,1.4c0.5,0.1,1,0.3,1.4,0.6l1.2-0.8l1.7,1.6l-0.7,1.2
			c0.3,0.4,0.5,0.9,0.6,1.4l1.4,0.3l0,2.3l-1.4,0.3c-0.1,0.5-0.3,1-0.6,1.4l0.8,1.2L128,21l-1.2-0.7c-0.4,0.3-0.9,0.5-1.4,0.6
			l-0.3,1.4l-2.3,0l-0.3-1.4c-0.5-0.1-1-0.3-1.4-0.6l-1.2,0.8l-1.7-1.6l0.7-1.2c-0.3-0.4-0.5-0.9-0.6-1.4l-1.4-0.3l0-2.3l1.4-0.3
			c0.1-0.5,0.3-1,0.6-1.4l-0.8-1.2l1.6-1.7L120.8,10.5L120.8,10.5z M122.1,13.6c-1,1-0.9,2.6,0.1,3.5c1,1,2.6,0.9,3.5-0.1
			c1-1,0.9-2.6-0.1-3.5C124.6,12.6,123,12.6,122.1,13.6C122.1,13.6,122.1,13.6,122.1,13.6z"/>
		<path class="st2" d="M122.1,13.6c0.1-0.2,0.3-0.3,0.5-0.4c0.8-0.5,1.9-0.5,2.7,0c0.4,0.3,0.7,0.6,0.9,1c0.2,0.5,0.3,1,0.2,1.5
			c-0.1,1.1-1,2-2.1,2.2c-0.3,0-0.5,0-0.8,0c-0.2,0-0.5-0.1-0.7-0.2c-0.4-0.2-0.8-0.5-1-0.9c-0.6-0.8-0.6-1.9-0.1-2.7
			C121.8,13.9,121.9,13.7,122.1,13.6c-0.1,0.1-0.2,0.3-0.3,0.5c-0.3,0.5-0.4,1-0.3,1.6c0.1,0.8,0.7,1.5,1.4,1.9
			c0.2,0.1,0.4,0.2,0.7,0.2c0.2,0,0.5,0,0.7,0c1-0.2,1.9-1,2-2.1c0-0.2,0-0.5,0-0.7c0-0.2-0.1-0.5-0.2-0.7c-0.6-1.2-2.1-1.7-3.3-1.1
			c-0.1,0-0.1,0.1-0.2,0.1C122.4,13.3,122.2,13.4,122.1,13.6z"/>
		<path class="st2" d="M120.8,10.5L120.8,10.5l-0.3-0.2l-0.9-0.5h0c-0.4,0.4-1,1-1.6,1.7v0c0.2,0.4,0.5,0.8,0.8,1.2l0,0v0
			c-0.2,0.4-0.4,0.9-0.5,1.4v0h0l-1.4,0.3l0-0.1c0,0.7,0,1.5,0,2.3l0-0.1l1.4,0.3h0v0c0.1,0.5,0.3,0.9,0.6,1.4l0,0l0,0
			c-0.2,0.4-0.5,0.8-0.7,1.2v-0.1l1.7,1.6h-0.1l1.2-0.8l0,0l0,0c0.4,0.2,0.9,0.4,1.4,0.5h0v0c0.1,0.4,0.2,0.9,0.3,1.4l-0.1-0.1
			l2.3,0l-0.1,0.1l0.3-1.4v0h0c0.5-0.1,0.9-0.3,1.4-0.6l0,0l0,0l0,0L128,21H128l1.6-1.7v0.1c-0.3-0.4-0.5-0.8-0.8-1.2l0,0l0,0
			c0.2-0.4,0.4-0.9,0.6-1.4v0h0l1.4-0.3l-0.1,0.1c0-0.8,0-1.6,0-2.3l0.1,0.1l-1.4-0.3h0v0c-0.1-0.5-0.3-0.9-0.6-1.4l0,0l0,0l0.7-1.2
			v0.1l-1.7-1.6h0.1l-1.2,0.8h0h0c-0.4-0.2-0.9-0.4-1.4-0.6h0v0c-0.1-0.5-0.2-0.9-0.3-1.4l0,0l-2.3,0l0,0l-0.3,1.4l0,0l0,0
			c-0.4,0.1-0.7,0.2-1.1,0.4l-0.3,0.1L120.8,10.5c0.1-0.1,0.1-0.1,0.1-0.1l0.2-0.1c0.3-0.2,0.7-0.3,1.1-0.4h0
			c0.1-0.4,0.2-0.8,0.3-1.4v0h0l2.3-0.1h0v0c0.1,0.4,0.2,0.9,0.3,1.4l0,0c0.5,0.1,1,0.3,1.4,0.6h-0.1l1.2-0.7l0,0l0,0l1.7,1.6l0,0
			l0,0l-0.7,1.2v-0.1c0.3,0.4,0.5,0.9,0.6,1.4l0,0l1.4,0.3h0.1v0.1c0,0.8,0,1.5,0,2.3v0.1h-0.1l-1.4,0.3l0.1-0.1
			c-0.1,0.5-0.3,1-0.6,1.4v-0.1l0.8,1.2l0,0l0,0l-1.6,1.7l0,0l0,0l-1.2-0.7h0.1c-0.4,0.3-0.9,0.5-1.4,0.6l0.1-0.1l-0.3,1.4v0.1h-0.1
			l-2.3,0h-0.1v-0.1l-0.3-1.4l0,0c-0.5-0.1-1-0.3-1.4-0.6h0.1l-1.2,0.8l0,0l0,0l-1.7-1.6l0,0l0,0l0.7-1.2v0.1
			c-0.3-0.4-0.5-0.9-0.6-1.4l0,0l-1.4-0.3h0v0c0-0.8,0-1.6,0-2.3v-0.1h0l1.4-0.3l0,0c0.1-0.5,0.3-1,0.6-1.4v0l-0.8-1.2v0l0,0
			l1.6-1.7l0,0l0,0l0.9,0.6c0.1,0.1,0.2,0.1,0.2,0.1C120.8,10.4,120.8,10.4,120.8,10.5z"/>
		<path class="st1" d="M139.1,65.2L139.1,65.2l-0.8-3.4c-1.2-0.3-2.4-0.8-3.5-1.4l-2.9,1.9l0,0l-4.1-4l0,0l1.8-3
			c-0.6-1.1-1.1-2.2-1.5-3.4l-3.4-0.7l0,0l-0.1-5.7l0,0l3.4-0.8c0.3-1.2,0.7-2.4,1.4-3.5l-1.9-2.9l0,0l4-4.1l0,0l3,1.8
			c1.1-0.6,2.2-1.2,3.4-1.5l0.7-3.4l0,0l5.8-0.1l0,0l0.8,3.4c1.2,0.3,2.4,0.8,3.5,1.4l2.9-1.9l0,0l4.1,4l0,0l-1.7,2.9
			c0.6,1.1,1.1,2.2,1.5,3.4l3.4,0.7l0,0l0.1,5.7l0,0l-3.4,0.8c-0.3,1.2-0.7,2.4-1.4,3.5l1.9,2.9l0,0l-4,4.1l0,0l-3-1.8
			c-1.1,0.6-2.2,1.2-3.4,1.5l-0.7,3.4l0,0L139.1,65.2z M134.8,60.5L134.8,60.5c1.1,0.6,2.3,1.1,3.5,1.4l0,0l0.8,3.4l5.7-0.1l0.7-3.4
			l0,0c1.2-0.3,2.4-0.8,3.4-1.5l0,0l3,1.8l4-4.1l-1.9-2.9l0,0c0.6-1.1,1.1-2.3,1.4-3.5l0,0l0,0l3.4-0.8l-0.1-5.7l-3.4-0.7l0,0
			c-0.3-1.2-0.8-2.4-1.5-3.4l0,0l1.8-3l-4.1-4l-2.9,1.9l0,0c-1.1-0.6-2.3-1.1-3.5-1.4l0,0l-0.8-3.4l-5.7,0.1l-0.7,3.4l0,0
			c-1.2,0.3-2.4,0.8-3.4,1.5l0,0l-3-1.8l-4,4.1l1.9,2.9l0,0c-0.6,1.1-1.1,2.3-1.4,3.5l0,0l0,0l-3.4,0.8l0.1,5.7l3.4,0.7l0,0
			c0.3,1.2,0.8,2.4,1.5,3.4l0,0l-1.8,3l4.1,4L134.8,60.5z M141.9,54.1c-3.4,0-6.2-2.7-6.2-6.1c0-3.4,2.7-6.2,6.1-6.2h0.1
			c3.4,0,6.2,2.7,6.2,6.1c0,3.4-2.7,6.2-6.1,6.2H141.9z M137.4,43.6L137.4,43.6c-2.4,2.4-2.3,6.4,0.2,8.7c1.1,1.1,2.7,1.7,4.3,1.7
			h0.1c3.4,0,6.1-2.8,6.1-6.2c0-3.4-2.8-6.1-6.2-6.1h-0.1C140.1,41.7,138.6,42.4,137.4,43.6L137.4,43.6z"/>
		<path class="st0" d="M137.4,43.6c0.3-0.4,0.7-0.7,1.1-1c1.2-0.8,2.6-1.1,4-0.9c1,0.1,1.9,0.4,2.7,1c0.9,0.6,1.7,1.5,2.2,2.5
			c0.6,1.1,0.8,2.4,0.6,3.6c-0.4,2.8-2.5,5-5.2,5.4c-0.6,0.1-1.3,0.1-1.9,0c-0.6-0.1-1.2-0.2-1.8-0.5c-1-0.5-1.9-1.2-2.6-2.1
			c-0.6-0.8-0.9-1.7-1.1-2.7c-0.2-1.4,0.1-2.8,0.8-4.1C136.7,44.3,137,43.9,137.4,43.6c0,0-0.4,0.4-0.8,1.3c-0.7,1.2-0.9,2.6-0.7,4
			c0.3,2,1.7,3.7,3.5,4.6c1.1,0.5,2.3,0.6,3.5,0.4c2.6-0.4,4.6-2.5,4.9-5.1c0.2-1.2,0-2.4-0.5-3.4c-0.9-1.9-2.7-3.1-4.7-3.4
			c-1.4-0.2-2.7,0.1-3.9,0.8C138.2,43,137.8,43.3,137.4,43.6z"/>
		<path class="st0" d="M134.3,35.9c0,0-0.1,0-0.2-0.1l-0.6-0.3l-2.2-1.3h0.1l-4,4.2v-0.1l1.9,2.9l0,0.1l0,0.1
			c-0.6,1.1-1.1,2.3-1.4,3.5l0,0.1h-0.1l-3.4,0.8l0.1-0.1c0,1.8,0.1,3.7,0.1,5.7l-0.1-0.1l3.4,0.7h0.1l0,0.1
			c0.3,1.2,0.8,2.3,1.5,3.4l0,0.1l0,0.1l-1.8,3l0-0.2l4.1,4h-0.2l2.9-1.9l0.1-0.1l0.1,0.1c1.1,0.6,2.2,1.1,3.5,1.4l0.1,0l0,0.1
			l0.8,3.4l-0.2-0.1l5.7-0.1l-0.2,0.1c0.2-1.1,0.5-2.2,0.7-3.4l0-0.1l0.1,0c1.2-0.3,2.3-0.8,3.4-1.5l0,0L149,60l0.1,0.1l3,1.8
			l-0.2,0l4-4.1l0,0.2l-1.9-2.9l-0.1-0.1l0.1-0.1c0.6-1.1,1.1-2.2,1.4-3.4l0-0.1l0.1,0l3.4-0.8l-0.1,0.2c0-2-0.1-3.9-0.1-5.7
			l0.1,0.2l-3.4-0.7l-0.1,0l0-0.1c-0.3-1.2-0.8-2.3-1.5-3.4l0-0.1l0-0.1c0.6-1,1.2-2,1.8-3l0,0.2l-4.1-4h0.2l-2.9,1.9l-0.1,0l-0.1,0
			c-1.1-0.6-2.3-1.1-3.5-1.4H145l0-0.1c-0.3-1.2-0.6-2.3-0.8-3.4l0.1,0.1l-5.7,0.1l0.1-0.1c-0.3,1.4-0.5,2.5-0.7,3.4v0h0
			c-0.9,0.3-1.8,0.6-2.6,1l-0.6,0.3L134.3,35.9c0.1,0,0.1-0.1,0.2-0.1c0.1-0.1,0.3-0.2,0.6-0.3c0.8-0.4,1.7-0.8,2.6-1.1l0,0
			c0.2-0.9,0.4-2,0.7-3.4V31h0.1l5.7-0.1h0.1l0,0.1c0.3,1,0.5,2.1,0.8,3.4l-0.1-0.1c1.2,0.3,2.4,0.7,3.6,1.3h-0.1l2.9-1.9l0.1-0.1
			l0.1,0.1l4.1,4l0.1,0.1l-0.1,0.1l-1.8,3v-0.2c0.7,1.1,1.2,2.3,1.5,3.5l-0.1-0.1l3.4,0.7l0.1,0v0.1c0,1.9,0.1,3.8,0.1,5.7v0.2
			l-0.1,0l-3.4,0.8l0.1-0.1c-0.3,1.2-0.8,2.4-1.4,3.5v-0.2l1.9,2.9l0.1,0.1l-0.1,0.1l-4,4.1l-0.1,0.1l-0.1-0.1l-3-1.8h0.2
			c-1.1,0.7-2.3,1.2-3.5,1.5l0.1-0.1c-0.2,1.2-0.5,2.3-0.7,3.4l0,0.1h-0.1l-5.7,0.1H139l0-0.1c-0.3-1.2-0.6-2.3-0.8-3.4l0.1,0.1
			c-1.2-0.3-2.4-0.8-3.5-1.4h0.2l-2.9,1.9l-0.1,0.1l-0.1-0.1l-4.1-4l-0.1-0.1l0.1-0.1l1.8-3v0.2c-0.7-1.1-1.2-2.3-1.5-3.5l0.1,0.1
			l-3.4-0.7l-0.1,0v-0.1c0-2-0.1-3.9-0.1-5.7v-0.1l0.1,0l3.4-0.8l-0.1,0.1c0.3-1.2,0.8-2.4,1.4-3.5v0.1l-1.9-2.9l0-0.1l0.1-0.1
			l4-4.1l0,0l0,0l2.2,1.4l0.6,0.4C134.2,35.8,134.3,35.9,134.3,35.9z"/>
	</g>
	<g id="freepik--Window--inject-21">
		<rect x="8.9" y="15.5" class="st4" width="139.2" height="89.3"/>
		<rect x="46.8" y="41.4" class="st2" width="101.4" height="9.9"/>
		<rect x="46.8" y="69.9" class="st2" width="101.4" height="15.1"/>
		<rect x="8.9" y="29.6" class="st0" width="37.8" height="74.9"/>
		<rect x="8.9" y="31.6" class="st5" width="37.8" height="7.3"/>
		<path class="st6" d="M39.4,45.6c0,0-5.3,0.1-11.9,0.1s-11.9,0-11.9-0.1c0,0,5.3-0.1,11.9-0.1S39.4,45.5,39.4,45.6z"/>
		<path class="st6" d="M39.4,54.8c0,0-5.3,0.1-11.9,0.1s-11.9,0-11.9-0.1c0,0,5.3-0.1,11.9-0.1S39.4,54.8,39.4,54.8z"/>
		<path class="st6" d="M39.4,64c0,0.1-5.3,0.1-11.9,0.1s-11.9,0-11.9-0.1c0-0.1,5.3-0.1,11.9-0.1S39.4,64,39.4,64z"/>
		<path class="st6" d="M54.3,37.9v-1.5l-0.7,1.2h-0.3l-0.7-1.2v1.5H52v-2.5h0.5l0.9,1.5l0.9-1.5h0.5v2.5H54.3z"/>
		<path class="st6" d="M57,37.4h-1.1l-0.2,0.5h-0.6l1.1-2.5h0.6l1.1,2.5h-0.6L57,37.4z M56.8,36.9L56.4,36L56,36.9H56.8z"/>
		<path class="st6" d="M60.4,35.4v2.5h-0.5l-1.2-1.5v1.5h-0.6v-2.5h0.5l1.2,1.5v-1.5H60.4z"/>
		<path class="st6" d="M62.6,37.4h-1.1l-0.2,0.5h-0.6l1.1-2.5h0.6l1.1,2.5h-0.6L62.6,37.4z M62.4,36.9L62,36l-0.4,0.9H62.4z"/>
		<path class="st6" d="M65.3,36.6h0.5v1c-0.3,0.2-0.7,0.3-1,0.3c-0.7,0.1-1.3-0.5-1.4-1.2c-0.1-0.7,0.5-1.3,1.2-1.4
			c0.1,0,0.1,0,0.2,0c0.4,0,0.8,0.1,1,0.4l-0.4,0.3c-0.2-0.2-0.4-0.3-0.6-0.3c-0.4,0-0.8,0.4-0.8,0.8c0,0.4,0.4,0.8,0.8,0.8
			c0,0,0,0,0,0c0.2,0,0.3,0,0.4-0.1L65.3,36.6z"/>
		<path class="st6" d="M68.3,37.4v0.5h-1.9v-2.5h1.9v0.5h-1.3v0.5h1.1v0.4h-1.1v0.6H68.3z"/>
		<path class="st6" d="M70.2,35.9h-0.8v-0.5h2.2v0.5h-0.8v2h-0.6V35.9z"/>
		<path class="st6" d="M73.4,37.4h-1.1L72,37.9h-0.6l1.1-2.5h0.6l1.1,2.5h-0.6L73.4,37.4z M73.2,36.9L72.8,36l-0.4,0.9H73.2z"/>
		<path class="st6" d="M74.3,37.7l0.2-0.4c0.2,0.2,0.5,0.3,0.8,0.3c0.3,0,0.5-0.1,0.5-0.3c0-0.5-1.4-0.1-1.4-1.1
			c0-0.4,0.3-0.8,1-0.8c0.3,0,0.6,0.1,0.9,0.2L76.1,36c-0.2-0.1-0.4-0.2-0.7-0.2c-0.3,0-0.5,0.1-0.5,0.3c0,0.5,1.4,0.1,1.4,1.1
			c0,0.4-0.3,0.8-1,0.8C74.9,38,74.6,37.9,74.3,37.7z"/>
		<path class="st6" d="M77.6,36.9l-0.3,0.3v0.6h-0.6v-2.5h0.6v1.2l1.1-1.2H79l-1,1.1l1.1,1.4h-0.7L77.6,36.9z"/>
		<path class="st6" d="M79.1,37.7l0.2-0.4c0.2,0.2,0.5,0.3,0.8,0.3c0.3,0,0.5-0.1,0.5-0.3c0-0.5-1.4-0.1-1.4-1.1
			c0-0.4,0.3-0.8,1-0.8c0.3,0,0.6,0.1,0.9,0.2L80.9,36c-0.2-0.1-0.4-0.2-0.7-0.2c-0.3,0-0.5,0.1-0.5,0.3c0,0.5,1.4,0.1,1.4,1.1
			c0,0.4-0.3,0.8-1,0.8C79.8,38,79.4,37.9,79.1,37.7z"/>
		<path class="st6" d="M56.1,45.3h-1v-0.2h2.2v0.2h-1v2.5h-0.3L56.1,45.3z"/>
		<path class="st6" d="M59.2,46.5v1.3h-0.3v-0.3c-0.2,0.2-0.4,0.4-0.7,0.3c-0.5,0-0.7-0.2-0.7-0.6c0-0.4,0.2-0.6,0.8-0.6h0.6v-0.1
			c0-0.3-0.2-0.5-0.6-0.5c-0.2,0-0.5,0.1-0.7,0.2L57.5,46c0.2-0.2,0.5-0.3,0.8-0.3c0.4-0.1,0.8,0.2,0.8,0.6
			C59.2,46.4,59.2,46.5,59.2,46.5z M58.9,47.2v-0.3h-0.6c-0.4,0-0.5,0.2-0.5,0.4s0.2,0.4,0.5,0.4C58.5,47.6,58.8,47.4,58.9,47.2
			L58.9,47.2z"/>
		<path class="st6" d="M59.6,47.5l0.1-0.2c0.2,0.2,0.5,0.2,0.7,0.2c0.4,0,0.5-0.1,0.5-0.3c0-0.5-1.3-0.1-1.3-0.9
			c0-0.3,0.3-0.6,0.8-0.6c0.3,0,0.5,0.1,0.7,0.2l-0.1,0.2C60.9,46,60.7,46,60.5,46c-0.4,0-0.5,0.1-0.5,0.3c0,0.5,1.3,0.1,1.3,0.9
			c0,0.3-0.3,0.6-0.8,0.6C60.2,47.8,59.9,47.7,59.6,47.5z"/>
		<path class="st6" d="M62.6,46.8l-0.5,0.4v0.6h-0.3v-2.9h0.3v1.9l1.2-1.1h0.3l-0.9,0.8l1,1.2h-0.3L62.6,46.8z"/>
		<path class="st6" d="M108,58c0,0.1-12,0.1-26.7,0.1s-26.7,0-26.7-0.1s12-0.1,26.7-0.1S108,58,108,58z"/>
		<path class="st6" d="M77.1,62.8c0,0-5.1,0.1-11.3,0.1s-11.3,0-11.3-0.1c0,0,5.1-0.1,11.3-0.1S77.1,62.8,77.1,62.8z"/>
		<path class="st5" d="M116.8,54.6h22.3c1.5,0,2.7,1.2,2.7,2.7v4.1c0,1.5-1.2,2.7-2.7,2.7h-22.3c-1.5,0-2.7-1.2-2.7-2.7v-4.1
			C114.1,55.9,115.3,54.6,116.8,54.6z"/>
		<path class="st6" d="M108,75c0,0.1-12,0.1-26.7,0.1s-26.7,0-26.7-0.1s12-0.1,26.7-0.1S108,75,108,75z"/>
		<path class="st6" d="M77.1,79.8c0,0-5.1,0.1-11.3,0.1s-11.3,0-11.3-0.1s5.1-0.1,11.3-0.1S77.1,79.8,77.1,79.8z"/>
		<path class="st5" d="M116.8,72.7h22.3c1.5,0,2.7,1.2,2.7,2.7v4.1c0,1.5-1.2,2.7-2.7,2.7h-22.3c-1.5,0-2.7-1.2-2.7-2.7v-4.1
			C114.1,73.9,115.3,72.7,116.8,72.7z"/>
		<path class="st6" d="M108,92.1c0,0.1-12,0.1-26.7,0.1s-26.7,0-26.7-0.1s12-0.1,26.7-0.1S108,92,108,92.1z"/>
		<path class="st6" d="M77.1,96.9c0,0-5.1,0.1-11.3,0.1s-11.3,0-11.3-0.1s5.1-0.1,11.3-0.1S77.1,96.8,77.1,96.9z"/>
		<path class="st5" d="M116.8,90.7h22.3c1.5,0,2.7,1.2,2.7,2.7v4.1c0,1.5-1.2,2.7-2.7,2.7h-22.3c-1.5,0-2.7-1.2-2.7-2.7v-4.1
			C114.1,91.9,115.3,90.7,116.8,90.7z"/>
		<rect x="8.9" y="15.4" class="st1" width="139.2" height="8.5"/>
		<rect x="8.9" y="23.1" class="st2" width="139.2" height="8.5"/>
		<path class="st3" d="M122.7,60h-1.3l-0.2,0.6h-0.6l1.2-2.7h0.6l1.2,2.7h-0.7L122.7,60z M122.5,59.5l-0.4-1l-0.4,1H122.5z"/>
		<path class="st3" d="M123.7,59.5c0-0.6,0.5-1.1,1.1-1.1c0,0,0.1,0,0.1,0c0.4,0,0.8,0.2,0.9,0.5l-0.5,0.3c-0.1-0.2-0.3-0.3-0.5-0.3
			c-0.3,0-0.6,0.3-0.6,0.6c0,0.3,0.3,0.6,0.6,0.6c0.2,0,0.4-0.1,0.5-0.3l0.5,0.3c-0.2,0.3-0.5,0.6-0.9,0.5
			C124.2,60.7,123.7,60.2,123.7,59.5C123.7,59.6,123.7,59.6,123.7,59.5z"/>
		<path class="st3" d="M125.9,59.5c0-0.6,0.5-1.1,1.1-1.1c0,0,0.1,0,0.1,0c0.4,0,0.8,0.2,0.9,0.5l-0.5,0.3c-0.1-0.2-0.3-0.3-0.5-0.3
			c-0.3,0-0.6,0.3-0.6,0.6c0,0.3,0.3,0.6,0.6,0.6c0.2,0,0.4-0.1,0.5-0.3l0.5,0.3c-0.2,0.3-0.5,0.6-0.9,0.5
			C126.5,60.7,126,60.2,125.9,59.5C125.9,59.6,125.9,59.6,125.9,59.5z"/>
		<path class="st3" d="M130.4,59.7h-1.6c0.1,0.3,0.3,0.4,0.6,0.4c0.2,0,0.4-0.1,0.5-0.2l0.3,0.3c-0.2,0.2-0.5,0.4-0.9,0.3
			c-0.6,0.1-1.1-0.4-1.2-1c0,0,0-0.1,0-0.1c0-0.6,0.5-1.1,1.1-1.1c0,0,0,0,0.1,0c0.6,0,1,0.4,1.1,0.9c0,0,0,0.1,0,0.1
			C130.4,59.6,130.4,59.7,130.4,59.7z M128.8,59.4h1c-0.1-0.3-0.3-0.5-0.6-0.4C129,59,128.8,59.2,128.8,59.4z"/>
		<path class="st3" d="M133.1,59.5c0,0.6-0.4,1-1,1.1c0,0-0.1,0-0.1,0c-0.2,0-0.5-0.1-0.6-0.3v1h-0.6v-2.8h0.6v0.2
			c0.2-0.2,0.4-0.3,0.7-0.3C132.6,58.5,133,58.9,133.1,59.5C133.1,59.5,133.1,59.5,133.1,59.5z M132.4,59.5c0-0.3-0.3-0.5-0.6-0.5
			c-0.3,0-0.5,0.3-0.5,0.6c0,0.3,0.3,0.5,0.5,0.5C132.2,60.1,132.4,59.9,132.4,59.5C132.4,59.6,132.4,59.6,132.4,59.5z"/>
		<path class="st3" d="M134.8,60.5c-0.1,0.1-0.3,0.1-0.5,0.1c-0.4,0.1-0.7-0.2-0.8-0.6c0-0.1,0-0.1,0-0.2V59h-0.3v-0.5h0.3V58h0.6
			v0.5h0.5V59h-0.5v0.8c0,0.1,0.1,0.3,0.2,0.3c0,0,0,0,0.1,0c0.1,0,0.2,0,0.2-0.1L134.8,60.5z"/>
		<path class="st3" d="M122.7,77.9h-1.3l-0.2,0.6h-0.6l1.2-2.7h0.6l1.2,2.7h-0.7L122.7,77.9z M122.5,77.5l-0.4-1l-0.4,1L122.5,77.5z
			"/>
		<path class="st3" d="M123.7,77.5c0-0.6,0.5-1.1,1.1-1.1c0,0,0.1,0,0.1,0c0.4,0,0.8,0.2,0.9,0.5l-0.5,0.3c-0.1-0.2-0.3-0.3-0.5-0.3
			c-0.3,0-0.6,0.3-0.6,0.6c0,0.3,0.3,0.6,0.6,0.6c0.2,0,0.4-0.1,0.5-0.3l0.5,0.3c-0.2,0.3-0.5,0.6-0.9,0.5
			C124.2,78.6,123.7,78.2,123.7,77.5C123.7,77.5,123.7,77.5,123.7,77.5z"/>
		<path class="st3" d="M125.9,77.5c0-0.6,0.5-1.1,1.1-1.1c0,0,0.1,0,0.1,0c0.4,0,0.8,0.2,0.9,0.5l-0.5,0.3c-0.1-0.2-0.3-0.3-0.5-0.3
			c-0.3,0-0.6,0.3-0.6,0.6c0,0.3,0.3,0.6,0.6,0.6c0.2,0,0.4-0.1,0.5-0.3L128,78c-0.2,0.3-0.5,0.6-0.9,0.5
			C126.5,78.6,126,78.2,125.9,77.5C125.9,77.5,125.9,77.5,125.9,77.5z"/>
		<path class="st3" d="M130.4,77.6h-1.6c0.1,0.3,0.3,0.4,0.6,0.4c0.2,0,0.4-0.1,0.5-0.2l0.3,0.3c-0.2,0.2-0.5,0.4-0.9,0.3
			c-0.6,0.1-1.1-0.4-1.2-1c0,0,0-0.1,0-0.1c0-0.6,0.5-1.1,1.1-1.1c0,0,0,0,0.1,0c0.6,0,1,0.4,1.1,0.9c0,0,0,0.1,0,0.1
			C130.4,77.5,130.4,77.6,130.4,77.6z M128.8,77.3h1c-0.1-0.3-0.3-0.5-0.6-0.4C129,77,128.8,77.1,128.8,77.3z"/>
		<path class="st3" d="M133.1,77.5c0,0.6-0.4,1-1,1.1c0,0-0.1,0-0.1,0c-0.2,0-0.5-0.1-0.6-0.3v1h-0.6v-2.8h0.6v0.2
			c0.2-0.2,0.4-0.3,0.7-0.3C132.6,76.4,133,76.8,133.1,77.5C133.1,77.4,133.1,77.4,133.1,77.5z M132.4,77.5c0-0.3-0.3-0.5-0.6-0.5
			c-0.3,0-0.5,0.3-0.5,0.6c0,0.3,0.3,0.5,0.5,0.5C132.2,78.1,132.4,77.8,132.4,77.5C132.4,77.5,132.4,77.5,132.4,77.5z"/>
		<path class="st3" d="M134.8,78.4c-0.1,0.1-0.3,0.1-0.5,0.1c-0.4,0.1-0.7-0.2-0.8-0.6c0-0.1,0-0.1,0-0.2v-0.9h-0.3v-0.5h0.3V76h0.6
			v0.5h0.5V77h-0.5v0.8c0,0.1,0.1,0.3,0.2,0.3c0,0,0,0,0.1,0c0.1,0,0.2,0,0.2-0.1L134.8,78.4z"/>
		<path class="st3" d="M122.7,95.9h-1.3l-0.2,0.6h-0.6l1.2-2.7h0.6l1.2,2.7h-0.7L122.7,95.9z M122.5,95.4l-0.4-1l-0.4,1H122.5z"/>
		<path class="st3" d="M123.7,95.4c0-0.6,0.5-1.1,1.1-1.1c0,0,0.1,0,0.1,0c0.4,0,0.8,0.2,0.9,0.5l-0.5,0.3c-0.1-0.2-0.3-0.3-0.5-0.3
			c-0.3,0-0.6,0.3-0.6,0.6c0,0.3,0.3,0.6,0.6,0.6c0.2,0,0.4-0.1,0.5-0.3l0.5,0.3c-0.2,0.3-0.5,0.6-0.9,0.5
			C124.2,96.5,123.7,96.1,123.7,95.4C123.7,95.5,123.7,95.4,123.7,95.4z"/>
		<path class="st3" d="M125.9,95.4c0-0.6,0.5-1.1,1.1-1.1c0,0,0.1,0,0.1,0c0.4,0,0.8,0.2,0.9,0.5l-0.5,0.3c-0.1-0.2-0.3-0.3-0.5-0.3
			c-0.3,0-0.6,0.3-0.6,0.6c0,0.3,0.3,0.6,0.6,0.6c0.2,0,0.4-0.1,0.5-0.3L128,96c-0.2,0.3-0.5,0.6-0.9,0.5
			C126.5,96.5,126,96.1,125.9,95.4C125.9,95.5,125.9,95.4,125.9,95.4z"/>
		<path class="st3" d="M130.4,95.6h-1.6c0.1,0.3,0.3,0.4,0.6,0.4c0.2,0,0.4-0.1,0.5-0.2l0.3,0.3c-0.2,0.2-0.5,0.4-0.9,0.3
			c-0.6,0.1-1.1-0.4-1.2-1c0,0,0-0.1,0-0.1c0-0.6,0.5-1.1,1-1.1c0,0,0,0,0.1,0c0.6,0,1.1,0.4,1.1,1c0,0,0,0.1,0,0.1
			C130.4,95.5,130.4,95.5,130.4,95.6z M128.8,95.2h1c-0.1-0.3-0.3-0.5-0.6-0.4C129,94.9,128.8,95.1,128.8,95.2z"/>
		<path class="st3" d="M133.1,95.4c0,0.6-0.4,1-1,1.1c0,0-0.1,0-0.1,0c-0.2,0-0.5-0.1-0.6-0.3v1h-0.6v-2.8h0.6v0.2
			c0.2-0.2,0.4-0.3,0.7-0.3C132.6,94.3,133,94.8,133.1,95.4C133.1,95.4,133.1,95.4,133.1,95.4z M132.4,95.4c0-0.3-0.3-0.5-0.6-0.5
			c-0.3,0-0.5,0.3-0.5,0.6c0,0.3,0.3,0.5,0.5,0.5C132.2,96,132.4,95.8,132.4,95.4C132.4,95.5,132.4,95.4,132.4,95.4z"/>
		<path class="st3" d="M134.8,96.4c-0.1,0.1-0.3,0.1-0.5,0.1c-0.4,0.1-0.7-0.2-0.8-0.6c0-0.1,0-0.1,0-0.2v-0.9h-0.3v-0.5h0.3v-0.5
			h0.6v0.5h0.5v0.5h-0.5v0.8c0,0.1,0.1,0.3,0.2,0.3c0,0,0,0,0.1,0c0.1,0,0.2,0,0.2-0.1L134.8,96.4z"/>
		<path class="st4" d="M38.3,35.7c0,0.1-5,0.1-11.1,0.1s-11.1,0-11.1-0.1s5-0.1,11.1-0.1S38.3,35.7,38.3,35.7z"/>
		<path class="st6" d="M14.6,19.4c0,0.6-0.5,1.1-1.1,1.1c-0.6,0-1.1-0.5-1.1-1.1c0-0.6,0.5-1.1,1.1-1.1c0,0,0,0,0,0
			C14.1,18.3,14.6,18.8,14.6,19.4C14.6,19.4,14.6,19.4,14.6,19.4z"/>
		<path class="st6" d="M18.5,19.4c0,0.6-0.5,1.1-1.1,1.1c-0.6,0-1.1-0.5-1.1-1.1c0-0.6,0.5-1.1,1.1-1.1c0,0,0,0,0,0
			C18,18.3,18.5,18.8,18.5,19.4z"/>
		<path class="st6" d="M22.4,19.4c0,0.6-0.5,1.1-1.1,1.1c-0.6,0-1.1-0.5-1.1-1.1c0-0.6,0.5-1.1,1.1-1.1c0,0,0,0,0,0
			C22,18.3,22.4,18.8,22.4,19.4z"/>
		<polygon class="st6" points="139.3,61.2 141.1,70.6 142.5,68 145.6,72.7 147.2,71.6 144.1,66.9 147,66.5 		"/>
		<path class="st6" d="M138.7,61.5c-0.4,0.1-0.9,0.1-1.3,0.1c-0.4,0-0.9,0-1.3-0.1C136.9,61.4,137.8,61.4,138.7,61.5L138.7,61.5z"/>
		<path class="st6" d="M139,60.3c-0.5-0.5-1-0.9-1.4-1.5c-0.5-0.5-0.9-1-1.3-1.6c0.5,0.4,1,0.9,1.4,1.5
			C138.2,59.2,138.6,59.7,139,60.3z"/>
		<path class="st6" d="M140.5,58c0,0.8-0.2,1.5-0.6,2.2c0.1-0.4,0.2-0.8,0.3-1.1C140.2,58.7,140.4,58.3,140.5,58z"/>
		<path class="st1" d="M140.9,34.5c0,0.4-0.3,0.7-0.7,0.7c-0.4,0-0.7-0.3-0.7-0.7s0.3-0.7,0.7-0.7C140.6,33.8,140.9,34.1,140.9,34.5
			z"/>
		<path class="st1" d="M140.9,36.4c0,0.4-0.3,0.7-0.7,0.7c-0.4,0-0.7-0.3-0.7-0.7s0.3-0.7,0.7-0.7C140.6,35.7,140.9,36,140.9,36.4z"
			/>
		<path class="st1" d="M140.9,38.3c0,0.4-0.3,0.7-0.7,0.7c-0.4,0-0.7-0.3-0.7-0.7s0.3-0.7,0.7-0.7C140.6,37.6,140.9,37.9,140.9,38.3
			z"/>
		<path class="st6" d="M148.1,104.8c0-0.6,0-34.8-0.1-89.4l0.1,0.1H9l0,0L9,15.4c0,31.7,0,62,0,89.4L9,104.7L148.1,104.8L9,104.9
			H8.9v-0.1c0-27.5,0-57.7,0-89.4v-0.1H9l139.2,0h0.1v0.1C148.2,70,148.1,104.3,148.1,104.8z"/>
	</g>
	<g id="freepik--speech-bubble--inject-21">
		<path class="st4" d="M32.7,81.3l-2.9-5.2c4-6.5,2-15-4.5-19s-15-2-19,4.5c-4,6.5-2,15,4.5,19c4.9,3,11.1,2.7,15.7-0.8l0,0
			L32.7,81.3z"/>
		<path class="st6" d="M32.7,81.3l-6.3-1.4l-0.1,0l0-0.1l0,0l0.1,0.1c-0.9,0.7-1.8,1.3-2.8,1.7c-1.2,0.5-2.5,0.9-3.8,1.1
			c-0.7,0.1-1.5,0.1-2.2,0.1c-0.4,0-0.8,0-1.1-0.1l-1.2-0.2c-3.5-0.7-6.6-2.7-8.6-5.5c-1.1-1.6-1.9-3.4-2.3-5.3
			c-0.4-2-0.3-4.1,0.2-6.1c0.5-2.1,1.5-4,3-5.7l0.6-0.6c0.2-0.2,0.4-0.4,0.6-0.6c0.2-0.2,0.4-0.4,0.6-0.5l0.7-0.5
			c0.2-0.2,0.4-0.3,0.7-0.5l0.7-0.4l0.7-0.4c0.2-0.1,0.5-0.2,0.7-0.3c2-0.8,4.1-1.1,6.2-0.9c2,0.1,3.9,0.7,5.7,1.7
			c3.1,1.7,5.5,4.6,6.6,8.1c0.4,1.5,0.6,3,0.6,4.5c0,1.3-0.3,2.6-0.7,3.9c-0.3,1-0.8,2-1.4,3v0L32.7,81.3l-3-5.1v0v0
			c1.3-2.1,2-4.4,2-6.8c0-1.5-0.2-3-0.6-4.4c-1.1-3.4-3.4-6.2-6.5-8c-1.7-1-3.6-1.5-5.6-1.6c-2.1-0.1-4.2,0.2-6.1,0.9
			c-0.3,0.1-0.5,0.2-0.7,0.3l-0.7,0.3l-0.7,0.4c-0.2,0.1-0.5,0.3-0.7,0.4l-0.7,0.5c-0.2,0.2-0.4,0.4-0.6,0.5
			c-0.2,0.2-0.4,0.4-0.6,0.6l-0.6,0.6c-1.4,1.6-2.4,3.5-2.9,5.6c-0.5,2-0.6,4.1-0.2,6.1c0.4,1.9,1.2,3.7,2.3,5.3
			c2,2.8,5.1,4.8,8.5,5.5l1.2,0.2c0.4,0,0.8,0,1.1,0.1c0.7,0,1.4,0,2.2-0.1c1.3-0.2,2.6-0.5,3.8-1.1c1-0.5,2-1,2.8-1.7l0.3-0.2
			l-0.2,0.3l0,0l0-0.1L32.7,81.3z"/>
		<polygon class="st5" points="12.8,69.1 14.3,67.6 17.2,70.1 22.8,64.8 24.1,66.2 17,73 		"/>
	</g>
	<g id="freepik--Plant--inject-21">
		<path class="st7" d="M125.1,136c0,0-6.6-7.6-9.1-15.3c-2.5-7.6-1.3-6.8-1.3-6.8s3.4,7.4,6,11c2.6,3.6,7.1,8.9,7.1,8.9L125.1,136z"
			/>
		<path class="st7" d="M126.4,115.2c-0.1-0.2-0.3-0.3-0.5-0.2c-0.1,0.1-0.2,0.2-0.2,0.4c0.4,2.7,1.3,9,1.2,13.1c0,5.3,0,7.4,0,7.4
			h2.8c0,0-0.5-11-1.1-14.3C128.1,119.2,127.2,116.6,126.4,115.2z"/>
		<path class="st7" d="M127.9,134.9c1.2-2.6,1.9-5.4,2.3-8.3c0.2-2-0.2-4.6-0.8-8.1c-0.2-1.3-0.3-2.6-0.3-3.9c0-0.4,0.4-0.6,0.7-0.6
			c0.2,0,0.4,0.1,0.5,0.3c0.3,0.6,1.3,2.6,1.5,3.9c0.7,3.5,1.4,5.2,0.8,8.5c-0.6,3.3-2.7,8.4-2.7,8.4L127.9,134.9z"/>
		<path class="st7" d="M130.4,135.2c0,0,7.3-15.7,7.8-18c0.5-2.3,2.2-7.7,2.4-7.4c0.2,0.3,0.5,3.1-0.8,6.4
			c-1.3,3.2-6.9,19.5-6.9,19.5h-2.5"/>
		<path class="st6" d="M127.1,134.5c-0.1,0-0.1-0.1-0.2-0.1c-0.1-0.1-0.3-0.2-0.6-0.4c-0.5-0.4-1.2-1-2-1.7c-2.1-2-3.8-4.3-5.3-6.8
			c-1.5-2.5-2.7-5.1-3.6-7.8c-0.4-1-0.6-1.9-0.8-2.5c-0.1-0.3-0.2-0.5-0.2-0.7c0-0.1,0-0.2-0.1-0.2c0,0.1,0.1,0.2,0.1,0.2
			c0.1,0.2,0.1,0.4,0.2,0.7c0.2,0.6,0.5,1.4,0.9,2.5c1,2.7,2.2,5.3,3.6,7.8c1.5,2.5,3.2,4.8,5.2,6.8c0.8,0.8,1.4,1.4,1.9,1.8
			c0.2,0.2,0.4,0.3,0.5,0.5C127,134.4,127.1,134.4,127.1,134.5z"/>
		<path class="st6" d="M127.9,127c0-0.2-0.1-0.3-0.1-0.5c0-0.3-0.1-0.7-0.1-1.3c-0.1-1.1-0.3-2.5-0.6-4.1s-0.5-3-0.8-4.1
			c-0.1-0.5-0.2-0.9-0.3-1.2c0-0.1-0.1-0.3-0.1-0.5c0.1,0.1,0.1,0.3,0.1,0.4c0.1,0.3,0.2,0.7,0.3,1.2c0.3,1,0.6,2.5,0.8,4.1
			c0.3,1.6,0.4,3.1,0.5,4.1c0,0.5,0.1,1,0.1,1.3C127.9,126.6,127.9,126.8,127.9,127z"/>
		<path class="st6" d="M129.6,114.2c0,0.1,0.1,0.1,0.1,0.2c0.1,0.1,0.1,0.3,0.2,0.6c0.1,0.2,0.2,0.6,0.3,0.9
			c0.1,0.4,0.3,0.8,0.4,1.3c0.1,0.2,0.1,0.5,0.2,0.7c0.1,0.3,0.1,0.5,0.2,0.8c0.1,0.6,0.2,1.2,0.3,1.8c0.2,1.4,0.2,2.8,0.2,4.2
			c-0.1,1.4-0.2,2.8-0.5,4.1c-0.1,0.6-0.3,1.2-0.4,1.8c-0.1,0.3-0.1,0.5-0.2,0.8l-0.2,0.7c-0.1,0.5-0.3,0.9-0.4,1.2
			c-0.1,0.4-0.3,0.7-0.4,0.9l-0.3,0.6c0,0.1-0.1,0.1-0.1,0.2c0-0.1,0-0.1,0.1-0.2c0.1-0.1,0.1-0.3,0.2-0.6c0.1-0.2,0.2-0.6,0.3-0.9
			c0.1-0.4,0.3-0.8,0.4-1.2l0.2-0.7c0.1-0.3,0.1-0.5,0.2-0.8c0.2-0.5,0.3-1.1,0.4-1.8c0.2-1.4,0.4-2.7,0.5-4.1c0-1.4,0-2.8-0.2-4.1
			c-0.1-0.6-0.2-1.2-0.3-1.8c-0.1-0.3-0.1-0.6-0.2-0.8c-0.1-0.3-0.1-0.5-0.2-0.7c-0.1-0.5-0.2-0.9-0.3-1.3s-0.2-0.7-0.3-0.9
			c-0.1-0.3-0.1-0.4-0.2-0.6C129.6,114.4,129.6,114.3,129.6,114.2z"/>
		<path class="st6" d="M140.5,110.1C140.6,110.1,140.6,110.2,140.5,110.1l0,0.3c0,0.2-0.1,0.4-0.1,0.8c-0.1,0.7-0.4,1.6-0.7,2.8
			c-0.4,1.2-0.9,2.6-1.5,4.1c-0.6,1.5-1.3,3.2-1.9,4.9s-1.2,3.5-1.6,5c-0.5,1.6-0.9,3-1.4,4.1c-0.3,0.9-0.7,1.8-1.2,2.7
			c-0.1,0.3-0.3,0.5-0.4,0.7l-0.1,0.2c0,0,0,0,0,0.1c0,0,0,0,0-0.1s0.1-0.1,0.1-0.2c0.1-0.2,0.2-0.4,0.3-0.7
			c0.3-0.6,0.7-1.5,1.1-2.7s0.9-2.6,1.3-4.1c0.5-1.6,1-3.3,1.6-5c0.7-1.8,1.3-3.4,1.9-4.9c0.6-1.5,1.1-2.9,1.5-4.1
			c0.4-1.2,0.6-2.1,0.8-2.8c0.1-0.3,0.1-0.6,0.2-0.8C140.5,110.3,140.5,110.2,140.5,110.1C140.5,110.1,140.5,110.1,140.5,110.1z"/>
		<path class="st7" d="M118.1,106.6c-0.3-0.2-0.6-0.2-0.9,0c-0.2,0.2-0.2,0.4-0.1,0.6c0.2,0.8,0.6,1.6,0.9,2.4c1,2.1,3.9,9.8,5.3,14
			c1.4,4.2,3.3,12,3.3,12l2.9-0.5c0,0-2.7-12.9-5.3-17.5C122.1,113.9,120,108.6,118.1,106.6z"/>
		<path class="st6" d="M124.1,126.2c0.1,0.1,0.1,0.2,0.2,0.4c0.1,0.2,0.2,0.6,0.3,1c0.3,0.8,0.6,2,0.9,3.3c0.3,1.3,0.6,2.5,0.8,3.4
			c0.1,0.4,0.2,0.7,0.2,1c0,0.1,0.1,0.3,0.1,0.4c-0.1-0.1-0.1-0.2-0.1-0.4c-0.1-0.3-0.2-0.6-0.3-1c-0.2-0.9-0.5-2-0.8-3.3
			c-0.3-1.3-0.6-2.5-0.9-3.3l-0.3-1C124.1,126.5,124.1,126.4,124.1,126.2z"/>
		<path class="st6" d="M128.1,135.4C128.1,135.4,128.1,135.4,128.1,135.4c0-0.1,0-0.2,0-0.3c0-0.2-0.1-0.5-0.1-0.9
			c-0.1-0.8-0.3-1.9-0.6-3.2c-0.4-1.6-0.8-3.2-1.4-4.7c-0.6-1.7-1.4-3.6-2.2-5.6c-1.7-3.9-3.5-7.4-4.6-9.9c-0.6-1.3-1-2.3-1.3-3
			c-0.1-0.4-0.3-0.6-0.3-0.8l-0.1-0.2c0-0.1,0-0.1,0-0.1c0,0,0,0,0,0.1l0.1,0.2l0.4,0.8c0.3,0.7,0.8,1.8,1.4,3
			c1.2,2.5,2.9,6,4.6,9.9c0.9,2,1.6,3.8,2.2,5.6c0.5,1.6,1,3.1,1.4,4.7c0.3,1.4,0.5,2.5,0.6,3.3c0.1,0.4,0.1,0.7,0.1,0.9
			C128.1,135.2,128.1,135.3,128.1,135.4C128.1,135.4,128.1,135.4,128.1,135.4z"/>
		<path class="st6" d="M129.5,135.2c0-0.2-0.1-0.3-0.1-0.5c-0.1-0.3-0.1-0.8-0.2-1.4c-0.2-1.1-0.5-2.7-1-4.4
			c-0.4-1.7-0.9-3.2-1.3-4.3l-0.5-1.3c-0.1-0.2-0.1-0.3-0.2-0.5c0.1,0.1,0.2,0.3,0.2,0.5c0.1,0.3,0.3,0.7,0.5,1.3
			c0.5,1.4,1,2.9,1.4,4.3c0.4,1.5,0.7,2.9,0.9,4.4c0.1,0.6,0.1,1,0.2,1.4C129.5,134.8,129.5,135,129.5,135.2z"/>
		<rect x="124.1" y="134.7" class="st5" width="11.5" height="14"/>
		<g class="st8">
			<rect x="124.1" y="134.7" width="11.5" height="14"/>
		</g>
		<rect x="121.7" y="134.7" class="st5" width="10.2" height="14"/>
	</g>
	<g id="freepik--Character--inject-21">
		<polygon class="st9" points="65.3,95.8 61.3,94.4 46.1,93.9 42.6,94.9 43.1,103.5 51.1,108.6 58.8,108.4 63.7,104 64.7,99.6 		"/>
		<path class="st5" d="M20.2,109c0.9-2,2-3.9,3.2-5.7c1.9-2.9,4.8-5,8.2-5.8l12.8-3.5c0,0,0.9,8.6,9.6,8.6s8.9-8,8.9-8l16.1,5.9
			c0.5,0.2,3.9,1.4,7.9,9.9c3.8,8.1,5.5,12.3,5.5,12.3l-15.1,4.1l-1,14l0.3,7.8l-46.1-0.1l0.3-8.9l-0.2-14.7l-1,1.8l-14.4-5.8
			C15.1,120.9,16.5,116.7,20.2,109z"/>
		<path class="st6" d="M30.2,117.3c-0.1,0,0,4.9,0.1,11c0.1,6.1,0.3,11,0.3,11c0.1,0,0-4.9-0.1-11S30.3,117.3,30.2,117.3z"/>
		<g class="st8">
			<path d="M75.2,118.7c-0.7-0.8-1.8-1.1-2.9-1.3c-11.9-2.4-24.1-1.4-36.1,0.1c-1.5,0.2-3.1,0.5-4,1.7c-0.7,0.9-0.2,2-0.3,3.1
				c-0.3,5.6,0.4,11.5,1.5,17l41-0.6c1.4-4.2,1.7-11.4,1.8-16.3C76.1,121.1,76,119.6,75.2,118.7z"/>
		</g>
		<path class="st4" d="M85.8,108.7l-0.1,0.1l-0.4,0.3c-0.2,0.2-0.4,0.4-0.7,0.5l-0.5,0.3l-0.3,0.2l-0.3,0.2
			c-0.4,0.2-0.9,0.5-1.3,0.6c-0.5,0.2-1.1,0.4-1.6,0.6c-1.4,0.4-2.8,0.6-4.2,0.6c-1.7,0-3.4-0.3-5-0.9c-0.1,0-0.2-0.1-0.3-0.1
			l-0.3-0.1l-0.6-0.3c-0.2-0.1-0.4-0.2-0.6-0.3c-0.2-0.1-0.4-0.2-0.6-0.4c-0.4-0.3-0.8-0.6-1.2-0.9c-0.4-0.3-0.8-0.7-1.2-1
			c-0.8-0.7-1.6-1.3-2.6-1.8c-0.5-0.2-1-0.4-1.5-0.5c-0.5-0.1-1.1-0.1-1.6-0.1c-1.1,0.1-2.2,0.4-3.3,0.9c-1.1,0.5-2.1,1-3.1,1.7
			c-2,1.3-3.9,2.7-6,3.5c-1.6,0.6-3.3,0.7-4.9,0.4c-0.5-0.1-1-0.3-1.5-0.4c-1.8-0.7-3.5-1.7-5.1-2.9c-1.5-1.1-2.8-2.1-4.2-2.9
			c-1.2-0.8-2.5-1.3-3.9-1.6c-1-0.3-2.1-0.3-3.2-0.2c-0.7,0.1-1.3,0.2-1.9,0.5c-0.2,0.1-0.3,0.1-0.5,0.2l-0.2,0.1
			c0,0,0.1-0.1,0.2-0.1c0.1-0.1,0.3-0.2,0.5-0.2c0.6-0.3,1.3-0.5,1.9-0.6c1.1-0.1,2.1-0.1,3.2,0.2c1.4,0.3,2.7,0.9,3.9,1.6
			c1.4,0.8,2.7,1.8,4.2,2.9c1.5,1.2,3.3,2.2,5.1,2.9c0.5,0.2,1,0.3,1.5,0.4c0.5,0.1,1,0.2,1.6,0.2c1.1,0,2.2-0.2,3.2-0.6
			c2.1-0.8,4-2.2,6-3.5c1-0.7,2-1.2,3.1-1.7c1.1-0.5,2.2-0.8,3.3-0.9c0.6,0,1.1,0,1.7,0.1c0.5,0.1,1.1,0.3,1.6,0.5
			c0.9,0.5,1.8,1.1,2.6,1.8c0.4,0.3,0.8,0.7,1.2,1c0.4,0.3,0.8,0.6,1.2,0.9c0.2,0.1,0.4,0.2,0.6,0.4c0.2,0.1,0.4,0.2,0.6,0.3
			l0.6,0.3l0.3,0.1c0.1,0,0.2,0.1,0.3,0.1c1.6,0.6,3.3,0.9,5,0.9c1.4,0,2.8-0.2,4.2-0.6c0.6-0.2,1.1-0.4,1.6-0.6
			c0.4-0.2,0.9-0.4,1.3-0.6l0.3-0.1l0.3-0.2l0.4-0.3c0.2-0.2,0.5-0.3,0.7-0.5l0.4-0.3L85.8,108.7z"/>
		<path class="st4" d="M78.5,118.4c0,0-0.1,0-0.1,0.1l-0.4,0.2c-0.6,0.2-1.2,0.3-1.8,0.4c-1,0.1-2,0-2.9-0.3
			c-1.3-0.3-2.5-0.8-3.7-1.4c-1.3-0.6-2.7-1.4-4.2-2.1c-1.5-0.7-3.3-1.4-5.2-1.4c-1,0-1.9,0.1-2.9,0.4c-1,0.3-1.9,0.7-2.8,1.2
			c-0.9,0.5-1.8,1-2.8,1.5c-1,0.5-2,0.9-3,1.2c-1.1,0.3-2.2,0.4-3.3,0.3c-1.1-0.1-2.1-0.3-3.1-0.6c-1.9-0.6-3.7-1.5-5.4-2.6
			c-1.6-1-3.1-2.1-4.6-2.9c-1.3-0.8-2.7-1.5-4.2-2.1c-2.7-1-5.1-1-6.7-0.6c-0.6,0.1-1.2,0.3-1.8,0.6l-0.4,0.2l-0.1,0.1
			c0,0,0,0,0.1-0.1l0.4-0.2c0.6-0.3,1.1-0.5,1.8-0.6c1.6-0.4,4-0.4,6.8,0.6c1.5,0.6,2.9,1.3,4.2,2.1c1.5,0.9,3,1.9,4.6,2.9
			c1.7,1.1,3.5,2,5.4,2.6c1,0.3,2,0.5,3.1,0.6c1.1,0.1,2.2,0,3.2-0.3c1-0.3,2-0.7,3-1.2c0.9-0.5,1.9-1,2.8-1.5
			c0.9-0.5,1.8-0.9,2.8-1.2c0.9-0.3,1.9-0.5,2.9-0.4c1.9,0,3.7,0.7,5.2,1.4c1.5,0.7,2.9,1.5,4.2,2.1c1.2,0.6,2.4,1,3.6,1.4
			c0.9,0.2,1.9,0.3,2.9,0.3c0.6,0,1.2-0.2,1.8-0.3l0.5-0.2C78.5,118.4,78.5,118.4,78.5,118.4z"/>
		<path class="st4" d="M89.3,115.8c-0.1,0.1-0.2,0.2-0.3,0.3c-0.1,0.1-0.3,0.2-0.4,0.4c-0.2,0.1-0.4,0.3-0.6,0.5
			c-0.5,0.4-1.1,0.7-1.7,1.1c-1.4,0.8-3,1.3-4.6,1.6c-0.7,0.1-1.3,0.2-2,0.2c-0.3,0-0.5,0-0.8,0c-0.2,0-0.4,0-0.6,0
			c-0.2,0-0.3,0-0.5,0c0.2,0,0.3,0,0.5,0c0.2,0,0.3,0,0.6,0s0.5,0,0.8,0c0.7-0.1,1.3-0.1,2-0.3c0.8-0.2,1.6-0.4,2.3-0.6
			c0.8-0.3,1.5-0.6,2.2-1c0.6-0.3,1.1-0.6,1.7-1c0.2-0.2,0.4-0.3,0.6-0.4c0.2-0.1,0.3-0.3,0.5-0.3C89.1,116,89.2,115.9,89.3,115.8z"
			/>
		<path class="st6" d="M38.7,77.6c0,0-1,1.3-0.9,3.7c0,1.3,0.9,3.9,3.1,4c-0.6,3.6,1.7,6.3,5.6,6.3s8.3-6.7,11.9-8.1l10.4-2.8
			c0.9-0.2,1.3-1.3,1.3-2.3c0-0.9-0.3-1.9,0.1-2.8c0.5-1.2,1.9-1.9,2.3-3c0.5-1.4-0.3-2.9-1.3-4c-1-1.1-2.2-2.2-2.5-3.6
			c-0.3-1.3,0.2-2.8-0.4-4c-0.8-1.5-2.9-1.6-3.9-3c-0.5-0.6-0.6-1.5-1.1-2.1c-0.8-1.1-2.4-1.4-3.7-1.2c-1.4,0.2-2.7,0.6-4,0.7
			c-1.9,0.1-3.8-0.5-5.6,0.1c-2,0.6-3.2,2.4-4.5,4.1l-1.7,2c-0.3,0.3-0.7,0.6-1.1,0.9c-0.7,0.5-1.5,0.8-2.1,1.4
			c-1.3,1.3-1.2,3.4,0.1,4.7c0,0,0.1,0.1,0.1,0.1c-1.5,0.5-2.4,1.9-2.4,3.5c0,0-0.2,1.7,0.9,2.5C39.4,74.6,37.8,75.8,38.7,77.6z"/>
		<path class="st6" d="M45.7,81.1c-0.9-2.7-1.7-5.3-2.1-8.1c-0.4-2.8-0.3-5.6,0.7-8.2c0.1-0.4,1.4-3,1.8-3c0.3,0-0.5,2.5-0.3,2.8
			c1.5,2.5,1.8,5.5,1.6,8.3C47.1,75.7,46.6,78.4,45.7,81.1"/>
		<path class="st9" d="M53.2,101.9c-4.3-0.1-7.4-7.2-7.4-7.2l-0.3-24.2c-0.2-7,3.6-12.9,10.6-13l0.6,0c6.5,0.3,11.6,5.6,11.8,12.1
			c0.2,6.1,0.3,12.7,0.1,16c-0.4,6.7-7.2,7.4-7.2,7.4s0,1.6-0.1,3.5C61.3,101,54.9,102.1,53.2,101.9L53.2,101.9z"/>
		<path class="st10" d="M61.4,93c0,0-4.2,0-8.6-3c0,0,1.9,5,8.6,4.7L61.4,93z"/>
		<path class="st6" d="M65.1,75.4c0,0.5-0.5,0.9-1,0.9c-0.5,0-0.9-0.4-0.9-0.9c0,0,0,0,0,0c0-0.5,0.5-0.9,1-0.9
			C64.7,74.5,65.1,74.9,65.1,75.4C65.1,75.4,65.1,75.4,65.1,75.4z"/>
		<path class="st6" d="M66.9,72.4c-0.1,0.1-0.8-0.5-1.8-0.5s-1.8,0.4-1.9,0.3c-0.1-0.1,0.1-0.3,0.4-0.5c0.5-0.3,1-0.4,1.5-0.4
			c0.5,0,1,0.2,1.5,0.6C66.9,72.1,67,72.3,66.9,72.4z"/>
		<path class="st6" d="M55.9,75.2c0,0.5-0.5,0.9-1,0.9c-0.5,0-0.9-0.4-0.9-0.9c0,0,0,0,0,0c0-0.5,0.5-0.9,1-0.9
			C55.5,74.3,55.9,74.7,55.9,75.2C55.9,75.2,55.9,75.2,55.9,75.2z"/>
		<path class="st6" d="M56.8,72.3c-0.1,0.1-0.8-0.5-1.8-0.5c-1-0.1-1.8,0.4-1.9,0.3c-0.1-0.1,0.1-0.3,0.4-0.5c0.5-0.3,1-0.4,1.5-0.4
			c0.5,0,1,0.2,1.5,0.6C56.8,72,56.9,72.2,56.8,72.3z"/>
		<path class="st6" d="M60.1,80.4c0-0.1,0.6-0.1,1.7-0.2c0.3,0,0.5-0.1,0.6-0.2c0-0.3,0-0.5-0.1-0.8l-0.7-2
			c-0.9-2.9-1.6-5.3-1.5-5.3c0.1,0,1,2.3,1.9,5.2c0.2,0.7,0.4,1.4,0.6,2.1c0.1,0.3,0.2,0.7,0.1,1c-0.1,0.2-0.3,0.3-0.5,0.4
			c-0.1,0-0.3,0-0.4,0C60.8,80.5,60.1,80.4,60.1,80.4z"/>
		<path class="st6" d="M57,80.9c0.2,0,0.1,1.1,1,2s2.1,0.8,2.1,0.9c0,0.1-0.3,0.2-0.8,0.2c-0.7,0-1.3-0.3-1.8-0.7
			c-0.5-0.4-0.7-1-0.8-1.6C56.8,81.2,57,80.9,57,80.9z"/>
		<path class="st6" d="M57,68.1c-0.1,0.3-1.1,0.1-2.3,0.2c-1.2,0.1-2.2,0.3-2.4,0.1c-0.1-0.1,0.1-0.4,0.5-0.6
			c1.1-0.6,2.4-0.7,3.6-0.2C56.8,67.7,57.1,68,57,68.1z"/>
		<path class="st6" d="M66.7,68.9c-0.2,0.2-0.9-0.1-1.7-0.1c-0.9-0.1-1.6,0.1-1.7-0.2c-0.1-0.1,0.1-0.3,0.4-0.6
			c0.9-0.5,2-0.4,2.8,0.2C66.7,68.6,66.8,68.8,66.7,68.9z"/>
		<path class="st9" d="M45.7,75.5c-0.1-0.1-4.5-1.6-4.6,3c-0.1,4.6,4.5,3.7,4.5,3.6C45.6,81.9,45.7,75.5,45.7,75.5z"/>
		<path class="st10" d="M44.3,80.3c0,0-0.1,0.1-0.2,0.1c-0.2,0.1-0.4,0.1-0.6,0c-0.5-0.2-0.9-1-0.9-1.8c0-0.4,0.1-0.8,0.2-1.1
			c0.1-0.3,0.3-0.5,0.6-0.6c0.2,0,0.4,0.1,0.5,0.2c0.1,0.1,0,0.2,0.1,0.2c0,0,0.1-0.1,0.1-0.3c0-0.1-0.1-0.2-0.2-0.3
			c-0.1-0.1-0.3-0.1-0.4-0.1c-0.4,0.1-0.7,0.3-0.9,0.7c-0.2,0.4-0.3,0.8-0.3,1.3c0,0.9,0.5,1.8,1.1,2c0.2,0.1,0.5,0,0.7-0.1
			C44.2,80.4,44.3,80.3,44.3,80.3z"/>
		<path class="st6" d="M65.6,62.1c0.7-0.4-1.5-2.8-3.3-3.7c-2.7-1.3-6.9-2.1-9.5-1.4c-3.1,0.8-5.6,2.3-7.2,5.1
			c-1.6,2.8-2.2,6-2.1,9.2c0,1,0.1,2,0.6,2.8c0.6,1,1.8,1.7,1.8,3.1c0,0.5,0.1,1,0.5,1.4c0.8,0.9,1.9,0.1,2.3-0.8
			c1-1.8,1.2-3.9,1.3-6c0.1-1.5,0.2-3-0.2-4.4c-0.2-0.8-0.6-1.5-0.7-2.3c-0.2-0.8-0.1-1.7,0.3-2.3c0.1-0.1,0.2-0.3,0.4-0.4
			c1.3-1.1,3.1-1.4,4.8-0.8c2.6,0.9,7,2.4,8.1,1.5c1.7-1.2,2.1-2.1,2.1-2.1L65.6,62.1z"/>
		<path class="st6" d="M53.1,56.3c2.5-0.8,5.4-0.7,7.7,0.5c1.2,0.7,2.4,1.7,2.7,3.1c0.4,1.4-0.2,3-1.5,3.5L62,63.5
			c-2,0.6-3.2,0.3-5.2-0.3c-1.6-0.6-3.1-1.6-4.7-2.2c-1.8-0.6-3.7-0.7-5.4-0.2C48.4,58.8,50.6,57.1,53.1,56.3z"/>
		<path class="st7" d="M44.4,60.9c0,0,0.4-0.4,1.2-0.9c0.4-0.3,0.9-0.6,1.4-0.7c0.6-0.2,1.2-0.4,1.9-0.3c1.2,0.1,2.3,0.6,3.2,1.3
			c0.7,0.6,1,1,1.1,1c0,0-0.1-0.1-0.2-0.3c-0.2-0.3-0.5-0.6-0.7-0.8c-0.9-0.8-2.1-1.3-3.3-1.5c-0.7,0-1.4,0.1-2,0.4
			c-0.5,0.2-1,0.5-1.4,0.8C44.7,60.4,44.4,60.9,44.4,60.9z"/>
		<path class="st7" d="M58.4,55.9c0.4,0.2,0.8,0.3,1.2,0.5c1.9,0.8,3.6,2.1,4.7,3.9c0.2,0.4,0.4,0.7,0.7,1.1
			c-0.1-0.4-0.3-0.8-0.5-1.2c-1.1-1.9-2.8-3.3-4.8-4C59.3,56,58.8,55.9,58.4,55.9z"/>
		<path class="st7" d="M38.5,72.2c0,0,0.2,0.1,0.5,0.2c0.4,0.1,0.9,0.1,1.4,0.1c0.7-0.1,1.3-0.3,1.9-0.6c0.7-0.3,1.4-0.8,2.2-1.3
			c0.7-0.4,1.5-0.7,2.4-0.9c0.7-0.1,1.4,0,2,0.4c0.4,0.2,0.8,0.6,1,1c0.1,0.1,0.1,0.2,0.1,0.4c0,0.1,0,0.1,0,0.1
			c0,0-0.1-0.2-0.2-0.5c-0.2-0.4-0.6-0.7-1-0.9c-0.6-0.3-1.3-0.4-2-0.3c-0.8,0.1-1.6,0.4-2.3,0.9c-0.8,0.4-1.5,0.9-2.2,1.3
			c-0.6,0.3-1.3,0.5-2,0.6c-0.5,0-0.9,0-1.4-0.1c-0.1,0-0.2-0.1-0.3-0.2C38.5,72.2,38.5,72.2,38.5,72.2z"/>
		<path class="st7" d="M38.8,74.3c0.5,0.1,1.1,0.2,1.7,0.1c0.6-0.1,1.2-0.2,1.8-0.4c0.6-0.2,1.4-0.5,2.1-0.8
			c0.7-0.3,1.4-0.4,2.2-0.5c0.6,0,1.2,0.1,1.8,0.3c0.4,0.2,0.7,0.4,1,0.7c0.1,0.1,0.1,0.2,0.2,0.3c0,0.1,0.1,0.1,0.1,0.1
			c0,0-0.1-0.1-0.3-0.3c-0.3-0.3-0.6-0.5-1-0.7c-0.6-0.2-1.2-0.3-1.8-0.3c-0.7,0.1-1.5,0.2-2.1,0.5c-0.7,0.3-1.4,0.6-2.1,0.8
			c-0.6,0.2-1.2,0.3-1.8,0.4c-0.4,0-0.8,0-1.2-0.1C39.1,74.4,39,74.4,38.8,74.3C38.8,74.3,38.8,74.3,38.8,74.3z"/>
		<path class="st7" d="M71.1,69.4c0,0.2-0.1,0.3-0.2,0.4c-0.2,0.3-0.5,0.6-0.8,0.8c-0.3,0.2-0.7,0.3-1,0.4c-0.2,0-0.3,0-0.5,0
			c0.5-0.1,1-0.3,1.4-0.5C70.4,70.2,70.8,69.8,71.1,69.4z"/>
		<path class="st7" d="M72.3,71.7c0,0.2-0.1,0.4-0.2,0.6c-0.3,0.5-0.7,0.9-1.1,1.2c-0.5,0.3-1,0.5-1.5,0.5c-0.2,0-0.5,0-0.7,0
			c0,0,0.3,0,0.7-0.1c0.5-0.1,1-0.3,1.5-0.6c0.4-0.3,0.8-0.7,1.1-1.1C72.2,71.9,72.3,71.7,72.3,71.7z"/>
		<path class="st9" d="M91.1,123.2l6.2,12.4c0.7,1.4,1,2.9,0.9,4.5l0,0c-0.2,4.8-4.2,8.6-9,8.6l-17.7-1l-0.8-8.1l13.5-3.3l-5.2-9.9
			L91.1,123.2z"/>
		<path class="st10" d="M84.1,136.3c0,0.1,0.6,0,1.6,0c1.3,0,2.5,0.2,3.7,0.7c1.2,0.4,2.3,1,3.4,1.8c0.8,0.6,1.1,1.1,1.2,1.1
			c0,0-0.1-0.1-0.2-0.4c-0.2-0.3-0.5-0.6-0.8-0.9c-1-0.8-2.1-1.5-3.4-1.9c-1.2-0.4-2.5-0.6-3.8-0.6c-0.4,0-0.8,0.1-1.2,0.1
			C84.4,136.2,84.3,136.3,84.1,136.3z"/>
		<path class="st9" d="M15.3,121.1c0,0-3.3,9.3-7.5,19.7c-0.1,0.2-0.1,0.4-0.2,0.6c-0.6,2.8,1.5,7.5,4.4,7.5l24-0.2v-7.8l-13.8-3
			l5.3-11.8L15.3,121.1z"/>
		<path class="st10" d="M11.4,139.9c0,0,0.5-0.3,1.4-0.8c2.2-1.3,4.7-1.8,7.2-1.6c1,0.1,1.5,0.2,1.6,0.2c-0.1-0.1-0.3-0.1-0.4-0.1
			c-0.4-0.1-0.8-0.2-1.1-0.2c-2.6-0.3-5.2,0.3-7.3,1.7c-0.3,0.2-0.6,0.4-0.9,0.7C11.5,139.8,11.4,139.9,11.4,139.9z"/>
		<path class="st9" d="M74.1,139.1h-3.5c0,0-7.8-2.8-9.4-2.6c-1.5,0.2-6.8,3.8-7.8,4.5c-0.1,0.1-0.2,0.2-0.3,0.3l0,0
			c-0.2,0.6,0.1,1.2,0.6,1.4l0.1,0l0,0.2c-0.1,0.2-0.1,0.4-0.1,0.6c0,0.4,0.4,0.7,0.8,0.7c0.2,0,0.5-0.2,0.6-0.4l-0.2,0.4
			c-0.1,0.1-0.1,0.3-0.1,0.5l0,0.3c0,0.4,0.3,0.7,0.6,0.8l0,0c0.3,0.1,0.7,0,0.9-0.2c0.7-0.7,2.1-2.2,3.1-2.4
			c1.1-0.1,2.1-0.2,3.2-0.2c0.4,0,0.9,0.3,1,0.7l0,0c-0.6,0-4.7,2.2-6.1,2.9c-0.5,0.2-0.8,0.7-0.8,1.2c-0.1,0.4,0.2,0.9,1.1,0.7
			c1.9-0.4,5.4-2,5.4-2s1.8-0.5,2.9,0.3c1.6,1.1,2.4,1.6,3.7,1.1c0.8-0.3,1.7-0.7,2.4-1.1l2.7-0.3C75.1,146.6,77.6,140.1,74.1,139.1
			z"/>
		<path class="st10" d="M63.8,140.4c0,0-0.6-0.1-1.5-0.2c-2.4-0.2-4.8,0.8-6.3,2.7c-0.6,0.7-0.8,1.2-0.9,1.2c0-0.1,0.1-0.2,0.2-0.4
			c0.2-0.3,0.4-0.6,0.6-0.9c1.5-1.9,4-3,6.4-2.7c0.4,0,0.7,0.1,1.1,0.2C63.5,140.3,63.6,140.4,63.8,140.4z"/>
		<path class="st10" d="M62.9,138.5c-0.5-0.2-1-0.2-1.5-0.3c-1.3,0-2.5,0.3-3.6,1c-1.1,0.7-2,1.5-2.9,2.4l-0.8,0.8
			c-0.1,0.1-0.2,0.2-0.3,0.3c0.1-0.1,0.2-0.2,0.3-0.3c0.2-0.2,0.4-0.5,0.8-0.9c0.8-1,1.8-1.8,2.9-2.5c1.1-0.7,2.4-1,3.6-1
			c0.4,0,0.8,0.1,1.1,0.2C62.6,138.4,62.7,138.4,62.9,138.5C62.9,138.5,62.9,138.5,62.9,138.5z"/>
		<path class="st9" d="M30.9,139.3h3.5c0,0,7.8-2.8,9.4-2.6c1.5,0.2,6.8,3.8,7.8,4.5c0.1,0.1,0.2,0.2,0.3,0.3l0,0
			c0.2,0.6-0.1,1.2-0.6,1.4l-0.1,0l0,0.2c0.1,0.2,0.1,0.4,0.1,0.6c0,0.4-0.4,0.7-0.8,0.7c-0.2,0-0.5-0.2-0.6-0.4l0.2,0.4
			c0.1,0.1,0.1,0.3,0.1,0.5l0,0.3c0,0.4-0.3,0.7-0.6,0.8l0,0c-0.3,0.1-0.7,0-0.9-0.2c-0.7-0.7-2.1-2.2-3.1-2.4
			c-1.1-0.1-2.1-0.2-3.2-0.2c-0.4,0-0.9,0.3-1,0.7l0,0c0.6,0,4.7,2.2,6.1,2.9c0.5,0.2,0.8,0.7,0.8,1.2c0.1,0.4-0.2,0.9-1.1,0.7
			c-1.9-0.4-5.4-2-5.4-2s-1.8-0.5-2.9,0.3c-1.6,1.1-2.4,1.6-3.7,1.1c-0.8-0.3-1.7-0.7-2.4-1.1l-2.7-0.3
			C29.9,146.9,27.3,140.3,30.9,139.3z"/>
		<path class="st10" d="M41.2,140.7c0,0,0.6-0.1,1.5-0.2c2.4-0.2,4.8,0.8,6.3,2.7c0.6,0.7,0.8,1.2,0.9,1.2c0-0.1-0.1-0.2-0.2-0.4
			c-0.2-0.3-0.4-0.6-0.6-0.9c-1.5-1.9-4-3-6.4-2.7c-0.4,0-0.7,0.1-1.1,0.2C41.5,140.6,41.4,140.6,41.2,140.7z"/>
		<path class="st10" d="M42.1,138.8c0.5-0.2,1-0.2,1.5-0.3c1.3,0,2.5,0.3,3.6,1c1.1,0.7,2,1.5,2.9,2.4l0.8,0.8
			c0.1,0.1,0.2,0.2,0.3,0.3c-0.1-0.1-0.2-0.2-0.3-0.3c-0.2-0.2-0.4-0.5-0.8-0.9c-0.8-1-1.8-1.8-2.9-2.5c-1.1-0.7-2.4-1-3.6-1
			c-0.4,0-0.8,0.1-1.1,0.2C42.3,138.6,42.2,138.7,42.1,138.8C42.1,138.7,42.1,138.8,42.1,138.8z"/>
		<path class="st1" d="M35.6,148.9H72c1,0,1.9-0.8,1.9-1.8l1.1-25.1c0.1-1.1-0.8-2-1.8-2c0,0-0.1,0-0.1,0H34.6
			c-1.1,0-1.9,0.9-1.9,1.9c0,0,0,0.1,0,0.1l1,25.1C33.7,148.1,34.5,148.9,35.6,148.9z"/>
		<path class="st6" d="M35.6,148.9L35.6,148.9c-0.2,0-0.3,0-0.4,0c-0.3-0.1-0.7-0.2-0.9-0.4c-0.4-0.4-0.7-0.9-0.7-1.5
			c0-0.7-0.1-1.4-0.1-2.3c-0.1-3.5-0.4-8.5-0.6-14.7c-0.1-1.6-0.1-3.2-0.2-4.9c0-0.8-0.1-1.7-0.1-2.6c0-0.2,0-0.4,0-0.7
			c0-0.2,0.1-0.5,0.2-0.7c0.3-0.7,0.9-1.1,1.6-1.2c0.2,0,0.5,0,0.7,0h10.3H72h0.9c0.3,0,0.6,0,0.9,0.1c0.6,0.2,1,0.7,1.2,1.3
			c0.1,0.3,0.1,0.6,0.1,0.9l0,0.9c0,0.6-0.1,1.2-0.1,1.7c-0.1,2.3-0.2,4.6-0.3,6.8c-0.2,4.5-0.4,8.8-0.6,12.9c0,0.5,0,1-0.1,1.5
			c0,0.3,0,0.5,0,0.8c0,0.3,0,0.5-0.1,0.8c-0.2,0.5-0.5,0.9-1,1.2c-0.2,0.1-0.5,0.2-0.7,0.2c-0.3,0-0.5,0-0.7,0h-5.7H55.7L41,149
			l-4,0h-1L35.6,148.9l0.4,0h1h4l14.7,0h10.2h5.7c0.2,0,0.5,0,0.7,0c0.2,0,0.5-0.1,0.7-0.2c0.4-0.2,0.7-0.6,0.9-1.1
			c0.1-0.2,0.1-0.5,0.1-0.7c0-0.3,0-0.5,0-0.8c0-0.5,0-1,0.1-1.5c0.2-4.1,0.4-8.4,0.6-12.9c0.1-2.2,0.2-4.5,0.3-6.8
			c0-0.6,0.1-1.2,0.1-1.7l0-0.9c0-0.3,0-0.6-0.1-0.8c-0.2-0.5-0.6-1-1.1-1.2c-0.3-0.1-0.6-0.1-0.8-0.1h-0.9H45.3H35
			c-0.2,0-0.5,0-0.7,0c-0.7,0.1-1.2,0.5-1.5,1.1c-0.1,0.2-0.1,0.4-0.1,0.6c0,0.2,0,0.4,0,0.7c0,0.9,0.1,1.7,0.1,2.6
			c0.1,1.7,0.1,3.3,0.2,4.9c0.2,6.2,0.4,11.2,0.6,14.7c0,0.9,0.1,1.6,0.1,2.3c0,0.9,0.6,1.8,1.6,1.9
			C35.5,148.9,35.6,148.9,35.6,148.9z"/>
		<path class="st4" d="M51.8,134.9c0,1.1,0.9,2,2,2c1.1,0,2-0.9,2-2c0-1.1-0.9-2-2-2C52.7,132.9,51.8,133.8,51.8,134.9
			C51.8,134.9,51.8,134.9,51.8,134.9z"/>
		<path class="st6" d="M77.8,112.3c0,0.1,0,0.1,0,0.2v0.6c0,0.5,0,1.3,0,2.2c0,1.9-0.1,4.4-0.3,7.3c-0.2,2.8-0.3,5.4-0.5,7.3
			c-0.1,0.9-0.1,1.7-0.2,2.2c0,0.2,0,0.4-0.1,0.6c0,0.1,0,0.1,0,0.2c0-0.1,0-0.1,0-0.2c0-0.2,0-0.4,0-0.6c0-0.5,0.1-1.3,0.1-2.2
			c0.1-1.9,0.3-4.4,0.4-7.3s0.3-5.4,0.4-7.3c0-0.9,0.1-1.7,0.1-2.2l0-0.6C77.8,112.4,77.8,112.3,77.8,112.3z"/>
	</g>
	<g id="freepik--Desk--inject-21">
		<path class="st6" d="M159.2,148.9c0,0-34.6,0.1-77.2,0.1s-77.2,0-77.2-0.1s34.6-0.1,77.2-0.1S159.2,148.9,159.2,148.9z"/>
	</g>
</g>
</svg>
