<?xml version="1.0" encoding="utf-8"?>
<!-- Generator: Adobe Illustrator 23.0.3, SVG Export Plug-In . SVG Version: 6.00 Build 0)  -->
<svg version="1.1" id="Layer_1" xmlns="http://www.w3.org/2000/svg" xmlns:xlink="http://www.w3.org/1999/xlink" x="0px" y="0px"
	 viewBox="0 0 160 150" style="enable-background:new 0 0 160 150;" xml:space="preserve">
<style type="text/css">
	.st0{fill:#FAFAFA;}
	.st1{fill:#E0E0E0;}
	.st2{fill:#EBEBEB;}
	.st3{fill:#FFFFFF;}
	.st4{fill:#F5F5F5;}
	.st5{fill:#263238;}
	.st6{fill:#05648A;}
	.st7{fill:#455A64;}
	.st8{opacity:0.6;}
	.st9{fill:#FFBE9D;}
	.st10{fill:#EB996E;}
	.st11{opacity:0.3;}
</style>
<g>
	<g id="freepik--background-complete--inject-35">
		<rect x="7.7" y="1.1" class="st0" width="32.1" height="28.7"/>
		<path class="st1" d="M39.8,29.8c0,0,0-0.2,0-0.5s0-0.9,0-1.5c0-1.3,0-3.3,0-5.8c0-5,0-12.2,0-20.8l0.1,0.1H7.8l0,0l0.1-0.1
			c0,10.4,0,20.3,0,28.7l-0.1-0.1l23.2,0l6.5,0.1h1.7h0.4h-0.4h-1.7l-6.5,0l-23.2,0H7.6v-0.1c0-8.4,0-18.3,0-28.7V1h0.1h32.1h0.1
			v0.1c0,8.6,0,15.8,0,20.8c0,2.5,0,4.5,0,5.8c0,0.7,0,1.2,0,1.5C39.8,29.6,39.8,29.8,39.8,29.8z"/>
		<path class="st1" d="M20,6.2c0,0.1-1.7,0.1-3.8,0.1s-3.8,0-3.8-0.1s1.7-0.1,3.8-0.1S20,6.1,20,6.2z"/>
		<path class="st1" d="M33.6,8.3c0,0-4.6,0.1-10.4,0.1s-10.4,0-10.4-0.1c0,0,4.6-0.1,10.4-0.1S33.6,8.3,33.6,8.3z"/>
		<rect x="12.5" y="12" class="st1" width="1.4" height="1.4"/>
		<rect x="15.8" y="12" class="st1" width="1.4" height="1.4"/>
		<rect x="19.2" y="11.9" class="st1" width="1.4" height="1.4"/>
		<rect x="22.5" y="12" class="st1" width="1.4" height="1.4"/>
		<rect x="25.8" y="12" class="st1" width="1.4" height="1.4"/>
		<rect x="29.2" y="12" class="st1" width="1.4" height="1.4"/>
		<rect x="32.5" y="12" class="st2" width="1.4" height="1.4"/>
		<rect x="12.5" y="14.9" class="st2" width="1.4" height="1.4"/>
		<rect x="15.8" y="14.9" class="st1" width="1.4" height="1.4"/>
		<rect x="19.2" y="14.9" class="st2" width="1.4" height="1.4"/>
		<rect x="22.5" y="14.9" class="st1" width="1.4" height="1.4"/>
		<rect x="25.8" y="14.9" class="st1" width="1.4" height="1.4"/>
		<rect x="29.2" y="14.8" class="st1" width="1.4" height="1.4"/>
		<rect x="32.5" y="14.9" class="st1" width="1.4" height="1.4"/>
		<rect x="12.5" y="17.7" class="st1" width="1.4" height="1.4"/>
		<rect x="15.9" y="17.7" class="st1" width="1.4" height="1.4"/>
		<rect x="19.2" y="17.7" class="st1" width="1.4" height="1.4"/>
		<rect x="22.5" y="17.7" class="st2" width="1.4" height="1.4"/>
		<rect x="25.8" y="17.7" class="st1" width="1.4" height="1.4"/>
		<rect x="29.2" y="17.7" class="st1" width="1.4" height="1.4"/>
		<rect x="32.5" y="17.7" class="st1" width="1.4" height="1.4"/>
		<rect x="12.5" y="20.6" class="st1" width="1.4" height="1.4"/>
		<rect x="15.8" y="20.6" class="st1" width="1.4" height="1.4"/>
		<rect x="19.2" y="20.6" class="st1" width="1.4" height="1.4"/>
		<rect x="22.6" y="20.5" class="st1" width="1.4" height="1.4"/>
		<rect x="25.8" y="20.6" class="st1" width="1.4" height="1.4"/>
		<rect x="29.2" y="20.6" class="st2" width="1.4" height="1.4"/>
		<rect x="32.5" y="20.6" class="st1" width="1.4" height="1.4"/>
		<rect x="12.5" y="23.5" class="st1" width="1.4" height="1.4"/>
		<rect x="15.8" y="23.5" class="st2" width="1.4" height="1.4"/>
		<rect x="19.2" y="23.5" class="st1" width="1.4" height="1.4"/>
		<rect x="22.5" y="23.5" class="st1" width="1.4" height="1.4"/>
		<rect x="25.8" y="23.5" class="st1" width="1.4" height="1.4"/>
		<rect x="29.2" y="23.4" class="st1" width="1.4" height="1.4"/>
		<rect x="32.5" y="23.5" class="st1" width="1.4" height="1.4"/>
		<rect x="130.8" y="1.7" class="st3" width="22.7" height="22.7"/>
		<path class="st1" d="M153.5,24.4c0,0,0,0,0-0.1c0-0.1,0-0.2,0-0.3c0-0.3,0-0.7,0-1.2c0-1.1,0-2.6,0-4.6c0-4,0-9.6,0-16.4l0.1,0.1
			h-22.7l0,0l0.1-0.1c0,8.3,0,16.1,0,22.7l-0.1-0.1l16.4,0l4.6,0h1.2L153.5,24.4L153.5,24.4l-0.4,0h-1.2l-4.6,0l-16.5,0h-0.1v-0.1
			c0-6.6,0-14.4,0-22.7V1.5h0.1h22.7h0.1v0.1c0,6.8,0,12.5,0,16.5c0,2,0,3.5,0,4.6c0,0.5,0,0.9,0,1.2c0,0.1,0,0.2,0,0.3
			S153.5,24.4,153.5,24.4z"/>
		<path class="st1" d="M153.4,7.5c0,0-5.1,0.1-11.3,0.1c-6.2,0-11.3,0-11.3-0.1c0,0,5.1-0.1,11.3-0.1C148.3,7.4,153.4,7.4,153.4,7.5
			z"/>
		<circle class="st1" cx="133" cy="4.5" r="0.6"/>
		<circle class="st1" cx="134.9" cy="4.5" r="0.6"/>
		<path class="st1" d="M137.5,4.5c0,0.4-0.3,0.6-0.6,0.6c-0.4,0-0.6-0.3-0.6-0.6s0.3-0.6,0.6-0.6l0,0C137.3,3.8,137.5,4.1,137.5,4.5
			C137.5,4.5,137.5,4.5,137.5,4.5z"/>
		<circle class="st2" cx="135.4" cy="12.3" r="1.8"/>
		<path class="st2" d="M137.2,19.1c0,1-0.8,1.8-1.8,1.8s-1.8-0.8-1.8-1.8c0-1,0.8-1.8,1.8-1.8l0,0C136.4,17.2,137.2,18.1,137.2,19.1
			z"/>
		<path class="st1" d="M150.1,12.2c0,0-2.5,0.1-5.6,0.1c-3.1,0-5.6,0-5.6-0.1s2.5-0.1,5.6-0.1C147.6,12.1,150.1,12.1,150.1,12.2z"/>
		<path class="st1" d="M142.9,19.1c-1.3,0.1-2.7,0.1-4,0C140.2,19,141.5,19,142.9,19.1z"/>
		<circle class="st1" cx="150.1" cy="20.7" r="7.2"/>
		<rect x="150.1" y="18" class="st3" width="0.7" height="5.3"/>
		<rect x="147.8" y="20.3" class="st3" width="5.3" height="0.7"/>
		<circle class="st1" cx="13.5" cy="74.3" r="7.2"/>
		<rect x="13.5" y="71.6" class="st3" width="0.7" height="5.3"/>
		<rect x="11.2" y="73.9" class="st3" width="5.3" height="0.7"/>
		<rect x="51.7" y="106.1" class="st4" width="48.6" height="22.4"/>
		<path class="st1" d="M99.2,127.5H52.8v-20.2h46.4V127.5z M53.1,127.1h45.7v-19.6H53.1V127.1z"/>
		<rect x="100.4" y="106.1" class="st1" width="11.9" height="22.4"/>
		<path class="st1" d="M53,113.5h46.1c0,0,0.1,0,0.1-0.1c0,0,0-0.1-0.1-0.1H53C53,113.4,52.9,113.4,53,113.5
			C52.9,113.5,53,113.5,53,113.5C53,113.5,53,113.5,53,113.5z"/>
		<path class="st1" d="M76.2,113.4c0.1-2,0.1-4.1,0-6.1c0,0,0-0.1-0.1,0c0,0,0,0,0,0c-0.1,2-0.1,4.1,0,6.1
			C76.1,113.5,76.1,113.5,76.2,113.4C76.1,113.5,76.2,113.5,76.2,113.4L76.2,113.4z"/>
		<path class="st1" d="M88.6,110.4c0,0.3-0.3,0.6-0.6,0.6c-0.3,0-0.6-0.3-0.6-0.6c0-0.3,0.3-0.6,0.6-0.6
			C88.3,109.8,88.6,110.1,88.6,110.4L88.6,110.4z"/>
		<path class="st1" d="M64.4,110.4c0,0.3-0.3,0.6-0.6,0.6s-0.6-0.3-0.6-0.6c0-0.3,0.3-0.6,0.6-0.6C64.1,109.8,64.4,110.1,64.4,110.4
			L64.4,110.4z"/>
		<path class="st1" d="M76.7,117.4c0,0.3-0.3,0.6-0.6,0.6c-0.3,0-0.6-0.3-0.6-0.6c0-0.3,0.3-0.6,0.6-0.6
			C76.4,116.7,76.7,117,76.7,117.4L76.7,117.4z"/>
		<polygon class="st1" points="57.5,128.5 55,142.6 56.4,142.6 61.1,128.5 		"/>
		<polygon class="st1" points="96.9,128.5 99,142.6 97.6,142.6 93.4,128.5 		"/>
		<polygon class="st1" points="106.3,128.5 108.7,142.6 107.3,142.6 102.8,128.5 		"/>
		<path class="st1" d="M76.6,123.7c0,0.3-0.3,0.6-0.6,0.6c-0.3,0-0.6-0.3-0.6-0.6c0-0.3,0.3-0.6,0.6-0.6c0,0,0,0,0,0
			C76.3,123.1,76.6,123.4,76.6,123.7z"/>
		<path class="st1" d="M53,120.5h46.1c0,0,0.1,0,0-0.1c0,0,0,0,0,0H53C53,120.3,52.9,120.4,53,120.5C53,120.4,53,120.4,53,120.5z"/>
	</g>
	<g id="freepik--Floor--inject-35">
		<path class="st5" d="M150.5,142.7c0,0-32.7,0.1-72.9,0.1s-72.9,0-72.9-0.1c0,0,32.6-0.1,72.9-0.1S150.5,142.6,150.5,142.7z"/>
	</g>
	<g id="freepik--Window--inject-35">
		<rect x="25.3" y="12.7" class="st3" width="100.1" height="88.2"/>
		<rect x="25.3" y="66.4" class="st3" width="100.1" height="14.9"/>
		<rect x="25.3" y="49.3" class="st4" width="100.1" height="17.1"/>
		<rect x="25.3" y="83.7" class="st4" width="100.1" height="17.1"/>
		<path class="st5" d="M85.7,54.6c0,0.1-11.8,0.1-26.4,0.1S33,54.7,33,54.6c0-0.1,11.8-0.1,26.4-0.1S85.7,54.6,85.7,54.6z"/>
		<path class="st5" d="M55.2,59.4c0,0-5,0.1-11.2,0.1s-11.2,0-11.2-0.1s5-0.1,11.2-0.1S55.2,59.3,55.2,59.4z"/>
		<path class="st5" d="M85.7,71.4c0,0-11.8,0.1-26.4,0.1S33,71.5,33,71.4c0,0,11.8-0.1,26.4-0.1S85.7,71.4,85.7,71.4z"/>
		<path class="st5" d="M55.2,76.2c0,0.1-5,0.1-11.2,0.1s-11.2,0-11.2-0.1s5-0.1,11.2-0.1S55.2,76.1,55.2,76.2z"/>
		<path class="st5" d="M85.7,88.3c0,0-11.8,0.1-26.4,0.1S33,88.3,33,88.3s11.8-0.1,26.4-0.1S85.7,88.2,85.7,88.3z"/>
		<path class="st5" d="M55.2,93c0,0.1-5,0.1-11.2,0.1s-11.2,0-11.2-0.1c0-0.1,5-0.1,11.2-0.1S55.2,93,55.2,93z"/>
		<rect x="25.3" y="12.5" class="st1" width="100.1" height="8.4"/>
		<rect x="25.3" y="20.2" class="st4" width="100.1" height="8.4"/>
		<path class="st5" d="M31.3,16.5c0,0.6-0.5,1.1-1.1,1c-0.6,0-1.1-0.5-1-1.1c0-0.6,0.5-1.1,1.1-1C30.8,15.4,31.3,15.9,31.3,16.5
			C31.3,16.5,31.3,16.5,31.3,16.5z"/>
		<path class="st5" d="M35.2,16.5c0,0.6-0.5,1.1-1.1,1c-0.6,0-1.1-0.5-1-1.1c0-0.6,0.5-1.1,1.1-1c0,0,0,0,0,0
			C34.7,15.4,35.2,15.9,35.2,16.5z"/>
		<path class="st5" d="M39,16.5c0,0.6-0.5,1.1-1.1,1c-0.6,0-1.1-0.5-1-1.1c0-0.6,0.5-1,1.1-1C38.6,15.4,39,15.9,39,16.5
			C39,16.5,39,16.5,39,16.5z"/>
		<path class="st5" d="M125.4,100.9c0-0.6,0-34.4-0.1-88.3l0.1,0.1l-100.1,0l0,0l0.1-0.1c0,31.4,0,61.2,0,88.3l-0.1-0.1L125.4,100.9
			L25.3,101h-0.1v-0.1c0-27.1,0-57,0-88.3v-0.1h0.1l100.1,0h0.1v0.1C125.4,66.5,125.4,100.3,125.4,100.9z"/>
		<path class="st6" d="M88.7,33.5h23.7c1.1,0,1.9,0.9,1.9,1.9v5.5c0,1.1-0.9,1.9-1.9,1.9H88.7c-1.1,0-1.9-0.9-1.9-1.9v-5.5
			C86.8,34.4,87.7,33.5,88.7,33.5z"/>
		<path class="st3" d="M93.2,38.2h-0.6v0.6h-0.3v-0.6h-0.6v-0.3h0.6v-0.6h0.3v0.6h0.6V38.2z"/>
		<path class="st3" d="M96.2,38.6h-1.2l-0.3,0.6h-0.3l1-2.3h0.3l1,2.3h-0.3L96.2,38.6z M96,38.3l-0.5-1.1l-0.5,1.1L96,38.3z"/>
		<path class="st3" d="M98.7,36.7v2.4h-0.3v-0.3c-0.1,0.2-0.4,0.3-0.6,0.3c-0.5,0-0.9-0.4-0.9-0.9c0-0.5,0.4-0.9,0.9-0.9
			c0.2,0,0.5,0.1,0.6,0.3v-1H98.7z M98.4,38.3c0-0.3-0.3-0.6-0.6-0.6c-0.3,0-0.6,0.3-0.6,0.6c0,0.3,0.3,0.6,0.6,0.6
			C98.1,38.9,98.4,38.7,98.4,38.3C98.4,38.3,98.4,38.3,98.4,38.3z"/>
		<path class="st3" d="M100.9,36.7v2.4h-0.3v-0.3c-0.1,0.2-0.4,0.3-0.6,0.3c-0.5,0-0.9-0.4-0.9-0.9c0-0.5,0.4-0.9,0.9-0.9
			c0.2,0,0.5,0.1,0.6,0.3v-1H100.9z M100.6,38.3c0-0.3-0.2-0.6-0.5-0.6c-0.3,0-0.6,0.2-0.6,0.5c0,0,0,0.1,0,0.1
			c0,0.3,0.2,0.6,0.5,0.6C100.3,39,100.6,38.7,100.6,38.3C100.6,38.4,100.6,38.3,100.6,38.3z"/>
		<path class="st3" d="M102.9,37.2h-0.8v-0.3h1.9v0.3h-0.8v2h-0.3L102.9,37.2z"/>
		<path class="st3" d="M105.6,38.1v1.1h-0.3v-0.2c-0.1,0.2-0.4,0.3-0.6,0.3c-0.4,0-0.6-0.2-0.6-0.5s0.2-0.5,0.7-0.5h0.5v-0.1
			c0-0.3-0.2-0.4-0.5-0.4c-0.2,0-0.4,0.1-0.6,0.2l-0.1-0.2c0.2-0.2,0.5-0.2,0.7-0.2C105.4,37.4,105.6,37.6,105.6,38.1z M105.3,38.6
			v-0.2h-0.5c-0.3,0-0.4,0.1-0.4,0.3s0.1,0.3,0.4,0.3C105,39,105.3,38.8,105.3,38.6L105.3,38.6z"/>
		<path class="st3" d="M106,39l0.1-0.3c0.2,0.1,0.4,0.2,0.6,0.2c0.3,0,0.4-0.1,0.4-0.2c0-0.4-1.1-0.1-1.1-0.7c0-0.3,0.3-0.5,0.7-0.5
			c0.2,0,0.4,0,0.6,0.2l-0.1,0.3c-0.2-0.1-0.3-0.1-0.5-0.1c-0.3,0-0.4,0.1-0.4,0.2c0,0.4,1.1,0.1,1.1,0.8c0,0.3-0.3,0.5-0.8,0.5
			C106.5,39.2,106.2,39.1,106,39z"/>
		<path class="st3" d="M108.6,38.4l-0.4,0.3v0.5h-0.3v-2.4h0.3v1.6l1-0.9h0.4l-0.7,0.7l0.8,1h-0.4L108.6,38.4z"/>
		<path class="st5" d="M36.3,37.4h-1v-0.6H38v0.6h-1v2.5h-0.7L36.3,37.4z"/>
		<path class="st5" d="M40.3,39.3h-1.4l-0.3,0.7h-0.7l1.4-3.1H40l1.4,3.1h-0.8L40.3,39.3z M40.1,38.7l-0.5-1.2l-0.5,1.2H40.1z"/>
		<path class="st5" d="M41.4,39.6l0.2-0.5c0.3,0.2,0.7,0.3,1,0.3c0.4,0,0.6-0.1,0.6-0.3c0-0.6-1.8-0.2-1.8-1.3c0-0.5,0.4-1,1.3-1
			c0.4,0,0.8,0.1,1.1,0.3l-0.2,0.5c-0.3-0.2-0.6-0.2-0.9-0.2c-0.4,0-0.6,0.2-0.6,0.4c0,0.6,1.8,0.2,1.8,1.3c0,0.5-0.4,1-1.3,1
			C42.2,40,41.8,39.9,41.4,39.6z"/>
		<path class="st5" d="M45.6,38.7l-0.4,0.4v0.8h-0.7v-3.1h0.7v1.5l1.4-1.5h0.8l-1.3,1.4l1.4,1.7h-0.8L45.6,38.7z"/>
		<path class="st5" d="M47.5,39.6l0.2-0.5c0.3,0.2,0.7,0.3,1,0.3c0.4,0,0.6-0.1,0.6-0.3c0-0.6-1.8-0.2-1.8-1.3c0-0.5,0.4-1,1.3-1
			c0.4,0,0.8,0.1,1.1,0.3l-0.2,0.5c-0.3-0.2-0.6-0.2-0.9-0.2c-0.4,0-0.6,0.2-0.6,0.4c0,0.6,1.8,0.2,1.8,1.3c0,0.5-0.4,1-1.3,1
			C48.3,40,47.9,39.9,47.5,39.6z"/>
		<path class="st1" d="M102,55.8h14.6c1.6,0,3,1.3,3,3v0c0,1.6-1.3,3-3,3H102c-1.6,0-3-1.3-3-3v0C99,57.2,100.3,55.8,102,55.8z"/>
		<path class="st2" d="M116.6,78.8H102c-1.6,0-3-1.3-3-3l0,0l0,0c0-1.6,1.3-3,3-3l0,0h14.6c1.6,0,3,1.3,3,3l0,0l0,0
			C119.5,77.5,118.2,78.8,116.6,78.8L116.6,78.8z"/>
		<path class="st1" d="M102,89.6h14.6c1.6,0,3,1.3,3,3v0c0,1.6-1.3,3-3,3H102c-1.6,0-3-1.3-3-3v0C99,91,100.3,89.6,102,89.6z"/>
	</g>
	<g id="freepik--Plant--inject-35">
		<path class="st6" d="M22.8,118.3c-2.7,0.9-6.2,0.1-8.5-1.6c-2.3-1.7-3.9-4.1-5.4-6.5c-0.6-1-1.2-2.1-1.4-3.3s0.1-2.5,1-3.3
			c1.4-1.2,3.7-0.6,5.3,0.3C18.9,106.9,22.3,112.3,22.8,118.3"/>
		<path class="st6" d="M19.9,124.7c-1.6,2.1-4.4,3.1-7,3.2c-2.7,0.1-5.3-0.6-7.8-1.6c-0.9-0.3-1.9-0.8-2.2-1.7
			c-0.2-0.7,0-1.5,0.5-2.1c0.5-0.5,1.1-1,1.8-1.2c2.5-1,5.3-1.1,7.8-0.4S17.8,123.1,19.9,124.7"/>
		<path class="st6" d="M22.8,106.8c-2.2,0-3.9-1.9-4.9-3.9c-1.4-2.8-1.9-5.9-1.3-9c0.2-1.1,0.6-2.4,1.6-2.9c1-0.5,2.4-0.2,3.2,0.6
			s1.3,1.9,1.7,3C24.3,98.5,24.1,103,22.8,106.8"/>
		<path class="st6" d="M30.1,119.1c-3.8-6.5-4.4-14.4-2.2-21.5c0.4-1.2,1-2.5,2.3-2.6c1.3-0.1,2.2,1.4,2.6,2.7
			c1.3,4.5,1,9.3,0.7,14.1C33.3,114.7,32.3,117.2,30.1,119.1"/>
		<path class="st6" d="M34,121.7c1.4-4.5,4.8-8.1,9.2-9.8c1-0.4,2.3-0.6,3,0.2s0.5,2,0,3c-0.8,1.5-2,2.7-3.2,3.9
			c-1.1,1.1-2.3,2.1-3.7,2.8C38,122.4,35.3,122.6,34,121.7"/>
		<path class="st5" d="M10.5,105.2C10.6,105.2,10.6,105.2,10.5,105.2l0.3,0.2l0.8,0.6l0.6,0.4c0.2,0.2,0.4,0.3,0.7,0.5
			c0.5,0.4,1,0.8,1.6,1.3l0.9,0.8c0.3,0.3,0.6,0.6,0.9,0.9c0.7,0.6,1.3,1.4,2,2.1c1.4,1.7,2.7,3.5,3.9,5.3c1.1,1.9,2.2,3.8,3,5.9
			c0.4,0.9,0.7,1.8,1,2.7c0.1,0.4,0.3,0.8,0.4,1.2l0.3,1.2c0.2,0.7,0.4,1.4,0.5,2c0.1,0.3,0.1,0.6,0.2,0.8c0.1,0.3,0.1,0.5,0.1,0.7
			c0.1,0.4,0.1,0.7,0.2,1l0.1,0.3c0,0,0,0.1,0,0.1c0,0,0-0.1,0-0.1c0-0.1,0-0.2,0-0.3c0-0.2-0.1-0.6-0.1-1c0-0.2-0.1-0.5-0.1-0.7
			s-0.1-0.5-0.2-0.8c-0.1-0.6-0.3-1.3-0.5-2c-0.1-0.4-0.2-0.8-0.3-1.2c-0.1-0.4-0.3-0.8-0.4-1.2c-0.3-0.9-0.6-1.8-1-2.7
			c-0.9-2-1.9-4-3-5.9c-1.2-1.9-2.5-3.7-3.9-5.3c-0.7-0.8-1.3-1.5-2-2.1c-0.3-0.3-0.6-0.6-0.9-0.9l-0.9-0.8
			c-0.6-0.5-1.1-0.9-1.6-1.3c-0.2-0.2-0.5-0.4-0.7-0.5l-0.6-0.4l-0.8-0.6L10.5,105.2C10.6,105.2,10.6,105.2,10.5,105.2z"/>
		<path class="st5" d="M5.5,123.1c0.1,0,0.2,0,0.3,0c0.2,0,0.4-0.1,0.7-0.1c0.9-0.2,1.8-0.3,2.7-0.3c3-0.2,6.1,0.3,8.9,1.5
			c2.8,1.2,5.3,3,7.3,5.3c0.6,0.7,1.2,1.4,1.7,2.2c0.2,0.3,0.3,0.5,0.4,0.6c0,0.1,0.1,0.1,0.2,0.2c0-0.1-0.1-0.2-0.1-0.2
			c-0.1-0.2-0.2-0.4-0.4-0.7c-0.5-0.8-1.1-1.5-1.7-2.2c-4.1-4.7-10.1-7.3-16.4-6.8c-0.9,0.1-1.8,0.2-2.7,0.4
			c-0.3,0.1-0.6,0.1-0.7,0.2C5.6,123,5.5,123.1,5.5,123.1z"/>
		<path class="st5" d="M19.5,93.6c0,0,0,0.1,0,0.1l0.1,0.3c0.1,0.3,0.1,0.6,0.2,1.1c0.2,1,0.6,2.4,1,4.1c0.8,3.4,2,8.2,3.3,13.4
			c0.6,2.6,1.2,5.1,1.7,7.4c0.5,2.3,0.9,4.3,1.2,6.1c0.2,0.9,0.3,1.7,0.4,2.3c0.1,0.7,0.2,1.3,0.3,1.8c0.1,0.5,0.1,0.9,0.2,1.1
			c0,0.1,0,0.2,0.1,0.3c0,0,0,0.1,0,0.1c0,0,0-0.1,0-0.1c0-0.1,0-0.2,0-0.3l-0.1-1.1c-0.1-0.5-0.1-1.1-0.3-1.8
			c-0.1-0.7-0.2-1.5-0.4-2.4c-0.3-1.7-0.7-3.8-1.2-6.1c-0.5-2.3-1-4.8-1.7-7.4c-1.3-5.2-2.5-10-3.4-13.4c-0.4-1.7-0.8-3.1-1-4.1
			c-0.1-0.5-0.2-0.8-0.3-1.1C19.6,93.9,19.6,93.8,19.5,93.6C19.6,93.7,19.5,93.6,19.5,93.6z"/>
		<path class="st5" d="M28.2,131.2C28.2,131.2,28.2,131.1,28.2,131.2c0-0.1,0.1-0.2,0.1-0.3c0-0.2,0.1-0.5,0.2-0.9
			c0.2-0.8,0.4-1.9,0.6-3.3c0.5-2.8,1.1-6.7,1.4-11c0.2-2.2,0.3-4.2,0.3-6.1c0-1.9,0-3.6,0-5c0-0.7-0.1-1.4-0.1-1.9
			c0-0.6-0.1-1.1-0.1-1.4c0-0.4-0.1-0.7-0.1-0.9c0-0.1,0-0.2,0-0.2c0,0,0-0.1,0-0.1c0,0,0,0.1,0,0.1c0,0.1,0,0.1,0,0.2
			c0,0.2,0,0.5,0.1,0.9c0,0.4,0.1,0.9,0.1,1.4c0,0.6,0.1,1.2,0.1,1.9c0,1.4,0,3.1,0,5c0,1.9-0.2,3.9-0.3,6.1
			c-0.4,4.3-0.9,8.2-1.4,11c-0.2,1.4-0.4,2.5-0.6,3.3c-0.1,0.4-0.1,0.7-0.2,0.9C28.3,131,28.2,131.1,28.2,131.2
			C28.2,131.1,28.2,131.2,28.2,131.2z"/>
		<path class="st5" d="M27.9,132c0-0.1,0.1-0.1,0.1-0.2l0.3-0.6l0.2-0.5c0.1-0.2,0.2-0.4,0.2-0.5c0.1-0.2,0.2-0.4,0.3-0.6
			c0.1-0.2,0.2-0.4,0.3-0.7l0.4-0.8l0.5-0.8c0.3-0.6,0.7-1.1,1.1-1.7c0.9-1.3,1.8-2.5,2.9-3.6c1-1.1,2.1-2.2,3.3-3.3
			c0.5-0.5,1-0.9,1.5-1.3l0.7-0.6l0.7-0.5c0.4-0.3,0.8-0.6,1.2-0.8c0.4-0.2,0.7-0.4,0.9-0.6l0.6-0.4c0.1,0,0.1-0.1,0.2-0.1
			c-0.1,0-0.1,0.1-0.2,0.1l-0.6,0.3c-0.3,0.1-0.6,0.3-0.9,0.6c-0.4,0.2-0.8,0.5-1.2,0.8l-0.7,0.5l-0.7,0.6c-0.5,0.4-1,0.8-1.6,1.3
			c-1.2,1-2.3,2.1-3.3,3.3c-1,1.2-2,2.4-2.9,3.7c-0.4,0.6-0.8,1.2-1.1,1.7l-0.5,0.8l-0.4,0.8c-0.1,0.2-0.2,0.5-0.3,0.7
			s-0.2,0.4-0.3,0.6c-0.1,0.2-0.2,0.4-0.2,0.6c-0.1,0.2-0.1,0.3-0.2,0.5c-0.1,0.3-0.2,0.5-0.2,0.7C28,131.9,28,131.9,27.9,132z"/>
		<path class="st5" d="M12,112.7c0,0,0.5,0,1.2,0.1c1,0.1,1.9,0.2,2.9,0.3c0.9,0.2,1.9,0.4,2.8,0.7c0.4,0.1,0.8,0.3,1.1,0.4
			c-0.1-0.1-0.2-0.1-0.3-0.2c-0.2-0.1-0.5-0.2-0.8-0.3c-0.9-0.3-1.8-0.6-2.8-0.8c-1-0.2-1.9-0.3-2.9-0.3c-0.4,0-0.7,0-0.9,0
			C12.2,112.6,12.1,112.6,12,112.7z"/>
		<path class="st5" d="M9.1,126.6c0.4-0.9,0.9-1.6,1.6-2.4c1.1-1.2,2.3-1.7,2.2-1.7c-0.3,0.1-0.5,0.2-0.8,0.3
			c-0.6,0.3-1.1,0.8-1.6,1.3c-0.5,0.5-0.8,1.1-1.1,1.7C9.2,126.1,9.1,126.3,9.1,126.6z"/>
		<path class="st5" d="M18.8,98.8c0,0,0.7,0.7,1.4,1.7s1.3,1.8,1.3,1.7c-0.3-0.7-0.7-1.3-1.2-1.8C20,99.8,19.4,99.3,18.8,98.8z"/>
		<path class="st5" d="M21.1,94.9c-0.3,1-0.5,2-0.5,3c0.2-0.5,0.3-1,0.3-1.5C21.1,95.9,21.1,95.4,21.1,94.9z"/>
		<path class="st5" d="M28.2,107.3c0.3,0.8,0.7,1.6,1.1,2.3c0.4,0.8,0.8,1.5,1.3,2.3c-0.3-0.8-0.7-1.6-1.1-2.3
			C29.1,108.8,28.7,108,28.2,107.3z"/>
		<path class="st5" d="M32.4,103.1c-0.4,0.5-0.7,1.1-0.9,1.7c-0.3,0.6-0.6,1.2-0.8,1.8c0.4-0.5,0.7-1.1,0.9-1.7
			C32,104.3,32.2,103.7,32.4,103.1z"/>
		<path class="st5" d="M38.6,117.5c0,0.1,0.8-0.1,1.7-0.2s1.7,0,1.7-0.1c-0.6-0.1-1.1-0.2-1.7-0.1C39.8,117.2,39.2,117.3,38.6,117.5
			z"/>
		<path class="st5" d="M34.4,130.2l-2.1,11.1c-0.1,0.7-0.8,1.3-1.5,1.3h-6.2c-0.8,0-1.4-0.5-1.5-1.3l-1.8-11.1H34.4z"/>
		<polygon class="st7" points="33.7,133.8 21.8,133.8 21.2,130.2 34.4,130.2 		"/>
		<polygon class="st0" points="33.7,133.8 33.5,135.2 22,135.2 21.8,133.8 		"/>
	</g>
	<g id="freepik--Character--inject-35">
		<path class="st5" d="M125.7,132.5l0.3,6.5c0,0-6.5,2.4-6.6,3.6l12.6-0.1v-10.1L125.7,132.5z"/>
		<path class="st1" d="M129.8,138.5c0.3,0.1,0.4,0.3,0.4,0.6c-0.1,0.3-0.3,0.4-0.6,0.4c-0.3-0.1-0.4-0.3-0.4-0.6
			C129.3,138.5,129.6,138.4,129.8,138.5"/>
		<path class="st7" d="M131.9,142.6l0-1l-12,0.4c0,0-0.6,0.2-0.5,0.6L131.9,142.6z"/>
		<path class="st3" d="M125.7,139c0,0.1,0.3,0.1,0.6,0.3c0.3,0.2,0.5,0.5,0.5,0.4c0.1,0,0-0.4-0.4-0.6S125.7,138.9,125.7,139z"/>
		<path class="st3" d="M124.4,139.5c0,0.1,0.3,0.2,0.5,0.4c0.2,0.3,0.3,0.5,0.3,0.5c0.1,0,0.1-0.4-0.2-0.7S124.4,139.4,124.4,139.5z
			"/>
		<path class="st3" d="M123.7,141.1c0.1,0,0.1-0.3,0-0.6s-0.4-0.5-0.5-0.4c0,0.1,0.2,0.2,0.3,0.5
			C123.6,140.8,123.6,141.1,123.7,141.1z"/>
		<path class="st3" d="M125.8,137.5c0,0.1,0.3,0,0.7,0c0.4,0,0.6,0.1,0.6,0.1s-0.2-0.3-0.6-0.3C126.1,137.2,125.8,137.4,125.8,137.5
			z"/>
		<path class="st5" d="M145,134.1l1.6,7.7l-0.5,6.4c0,0.4,0.3,0.8,0.7,0.9c0,0,0,0,0.1,0l0,0c0.3,0,0.5-0.1,0.7-0.3
			c1-1.3,4.5-6.3,4.3-6.9c-0.2-0.6-1.2-8.2-1.2-8.2L145,134.1z"/>
		<path class="st7" d="M146.9,149l4.9-7.7l0.1,0.3c0.1,0.3,0,0.6-0.1,0.8c-0.4,0.7-1.5,2.5-4.1,6.2C147.5,148.9,147.2,149,146.9,149
			L146.9,149z"/>
		<g class="st8">
			<path class="st3" d="M149.8,139.1c-0.2,0.2-0.2,0.5,0,0.6c0.2,0.2,0.5,0.2,0.6,0c0.2-0.2,0.2-0.5,0-0.7
				C150.2,138.9,149.9,138.9,149.8,139.1"/>
		</g>
		<path class="st3" d="M148.1,145.3c-0.2-0.2-0.5-0.4-0.8-0.5c-0.3-0.1-0.6-0.1-0.9,0c0,0,0.1-0.1,0.3-0.2c0.2-0.1,0.5-0.1,0.7,0
			c0.2,0.1,0.4,0.2,0.6,0.4C148,145.2,148.1,145.3,148.1,145.3z"/>
		<path class="st3" d="M147.7,146.4c-0.2-0.1-0.5-0.1-0.7-0.2c-0.3,0-0.5,0-0.8,0C146.7,145.9,147.3,146,147.7,146.4z"/>
		<path class="st3" d="M148.8,143.8c-0.7-0.4-1.5-0.5-2.3-0.4C147.3,143,148.2,143.2,148.8,143.8z"/>
		<path class="st3" d="M148.5,141.4c0,0.1-0.5,0-1,0c-0.6,0.1-1,0.3-1,0.3C147.1,141.3,147.8,141.1,148.5,141.4L148.5,141.4z"/>
		<path class="st3" d="M148.1,139.2c-0.4-0.1-0.7-0.1-1.1,0c-0.3,0.1-0.7,0.3-1,0.4c0,0,0.1-0.1,0.2-0.3c0.2-0.2,0.5-0.3,0.7-0.4
			c0.3-0.1,0.5-0.1,0.8,0C148,139.1,148.1,139.1,148.1,139.2z"/>
		<path class="st3" d="M147,138.7c0-0.1-0.1-0.2-0.1-0.3c0-0.3,0-0.5,0.1-0.8c0-0.2,0.2-0.4,0.3-0.5c0.1-0.1,0.3-0.1,0.4,0
			c0.1,0.1,0.2,0.2,0.2,0.3c0.1,0.5-0.3,1-0.8,1.2c-0.5,0.2-1.1,0-1.4-0.4c-0.1-0.1-0.1-0.2-0.1-0.4c0-0.1,0.2-0.2,0.3-0.2
			c0.2,0,0.4,0.1,0.6,0.2c0.2,0.1,0.5,0.3,0.6,0.5c0.1,0.1,0.1,0.2,0.2,0.2c-0.3-0.3-0.5-0.5-0.9-0.6c-0.2-0.1-0.3-0.1-0.5-0.1
			c-0.1,0-0.1,0.1-0.2,0.1c0,0.1,0,0.2,0.1,0.2c0.3,0.3,0.8,0.5,1.2,0.4c0.4-0.1,0.7-0.6,0.7-1c0-0.1-0.1-0.2-0.1-0.2
			c-0.1,0-0.1,0-0.2,0c-0.1,0.1-0.2,0.3-0.3,0.4C147,138,147,138.4,147,138.7z"/>
		<path class="st7" d="M121,80c0,0-0.1,3.4,0.2,7.8c0.1,1.7,3.7,49,3.7,49l7.7,0.2l-1.1-44.2l1.3,0.3c0,0,4.1,14.8,5,18.1
			c1.1,4,6.7,26.8,6.7,26.8l7.1,0.3l-4.7-26.7l-4-25.4l-0.8-7.4L121,80z"/>
		<path class="st5" d="M132.9,88.3c-0.1,0.1-0.2,0.1-0.3,0.2c-0.3,0.1-0.6,0.3-1,0.3c-0.2,0-0.5,0-0.7,0c-0.3-0.1-0.5-0.2-0.7-0.4
			c-0.2-0.2-0.4-0.5-0.4-0.8c-0.1-0.3-0.1-0.6-0.2-0.9c-0.2-1.3-0.4-2.5-0.4-3.3c0-0.4-0.1-0.8-0.1-1c0-0.1,0-0.2,0-0.4
			c0,0.1,0.1,0.2,0.1,0.4c0,0.3,0.1,0.6,0.1,1c0.1,0.8,0.3,2,0.5,3.3c0.1,0.6,0.2,1.3,0.6,1.7c0.4,0.3,0.9,0.5,1.3,0.4
			c0.3-0.1,0.6-0.1,1-0.3C132.7,88.4,132.8,88.3,132.9,88.3z"/>
		<path class="st5" d="M130.7,82.2c0,0,0.1,0,0.2,0c0.2,0,0.3,0.1,0.4,0.2c0.2,0.1,0.3,0.4,0.3,0.6c0,0.4-0.4,0.7-0.8,0.7
			c-0.2,0-0.4-0.1-0.5-0.2c-0.1-0.2-0.2-0.4-0.1-0.7c0-0.2,0.1-0.3,0.2-0.4c0.1-0.1,0.1-0.1,0.2-0.1c-0.1,0.1-0.2,0.3-0.3,0.5
			c0,0.2,0,0.4,0.1,0.5c0.2,0.2,0.4,0.2,0.6,0.1c0.2-0.1,0.4-0.3,0.4-0.5c0-0.2-0.1-0.4-0.2-0.5C131.1,82.3,130.9,82.3,130.7,82.2z"
			/>
		<path class="st5" d="M142.9,85.7c-0.1,0-0.2,0-0.3,0c-0.2,0-0.5,0-0.7,0c-1.6-0.1-3.1-0.8-4.3-1.9c-0.2-0.2-0.3-0.3-0.5-0.5
			c-0.1-0.1-0.1-0.1-0.2-0.2c0,0,0.3,0.3,0.7,0.7c0.6,0.5,1.3,1,2,1.3c0.7,0.3,1.5,0.5,2.3,0.6C142.5,85.7,142.9,85.7,142.9,85.7z"
			/>
		<path class="st5" d="M124.2,82.2c-0.1,0.3-0.2,0.5-0.3,0.8c-0.3,0.6-0.6,1.1-1,1.6c-0.4,0.5-0.8,0.9-1.2,1.3
			c-0.2,0.2-0.4,0.3-0.6,0.4c0.2-0.2,0.3-0.3,0.5-0.5c0.4-0.4,0.8-0.8,1.2-1.3c0.4-0.5,0.7-1,1-1.6C124,82.5,124.1,82.2,124.2,82.2z
			"/>
		<path class="st9" d="M128.6,33.3c0.2-3.1,2.8-5.5,6-5.5h0.3c3.4,0.2,5.1,3.1,4.8,6.5L139,44.7l-6,6.2l-1.5-3.7v-2.5
			c0,0-3.2-0.5-3.3-3.7C128.2,39.4,128.4,36.2,128.6,33.3z"/>
		<path class="st10" d="M131.4,44.7c1.5,0,3-0.4,4.2-1.2c0,0-1,2.3-4.2,2L131.4,44.7z"/>
		<path class="st5" d="M129.5,36c0,0.2,0.2,0.5,0.4,0.5c0.2,0,0.5-0.2,0.5-0.4c0,0,0,0,0,0c0-0.3-0.2-0.5-0.4-0.5
			C129.7,35.6,129.5,35.7,129.5,36C129.5,36,129.5,36,129.5,36z"/>
		<path class="st5" d="M129.3,34.9c0.1,0.1,0.4-0.2,0.9-0.2s0.9,0.2,0.9,0.2s0-0.1-0.2-0.3c-0.2-0.1-0.5-0.2-0.7-0.2
			c-0.3,0-0.5,0.1-0.7,0.2C129.3,34.8,129.3,34.9,129.3,34.9z"/>
		<path class="st5" d="M133.9,36.1c0,0.2,0.2,0.5,0.4,0.5c0.2,0,0.5-0.2,0.5-0.4c0,0,0,0,0,0c0-0.2-0.2-0.5-0.4-0.5
			C134.2,35.7,134,35.9,133.9,36.1C133.9,36.1,133.9,36.1,133.9,36.1z"/>
		<path class="st5" d="M134.2,35c0.1,0.1,0.4-0.2,0.9-0.2c0.5,0,0.9,0.2,0.9,0.2c0.1-0.1,0-0.1-0.2-0.3c-0.2-0.1-0.5-0.2-0.7-0.2
			c-0.3,0-0.5,0.1-0.7,0.2C134.2,34.8,134.1,34.9,134.2,35z"/>
		<path class="st5" d="M132.4,38.6c-0.3-0.1-0.5-0.1-0.8-0.1c-0.1,0-0.2,0-0.3-0.1c0-0.1,0-0.3,0.1-0.4l0.4-1
			c0.5-1.4,0.9-2.5,0.8-2.5s-0.5,1.1-1,2.4c-0.1,0.3-0.2,0.7-0.4,1c-0.1,0.2-0.1,0.3-0.1,0.5c0,0.1,0.1,0.2,0.2,0.2
			c0.1,0,0.1,0,0.2,0C131.8,38.7,132.1,38.7,132.4,38.6z"/>
		<path class="st5" d="M133.8,39c-0.1,0-0.1,0.5-0.5,0.9c-0.5,0.4-1,0.3-1,0.4c0,0.1,0.1,0.1,0.4,0.1c0.3,0,0.6-0.1,0.9-0.3
			c0.2-0.2,0.4-0.5,0.4-0.8C133.9,39.1,133.9,39,133.8,39z"/>
		<path class="st5" d="M134,33c0,0.1,0.5,0.1,1.1,0.1c0.6,0.1,1.1,0.2,1.1,0.1c0-0.1-0.1-0.2-0.2-0.3c-0.5-0.3-1.1-0.4-1.7-0.2
			C134.1,32.9,134,33,134,33z"/>
		<path class="st5" d="M129.5,33.4c0.1,0.1,0.4,0,0.8,0c0.4,0,0.8,0.1,0.8,0c0-0.1,0-0.2-0.2-0.3c-0.2-0.1-0.4-0.2-0.7-0.2
			c-0.2,0-0.5,0.1-0.7,0.2C129.5,33.3,129.4,33.4,129.5,33.4z"/>
		<path class="st5" d="M127.4,30.5c0.1-0.3,0.3-0.5,0.6-0.5c-0.2,0-0.3-0.1-0.4-0.2c-0.1-0.1-0.2-0.3-0.2-0.4
			c0.1-0.3,0.4-0.3,0.6-0.4c0.3-0.1,0.6-0.3,0.8-0.6c0.3-0.4,0.4-0.9,0.7-1.3c0.6-1,1.9-1.3,2.9-0.7c0.1,0.1,0.3,0.2,0.4,0.3
			c0.8-0.9,2.2-1,3.2-0.1c0.2,0.2,0.3,0.4,0.5,0.6c1.3-0.6,2.8,0,3.4,1.3c0.2,0.5,0.3,1,0.2,1.4l-2,1.3c-0.1-0.6-0.6-1-1.2-0.9
			c0,0-0.1,0-0.1,0c-0.6,0.2-1,0.9-1.6,1c-0.5,0.1-0.9-0.3-1.4-0.4c-0.6-0.1-1.2,0.1-1.7,0.4c-0.5,0.4-1,0.6-1.6,0.8
			c-0.7,0.2-1.4,0.1-2.1-0.2c-0.3-0.1-0.5-0.2-0.8-0.4C127.5,31.1,127.4,30.8,127.4,30.5z"/>
		<path class="st5" d="M137.8,30.1l-9.2,0.2c0.3-0.6,0.8-1.2,1.3-1.6c1.2-0.9,2.7-1.4,4.2-1.5c1.5,0,4.6,1.8,5.6,2.8
			c0.9,0.8,0.9,1.5,0.9,1.5c0.1,1.2-0.5,2.5-0.8,3.7c-0.1,0.6-0.4,2.4-0.4,2.4l0,0c-0.5,0-0.7-0.4-0.6-0.9l0.1-2
			c-1-0.8-1.4-2.3-0.9-3.5C138.1,31.2,138.4,30.4,137.8,30.1z"/>
		<path class="st5" d="M139,34.8c0.4-1.6,0.8-3.4,0.3-5l0.3,0l0.1,0.1c0.7-0.2,1.4,0.1,1.7,0.8c0.1,0.4,0.1,0.8-0.2,1.2
			c0.6,0,1.1,0.4,1.1,0.9c0,0.4-0.1,0.8-0.3,1.1c-0.2,0.3-0.3,0.7-0.3,1.1c0,0.4,0.3,0.7,0.6,0.8c-0.2,0.4-0.6,0.6-1,0.5
			c0.1,0.3,0.4,0.6,0.7,0.8c-0.6,0.4-1.4,0.3-2.1,0c-0.4-0.2-0.7-0.4-0.9-0.8C138.8,35.7,138.8,35.2,139,34.8z"/>
		<path class="st9" d="M139.2,36.6c0.1,0,2.2-0.7,2.2,1.5c-0.1,2.2-2.3,1.7-2.3,1.6C139.1,39.7,139.2,36.6,139.2,36.6z"/>
		<path class="st10" d="M139.6,39c0,0,0,0,0.1,0.1c0.1,0,0.2,0,0.3,0c0.3-0.2,0.5-0.5,0.5-0.8c0-0.2,0-0.4-0.1-0.6
			c0-0.1-0.1-0.3-0.3-0.3c-0.1,0-0.2,0-0.2,0.1c0,0.1,0,0.1,0,0.1c0,0,0,0,0-0.1c0-0.1,0-0.1,0.1-0.1c0.1,0,0.1-0.1,0.2-0.1
			c0.2,0,0.3,0.2,0.4,0.4c0.1,0.2,0.1,0.4,0.1,0.6c0,0.4-0.2,0.8-0.6,0.9C139.9,39.2,139.8,39.2,139.6,39
			C139.6,39.1,139.6,39,139.6,39z"/>
		<path class="st7" d="M141.4,34.8c0,0,0.1-0.1,0-0.3c-0.1-0.2-0.2-0.4-0.4-0.6c-0.3-0.1-0.7-0.2-1-0.2c-0.4,0-0.8-0.2-1-0.5
			c-0.2-0.3-0.3-0.8-0.2-1.1c0-0.4,0.1-0.7,0.2-1c0.1-0.3,0.1-0.6,0-0.9c0,0.3,0,0.6-0.1,0.9c-0.1,0.3-0.2,0.6-0.2,1
			c-0.1,0.4,0,0.9,0.2,1.3c0.1,0.2,0.3,0.3,0.5,0.4c0.2,0.1,0.4,0.1,0.6,0.1c0.3,0,0.7,0,1,0.2c0.2,0.1,0.3,0.3,0.4,0.5
			C141.4,34.6,141.4,34.7,141.4,34.8z"/>
		<path class="st7" d="M141.9,33.8c0,0,0-0.1,0.1-0.2c0-0.3-0.1-0.7-0.4-0.9c-0.1-0.1-0.3-0.2-0.4-0.2c-0.1,0-0.3-0.1-0.4-0.2
			c-0.1-0.1-0.2-0.2-0.2-0.4c0-0.2,0-0.3,0-0.5c0-0.5-0.2-0.9-0.4-1.3c-0.1-0.2-0.3-0.3-0.5-0.3c-0.1,0-0.2,0.1-0.2,0.1
			c0,0,0.1,0,0.2,0c0.2,0,0.3,0.1,0.4,0.3c0.1,0.2,0.2,0.5,0.3,0.7c0,0.2,0.1,0.3,0.1,0.5c0,0.2,0,0.3,0,0.5c0,0.2,0.1,0.4,0.2,0.5
			c0.1,0.1,0.3,0.1,0.5,0.2c0.3,0,0.5,0.2,0.6,0.4C141.9,33.3,142,33.5,141.9,33.8z"/>
		<path class="st7" d="M128.9,28.3c0,0,0.2,0.1,0.5,0c0.2-0.1,0.3-0.2,0.4-0.4c0.1-0.2,0.3-0.3,0.5-0.5c0.5-0.3,1.2-0.3,1.7,0.1
			c0.3,0.2,0.5,0.5,0.8,0.7c0.2,0.1,0.4,0.2,0.6,0.2c0.2,0,0.4,0,0.6-0.1c0.4-0.2,0.7-0.4,1-0.5c0.3-0.1,0.7-0.2,1-0.2
			c0.6,0,1.2,0.2,1.7,0.5c0.3,0.2,0.6,0.5,0.8,0.9c0.1,0.3,0.2,0.4,0.2,0.4c0,0,0,0,0-0.1c0-0.1-0.1-0.2-0.1-0.3
			c-0.2-0.4-0.5-0.7-0.8-1c-0.5-0.4-1.1-0.6-1.8-0.6c-0.4,0-0.7,0.1-1.1,0.2c-0.4,0.1-0.7,0.4-1,0.5c-0.2,0.1-0.4,0.1-0.5,0.1
			c-0.2,0-0.3-0.1-0.5-0.2c-0.3-0.2-0.6-0.5-0.9-0.7c-0.3-0.2-0.6-0.3-1-0.3c-0.3,0-0.6,0.1-0.8,0.3c-0.2,0.1-0.4,0.3-0.5,0.5
			c-0.1,0.1-0.2,0.3-0.4,0.4C129.2,28.3,129,28.4,128.9,28.3z"/>
		<path class="st9" d="M116,57.6l-11.4-9l-1.6-1.7c0,0-3.9-3.6-4.2-4c-0.4-0.5-0.7-0.4-0.9-0.2c-0.3,0.2-0.2,0.7,0.1,1.1
			c0.1,0.1,1.9,2.3,1.9,2.3c-0.3-0.1-0.6-0.2-0.9-0.2c-0.7-0.1-1.6,0.3-2.3,0.9c-0.8,0.7-0.9,0.9-0.6,1.2c0.1,0.1,0.2,0.2,0.4,0.2
			c0.2,0,0.5-0.1,0.7-0.2c1.2-1,2.1-0.7,2.1-0.7l0.2,0.2c0,0-1.2,0.1-1.6,0.8c-0.1,0.1-0.1,0.2-0.1,0.3c-0.5,0.4-0.6,1.2-0.1,1.8
			c0.1,0.2,0.3,0.3,0.5,0.4c0.2,0.1,0.4,0.1,0.6-0.1c0.1-0.1,0.1-0.2,0.1-0.3c0-0.1,0-0.1,0-0.2l0.7,0.5c0,0,1.6,1.1,2.2,1.7
			l9.6,10.4c1.3,1.4,3.5,1.5,4.9,0.2c0,0,0,0,0,0l0,0c1.4-1.3,1.4-3.5,0.1-4.9C116.2,57.8,116.1,57.7,116,57.6z"/>
		<path class="st9" d="M104.1,48.7c-0.2,0.2-0.5,0.3-0.8,0.2c-0.3-0.1-0.5-0.3-0.8-0.4c-0.8-0.4-1.8,0-2.7-0.4
			c-0.1-0.1-0.2-0.2-0.2-0.3s0.2-0.2,0.3-0.2l2.9-0.6"/>
		<path class="st10" d="M102.8,47c-0.1,0-0.2,0-0.3,0c-0.2,0-0.5,0.1-0.9,0.1l-1.3,0.2l-0.4,0.1c-0.2,0-0.3,0.1-0.4,0.2
			c-0.1,0.1-0.1,0.2,0,0.3c0,0.1,0.1,0.1,0.2,0.2c0.1,0.1,0.3,0.1,0.4,0.1c0.5,0.1,1.1,0.1,1.6,0.1c0.2,0,0.5,0.1,0.7,0.1
			c0.2,0.1,0.4,0.2,0.5,0.3c0.3,0.2,0.6,0.2,0.9,0.1c0.2-0.1,0.3-0.2,0.2-0.2c-0.1,0.1-0.2,0.1-0.3,0.2c-0.3,0.1-0.6,0-0.8-0.2
			c-0.2-0.1-0.4-0.2-0.5-0.3c-0.2-0.1-0.5-0.2-0.7-0.2c-0.5,0-1.1,0-1.6-0.1c-0.1,0-0.3-0.1-0.4-0.1c-0.1-0.1-0.2-0.2-0.1-0.2
			s0.2-0.1,0.3-0.1l0.4-0.1l1.3-0.3c0.4-0.1,0.7-0.1,0.9-0.2C102.6,47.1,102.7,47.1,102.8,47z"/>
		<path class="st10" d="M99.4,47.3c-0.1-0.1-0.3-0.2-0.5-0.3c-0.2-0.1-0.4,0-0.6,0c-0.2,0.1-0.5,0.2-0.6,0.4
			c-0.2,0.2-0.4,0.3-0.6,0.5c-0.2,0.1-0.4,0.2-0.6,0.2c-0.2,0-0.3-0.1-0.4-0.2c0,0-0.1-0.1-0.1-0.2c0,0,0,0.1,0.1,0.1
			c0.1,0.1,0.2,0.2,0.4,0.2c0.2,0,0.4-0.1,0.6-0.2c0.2-0.1,0.4-0.3,0.6-0.4c0.2-0.2,0.4-0.3,0.7-0.4c0.2-0.1,0.4-0.1,0.7,0
			c0.1,0,0.3,0.1,0.4,0.2C99.4,47.3,99.4,47.3,99.4,47.3z"/>
		<path class="st10" d="M97.9,43.5c0.1,0.1,0.3,0.3,0.4,0.4l0.8,1l0.9,1c0.1,0.1,0.2,0.3,0.3,0.4c-0.1-0.1-0.3-0.2-0.4-0.4
			c-0.2-0.3-0.6-0.6-0.9-1c-0.3-0.4-0.6-0.8-0.8-1.1C98.1,43.9,98,43.7,97.9,43.5z"/>
		<path class="st10" d="M99.3,48.2c-0.1,0-0.1,0-0.2,0.1c-0.1,0-0.3,0.1-0.3,0.3c0,0.1,0,0.2,0,0.3c0.1,0.1,0.2,0.2,0.3,0.3
			c0.1,0.1,0.2,0.2,0.2,0.4c0,0.2-0.1,0.3-0.2,0.4C99,50,98.9,50,98.7,50c-0.1,0-0.3-0.1-0.4-0.2c-0.2-0.2-0.3-0.3-0.4-0.6
			c-0.1-0.1-0.1-0.3-0.2-0.4c0-0.1,0-0.2,0-0.2s0,0.1,0,0.2c0,0.1,0.1,0.3,0.2,0.4c0.1,0.2,0.3,0.4,0.4,0.5c0.2,0.2,0.5,0.2,0.7,0
			c0.1-0.1,0.2-0.2,0.2-0.3c0-0.1-0.1-0.2-0.2-0.3c-0.1-0.1-0.2-0.2-0.3-0.3c-0.1-0.1-0.1-0.2,0-0.4c0.1-0.1,0.2-0.2,0.4-0.3
			C99.2,48.2,99.3,48.2,99.3,48.2z"/>
		<path class="st10" d="M98.7,49.9c0,0,0.1,0,0.1,0.1c0,0.1,0,0.3-0.1,0.4c-0.1,0.2-0.4,0.3-0.6,0.2c-0.3,0-0.5-0.2-0.7-0.4
			c-0.2-0.2-0.3-0.5-0.3-0.7c0-0.4,0.1-0.7,0.4-1c0.1-0.1,0.1-0.1,0.1-0.1c-0.1,0.1-0.2,0.3-0.3,0.5c-0.2,0.4-0.1,0.9,0.2,1.2
			c0.2,0.2,0.4,0.3,0.6,0.4c0.2,0,0.4,0,0.5-0.2c0.1-0.1,0.1-0.2,0.1-0.4C98.7,50,98.7,49.9,98.7,49.9z"/>
		<path class="st10" d="M101.4,50.1c0,0,0.1-0.1,0.2-0.2c0.2-0.1,0.4-0.1,0.7-0.1l-0.1,0.1c-0.1-0.1-0.1-0.2-0.2-0.3
			c-0.2-0.4-0.3-0.8-0.3-1.3c0.1,0.4,0.2,0.8,0.4,1.2c0.1,0.1,0.1,0.2,0.2,0.3l0.1,0.1l-0.1,0c-0.2,0-0.4,0-0.6,0.1
			C101.4,50.1,101.4,50.1,101.4,50.1z"/>
		<path class="st10" d="M98.3,46.5c0,0,0.1,0.2,0,0.5s-0.3,0.3-0.3,0.3s0.1-0.1,0.2-0.4S98.2,46.5,98.3,46.5z"/>
		<path class="st6" d="M115.5,63.6L122,59c0,0-0.6,17.7-0.6,17.8c0,0-1.2,0.5-1,1.7l0.3,1.8c7.3,1.7,14.4,2.7,21.8,0.1l0.8-14.1
			l2.6-17.2l-5.9-2.5l-1-2.3l-6.1,6.6l-1.6-4.2l0-1.6l-1.5,1.6l-7.1,1.2l-8.9,7.2l-2.9-2.4l-4.4,6.1l5,5.1
			C112.9,64.2,114.2,64.1,115.5,63.6z"/>
		<path class="st5" d="M132.1,50.1c-0.2,0.1-0.3,0.3-0.4,0.5c-0.1,0.2-0.1,0.5-0.1,0.7c0,0.3,0,0.7-0.1,1l-0.1,0.2l-0.1-0.2
			c-0.2-0.5-0.4-1-0.5-1.5c-0.3-1.1-0.4-2.1-0.5-2.8c-0.1-0.4-0.1-0.8-0.1-1.2c0.1,0.4,0.2,0.8,0.2,1.1c0.1,0.7,0.3,1.7,0.6,2.8
			c0.1,0.5,0.3,1,0.4,1.5h-0.1c0.1-0.3,0.2-0.6,0.2-0.9c0-0.3,0.1-0.5,0.2-0.8c0.1-0.2,0.2-0.3,0.3-0.4
			C132,50.1,132.1,50.1,132.1,50.1z"/>
		<path class="st5" d="M139.7,47.4c-0.1,0.1-0.1,0.2-0.2,0.3c-0.1,0.2-0.3,0.4-0.6,0.8c-0.5,0.6-1.2,1.5-2,2.4l-1.3,1.5l-0.1,0.1
			l0-0.1c-0.2-0.7-0.3-1.3-0.4-1.8c0-0.2-0.2-0.3-0.3-0.3c-0.1,0-0.1,0-0.2,0c0,0,0-0.1,0.2-0.1c0.1,0,0.2,0,0.2,0.1
			c0.1,0.1,0.1,0.2,0.1,0.3c0.1,0.4,0.3,1,0.5,1.8l-0.1,0l1.3-1.5c0.8-0.9,1.5-1.8,2.1-2.4c0.3-0.3,0.5-0.5,0.6-0.7
			C139.6,47.6,139.7,47.5,139.7,47.4z"/>
		<path class="st5" d="M130.9,75.1c0-0.1,0-0.2,0-0.2c0-0.2,0-0.4,0-0.6c0-0.6,0-1.4,0-2.4c0-2,0.1-4.8,0.3-7.8
			c0.2-3,0.5-5.8,0.8-7.8c0.1-1,0.3-1.8,0.4-2.3l0.1-0.6c0-0.1,0-0.1,0.1-0.2c0,0.1,0,0.1,0,0.2c0,0.2,0,0.4-0.1,0.6
			c-0.1,0.6-0.2,1.4-0.3,2.3c-0.2,2-0.5,4.7-0.8,7.8c-0.2,3-0.3,5.8-0.4,7.8c0,1,0,1.8-0.1,2.4c0,0.3,0,0.5,0,0.6
			C131,74.9,131,75,130.9,75.1z"/>
		<path class="st5" d="M129.3,79.1c-0.1-0.5-0.2-1-0.2-1.5c0-0.5,0-1,0.2-1.5c0,0.5,0,1,0,1.5C129.3,78.5,129.3,79.1,129.3,79.1z"/>
		<path class="st5" d="M137.7,74.3c-0.2,0.1-0.3,0.1-0.5,0.2c-0.3,0.1-0.9,0.3-1.5,0.5c-1.6,0.5-3.3,0.9-5,1.2
			c-1.7,0.3-3.4,0.5-5.1,0.6c-0.7,0-1.2,0.1-1.6,0.1c-0.2,0-0.4,0-0.6,0c0.2,0,0.4-0.1,0.6-0.1l1.5-0.1c1.3-0.1,3.1-0.3,5.1-0.7
			c2-0.3,3.7-0.8,5-1.1l1.5-0.4C137.4,74.4,137.6,74.3,137.7,74.3z"/>
		<path class="st5" d="M122,63c0,0-0.1-2.5-0.1-5.5c0-3,0.1-5.5,0.1-5.5c0,0,0.1,2.5,0.1,5.5C122.1,60.6,122.1,63,122,63z"/>
		<g class="st11">
			<path d="M133.5,51.5c0.4,0,0.7,0.2,0.8,0.6c0.1,0.4,0,0.7,0.1,1.1c0.1,0.4,0.4,0.7,0.8,0.6c0.2-0.1,0.4-0.2,0.5-0.4
				c0.7-0.9,1.3-2,1.7-3.1c0,0-1.8,2.1-1.8,2.1c-0.1-0.5-0.2-1-0.4-1.5c-0.1-0.2-0.1-0.4-0.3-0.5c-0.3-0.1-0.6,0.3-0.8,0.5
				C133.9,51,133.7,51.2,133.5,51.5"/>
		</g>
		<g class="st11">
			<path d="M130.5,49.6c0,1.2,0.3,2.3,0.7,3.4c0,0.1,0.1,0.2,0.2,0.3c0.1,0.1,0.2,0.1,0.3,0.1c0.1-0.2,0.2-0.5,0.3-0.7
				c0.2-0.5,0.9-0.5,0.9-0.5c-0.1-0.5-0.3-1.1-0.5-1.6c-0.1-0.2-0.2-0.3-0.4-0.3c-0.2,0.1-0.4,0.3-0.5,0.5c-0.1,0.9-0.1,1.2-0.2,1.5
				C131,51.4,130.8,50.3,130.5,49.6"/>
		</g>
		<g class="st11">
			<path d="M135.7,74.8c0.3-0.2,0.4-0.7,0.2-1c0,0,0,0,0,0c-0.3-0.3-0.7-0.5-1-0.4c-0.4,0.1-0.7,0.2-1.1,0.5
				c-0.3,0.2-0.6,0.5-0.9,0.7c-0.8,0.5-1.8,0.6-2.8,0.6c-1,0-1.9,0-2.9,0.1c-0.9,0.2-1.9,0.7-2.3,1.5
				C124.8,76.9,133,76.3,135.7,74.8z"/>
		</g>
		<path class="st6" d="M146,49.1c0,0,2.5,1.8,3.1,3.4c0.6,1.6,2.8,12.6,3.2,14.5c0.5,2.4,0.5,5.3-2.9,6.4c-1.3,0.4-9-0.2-9-0.2
			l0.3-5.5l4.2,0.2c0,0-0.3-0.4,0.4-0.8l-1.3-7.2c0,0,0.5-7.6,0.6-7.8C144.4,51.9,146,49.1,146,49.1z"/>
		<path class="st5" d="M146.1,49.3c-1.5,0.6-2.6,1.8-3.2,3.3c0-0.2,0.1-0.5,0.2-0.7c0.4-1.1,1.3-2,2.3-2.4
			C145.6,49.4,145.9,49.4,146.1,49.3z"/>
		<path class="st5" d="M147.5,69c0,0-0.1-0.2-0.3-0.4c-0.2-0.3-0.5-0.6-0.9-0.8c-0.3-0.2-0.7-0.4-1.1-0.4c-0.3,0-0.5,0-0.5,0
			c0.2-0.1,0.3-0.1,0.5-0.1c0.4,0,0.8,0.2,1.2,0.4c0.4,0.2,0.7,0.5,0.9,0.9C147.4,68.6,147.5,68.8,147.5,69z"/>
		<path class="st5" d="M143,55.5c0.1,0.1,0.1,0.3,0.1,0.4c0.1,0.3,0.2,0.7,0.3,1.2c0.2,1,0.5,2.5,0.8,4c0.3,1.6,0.5,3,0.7,4
			c0.1,0.5,0.1,0.9,0.2,1.2c0,0.1,0,0.3,0.1,0.5c-0.1-0.1-0.1-0.3-0.1-0.4c-0.1-0.3-0.2-0.7-0.3-1.2c-0.2-1-0.5-2.5-0.8-4
			c-0.3-1.6-0.5-3-0.7-4c-0.1-0.5-0.1-0.9-0.2-1.2C143,55.8,143,55.7,143,55.5z"/>
		<path class="st5" d="M140.3,73.2c0-0.1,0-0.3,0-0.4c0-0.3,0-0.7,0-1.2c0-1,0.1-2.4,0.2-3.9v-0.1h0.1l0.7,0l3.5,0.2h0l0,0
			c0.5,0.4,0.9,1,1.1,1.6c0.1,0.2,0.1,0.4,0.1,0.5c0,0.1,0,0.1,0,0.2c0,0-0.1-0.3-0.2-0.7c-0.2-0.6-0.6-1.1-1.2-1.5l0,0l-3.5-0.1
			l-0.7,0l0.1-0.1c-0.1,1.5-0.1,2.9-0.2,3.9c0,0.5-0.1,0.9-0.1,1.2C140.3,72.9,140.3,73,140.3,73.2z"/>
		<path class="st7" d="M134.2,66.5l-3.2-6.6c-0.2-0.4-0.7-0.7-1.2-0.7h-8.1c-0.2,0-0.4,0.2-0.4,0.4c0,0.1,0,0.1,0,0.2l5.5,10.3
			c0.2,0.3,0.5,0.5,0.8,0.5h8.4L134.2,66.5z"/>
		<path class="st5" d="M121.3,59.8h0.2h0.5h1.7l5.7,0c0.3,0,0.5,0.1,0.8,0.2c0.2,0.1,0.4,0.3,0.5,0.6c0.2,0.5,0.4,0.9,0.6,1.3
			l1.1,2.3l0.7,1.5c0.1,0.2,0.2,0.3,0.2,0.4c0,0,0,0.1,0.1,0.1c0-0.1,0-0.1-0.1-0.2c0-0.1-0.1-0.3-0.2-0.4c-0.2-0.4-0.4-0.9-0.7-1.6
			c-0.3-0.6-0.7-1.4-1.1-2.3c-0.2-0.4-0.4-0.9-0.6-1.4c-0.1-0.3-0.3-0.5-0.6-0.6c-0.3-0.1-0.5-0.2-0.8-0.2c-2.2,0-4.2,0.1-5.7,0.1
			l-1.7,0l-0.5,0C121.4,59.8,121.4,59.8,121.3,59.8z"/>
		<path class="st3" d="M126.3,61.3c-0.1,0.1-0.2,0.2-0.2,0.3c0,0,0,0,0,0.1c0.1,0.1,0.3,0.2,0.4,0.2c0.1,0,0.2-0.1,0.2-0.2
			c0-0.2-0.1-0.3-0.2-0.4C126.5,61.2,126.4,61.2,126.3,61.3z"/>
		<path class="st9" d="M140.5,67.9l-2-0.2c0,0-0.9-1-1.3-1.4s-2.4-1.3-2.4-1.3s-1.1-1.1-1.2-1.1c-0.1,0-0.6,0.2-0.4,0.7
			c0.2,0.6,0.4,1.1,0.7,1.6l-4.1,0.6c-0.3,0-0.5,0.2-0.6,0.4c-0.1,0.2-0.1,0.3,0.1,0.4c0.7,0.2,1.5,0.3,2.2,0.4l-0.8-0.1
			c0,0-0.1,0.8,0.5,1.1c0.2,0.1,0.4,0.2,0.6,0.4c0,0.3,0.2,0.7,0.4,1c0.2,0.3,2.7,1.2,2.7,1.2s1.5,0.3,2.3,0.1l3.3,0.5L140.5,67.9z"
			/>
		<path class="st10" d="M133.4,66.3c0.4,0,0.8,0,1.2,0c0.4,0,0.8,0,1.2-0.1c-0.4-0.1-0.8-0.1-1.2-0.1
			C134.2,66.1,133.8,66.2,133.4,66.3z"/>
		<path class="st10" d="M134.2,68c-0.6-0.1-1.1-0.2-1.7-0.2c-0.5,0-0.9,0-1.2,0c-0.2,0-0.3,0-0.5,0c0.2,0.1,0.3,0.1,0.5,0.1
			c0.3,0,0.7,0,1.2,0C133.4,68,134.2,68.1,134.2,68z"/>
		<path class="st10" d="M134.4,69.4c0,0-0.6,0-1.3,0c-0.7,0-1.3-0.1-1.3-0.1c0.4,0.2,0.9,0.3,1.3,0.3
			C133.5,69.5,133.9,69.5,134.4,69.4z"/>
		<path class="st10" d="M134.3,70.9c0,0,0.1-0.2,0.1-0.4c0-0.2,0-0.4-0.1-0.4c0,0-0.1,0.2-0.1,0.4S134.3,70.9,134.3,70.9z"/>
		<path class="st10" d="M134.4,69.1c0,0,0-0.1,0.1-0.3c0.1-0.2,0.1-0.3,0.1-0.3c0,0-0.2,0.1-0.2,0.2
			C134.3,68.9,134.4,69.1,134.4,69.1z"/>
		<path class="st10" d="M134.7,67.2c0,0,0.1-0.1,0.1-0.2c0-0.1,0.1-0.2,0-0.2s-0.1,0-0.2,0.2S134.7,67.2,134.7,67.2z"/>
	</g>
</g>
</svg>
