<?xml version="1.0" encoding="utf-8"?>
<!-- Generator: Adobe Illustrator 23.0.3, SVG Export Plug-In . SVG Version: 6.00 Build 0)  -->
<svg version="1.1" id="Layer_1" xmlns="http://www.w3.org/2000/svg" xmlns:xlink="http://www.w3.org/1999/xlink" x="0px" y="0px"
	 viewBox="0 0 160 150" style="enable-background:new 0 0 160 150;" xml:space="preserve">
<style type="text/css">
	.st0{fill:#E0E0E0;}
	.st1{fill:#FAFAFA;}
	.st2{fill:#EBEBEB;}
	.st3{fill:#FFFFFF;}
	.st4{fill:#263238;}
	.st5{fill:#4F97B3;}
	.st6{fill:#FFBE9D;}
	.st7{opacity:0.3;}
	.st8{fill:#455A64;}
	.st9{fill:#EB996E;}
</style>
<g>
	<g id="freepik--background-complete--inject-109">
		<path class="st0" d="M35.1,100.3l3.9,0.8l-3.9,1.1c-0.5,0.1-0.9,0.6-1,1.1l-1,4.7l-1.1-4.6c-0.1-0.5-0.5-0.9-1.1-1.1l-3.9-0.9
			l4-1.1c0.5-0.1,0.9-0.6,1-1.1l0.9-4.5l1,4.5C34.2,99.8,34.6,100.2,35.1,100.3z"/>
		<path class="st0" d="M17,134l2.1,0.4L17,135c-0.3,0.1-0.5,0.3-0.5,0.6L16,138l-0.6-2.4c-0.1-0.3-0.3-0.5-0.6-0.5l-2.1-0.5l2.1-0.6
			c0.3-0.1,0.5-0.3,0.5-0.6l0.5-2.4l0.5,2.4C16.5,133.7,16.7,133.9,17,134z"/>
		<path class="st0" d="M46,96.4l1.2,0.3L46,97c-0.2,0-0.3,0.2-0.3,0.3l-0.3,1.4L45,97.4c0-0.2-0.2-0.3-0.3-0.3l-1.2-0.3l1.2-0.4
			c0.2,0,0.3-0.2,0.3-0.3l0.3-1.4l0.3,1.4C45.7,96.2,45.8,96.4,46,96.4z"/>
		<path class="st0" d="M51.8,120.5l1.2,0.2l-1.2,0.4c-0.2,0-0.3,0.2-0.3,0.3l-0.3,1.4l-0.3-1.4c0-0.2-0.2-0.3-0.3-0.3l-1.2-0.3
			l1.2-0.4c0.2,0,0.3-0.2,0.3-0.3l0.3-1.4l0.3,1.4C51.5,120.4,51.7,120.5,51.8,120.5z"/>
		<path class="st0" d="M22.8,128.5l1,0.2l-1,0.3c-0.1,0-0.2,0.1-0.2,0.3l-0.3,1.2l-0.3-1.2c0-0.1-0.1-0.2-0.3-0.3l-1-0.2l1-0.3
			c0.1,0,0.2-0.1,0.3-0.3l0.2-1.1l0.3,1.1C22.5,128.4,22.6,128.5,22.8,128.5z"/>
		<path class="st0" d="M88,139.6l1,0.2l-1,0.3c-0.1,0-0.2,0.1-0.2,0.3l-0.2,1.2l-0.3-1.2c0-0.1-0.1-0.2-0.3-0.3l-1-0.2l1-0.3
			c0.1,0,0.2-0.1,0.2-0.3l0.2-1.1l0.3,1.1C87.8,139.5,87.9,139.6,88,139.6z"/>
		<path class="st0" d="M61.9,71.6l1,0.2l-1,0.3c-0.1,0-0.2,0.1-0.2,0.3l-0.2,1.2l-0.3-1.2c0-0.1-0.1-0.2-0.3-0.3l-1-0.2l1-0.3
			c0.1,0,0.2-0.1,0.3-0.3l0.2-1.1l0.3,1.1C61.7,71.4,61.8,71.5,61.9,71.6z"/>
		<path class="st0" d="M152.8,103.7l1,0.2l-1,0.3c-0.1,0-0.2,0.1-0.2,0.3l-0.2,1.2l-0.3-1.2c0-0.1-0.1-0.2-0.3-0.3l-1-0.2l1-0.3
			c0.1,0,0.2-0.1,0.2-0.3l0.2-1.1l0.3,1.1C152.6,103.6,152.7,103.7,152.8,103.7z"/>
		<path class="st0" d="M136.6,75.5l1,0.2l-1,0.3c-0.1,0-0.2,0.1-0.2,0.3l-0.2,1.2l-0.3-1.2c0-0.1-0.1-0.2-0.3-0.3l-1-0.2l1-0.3
			c0.1,0,0.2-0.1,0.2-0.3l0.2-1.1l0.3,1.1C136.3,75.4,136.4,75.5,136.6,75.5z"/>
		<path class="st0" d="M102.8,21.3l1,0.2l-1,0.3c-0.1,0-0.2,0.1-0.2,0.3l-0.2,1.2l-0.3-1.2c0-0.1-0.1-0.2-0.3-0.3l-1-0.2l1-0.3
			c0.1,0,0.2-0.1,0.2-0.3l0.2-1.1l0.3,1.1C102.5,21.1,102.6,21.2,102.8,21.3z"/>
		<path class="st0" d="M61.9,124.7l2,0.4l-2,0.6c-0.3,0.1-0.4,0.3-0.5,0.5l-0.5,2.4l-0.5-2.3c-0.1-0.3-0.3-0.5-0.5-0.5l-2-0.5l2-0.6
			c0.3-0.1,0.5-0.3,0.5-0.5l0.5-2.3l0.5,2.3C61.5,124.4,61.7,124.6,61.9,124.7z"/>
		<path class="st0" d="M66.1,81.4l2,0.4l-2,0.6c-0.3,0.1-0.4,0.3-0.5,0.5l-0.5,2.4L64.6,83c-0.1-0.3-0.3-0.5-0.5-0.5l-2-0.5l2-0.6
			c0.3-0.1,0.5-0.3,0.5-0.5l0.5-2.3l0.5,2.3C65.7,81.2,65.9,81.4,66.1,81.4z"/>
		<path class="st0" d="M93.8,9.3l2,0.4l-2,0.6c-0.3,0.1-0.4,0.3-0.5,0.5l-0.5,2.4l-0.6-2.3c-0.1-0.3-0.3-0.5-0.5-0.5l-2-0.5l2-0.6
			c0.3-0.1,0.5-0.3,0.5-0.5l0.5-2.3l0.5,2.3C93.3,9,93.6,9.2,93.8,9.3z"/>
		<path class="st0" d="M150.7,58.2l3.4,0.7l-3.4,1c-0.4,0.1-0.8,0.5-0.9,0.9l-0.9,4.1l-0.9-4c-0.1-0.5-0.5-0.8-0.9-0.9l-3.4-0.8
			l3.5-1c0.4-0.1,0.8-0.5,0.9-0.9l0.8-3.9l0.9,3.9C149.8,57.8,150.2,58.1,150.7,58.2z"/>
		<rect x="15.5" y="1" class="st0" width="31.9" height="33.3"/>
		<rect x="13.4" y="1" class="st1" width="31.9" height="33.3"/>
		<path class="st0" d="M45.3,34.3h-32V1h32V34.3z M13.4,34.3h31.9V1H13.4V34.3z"/>
		<rect x="17.7" y="5.5" class="st1" width="23.3" height="24.3"/>
		<path class="st0" d="M17.7,30c-0.2,0.2-0.4,0.5-0.6,0.7c-0.4,0.4-0.9,0.9-1.5,1.5s-1.1,1.1-1.5,1.5c-0.2,0.2-0.4,0.4-0.7,0.6
			c0.2-0.2,0.4-0.5,0.6-0.7c0.4-0.4,0.9-0.9,1.5-1.5c0.6-0.6,1.1-1.1,1.5-1.5C17.2,30.3,17.4,30.1,17.7,30z"/>
		<path class="st0" d="M41,29.9c0.2,0.2,0.5,0.4,0.7,0.6c0.4,0.4,0.9,0.9,1.5,1.5c0.6,0.6,1.1,1.1,1.4,1.5c0.2,0.2,0.4,0.4,0.6,0.7
			c-0.2-0.2-0.5-0.4-0.7-0.6c-0.4-0.4-0.9-0.9-1.5-1.5c-0.6-0.6-1.1-1.1-1.5-1.5C41.4,30.4,41.2,30.2,41,29.9z"/>
		<path class="st0" d="M41,5.6c0.2-0.2,0.4-0.5,0.6-0.7C41.9,4.5,42.4,4,43,3.4s1.1-1.1,1.5-1.4c0.2-0.2,0.4-0.4,0.7-0.6
			c-0.2,0.2-0.4,0.5-0.6,0.7c-0.4,0.4-0.9,0.9-1.5,1.5S42,4.6,41.6,5C41.4,5.2,41.2,5.4,41,5.6z"/>
		<path class="st0" d="M17.6,5.6c-0.2-0.2-0.5-0.4-0.7-0.6c-0.4-0.4-0.9-0.9-1.5-1.5C14.9,3,14.4,2.4,14,2c-0.2-0.2-0.4-0.4-0.6-0.7
			c0.2,0.2,0.5,0.4,0.7,0.6c0.4,0.4,0.9,0.9,1.5,1.5c0.6,0.6,1.1,1.1,1.4,1.5C17.3,5.1,17.5,5.4,17.6,5.6z"/>
		<path class="st0" d="M41,29.8c0,0,0-0.1,0-0.1c0-0.1,0-0.2,0-0.3c0-0.3,0-0.7,0-1.3c0-1.2,0-2.8,0-5c0-4.3,0-10.3,0-17.6L41,5.6
			H17.7l0,0l0.1-0.1c0,8.9,0,17.3,0,24.3l-0.1-0.1l16.9,0l4.7,0h1.3L41,29.8L41,29.8L41,29.8l-0.4,0h-1.2l-4.7,0l-17,0.1h-0.1v-0.1
			c0-7,0-15.4,0-24.3V5.4h0.1H41h0.1v0.1c0,7.3,0,13.4,0,17.7c0,2.1,0,3.8,0,4.9c0,0.6,0,1,0,1.3c0,0.1,0,0.3,0,0.3
			C41,29.8,41,29.8,41,29.8z"/>
		<rect x="25.5" y="13.8" class="st2" width="7.8" height="7.8"/>
		<rect x="15.5" y="42.6" class="st0" width="31.9" height="33.3"/>
		<rect x="13.4" y="42.6" class="st1" width="31.9" height="33.3"/>
		<path class="st0" d="M45.3,75.9h-32V42.6h32V75.9z M13.4,75.9h31.9V42.6H13.4L13.4,75.9z"/>
		<rect x="17.6" y="47.1" class="st1" width="23.3" height="24.3"/>
		<path class="st0" d="M17.6,71.6c-0.2,0.2-0.4,0.5-0.6,0.7c-0.4,0.4-0.9,0.9-1.5,1.5c-0.6,0.6-1.1,1.1-1.5,1.4
			c-0.2,0.2-0.4,0.4-0.7,0.6c0.2-0.2,0.4-0.5,0.6-0.7c0.4-0.4,0.9-0.9,1.5-1.5s1.1-1.1,1.5-1.5C17.2,71.9,17.4,71.7,17.6,71.6z"/>
		<path class="st0" d="M41,71.5c0.2,0.2,0.5,0.4,0.7,0.6c0.4,0.4,0.9,0.9,1.5,1.5c0.6,0.6,1.1,1.1,1.4,1.5c0.2,0.2,0.4,0.4,0.6,0.7
			c-0.2-0.2-0.5-0.4-0.7-0.6c-0.4-0.4-0.9-0.9-1.5-1.5c-0.6-0.6-1.1-1.1-1.5-1.5C41.3,72,41.1,71.8,41,71.5z"/>
		<path class="st0" d="M40.9,47.1c0.2-0.2,0.4-0.5,0.6-0.7c0.4-0.4,0.9-0.9,1.5-1.5c0.6-0.6,1.1-1.1,1.5-1.5
			c0.2-0.2,0.4-0.4,0.7-0.6c-0.2,0.2-0.4,0.5-0.6,0.7c-0.4,0.4-0.9,0.9-1.5,1.5c-0.6,0.6-1.1,1.1-1.5,1.5
			C41.4,46.8,41.2,47,40.9,47.1z"/>
		<path class="st0" d="M17.6,47.2c-0.2-0.2-0.5-0.4-0.7-0.6c-0.4-0.4-0.9-0.9-1.5-1.5c-0.6-0.6-1.1-1.1-1.4-1.5
			c-0.2-0.2-0.4-0.4-0.6-0.7c0.2,0.2,0.5,0.4,0.7,0.6c0.4,0.4,0.9,0.9,1.5,1.5c0.6,0.6,1.1,1.1,1.4,1.5C17.2,46.7,17.4,47,17.6,47.2
			z"/>
		<path class="st0" d="M40.9,71.4c0,0,0-0.1,0-0.1c0-0.1,0-0.2,0-0.3c0-0.3,0-0.7,0-1.3c0-1.2,0-2.8,0-5c0-4.3,0-10.3,0-17.6
			l0.1,0.1H17.7l0,0l0.1-0.1c0,8.9,0,17.3,0,24.3l-0.1-0.1l16.9,0l4.7,0h1.3L40.9,71.4C40.9,71.4,40.9,71.4,40.9,71.4l-0.4,0h-1.2
			l-4.7,0l-16.9,0h-0.1v0c0-7,0-15.4,0-24.3V47h0.1H41H41v0.1c0,7.3,0,13.4,0,17.7c0,2.1,0,3.8,0,4.9c0,0.6,0,1,0,1.3
			c0,0.1,0,0.2,0,0.3C41,71.3,40.9,71.4,40.9,71.4z"/>
		<rect x="25.4" y="55.3" class="st2" width="7.8" height="7.8"/>
	</g>
	<g id="freepik--speech-bubble--inject-109">
		<path class="st3" d="M130.2,46c-3.8,0.2-7.6-0.9-10.8-3l-7.9,1.9l3.5-6.1c-6-8-4.4-19.3,3.6-25.3s19.3-4.4,25.3,3.6
			c6,8,4.4,19.3-3.6,25.3C137.3,44.5,133.8,45.8,130.2,46L130.2,46z"/>
		<path class="st4" d="M130.2,46c0,0,0.1,0,0.3,0l0.9-0.1c0.2,0,0.4,0,0.7-0.1l0.8-0.2c0.3-0.1,0.6-0.1,0.9-0.2l1-0.3
			c1.8-0.6,3.5-1.4,5-2.5c0.2-0.2,0.4-0.3,0.7-0.5l0.7-0.6c0.2-0.2,0.4-0.4,0.6-0.6l0.6-0.7c0.4-0.5,0.8-1,1.2-1.5l0.6-0.8
			c0.2-0.3,0.4-0.6,0.5-0.9c0.4-0.6,0.7-1.2,0.9-1.9c0.1-0.3,0.3-0.7,0.4-1l0.3-1.1c0.1-0.2,0.1-0.4,0.2-0.5
			c0.1-0.2,0.1-0.4,0.1-0.6c0.1-0.4,0.2-0.8,0.2-1.1c0.1-0.4,0.1-0.8,0.1-1.2c0-0.2,0-0.4,0.1-0.6c0-0.2,0-0.4,0-0.6v-1.2
			c0-0.4-0.1-0.8-0.1-1.2c0-0.2,0-0.4-0.1-0.6c0-0.2-0.1-0.4-0.1-0.6c-0.1-0.4-0.2-0.8-0.3-1.3c-0.5-1.7-1.2-3.4-2.1-4.9
			c-1-1.6-2.2-3-3.6-4.2c-0.4-0.3-0.7-0.6-1.1-0.9l-1.2-0.8c-0.4-0.2-0.9-0.5-1.3-0.7c-0.1-0.1-0.2-0.1-0.3-0.2l-0.3-0.1l-0.7-0.3
			c-3.8-1.6-8.1-1.7-12-0.5l-0.6,0.2l-0.3,0.1l-0.3,0.1l-1.1,0.5l-0.3,0.1l-0.3,0.1l-0.5,0.3c-0.4,0.2-0.7,0.4-1,0.6l-1,0.7
			c-0.3,0.2-0.6,0.5-0.9,0.7c-4.1,3.3-6.4,8.3-6.5,13.6v1c0,0.4,0,0.7,0.1,1c0.1,0.7,0.2,1.3,0.3,2c0.5,2.5,1.6,4.9,3.2,6.9l0,0l0,0
			l-3.5,6.1l-0.1-0.1l7.9-1.9h0h0c1.3,0.9,2.8,1.6,4.3,2.1c1.1,0.4,2.3,0.6,3.5,0.8c0.7,0.1,1.5,0.1,2.2,0.1h0.6L130.2,46l-0.2,0
			l-0.6,0c-0.7,0-1.5,0-2.2-0.1c-2.8-0.3-5.5-1.3-7.9-2.8h0l-7.9,1.9l-0.2,0l0.1-0.1c1.1-1.9,2.2-4,3.5-6.1v0.1
			c-1.6-2.1-2.7-4.4-3.2-7c-0.2-0.7-0.3-1.3-0.3-2c0-0.3-0.1-0.7-0.1-1c0-0.3,0-0.7,0-1.1c0-4.5,1.7-8.8,4.8-12.1
			c0.5-0.6,1.1-1.1,1.7-1.6c0.3-0.2,0.6-0.5,0.9-0.7l1-0.7c0.3-0.2,0.7-0.4,1-0.6l0.5-0.3l0.3-0.1l0.3-0.1l1.1-0.5l0.3-0.1l0.3-0.1
			l0.6-0.2c2-0.6,4.1-0.9,6.2-0.8c2,0.1,4,0.6,5.9,1.3l0.7,0.3l0.3,0.1c0.1,0.1,0.2,0.1,0.3,0.2c0.4,0.2,0.9,0.5,1.3,0.7l1.2,0.8
			c0.4,0.3,0.8,0.6,1.1,0.9c1.4,1.2,2.7,2.7,3.7,4.3c0.9,1.5,1.6,3.2,2.1,4.9l0.3,1.3c0,0.2,0.1,0.4,0.1,0.6s0,0.4,0.1,0.6
			c0,0.4,0.1,0.8,0.1,1.3c0,0.4,0,0.8,0,1.2c0,0.2,0,0.4,0,0.6l-0.1,0.6c0,0.4-0.1,0.8-0.1,1.2s-0.2,0.8-0.2,1.1
			c0,0.2-0.1,0.4-0.1,0.6c-0.1,0.2-0.1,0.4-0.2,0.5c-0.1,0.4-0.2,0.7-0.3,1.1l-0.4,1c-0.3,0.7-0.6,1.3-1,1.9
			c-0.2,0.3-0.4,0.6-0.6,0.9c-0.2,0.3-0.4,0.6-0.6,0.8c-0.4,0.5-0.8,1-1.2,1.5l-0.7,0.7c-0.2,0.2-0.4,0.4-0.7,0.6l-0.7,0.6
			c-0.2,0.2-0.4,0.4-0.7,0.5c-1.5,1.1-3.2,2-5,2.5l-1,0.3c-0.3,0.1-0.7,0.1-0.9,0.2l-0.8,0.2c-0.2,0-0.5,0-0.7,0.1l-0.9,0.1
			C130.3,45.9,130.2,46,130.2,46z"/>
		<path class="st5" d="M130.8,19.4c0.2-0.7,0.2-1.5,0.6-2.2c0.6-0.8,1.7-1.1,2.6-0.5c0.4,0.3,0.7,0.8,0.8,1.3
			c0.1,0.9-0.4,1.7-0.2,2.6c0.2,0.8,0.7,1.4,1.4,1.7c0.5,0.3,1,0.5,1.5,0.6c0,0,0.1,0,0.1,0l0,0c1.3,0.2,2.2,1.5,2,2.8
			c-0.1,0.9-0.8,1.7-1.7,2c-0.9,0.3-2.1,0.2-2.4,1c-0.3,0.7,0.4,1.5,1,2c0.6,0.5,1.2,1.3,0.8,2c-0.3,0.5-1,0.6-1.6,0.5
			c-0.6-0.1-1.2-0.3-1.8,0c-0.8,0.3-1.1,1.2-1.1,2c-0.1,0.8,0.1,1.6-0.2,2.4c-0.3,0.8-1.2,1.4-1.9,1c-1.2-0.6-0.4-2.9-1.6-3.6
			c-0.6-0.3-1.4,0-1.9,0.5c-0.5,0.5-0.9,1.1-1.4,1.4c-1,0.6-2.3,0.3-2.9-0.7c-0.3-0.5-0.4-1-0.3-1.5c0.1-0.7,0.6-1.3,1-1.9
			c0.3-0.6,0.5-1.5,0-2c-0.7-0.8-2-0.2-3-0.3c-1.3-0.2-2.1-1.6-1.8-2.9c0.3-1.3,1.4-2.2,2.7-2.4c0.7-0.1,1.4-0.1,2.1-0.2
			c0.7-0.2,1.4-0.6,1.5-1.3c0.2-0.9-0.7-1.7-0.9-2.6c-0.2-1,0.4-2.1,1.4-2.3c0.6-0.1,1.2,0,1.6,0.4c0.7,0.6,1.1,1.7,2.1,1.7
			C130.1,20.9,130.6,20.1,130.8,19.4z"/>
		<path class="st3" d="M121,29.5c0,0-0.2,0-0.5-0.2c-0.8-0.4-1.1-1.4-0.7-2.3c0.1-0.3,0.3-0.4,0.3-0.4c0,0-0.1,0.2-0.2,0.5
			c-0.3,0.8,0,1.7,0.7,2.1C120.9,29.4,121,29.4,121,29.5z"/>
		<path class="st3" d="M124.1,36.5c0,0-0.1-0.1-0.2-0.3c-0.3-0.6-0.3-1.3,0.1-1.9c0.1-0.2,0.3-0.3,0.3-0.3c-0.2,0.4-0.3,0.8-0.4,1.2
			C123.9,35.7,124,36.1,124.1,36.5z"/>
		<path class="st3" d="M124.6,31.7c-0.1,0-0.1-0.3-0.1-0.6c-0.1-0.3-0.2-0.6-0.2-0.6c0,0,0.3,0.2,0.3,0.6
			C124.7,31.4,124.6,31.7,124.6,31.7z"/>
		<path class="st3" d="M131,37.6c-0.1,0-0.2-0.2-0.2-0.6s-0.1-0.6-0.1-0.6c0,0,0.2,0.2,0.2,0.6C131,37.4,131.1,37.6,131,37.6z"/>
		<path class="st3" d="M125.6,22.4c0,0-0.1-0.1-0.3-0.3c-0.4-0.6-0.4-1.4-0.2-2.1c0.1-0.3,0.2-0.4,0.2-0.4c-0.1,0.5-0.2,0.9-0.2,1.4
			C125.2,21.6,125.4,22,125.6,22.4z"/>
		
			<rect x="128.9" y="9.5" transform="matrix(0.6252 -0.7804 0.7804 0.6252 26.9714 111.2179)" class="st4" width="0.7" height="36"/>
	</g>
	<g id="freepik--Character--inject-109">
		<polygon class="st6" points="67.4,113.2 62.1,122.5 69.4,129.8 77.1,121.5 		"/>
		<path class="st0" d="M22.3,142.3l9.9-0.2c0,0,5.2-3.1,5.6-3.4c0.4-0.2,2.8-0.7,2.8-0.7l15.7,4.9v1.4H19.5v-1.1l1.7-0.2L22.3,142.3
			z"/>
		<path class="st5" d="M62.7,121.2c-0.3,0-8.6,12.9-8.6,12.9l-9.9,1.8l-11,6.1c0,0-0.2,1.2,1,1.3c1.2,0.1,7.9-2.9,7.9-2.9
			s-2.3,1.1-1.9,2.6c0.5,1.7,4.8,0.4,4.8,0.4l9.2-0.6c0.9-0.1,1.7-0.5,2.2-1.1l1.2-1.5l12.9-10.3C70.6,129.9,69.4,122.1,62.7,121.2z
			"/>
		<path class="st4" d="M48,138.6c-0.1,0.1-0.1,0.2-0.2,0.2c-0.2,0.2-0.4,0.4-0.7,0.5c-0.4,0.2-0.7,0.5-1.2,0.6
			c-0.5,0.2-1,0.3-1.6,0.3c-0.5,0-1,0.1-1.6,0.1c-0.4,0.1-0.8,0.3-1.2,0.5c-0.6,0.4-1,0.7-1,0.6c0,0,0.1-0.1,0.2-0.2
			c0.2-0.2,0.5-0.4,0.7-0.5c0.4-0.2,0.8-0.4,1.2-0.5c0.5-0.1,1.1-0.1,1.6-0.1c0.9,0,1.9-0.3,2.7-0.9C47.6,138.9,47.9,138.6,48,138.6
			z"/>
		<path class="st4" d="M55.4,137.1c-0.1,0-0.2-0.7-0.6-1.5c-0.3-0.5-0.5-1-0.7-1.5c0.4,0.4,0.7,0.9,0.9,1.4
			C55.3,136,55.4,136.5,55.4,137.1z"/>
		<path class="st4" d="M57.9,137.9c-0.2-0.1-0.4-0.2-0.6-0.4c-0.9-0.8-1.6-1.7-2.1-2.8c-0.1-0.2-0.2-0.4-0.2-0.7
			c0.4,0.7,0.8,1.4,1.3,2.1C56.8,136.7,57.3,137.3,57.9,137.9z"/>
		<path class="st4" d="M61,135.2c0-0.1,0-0.2-0.1-0.3c0-0.2,0-0.5,0-0.9c0-1,0.1-2,0.2-2.9c0.1-1,0.4-1.9,0.7-2.9
			c0.1-0.4,0.2-0.6,0.3-0.8c0-0.1,0.1-0.2,0.1-0.3c-0.1,0.4-0.2,0.8-0.3,1.2c-0.5,1.9-0.8,3.8-0.9,5.7C61,134.4,61,134.8,61,135.2z"
			/>
		<g class="st7">
			<path d="M61.8,128.3c-0.7,2-1,4.1-0.8,6.2C61.7,132.5,62,130.4,61.8,128.3z"/>
		</g>
		<path class="st4" d="M103.9,149l1-8.3l39.4-21.9c0,0,5.8,9.3,8,30.2l-27.7-0.1l0,0L103.9,149z"/>
		<path class="st8" d="M83,68l-5,5.6l-0.8,11.1l9.7,19.8l11.1,23.3c0.9,2,1.8,6.6,1.2,9.2c0,0-1.8,6.4,7.4,6.8
			c5,0.2,10.7-1.1,14.9-2.3l0.1,0c7.2-2.1,13.2-7,16.8-13.5l6.4-8.9c-1.4-5.5-3.6-4-4.5-6.1c-4.2-10-7.6-17.3-7.6-17.3L119,64
			c-2.1-4.7-4.7-6.4-7.7-7.1c-2.2-0.5-4.6-0.5-6.8,0l-6.8,1.6L83,68z"/>
		<path class="st8" d="M77.7,125.5c2.8-3.2,7.4-25.6,7.4-25.6L78,73.6c0,0-3.3,3.7-4.3,7.3l-5.9,31.4c0,0-2.2,0.5-2.1,3.8
			C65.6,118.3,77.7,125.5,77.7,125.5z"/>
		<path class="st4" d="M90.3,111.8c-0.1-0.1-0.1-0.1-0.1-0.2l-0.4-0.7l-1.3-2.4c-1.1-2.1-2.5-4.9-4.1-8.1l-4-8.1l-1.2-2.5
			c-0.1-0.3-0.2-0.5-0.3-0.7c0-0.1-0.1-0.2-0.1-0.2c0.1,0.1,0.1,0.1,0.1,0.2l0.4,0.7l1.3,2.4c1.1,2.1,2.5,4.9,4.1,8.1l4,8.1l1.2,2.5
			c0.1,0.3,0.2,0.5,0.3,0.7C90.3,111.6,90.3,111.7,90.3,111.8z"/>
		<path class="st4" d="M140.2,115.2c0,0.1,0,0.2-0.1,0.3l-0.3,0.9l-0.2,0.6c-0.1,0.2-0.2,0.5-0.3,0.7c-0.2,0.5-0.4,1.1-0.7,1.8
			c-0.1,0.3-0.3,0.7-0.5,1c-0.2,0.4-0.4,0.7-0.5,1.1c-0.4,0.7-0.8,1.5-1.3,2.3c-2.1,3.5-4.7,6.6-7.7,9.2c-0.7,0.6-1.4,1.2-2,1.7
			c-0.3,0.2-0.6,0.5-1,0.7s-0.6,0.4-0.9,0.6c-0.6,0.4-1.1,0.7-1.6,1c-0.2,0.1-0.5,0.3-0.7,0.4l-0.6,0.3l-0.8,0.4
			c-0.1,0.1-0.2,0.1-0.3,0.1c0.1-0.1,0.2-0.1,0.3-0.2l0.8-0.5l0.6-0.3c0.2-0.1,0.4-0.3,0.7-0.4c0.5-0.3,1-0.6,1.6-1l0.9-0.6
			c0.3-0.2,0.6-0.5,0.9-0.7c0.7-0.5,1.3-1.1,2-1.7c3-2.7,5.6-5.8,7.7-9.2c0.5-0.8,0.9-1.5,1.3-2.3c0.2-0.4,0.4-0.7,0.5-1.1l0.5-1
			c0.3-0.6,0.5-1.2,0.7-1.7c0.1-0.3,0.2-0.5,0.3-0.7l0.2-0.6l0.3-0.8C140.1,115.4,140.1,115.3,140.2,115.2z"/>
		<g class="st7">
			<path d="M114.7,114c2.9-0.1,7.1-0.5,9.9-1.4c2.8-0.8,5.5-2.2,7.6-4.4c2-2.1,3.3-5.1,3.2-8c-1.7,3.6-4.9,6.9-8.6,8.8
				c-1.2,0.6-3.5,1.7-3.7,1.4l0,0L114.7,114"/>
		</g>
		<path class="st6" d="M101.9,109.4c0.5-0.6,13.1-10,13.1-10l10.3,10.9l-17.4,7.3L101.9,109.4z"/>
		<path class="st8" d="M122.8,111.6c2.3-0.9,4.6-1.9,6.1-3.1c7.2-5.6,7.7-10.6,6.8-14.3c-1-4-17.4-32.5-19.3-34.3
			c-1.8-1.8-7.5-4.8-13.3,1.8c-3.3,3.8,3.3,14.5,3.3,14.5l11.7,20.5c-3.3-0.6-4.8,2.8-4.8,2.8L122.8,111.6z"/>
		<path class="st4" d="M113.6,100.4c0,0,0-0.1,0-0.1c-0.1-0.6,0-1.2,0.2-1.7c0.3-0.7,0.9-1.2,1.6-1.5c0.9-0.4,1.9-0.5,2.8-0.4
			l-0.1,0.1c-1.2-2.1-2.6-4.6-4.2-7.3l-5.3-9.4l-1.6-2.9c-0.2-0.3-0.3-0.6-0.4-0.8c-0.1-0.1-0.1-0.2-0.1-0.3
			c0.1,0.1,0.1,0.2,0.2,0.3c0.1,0.2,0.3,0.4,0.5,0.8l1.6,2.8c1.4,2.4,3.3,5.7,5.4,9.4l4.1,7.3l0.1,0.1h-0.1
			c-0.9-0.1-1.9,0.1-2.7,0.4c-0.7,0.2-1.2,0.7-1.5,1.4c-0.2,0.4-0.3,0.9-0.3,1.3C113.6,100.3,113.6,100.4,113.6,100.4z"/>
		<path class="st4" d="M135.2,92.9c0,0.1,0.1,0.2,0.1,0.2c0.1,0.2,0.2,0.4,0.3,0.7c0.3,0.9,0.5,1.8,0.5,2.7c0,0.6,0,1.3-0.1,1.9
			c-0.1,0.7-0.3,1.4-0.5,2.1c-0.3,0.7-0.6,1.5-1,2.2c-0.4,0.7-0.9,1.4-1.4,2.1c-1.9,2.3-4.3,4.2-7,5.6c-0.8,0.4-1.6,0.8-2.5,1.1
			c-0.3,0.1-0.5,0.2-0.7,0.2c-0.1,0-0.2,0.1-0.3,0.1c0.1,0,0.2-0.1,0.2-0.1c0.2-0.1,0.4-0.1,0.7-0.3c0.8-0.3,1.7-0.7,2.5-1.1
			c2.6-1.4,5-3.3,6.9-5.6c0.5-0.7,1-1.4,1.4-2.1c0.4-0.7,0.7-1.4,1-2.1c0.2-0.7,0.4-1.4,0.5-2.1c0.1-0.6,0.1-1.2,0.1-1.9
			c0-0.9-0.2-1.8-0.4-2.7c-0.1-0.3-0.2-0.5-0.2-0.7C135.2,93,135.2,93,135.2,92.9z"/>
		<g class="st7">
			<path d="M118.1,96.7c2.6,0.3,5,1.7,6.6,3.9c0.2,0.2,0.3,0.5,0.4,0.8c0.1,0.3-0.1,0.6-0.3,0.8c-0.3,0.1-0.6,0.1-0.8,0
				c-0.2-0.2-0.5-0.4-0.6-0.6C121.7,99.7,120.3,98.1,118.1,96.7"/>
		</g>
		<path class="st4" d="M124.5,103.8c0,0-0.3-0.5-0.7-1.2c-0.6-1-1.2-1.9-2-2.8c-0.7-0.9-1.6-1.6-2.5-2.3c-0.7-0.5-1.2-0.8-1.1-0.8
			c0.1,0,0.2,0.1,0.3,0.2c0.2,0.1,0.5,0.3,0.9,0.5c0.9,0.6,1.8,1.4,2.6,2.3c0.7,0.9,1.4,1.8,1.9,2.8c0.2,0.4,0.4,0.7,0.5,0.9
			C124.4,103.6,124.4,103.7,124.5,103.8z"/>
		<path class="st4" d="M111.4,56.9c-1,0-1.9,0.2-2.9,0.5c-1,0.3-1.9,0.8-2.8,1.5c-2.1,1.6-3.3,4-3.4,6.6c-0.1,1,0.1,2.1,0.4,3.1
			c0.3,0.9,0.7,1.8,1.2,2.6c0,0-0.1-0.1-0.1-0.2c-0.1-0.2-0.2-0.3-0.3-0.5c-0.4-0.6-0.7-1.3-0.9-1.9c-0.3-1-0.5-2.1-0.4-3.1
			c0.1-2.7,1.4-5.1,3.5-6.7c0.9-0.6,1.8-1.1,2.8-1.4c0.7-0.2,1.4-0.3,2.1-0.4c0.3,0,0.4,0,0.6,0C111.3,56.9,111.4,56.9,111.4,56.9z"
			/>
		<path class="st0" d="M81.4,118.7l-0.4-0.9l-1-0.5c0,0-4.3,0.7-5.4,2.5c-1.1,1.8-5.2,8.2-5.1,9.5c0.2,1.3,1.3,2,2,1.7
			c0.7-0.3,2.1-2.1,2.1-2.1l0.6-0.1l6.9,1.6l0.8-1.4l-6.4-2.4l3.5-0.3l3-3.2L81.4,118.7z"/>
		<path class="st0" d="M87.9,129.6c-0.4,1.2-0.2,2.5,0.6,3.6c1.1,1.5,2.8,3.8,4.4,5.9c1.2,1.6,9.5,5.9,14,8.1
			c1.7,0.9,3.9,0.3,4.9-1.3c1.6-2.4,2.9-5.1,3.8-7.8c0.6-1.8-0.3-3.8-2-4.7l-19.3-9.1c-1.9-0.9-4.2-0.1-5.1,1.8
			c-0.1,0.1-0.1,0.3-0.2,0.4L87.9,129.6z"/>
		<path class="st4" d="M87.9,129.6c0,0,0-0.1,0.1-0.2l0.2-0.6c0.2-0.5,0.4-1.2,0.7-2.2c0.2-0.5,0.4-1,0.8-1.5c0.4-0.5,1-0.9,1.6-1.1
			c0.7-0.3,1.5-0.3,2.2-0.2c0.4,0.1,0.8,0.3,1.2,0.4l1.2,0.5l11.3,5.3l6.7,3.1c1.2,0.6,2,1.8,2.1,3.2c0,0.7-0.1,1.4-0.3,2
			c-0.2,0.6-0.5,1.3-0.7,1.9c-0.5,1.2-1.1,2.4-1.8,3.6c-0.3,0.6-0.7,1.1-1,1.7c-0.2,0.3-0.4,0.5-0.6,0.8c-1.1,1.2-2.9,1.6-4.4,0.9
			c-1.1-0.5-2.2-1.1-3.2-1.6c-2.1-1.1-4.1-2.1-5.9-3.1c-0.9-0.5-1.8-1-2.6-1.5c-0.8-0.5-1.6-1-2.3-1.6c-0.3-0.3-0.6-0.7-0.8-1
			c-0.2-0.3-0.5-0.7-0.7-1c-0.5-0.6-0.9-1.2-1.3-1.8c-0.4-0.6-0.8-1.1-1.2-1.6c-0.3-0.4-0.7-0.9-0.9-1.4c-0.3-0.7-0.5-1.5-0.4-2.2
			C87.7,130.1,87.8,129.8,87.9,129.6c0,0,0,0.1,0,0.2c0,0.2-0.1,0.4-0.1,0.6c-0.1,0.8,0.1,1.5,0.4,2.2c0.3,0.5,0.6,0.9,0.9,1.3
			l1.2,1.6l1.3,1.8l0.7,1c0.2,0.4,0.5,0.7,0.8,1c0.7,0.6,1.4,1.1,2.2,1.6c0.8,0.5,1.7,1,2.6,1.5c1.8,1,3.8,2.1,5.9,3.1
			c1,0.5,2.1,1.1,3.2,1.6c1.1,0.5,2.5,0.4,3.5-0.3c0.3-0.2,0.5-0.4,0.7-0.6c0.2-0.2,0.4-0.5,0.6-0.8c0.4-0.5,0.7-1.1,1-1.7
			c0.7-1.2,1.2-2.4,1.8-3.6c0.3-0.6,0.5-1.2,0.7-1.9c0.3-0.6,0.4-1.3,0.3-1.9c-0.1-1.3-0.9-2.4-2-3l-6.6-3.1L95.7,125l-1.2-0.6
			c-0.4-0.2-0.7-0.3-1.1-0.4c-0.7-0.2-1.5-0.1-2.2,0.2c-0.6,0.2-1.1,0.6-1.6,1.1c-0.3,0.4-0.6,0.9-0.8,1.4c-0.3,0.9-0.6,1.7-0.8,2.2
			c-0.1,0.2-0.2,0.4-0.2,0.6C87.9,129.5,87.9,129.6,87.9,129.6z"/>
		<path class="st5" d="M80.3,121.9c0,0,0.4-3.2,1.5-3.5c1.1-0.3,7.9-2.3,7.9-2.3l18.5-12.7l7.2,13.9l-17,6.9c0,0-0.7,0.9-1.4,0.5
			c0,0-1.1,1.4-1.7,1.4c-0.6,0.1-0.4,0.4-0.4,0.4s-5,8.3-6.2,8.5s-2.7-0.1-2.7-1c0,0-2.2,0.8-3,0c0,0-1.7,1.3-2.9-0.1
			c-0.3-0.5-0.6-1-0.8-1.6c0,0-1.5,1.9-2.9,1.2c-1.3-0.6-1-2.6-0.3-3.8C77,128.3,80.3,121.9,80.3,121.9z"/>
		<path class="st4" d="M73.3,129.4c0,0-0.1-0.2-0.4-0.5c-0.6-0.7-1.4-1.2-2.3-1.3c-0.2,0-0.4,0-0.6-0.1c0.2-0.1,0.4-0.1,0.6-0.1
			c1,0,1.9,0.5,2.4,1.4C73.1,129,73.2,129.2,73.3,129.4z"/>
		<path class="st4" d="M79.1,124.1c-0.3,0.3-0.6,0.5-0.9,0.7c-0.6,0.4-1.4,1-2.2,1.7c-0.7,0.6-1.4,1.3-2,2c-0.5,0.5-0.7,0.9-0.7,0.9
			c0-0.1,0.1-0.2,0.1-0.3c0.1-0.2,0.3-0.5,0.5-0.7c0.6-0.7,1.2-1.4,1.9-2c0.7-0.6,1.5-1.2,2.2-1.7C78.4,124.5,78.7,124.3,79.1,124.1
			z"/>
		<polygon class="st3" points="95.1,138.7 100.5,128.5 110.1,132.9 103.8,144 		"/>
		<path class="st4" d="M88.7,129.8c-0.1,0.2-0.2,0.5-0.3,0.7c-0.3,0.5-0.6,1-0.9,1.5c-0.3,0.5-0.7,1-1.1,1.4
			c-0.1,0.2-0.3,0.4-0.5,0.5c0,0,0.7-0.9,1.4-2C88.2,130.8,88.7,129.8,88.7,129.8z"/>
		<path class="st4" d="M85.2,130c-0.2,0.7-0.4,1.4-0.8,2.1c-0.3,0.7-0.8,1.3-1.3,1.8c0,0,0.5-0.8,1.1-1.9
			C84.8,130.9,85.1,130,85.2,130z"/>
		<path class="st4" d="M81.2,129.3c-0.2,0.5-0.4,1.1-0.7,1.6c-0.2,0.5-0.6,1-1,1.4c0,0,0.4-0.6,0.9-1.4
			C80.8,129.9,81.2,129.2,81.2,129.3z"/>
		<path class="st4" d="M94.6,124c0,0.1-2-0.4-4.4-1.1c-2.4-0.6-4.3-1.2-4.3-1.3c0,0,2,0.4,4.4,1.1C92.7,123.4,94.6,124,94.6,124z"/>
		<path class="st4" d="M93.8,122.3c-0.2,0-0.5-0.1-0.7-0.2c-0.5-0.2-1.1-0.4-1.6-0.6c-0.5-0.2-1-0.5-1.5-0.8
			c-0.2-0.1-0.4-0.3-0.6-0.4c0,0,1,0.5,2.2,1.1C92.8,121.9,93.8,122.2,93.8,122.3z"/>
		<g class="st7">
			<path d="M97,123.6c-0.1-0.2-0.1-0.3-0.2-0.5c-0.9-1.7-2.1-3.3-3.6-4.5c-0.1-0.1-0.3-0.2-0.5-0.1c-0.1,0.1-0.2,0.2-0.1,0.4
				c0,0.1,0.1,0.2,0.2,0.3c1.3,1.6,2.4,3.1,3.8,4.7C96.8,124,97.1,123.7,97,123.6z"/>
		</g>
		<path class="st4" d="M65.1,137.2c0.2-0.3,0.4-0.6,0.6-0.8c0.4-0.5,0.9-1.1,1.5-1.9c0.6-0.7,1.2-1.4,1.6-1.8
			c0.2-0.3,0.4-0.5,0.7-0.7c-0.2,0.3-0.4,0.6-0.6,0.8c-0.4,0.5-0.9,1.1-1.5,1.9c-0.6,0.7-1.2,1.4-1.6,1.8
			C65.6,136.7,65.4,136.9,65.1,137.2z"/>
		<path class="st4" d="M66.6,142.3c0,0,0.7-2.2,1.8-4.8c1-2.6,1.9-4.8,1.9-4.7c0,0-0.7,2.2-1.8,4.8S66.6,142.3,66.6,142.3z"/>
		<path class="st4" d="M71.2,139.5c-0.1-1.1-0.1-2.3-0.1-3.4c0-1.1,0-2.3,0.1-3.4c0.1,1.1,0.1,2.3,0.1,3.4
			C71.3,137.2,71.3,138.3,71.2,139.5z"/>
		<path class="st4" d="M59.6,45.9c0-1.8,0.6-2.5,0.2-2.8c-1.5-1.2-2.9-4.5-3-5.9c-0.3-3.4,2.6-6.3,2.6-6.3c0.5-1.8,1.3-4.2,3.4-5.9
			c2.3-1.8,6-3.9,8.9-3.6c2.9,0.4,5,0.6,6.9,2.8l-4.1,36.1c-2.3-0.1-4.3-1.5-5.8-3.2c-1.5-1.7-2.7-3.6-4.3-5.2
			c-1.2-1.2-1.4-0.7-3.5-3.4C59.5,46.9,59.6,47.6,59.6,45.9z"/>
		<path class="st6" d="M88.4,34.9c-2.5-7.3-8.9-11.9-16.2-9.2l-0.7,0.3c-6.6,3-9.8,10.5-7.4,17.3c2.2,6.3,4.8,13.3,6.3,16.5
			c3.1,6.7,10.4,4.7,10.4,4.7l3.1,5.8l0,0c6.6,1.3,13.2-2.4,15.4-8.8l0,0L88.4,34.9z"/>
		<path class="st4" d="M69.1,48.4c0.2,0.5,0.8,0.8,1.4,0.6c0.5-0.2,0.8-0.8,0.6-1.3c0,0,0,0,0,0c-0.2-0.5-0.8-0.8-1.4-0.6
			C69.2,47.3,68.9,47.9,69.1,48.4C69.1,48.4,69.1,48.4,69.1,48.4z"/>
		<path class="st4" d="M67,46c0.2,0.1,0.7-0.8,1.7-1.3c1-0.5,2-0.3,2.1-0.5c0-0.1-0.2-0.3-0.6-0.4c-0.6-0.1-1.2,0-1.7,0.2
			c-0.5,0.2-1,0.7-1.3,1.2C66.9,45.7,66.9,46,67,46z"/>
		<path class="st4" d="M78.6,44.4c0.2,0.5,0.8,0.8,1.4,0.6c0.5-0.2,0.8-0.8,0.6-1.3c0,0,0,0,0,0c-0.2-0.5-0.8-0.8-1.4-0.6
			C78.7,43.3,78.4,43.9,78.6,44.4C78.6,44.4,78.6,44.4,78.6,44.4z"/>
		<path class="st4" d="M76.7,41.5c0.2,0.1,0.7-0.8,1.7-1.2s2-0.2,2.1-0.4c0-0.1-0.2-0.3-0.6-0.4c-0.6-0.1-1.2-0.1-1.8,0.2
			c-0.8,0.4-1.4,0.9-1.3,1.1C76.6,41.2,76.6,41.5,76.7,41.5z"/>
		<path class="st4" d="M77.2,51c0-0.1-0.7,0.1-1.8,0.5c-0.3,0.1-0.6,0.2-0.7,0c-0.1-0.3-0.2-0.6-0.2-0.9c0-0.8-0.1-1.5-0.1-2.4
			c-0.2-3.4-0.5-6.1-0.6-6.1s-0.1,2.8,0.1,6.1c0.1,0.8,0.1,1.6,0.2,2.4c0,0.4,0.1,0.8,0.3,1.1c0.2,0.2,0.4,0.2,0.6,0.2
			c0.2,0,0.3-0.1,0.5-0.1C76.6,51.3,77.2,51.1,77.2,51z"/>
		<path class="st4" d="M75.6,40.5c0.3,0.1,0.9-0.9,1.9-1.8c1-0.9,1.9-1.5,1.8-1.8c-0.1-0.1-0.4-0.2-0.9,0c-0.7,0.2-1.3,0.6-1.7,1.1
			c-0.5,0.5-0.9,1.1-1.1,1.7C75.4,40.1,75.4,40.4,75.6,40.5z"/>
		<path class="st4" d="M66.3,43.2c0.2,0.2,1.1-0.1,2.2-0.2s2,0.1,2.2-0.2c0.1-0.1-0.1-0.4-0.5-0.6c-0.6-0.3-1.2-0.4-1.8-0.3
			c-0.6,0-1.2,0.3-1.7,0.6C66.3,42.8,66.1,43.1,66.3,43.2z"/>
		<path class="st4" d="M78.4,24.3c-0.2-0.1-0.5-0.2-0.7-0.3l0,0l0,0c-2-0.7-4.3-1.1-6,0c-1,0.7-1.6,1.8-2.6,2.5c-1.3,1-3,1.2-4.4,2
			c-1.7,1-2.9,2.7-3.1,4.7c-0.1,1.5,0.3,3.1-0.5,4.5c-0.3,0.6-1.4,1.1-1.8,1.6c0,0-0.7,4.9,3.1,4.7l0.5-0.4l3.7-4.9
			c1.2-0.4,2.5-0.7,3-1.9c0.4-0.7,0.3-1.6,0.3-2.5l2-2.3c0.6-0.2,1.3-0.2,1.9-0.4c3-0.7,4.9-3.7,4.2-6.7c0-0.1,0-0.1-0.1-0.2
			L78.4,24.3z"/>
		<path class="st4" d="M72.3,29.9c0.8-0.7,2.5-2.1,2.7-3.2c0.3-2.3,1.8-4.3,3.8-5.1c2.2-0.7,4.6,0,5.9,1.9c2.4-1,5.4-0.5,7.5,1.3
			c2.2,1.9,3.3,4.7,3,7.5c-0.1,0.7-0.3,1.5,0,2.2c0.4,0.8,1.3,1.2,2,1.8c2,1.4,3,4,3,6.5c0,2.5-0.4,3.5-1.5,4.4
			c-2.2,1.9,2.6,6.4-1.7,8.2l-7.8-15.1l0,0c-0.3,0.6-0.9,0.9-1.6,0.9c-4.3-0.3-4.1-4.8-3.2-5.7c-1.3-0.4-2.5-0.9-3.7-1.6
			c-1.1-0.7-3.1-2.1-3.5-3.5C76.2,31,71.9,30.2,72.3,29.9z"/>
		<path class="st6" d="M89.1,40.3c0.1-0.1,4-3.5,6,1.2s-3.2,5.7-3.2,5.5C91.8,47,89.1,40.3,89.1,40.3z"/>
		<path class="st9" d="M92.5,44.7c0,0,0.1,0,0.3,0c0.2,0,0.4-0.1,0.6-0.2c0.4-0.4,0.5-1.3,0.2-2.2c-0.2-0.4-0.4-0.8-0.7-1.1
			c-0.2-0.3-0.5-0.4-0.9-0.4c-0.2,0-0.4,0.2-0.4,0.4c0,0.2,0.1,0.2,0,0.3c0,0-0.1,0-0.2-0.2c0-0.1,0-0.3,0.1-0.4
			c0.1-0.2,0.2-0.3,0.4-0.3c0.4-0.1,0.9,0,1.2,0.4c0.4,0.3,0.7,0.7,0.8,1.2c0.4,1,0.2,2-0.4,2.5c-0.2,0.2-0.5,0.2-0.8,0.2
			C92.6,44.9,92.5,44.8,92.5,44.7z"/>
		<path class="st4" d="M76.7,55.2c0,0.1,0.9-0.2,1.9-0.6s1.7-0.9,1.7-1s-0.9,0.2-1.9,0.7S76.7,55.1,76.7,55.2z"/>
		<path class="st9" d="M80.9,64.6c0,0,5.8-3.6,8.2-7.9c0,0,0.8,6.6-7.1,10.1L80.9,64.6z"/>
		<path class="st9" d="M75.2,41.1c0,0-0.1,0.1-0.3,0.1c-0.3,0-0.5-0.1-0.8-0.2c-0.2-0.2-0.3-0.4-0.3-0.7c0-0.2,0.1-0.3,0.1-0.3
			c0,0,0,0.1,0,0.3c0.1,0.5,0.5,0.8,1,0.8C75.1,41.1,75.2,41.1,75.2,41.1z"/>
		<path class="st9" d="M72.4,42.7c0,0,0.1-0.1,0.1-0.3c0.1-0.2,0.1-0.5,0.1-0.7c0-0.2-0.1-0.5-0.3-0.7c-0.1-0.2-0.2-0.2-0.2-0.3
			c0,0,0.1,0,0.3,0.2c0.4,0.4,0.5,1,0.2,1.5C72.5,42.7,72.4,42.7,72.4,42.7z"/>
		<path class="st3" d="M92,86.4l2,0.4l-2,0.6c-0.3,0.1-0.4,0.3-0.5,0.5L91,90.3L90.5,88c-0.1-0.3-0.3-0.5-0.5-0.5L88,87l2-0.6
			c0.2-0.1,0.4-0.3,0.5-0.6l0.5-2.3l0.5,2.3C91.5,86.1,91.7,86.3,92,86.4z"/>
		<path class="st3" d="M87.5,92.4l0.9,0.2l-0.9,0.3c-0.1,0-0.2,0.1-0.2,0.2l-0.2,1.1l-0.2-1c0-0.1-0.1-0.2-0.2-0.2l-0.9-0.2l0.9-0.3
			c0.1,0,0.2-0.1,0.2-0.2l0.2-1l0.2,1C87.3,92.2,87.4,92.3,87.5,92.4z"/>
		<path class="st3" d="M114,63.3l0.9,0.2l-0.9,0.3c-0.1,0-0.2,0.1-0.2,0.2l-0.2,1.1l-0.2-1c0-0.1-0.1-0.2-0.2-0.2l-0.9-0.2l0.9-0.3
			c0.1,0,0.2-0.1,0.2-0.2l0.2-1l0.2,1C113.8,63.2,113.9,63.3,114,63.3z"/>
	</g>
	<g id="freepik--Table--inject-109">
		<path class="st4" d="M160.5,148.7c0,0.1-36,0.1-80.5,0.1s-80.5,0-80.5-0.1s36-0.1,80.5-0.1S160.5,148.7,160.5,148.7z"/>
		<rect x="9.6" y="143.6" class="st8" width="98.4" height="5.1"/>
		<rect x="79.5" y="143.6" class="st4" width="27.8" height="5.1"/>
		<path class="st4" d="M15.9,148.7c0-0.1-0.1-0.1-0.1-0.2c-0.1-0.1-0.2-0.4-0.3-0.6c-0.7-1.3-1.6-2.5-2.8-3.5
			c-0.2-0.2-0.4-0.4-0.5-0.5c-0.1,0-0.1-0.1-0.2-0.2c0.1,0,0.1,0.1,0.2,0.1c0.1,0.1,0.3,0.2,0.5,0.4c1.2,1,2.1,2.2,2.8,3.5
			c0.1,0.3,0.2,0.5,0.3,0.6C15.9,148.6,15.9,148.7,15.9,148.7z"/>
		<path class="st4" d="M23.4,148.8c-0.5,0-1,0-1.4-0.1c-0.5-0.1-1-0.3-1.5-0.5c-0.6-0.2-1.1-0.5-1.7-0.9c-1-0.7-1.8-1.5-2.5-2.4
			c-0.3-0.4-0.5-0.8-0.7-1.2c0,0,0,0,0.1,0.1s0.1,0.2,0.1,0.2c0.2,0.3,0.4,0.6,0.6,0.9c0.7,0.9,1.5,1.7,2.5,2.4
			c0.5,0.4,1.1,0.7,1.7,0.9c0.5,0.2,1,0.4,1.5,0.5c0.2,0,0.4,0.1,0.6,0.1c0.1,0,0.3,0,0.4,0.1L23.4,148.8L23.4,148.8z"/>
		<path class="st4" d="M30.3,146.2c0,0-0.4,0.1-1.3,0.1c-0.4,0-0.9,0-1.5,0c-0.3,0-0.6-0.1-0.9-0.1l-0.5-0.1c-0.2,0-0.4-0.1-0.5-0.1
			c-0.2-0.1-0.3-0.2-0.4-0.4c-0.1-0.2,0-0.4,0.2-0.6c0.2-0.1,0.4-0.2,0.6-0.2c0.2-0.1,0.4-0.1,0.6-0.2c1.9-0.4,3.8-0.5,5.7-0.2
			c0.5,0.1,1,0.2,1.6,0.4c0.3,0.1,0.5,0.3,0.6,0.5c0.1,0.3,0.1,0.6,0,0.8c-0.1,0.3-0.3,0.5-0.5,0.7c-0.2,0.1-0.5,0.3-0.8,0.3
			c-0.5,0.1-1,0.2-1.6,0.3c-1,0.2-2,0.3-3,0.3c-1.7,0.1-3.4-0.3-4.9-1c-1-0.5-2-1.2-2.7-2c-0.2-0.2-0.4-0.5-0.6-0.7
			c-0.1-0.2-0.2-0.3-0.2-0.3s0.1,0.1,0.2,0.3c0.2,0.3,0.4,0.5,0.6,0.7c0.8,0.8,1.7,1.5,2.7,2c1.5,0.7,3.2,1,4.9,0.9c1,0,2-0.1,3-0.3
			c0.5-0.1,1-0.2,1.6-0.3c0.3-0.1,0.5-0.2,0.7-0.3c0.2-0.2,0.4-0.4,0.5-0.6c0.1-0.2,0.1-0.5,0-0.8c-0.1-0.2-0.4-0.4-0.6-0.5
			c-0.5-0.2-1-0.3-1.5-0.4c-1.9-0.3-3.8-0.3-5.7,0.2c-0.2,0-0.4,0.1-0.6,0.1c-0.2,0-0.4,0.1-0.5,0.2c-0.1,0.1-0.2,0.3-0.2,0.5
			c0.1,0.2,0.2,0.3,0.4,0.4c0.2,0.1,0.3,0.1,0.5,0.1l0.5,0.1c0.3,0,0.6,0.1,0.9,0.1c0.6,0,1.1,0.1,1.5,0.1s0.7,0,0.9,0L30.3,146.2z"
			/>
		<path class="st4" d="M47.7,144h-0.1c-0.1,0-0.2,0-0.4,0c-0.5,0-1,0-1.4,0.2c-0.7,0.2-1.4,0.4-2,0.8c-0.8,0.4-1.5,0.9-2.2,1.4
			c-0.8,0.5-1.5,1-2.2,1.4c-0.6,0.4-1.3,0.6-2,0.9c-0.5,0.1-0.9,0.2-1.4,0.2c-0.2,0-0.4,0-0.5,0h0.1c0.1,0,0.3,0,0.4,0
			c0.5,0,1-0.1,1.4-0.2c0.7-0.2,1.3-0.5,1.9-0.9c0.7-0.4,1.4-0.9,2.2-1.4c0.7-0.5,1.5-1,2.2-1.4c0.6-0.3,1.3-0.6,2-0.8
			c0.5-0.1,1-0.2,1.4-0.1C47.3,143.9,47.5,144,47.7,144z"/>
		<path class="st4" d="M54.4,146.2l-0.3-0.1c-0.3-0.1-0.5-0.1-0.8-0.1c-0.4,0-0.8,0-1.2,0.1c-0.3,0.1-0.5,0.1-0.8,0.2
			c-0.3,0.1-0.5,0.2-0.7,0.5c-0.2,0.3-0.1,0.6,0.1,0.9c0.2,0.3,0.5,0.4,0.9,0.5c0.7,0.2,1.5,0.3,2.3,0c0.4-0.1,0.8-0.2,1.2-0.4
			c0.4-0.1,0.8-0.4,1.1-0.6c0.3-0.3,0.6-0.7,0.6-1.2c0-0.5-0.2-0.9-0.5-1.2c-0.3-0.3-0.7-0.6-1.2-0.7c-0.4-0.1-0.9-0.2-1.3-0.1
			c-0.8,0.1-1.7,0.3-2.5,0.6c-1.4,0.5-2.7,1.1-3.9,1.8c-0.8,0.5-1.7,1-2.5,1.6c-0.3,0.2-0.5,0.4-0.6,0.5c-0.1,0.1-0.2,0.2-0.2,0.2
			s0.3-0.2,0.8-0.7c0.8-0.6,1.6-1.1,2.5-1.6c1.3-0.7,2.6-1.3,3.9-1.8c0.8-0.3,1.6-0.5,2.5-0.6c0.5,0,0.9,0,1.4,0.1
			c0.5,0.1,0.9,0.4,1.2,0.7c0.3,0.3,0.5,0.8,0.5,1.3c0,0.5-0.2,0.9-0.6,1.2c-0.3,0.3-0.7,0.5-1.1,0.6c-0.4,0.2-0.8,0.3-1.2,0.4
			c-0.8,0.2-1.6,0.2-2.3-0.1c-0.3-0.1-0.6-0.3-0.9-0.6c-0.1-0.1-0.2-0.3-0.2-0.5c0-0.2,0-0.3,0.1-0.5c0.2-0.2,0.4-0.4,0.7-0.5
			c0.2-0.1,0.5-0.2,0.8-0.2c0.4-0.1,0.8-0.1,1.3-0.1c0.3,0,0.5,0.1,0.8,0.1C54.3,146.2,54.4,146.2,54.4,146.2z"/>
		<path class="st4" d="M62.5,148.7c0,0,0-0.1,0-0.3c0-0.2,0-0.5,0-0.7c-0.1-0.8-0.3-1.6-0.7-2.2c-0.4-0.7-1-1.2-1.7-1.6
			c-0.3-0.1-0.6-0.2-0.9-0.3c0.3,0,0.7,0.1,1,0.3c0.7,0.3,1.3,0.9,1.8,1.6c0.4,0.7,0.6,1.5,0.7,2.3C62.5,148,62.5,148.4,62.5,148.7z
			"/>
		<path class="st4" d="M73,148.7c-0.5-0.1-1-0.2-1.5-0.3c-0.5-0.1-1.1-0.3-1.6-0.5c-0.6-0.3-1.3-0.6-1.9-0.9c-1.1-0.6-2.1-1.4-3-2.2
			c-0.4-0.3-0.6-0.6-0.8-0.8l-0.2-0.2c0-0.1-0.1-0.1-0.1-0.1s0,0,0.1,0.1l0.2,0.2c0.2,0.2,0.5,0.5,0.8,0.8c1.4,1.3,3.1,2.3,4.9,3.1
			c0.5,0.2,1,0.4,1.6,0.5c0.5,0.1,0.8,0.2,1.1,0.3l0.3,0.1C72.9,148.6,73,148.6,73,148.7z"/>
		<path class="st4" d="M80.4,147.2l-0.1,0c-0.1,0-0.2-0.1-0.3-0.1c-0.3-0.2-0.7-0.3-1.1-0.4c-0.6-0.2-1.1-0.3-1.7-0.4
			c-0.6-0.1-1.3-0.2-2.1-0.3c-1.5-0.2-2.8-0.6-3.6-1.2c-0.3-0.2-0.6-0.5-0.9-0.8c-0.2-0.2-0.3-0.3-0.3-0.3s0,0,0.1,0.1
			c0,0.1,0.1,0.1,0.2,0.2c0.3,0.3,0.6,0.5,0.9,0.8c0.8,0.6,2.1,1,3.6,1.2c0.7,0.1,1.4,0.2,2.1,0.3c0.6,0.1,1.1,0.2,1.7,0.4
			c0.4,0.1,0.7,0.3,1.1,0.4C80.2,147.1,80.4,147.2,80.4,147.2z"/>
	</g>
</g>
</svg>
