<?xml version="1.0" encoding="utf-8"?>
<!-- Generator: Adobe Illustrator 23.0.3, SVG Export Plug-In . SVG Version: 6.00 Build 0)  -->
<svg version="1.1" id="Layer_1" xmlns="http://www.w3.org/2000/svg" xmlns:xlink="http://www.w3.org/1999/xlink" x="0px" y="0px"
	 viewBox="0 0 160 150" style="enable-background:new 0 0 160 150;" xml:space="preserve">
<style type="text/css">
	.st0{fill:#EBEBEB;}
	.st1{fill:#F5F5F5;}
	.st2{fill:#263238;}
	.st3{fill:#455A64;}
	.st4{fill:#BF9084;}
	.st5{fill:#8B6A63;}
	.st6{fill:#05648A;}
	.st7{opacity:0.2;}
	.st8{fill:#FFFFFF;}
	.st9{opacity:0.2;enable-background:new    ;}
	.st10{fill:#FFBE9D;}
	.st11{fill:#EB996E;}
	.st12{fill:#E0E0E0;}
</style>
<g>
	<g id="freepik--background-complete--inject-25">
		<path class="st0" d="M134.2,135.9c0.7-0.4,1.4-0.2,2.1-0.1c2.3,0.3,4.6,0,6.7-0.9c0.4-0.2,0.5-0.6,0.4-1c-0.1-0.3-0.4-0.4-0.7-0.4
			l-22.8,0.1c-1.2,0-2.5,0-3.3,0.9c-0.5,0.5-0.6,1.2-0.3,1.8c0.4,0.7,1.3,0.8,2.1,0.7l6.6-0.2c0.8,0,1.7,0,2.3,0.6
			c0.3,0.3,0.4,0.7,0.3,1.1c-0.2,0.7-0.9,0.8-1.5,0.9l-6.9,0.9c-1.5,0.2-1.4,2.4,0.1,2.5c5.2,0.3,10.6-0.7,15.7-1.8
			c1-0.2,2.1-0.4,2.6-1.3c0.4-0.5,0.3-1.2-0.1-1.7c-0.6-0.6-1.4-0.4-2.2-0.3c-0.8,0.1-1.7-0.1-1.8-0.9
			C133.6,136.5,133.8,136.1,134.2,135.9z"/>
		<path class="st1" d="M44,45.5c0.2-1.4-1.7-2.5-3.2-2.6c-0.7-0.1-1.4,0-2.1-0.2c-1.4-0.5-2-2.3-3.4-2.9c-1-0.4-2.2,0-3.2,0.5
			c-1,0.5-2,1.1-3.1,1.2c-1,0.1-2-0.3-2.9,0.2c-0.6,0.4-1,1.1-1.6,1.5s-1.3,0.5-2,0.6c-0.7,0-1.4,0-2.1,0.3c-0.6,0.3-1.2,1-1,1.7
			L44,45.5z"/>
		<path class="st1" d="M105.3,65.3c0.1-1.1-1.4-2-2.5-2c-0.5,0-1.1,0-1.6-0.1c-1.1-0.4-1.6-1.8-2.6-2.3c-0.8-0.3-1.7,0-2.5,0.4
			s-1.6,0.9-2.4,1c-0.8,0-1.6-0.2-2.3,0.1c-0.5,0.3-0.8,0.9-1.2,1.2c-0.5,0.3-1,0.4-1.6,0.4c-0.6,0-1.1,0.1-1.6,0.3
			c-0.5,0.2-0.9,0.8-0.8,1.3L105.3,65.3z"/>
		<path class="st1" d="M150.7,7.5c0.1-1.1-1.4-2-2.5-2c-0.5,0-1.1,0-1.6-0.1c-1.1-0.4-1.6-1.8-2.6-2.3c-0.8-0.3-1.8,0-2.5,0.4
			c-0.8,0.4-1.6,0.9-2.4,1c-0.8,0-1.6-0.2-2.3,0.1c-0.5,0.3-0.8,0.9-1.2,1.2c-0.5,0.3-1,0.4-1.6,0.4c-0.6,0-1.1,0.1-1.6,0.3
			c-0.5,0.2-0.9,0.8-0.8,1.3L150.7,7.5z"/>
		<path class="st1" d="M85.1,11.4c0.2-1.4-1.7-2.5-3.2-2.6c-0.7-0.1-1.4,0-2.1-0.2c-1.4-0.5-2-2.3-3.4-2.9c-1-0.4-2.2,0-3.2,0.5
			c-1,0.5-2,1.1-3.1,1.2c-1,0.1-2-0.3-2.9,0.2c-0.6,0.4-1,1.1-1.6,1.5s-1.3,0.5-2,0.6c-0.7,0-1.4,0-2.1,0.3s-1.2,1-1,1.7L85.1,11.4z
			"/>
		<path class="st0" d="M121,37.1c0.2-1.8-2.3-3.3-4.2-3.4c-0.9-0.1-1.9,0.1-2.7-0.2c-1.9-0.7-2.6-3.1-4.5-3.8
			c-1.4-0.6-3-0.1-4.3,0.6s-2.6,1.5-4.1,1.6c-1.3,0.1-2.7-0.4-3.8,0.2c-0.8,0.5-1.3,1.4-2.1,2c-0.8,0.6-1.7,0.7-2.7,0.7
			c-0.9,0.1-1.9,0.1-2.8,0.5c-0.9,0.4-1.6,1.3-1.4,2.2L121,37.1z"/>
		<circle class="st0" cx="29.5" cy="15.4" r="6.5"/>
		<path class="st0" d="M29.4,21.9c-3.6,0-6.5-2.9-6.5-6.5c0-0.9,0.2-1.7,0.5-2.5c0.7-1.6,1.9-2.8,3.5-3.5c3.3-1.4,7.1,0.1,8.5,3.4
			c1,2.4,0.5,5.3-1.4,7.1c-0.6,0.6-1.3,1.1-2.1,1.4C31.1,21.7,30.3,21.9,29.4,21.9z"/>
		<path class="st0" d="M28.5,29.9c-0.1-0.9-0.1-1.8-0.1-2.7c0-0.9,0-1.8,0.1-2.7c0.1,0.9,0.1,1.8,0.1,2.7
			C28.6,28.1,28.6,29,28.5,29.9z"/>
		<path class="st0" d="M28.5,29.9c0,0,0,0-0.1-0.8c0-0.5,0-1.2,0-1.9c0-0.7,0-1.4,0-1.9c0-0.8,0-0.8,0.1-0.8c0,0,0,0,0.1,0.8
			c0,0.5,0,1.2,0,1.9c0,0.7,0,1.4,0,1.9C28.5,29.9,28.5,29.9,28.5,29.9z M28.5,24.6c0,0.1-0.1,1.1-0.1,2.7s0,2.6,0.1,2.7
			c0-0.1,0.1-1.1,0.1-2.7S28.5,24.7,28.5,24.6z"/>
		<path class="st0" d="M24.8,23.1c0,0-0.6,1.1-1.4,2.5C22.6,26.9,22,28,21.9,28c0,0,0.6-1.1,1.4-2.5C24.1,24.1,24.7,23,24.8,23.1z"
			/>
		<path class="st0" d="M21.9,28L21.9,28c0,0,0,0,0.4-0.8c0.3-0.5,0.6-1.1,1-1.7c0.4-0.7,0.7-1.3,1-1.7c0.4-0.7,0.4-0.7,0.5-0.7l0,0
			c0,0,0,0-0.4,0.8c-0.3,0.5-0.6,1.1-1,1.8C22.8,26.7,22,28,21.9,28L21.9,28z M24.8,23.1c-0.1,0.1-0.7,1-1.5,2.4
			c-0.8,1.4-1.3,2.4-1.4,2.5c0.1-0.1,0.7-1,1.5-2.4C24.2,24.1,24.7,23.2,24.8,23.1L24.8,23.1z"/>
		<path class="st0" d="M20.9,20.7c-0.5,0.5-1,0.9-1.5,1.3c-0.5,0.4-1,0.8-1.6,1.2c0.5-0.5,1-0.9,1.5-1.3
			C19.8,21.4,20.4,21,20.9,20.7z"/>
		<path class="st0" d="M17.8,23.2L17.8,23.2c0,0,0,0,0.4-0.4c0.3-0.2,0.7-0.6,1.1-0.9c0.5-0.4,1-0.8,1.6-1.2l0,0l0,0
			c-0.5,0.5-1,0.9-1.5,1.3c-0.4,0.3-0.8,0.6-1.1,0.9C18.1,22.9,18,23.1,17.8,23.2z M20.9,20.7c-0.6,0.4-1.1,0.7-1.6,1.2
			c-0.5,0.4-1,0.8-1.5,1.3c0.6-0.4,1.1-0.8,1.6-1.2C19.9,21.5,20.4,21.1,20.9,20.7L20.9,20.7z"/>
		<path class="st0" d="M35,27.3c-0.1-0.2-0.1-0.4-0.2-0.7c-0.1-0.4-0.2-1-0.4-1.6c-0.2-0.6-0.3-1.2-0.5-1.6
			c-0.1-0.2-0.1-0.4-0.2-0.7c0.1,0.2,0.2,0.4,0.3,0.6c0.2,0.5,0.4,1,0.5,1.6c0.2,0.6,0.3,1.2,0.4,1.6C34.9,26.8,35,27.1,35,27.3z"/>
		<path class="st0" d="M35,27.3c0,0,0-0.1-0.2-0.7c-0.1-0.4-0.2-1-0.4-1.6c-0.2-0.6-0.3-1.2-0.5-1.6l0,0c-0.2-0.5-0.2-0.7-0.2-0.7
			c0,0,0,0,0.1,0.2c0,0.1,0.1,0.3,0.2,0.5c0.2,0.5,0.4,1,0.5,1.6c0.1,0.5,0.3,1.1,0.4,1.6C34.9,26.8,35,27.1,35,27.3L35,27.3z
			 M33.8,22.8c0,0.2,0.1,0.4,0.2,0.6l0,0c0.1,0.4,0.3,0.9,0.5,1.6c0.2,0.6,0.3,1.2,0.4,1.6c0.1,0.3,0.1,0.6,0.2,0.7
			c0-0.2,0-0.4-0.1-0.7c-0.1-0.5-0.2-1.1-0.4-1.6c-0.2-0.7-0.4-1.3-0.5-1.6C34,23.2,33.9,23,33.8,22.8z"/>
		<path class="st0" d="M41.5,22.6c-0.7-0.5-1.3-1-1.9-1.6c-0.6-0.5-1.3-1.1-1.8-1.7c0.7,0.5,1.3,1,1.9,1.6
			C40.3,21.5,41,22,41.5,22.6z"/>
		<path class="st0" d="M41.5,22.6c-0.1,0-1-0.8-1.9-1.6c-0.5-0.4-1-0.9-1.3-1.2c-0.5-0.5-0.5-0.5-0.5-0.5l0,0c0.7,0.5,1.3,1,1.9,1.6
			c0.5,0.4,1,0.9,1.3,1.2C41.6,22.6,41.5,22.6,41.5,22.6L41.5,22.6L41.5,22.6L41.5,22.6z M37.8,19.3c0,0.1,0.7,0.7,1.8,1.7
			c1.1,0.9,1.8,1.5,1.9,1.6c0-0.1-0.7-0.7-1.8-1.7S37.9,19.4,37.8,19.3L37.8,19.3z"/>
		<path class="st0" d="M44.1,16.2c-0.3,0-0.5-0.1-0.8-0.1c-0.5-0.1-1.1-0.2-1.9-0.3c-0.7-0.1-1.4-0.1-1.9-0.2c-0.3,0-0.5,0-0.8-0.1
			c0.3,0,0.5,0,0.8,0c0.5,0,1.2,0,1.9,0.1c0.7,0.1,1.4,0.2,1.9,0.3C43.6,16,43.8,16.1,44.1,16.2z"/>
		<path class="st0" d="M44,16.2c-0.1,0-0.2,0-0.6-0.1l-0.2,0c-0.7-0.1-1.3-0.2-1.9-0.3s-1.2-0.1-1.9-0.2h-0.2c-0.5,0-0.7,0-0.7-0.1
			c0,0,0,0,0,0c0.3,0,0.5,0,0.8,0c0.3,0,1,0,1.9,0.1c0.9,0.1,1.6,0.2,1.9,0.3C43.5,16,43.8,16.1,44,16.2L44,16.2L44,16.2
			C44,16.2,44.1,16.2,44,16.2z M38.7,15.6c0,0,0.3,0,0.6,0h0.2c0.7,0,1.3,0.1,1.9,0.2c0.6,0.1,1.2,0.2,1.9,0.3l0.2,0
			c0.3,0.1,0.5,0.1,0.6,0.1l0,0c-0.2-0.1-0.5-0.2-0.8-0.2c-0.3-0.1-1-0.2-1.9-0.3c-0.9-0.1-1.6-0.1-1.9-0.1
			C39.2,15.5,39,15.6,38.7,15.6z"/>
		<path class="st0" d="M44.1,9.9c0,0-1.4,0.4-3.1,0.8c-1.7,0.4-3.2,0.7-3.2,0.7c0,0,1.4-0.4,3.1-0.8C42.6,10.2,44.1,9.9,44.1,9.9z"
			/>
		<path class="st0" d="M37.8,11.4C37.8,11.4,37.8,11.4,37.8,11.4c0,0,0,0,0.9-0.3c0.6-0.2,1.4-0.4,2.2-0.6s1.6-0.4,2.2-0.5
			c0.9-0.2,0.9-0.2,0.9-0.2l0,0c0,0,0,0-0.9,0.3c-0.6,0.2-1.4,0.4-2.2,0.6c-0.8,0.2-1.6,0.4-2.2,0.5C38.4,11.3,38.1,11.4,37.8,11.4z
			 M44,9.9c-0.1,0-1.3,0.3-3.2,0.7c-1.8,0.4-3,0.8-3.1,0.8c0.1,0,1.3-0.3,3.2-0.7S43.9,10,44,9.9z"/>
		<path class="st0" d="M36.7,2.6c0,0-0.7,1.1-1.5,2.4c-0.8,1.3-1.6,2.3-1.6,2.3c0,0,0.6-1.1,1.5-2.4S36.7,2.5,36.7,2.6z"/>
		<path class="st0" d="M33.6,7.3L33.6,7.3L33.6,7.3c0-0.1,0.8-1.3,1.5-2.4c0.4-0.6,0.8-1.2,1.1-1.7c0.5-0.7,0.5-0.7,0.5-0.7l0,0
			c0,0,0,0-0.4,0.7c-0.3,0.5-0.7,1-1.1,1.7s-0.8,1.2-1.1,1.6C33.7,7.2,33.6,7.3,33.6,7.3z M36.7,2.6c-0.1,0.1-0.7,0.9-1.6,2.3
			c-0.9,1.3-1.5,2.3-1.5,2.4c0.1-0.1,0.7-0.9,1.6-2.3S36.7,2.7,36.7,2.6z"/>
		<path class="st0" d="M29.5,1c0,0.3,0,0.6,0,0.9c0,0.5,0,1.3,0,2.1s0,1.6,0,2.1c0,0.3,0,0.6,0,0.9c-0.1-0.3-0.1-0.6-0.1-0.9
			c0-0.6-0.1-1.3-0.1-2.1s0-1.6,0.1-2.1C29.4,1.6,29.4,1.3,29.5,1z"/>
		<path class="st0" d="M29.5,7.1c0,0,0,0,0-0.2c0-0.2,0-0.4-0.1-0.7c0-0.4-0.1-1.1-0.1-2.1s0-1.8,0.1-2.1c0-0.3,0-0.5,0-0.7
			c0-0.2,0-0.2,0-0.2l0,0c0,0,0,0.1,0,0.9c0,0.5,0,1.3,0,2.1s0,1.6,0,2.1v0C29.5,7,29.5,7.1,29.5,7.1L29.5,7.1z M29.5,1
			c0,0.3-0.1,0.6-0.1,0.9c0,0.4-0.1,1.1-0.1,2.1s0,1.8,0.1,2.1c0,0.3,0,0.6,0.1,0.9c0-0.1,0-0.6,0-0.9v0c0-0.5,0-1.3,0-2.1
			s0-1.6,0-2.1C29.5,1.6,29.5,1.1,29.5,1z"/>
		<path class="st0" d="M24,7.9c0,0-0.7-1-1.5-2.4C21.6,4.2,21,3.1,21,3.1c0,0,0.7,1,1.5,2.4C23.4,6.8,24,7.9,24,7.9z"/>
		<path class="st0" d="M24,7.9c0,0-0.1-0.1-0.5-0.7c-0.3-0.4-0.7-1-1.1-1.7C21.7,4.4,21,3.1,21,3.1l0,0c0,0,0,0,0.5,0.7
			c0.3,0.4,0.7,1,1.1,1.7c0.4,0.6,0.8,1.2,1,1.7C24,7.9,24,7.9,24,7.9L24,7.9L24,7.9z M21,3.1c0,0.1,0.6,1,1.4,2.4
			c0.8,1.4,1.4,2.3,1.5,2.4c0-0.1-0.6-1-1.4-2.4C21.7,4.1,21.1,3.2,21,3.1z"/>
		<path class="st0" d="M20.7,10.7c-0.2,0-0.5-0.1-0.7-0.1c-0.4-0.1-1-0.2-1.6-0.4c-0.7-0.2-1.2-0.4-1.6-0.5
			c-0.2-0.1-0.4-0.2-0.6-0.3c0.2,0,0.4,0.1,0.7,0.2c0.4,0.1,1,0.3,1.6,0.5c0.6,0.2,1.2,0.3,1.6,0.5C20.2,10.5,20.5,10.6,20.7,10.7z"
			/>
		<path class="st0" d="M20.7,10.7c-0.1,0-0.1,0-0.2,0c-0.1,0-0.3-0.1-0.5-0.1c-0.3-0.1-0.9-0.2-1.6-0.4S17,9.7,16.8,9.6
			c-0.2-0.1-0.4-0.1-0.5-0.2c-0.2-0.1-0.2-0.1-0.2-0.1c0,0,0.1,0,0.7,0.2c0.3,0.1,0.9,0.3,1.6,0.5c0.6,0.2,1.2,0.3,1.6,0.5
			C20.6,10.6,20.7,10.6,20.7,10.7L20.7,10.7C20.7,10.7,20.7,10.7,20.7,10.7z M16.1,9.3c0.2,0.1,0.4,0.2,0.6,0.3
			c0.3,0.1,0.8,0.3,1.6,0.5c0.8,0.2,1.3,0.4,1.6,0.4c0.2,0.1,0.4,0.1,0.7,0.1l0,0c-0.2-0.1-0.4-0.1-0.7-0.2c-0.5-0.1-1-0.3-1.6-0.5
			c-0.7-0.2-1.3-0.4-1.6-0.5C16.5,9.4,16.2,9.3,16.1,9.3z"/>
		<path class="st0" d="M19.2,15.6c-0.7,0.1-1.4,0.2-2.1,0.3C16.5,16,15.8,16,15.1,16c0.7-0.1,1.4-0.2,2.1-0.3
			C17.8,15.7,18.5,15.6,19.2,15.6z"/>
		<path class="st0" d="M15.2,16.1c0,0-0.1,0-0.1,0l0,0l0,0c0.7-0.1,1.4-0.2,2.1-0.3c0.7-0.1,1.4-0.1,2.1-0.1l0,0l0,0l0,0
			c-0.7,0.1-1.4,0.2-2.1,0.3C16.4,16,15.5,16.1,15.2,16.1z M15.1,16c0.7,0,1.4-0.1,2.1-0.1c0.7,0,1.4-0.1,2.1-0.3
			c-0.7,0-1.4,0.1-2.1,0.1C16.5,15.8,15.8,15.9,15.1,16z"/>
	</g>
	<g id="freepik--Floor--inject-25">
		<path class="st2" d="M155.7,132.4c0,0-17.4,0.1-38.8,0.1s-38.8,0-38.8-0.1c0,0,17.4-0.1,38.8-0.1S155.7,132.3,155.7,132.4z"/>
		<path class="st2" d="M82.7,137.4c-0.1,0-0.1,0-0.2,0l-0.6,0l-2.3-0.2c-2-0.1-4.8-0.4-8.4-0.7c-7.1-0.6-16.9-1.5-27.7-2.5
			c-5.4-0.5-10.6-0.9-15.2-1.2s-8.9-0.6-12.5-0.7s-6.4-0.3-8.4-0.4l-2.3-0.1l-0.6,0c-0.1,0-0.2,0-0.2,0h0.2h0.6l2.3,0.1
			c2,0,4.9,0.1,8.4,0.3c3.6,0.2,7.8,0.4,12.5,0.7s9.8,0.7,15.2,1.2l27.7,2.5l8.4,0.7l2.3,0.2l0.6,0.1L82.7,137.4z"/>
		<path class="st2" d="M121.8,139.2c0,0-2.9,0.1-6.4,0.1s-6.4,0-6.4-0.1c0,0,2.9-0.1,6.4-0.1S121.8,139.1,121.8,139.2z"/>
		<path class="st2" d="M79.8,149c-0.1,0-0.2,0-0.2,0c-0.2,0-0.4-0.2-0.5-0.4c-0.2-0.3-0.2-0.7-0.1-1c0.2-0.4,0.6-0.7,1-0.9
			c0.2-0.1,0.5-0.2,0.7-0.3c0.3-0.1,0.5-0.2,0.6-0.5c0.1-0.1,0.1-0.3,0.1-0.4c0-0.1-0.1-0.2-0.2-0.3c-0.3-0.1-0.6-0.2-0.9-0.3
			l-4.1-1.4c-0.4-0.1-0.7-0.3-1.1-0.5c-0.3-0.2-0.6-0.5-0.7-0.9c-0.2-0.3-0.2-0.7,0-1.1c0.2-0.3,0.4-0.6,0.8-0.7
			c0.3-0.1,0.6-0.2,0.9-0.3l0.9-0.2l1.6-0.4l2.3-0.5l0.6-0.1c0.1,0,0.1,0,0.2,0c-0.1,0-0.1,0.1-0.2,0.1l-0.6,0.2l-2.3,0.6l-1.6,0.4
			l-0.9,0.2c-0.3,0.1-0.6,0.2-0.9,0.3c-0.3,0.1-0.5,0.4-0.7,0.7c-0.1,0.3-0.1,0.7,0,1c0.1,0.3,0.4,0.6,0.7,0.8
			c0.3,0.2,0.7,0.4,1,0.5l4.1,1.3c0.3,0.1,0.6,0.2,0.9,0.4c0.2,0.1,0.3,0.2,0.3,0.4c0,0.2,0,0.3-0.1,0.5c-0.2,0.3-0.4,0.4-0.7,0.5
			c-0.3,0.1-0.5,0.2-0.7,0.3c-0.4,0.2-0.8,0.5-1,0.8c-0.1,0.3-0.1,0.7,0.1,0.9c0.1,0.2,0.3,0.3,0.5,0.4C79.6,149,79.7,149,79.8,149z
			"/>
		<path class="st2" d="M116.7,141.4c0,0-3.5,0.1-7.7,0.1c-4.3,0-7.7,0-7.7-0.1s3.5-0.1,7.7-0.1C113.3,141.3,116.7,141.3,116.7,141.4
			z"/>
	</g>
	<g id="freepik--Rock--inject-25">
		<path class="st0" d="M40.2,133.3c0-0.5,6.7-10.5,9.1-14.1c0.5-0.8,1.4-1.2,2.3-1l18.8,4.7l11.3,14.5L40.2,133.3z"/>
		<path class="st1" d="M56,121c0.1,0.5,10.8,4.2,10.8,4.2l3.6-2.3l-3.1,2.9l1.8,9.3l-2.6-9L56,121z"/>
	</g>
	<g id="freepik--Birds--inject-25">
		<path class="st2" d="M70,35.9c0,0-0.3-0.1-0.8-0.2c-0.8-0.2-1.6-0.2-2.3-0.1c-1.2,0.2-2.2,0.6-3.2,1.4c-1.1,0.9-1.9,2.2-2.2,3.5v0
			l-0.1,0.2l-0.1-0.2c-0.5-1.3-1.5-2.4-2.7-3.2c-1-0.6-2.1-1-3.3-1.1c-0.8-0.1-1.6,0-2.3,0.2c-0.5,0.1-0.8,0.3-0.8,0.2
			c0.1,0,0.1-0.1,0.2-0.1c0.2-0.1,0.4-0.2,0.6-0.2c1.9-0.6,4-0.3,5.7,0.8c1.2,0.8,2.2,1.9,2.7,3.3h-0.2v0c0.3-1.4,1.2-2.7,2.3-3.6
			c1.6-1.3,3.6-1.7,5.6-1.2c0.2,0.1,0.4,0.1,0.6,0.2C69.9,35.9,70,35.9,70,35.9z"/>
		<path class="st2" d="M93.4,23.1c0,0-0.2,0-0.5-0.1c-0.4-0.1-0.9-0.1-1.3,0c-0.6,0.1-1.2,0.3-1.7,0.7c-0.6,0.5-1,1.2-1.2,1.9v0
			l-0.1,0.3l-0.1-0.2c-0.3-0.7-0.8-1.3-1.4-1.8c-0.5-0.3-1.1-0.6-1.8-0.6c-0.4,0-0.9,0-1.3,0.1c-0.3,0.1-0.5,0.1-0.5,0.1
			c0,0,0.1,0,0.1-0.1c0.1-0.1,0.2-0.1,0.3-0.1c0.4-0.1,0.9-0.2,1.3-0.2c0.7,0,1.3,0.2,1.8,0.6c0.7,0.4,1.2,1.1,1.5,1.8h-0.2v0
			c0.2-0.8,0.6-1.5,1.3-2c0.5-0.4,1.1-0.7,1.8-0.7c0.4-0.1,0.9,0,1.3,0.1c0.1,0,0.2,0.1,0.3,0.1C93.3,23.1,93.3,23.1,93.4,23.1z"/>
		<path class="st2" d="M78.1,17.9c-0.1,0.2-0.3,0.3-0.4,0.5c-0.4,0.5-0.8,1-1.1,1.5c-1.1,1.7-1.6,3.7-1.6,5.8v0.1h-0.2
			c-0.2-1.1-0.5-2.1-1.1-3.1c-0.4-0.8-1-1.5-1.6-2.2c-0.4-0.4-0.9-0.8-1.4-1.2c-0.2-0.1-0.4-0.2-0.5-0.4c0.1,0,0.1,0,0.2,0.1
			c0.1,0.1,0.3,0.2,0.4,0.3c0.5,0.3,1,0.7,1.4,1.1c1.5,1.4,2.4,3.3,2.7,5.3h-0.2v-0.1c0-2.1,0.6-4.1,1.7-5.8c0.3-0.5,0.7-1,1.2-1.5
			c0.1-0.2,0.3-0.3,0.4-0.4C78,18,78.1,17.9,78.1,17.9z"/>
	</g>
	<g id="freepik--Plants--inject-25">
		<path class="st2" d="M100.6,96.6c1.7,11.9,3.3,23.8,5,35.7l1.3,0C106.1,120.2,105.2,107.9,100.6,96.6z"/>
		<path class="st2" d="M114.5,95c-3.5,3.8-4.9,9.1-5.8,14.2c-1.3,7.3-1.4,15.8-1,23.2l1.8,0C108.9,119.7,110.5,107,114.5,95z"/>
		<path class="st2" d="M101.5,117.7c-0.4-1.8-0.9-3.6-1.9-5.1c-1.4-2-3.6-3.3-5.8-4.3s-4.6-1.8-6.6-3.2c2.3,3.7,7.4,4.7,10,8.1
			c1.3,1.7,1.8,3.9,2.3,6c1.1,4.6,1.8,8.5,2.9,13.1h1.5C103.4,127.4,102.6,122.5,101.5,117.7z"/>
		<path class="st2" d="M110.9,132.4c0,0,1.3-14.2,2.2-16.8c0.9-2.6,9.7-9.8,9.6-9.5c-0.1,0.3-6.6,8.2-7.5,9.8s-2.5,16.4-2.5,16.4
			H110.9z"/>
		<path class="st3" d="M84.9,132.5l0.2,0c-0.4-5.3-3-11-5-16c-2-5.1-3.9-10.4-8.4-13.5C76.7,112.6,81.1,122.4,84.9,132.5"/>
		<path class="st3" d="M88.1,105.5L88.1,105.5l-0.1,0.3c-0.1,0.2-0.1,0.4-0.3,0.8c-0.1,0.2-0.1,0.3-0.2,0.5l-0.2,0.7
			c-0.1,0.5-0.3,1-0.5,1.6c-0.1,0.3-0.2,0.6-0.2,0.9c-0.1,0.3-0.2,0.7-0.2,1c-0.2,0.7-0.3,1.5-0.5,2.3c-0.3,1.6-0.5,3.4-0.7,5.3
			s-0.2,3.7-0.1,5.3c0,0.8,0.1,1.6,0.1,2.3c0,0.4,0,0.7,0.1,1.1c0,0.3,0.1,0.7,0.1,1c0.1,0.6,0.1,1.2,0.2,1.7c0,0.2,0.1,0.5,0.1,0.7
			c0,0.2,0.1,0.4,0.1,0.6c0.1,0.3,0.1,0.6,0.1,0.8c0,0.1,0,0.2,0,0.2c0,0,0,0.1,0,0.1s-0.3-1.5-0.6-4c0-0.3-0.1-0.6-0.1-1
			c0-0.4-0.1-0.7-0.1-1.1c-0.1-0.7-0.1-1.5-0.1-2.3c0-1.6,0-3.5,0.1-5.3c0.1-1.9,0.4-3.7,0.7-5.3c0.2-0.8,0.3-1.6,0.5-2.3
			c0.1-0.4,0.2-0.7,0.2-1l0.3-0.9c0.2-0.6,0.3-1.1,0.5-1.6c0.1-0.2,0.1-0.5,0.2-0.7l0.2-0.5l0.3-0.8
			C88.1,105.6,88.1,105.5,88.1,105.5C88.1,105.4,88.1,105.4,88.1,105.5z"/>
		<path class="st1" d="M85.5,109l1.8-6.4c0.2-0.6,0.9-1,1.5-0.8l0.3,0.1c0.6,0.2,1,0.9,0.8,1.5l-1.8,6.4c-0.2,0.6-0.9,1-1.5,0.8
			l-0.3-0.1C85.7,110.3,85.3,109.6,85.5,109z"/>
		<path class="st2" d="M86.6,110.5c0,0,0.1,0,0.2,0c0.2,0,0.4,0,0.6-0.1c0.3-0.1,0.5-0.4,0.6-0.7c0.1-0.4,0.2-0.8,0.4-1.3
			c0.3-0.9,0.6-2.1,0.9-3.3c0.2-0.6,0.4-1.3,0.5-2c0.1-0.3,0-0.7-0.2-1c-0.1-0.1-0.2-0.3-0.4-0.3c-0.2-0.1-0.3-0.1-0.5-0.2
			c-0.3-0.1-0.7,0-1,0.2c-0.1,0.1-0.2,0.2-0.3,0.4c-0.1,0.2-0.1,0.3-0.2,0.5l-0.6,2c-0.4,1.2-0.7,2.4-0.9,3.3
			c-0.1,0.2-0.1,0.5-0.2,0.7c-0.1,0.2-0.1,0.4-0.1,0.6c0,0.3,0.1,0.6,0.4,0.9c0.2,0.1,0.3,0.2,0.5,0.3L86.6,110.5L86.6,110.5
			C86.6,110.5,86.6,110.5,86.6,110.5l-0.2-0.1c-0.6-0.1-1-0.6-1-1.2c0-0.2,0-0.4,0.1-0.6l0.2-0.7c0.3-0.9,0.6-2.1,0.9-3.3
			c0.2-0.6,0.4-1.3,0.6-2c0-0.2,0.1-0.4,0.2-0.5c0.1-0.2,0.2-0.3,0.4-0.4c0.3-0.2,0.7-0.3,1.1-0.2c0.2,0,0.4,0.1,0.5,0.2
			c0.2,0.1,0.3,0.2,0.4,0.4c0.2,0.3,0.3,0.7,0.2,1.1l-0.6,2c-0.4,1.2-0.7,2.4-0.9,3.3c-0.1,0.5-0.3,0.9-0.4,1.3
			c-0.2,0.5-0.7,0.9-1.3,0.8C86.8,110.6,86.7,110.6,86.6,110.5z"/>
		<path class="st3" d="M86.1,132.5c-0.2-4.1-0.2-8.6,2.2-12c1.3-1.9,3.3-3.3,5.4-4.3s4.4-1.5,6.7-2.1c-2.5,3.5-8.2,3.6-10.7,7.2
			c-0.7,1.1-1.1,2.3-1.4,3.6c-0.7,2.6-1.3,5-1.9,7.6"/>
		<path class="st3" d="M68.1,118L68.1,118l0.2,0c0.1,0,0.4,0,0.6,0.1c0.8,0.1,1.5,0.3,2.3,0.6c1.1,0.4,2.1,0.8,3.1,1.4
			c0.6,0.4,1.1,0.7,1.7,1.2c0.6,0.5,1.1,0.9,1.6,1.5c0.5,0.5,1,1.1,1.4,1.7c0.2,0.3,0.4,0.6,0.6,0.9s0.4,0.6,0.5,0.9
			c0.6,1,1,2.1,1.4,3.2c0.2,0.7,0.4,1.5,0.5,2.3c0,0.3,0.1,0.5,0.1,0.6l0,0.2c0,0,0,0.1,0,0.1c0,0,0,0,0-0.1c0,0,0-0.1,0-0.2
			c0-0.1,0-0.4-0.1-0.6c-0.1-0.8-0.3-1.5-0.6-2.2c-0.4-1.1-0.8-2.1-1.4-3.1c-0.2-0.3-0.3-0.6-0.5-0.9s-0.4-0.6-0.6-0.9
			c-0.4-0.6-0.9-1.2-1.4-1.7c-0.5-0.5-1-1-1.6-1.5c-0.5-0.4-1.1-0.8-1.7-1.2c-1-0.6-2-1.1-3.1-1.4c-0.7-0.3-1.5-0.5-2.2-0.6
			c-0.3-0.1-0.5-0.1-0.6-0.1L68.1,118L68.1,118z"/>
		<path class="st1" d="M63.9,115.7l0.1-0.3c0.3-0.6,1-0.9,1.6-0.6l6,2.9c0.6,0.3,0.9,1,0.6,1.6l-0.1,0.3c-0.3,0.6-1,0.9-1.6,0.6
			l-6-2.9C63.9,117,63.6,116.3,63.9,115.7z"/>
		<path class="st2" d="M72.2,119.4c0,0,0-0.1,0.1-0.2c0.1-0.2,0.1-0.4,0-0.6c-0.1-0.3-0.3-0.6-0.6-0.7c-0.3-0.2-0.8-0.4-1.2-0.6
			l-3.1-1.5l-1.8-0.9c-0.3-0.1-0.7-0.1-1,0c-0.2,0.1-0.3,0.2-0.4,0.3c-0.1,0.1-0.2,0.3-0.3,0.5c-0.2,0.3-0.2,0.7,0,1
			c0.1,0.2,0.2,0.3,0.3,0.4c0.1,0.1,0.3,0.2,0.5,0.2l1.8,0.9l3.1,1.5l0.6,0.3c0.2,0.1,0.4,0.2,0.6,0.2c0.3,0.1,0.7,0,0.9-0.2
			c0.2-0.1,0.3-0.3,0.4-0.5L72.2,119.4L72.2,119.4C72.3,119.4,72.3,119.4,72.2,119.4c0,0.1,0,0.1-0.1,0.2c-0.1,0.2-0.2,0.4-0.4,0.5
			c-0.3,0.2-0.6,0.3-1,0.3c-0.2,0-0.4-0.1-0.6-0.2l-0.6-0.3l-3.1-1.5l-1.8-0.9c-0.2-0.1-0.3-0.2-0.5-0.3c-0.1-0.1-0.3-0.3-0.4-0.4
			c-0.2-0.4-0.2-0.8,0-1.1c0.1-0.2,0.2-0.3,0.3-0.5c0.4-0.5,1-0.6,1.5-0.4l1.8,0.9l3.1,1.5c0.4,0.2,0.8,0.4,1.2,0.6
			c0.5,0.3,0.7,0.9,0.6,1.4C72.3,119.2,72.3,119.3,72.2,119.4z"/>
		<path class="st2" d="M59.9,135.5c0,0-0.2-0.4-0.5-1.2c-0.3-0.7-0.8-1.7-1.3-2.7c-0.6-1-1.1-2-1.6-2.6c-0.4-0.6-0.7-1-0.7-1.1
			c0.1,0.1,0.2,0.2,0.2,0.3c0.1,0.2,0.3,0.4,0.6,0.7c0.6,0.8,1.1,1.7,1.6,2.6c0.5,0.9,0.9,1.8,1.3,2.8c0.1,0.4,0.2,0.7,0.3,0.9
			C59.9,135.3,59.9,135.4,59.9,135.5z"/>
		<path class="st2" d="M61.5,125.4c0,0.1,0,0.3,0,0.4c0,0.3-0.1,0.7-0.2,1.1c-0.1,0.9-0.3,2.2-0.4,3.6s-0.1,2.7-0.1,3.6
			c0,0.4,0,0.8,0,1.1c0,0.1,0,0.3,0,0.4c0-0.1-0.1-0.3-0.1-0.4c0-0.3-0.1-0.6-0.1-1.1c-0.1-2.4,0-4.8,0.4-7.2
			c0.1-0.5,0.2-0.8,0.2-1.1C61.4,125.7,61.4,125.5,61.5,125.4z"/>
		<path class="st2" d="M62.8,131.6c0,0-0.3,0.9-0.5,2c-0.2,1.1-0.1,2.1-0.2,2.1c-0.1-0.2-0.1-0.4-0.1-0.6c0-1,0.1-2,0.5-3
			C62.6,131.9,62.7,131.7,62.8,131.6z"/>
		<path class="st2" d="M15.6,145.5c-0.2-0.3-0.3-0.7-0.4-1c-0.3-0.7-0.7-1.5-1.1-2.5c-0.5-1-1-1.8-1.3-2.4c-0.2-0.3-0.4-0.6-0.6-1
			c0,0,0.1,0.1,0.2,0.2c0.1,0.2,0.3,0.4,0.5,0.7c0.5,0.8,1,1.6,1.4,2.4c0.4,0.8,0.8,1.7,1.1,2.5c0.1,0.3,0.2,0.6,0.3,0.8
			C15.6,145.3,15.6,145.4,15.6,145.5z"/>
		<path class="st2" d="M16.8,144.7c0,0-0.5-2.1-1.1-4.6c-0.6-2.6-1-4.6-1-4.7c0,0,0.5,2.1,1.1,4.6C16.4,142.6,16.9,144.7,16.8,144.7
			z"/>
		<path class="st2" d="M18.4,137.9c0,0.4,0,0.8-0.1,1.2c-0.1,0.7-0.1,1.7-0.1,2.8s0,2.1,0.1,2.8c0,0.4,0.1,0.8,0.1,1.2
			c0-0.1-0.1-0.2-0.1-0.3c0-0.2-0.1-0.5-0.1-0.9c-0.2-1.9-0.2-3.8,0-5.7c0-0.4,0.1-0.7,0.1-0.9C18.3,138.1,18.4,138,18.4,137.9z"/>
		<path class="st2" d="M64.1,148.1c-0.2-0.3-0.4-0.6-0.5-1c-0.3-0.6-0.7-1.4-1.1-2.4c-0.4-0.9-0.8-1.8-1-2.4c-0.1-0.3-0.3-0.7-0.4-1
			c0.2,0.3,0.3,0.6,0.5,1c0.3,0.7,0.7,1.5,1,2.4l1,2.4C63.9,147.4,64,147.7,64.1,148.1z"/>
		<path class="st2" d="M64.8,139.4c0,0.4,0,0.8,0,1.2c0,0.7,0,1.8,0,2.9c0,1.1,0.1,2.2,0.2,2.9c0.1,0.4,0.1,0.8,0.1,1.2
			c0-0.1-0.1-0.2-0.1-0.3c0-0.2-0.1-0.5-0.1-0.9c-0.1-0.7-0.2-1.8-0.3-2.9s0-2.2,0-2.9c0-0.4,0-0.7,0.1-0.9
			C64.7,139.6,64.7,139.5,64.8,139.4z"/>
		<path class="st2" d="M67,140.3c0,0.3,0,0.5-0.1,0.8c-0.1,0.5-0.1,1.1-0.2,1.8s-0.1,1.4-0.2,1.8c0,0.3,0,0.5-0.1,0.8
			c0-0.3-0.1-0.5,0-0.8c0-0.5,0-1.1,0.1-1.8c0.1-0.7,0.2-1.4,0.3-1.8C66.9,140.8,67,140.6,67,140.3z"/>
	</g>
	<g id="freepik--character-2--inject-25">
		<path class="st2" d="M122,19c0.6-0.8,1.4-1.5,1.5-2.5c0.1-0.9-0.2-1.9,0.2-2.7c0.5-1,1.9-1.2,2.5-2.1c0.3-0.5,0.4-1,0.7-1.5
			c0.5-0.8,1.5-1,2.5-1c0.9,0,1.8,0.3,2.7,0.4c1.3,0,2.5-0.4,3.8-0.1c1.4,0.3,2.2,1.5,3.2,2.6l1.2,1.3c0.2,0.2,0.5,0.4,0.8,0.6
			c0.5,0.3,1,0.5,1.5,0.8c0.9,0.9,0.9,2.3,0.1,3.2c0,0,0,0-0.1,0.1c1,0.3,1.7,1.2,1.7,2.2c-0.1,0.6-0.2,1.1-0.4,1.6
			c-0.2,0.5-0.2,1.1,0,1.6c0.2,0.5,0.9,0.8,1.4,0.5c-0.1,0.7-0.6,1.4-1.3,1.7c0.3,0.3,0.7,0.4,1,0.4c-0.9,2.4-3.6,3.8-6.2,4
			c-2.6,0.1-5.2-0.7-7.6-1.6l-7.1-1.5c-0.6-0.1-0.9-0.8-0.9-1.5c0-0.6,0.1-1.3-0.1-1.9c-0.3-0.8-1.3-1.2-1.7-2
			C120.9,20.8,121.4,19.8,122,19z"/>
		<path class="st2" d="M139,24.6c0.5-1.6,0.8-3.2,1-4.9c0.2-1.7,0-3.4-0.7-4.9c-0.1-0.2-0.9-1.8-1.2-1.7c-0.2,0,0.4,1.5,0.3,1.6
			c-0.8,1.5-0.9,3.3-0.7,5C137.9,21.4,138.4,23,139,24.6"/>
		<path class="st4" d="M138.8,18.3c-0.1-4.2-2.6-7.6-6.8-7.4l-0.4,0c-3.9,0.4-6.8,3.7-6.7,7.6c0.1,3.6,0.2,7.6,0.5,9.6
			c0.5,4,4.5,4.2,4.5,4.2l0.2,4.4l9.6-1.9L138.8,18.3z"/>
		<path class="st5" d="M129.9,32.2c1.8-0.2,3.6-0.9,5-2.1c0,0-1,3.2-5,3.2V32.2z"/>
		<path class="st2" d="M126.3,21.6c0,0.3,0.3,0.5,0.6,0.5c0.3,0,0.5-0.3,0.5-0.6c0,0,0,0,0,0c0-0.3-0.3-0.5-0.6-0.5
			C126.5,21,126.3,21.3,126.3,21.6C126.3,21.6,126.3,21.6,126.3,21.6z"/>
		<path class="st2" d="M126,20.1c0.1,0.1,0.5-0.3,1.1-0.4c0.6-0.1,1.1,0.2,1.2,0.1s-0.1-0.2-0.3-0.3c-0.3-0.2-0.6-0.2-0.9-0.2
			c-0.3,0-0.6,0.2-0.9,0.4C126,19.9,125.9,20,126,20.1z"/>
		<path class="st2" d="M131.7,21.6c0,0.3,0.3,0.5,0.6,0.5c0.3,0,0.5-0.3,0.5-0.6c0,0,0,0,0,0c0-0.3-0.3-0.5-0.6-0.5
			C132,21,131.7,21.3,131.7,21.6C131.7,21.6,131.7,21.6,131.7,21.6z"/>
		<path class="st2" d="M132,19.7c0.1,0.1,0.5-0.3,1.1-0.4c0.6-0.1,1.1,0.2,1.2,0.1s-0.1-0.2-0.3-0.3c-0.3-0.2-0.6-0.2-0.9-0.2
			c-0.3,0-0.6,0.2-0.9,0.4C132,19.5,132,19.6,132,19.7z"/>
		<path class="st2" d="M130.3,24.6c-0.3-0.1-0.7-0.1-1-0.1c-0.2,0-0.3,0-0.3-0.1c0-0.2,0-0.3,0.1-0.5c0.1-0.4,0.2-0.8,0.3-1.2
			c0.5-1.8,0.8-3.2,0.7-3.2s-0.5,1.4-1,3.2l-0.3,1.2c-0.1,0.2-0.1,0.4,0,0.6c0.1,0.1,0.2,0.2,0.3,0.2c0.1,0,0.2,0,0.3,0
			C129.6,24.7,130,24.7,130.3,24.6z"/>
		<path class="st2" d="M132.2,24.9c-0.1,0,0,0.7-0.6,1.2c-0.5,0.5-1.2,0.5-1.2,0.6c0,0,0.2,0.1,0.5,0.1c0.4,0,0.8-0.2,1-0.5
			c0.3-0.3,0.4-0.6,0.4-1C132.3,25,132.2,24.8,132.2,24.9z"/>
		<path class="st2" d="M131.8,17.2c0.1,0.2,0.7,0,1.4,0s1.3,0.1,1.4,0c0-0.1-0.1-0.2-0.3-0.4c-0.7-0.3-1.5-0.3-2.2,0
			C131.9,17,131.8,17.1,131.8,17.2z"/>
		<path class="st2" d="M126,18c0.1,0.1,0.5-0.1,1-0.1c0.5-0.1,1,0,1-0.2c0-0.1,0-0.2-0.2-0.3c-0.3-0.1-0.6-0.2-0.9-0.1
			c-0.3,0-0.6,0.2-0.8,0.4C126,17.8,126,17.9,126,18z"/>
		<path class="st4" d="M138.8,21.2c0.1,0,2.7-1.1,2.9,1.6c0.2,2.7-2.6,2.4-2.6,2.3C139,25.1,138.8,21.2,138.8,21.2z"/>
		<path class="st5" d="M139.8,24.1c0,0,0,0,0.1,0.1c0.1,0,0.2,0,0.4,0c0.3-0.1,0.5-0.6,0.5-1.1c0-0.2-0.1-0.5-0.2-0.7
			c-0.1-0.2-0.2-0.3-0.4-0.3c-0.1,0-0.2,0-0.3,0.2c0,0.1,0,0.1,0,0.1c0,0-0.1,0,0-0.2c0-0.1,0-0.1,0.1-0.2c0.1-0.1,0.2-0.1,0.3-0.1
			c0.2,0,0.4,0.2,0.5,0.4c0.1,0.2,0.2,0.5,0.2,0.8c0,0.6-0.2,1.1-0.6,1.2c-0.1,0.1-0.3,0-0.4,0C139.8,24.1,139.8,24.1,139.8,24.1z"
			/>
		<path class="st2" d="M126.4,13.8c-0.5-0.2,0.8-1.7,1.8-2.3c1.6-0.9,4.1-1.5,5.6-1.1c1.9,0.4,3.4,1.2,4.5,2.8
			c1,1.6,1.5,3.5,1.6,5.4c0.1,0.6,0,1.2-0.3,1.7c-0.3,0.6-1.1,1.1-1,1.9c0,0.3,0,0.6-0.2,0.9c-0.5,0.6-1.1,0.1-1.4-0.4
			c-0.7-1-0.8-2.3-1-3.5c-0.1-0.9-0.1-1.8,0-2.6c0.1-0.5,0.3-0.9,0.4-1.4c0.1-0.5,0-1-0.3-1.4c-0.1-0.1-0.2-0.1-0.2-0.2
			c-0.8-0.6-1.9-0.8-2.9-0.4c-1.5,0.7-4.1,1.6-4.8,1.2c-1-0.7-1.3-1.2-1.3-1.2L126.4,13.8z"/>
		<path class="st2" d="M133.7,10c-1.6-0.4-3.2-0.2-4.6,0.6c-0.8,0.4-1.3,1.1-1.5,1.9c-0.2,0.8,0.2,1.8,1,2.1l0.1,0
			c1.2,0.3,1.9,0.1,3.1-0.4c1-0.4,1.8-1.1,2.8-1.5c1-0.4,2.2-0.5,3.3-0.3C136.7,11.3,135.3,10.5,133.7,10z"/>
		<path class="st3" d="M144,27.6c0,0-0.1,0-0.3,0c-0.3,0-0.5-0.1-0.7-0.3c-0.3-0.2-0.6-0.6-0.7-1c-0.1-0.5-0.1-1.1,0-1.6
			c0.1-0.6,0.4-1.2,0.6-2c0.1-0.4,0.1-0.8,0.1-1.2c0-0.4-0.2-0.8-0.5-1.2c-0.3-0.3-0.7-0.6-1.1-0.7c-0.4-0.1-0.8-0.3-1.2-0.5
			c-0.8-0.5-1.2-1.3-1.5-2.2s-0.4-1.8-0.7-2.7c-0.2-0.9-0.6-1.7-1.2-2.3c-0.6-0.6-1.4-0.9-2.2-0.9c-0.7,0-1.4,0.1-2,0.4
			c-0.9,0.5-1.6,1.1-2.2,2c-0.2,0.3-0.4,0.5-0.4,0.7c-0.1,0.1-0.1,0.2-0.1,0.2c0.1-0.1,0.1-0.1,0.2-0.2c0.1-0.2,0.3-0.4,0.5-0.7
			c0.6-0.8,1.3-1.4,2.2-1.9c0.6-0.3,1.3-0.4,1.9-0.4c0.8,0,1.5,0.3,2.1,0.8c0.6,0.6,1,1.4,1.2,2.2c0.2,0.9,0.4,1.8,0.7,2.7
			c0.3,0.9,0.8,1.8,1.6,2.3c0.4,0.2,0.8,0.4,1.2,0.5c0.4,0.1,0.7,0.3,1,0.6c0.2,0.3,0.4,0.7,0.4,1.1c0,0.4,0,0.7,0,1.1
			c-0.1,0.7-0.4,1.4-0.5,2c-0.1,0.6-0.1,1.1,0,1.7c0.1,0.4,0.4,0.8,0.8,1c0.2,0.2,0.5,0.2,0.8,0.2C143.8,27.6,143.9,27.6,144,27.6z"
			/>
		<path class="st3" d="M130.8,10c-0.3,0-0.6,0-0.8,0.1c-0.7,0.2-1.2,0.7-1.6,1.2c-0.4,0.6-0.6,1.3-0.6,2c0,0.3,0.1,0.6,0.2,0.8
			c0,0-0.1-0.3,0-0.8c0-1.3,0.8-2.5,2.1-3C130.5,10.1,130.9,10,130.8,10z"/>
		<path class="st3" d="M125.3,12.7c-0.2,0.3-0.3,0.6-0.2,1c0,0.6,0.3,1,0.3,1c0,0-0.1-0.4-0.1-1C125.3,13.2,125.4,12.8,125.3,12.7z"
			/>
		<path class="st4" d="M108,37L108,37l1.8,5.8l16.6-5.5l-2.4,10.4c0,0-13.7,2.3-15.8,2c-2.4-0.2-4.3-2.1-4.7-4.5
			c-0.2-1.3-0.2-7.8-0.2-7.8L108,37z"/>
		<path class="st5" d="M109.2,44.9c0,0,0.2-0.5,0.4-1.1s0.2-1.2,0.2-1.2c0.1,0.4,0.1,0.8-0.1,1.2C109.7,44.2,109.5,44.6,109.2,44.9z
			"/>
		<path class="st4" d="M108.4,29.3c0,0,0.8-1.5,1.3-0.2c0.1,0.3,0.2,1.2,0.4,1.7c0.1,0.4,0.3,0.7-0.1,1.6l-0.9,2.5
			c-0.2,0.4-0.4,0.8-0.7,1l-0.2,1.3v0.3l-4.7-0.1c0,0-1.7-2.1-1.7-2.9c0-0.8,0.5-0.9,0.5-0.9c-0.2-0.3-0.3-0.7-0.2-1
			c0.1-0.3,0.3-0.6,0.6-0.9c0,0-1.2-0.6-1-1.7c0.1-0.6,0.7-0.5,0.7-0.5s-0.2-0.9,0.2-1.1c0.3-0.1,0.7-0.1,1.1,0L108.4,29.3z"/>
		<path class="st3" d="M108.4,20.3v15.9c0,0.7-0.5,1.2-1.2,1.2h-1.9c-0.7,0-1.2-0.5-1.2-1.2V20.3H108.4z"/>
		<path class="st2" d="M108.4,20.3h-0.3h-0.8l-3.2,0l0,0c0,1.9,0,4.3,0,7.2c0,1.4,0,2.9,0,4.5v3.7c0,0.4-0.1,0.9,0.2,1.2
			c0.2,0.3,0.5,0.5,0.8,0.5c0.3,0,0.7,0,1.1,0h1c0.5,0,0.9-0.4,1.1-0.9c0-0.2,0-0.3,0-0.5c0-0.3,0-0.7,0-1v-1.9c0-2.5,0-4.7,0-6.6
			c0-1.9,0-3.4,0-4.5c0-0.5,0-0.9,0-1.2S108.3,20.3,108.4,20.3c0,0,0,0.1,0,0.4s0,0.7,0,1.2c0,1.1,0,2.6,0,4.5c0,1.9,0,4.2,0,6.7V35
			c0,0.3,0,0.7,0,1c0,0.2,0,0.3,0,0.5c0,0.2-0.1,0.3-0.2,0.5c-0.2,0.3-0.6,0.5-0.9,0.5h-1c-0.4,0-0.7,0-1.1,0
			c-0.4,0-0.7-0.3-0.9-0.6c-0.1-0.2-0.2-0.4-0.2-0.6c0-0.2,0-0.4,0-0.6V32c0-1.6,0-3.1,0-4.5c0-2.8,0-5.3,0-7.2v0h0l3.2,0h0.8
			L108.4,20.3z"/>
		<path class="st5" d="M108.7,31.3c-0.2-0.4-0.3-0.8-0.3-1.3c0-0.3,0-0.6,0.1-0.9c0.1-0.2,0.2-0.3,0.2-0.3c0,0-0.1,0.1-0.1,0.4
			c0,0.3,0,0.6,0,0.9C108.6,30.7,108.7,31.3,108.7,31.3z"/>
		<path class="st0" d="M108.4,20.6h-4.5c-0.1,0-0.3-0.1-0.3-0.3l0,0c0-0.1,0.1-0.3,0.3-0.3h4.5c0.1,0,0.3,0.1,0.3,0.3l0,0
			C108.7,20.5,108.6,20.6,108.4,20.6z"/>
		<path class="st2" d="M108.4,20.6c0,0,0,0,0.1,0c0.1,0,0.1-0.1,0.1-0.2c0-0.1-0.1-0.3-0.3-0.2c0,0,0,0-0.1,0h-0.7h-3.8
			c-0.1,0-0.2,0.1-0.2,0.2c0,0.1,0.1,0.2,0.2,0.2l0,0h1.3h1.7l1.1,0h0.3L108.4,20.6c-0.1-0.1-0.1-0.1-0.1-0.1H108h-1.1h-1.7h-1.3
			c-0.1,0-0.2-0.1-0.3-0.2c-0.1-0.1-0.1-0.2,0-0.3c0.1-0.1,0.2-0.2,0.3-0.2h3.8h0.7c0.1,0,0.2,0,0.3,0.1c0.1,0.1,0.1,0.1,0.1,0.2
			c0,0.1-0.1,0.2-0.2,0.3C108.5,20.5,108.5,20.6,108.4,20.6z"/>
		<path class="st3" d="M104.5,27.9v8c0,0.4,0.4,0.8,0.8,0.8l0,0h1.8c0.4,0,0.8-0.4,0.8-0.8l0,0v-8H104.5z"/>
		<path class="st4" d="M103.3,28.4c0.5,0.1,0.8,0.6,0.7,1.1c0,0.2-0.2,0.4-0.4,0.5c0.3,0.2,0.5,0.4,0.8,0.7c0.2,0.3,0.3,0.6,0.3,0.9
			c-0.1,0.3-0.4,0.6-0.7,0.6c0.5,0.1,0.9,0.4,1.2,0.7c0.2,0.4,0.1,1-0.4,1.1c0.1,0.2,0.1,0.5-0.1,0.6c-0.2,0.2-0.4,0.3-0.6,0.3
			c-0.7,0.2-1.4,0.3-2.1,0.4"/>
		<path class="st5" d="M101.9,35.3c0,0,0.4-0.1,1-0.2c0.3-0.1,0.7-0.1,1.1-0.3c0.2,0,0.4-0.1,0.6-0.3c0.2-0.1,0.2-0.4,0.1-0.6l0,0
			c0,0,0-0.1,0-0.1c0,0,0,0,0,0c0,0,0,0,0,0c0.3,0,0.4-0.4,0.4-0.7c-0.1-0.3-0.3-0.6-0.7-0.7c-0.2-0.1-0.4-0.2-0.6-0.2
			c0,0-0.1-0.1-0.1-0.1c0,0,0,0,0,0c0,0,0.1-0.1,0.1-0.1c0.3,0,0.5-0.1,0.6-0.4c0.1-0.2,0.1-0.5,0-0.7c-0.2-0.4-0.5-0.7-0.9-1l0,0
			c0,0,0-0.1,0-0.1l0,0c0.2-0.2,0.3-0.4,0.4-0.7c0-0.2-0.1-0.4-0.2-0.6c-0.1-0.1-0.3-0.2-0.4-0.3c0,0,0.1,0,0.1,0
			c0.1,0,0.3,0.1,0.4,0.2c0.2,0.2,0.3,0.4,0.3,0.6c0,0.3-0.1,0.6-0.4,0.8v-0.1c0.4,0.2,0.8,0.6,1,1c0.1,0.3,0.1,0.6,0,0.8
			c-0.1,0.3-0.4,0.5-0.8,0.5l0-0.2c0.2,0.1,0.4,0.1,0.6,0.2c0.4,0.2,0.6,0.5,0.7,0.9c0,0.2,0,0.4-0.1,0.6c-0.1,0.2-0.3,0.3-0.4,0.3
			l0.1-0.1c0.1,0.1,0.1,0.3,0.1,0.4c0,0.1-0.1,0.2-0.2,0.3c-0.2,0.1-0.4,0.2-0.7,0.3c-0.4,0.1-0.7,0.2-1.1,0.2
			c-0.3,0-0.6,0.1-0.7,0.1C102.1,35.3,102,35.3,101.9,35.3z"/>
		<path class="st5" d="M104.8,34.1c0,0-0.1-0.1-0.4-0.2c-0.3-0.1-0.6-0.2-0.9-0.2c-0.3,0-0.7,0-1,0c-0.1,0-0.3,0-0.4,0
			c0,0,0.1-0.1,0.4-0.1c0.3-0.1,0.7-0.1,1-0.1c0.3,0,0.7,0.1,1,0.3C104.7,34,104.8,34.1,104.8,34.1z"/>
		<path class="st5" d="M102.5,31.7c0.3-0.1,0.5,0,0.8,0.1c0.3,0.1,0.5,0.2,0.7,0.4C103.5,32,103,31.9,102.5,31.7z"/>
		<path class="st5" d="M102.2,29.6c0.3,0,0.5,0,0.8,0.1c0.4,0.1,0.7,0.3,0.7,0.3c-0.3,0-0.5-0.1-0.8-0.2
			C102.7,29.8,102.4,29.7,102.2,29.6z"/>
		<path class="st2" d="M106.1,25.5c-0.4,0-0.9,0-1.3,0C105.2,25.5,105.7,25.5,106.1,25.5z"/>
		<path class="st2" d="M106.1,27.9c-0.4,0-0.9,0-1.3,0C105.2,27.8,105.7,27.8,106.1,27.9z"/>
		<path class="st2" d="M106.1,30.2c-0.4,0-0.9,0-1.3,0C105.2,30.2,105.7,30.2,106.1,30.2z"/>
		<path class="st2" d="M106.1,32.5c-0.4,0-0.9,0-1.3,0C105.2,32.5,105.7,32.5,106.1,32.5z"/>
		<path class="st2" d="M106.1,34.9c-0.4,0-0.9,0-1.3,0C105.2,34.8,105.7,34.8,106.1,34.9z"/>
		<path class="st2" d="M106.1,23.3c-0.4,0-0.9,0-1.3,0C105.2,23.3,105.7,23.3,106.1,23.3z"/>
		<path class="st2" d="M108.4,20.6c0,0-1,0-2.2,0s-2.2,0-2.2,0c0,0,1,0,2.2,0S108.4,20.6,108.4,20.6z"/>
		<path class="st2" d="M105.5,22.1c-0.1,0-0.2,0-0.3,0c-0.1,0-0.2,0-0.3,0c0.1,0,0.2,0,0.3,0C105.2,22.1,105.4,22.1,105.5,22.1z"/>
		<path class="st2" d="M105.5,24.3c-0.1,0-0.2,0-0.3,0c-0.1,0-0.2,0-0.3,0c0.1,0,0.2,0,0.3,0C105.2,24.3,105.4,24.3,105.5,24.3z"/>
		<path class="st2" d="M105.5,26.7c-0.1,0-0.2,0-0.3,0c-0.1,0-0.2,0-0.3,0c0.1,0,0.2,0,0.3,0C105.2,26.7,105.4,26.7,105.5,26.7z"/>
		<path class="st2" d="M105.5,29c-0.1,0-0.2,0-0.3,0c-0.1,0-0.2,0-0.3,0c0.1,0,0.2,0,0.3,0C105.2,28.9,105.4,28.9,105.5,29z"/>
		<path class="st2" d="M105.5,31.3c-0.1,0-0.2,0-0.3,0c-0.1,0-0.2,0-0.3,0c0.1,0,0.2,0,0.3,0C105.2,31.2,105.4,31.2,105.5,31.3z"/>
		<path class="st2" d="M105.5,33.8c-0.1,0-0.2,0-0.3,0c-0.1,0-0.2,0-0.3,0c0.1,0,0.2,0,0.3,0C105.2,33.7,105.4,33.7,105.5,33.8z"/>
		<path class="st6" d="M124.8,52.4l1.1-10.6l6.5-6.6c0,0,4.4-0.5,6-0.5c1.5,0,1.7,0,1.7,0s5.6,3.3,6.2,6.5c0.5,2.7,0.1,12,0.1,12
			L124.8,52.4z"/>
		<polygon class="st6" points="132.3,35.3 128.1,36.1 116.7,40.4 118.1,49 125.4,48.4 125.7,52 		"/>
		<path class="st2" d="M126.8,39.8c0,0.2,0,0.3,0,0.5c0,0.3-0.1,0.8-0.2,1.3c-0.2,1.1-0.4,2.6-0.7,4.3s-0.6,3.2-0.8,4.3l-0.2,1.3
			c0,0.2-0.1,0.3-0.1,0.5c0-0.2,0-0.3,0-0.5c0-0.3,0.1-0.8,0.2-1.3c0.2-1.1,0.4-2.6,0.7-4.3c0.3-1.7,0.6-3.2,0.8-4.3
			c0.1-0.5,0.2-1,0.2-1.3C126.8,40.1,126.8,40,126.8,39.8z"/>
		<polygon class="st3" points="141.1,91.7 141.1,105.2 139.9,108.6 141.1,112 146.4,132.4 136.7,132.4 128.9,109.4 131.2,98.1 		"/>
		<path class="st3" d="M124.4,51.9c0,0.7-3.5,23.5-3.5,23.5l-3.5,35.4l7.1,21.7h14.8c0,0-2.4-13.8-3.5-16.1s-2.1-3.9-2.1-3.9l1-1.1
			l-0.3-5.5l6.8-14.1L143,81l3.9-28.1L124.4,51.9z"/>
		<g class="st7">
			<path d="M140.1,64.5c-0.6,0-1.1,0.5-1.6,0.9L128,75.7c-1.4,1.4-2.8,2.8-3.8,4.5c-1.5,2.8-1.7,6.1-0.5,9.1l0.7-0.7
				c1.2-0.4,1.4-1.9,1.9-3c0.5-1.4,1.5-2.5,2.5-3.6l11.3-12.8c0.7-0.7,1.3-1.6,1.5-2.5C141.8,65.6,141.1,64.4,140.1,64.5z"/>
		</g>
		<path class="st2" d="M143.8,74.8C143.8,74.8,143.8,74.8,143.8,74.8c0,0.1,0,0.2,0,0.3c0,0.2-0.1,0.5-0.1,0.9
			c-0.1,0.8-0.3,1.9-0.5,3.3c-0.5,2.9-1.1,7-1.9,11.8l0,0l0,0c-1.7,3.7-3.7,8-5.8,12.5c-0.4,0.8-0.7,1.5-1,2.2v0
			c0.1,1.9,0.2,3.7,0.3,5.5v0l0,0l-1,1.1v-0.1c0.5,0.6,0.9,1.2,1.2,1.9c0.3,0.6,0.6,1.3,0.8,2c0.5,1.3,0.9,2.6,1.2,3.8
			c0.6,2.5,1.1,4.6,1.4,6.5c0.3,1.8,0.5,3.3,0.7,4.3c0.1,0.5,0.1,0.9,0.2,1.1l0,0.3c0,0.1,0,0.1,0,0.1c0,0,0-0.1,0-0.1
			c0-0.1,0-0.2,0-0.3c0-0.3-0.1-0.7-0.2-1.1c-0.2-1-0.4-2.4-0.7-4.3s-0.8-4-1.4-6.5c-0.3-1.2-0.7-2.5-1.2-3.8
			c-0.2-0.7-0.5-1.3-0.8-2c-0.3-0.7-0.7-1.3-1.2-1.8l0-0.1l0-0.1l1-1.1l0,0.1c-0.1-1.7-0.2-3.6-0.3-5.5v0v0c0.3-0.7,0.7-1.5,1-2.2
			c2.1-4.5,4.1-8.8,5.8-12.5v0c0.8-4.9,1.5-8.9,2-11.8c0.2-1.4,0.4-2.6,0.6-3.3c0.1-0.4,0.1-0.7,0.2-0.9L143.8,74.8
			C143.8,74.8,143.8,74.8,143.8,74.8z"/>
		<path class="st8" d="M133,101.8c0-0.2,0-0.3,0.1-0.5c0.1-0.3,0.2-0.7,0.3-1.3c0.3-1.1,0.8-2.5,1.3-4.1c0.6-1.6,1.2-3,1.6-4
			c0.2-0.5,0.4-0.9,0.6-1.2c0.1-0.1,0.1-0.3,0.2-0.4c0,0.2-0.1,0.3-0.2,0.4c-0.1,0.3-0.3,0.7-0.5,1.2c-0.4,1-1,2.4-1.6,4
			c-0.6,1.6-1,3-1.4,4.1c-0.2,0.5-0.3,0.9-0.4,1.3C133.1,101.5,133.1,101.6,133,101.8z"/>
		<path class="st8" d="M132.2,106c-0.1-0.5-0.1-1.1,0-1.6C132.4,105,132.4,105.5,132.2,106z"/>
		<path class="st8" d="M131.8,109.9c0,0-0.2-0.1-0.2-0.4c-0.1-0.2-0.1-0.4-0.1-0.4s0.2,0.1,0.2,0.4
			C131.8,109.7,131.8,109.9,131.8,109.9z"/>
		<path class="st8" d="M134.9,121.4c-0.1-0.4-0.2-0.7-0.3-1.1c-0.2-0.9-0.5-1.7-0.8-2.5c-0.3-0.8-0.6-1.6-1-2.4
			c-0.2-0.3-0.3-0.6-0.5-1c0,0,0.1,0.1,0.2,0.2c0.1,0.2,0.2,0.4,0.4,0.7c0.8,1.6,1.4,3.3,1.8,5c0.1,0.3,0.1,0.6,0.1,0.8
			C134.9,121.2,134.9,121.3,134.9,121.4z"/>
		<path class="st8" d="M137.9,82.2c0,0,0-0.1,0-0.1c0-0.1,0-0.3,0-0.4c0.1-0.5,0.2-0.9,0.4-1.3c0.2-0.5,0.7-1.1,0.9-1.8
			c0.1-0.4,0.2-0.7,0.2-1.1c0-0.4-0.1-0.8-0.3-1.2c-0.3-0.3-0.6-0.6-1-0.7c-0.4-0.2-0.7-0.5-0.8-0.9c-0.1-0.4-0.2-0.7-0.1-1.1
			c0.1-0.3,0.2-0.6,0.4-0.9c0.3-0.4,0.6-0.7,1-0.9c0.1-0.1,0.3-0.2,0.4-0.3c-0.1,0.1-0.3,0.2-0.4,0.3c-0.4,0.3-0.7,0.6-1,0.9
			c-0.2,0.2-0.3,0.5-0.4,0.8c-0.1,0.3-0.1,0.7,0.1,1c0.2,0.3,0.5,0.6,0.8,0.8c0.4,0.2,0.8,0.5,1,0.8c0.3,0.4,0.4,0.8,0.3,1.3
			c0,0.4-0.1,0.8-0.3,1.2c-0.1,0.3-0.3,0.7-0.5,1c-0.2,0.3-0.3,0.6-0.5,0.8c-0.2,0.4-0.4,0.8-0.5,1.3
			C137.9,82,137.9,82.2,137.9,82.2z"/>
		<path class="st9" d="M139.9,94.3L136,106l0.5,6c0,0,3.5,16.1,3.4,20.3l-0.8-1.5c0,0-1.2-13.1-5.4-18.4l1-1.1l-0.3-5.5L139.9,94.3z
			"/>
		<path class="st4" d="M132.1,45.1l1.5,16.5l-10.8,14.9l2.9,5.1c0,0,15.8-15.4,16.4-16.8c0.6-1.5-0.7-25.3-0.7-25.3
			s-3.8-2.4-5.8-1.6C133.6,38.7,132.1,45.1,132.1,45.1z"/>
		<path class="st4" d="M116.3,86.4c0,0,1-4.4,1.2-4.9c0.2-0.5,5.8-5.5,5.8-5.5l5.3,2.2l-2,1.9c0,0-0.2,2.4-0.8,3.3
			c-0.6,0.9-1.4,2.1-1.4,2.1l-0.3,1.8l-0.3,2.1c0,0-0.5,0.7-0.9,0c-0.4-0.7-0.2-2.3-0.2-2.3l-0.1-1.6c0,0-0.7,1.8-0.8,2.1
			s0.1,2.2-0.1,2.4c-0.3,0.2-0.7,0.2-1,0c-0.3-0.3-0.6-2.1-0.6-2.1l-0.1-1.5l-0.3,1.4l-0.4,1.6c0,0-0.4,0.4-0.8-0.3
			c-0.4-0.7-0.4-3.1-0.4-3.1l0.2-1.4l-0.7,1.4l-0.4,1.7C117.4,87.8,116.3,88.4,116.3,86.4z"/>
		<path class="st6" d="M132.1,51.9h11.3c0,0,0.6-14.9-4.7-15.6c-4.6-0.6-7.6,4-7.2,8.5C131.8,49.2,132.1,51.9,132.1,51.9z"/>
		<path class="st2" d="M142.2,40.5c0.3,1,0.6,2.1,0.7,3.1c0.4,2.7,0.6,5.5,0.5,8.3v0.1h-0.1h-7.7H132v-0.1c-0.2-2.2-0.4-4.3-0.6-6.2
			c-0.1-0.9-0.1-1.8-0.1-2.7c0.1-0.8,0.3-1.5,0.5-2.2c0.4-1,1-2,1.8-2.8c0.1-0.1,0.3-0.2,0.4-0.3c0.1-0.1,0.2-0.2,0.3-0.2l0.2-0.1
			l0.1,0c0,0,0,0-0.1,0.1l-0.2,0.1c-0.1,0.1-0.2,0.2-0.3,0.2c-0.1,0.1-0.3,0.2-0.4,0.4c-0.8,0.8-1.3,1.7-1.7,2.8
			c-0.3,0.7-0.4,1.5-0.5,2.2c-0.1,0.9,0,1.8,0.1,2.6c0.2,1.9,0.4,4,0.6,6.2l-0.1-0.1h3.5h7.7l-0.1,0.1c0.1-2.8-0.1-5.5-0.4-8.2
			c-0.1-0.5-0.2-0.9-0.2-1.3c-0.1-0.4-0.2-0.7-0.2-1c-0.1-0.3-0.1-0.5-0.2-0.6C142.2,40.6,142.2,40.6,142.2,40.5z"/>
		<path class="st2" d="M126.2,51.9c0,0,0.7-4.8,2.1-8.4c1.7-4.3,5.7-7.9,9.8-8.2c5.2-0.4,7.9,6.4,8,8.7c0.3,3.3-0.1,8.7-0.1,8.7
			l-1,0c0,0,1.2-10.2-2.1-13.9c-4.4-4.8-8.6-1.4-10.2,0.2c-1.7,1.6-2.9,4.1-3.6,6.1c-0.7,2-1.5,6.8-1.5,6.8L126.2,51.9z"/>
	</g>
	<g id="freepik--character-1--inject-25">
		<path class="st2" d="M52.2,60.9c0.9-0.9,1-2.4,0.3-3.5c-0.6-1.1-1.8-1.8-3-2.1c-1.2-0.3-2.5-0.4-3.7-0.3c-0.8-2.1-3.1-3.1-5.1-2.3
			c-0.8,0.3-1.5,0.8-1.9,1.6c-1.1-0.9-2.7-0.7-3.6,0.4c-0.3,0.4-0.5,0.9-0.5,1.4l4.3,4.1l1.2,12.3c1.2,2.4,4.1,3.5,6.5,2.3
			c2-0.9,3.1-3.1,2.7-5.3c0.4-0.1,0.8-0.3,1.2-0.6c1.1-0.1,2.2-0.7,2.9-1.6C54.9,65.2,54.3,62.1,52.2,60.9z"/>
		<path class="st10" d="M39.7,79.7c0.4-1.7,0.7-2.9,0.7-2.9s3.5,0.2,5.2-4.1c0.8-2.1,1.5-5.8,2-8.8c0.4-2.7-0.6-6.3-3.3-6.6
			l-8.7,0.3c-0.8-0.1-1.3,0.5-1.4,1.3l-0.2,0.4l-2.4,12.8l-1.1,5.7c-0.5,2.4,1,4.8,3.4,5.5l0,0c2.5,0.7,5.2-0.7,5.9-3.3
			C39.7,79.9,39.7,79.8,39.7,79.7z"/>
		<path class="st2" d="M45.2,67.7c-0.1,0.3-0.4,0.5-0.7,0.5c0,0,0,0,0,0c-0.3,0-0.5-0.3-0.5-0.6c0,0,0,0,0,0
			c0.1-0.3,0.4-0.5,0.7-0.5C45.1,67.1,45.3,67.3,45.2,67.7C45.2,67.7,45.2,67.7,45.2,67.7z"/>
		<path class="st2" d="M46.1,66.1c-0.1,0.1-0.4-0.4-1.1-0.5c-0.6-0.1-1.1,0.1-1.2,0c0,0,0.1-0.2,0.3-0.3c0.3-0.1,0.6-0.2,1-0.1
			c0.3,0.1,0.6,0.2,0.8,0.5C46.1,65.9,46.2,66,46.1,66.1z"/>
		<path class="st2" d="M40,66.6c-0.1,0.3-0.4,0.5-0.7,0.5c-0.3,0-0.5-0.3-0.5-0.6c0,0,0,0,0,0c0.1-0.3,0.4-0.5,0.7-0.5
			C39.9,66,40.1,66.2,40,66.6C40,66.5,40,66.6,40,66.6z"/>
		<path class="st2" d="M40.3,64.7c-0.1,0.1-0.4-0.4-1.1-0.5c-0.6-0.1-1.1,0.1-1.2,0c0,0,0.1-0.2,0.3-0.3c0.3-0.1,0.6-0.2,1-0.1
			c0.3,0.1,0.6,0.2,0.8,0.5C40.3,64.5,40.4,64.7,40.3,64.7z"/>
		<path class="st2" d="M41.6,69.5c0.3,0,0.7,0,1,0c0.2,0,0.3,0,0.4-0.1c0-0.2,0-0.3,0-0.5c-0.1-0.4-0.1-0.8-0.2-1.3
			c-0.3-1.8-0.4-3.3-0.4-3.3c0.1,0,0.4,1.5,0.6,3.3c0.1,0.5,0.1,0.9,0.2,1.3c0.1,0.2,0,0.4-0.1,0.6c-0.1,0.1-0.2,0.2-0.3,0.2
			c-0.1,0-0.2,0-0.3,0C42.2,69.7,41.9,69.6,41.6,69.5z"/>
		<path class="st11" d="M40.4,76.8c-2.1-0.4-4-1.4-5.6-2.9c0,0,0.8,3.5,5.3,4L40.4,76.8z"/>
		<path class="st2" d="M40.7,63c-0.1,0.1-0.7-0.1-1.4-0.2c-0.7-0.1-1.4-0.1-1.4-0.3c0-0.1,0.1-0.2,0.4-0.3c0.4-0.1,0.7-0.1,1.1,0
			c0.4,0.1,0.7,0.2,1,0.5C40.6,62.8,40.7,63,40.7,63z"/>
		<path class="st2" d="M46.5,64.3c-0.2,0.1-0.6-0.1-1.2-0.3c-0.6-0.1-1.1-0.1-1.2-0.3c0-0.1,0.1-0.2,0.3-0.3c0.3-0.1,0.7-0.1,1,0
			c0.3,0.1,0.7,0.2,0.9,0.5C46.6,64.1,46.6,64.2,46.5,64.3z"/>
		<path class="st2" d="M38.5,55.7c-0.4,1.7,0.7,3.3,2.3,3.7c0.2,0,0.4,0.1,0.6,0.1c0.7,0,1.5-0.2,2,0.3c0.5,0.5,0.4,1.4,0.8,2
			c0.6,0.8,2,0.5,3,1c0.7,0.4,1,1.2,1.4,2c0.4,0.7,1,1.5,1.8,1.4c0.1-0.7,0.2-1.4,0.1-2.1c0-0.7-0.3-1.4-0.8-1.9
			c-0.3-0.2-0.6-0.5-0.9-0.8c-0.5-0.7-0.5-1.6-0.7-2.4C47.9,58,47,57.2,46,56.8c-0.8-0.3-1.8-0.2-2.6-0.6c-0.6-0.3-1.1-0.8-1.7-1.1
			c-1.2-0.5-2.5,0.1-3.6,0.8"/>
		<path class="st2" d="M42,58.3c-0.5-0.3-1.6-0.9-1.8-1.4c-0.4-1.2-1.4-2.2-2.6-2.3c-1.3-0.2-2.5,0.5-3,1.6c-1.5-0.3-3,0.3-4,1.5
			c-1,1.2-1.3,2.9-0.8,4.4c0.1,0.4,0.2,0.8,0.2,1.2c-0.4,0.2-0.8,0.4-1.1,0.7c-1.7,1.5,0.3,3.3,0.3,3.3c-0.6,1.3,0.6,1.8,1.4,2.1
			c0.8,0.3,0.3,2.5,0.9,2.7l2.2-6.5c0.1,0.1,0.2,0.1,0.3,0.2c1.4,0.7,2.3-2.2,2.1-3.1c0.7-0.3,1.3-0.8,1.8-1.2
			c0.5-0.5,1.3-2.1,1.4-2.9C39.8,58.7,42.3,58.5,42,58.3z"/>
		<path class="st10" d="M33.8,66c0.1-0.7-0.3-1.4-1-1.5c-0.2,0-0.4,0-0.6,0c-0.5,0.2-1,0.6-1.1,1.6c-0.5,2.7,2.3,2.6,2.3,2.5
			S33.6,67.1,33.8,66z"/>
		<path class="st11" d="M32.7,67.5c0,0-0.1,0-0.1,0c-0.1,0-0.2,0-0.4-0.1c-0.3-0.2-0.4-0.7-0.4-1.1c0-0.2,0.1-0.5,0.2-0.7
			c0.1-0.2,0.2-0.3,0.4-0.3c0.1,0,0.2,0.1,0.3,0.2c0,0.1,0,0.1,0,0.1s0.1,0,0.1-0.2c0-0.1,0-0.1-0.1-0.2c-0.1-0.1-0.2-0.1-0.2-0.1
			c-0.2,0-0.4,0.1-0.6,0.3c-0.2,0.2-0.3,0.5-0.3,0.7c-0.1,0.5,0.1,1.1,0.5,1.3c0.1,0.1,0.3,0.1,0.4,0C32.7,67.6,32.7,67.5,32.7,67.5
			z"/>
		<path class="st3" d="M48.3,68.5c0.3-0.1,0.5-0.2,0.8-0.3c0.7-0.3,1.2-0.9,1.6-1.5c0.3-0.4,0.4-0.9,0.5-1.5c0.1-0.6,0-1.2-0.3-1.7
			c-0.6-1.2-1.8-2.1-3.2-2.2c-0.1,0-0.3,0-0.4,0s-0.2,0-0.4,0l-0.2,0l0.1-0.2c0.1-0.3,0.1-0.6,0-0.9c-0.1-0.3-0.3-0.6-0.5-0.8
			c-0.4-0.4-1-0.7-1.6-0.8c-1.1-0.2-2.2-0.2-3.1-0.4c-0.7-0.2-1.3-0.6-1.7-1.2c-0.1-0.2-0.2-0.4-0.2-0.5c0-0.1,0-0.2,0-0.2
			c0.1,0.2,0.1,0.5,0.3,0.7c0.4,0.6,1,1,1.7,1.1c0.5,0.1,0.9,0.2,1.4,0.2c0.6,0,1.1,0.1,1.7,0.2c0.3,0.1,0.6,0.2,0.9,0.3
			c0.3,0.2,0.6,0.4,0.8,0.6c0.2,0.3,0.4,0.6,0.5,0.9c0.1,0.4,0.1,0.7-0.1,1.1L47,61c0.1,0,0.3,0,0.4,0c0.1,0,0.3,0,0.4,0
			c1.4,0.1,2.7,1,3.3,2.4c0.2,0.6,0.3,1.2,0.3,1.8c-0.2,1.3-1,2.5-2.2,3c-0.2,0.1-0.4,0.2-0.6,0.2C48.5,68.4,48.4,68.5,48.3,68.5z"
			/>
		<path class="st3" d="M51.6,59.7c-0.2-0.2-0.4-0.4-0.7-0.6c-0.3-0.2-0.6-0.3-1-0.3c-0.4-0.1-0.9,0-1.3,0.3l-0.2,0.1V59
			c0-1.1-0.6-2.2-1.5-2.7c-0.8-0.5-1.7-0.4-2.5-0.4C43.9,56,43.1,56,42.4,56c-0.5,0-1-0.2-1.4-0.4c-0.1-0.1-0.2-0.2-0.3-0.3
			c-0.1-0.1-0.1-0.1-0.1-0.1s0.1,0.1,0.4,0.3c0.4,0.2,0.9,0.3,1.4,0.4c0.7,0,1.4,0,2.1-0.2c0.4-0.1,0.9-0.1,1.3,0
			c0.5,0,0.9,0.2,1.3,0.4c1,0.6,1.6,1.7,1.6,2.9l-0.1-0.1c0.4-0.2,0.9-0.3,1.4-0.3c0.4,0,0.7,0.2,1,0.4c0.2,0.1,0.4,0.3,0.5,0.5
			C51.6,59.6,51.6,59.7,51.6,59.7z"/>
		<path class="st2" d="M39.4,69.7c0,0,0,0.2,0.1,0.4c0.2,0.6,0.7,1,1.3,1c0.2,0,0.4,0,0.4,0c0,0-0.1,0.1-0.4,0.1
			c-0.7,0.1-1.4-0.4-1.5-1.2C39.3,69.8,39.4,69.7,39.4,69.7z"/>
		<path class="st2" d="M31.6,59.5c0,0-0.1-0.1-0.1-0.1c-0.1-0.1-0.1-0.2-0.2-0.4c-0.2-0.5-0.3-1-0.3-1.5c0-0.4,0.1-0.7,0.3-1.1
			c0.2-0.4,0.5-0.7,0.9-0.9c0.4-0.2,0.9-0.3,1.4-0.1c0.5,0.1,0.9,0.5,1.1,1l-0.1,0v0c-0.1-1,0.3-2,0.9-2.7c0.5-0.6,1.3-0.9,2.2-0.8
			c0.5,0.1,1,0.4,1.3,0.8c0.1,0.1,0.1,0.3,0.2,0.4c0,0,0,0.1,0,0.1c-0.1-0.2-0.2-0.3-0.3-0.5c-0.3-0.4-0.8-0.7-1.3-0.8
			c-0.8-0.1-1.5,0.2-2,0.8c-0.6,0.7-0.9,1.7-0.8,2.6v0v0.4l-0.2-0.4c-0.2-0.4-0.6-0.8-1-0.9c-0.4-0.1-0.9-0.1-1.3,0.1
			c-0.4,0.2-0.7,0.5-0.9,0.8c-0.2,0.3-0.3,0.6-0.3,1c0,0.5,0,1,0.2,1.5C31.4,59.3,31.6,59.5,31.6,59.5z"/>
		<path class="st10" d="M49.7,97.2l-7.2-14.8l-1.9,9.5c0,0,4.1,10.7,5.2,11.2s14-3.4,14-3.4l-4.2-3.9L49.7,97.2z"/>
		<path class="st6" d="M16.7,87.1c0,0,3.4-9.4,7-10.6c2.3-0.7,4.7-1.1,7.1-1.2c2.6,4.5,8.6,5.2,9.2,3.3l1.4,0.9
			c0.9,0.7,1.8,1.5,2.4,2.4l4.7,7.7l-8.2,5l-1.2-3.7l-0.9,4L16.7,87.1z"/>
		<path class="st2" d="M41.3,85.1c-0.1,0.5-0.3,1-0.4,1.5c-0.3,0.9-0.7,2.1-1.2,3.5c-0.5,1.3-1,2.6-1.3,3.4c-0.2,0.4-0.3,0.8-0.4,1
			c0,0.1-0.1,0.3-0.2,0.4c0-0.1,0.1-0.3,0.1-0.4c0.1-0.2,0.2-0.6,0.4-1.1c0.3-0.9,0.7-2.1,1.2-3.5c0.5-1.3,1-2.6,1.3-3.4l0.4-1
			C41.2,85.4,41.2,85.3,41.3,85.1z"/>
		<path class="st2" d="M16,86.4c0,0,4.4-7.8,7.1-9.7c3.2-2.3,6.4-1.6,8.1,0.7c1.7,2.4,1,11.3,1,15c0,0.6-0.5,1-1.1,1
			c-0.1,0-0.2,0-0.3,0l0,0c-0.5-0.1-0.8-0.6-0.7-1.2c0.4-2.9,1.6-11.7,0.3-14.3c-0.7-1.4-4.1-2.4-6.2-0.8c-3.3,2.5-6.4,9.7-6.4,9.7
			L16,86.4z"/>
		<path class="st2" d="M45.9,81.5c-0.6-0.6-1.7-0.7-2.3,0l0.3,0.4c0.6-0.3,1.3,0,1.7,0.6c0.4,0.6,0.2,1.3-0.1,2
			c-0.3,0.7-0.7,1.3-1.2,1.8l-6.7,7.3c-0.2,0.2-0.4,0.6-0.3,0.8c0.2,0.4,0.9,0.1,1.2-0.2c2.4-2.5,4.9-5,6.9-7.9
			c0.5-0.7,0.9-1.5,1.2-2.4C46.8,83.2,46.5,82.2,45.9,81.5z"/>
		<g class="st7">
			<path d="M55.8,109.4c-2-2.6-4.6-4.7-7.5-6l-2.1,0.7c-0.5,3-0.7,6.1-0.5,9.1c0,0.1,0,0.3,0.1,0.4c0.2,0.2,0.4,0.1,0.7,0
				c3-1.2,6.4-1.8,9.6-2.3C56.1,110.8,55.9,109.9,55.8,109.4z"/>
		</g>
		<path class="st3" d="M46.3,107.5c0,0,11-1.3,12.9-0.8c1.9,0.6,3.4,3,3.5,5.5c0,0.3,0,0.6-0.1,0.9c-0.3,2.4-0.7,5.2-3.6,6.7
			L38.2,130l-2.7-10.7L46.3,107.5z"/>
		<path class="st2" d="M43.6,115l5.6,11.1l-12.6,5.4l0.9,1.3c0,0,4.7,3.7,3.7,5.6c-0.6,1.1-1.4,0.8-1.4,0.8l-14.4-7.9l5-8L43.6,115z
			"/>
		<path class="st3" d="M16.6,112.7c0,0,13-7.8,17.1-9.6c4-1.7,9.4-4,12.7-1.7c3.3,2.3,3.9,6.1,2.8,8.5c-1,2.1-6.3,9.5-6.3,9.5
			l-15.2,5.4c-2.2,0.8-4.6,1.1-6.9,1.1c-3.8-0.1-7.2-4.1-7.2-4.1l-1.5-3.9L16.6,112.7z"/>
		<path class="st2" d="M38.2,106.2c0,0-0.1,0.1-0.2,0.1l-0.5,0.3c-0.2,0.2-0.5,0.4-0.7,0.6c-0.1,0.1-0.3,0.2-0.4,0.4l-0.4,0.5
			c-1.2,1.3-2.5,3.4-3.5,5.9c-0.5,1.2-0.9,2.5-1.3,3.6c-0.4,1.1-0.7,2.1-0.9,3c-0.2,0.8-0.4,1.5-0.6,2l-0.2,0.5c0,0.1,0,0.1-0.1,0.2
			c0-0.1,0-0.1,0-0.2c0-0.1,0.1-0.3,0.1-0.6c0.1-0.5,0.3-1.2,0.5-2c0.2-0.9,0.5-1.9,0.9-3c0.4-1.1,0.8-2.3,1.3-3.6
			c1-2.5,2.3-4.6,3.6-5.9l0.4-0.5c0.1-0.1,0.3-0.2,0.4-0.4c0.2-0.2,0.5-0.4,0.7-0.5l0.5-0.3C38.1,106.3,38.2,106.2,38.2,106.2z"/>
		<path class="st2" d="M53.4,112.6c-0.3,0.1-0.7,0.2-1.1,0.3c-0.9,0.2-1.7,0.4-2.5,0.7c-0.8,0.3-1.6,0.6-2.4,1
			c-0.3,0.2-0.6,0.3-1,0.4c0.3-0.2,0.6-0.4,0.9-0.5c0.8-0.4,1.6-0.8,2.4-1.1c0.8-0.3,1.7-0.5,2.6-0.7
			C52.6,112.6,53,112.6,53.4,112.6z"/>
		<path class="st3" d="M15.1,86c0,0-1.4,5.4-2.7,9.3c-1.1,3.4-2.2,10.6-2,14.7c0.2,4.1,0.4,8.6,4.5,13.2
			c3.2,3.5,20.4-17.9,20.4-17.9l3.1-11.2L15.1,86z"/>
		<path class="st2" d="M15.3,113.8c0.1-0.1,0.1-0.1,0.2-0.2l0.6-0.5c0.5-0.4,1.3-0.9,2.3-1.6c2-1.3,4.8-3.1,8-4.8
			c3.2-1.7,6.2-3.1,8.4-4c1.1-0.5,2-0.8,2.6-1l0.7-0.3c0.1,0,0.2-0.1,0.3-0.1c-0.1,0-0.2,0.1-0.2,0.1l-0.7,0.3
			c-0.6,0.2-1.5,0.6-2.6,1.1c-2.2,0.9-5.2,2.3-8.4,4c-3.2,1.7-6,3.4-8,4.7c-1,0.7-1.8,1.2-2.3,1.6l-0.6,0.4
			C15.4,113.7,15.3,113.7,15.3,113.8z"/>
		<path class="st2" d="M32.2,113.2l11,5.9l-7.3,13l0.1,1c0,0,4.3,3.9,4.6,6c0.2,1.2-0.7,1.4-0.7,1.4L24,132.8l2.3-5.2L32.2,113.2z"
			/>
		<path class="st3" d="M34.7,128.5c-0.9,0.5-1.9,1-2.8,1.4c-0.9,0.5-1.9,0.9-2.9,1.2c0.9-0.5,1.9-1,2.8-1.4
			C32.8,129.2,33.7,128.8,34.7,128.5z"/>
		<path class="st3" d="M37,126.2c0,0-1.6,0.8-3.7,1.7s-3.7,1.6-3.8,1.5c0,0,1.6-0.8,3.7-1.7C35.3,126.8,36.9,126.1,37,126.2z"/>
		<path class="st2" d="M49.8,106.2c0,0.2,0,0.3,0,0.5c0,0.2,0,0.4,0,0.6c0,0.3-0.1,0.5-0.1,0.8c-0.2,1.2-0.9,2.7-1.9,4.2
			s-1.9,2.9-2.6,3.9l-0.8,1.2c-0.1,0.1-0.2,0.3-0.3,0.4c0.1-0.2,0.1-0.3,0.2-0.5c0.2-0.3,0.4-0.7,0.7-1.2c0.6-1,1.6-2.4,2.5-3.9
			c1-1.5,1.7-3,1.9-4.2C49.7,107.4,49.8,106.8,49.8,106.2z"/>
		<path class="st3" d="M31.7,114.6C31.7,114.6,31.6,114.7,31.7,114.6l-0.1,0.3c-0.1,0.2-0.2,0.6-0.4,1l-1.6,3.8L24,132.8l0-0.1
			l10.5,5.2l5.4,2.7h-0.1c0.4-0.2,0.6-0.5,0.6-0.9c0-0.4-0.1-0.8-0.2-1.2c-0.3-0.7-0.8-1.4-1.3-2c-0.5-0.6-1-1.2-1.5-1.7
			c-0.3-0.3-0.5-0.5-0.8-0.8l-0.4-0.4l-0.2-0.2l-0.1-0.1l0,0h0l0,0c0,0,0.1,0,0.1,0l-0.1,0c0-0.2,0-0.5-0.1-0.7l0,0
			c0-0.2,0.1-0.3,0.1-0.5l0,0l0,0c1-2,2-3.7,3-5.3l2.4-4c0.7-1.1,1.1-2,1.5-2.6l0.4-0.7c0.1-0.2,0.1-0.2,0.1-0.2s0,0.1-0.1,0.2
			l-0.4,0.7c-0.3,0.6-0.8,1.5-1.4,2.6s-1.4,2.4-2.3,4c-0.9,1.6-1.9,3.3-3,5.3v0c0,0.2-0.1,0.3-0.1,0.5v0c0,0.2,0,0.5,0.1,0.7l-0.1,0
			c0,0,0,0,0.1,0h0h0h0l0,0l0.1,0l0.1,0.1l0.2,0.2l0.4,0.4c0.3,0.3,0.5,0.5,0.8,0.8c0.5,0.6,1,1.1,1.5,1.7c0.5,0.6,1,1.3,1.3,2
			c0.2,0.4,0.3,0.8,0.2,1.2c0,0.5-0.3,0.9-0.7,1l0,0l0,0l-5.4-2.7l-10.5-5.2l-0.1,0l0-0.1l5.6-13.1c0.7-1.6,1.2-2.9,1.6-3.7
			c0.2-0.4,0.3-0.8,0.4-1L31.7,114.6C31.6,114.7,31.6,114.6,31.7,114.6z"/>
		<g class="st7">
			<path d="M35.2,97.9c-0.7,0-1.3,0.2-1.9,0.5c-2.3,1.1-4.5,2.4-6.9,3.1s-5.1,1-7.4,0c0.1,1,0.3,1.9,0.7,2.8
				c0.4,1.1,1.2,2.1,2.3,2.4c1.3,0.4,2.8-0.1,4.1-0.7c3.3-1.5,6.5-3.4,9.4-5.5c0.5-0.4,1.1-0.8,1.1-1.5S35.8,98,35.2,97.9z"/>
		</g>
		<path class="st2" d="M22.9,108.1c-0.1,0-0.2,0-0.4,0c-0.2,0-0.6,0-1,0.1c-1.1,0.1-2.2,0.3-3.3,0.5c-1.1,0.2-2.2,0.5-3.2,0.9
			c-0.4,0.1-0.7,0.2-1,0.3c-0.1,0-0.2,0.1-0.4,0.1c0.1-0.1,0.2-0.1,0.3-0.2c0.2-0.1,0.5-0.2,0.9-0.4c2.1-0.8,4.3-1.2,6.6-1.3
			c0.4,0,0.8,0,1,0C22.7,108.1,22.8,108.1,22.9,108.1z"/>
		<g class="st7">
			<path d="M27.3,125c0-3,0.6-6,1.6-8.9c0.4-1,0.9-2.1,1.7-2.8c0.5-0.4,0.9-0.9,1.4-1.3c0.8-1,1-1.7,1.6-2.7
				c0.8-1.4,2.2-2.3,3.7-2.6c0,0-3.8,3.7-4.9,6.9l-0.3-0.3L27.3,125z"/>
		</g>
		<g class="st7">
			<path d="M24.4,108c-3.7,1-6.8,2.7-10,4.5c-0.4,0.2-0.8,0.6-0.7,1c0.1,0.3,0.4,0.5,0.7,0.5c0.3,0,0.6-0.1,0.9-0.3
				C18.2,111.8,21.1,109.8,24.4,108"/>
		</g>
		<path class="st8" d="M13.3,109c0-0.1,0-0.2,0-0.2c0-0.2,0-0.5,0-0.7c0-1.4,0.4-2.9,1.2-4.1c0.2-0.3,0.4-0.5,0.5-0.8
			c0.2-0.3,0.2-0.6,0-0.9c-0.2-0.3-0.6-0.4-0.8-0.7c-0.2-0.3-0.4-0.7-0.4-1.1c0-0.4,0.1-0.8,0.2-1.2c0.2-0.4,0.4-0.7,0.6-1.1
			c0.5-0.7,0.9-1.3,1.1-2.1c0-0.2,0-0.3-0.1-0.5c-0.1-0.1-0.2-0.2-0.4-0.2c-0.3,0-0.7,0.3-1.1,0.3c-0.2,0-0.4-0.1-0.5-0.3
			c-0.1-0.1-0.2-0.3-0.2-0.5c0-0.3,0.1-0.7,0.2-1c0.3-0.6,0.5-1.1,0.8-1.5c0.4-0.7,0.9-1.4,1.4-2.1c0.2-0.2,0.3-0.4,0.4-0.5
			c0.1-0.1,0.1-0.1,0.2-0.2c0,0.1-0.1,0.1-0.1,0.2L16,90.4c-0.5,0.7-1,1.4-1.4,2.1c-0.3,0.5-0.5,1-0.8,1.5c-0.1,0.3-0.2,0.6-0.2,0.9
			c0,0.3,0.2,0.6,0.6,0.7c0.3,0,0.6-0.2,1-0.3c0.2,0,0.4,0.1,0.6,0.3c0.1,0.2,0.1,0.4,0.1,0.6c-0.1,0.8-0.7,1.5-1.1,2.1
			c-0.2,0.3-0.4,0.7-0.6,1c-0.1,0.4-0.2,0.7-0.2,1.1c0,0.4,0.1,0.7,0.3,1c0.2,0.3,0.6,0.4,0.8,0.7c0.1,0.2,0.2,0.4,0.1,0.5
			c0,0.2-0.1,0.4-0.2,0.5c-0.2,0.3-0.4,0.6-0.5,0.8c-0.3,0.5-0.6,1-0.7,1.6c-0.3,0.8-0.4,1.6-0.5,2.5c0,0.3,0,0.5,0,0.7
			C13.3,108.9,13.3,108.9,13.3,109z"/>
		<path class="st8" d="M15.1,111.9c0,0-0.1,0-0.3-0.1c-0.3-0.1-0.4-0.4-0.5-0.7c-0.1-0.3,0-0.6,0.1-0.8c0.1-0.2,0.2-0.3,0.2-0.2
			s-0.1,0.1-0.1,0.3c-0.1,0.2-0.1,0.5-0.1,0.7c0.1,0.2,0.2,0.5,0.4,0.6C15,111.8,15.1,111.9,15.1,111.9z"/>
		<path class="st8" d="M26.4,109c-0.1,0.1-0.2,0.1-0.4,0.2c-0.2,0.1-0.6,0.3-1,0.5c-2.2,1.1-4.2,2.5-6,4.1c-0.3,0.3-0.6,0.6-0.8,0.7
			c-0.1,0.1-0.2,0.2-0.3,0.3c0.1-0.1,0.2-0.2,0.3-0.3c0.2-0.2,0.4-0.5,0.8-0.8c0.9-0.8,1.8-1.6,2.8-2.3c1-0.7,2.1-1.3,3.2-1.8
			c0.4-0.2,0.8-0.4,1-0.5C26.1,109,26.2,109,26.4,109z"/>
		<path class="st8" d="M28.5,108.4c0,0-0.1,0.1-0.3,0.2s-0.4,0.1-0.4,0.1c0,0,0.1-0.1,0.3-0.2S28.5,108.3,28.5,108.4z"/>
		<path class="st3" d="M39.5,89l9,9l1.1,0.2l-0.3-1l-9-9c-0.2-0.2-0.6-0.2-0.8,0c0,0,0,0,0,0l0,0C39.3,88.5,39.3,88.8,39.5,89z"/>
		<path class="st10" d="M21.8,81.6c0,0-2.9,12.8-3.4,16.7c-0.5,3.8,1.8,9.9,8.4,6.5c5.4-2.8,11.8-6,11.8-6L35.7,94l-9.3,2.2L30.1,84
			L21.8,81.6z"/>
		<path class="st6" d="M18.8,87.3c0.3,0.2,10.7,3.1,10.7,3.1s1.6-9.3,1-11.7c-0.8-3.1-6.3-1.5-7.4-0.4
			C22.3,79.3,18.8,87.3,18.8,87.3z"/>
		<path class="st2" d="M30.5,78.8c0,0.1,0,0.1,0.1,0.2c0,0.1,0,0.2,0,0.3c0,0.1,0,0.2,0,0.4c0,0.8,0,1.6,0,2.4c-0.1,2.1-0.5,5-1,8.4
			v0.1l-0.1,0l-4.3-1.2c-2.3-0.7-4.4-1.3-6.4-1.9l-0.1,0l0-0.1c1.2-2.6,2.2-4.7,3-6.2c0.4-0.8,0.7-1.3,0.9-1.7
			c0.1-0.2,0.2-0.3,0.3-0.4c0-0.1,0.1-0.1,0.1-0.1c0,0.1-0.1,0.1-0.1,0.2c-0.1,0.1-0.1,0.3-0.3,0.4c-0.2,0.4-0.5,1-0.9,1.7
			c-0.7,1.5-1.7,3.7-2.9,6.3l0-0.1c1.9,0.6,4.1,1.2,6.4,1.9l4.3,1.2l-0.1,0.1c0.6-3.3,0.9-6.3,1.1-8.3c0.1-0.8,0.1-1.6,0.1-2.4
			c0-0.1,0-0.3,0-0.4c0-0.1,0-0.2,0-0.3C30.5,79,30.5,78.9,30.5,78.8z"/>
		<path class="st10" d="M40.6,90.6c0,0-1.6,0.7-2.1,1.2s-1.7,1.5-1.7,1.5l-3.2,2l2.2,4.9c0,0,2.7-1.5,3.8-1.7
			c1.1-0.1,1.3-0.8,1.3-0.8s2.3,0.1,2.6-0.3c0.2-0.2,0.3-0.5,0.4-0.8c0,0,1-0.4,1.1-0.7c0,0,1-0.1,0.9-0.7c0-0.5,0.2-0.6,0.2-0.6
			s0.9-0.5,0.3-1.5l-2.7-1.8L40.6,90.6z"/>
		<path class="st11" d="M46,95c0,0-0.2-0.2-0.6-0.6c-0.5-0.4-1.1-0.8-1.7-1c-0.7-0.3-1.5-0.4-2-0.6c-0.3-0.1-0.5-0.2-0.8-0.4
			c0,0,0.3,0.1,0.8,0.3c0.7,0.1,1.3,0.3,2,0.5c0.6,0.3,1.2,0.6,1.8,1.1C45.7,94.5,45.9,94.7,46,95z"/>
		<path class="st11" d="M45.1,96c0,0-0.9-0.4-2.1-0.8c-1.2-0.4-2.2-0.4-2.2-0.5c0.2,0,0.4,0,0.7,0c1.1,0.1,2.1,0.4,3.1,0.9
			C44.7,95.8,44.9,95.9,45.1,96z"/>
		<path class="st11" d="M40.7,96.2c0,0,0.8,0.2,1.7,0.3c0.9,0.1,1.7,0.2,1.7,0.2c-0.6,0.1-1.2,0.1-1.7,0
			C41.7,96.6,41.2,96.4,40.7,96.2z"/>
		<path class="st11" d="M40.5,90.6c0.1,0,0.1,0,0.2,0c0.1,0,0.2,0,0.4,0.1c0.4,0.1,0.9,0.2,1.6,0.4l1.1,0.3c0.2,0.1,0.4,0.2,0.6,0.3
			c0.2,0.1,0.4,0.2,0.5,0.4c0.4,0.3,0.8,0.5,1.1,0.8c0.2,0.2,0.4,0.3,0.5,0.6c0.1,0.1,0.1,0.3,0.1,0.4c0,0.1,0,0.3-0.1,0.4
			c0,0.2-0.1,0.3-0.2,0.4c-0.1,0.1-0.3,0.2-0.4,0.2l0.1-0.1c0.1,0.6-0.2,1.2-0.8,1.3c-0.1,0-0.1,0-0.2,0l0.1-0.1
			c-0.2,0.5-0.6,0.7-1.1,0.7l0.1-0.1c-0.1,0.3-0.2,0.5-0.4,0.7c-0.2,0.2-0.4,0.3-0.6,0.3c-0.4,0.1-0.7,0.2-1.1,0.1l-0.7,0
			c-0.1,0-0.2,0-0.3,0c0.1,0,0.2,0,0.3,0c0.2,0,0.4,0,0.7,0c0.4,0,0.7,0,1.1-0.2c0.5-0.1,0.8-0.5,0.9-1v-0.1H44
			c0.4,0,0.8-0.2,0.9-0.6l0-0.1H45c0.5,0,0.9-0.5,0.9-1c0-0.1,0-0.1,0-0.1l0-0.1h0.1c0.3-0.1,0.4-0.3,0.5-0.5c0-0.1,0-0.2,0-0.4
			c0-0.1,0-0.2-0.1-0.3c-0.1-0.2-0.3-0.4-0.5-0.5c-0.4-0.3-0.8-0.6-1.1-0.8c-0.2-0.1-0.4-0.3-0.5-0.4c-0.2-0.1-0.3-0.2-0.5-0.3
			l-1.1-0.3c-0.7-0.2-1.2-0.3-1.6-0.4C40.7,90.7,40.5,90.6,40.5,90.6z"/>
		<path class="st11" d="M26.4,96.2c-0.3,0.5-0.7,1-1,1.4c-0.3,0.5-0.7,0.9-1,1.4c0.2-0.5,0.5-1,0.9-1.5C25.6,97,26,96.6,26.4,96.2z"
			/>
		<path class="st2" d="M31.3,103.2C35.1,102.6,58,99,58,99l0-0.9l-26.8,4.1c-0.3,0-0.5,0.3-0.4,0.6c0,0,0,0,0,0l0,0
			C30.8,103.1,31.1,103.3,31.3,103.2z"/>
		<path class="st12" d="M49.2,98.4c-1,0.3-2,0.5-3.1,0.7c-0.4,0.1-0.9,0.1-1.2,0.2c-0.4,0.1-0.7,0.4-0.7,0.8l5.3-0.8L49.2,98.4z"/>
		<path class="st8" d="M56.7,98.6L56.7,98.6c-0.8-1-2.2-1.5-3.4-1.2l-8.3,1.9c0,0,1,0,1.5,0.3s0.6,1.3,0.3,2.6
			c-0.4,1.5-1,7.3-0.5,9.5l10.9-2.1c0,0-0.6-4-0.1-5.4C57.3,102.8,57.3,100.1,56.7,98.6z"/>
		<path class="st2" d="M55.3,108.3c0,0-1.6,0.4-3.7,0.8c-2.1,0.4-3.7,0.7-3.8,0.7c0,0,1.7-0.4,3.7-0.9
			C53.7,108.5,55.3,108.2,55.3,108.3z"/>
		<path class="st2" d="M55.5,106.7c0,0-1.6,0.4-3.7,0.9c-2,0.5-3.7,0.8-3.7,0.7c0,0,1.6-0.4,3.7-0.9S55.5,106.7,55.5,106.7z"/>
		<path class="st2" d="M55.6,105.2c-0.4,0.1-0.7,0.2-1.1,0.3c-0.7,0.2-1.6,0.4-2.7,0.6c-1,0.2-2,0.4-2.7,0.5
			c-0.4,0.1-0.7,0.1-1.1,0.1c0.4-0.1,0.7-0.2,1.1-0.2l2.7-0.5l2.7-0.5C54.9,105.3,55.3,105.2,55.6,105.2z"/>
		<path class="st2" d="M56.3,103.2c0,0-1.8,0.5-4.1,1s-4.1,0.8-4.1,0.8s1.8-0.5,4.1-1S56.3,103.2,56.3,103.2z"/>
		<path class="st2" d="M55.4,101.9c0,0-1.6,0.4-3.6,0.8c-2,0.4-3.7,0.6-3.7,0.6c0,0,1.6-0.4,3.6-0.8
			C53.8,102.1,55.4,101.8,55.4,101.9z"/>
		<path class="st2" d="M53.8,100.4c-0.9,0.2-1.7,0.4-2.6,0.6c-0.9,0.2-1.8,0.3-2.7,0.4c0.9-0.2,1.8-0.4,2.6-0.6
			C52,100.6,52.9,100.5,53.8,100.4z"/>
		<path class="st2" d="M53.8,98.7c-0.3,0.1-0.5,0.2-0.8,0.3c-0.5,0.1-1.2,0.3-2,0.5s-1.5,0.3-2.1,0.4c-0.3,0.1-0.6,0.1-0.9,0.1
			c0.3-0.1,0.6-0.1,0.9-0.2c0.5-0.1,1.3-0.3,2.1-0.4s1.5-0.4,2.1-0.5C53.2,98.8,53.5,98.7,53.8,98.7z"/>
		<path class="st10" d="M57.4,94.9c0,0,2.8,2.3,2.9,3c0.1,0.7-1.4,3.3-1.4,3.3s-1.8,0.9-2.2,0.2l-1.4,0.1c0,0-1.2,0.4-1.5-0.1
			s0-0.8,0-0.8c-0.1-0.2-0.1-0.5,0-0.7c0.2-0.4,0.6-0.9,0.6-0.9s-1-0.4-1.1-0.9c-0.2-0.5,0.4-1.8,0.4-1.8s0.1-1.3,0.7-1.5
			c0.5-0.2,1-0.2,1.5-0.2C56,94.8,57,94.7,57.4,94.9z"/>
		<path class="st11" d="M54.3,96.6c0,0,0.2,0,0.4,0.2c0.3,0.2,0.5,0.6,0.5,1c0,0.4-0.1,0.7-0.4,1c-0.2,0.2-0.4,0.3-0.4,0.3
			c0,0,0.1-0.1,0.3-0.3c0.2-0.3,0.3-0.6,0.3-1c0-0.3-0.2-0.7-0.4-0.9C54.4,96.7,54.3,96.7,54.3,96.6z"/>
		<path class="st11" d="M56.5,95.9c0.1,0.1,0.1,0.1,0.1,0.2c0.1,0.2,0.2,0.4,0.2,0.7c0.2,0.8,0,1.6-0.4,2.4
			c-0.4,0.7-0.9,1.3-1.6,1.7c-0.1,0.1-0.3,0.1-0.4,0.1c-0.1,0-0.2,0-0.3-0.1c-0.2-0.1-0.2-0.2-0.1-0.2c0,0,0,0.1,0.2,0.2
			c0.2,0.1,0.5,0.1,0.6-0.1c0.7-0.4,1.2-1,1.6-1.7c0.4-0.7,0.5-1.5,0.4-2.3C56.7,96.5,56.6,96.2,56.5,95.9z"/>
		<path class="st11" d="M57.7,97.7c0,0.2,0,0.5,0,0.7c-0.2,1.1-0.8,2.1-1.7,2.8c-0.2,0.2-0.4,0.3-0.6,0.4
			C56.6,100.7,57.5,99.3,57.7,97.7L57.7,97.7z"/>
		<path class="st11" d="M58.8,98.4c-0.1,0.6-0.4,1.2-0.7,1.8c-0.3,0.6-0.8,1-1.3,1.4c0.4-0.5,0.8-1,1.2-1.5
			C58.5,99.2,58.8,98.4,58.8,98.4z"/>
		<path class="st11" d="M57.4,94.9c-0.1,0-0.2-0.1-0.4-0.1c-0.3,0-0.7,0-1.1,0l0,0c-0.5-0.1-0.9,0-1.4,0.1c-0.3,0.1-0.5,0.3-0.6,0.6
			c-0.1,0.3-0.2,0.6-0.2,0.9l0,0l0,0c-0.2,0.5-0.4,1-0.4,1.5c0,0.1,0,0.2,0.1,0.4c0.1,0.1,0.2,0.2,0.3,0.3c0.2,0.2,0.5,0.3,0.7,0.4
			l0.1,0l-0.1,0.1c-0.2,0.2-0.3,0.5-0.5,0.7c-0.1,0.1-0.1,0.2-0.2,0.4c0,0.1,0,0.3,0.1,0.4l0,0.1l-0.1,0c-0.2,0.2-0.1,0.6,0.1,0.8
			c0.3,0.2,0.7,0.2,1,0.1c0.1,0,0.2-0.1,0.3-0.1h0l1.4-0.1h0.1l0,0c0.1,0.1,0.3,0.2,0.5,0.2c0.2,0,0.4,0,0.6-0.1
			c0.4-0.1,0.7-0.2,1.1-0.4l0,0c0.5-0.9,1-1.9,1.3-2.9c0.1-0.2,0.1-0.4,0-0.6c-0.1-0.2-0.2-0.4-0.4-0.5c-0.3-0.3-0.5-0.6-0.8-0.8
			c-0.5-0.5-0.9-0.8-1.2-1.1L57.4,94.9C57.5,94.9,57.4,94.9,57.4,94.9c0,0,0.1,0,0.1,0.1l0.3,0.3c0.3,0.2,0.7,0.6,1.2,1.1
			c0.3,0.2,0.5,0.5,0.8,0.8c0.1,0.2,0.3,0.3,0.4,0.5c0.1,0.1,0.1,0.2,0.1,0.4c0,0.1,0,0.2-0.1,0.4c-0.4,1-0.8,2-1.3,2.9v0h0
			c-0.4,0.2-0.7,0.3-1.1,0.4c-0.2,0.1-0.4,0.1-0.6,0.1c-0.2,0-0.5-0.1-0.6-0.3l0.1,0l-1.4,0.1h0c-0.1,0-0.2,0.1-0.4,0.1
			c-0.2,0-0.4,0.1-0.6,0.1c-0.2,0-0.4-0.1-0.6-0.2c-0.2-0.1-0.3-0.3-0.3-0.5c-0.1-0.2,0-0.4,0.2-0.6l0,0.1c-0.1-0.1-0.1-0.3-0.1-0.5
			c0-0.2,0.1-0.3,0.2-0.4c0.2-0.3,0.3-0.5,0.5-0.7l0,0.1c-0.3-0.1-0.5-0.3-0.8-0.5c-0.1-0.1-0.2-0.2-0.3-0.3
			c-0.1-0.1-0.1-0.3-0.1-0.4c0.1-0.5,0.2-1,0.5-1.5v0c0-0.3,0.1-0.7,0.2-1c0.1-0.3,0.4-0.5,0.7-0.6c0.5-0.1,1-0.2,1.4-0.1l0,0
			c0.4,0,0.7,0,1.1,0C57.2,94.8,57.3,94.8,57.4,94.9L57.4,94.9z"/>
	</g>
</g>
</svg>
