<?xml version="1.0" encoding="utf-8"?>
<!-- Generator: Adobe Illustrator 23.0.3, SVG Export Plug-In . SVG Version: 6.00 Build 0)  -->
<svg version="1.1" id="Layer_1" xmlns="http://www.w3.org/2000/svg" xmlns:xlink="http://www.w3.org/1999/xlink" x="0px" y="0px"
	 viewBox="0 0 160 150" style="enable-background:new 0 0 160 150;" xml:space="preserve">
<style type="text/css">
	.st0{fill:#4F97B3;}
	.st1{opacity:0.8;fill:#FFFFFF;enable-background:new    ;}
	.st2{opacity:0.5;fill:#4F97B3;enable-background:new    ;}
	.st3{opacity:0.8;}
	.st4{fill:#FFFFFF;}
	.st5{opacity:0.5;fill:#FFFFFF;enable-background:new    ;}
	.st6{opacity:0.3;}
	.st7{fill:none;stroke:#000000;stroke-width:0.4529;stroke-miterlimit:10;}
	.st8{fill:#263238;}
	.st9{opacity:0.7;fill:#FFFFFF;enable-background:new    ;}
	.st10{fill:#FFFFFF;stroke:#263238;stroke-width:0.4529;stroke-linecap:round;stroke-linejoin:round;}
	.st11{fill:none;stroke:#263238;stroke-width:0.4529;stroke-linecap:round;stroke-linejoin:round;}
	.st12{fill:#263238;stroke:#263238;stroke-width:0.4529;stroke-linecap:round;stroke-linejoin:round;}
	.st13{fill:#4F97B3;stroke:#263238;stroke-width:0.4529;stroke-linecap:round;stroke-linejoin:round;}
	.st14{fill:none;stroke:#FFFFFF;stroke-width:0.4529;stroke-linecap:round;stroke-linejoin:round;}
	.st15{fill:none;stroke:#263238;stroke-width:0.2265;stroke-linecap:round;stroke-linejoin:round;}
	.st16{fill:none;stroke:#4F97B3;stroke-width:1.3587;stroke-linecap:round;stroke-linejoin:round;}
	.st17{opacity:0.53;fill:#FFFFFF;enable-background:new    ;}
</style>
<g>
	<g id="freepik--background-simple--inject-2">
		<path class="st0" d="M154.8,44.4c0,0-11-20.7-35.3-23.8S78.2,32.5,60.3,40.2c-9.4,4-20.1,2.5-30,4.4
			c-31.9,6.2-43.8,45.1-30.6,67.3C11.1,131,31.3,141,62.1,143.3c30.8,2.3,52.3,5,79.9-13.8S167.7,71.6,154.8,44.4z"/>
		<path class="st1" d="M154.8,44.4c0,0-11-20.7-35.3-23.8S78.2,32.5,60.3,40.2c-9.4,4-20.1,2.5-30,4.4
			c-31.9,6.2-43.8,45.1-30.6,67.3C11.1,131,31.3,141,62.1,143.3c30.8,2.3,52.3,5,79.9-13.8S167.7,71.6,154.8,44.4z"/>
	</g>
	<g id="freepik--Clouds--inject-2">
		<path class="st0" d="M54.5,24.7c-1.2-0.6-1.7-0.1-2.2-0.6c-0.4-0.5,1.2-1.9-2-3.3c0,0-0.2-3-4.6-3.1c-4.4-0.1-3.2,3-4.4,3.8
			c-1.2,0.8-1.5-0.5-2.7,0.3c-1.2,0.8-0.6,2.3-1.6,2.5c-1,0.2-2.3-1-3.4-0.2c-1.2,0.8-1.2,1.4-1.7,1.4c-0.5,0-1.6-0.5-2.3,0
			c-0.7,0.5-1.4,1-1.4,1h27.2C55.4,26.3,55.7,25.3,54.5,24.7z"/>
		<path class="st2" d="M54.5,24.7c-1.2-0.6-1.7-0.1-2.2-0.6c-0.4-0.5,1.2-1.9-2-3.3c0,0-0.2-3-4.6-3.1c-4.4-0.1-3.2,3-4.4,3.8
			c-1.2,0.8-1.5-0.5-2.7,0.3c-1.2,0.8-0.6,2.3-1.6,2.5c-1,0.2-2.3-1-3.4-0.2c-1.2,0.8-1.2,1.4-1.7,1.4c-0.5,0-1.6-0.5-2.3,0
			c-0.7,0.5-1.4,1-1.4,1h27.2C55.4,26.3,55.7,25.3,54.5,24.7z"/>
		<g class="st3">
			<path class="st4" d="M54.5,24.7c-1.2-0.6-1.7-0.1-2.2-0.6c-0.4-0.5,1.2-1.9-2-3.3c0,0-0.2-3-4.6-3.1c-4.4-0.1-3.2,3-4.4,3.8
				c-1.2,0.8-1.5-0.5-2.7,0.3c-1.2,0.8-0.6,2.3-1.6,2.5c-1,0.2-2.3-1-3.4-0.2c-1.2,0.8-1.2,1.4-1.7,1.4c-0.5,0-1.6-0.5-2.3,0
				c-0.7,0.5-1.4,1-1.4,1h27.2C55.4,26.3,55.7,25.3,54.5,24.7z"/>
			<path class="st5" d="M54.5,24.7c-1.2-0.6-1.7-0.1-2.2-0.6c-0.4-0.5,1.2-1.9-2-3.3c0,0-0.2-3-4.6-3.1c-4.4-0.1-3.2,3-4.4,3.8
				c-1.2,0.8-1.5-0.5-2.7,0.3c-1.2,0.8-0.6,2.3-1.6,2.5c-1,0.2-2.3-1-3.4-0.2c-1.2,0.8-1.2,1.4-1.7,1.4c-0.5,0-1.6-0.5-2.3,0
				c-0.7,0.5-1.4,1-1.4,1h27.2C55.4,26.3,55.7,25.3,54.5,24.7z"/>
		</g>
		<path class="st0" d="M141.9,14.2c-2.2-1.2-3.2-0.2-4-1.2c-0.8-1,2.2-3.6-3.8-6.2c0,0-0.4-5.6-8.6-5.8s-6,5.6-8.2,7s-2.8-0.8-5,0.6
			s-1.2,4.2-3,4.6c-1.8,0.4-4.2-1.8-6.4-0.4c-2.2,1.4-2.2,2.6-3.2,2.6c-1,0-3-0.8-4.2,0c-1.2,0.8-2.6,1.8-2.6,1.8h50.8
			C143.6,17.3,144.1,15.5,141.9,14.2z"/>
		<path class="st2" d="M141.9,14.2c-2.2-1.2-3.2-0.2-4-1.2c-0.8-1,2.2-3.6-3.8-6.2c0,0-0.4-5.6-8.6-5.8s-6,5.6-8.2,7s-2.8-0.8-5,0.6
			s-1.2,4.2-3,4.6c-1.8,0.4-4.2-1.8-6.4-0.4c-2.2,1.4-2.2,2.6-3.2,2.6c-1,0-3-0.8-4.2,0c-1.2,0.8-2.6,1.8-2.6,1.8h50.8
			C143.6,17.3,144.1,15.5,141.9,14.2z"/>
		<g class="st3">
			<path class="st4" d="M141.9,14.2c-2.2-1.2-3.2-0.2-4-1.2c-0.8-1,2.2-3.6-3.8-6.2c0,0-0.4-5.6-8.6-5.8s-6,5.6-8.2,7
				s-2.8-0.8-5,0.6s-1.2,4.2-3,4.6c-1.8,0.4-4.2-1.8-6.4-0.4c-2.2,1.4-2.2,2.6-3.2,2.6c-1,0-3-0.8-4.2,0c-1.2,0.8-2.6,1.8-2.6,1.8
				h50.8C143.6,17.3,144.1,15.5,141.9,14.2z"/>
			<path class="st5" d="M141.9,14.2c-2.2-1.2-3.2-0.2-4-1.2c-0.8-1,2.2-3.6-3.8-6.2c0,0-0.4-5.6-8.6-5.8s-6,5.6-8.2,7
				s-2.8-0.8-5,0.6s-1.2,4.2-3,4.6c-1.8,0.4-4.2-1.8-6.4-0.4c-2.2,1.4-2.2,2.6-3.2,2.6c-1,0-3-0.8-4.2,0c-1.2,0.8-2.6,1.8-2.6,1.8
				h50.8C143.6,17.3,144.1,15.5,141.9,14.2z"/>
		</g>
	</g>
	<g id="freepik--Trees--inject-2">
		<path class="st0" d="M137,60.6c-0.2,0.7,0.4,1.6,0.1,2.2c-0.3,0.6-1.3,0.9-1.7,1.5c-0.3,0.6,0,1.6-0.5,2.2c-0.4,0.6-1.5,0.5-2,1
			c-0.5,0.5-0.5,1.6-1,2s-1.6,0.1-2.2,0.5s-0.9,1.4-1.5,1.7c-0.6,0.3-1.6-0.3-2.2-0.1s-1.2,1.1-1.9,1.2c-0.7,0.1-1.4-0.7-2.1-0.7
			s-1.5,0.8-2.1,0.7c-0.7-0.1-1.2-1-1.9-1.2c-0.7-0.2-1.6,0.4-2.2,0.1s-0.9-1.3-1.5-1.7c-0.6-0.3-1.6,0-2.2-0.5
			c-0.5-0.4-0.5-1.5-1-2c-0.5-0.5-1.6-0.5-2-1c-0.4-0.6-0.1-1.6-0.5-2.2c-0.3-0.6-1.4-0.9-1.7-1.5s0.3-1.6,0.1-2.2s-1.1-1.2-1.2-1.9
			c-0.1-0.7,0.7-1.4,0.7-2.1c0-0.7-0.8-1.4-0.7-2.1c0.1-0.7,1-1.2,1.2-1.9c0.2-0.7-0.4-1.6-0.1-2.2c0.3-0.6,1.3-0.9,1.7-1.5
			c0.3-0.6,0-1.6,0.5-2.2c0.4-0.5,1.5-0.5,2-1c0.5-0.5,0.5-1.6,1-2c0.6-0.4,1.6-0.1,2.2-0.5s0.9-1.4,1.5-1.7
			c0.6-0.3,1.6,0.3,2.2,0.1c0.7-0.2,1.2-1.1,1.9-1.2c0.7-0.1,1.4,0.7,2.1,0.7s1.4-0.8,2.1-0.7c0.7,0.1,1.2,1,1.9,1.2
			s1.6-0.4,2.2-0.1c0.6,0.3,0.9,1.3,1.5,1.7c0.6,0.3,1.6,0,2.2,0.5s0.5,1.5,1,2c0.5,0.5,1.6,0.5,2,1c0.4,0.6,0.1,1.6,0.5,2.2
			c0.3,0.6,1.4,0.9,1.7,1.5c0.3,0.6-0.3,1.6-0.1,2.2c0.2,0.7,1.1,1.2,1.2,1.9c0.1,0.7-0.7,1.4-0.7,2.1c0,0.7,0.8,1.5,0.7,2.1
			C138.1,59.4,137.2,59.9,137,60.6z M47.2,53.3c-0.1-0.5,0.3-1.3,0.1-1.8s-1.1-0.7-1.4-1.2c-0.3-0.5,0-1.3-0.4-1.8s-1.2-0.4-1.6-0.8
			c-0.4-0.4-0.4-1.3-0.8-1.6s-1.3-0.1-1.8-0.4c-0.5-0.3-0.7-1.1-1.2-1.4s-1.3,0.2-1.8,0.1c-0.5-0.1-1-0.9-1.5-1
			c-0.6-0.1-1.2,0.6-1.7,0.6s-1.2-0.6-1.7-0.6c-0.6,0.1-1,0.9-1.5,1c-0.5,0.1-1.3-0.3-1.8-0.1c-0.5,0.2-0.7,1.1-1.2,1.4
			c-0.5,0.3-1.3,0-1.8,0.4c-0.4,0.3-0.4,1.2-0.8,1.6c-0.4,0.4-1.3,0.4-1.6,0.8c-0.3,0.4-0.1,1.3-0.4,1.8c-0.3,0.5-1.1,0.7-1.4,1.2
			c-0.2,0.5,0.2,1.3,0.1,1.8c-0.1,0.5-0.9,1-1,1.5c-0.1,0.6,0.6,1.2,0.6,1.7s-0.6,1.2-0.6,1.7c0.1,0.6,0.8,1,1,1.5
			c0.1,0.5-0.3,1.3-0.1,1.8c0.2,0.5,1.1,0.7,1.4,1.2c0.3,0.5,0,1.4,0.4,1.8c0.3,0.4,1.2,0.4,1.6,0.8c0.4,0.4,0.4,1.3,0.8,1.6
			c0.4,0.3,1.3,0.1,1.8,0.4s0.7,1.1,1.2,1.4c0.5,0.2,1.3-0.2,1.8-0.1s1,0.9,1.5,1c0.6,0.1,1.2-0.6,1.7-0.6c0.6,0,1.2,0.6,1.7,0.6
			c0.6-0.1,1-0.9,1.5-1c0.5-0.1,1.3,0.3,1.8,0.1c0.5-0.2,0.7-1.1,1.2-1.4c0.5-0.3,1.3,0,1.8-0.4c0.4-0.3,0.4-1.2,0.8-1.6
			c0.4-0.4,1.3-0.4,1.6-0.8c0.3-0.4,0.1-1.3,0.4-1.8c0.3-0.5,1.1-0.7,1.4-1.2c0.2-0.5-0.2-1.3-0.1-1.8c0.1-0.5,0.9-1,1-1.5
			c0.1-0.6-0.6-1.2-0.6-1.7s0.6-1.2,0.6-1.7C48.1,54.3,47.4,53.8,47.2,53.3L47.2,53.3z M105.3,44.9c0.2-0.7,1.1-1.2,1.2-1.9
			c0.1-0.7-0.7-1.4-0.7-2.1c0-0.7,0.8-1.5,0.7-2.1c-0.1-0.7-1-1.2-1.2-1.9c-0.2-0.7,0.4-1.6,0.1-2.2c-0.3-0.6-1.3-0.9-1.7-1.5
			c-0.3-0.6,0-1.6-0.5-2.2c-0.4-0.5-1.5-0.5-2-1s-0.5-1.6-1-2c-0.6-0.4-1.6-0.1-2.2-0.5c-0.6-0.3-0.9-1.4-1.5-1.7
			c-0.6-0.3-1.6,0.3-2.2,0.1c-0.7-0.2-1.2-1.1-1.9-1.2c-0.7-0.1-1.4,0.7-2.1,0.7c-0.7,0-1.5-0.8-2.1-0.7c-0.7,0.1-1.2,1-1.9,1.2
			c-0.7,0.2-1.6-0.4-2.2-0.1c-0.6,0.3-0.9,1.3-1.5,1.7c-0.6,0.3-1.6,0-2.2,0.5c-0.5,0.4-0.5,1.5-1,2c-0.5,0.5-1.6,0.5-2,1
			c-0.4,0.6-0.1,1.6-0.5,2.2c-0.3,0.6-1.4,0.9-1.7,1.5c-0.3,0.6,0.3,1.6,0.1,2.2c-0.2,0.7-1.1,1.2-1.2,1.9c-0.1,0.7,0.7,1.4,0.7,2.1
			c0,0.7-0.8,1.4-0.7,2.1c0.1,0.7,1,1.2,1.2,1.9c0.1,0.3,0.1,0.5,0,0.8c-0.5-0.1-1.2,0-1.6-0.3c-0.6-0.3-0.9-1.4-1.5-1.7
			c-0.6-0.3-1.6,0.3-2.2,0.1c-0.7-0.2-1.2-1.1-1.9-1.2c-0.7-0.1-1.4,0.7-2.1,0.7c-0.7,0-1.5-0.8-2.1-0.7c-0.7,0.1-1.2,1-1.9,1.2
			c-0.7,0.2-1.6-0.4-2.2-0.1s-0.9,1.3-1.5,1.7c-0.6,0.3-1.6,0-2.2,0.5s-0.5,1.5-1,2c-0.5,0.5-1.6,0.5-2,1c-0.4,0.6-0.1,1.6-0.5,2.2
			c-0.3,0.6-1.4,0.9-1.7,1.5c-0.3,0.6,0.3,1.6,0.1,2.2c-0.2,0.7-1.1,1.2-1.2,1.9s0.7,1.4,0.7,2.1c0,0.7-0.8,1.5-0.7,2.1
			s1,1.2,1.2,1.9s-0.4,1.6-0.1,2.2c0.3,0.6,1.3,0.9,1.7,1.5c0.3,0.6,0,1.6,0.5,2.2c0.4,0.6,1.5,0.5,2,1c0.5,0.5,0.5,1.6,1,2
			s1.6,0.1,2.2,0.5c0.6,0.3,0.9,1.4,1.5,1.7c0.6,0.3,1.6-0.3,2.2-0.1c0.7,0.2,1.2,1.1,1.9,1.2c0.7,0.1,1.4-0.7,2.1-0.7
			s1.4,0.8,2.1,0.7c0.7-0.1,1.2-1,1.9-1.2c0.7-0.2,1.6,0.4,2.2,0.1c0.6-0.3,0.9-1.3,1.5-1.7s1.6,0,2.2-0.5c0.5-0.4,0.5-1.5,1-2
			c0.5-0.5,1.6-0.5,2-1c0.4-0.6,0.1-1.6,0.5-2.2s1.4-0.9,1.7-1.5c0.3-0.6-0.3-1.6-0.1-2.2s1.1-1.2,1.2-1.9c0.1-0.7-0.7-1.4-0.7-2.1
			c0-0.7,0.8-1.4,0.7-2.1s-1-1.2-1.2-1.9c-0.1-0.3-0.1-0.5,0-0.8c0.5,0.1,1.2,0,1.6,0.3c0.6,0.3,0.9,1.4,1.5,1.7
			c0.6,0.3,1.6-0.3,2.2-0.1c0.7,0.2,1.2,1.1,1.9,1.2c0.7,0.1,1.4-0.7,2.1-0.7s1.4,0.8,2.1,0.7c0.7-0.1,1.2-1,1.9-1.2
			c0.7-0.2,1.6,0.4,2.2,0.1s0.9-1.3,1.5-1.7c0.6-0.3,1.6,0,2.2-0.5c0.5-0.4,0.5-1.5,1-2c0.5-0.5,1.6-0.5,2-1s0.1-1.6,0.5-2.2
			c0.3-0.6,1.4-0.9,1.7-1.5S105.1,45.6,105.3,44.9L105.3,44.9z"/>
		<path class="st5" d="M137,60.6c-0.2,0.7,0.4,1.6,0.1,2.2c-0.3,0.6-1.3,0.9-1.7,1.5c-0.3,0.6,0,1.6-0.5,2.2c-0.4,0.6-1.5,0.5-2,1
			c-0.5,0.5-0.5,1.6-1,2s-1.6,0.1-2.2,0.5s-0.9,1.4-1.5,1.7c-0.6,0.3-1.6-0.3-2.2-0.1s-1.2,1.1-1.9,1.2c-0.7,0.1-1.4-0.7-2.1-0.7
			s-1.5,0.8-2.1,0.7c-0.7-0.1-1.2-1-1.9-1.2c-0.7-0.2-1.6,0.4-2.2,0.1s-0.9-1.3-1.5-1.7c-0.6-0.3-1.6,0-2.2-0.5
			c-0.5-0.4-0.5-1.5-1-2c-0.5-0.5-1.6-0.5-2-1c-0.4-0.6-0.1-1.6-0.5-2.2c-0.3-0.6-1.4-0.9-1.7-1.5s0.3-1.6,0.1-2.2s-1.1-1.2-1.2-1.9
			c-0.1-0.7,0.7-1.4,0.7-2.1c0-0.7-0.8-1.4-0.7-2.1c0.1-0.7,1-1.2,1.2-1.9c0.2-0.7-0.4-1.6-0.1-2.2c0.3-0.6,1.3-0.9,1.7-1.5
			c0.3-0.6,0-1.6,0.5-2.2c0.4-0.5,1.5-0.5,2-1c0.5-0.5,0.5-1.6,1-2c0.6-0.4,1.6-0.1,2.2-0.5s0.9-1.4,1.5-1.7
			c0.6-0.3,1.6,0.3,2.2,0.1c0.7-0.2,1.2-1.1,1.9-1.2c0.7-0.1,1.4,0.7,2.1,0.7s1.4-0.8,2.1-0.7c0.7,0.1,1.2,1,1.9,1.2
			s1.6-0.4,2.2-0.1c0.6,0.3,0.9,1.3,1.5,1.7c0.6,0.3,1.6,0,2.2,0.5s0.5,1.5,1,2c0.5,0.5,1.6,0.5,2,1c0.4,0.6,0.1,1.6,0.5,2.2
			c0.3,0.6,1.4,0.9,1.7,1.5c0.3,0.6-0.3,1.6-0.1,2.2c0.2,0.7,1.1,1.2,1.2,1.9c0.1,0.7-0.7,1.4-0.7,2.1c0,0.7,0.8,1.5,0.7,2.1
			C138.1,59.4,137.2,59.9,137,60.6z M47.2,53.3c-0.1-0.5,0.3-1.3,0.1-1.8s-1.1-0.7-1.4-1.2c-0.3-0.5,0-1.3-0.4-1.8s-1.2-0.4-1.6-0.8
			c-0.4-0.4-0.4-1.3-0.8-1.6s-1.3-0.1-1.8-0.4c-0.5-0.3-0.7-1.1-1.2-1.4s-1.3,0.2-1.8,0.1c-0.5-0.1-1-0.9-1.5-1
			c-0.6-0.1-1.2,0.6-1.7,0.6s-1.2-0.6-1.7-0.6c-0.6,0.1-1,0.9-1.5,1c-0.5,0.1-1.3-0.3-1.8-0.1c-0.5,0.2-0.7,1.1-1.2,1.4
			c-0.5,0.3-1.3,0-1.8,0.4c-0.4,0.3-0.4,1.2-0.8,1.6c-0.4,0.4-1.3,0.4-1.6,0.8c-0.3,0.4-0.1,1.3-0.4,1.8c-0.3,0.5-1.1,0.7-1.4,1.2
			c-0.2,0.5,0.2,1.3,0.1,1.8c-0.1,0.5-0.9,1-1,1.5c-0.1,0.6,0.6,1.2,0.6,1.7s-0.6,1.2-0.6,1.7c0.1,0.6,0.8,1,1,1.5
			c0.1,0.5-0.3,1.3-0.1,1.8c0.2,0.5,1.1,0.7,1.4,1.2c0.3,0.5,0,1.4,0.4,1.8c0.3,0.4,1.2,0.4,1.6,0.8c0.4,0.4,0.4,1.3,0.8,1.6
			c0.4,0.3,1.3,0.1,1.8,0.4s0.7,1.1,1.2,1.4c0.5,0.2,1.3-0.2,1.8-0.1s1,0.9,1.5,1c0.6,0.1,1.2-0.6,1.7-0.6c0.6,0,1.2,0.6,1.7,0.6
			c0.6-0.1,1-0.9,1.5-1c0.5-0.1,1.3,0.3,1.8,0.1c0.5-0.2,0.7-1.1,1.2-1.4c0.5-0.3,1.3,0,1.8-0.4c0.4-0.3,0.4-1.2,0.8-1.6
			c0.4-0.4,1.3-0.4,1.6-0.8c0.3-0.4,0.1-1.3,0.4-1.8c0.3-0.5,1.1-0.7,1.4-1.2c0.2-0.5-0.2-1.3-0.1-1.8c0.1-0.5,0.9-1,1-1.5
			c0.1-0.6-0.6-1.2-0.6-1.7s0.6-1.2,0.6-1.7C48.1,54.3,47.4,53.8,47.2,53.3L47.2,53.3z M105.3,44.9c0.2-0.7,1.1-1.2,1.2-1.9
			c0.1-0.7-0.7-1.4-0.7-2.1c0-0.7,0.8-1.5,0.7-2.1c-0.1-0.7-1-1.2-1.2-1.9c-0.2-0.7,0.4-1.6,0.1-2.2c-0.3-0.6-1.3-0.9-1.7-1.5
			c-0.3-0.6,0-1.6-0.5-2.2c-0.4-0.5-1.5-0.5-2-1s-0.5-1.6-1-2c-0.6-0.4-1.6-0.1-2.2-0.5c-0.6-0.3-0.9-1.4-1.5-1.7
			c-0.6-0.3-1.6,0.3-2.2,0.1c-0.7-0.2-1.2-1.1-1.9-1.2c-0.7-0.1-1.4,0.7-2.1,0.7c-0.7,0-1.5-0.8-2.1-0.7c-0.7,0.1-1.2,1-1.9,1.2
			c-0.7,0.2-1.6-0.4-2.2-0.1c-0.6,0.3-0.9,1.3-1.5,1.7c-0.6,0.3-1.6,0-2.2,0.5c-0.5,0.4-0.5,1.5-1,2c-0.5,0.5-1.6,0.5-2,1
			c-0.4,0.6-0.1,1.6-0.5,2.2c-0.3,0.6-1.4,0.9-1.7,1.5c-0.3,0.6,0.3,1.6,0.1,2.2c-0.2,0.7-1.1,1.2-1.2,1.9c-0.1,0.7,0.7,1.4,0.7,2.1
			c0,0.7-0.8,1.4-0.7,2.1c0.1,0.7,1,1.2,1.2,1.9c0.1,0.3,0.1,0.5,0,0.8c-0.5-0.1-1.2,0-1.6-0.3c-0.6-0.3-0.9-1.4-1.5-1.7
			c-0.6-0.3-1.6,0.3-2.2,0.1c-0.7-0.2-1.2-1.1-1.9-1.2c-0.7-0.1-1.4,0.7-2.1,0.7c-0.7,0-1.5-0.8-2.1-0.7c-0.7,0.1-1.2,1-1.9,1.2
			c-0.7,0.2-1.6-0.4-2.2-0.1s-0.9,1.3-1.5,1.7c-0.6,0.3-1.6,0-2.2,0.5s-0.5,1.5-1,2c-0.5,0.5-1.6,0.5-2,1c-0.4,0.6-0.1,1.6-0.5,2.2
			c-0.3,0.6-1.4,0.9-1.7,1.5c-0.3,0.6,0.3,1.6,0.1,2.2c-0.2,0.7-1.1,1.2-1.2,1.9s0.7,1.4,0.7,2.1c0,0.7-0.8,1.5-0.7,2.1
			s1,1.2,1.2,1.9s-0.4,1.6-0.1,2.2c0.3,0.6,1.3,0.9,1.7,1.5c0.3,0.6,0,1.6,0.5,2.2c0.4,0.6,1.5,0.5,2,1c0.5,0.5,0.5,1.6,1,2
			s1.6,0.1,2.2,0.5c0.6,0.3,0.9,1.4,1.5,1.7c0.6,0.3,1.6-0.3,2.2-0.1c0.7,0.2,1.2,1.1,1.9,1.2c0.7,0.1,1.4-0.7,2.1-0.7
			s1.4,0.8,2.1,0.7c0.7-0.1,1.2-1,1.9-1.2c0.7-0.2,1.6,0.4,2.2,0.1c0.6-0.3,0.9-1.3,1.5-1.7s1.6,0,2.2-0.5c0.5-0.4,0.5-1.5,1-2
			c0.5-0.5,1.6-0.5,2-1c0.4-0.6,0.1-1.6,0.5-2.2s1.4-0.9,1.7-1.5c0.3-0.6-0.3-1.6-0.1-2.2s1.1-1.2,1.2-1.9c0.1-0.7-0.7-1.4-0.7-2.1
			c0-0.7,0.8-1.4,0.7-2.1s-1-1.2-1.2-1.9c-0.1-0.3-0.1-0.5,0-0.8c0.5,0.1,1.2,0,1.6,0.3c0.6,0.3,0.9,1.4,1.5,1.7
			c0.6,0.3,1.6-0.3,2.2-0.1c0.7,0.2,1.2,1.1,1.9,1.2c0.7,0.1,1.4-0.7,2.1-0.7s1.4,0.8,2.1,0.7c0.7-0.1,1.2-1,1.9-1.2
			c0.7-0.2,1.6,0.4,2.2,0.1s0.9-1.3,1.5-1.7c0.6-0.3,1.6,0,2.2-0.5c0.5-0.4,0.5-1.5,1-2c0.5-0.5,1.6-0.5,2-1s0.1-1.6,0.5-2.2
			c0.3-0.6,1.4-0.9,1.7-1.5S105.1,45.6,105.3,44.9L105.3,44.9z"/>
	</g>
	<g id="freepik--Fence--inject-2">
		<path class="st4" d="M39.4,54.6l-3.7-4.5c-0.3-0.4-0.9-0.4-1.2-0.1c0,0-0.1,0.1-0.1,0.1l-3.5,4.5v69.6h8.6L39.4,54.6z"/>
		<path class="st4" d="M30.8,54.6l-3.7-4.5c-0.3-0.4-0.9-0.4-1.2-0.1c0,0-0.1,0.1-0.1,0.1l-3.5,4.5v69.5h8.6V54.6z"/>
		<path class="st4" d="M22.1,54.6l-3.7-4.5c-0.3-0.4-0.9-0.4-1.2-0.1c0,0-0.1,0.1-0.1,0.1l-3.5,4.5v69.6h8.6L22.1,54.6z"/>
		<path class="st4" d="M13.5,54.6l-3.7-4.5c-0.3-0.4-0.9-0.4-1.2-0.1c0,0-0.1,0.1-0.1,0.1l-3.5,4.5v69.6h8.6L13.5,54.6z"/>
		<path class="st4" d="M48,54.6l-3.7-4.5c-0.3-0.4-0.9-0.4-1.2-0.1c0,0-0.1,0.1-0.1,0.1l-3.5,4.5v69.6H48L48,54.6z"/>
		<path class="st4" d="M56.6,54.6l-3.7-4.5c-0.3-0.4-0.9-0.4-1.2-0.1c0,0-0.1,0.1-0.1,0.1L48,54.6v69.6h8.6L56.6,54.6z"/>
		<path class="st4" d="M65.2,54.6l-3.7-4.5c-0.3-0.4-0.9-0.4-1.2-0.1c0,0-0.1,0.1-0.1,0.1l-3.5,4.5v69.6h8.6L65.2,54.6z"/>
		<path class="st4" d="M73.8,54.6l-3.7-4.5c-0.3-0.4-0.9-0.4-1.2-0.1c0,0-0.1,0.1-0.1,0.1l-3.5,4.5v69.6h8.6L73.8,54.6z"/>
		<path class="st4" d="M82.4,54.6l-3.7-4.5c-0.3-0.4-0.9-0.4-1.2-0.1c0,0-0.1,0.1-0.1,0.1l-3.5,4.5v69.6h8.6L82.4,54.6z"/>
		<path class="st4" d="M91.1,54.6l-3.7-4.5c-0.3-0.4-0.9-0.4-1.2-0.1c0,0-0.1,0.1-0.1,0.1l-3.5,4.5v69.6h8.6L91.1,54.6z"/>
		<path class="st4" d="M99.7,54.6l-3.7-4.5c-0.3-0.4-0.9-0.4-1.2-0.1c0,0-0.1,0.1-0.1,0.1l-3.5,4.5v69.6h8.6L99.7,54.6z"/>
		<path class="st4" d="M108.3,54.6l-3.7-4.5c-0.3-0.4-0.9-0.4-1.2-0.1c0,0-0.1,0.1-0.1,0.1l-3.5,4.5v69.6h8.6L108.3,54.6z"/>
		<path class="st4" d="M116.9,54.6l-3.7-4.5c-0.3-0.4-0.9-0.4-1.2-0.1c0,0-0.1,0.1-0.1,0.1l-3.5,4.5v69.6h8.6L116.9,54.6z"/>
		<path class="st4" d="M125.5,54.6l-3.7-4.5c-0.3-0.4-0.9-0.4-1.2-0.1c0,0-0.1,0.1-0.1,0.1l-3.5,4.5v69.6h8.6V54.6z"/>
		<path class="st4" d="M134.1,54.6l-3.7-4.5c-0.3-0.4-0.9-0.4-1.2-0.1c0,0-0.1,0.1-0.1,0.1l-3.5,4.5v69.6h8.6L134.1,54.6z"/>
		<path class="st4" d="M142.7,54.6l-3.7-4.5c-0.3-0.4-0.9-0.4-1.2-0.1c0,0-0.1,0.1-0.1,0.1l-3.5,4.5v69.6h8.6L142.7,54.6z"/>
		<path class="st4" d="M151.3,54.6l-3.7-4.5c-0.3-0.4-0.9-0.4-1.2-0.1c0,0-0.1,0.1-0.1,0.1l-3.5,4.5v69.6h8.6L151.3,54.6z"/>
		<path class="st4" d="M159.9,54.6l-3.7-4.5c-0.3-0.4-0.9-0.4-1.2-0.1c0,0-0.1,0.1-0.1,0.1l-3.5,4.5v69.6h8.6V54.6z"/>
		<g class="st6">
			<path class="st7" d="M39.4,54.6l-3.7-4.5c-0.3-0.4-0.9-0.4-1.2-0.1c0,0-0.1,0.1-0.1,0.1l-3.5,4.5v69.6h8.6L39.4,54.6z"/>
			<path class="st7" d="M30.8,54.6l-3.7-4.5c-0.3-0.4-0.9-0.4-1.2-0.1c0,0-0.1,0.1-0.1,0.1l-3.5,4.5v69.5h8.6V54.6z"/>
			<path class="st7" d="M22.1,54.6l-3.7-4.5c-0.3-0.4-0.9-0.4-1.2-0.1c0,0-0.1,0.1-0.1,0.1l-3.5,4.5v69.6h8.6L22.1,54.6z"/>
			<path class="st7" d="M13.5,54.6l-3.7-4.5c-0.3-0.4-0.9-0.4-1.2-0.1c0,0-0.1,0.1-0.1,0.1l-3.5,4.5v69.6h8.6L13.5,54.6z"/>
			<path class="st7" d="M48,54.6l-3.7-4.5c-0.3-0.4-0.9-0.4-1.2-0.1c0,0-0.1,0.1-0.1,0.1l-3.5,4.5v69.6H48L48,54.6z"/>
			<path class="st7" d="M56.6,54.6l-3.7-4.5c-0.3-0.4-0.9-0.4-1.2-0.1c0,0-0.1,0.1-0.1,0.1L48,54.6v69.6h8.6L56.6,54.6z"/>
			<path class="st7" d="M65.2,54.6l-3.7-4.5c-0.3-0.4-0.9-0.4-1.2-0.1c0,0-0.1,0.1-0.1,0.1l-3.5,4.5v69.6h8.6L65.2,54.6z"/>
			<path class="st7" d="M73.8,54.6l-3.7-4.5c-0.3-0.4-0.9-0.4-1.2-0.1c0,0-0.1,0.1-0.1,0.1l-3.5,4.5v69.6h8.6L73.8,54.6z"/>
			<path class="st7" d="M82.4,54.6l-3.7-4.5c-0.3-0.4-0.9-0.4-1.2-0.1c0,0-0.1,0.1-0.1,0.1l-3.5,4.5v69.6h8.6L82.4,54.6z"/>
			<path class="st7" d="M91.1,54.6l-3.7-4.5c-0.3-0.4-0.9-0.4-1.2-0.1c0,0-0.1,0.1-0.1,0.1l-3.5,4.5v69.6h8.6L91.1,54.6z"/>
			<path class="st7" d="M99.7,54.6l-3.7-4.5c-0.3-0.4-0.9-0.4-1.2-0.1c0,0-0.1,0.1-0.1,0.1l-3.5,4.5v69.6h8.6L99.7,54.6z"/>
			<path class="st7" d="M108.3,54.6l-3.7-4.5c-0.3-0.4-0.9-0.4-1.2-0.1c0,0-0.1,0.1-0.1,0.1l-3.5,4.5v69.6h8.6L108.3,54.6z"/>
			<path class="st7" d="M116.9,54.6l-3.7-4.5c-0.3-0.4-0.9-0.4-1.2-0.1c0,0-0.1,0.1-0.1,0.1l-3.5,4.5v69.6h8.6L116.9,54.6z"/>
			<path class="st7" d="M125.5,54.6l-3.7-4.5c-0.3-0.4-0.9-0.4-1.2-0.1c0,0-0.1,0.1-0.1,0.1l-3.5,4.5v69.6h8.6V54.6z"/>
			<path class="st7" d="M134.1,54.6l-3.7-4.5c-0.3-0.4-0.9-0.4-1.2-0.1c0,0-0.1,0.1-0.1,0.1l-3.5,4.5v69.6h8.6L134.1,54.6z"/>
			<path class="st7" d="M142.7,54.6l-3.7-4.5c-0.3-0.4-0.9-0.4-1.2-0.1c0,0-0.1,0.1-0.1,0.1l-3.5,4.5v69.6h8.6L142.7,54.6z"/>
			<path class="st7" d="M151.3,54.6l-3.7-4.5c-0.3-0.4-0.9-0.4-1.2-0.1c0,0-0.1,0.1-0.1,0.1l-3.5,4.5v69.6h8.6L151.3,54.6z"/>
			<path class="st7" d="M159.9,54.6l-3.7-4.5c-0.3-0.4-0.9-0.4-1.2-0.1c0,0-0.1,0.1-0.1,0.1l-3.5,4.5v69.6h8.6V54.6z"/>
		</g>
		<path class="st8" d="M159.3,126l10.2,0.2l-3.6-1.1l-0.7-0.2l-1.2-0.3l0.8-2.8l-1.2,1.3v-2.3l-1.9,0.8l-1.4-2.6l-0.6,1.7l-1.1-3.4
			l-0.6,3.4l-1.7-1.9v3.4l-2.3-1.7l-0.2,1.7l-1.6-3l-0.5,2.8l-1.4-1.9l0.2,2.3l-0.8-0.5l0.4-1l-1,0.6l-1-0.6l0.4,1l-0.8,0.5l0.2-2.3
			l-1.4,1.9l-0.5-2.8l-1.5,3l-0.2-1.7l-2.3,1.7V119l-1.7,1.9l-0.6-3.4l-1.1,3.4l-0.6-1.7l-1.4,2.5l-1.9-0.9v2.3l-1.3-1.3l0.8,2.8
			l-1.2,0.3l-0.7,0.2l-0.7,0.2h-1.5l0.9-1.9l-2,0.2l1.1-2.6l-2.3,1.5l0.2-2.3l-1.4,1.9l-0.5-2.8l-1.6,3l-0.2-1.7l-2.3,1.7V119
			l-1.7,1.9l-0.6-3.4l-1.1,3.4l-0.6-1.7l-1.4,2.5l-1.9-0.9v2.3l-1.3-1.3l0.8,2.8l-1.2,0.3l-0.7,0.2h-0.1l1-1.7l-2.4,0.2l1.3-2.6
			l-2.8,1.5l0.2-2.3l-1.7,1.9l-0.6-2.8l-1.9,3l-0.2-1.7l-2.8,1.7V119l-2.1,1.9l-0.7-3.4l-1.3,3.4l-0.7-1.7l-1.7,2.6l-0.9-0.3
			l0.1-1.2l-0.7,0.9l-0.8-0.3v1l-0.4-2.5l-1.6,3l-0.2-1.7l-2.3,1.7V119l-1.7,1.9l-0.6-3.4l-1.1,3.4l-0.6-1.7l-1.4,2.6l-1.9-0.9v2.3
			l-1.2-1.3l0.5,1.6l-1.3,0.1l1.1-2.6l-2.3,1.5l0.2-2.3l-1.4,1.9l-0.5-2.8l-1.5,3l-0.2-1.7l-2.3,1.7V119l-1.7,1.9l-0.6-3.4l-1.1,3.4
			l-0.6-1.7l-1.4,2.5l-1.9-0.9v2.3l-1.2-1.3l0.5,1.6l-1.3,0.1l1.1-2.6l-2.4,1.5l0.2-2.3l-1.4,1.9l-0.5-2.8l-1.5,3l-0.2-1.7l-2.3,1.7
			V119l-1.7,1.9l-0.6-3.4l-1.1,3.4l-0.6-1.7l-1.4,2.5l-1.9-0.9v2.3l-1.2-1.3l0.5,1.6l-1.3,0.1l1.1-2.6l-2.3,1.5l0.2-2.3l-1.4,1.9
			l-0.5-2.8l-1.5,3l-0.2-1.7l-2.3,1.7V119l-1.7,1.9l-0.6-3.4L37,121l-0.6-1.7l-1.4,2.5l-1.9-0.9v2.3l-1.2-1.3l0.5,1.6l-1.3,0.1
			l1.1-2.6l-2.3,1.5l0.2-2.3l-1.4,1.9l-0.5-2.8l-1.6,3l-0.2-1.7l-2.3,1.7V119l-1.7,1.9l-0.6-3.4l-1.1,3.4l-0.6-1.7l-1.4,2.5
			l-1.3-0.6v0l0,0l-0.5-0.2v0.6l-1.1,0.7l-0.2-0.2l0.1,0.3l-0.6,0.4l0.2-2.3l-1.4,1.9l-0.5-2.8l-1.6,3l-0.2-1.7l-2.3,1.7V119
			L7.5,121l-0.6-3.4L5.8,121l-0.6-1.7l-1.4,2.5l-1.9-0.9v2.3L0.7,122l0.8,2.8L0.3,125l-0.7,0.2l-3.6,1.1L6.3,126L3.3,128l15.5-0.5
			l-0.7,0.5l17.2-0.5l-0.8,0.5l17.2-0.5l-0.8,0.5l17.1-0.5l-0.8,0.5l17.2-0.5l-0.8,0.5l12.7-0.4l-0.7,0.4l21.5-0.5l-0.8,0.5
			l20.9-0.6l-1,0.6l13-0.4l13,0.4L159.3,126z M16.7,122.5v0.8l-0.2-0.2L16.7,122.5z M19.1,126.1l2,0l-0.6,0.4L19.1,126.1z
			 M32.7,124.8l-0.2,0.1l0.2-0.3L32.7,124.8z M49,124.8l-0.2,0.1l0.1-0.3L49,124.8z M50.4,126.1l3.5-0.1l-0.9,0.6L50.4,126.1z
			 M65.4,124.8l-0.2,0.1l0.2-0.3L65.4,124.8z M66.7,126.1l3.5-0.1l-0.9,0.6L66.7,126.1z M81.7,124.8l-0.2,0.1l0.2-0.3L81.7,124.8z
			 M83.1,126.1l3.5-0.1l-1,0.6L83.1,126.1z M99.1,126.1L99.1,126.1L99.1,126.1L99.1,126.1z M114.8,126.1l4.5-0.1l-1.1,0.7
			L114.8,126.1z M137.4,127.3l-4.9-1.1l6.7-0.1L137.4,127.3z M149.4,123.7L149.4,123.7h-0.2l0.1-0.2L149.4,123.7z"/>
		<path class="st9" d="M159.3,126l10.2,0.2l-3.6-1.1l-0.7-0.2l-1.2-0.3l0.8-2.8l-1.2,1.3v-2.3l-1.9,0.8l-1.4-2.6l-0.6,1.7l-1.1-3.4
			l-0.6,3.4l-1.7-1.9v3.4l-2.3-1.7l-0.2,1.7l-1.6-3l-0.5,2.8l-1.4-1.9l0.2,2.3l-0.8-0.5l0.4-1l-1,0.6l-1-0.6l0.4,1l-0.8,0.5l0.2-2.3
			l-1.4,1.9l-0.5-2.8l-1.5,3l-0.2-1.7l-2.3,1.7V119l-1.7,1.9l-0.6-3.4l-1.1,3.4l-0.6-1.7l-1.4,2.5l-1.9-0.9v2.3l-1.3-1.3l0.8,2.8
			l-1.2,0.3l-0.7,0.2l-0.7,0.2h-1.5l0.9-1.9l-2,0.2l1.1-2.6l-2.3,1.5l0.2-2.3l-1.4,1.9l-0.5-2.8l-1.6,3l-0.2-1.7l-2.3,1.7V119
			l-1.7,1.9l-0.6-3.4l-1.1,3.4l-0.6-1.7l-1.4,2.5l-1.9-0.9v2.3l-1.3-1.3l0.8,2.8l-1.2,0.3l-0.7,0.2h-0.1l1-1.7l-2.4,0.2l1.3-2.6
			l-2.8,1.5l0.2-2.3l-1.7,1.9l-0.6-2.8l-1.9,3l-0.2-1.7l-2.8,1.7V119l-2.1,1.9l-0.7-3.4l-1.3,3.4l-0.7-1.7l-1.7,2.6l-0.9-0.3
			l0.1-1.2l-0.7,0.9l-0.8-0.3v1l-0.4-2.5l-1.6,3l-0.2-1.7l-2.3,1.7V119l-1.7,1.9l-0.6-3.4l-1.1,3.4l-0.6-1.7l-1.4,2.6l-1.9-0.9v2.3
			l-1.2-1.3l0.5,1.6l-1.3,0.1l1.1-2.6l-2.3,1.5l0.2-2.3l-1.4,1.9l-0.5-2.8l-1.5,3l-0.2-1.7l-2.3,1.7V119l-1.7,1.9l-0.6-3.4l-1.1,3.4
			l-0.6-1.7l-1.4,2.5l-1.9-0.9v2.3l-1.2-1.3l0.5,1.6l-1.3,0.1l1.1-2.6l-2.4,1.5l0.2-2.3l-1.4,1.9l-0.5-2.8l-1.5,3l-0.2-1.7l-2.3,1.7
			V119l-1.7,1.9l-0.6-3.4l-1.1,3.4l-0.6-1.7l-1.4,2.5l-1.9-0.9v2.3l-1.2-1.3l0.5,1.6l-1.3,0.1l1.1-2.6l-2.3,1.5l0.2-2.3l-1.4,1.9
			l-0.5-2.8l-1.5,3l-0.2-1.7l-2.3,1.7V119l-1.7,1.9l-0.6-3.4L37,121l-0.6-1.7l-1.4,2.5l-1.9-0.9v2.3l-1.2-1.3l0.5,1.6l-1.3,0.1
			l1.1-2.6l-2.3,1.5l0.2-2.3l-1.4,1.9l-0.5-2.8l-1.6,3l-0.2-1.7l-2.3,1.7V119l-1.7,1.9l-0.6-3.4l-1.1,3.4l-0.6-1.7l-1.4,2.5
			l-1.3-0.6v0l0,0l-0.5-0.2v0.6l-1.1,0.7l-0.2-0.2l0.1,0.3l-0.6,0.4l0.2-2.3l-1.4,1.9l-0.5-2.8l-1.6,3l-0.2-1.7l-2.3,1.7V119
			L7.5,121l-0.6-3.4L5.8,121l-0.6-1.7l-1.4,2.5l-1.9-0.9v2.3L0.7,122l0.8,2.8L0.3,125l-0.7,0.2l-3.6,1.1L6.3,126L3.3,128l15.5-0.5
			l-0.7,0.5l17.2-0.5l-0.8,0.5l17.2-0.5l-0.8,0.5l17.1-0.5l-0.8,0.5l17.2-0.5l-0.8,0.5l12.7-0.4l-0.7,0.4l21.5-0.5l-0.8,0.5
			l20.9-0.6l-1,0.6l13-0.4l13,0.4L159.3,126z M16.7,122.5v0.8l-0.2-0.2L16.7,122.5z M19.1,126.1l2,0l-0.6,0.4L19.1,126.1z
			 M32.7,124.8l-0.2,0.1l0.2-0.3L32.7,124.8z M49,124.8l-0.2,0.1l0.1-0.3L49,124.8z M50.4,126.1l3.5-0.1l-0.9,0.6L50.4,126.1z
			 M65.4,124.8l-0.2,0.1l0.2-0.3L65.4,124.8z M66.7,126.1l3.5-0.1l-0.9,0.6L66.7,126.1z M81.7,124.8l-0.2,0.1l0.2-0.3L81.7,124.8z
			 M83.1,126.1l3.5-0.1l-1,0.6L83.1,126.1z M99.1,126.1L99.1,126.1L99.1,126.1L99.1,126.1z M114.8,126.1l4.5-0.1l-1.1,0.7
			L114.8,126.1z M137.4,127.3l-4.9-1.1l6.7-0.1L137.4,127.3z M149.4,123.7L149.4,123.7h-0.2l0.1-0.2L149.4,123.7z"/>
	</g>
	<g id="freepik--Character--inject-2">
		<path class="st10" d="M59.1,70.8c0,0,4,1.5,6.1,5.2c2.1,3.7,5.5,19,5.5,19s6.3,0.5,7.6,0.5c1.3,0,9.6-0.7,9.6-0.7l0.4,2.6
			c0,0-5.4,2.3-10.4,2.9c-4.9,0.6-10.6,0.3-11.5-0.2s-5.5-12.3-5.5-12.3s-1-5.2-1.8-8.8C58.2,75.4,57.4,72.1,59.1,70.8z"/>
		<polyline class="st11" points="64.3,78.2 62,82.8 64.1,81 		"/>
		<path class="st10" d="M87.8,95c0,0-8.2,0.7-9.6,0.7s-7.6-0.5-7.6-0.5s-0.8-3.4-1.8-7.4c-2.4,0.9-4.7,1.9-6.9,3.2
			c1.4,3.5,3.7,8.8,4.3,9.2c0.9,0.6,6.6,0.8,11.5,0.2c4.9-0.6,10.4-2.9,10.4-2.9L87.8,95z"/>
		<path class="st12" d="M91.6,97.9l-2.1-0.1l-6.1,2l-0.8-5.3l4.7,0.2c1-0.6,2.1-1.1,3.2-1.6c0.7-0.2,3.5,0.1,3.5,0.1
			s0.2,0.3-0.2,0.6l-0.4,0.3c0,0,2.5,0.8,2.9,1.2c0.4,0.3-0.2,1.1-0.2,1.1c-0.1,0.4-0.4,0.7-0.8,0.9c-0.6,0.3-1.2,0.4-1.8,0.5
			C93.4,97.8,92.1,97.9,91.6,97.9z"/>
		<path class="st10" d="M52.9,128c0,0,2-0.2,2.9-1.1s-1-2.3-2.1-1.5S52.4,126.2,52.9,128z"/>
		<path class="st13" d="M51.4,69.8c-2.9,1.2-5.5,3-7.6,5.2c-3.9,3.9-4.1,9.2-4.9,14.1c-0.8,5-0.1,15.9,0.1,19.5
			c0.2,3.6,3.3,7.9,9,13.5s17.9,14,21.9,14c4,0,5.8-4.5,5.3-8.3c-1.3-9.5-14.5-22.6-15.2-24.2c-0.8-1.6-0.3-4-0.3-4.4
			c0.1-0.4,2.5-12,3.2-15.2S61.6,72.3,60,71.2C58.4,70.1,55.3,69,51.4,69.8z"/>
		<path class="st11" d="M54.8,106.3c0,0,2.1-2.1,3.7-2.3"/>
		<path class="st11" d="M38.9,100c0,0,5.6,3.7,18.7,1"/>
		<path class="st11" d="M39.8,101.9c0,0,9,3.2,17.2,0.3"/>
		<path class="st11" d="M51.6,85.9c3.4-0.1,6.7-0.9,9.8-2.3l-0.2,1.1"/>
		<path class="st11" d="M56.5,122c0,0,7.5,7.3,9.4,8.1"/>
		<path class="st11" d="M51.6,117.2c0,0,0.7-4.5,5.2-8.8"/>
		<path class="st12" d="M56.5,122c0,0-3.2,3.2-3.6,6l-6.3-6.5c-0.4-0.3-0.8-0.5-1.3-0.7c-0.3,0-1.4,2.6-2.1,3.7
			c-0.7,1-1.4,0.1-1.4-1.7c0.1-1.7,2.2-4.9,2.5-6.4c0.3-1.5,1.5-2.6,2.5-2.3C47.9,114.3,56.5,122,56.5,122z"/>
		<path class="st10" d="M40.1,95.2c1.9-0.1,6.1-1.2,8-4.1c1.9-2.9,1.9-9.9,0.6-13.6c-1-2.7-2.5-3.6-3.3-3.9
			c-0.5,0.5-1.1,0.9-1.6,1.5c-3.9,3.9-4.1,9.2-4.9,14.1c-0.3,2-0.4,4-0.4,6L40.1,95.2z"/>
		<path class="st10" d="M51.4,69.8c-1.7,0.7-3.2,1.6-4.6,2.7c1,0.6,1.9,1.5,2.5,2.5c1.2,2.1,2.1,8.1,2.1,8.1s0.5,0,3.8-0.5
			c2.2-0.3,4.3-0.9,6.3-1.7c-0.1-1.6-1.7-9-2.3-10c-0.1-0.1-0.2-0.2-0.2-0.3C56.5,69.5,53.9,69.2,51.4,69.8z"/>
		<path class="st11" d="M49.7,74.7c0,0,3,4.9,5.5,4.5s2.5-3.6,2.5-3.6"/>
		<path class="st10" d="M50.2,64.7c0,0-0.2,5.4,0,7.2c0.2,1.8,2.8,5.6,5,5.4c2.1-0.3,2.1-5.9,2.1-5.9s-3.7-5.4-4.7-6.3
			C51.5,64.1,50.5,64.1,50.2,64.7z"/>
		<path class="st10" d="M50,63.8c0,0-1.4-1.1-2.1-0.1c-0.7,1,0.5,3.4,1.5,3.7c1,0.3,1.4,0.1,1.4,0.1c0.5,1.4,1.1,2.7,1.9,3.9
			c1,1.4,4,3.9,6.1,3.2s3-5.4,3.4-7.4c0.2-0.8,0.3-1.6,0.3-2.4c-1.7-0.4-3.5-0.7-5.2-0.8C54.4,63.9,50,63.8,50,63.8z"/>
		<path class="st12" d="M51.6,64.4c0,0,0.4,2.1-0.2,2.3c-0.6,0.1-1.3-2.8-1.3-2.8L51.6,64.4z"/>
		<path class="st11" d="M59.9,66.4c0,0,0.3,3.2-0.2,3.4c-0.6,0.3-1.5-0.3-1.5-0.3"/>
		<path class="st12" d="M49.1,62.9c0,0,3.5,3.5,6.6,3.8c3.2,0.3,10.9-1.7,11.3-2.6c0.5-0.8-4-2.9-4-2.9s-0.5-5.4-1.2-6.8
			c-0.7-1.4-4.8-2.6-8.2-1.5c-3.4,1.1-5.7,2.2-5.6,4.1C48.2,59,49.1,62.9,49.1,62.9z"/>
		<path class="st14" d="M51.5,63.2c3.2,0.3,8.8,0.3,11.6-1.9"/>
		<path class="st10" d="M40.2,84.1c0,0,1.2,5.9,2,9s1,4.4,1.7,4.7c0.7,0.3,22.9-3.2,22.9-3.2v-2.4L50,90.5c0,0-1.5-11-2.3-12.4
			c-0.4-0.9-1.3-1.4-2.3-1.3"/>
		<path class="st10" d="M49.4,85.9c-3.1-0.1-6,1.1-8.2,3.3c0.3,1.4,0.6,2.8,0.9,3.9c0.8,3.2,1,4.4,1.7,4.7
			c0.7,0.3,22.9-3.2,22.9-3.2v-2.4l-16.8-1.7C49.9,90.5,49.8,88.4,49.4,85.9z"/>
		<path class="st11" d="M50,90.5c0,0-3.2-0.3-4.9,1.2"/>
		<path class="st10" d="M76.8,90.5c0,0,2.4-1.4,4.3-1.9l-3.9,2.9l0.6,0.8l4.7-2c0,0-1.9,1.9-2.9,2.3c-0.6,0.3-1.2,0.6-1.7,0.9
			l-1.8-2.7L76.8,90.5z"/>
		<path class="st10" d="M75.6,94.2c0,0-0.1,0.8-1.3,1.7c-1.2,1-2.6,0.8-1.5,1.2c1.1,0.3,2.5-0.1,3.9-2.5S75.6,94.2,75.6,94.2z"/>
		<path class="st12" d="M65,91.4l0.3,4.1l3.9-0.9c0.6,0.3,1.2,0.5,1.8,0.6c1.3,0.1,2.7-0.1,4-0.4c0.4-0.1,0.8-0.2,1.2-0.3
			c0,0-0.5,0.9,0.1,0.9c0.5,0,1.7-0.3,2.1-0.8c0.3-0.5,0.3-1.5,0.3-1.5s0.1-1-0.3-1.6c-0.4-0.5-1.8-1.8-2.5-1.7
			c-0.7,0.1-6.7,1.5-7.2,1.7C68.1,91.6,65,91.4,65,91.4z"/>
		<path class="st13" d="M42.7,101.1c0,0-3.4,4.5-4,9.2s1,10.4,1.6,11.6c0.5,1.2,0.4,2.2,1.9,2.4c1.4,0.2,8.6,0.3,9-1
			c0.3-1.2,0.6-17.6,0.3-20s-3.7-3.6-5.1-3.6C45,99.7,43.7,100.2,42.7,101.1z"/>
		<path class="st12" d="M39.9,122.3c3.9,0.5,7.8,0.2,11.6-0.8c0,0-0.3,17.9-0.1,18.3c0.2,0.4,3.7,4.8,4.9,5.9s1.4,1.4,0.7,2.3
			c-0.8,0.8-1.9,1.8-5.6,0.3c-3.7-1.5-4.8-4.3-5.8-5.7s-0.8-1.7-0.8-3.8C44.8,136.6,39.9,122.3,39.9,122.3z"/>
		<path class="st11" d="M43.2,122.4c-1-1.7-1.6-3.5-2-5.4"/>
		<path class="st11" d="M47.1,122.4c0,0,1.6-2.5,1.1-4.3"/>
	</g>
	<g id="freepik--Plants--inject-2">
		<path class="st10" d="M19.5,123.4l0.5,8.9c0,0.9,0.6,1.6,1.4,1.9c3,1.2,6.4,1.2,9.4,0c0.8-0.3,1.3-1,1.4-1.9l0.6-8.9L19.5,123.4z"
			/>
		<path class="st10" d="M18.8,120.4v3.2c0,0.6,3.2,1,7.2,1s7.2-0.5,7.2-1v-3.2H18.8z"/>
		<ellipse class="st10" cx="26" cy="120.4" rx="7.2" ry="1"/>
		<path class="st12" d="M19.6,120.9c1.2,0.3,3.6,0.6,6.4,0.6s5.2-0.2,6.4-0.6c-1.2-0.3-3.6-0.6-6.4-0.6S20.8,120.5,19.6,120.9z"/>
		<path class="st10" d="M24.6,113.9c0,0-0.6,4.1-0.2,6.7h4c0.8-2,1.4-4.1,1.9-6.2l-3,0.7L24.6,113.9z"/>
		<path class="st12" d="M27.6,113.4L27.6,113.4c-0.6-0.1-0.9-0.5-0.9-1c0,0,0,0,0,0l1-7.5c0.1-0.5,0.5-0.9,1-0.8
			c0.5,0.1,0.9,0.5,0.8,1l-1,7.5C28.5,113.1,28.1,113.5,27.6,113.4z"/>
		<path class="st10" d="M27,117.7L27,117.7c-0.3,0-0.5-0.3-0.4-0.5l0.6-4.7c0-0.3,0.3-0.4,0.5-0.4c0.3,0,0.4,0.3,0.4,0.5l-0.6,4.7
			C27.5,117.5,27.3,117.7,27,117.7z"/>
		<path class="st10" d="M105.3,124l0.5,8.9c0,0.9,0.6,1.6,1.4,1.9c3,1.2,6.4,1.2,9.4,0c0.8-0.3,1.3-1,1.4-1.9l0.6-8.9L105.3,124z"/>
		<path class="st10" d="M104.6,121v3.2c0,0.6,3.2,1,7.2,1c4,0,7.2-0.5,7.2-1V121H104.6z"/>
		<ellipse class="st10" cx="111.8" cy="121" rx="7.2" ry="1"/>
		<path class="st12" d="M105.4,121.4c1.2,0.3,3.6,0.6,6.4,0.6s5.2-0.2,6.4-0.6c-1.2-0.3-3.6-0.6-6.4-0.6S106.6,121.1,105.4,121.4z"
			/>
		<path class="st0" d="M112.2,121.5c0,0-0.3-16.1-1-18c-0.7-1.9-4.8-4.2-4.8-2.9c0,0.8,0.4,1.6,0.9,2.2c0,0-6.6-0.9-5.3,0.7
			s4.1,0.9,4.1,0.9s-6.5,1.9-3.2,2.4c1.8,0.3,3.6,0.4,5.4,0.5c0,0-2,1.8-0.3,1.8c0.9,0,1.8-0.1,2.7-0.5l0.8,13H112.2z"/>
		<path class="st0" d="M112.5,121.5l-1.3-18c0,0,4.5-4.9,4.9-3.6s-1.8,2.6-0.9,2.6s6-2.8,6.7-0.8c0.7,2-7.1,2.6-5.9,3.3
			s4.5,0.6,2,1.4s-6.3,1.5-5.1,2c1.2,0.6,0.7,0.9,0.2,1.5l-0.2,11.7H112.5z"/>
		<path class="st0" d="M110.4,121.6c0,0-1.4-2.4-1.4-3.5s0.3-2.7-0.3-4.3s-2.6,0.1-3.1,0.5s-1.8-2.3-2.8-1.7c-1,0.6,0.8,1.6,0.5,2
			c-0.3,0.5-5.5-1-5.5,0.6s5.1,0.2,5.5,0.8s-3.1,1.4-1.2,1.9c1.8,0.6,2.9-1.2,3.1-0.6c0.1,0.7-2.7,1.5-0.6,2
			c2.2,0.6,2.9-0.1,3.6,0.2c0.7,0.3,1.7,2,1.7,2H110.4z"/>
		<path class="st0" d="M113.3,121.6c0,0,1.4-2.4,1.4-3.5s-0.3-2.7,0.3-4.3c0.7-1.6,2.6,0.1,3.1,0.5s1.8-2.3,2.8-1.7
			c1,0.6-0.8,1.6-0.5,2c0.3,0.5,5.5-1,5.5,0.6s-5.1,0.2-5.5,0.8s3.1,1.4,1.2,1.9c-1.8,0.6-2.9-1.2-3.1-0.6c-0.1,0.7,2.7,1.5,0.6,2
			c-2.2,0.6-2.9-0.1-3.6,0.2s-1.7,2-1.7,2H113.3z"/>
		<path class="st0" d="M111.5,121.5c0,0-0.7-10.2-0.9-10.6c-0.2-0.5-1.7,0.1-3.5,0.9c-1.8,0.8-1.1,0.5-2.2,0.1
			c-1-0.3-2.4,0.1-4.2,0.5c-1.8,0.3-1.4-1.9,0.6-2.6c1.1-0.4,2.3-0.6,3.5-0.7c0,0-2.3-1-0.2-1.4s4.4,1.2,5.5,1.9
			c0.6,0.3,1.1,0.9,1.2,1.6l0.8,10.3H111.5z"/>
		<path class="st0" d="M112.5,121.5c0,0,0.7-10.2,0.9-10.6c0.2-0.5,1.7,0.1,3.5,0.9s1.1,0.5,2.2,0.1c1-0.3,2.4,0.1,4.2,0.5
			c1.8,0.3,1.4-1.9-0.6-2.6c-1.1-0.4-2.3-0.6-3.5-0.7c0,0,2.3-1,0.2-1.4s-4.4,1.2-5.5,1.9c-0.6,0.3-1.1,0.9-1.2,1.6l-0.8,10.3H112.5
			z"/>
		<path class="st10" d="M123.9,124l0.5,8.9c0,0.9,0.6,1.6,1.4,1.9c3,1.2,6.4,1.2,9.4,0c0.8-0.3,1.3-1,1.4-1.9l0.6-8.9L123.9,124z"/>
		<path class="st10" d="M123.2,121v3.2c0,0.6,3.2,1,7.2,1c4,0,7.2-0.5,7.2-1V121H123.2z"/>
		<ellipse class="st10" cx="130.5" cy="121" rx="7.2" ry="1"/>
		<path class="st12" d="M124,121.4c1.2,0.3,3.6,0.6,6.4,0.6c2.8,0,5.2-0.2,6.4-0.6c-1.2-0.3-3.6-0.6-6.4-0.6
			C127.7,120.9,125.2,121.1,124,121.4z"/>
		<path class="st15" d="M126.8,113.9c1.2,2.5,2.1,5,2.8,7.6c0,0-0.3-9.1-0.9-12.5"/>
		<path class="st15" d="M133.2,111.4c0,0-2.4,5.2-2.8,10.1"/>
		<path class="st15" d="M133.8,115.7c0,0-2.4,3.8-2.7,5.8"/>
		<path class="st15" d="M129.2,117.6c0.4,1.2,0.6,2.4,0.7,3.7"/>
		<path class="st0" d="M128.9,108.1c0,0-1-1.1-1.7-0.8c-0.7,0.4-0.9,1,0.2,1.2c1.1,0.2-1.4,0.1-0.9,1.3c0.5,1.2,1.7-0.9,2.2-0.2
			c0.5,0.7,0.5,1.4,1.1,1.1c1.3-0.5-0.2-1.4,0.2-1.9c0.4-0.5,1.1-0.1,1.1-0.8S130.1,106.8,128.9,108.1z"/>
		<path class="st0" d="M133.6,110.7c0,0-1-1.1-1.7-0.8c-0.7,0.4-0.9,1,0.2,1.2c1.1,0.2-1.4,0.1-0.9,1.3c0.5,1.2,1.7-0.9,2.2-0.2
			c0.5,0.7,0.5,1.4,1.1,1.1c1.3-0.5-0.2-1.4,0.2-1.9s1.1-0.1,1.1-0.8S134.8,109.3,133.6,110.7z"/>
		<path class="st0" d="M129.4,117c0,0-1-1.1-1.7-0.8c-0.7,0.4-0.9,1,0.2,1.2c1.1,0.2-1.4,0.1-0.9,1.3c0.5,1.2,1.7-0.9,2.2-0.2
			c0.5,0.7,0.4,1.4,1.1,1.1c1.3-0.5-0.2-1.4,0.2-1.9s1.1-0.1,1.1-0.8S130.6,115.7,129.4,117z"/>
		<path class="st0" d="M127,113.1c0,0-1-1.1-1.7-0.8c-0.7,0.4-0.9,1,0.2,1.2c1.1,0.2-1.4,0.1-0.9,1.3c0.5,1.2,1.7-0.9,2.2-0.2
			c0.5,0.7,0.4,1.4,1.1,1.1c1.3-0.5-0.2-1.4,0.2-1.9c0.4-0.5,1.1-0.1,1.1-0.8S128.2,111.8,127,113.1z"/>
		<path class="st0" d="M134.1,115.1c0,0-1-1.1-1.7-0.8c-0.7,0.4-0.9,1,0.2,1.2c1.1,0.2-1.4,0.1-0.9,1.3s1.7-0.9,2.2-0.2
			c0.5,0.7,0.5,1.4,1.1,1.1c1.3-0.5-0.2-1.4,0.2-1.9c0.4-0.5,1.1-0.1,1.1-0.8S135.3,113.8,134.1,115.1z"/>
		<path class="st16" d="M83.6,137.5c0,0-2.5-7.7,5.2-22.7s0.4-39.1,0.4-39.1"/>
		<path class="st16" d="M78.8,137.1c0,0-2.7-5.7,0.4-14.2s2.3-13.2,2.3-13.2"/>
		<path class="st16" d="M90.5,111c0,0,6-7.3,8.3-16.1c0.5-2,0.9-3.8,1.3-5.4"/>
		<path class="st16" d="M86,137.7c0,0,3.6-7.1,4.3-17.5c0.4-6.3-0.2-12.7-1.9-18.8"/>
		<path class="st0" d="M86.4,114.8c0,0.2-0.3,0.4-0.4,0.6c-0.1,0.2,0.1,0.5,0,0.7c-0.1,0.2-0.4,0.3-0.5,0.5c-0.1,0.2,0,0.5-0.2,0.7
			s-0.5,0.2-0.7,0.3c-0.2,0.2-0.1,0.5-0.3,0.7c-0.2,0.1-0.5,0-0.7,0.1c-0.2,0.1-0.3,0.5-0.5,0.5c-0.2,0.1-0.5-0.1-0.7,0
			c-0.2,0.1-0.4,0.4-0.6,0.4c-0.2,0-0.5-0.2-0.7-0.2c-0.2,0-0.5,0.3-0.7,0.2c-0.2,0-0.4-0.3-0.6-0.4c-0.2-0.1-0.5,0.1-0.7,0
			c-0.2-0.1-0.3-0.4-0.5-0.5c-0.2-0.1-0.5,0-0.7-0.2s-0.2-0.5-0.3-0.7c-0.2-0.2-0.5-0.1-0.7-0.3c-0.1-0.2,0-0.5-0.1-0.7
			c-0.1-0.2-0.5-0.3-0.5-0.5c-0.1-0.2,0.1-0.5,0-0.7c-0.1-0.2-0.4-0.4-0.4-0.6c0-0.2,0.2-0.5,0.2-0.7c0-0.2-0.3-0.5-0.2-0.7
			c0-0.2,0.3-0.4,0.4-0.6c0.1-0.2-0.1-0.5,0-0.7c0.1-0.2,0.5-0.3,0.5-0.5c0.1-0.2,0-0.5,0.1-0.7c0.1-0.2,0.5-0.2,0.7-0.3
			c0.2-0.2,0.1-0.5,0.3-0.7s0.5,0,0.7-0.1s0.3-0.5,0.5-0.5c0.2-0.1,0.5,0.1,0.7,0c0.2-0.1,0.4-0.4,0.6-0.4c0.2,0,0.5,0.2,0.7,0.2
			c0.2,0,0.5-0.3,0.7-0.2c0.2,0,0.4,0.3,0.6,0.4c0.2,0.1,0.5-0.1,0.7,0c0.2,0.1,0.3,0.5,0.5,0.5c0.2,0.1,0.5,0,0.7,0.1
			c0.2,0.1,0.2,0.5,0.3,0.7s0.5,0.1,0.7,0.3c0.1,0.2,0,0.5,0.1,0.7c0.1,0.2,0.5,0.3,0.5,0.5c0.1,0.2-0.1,0.5,0,0.7
			c0.1,0.2,0.4,0.4,0.4,0.6c0,0.2-0.2,0.5-0.2,0.7S86.5,114.6,86.4,114.8z M93.7,99.7c0-0.3,0.3-0.6,0.3-0.9c0-0.3-0.5-0.5-0.5-0.8
			c0-0.3,0.2-0.7,0-0.9c-0.1-0.2-0.5-0.4-0.7-0.6s0-0.7-0.2-0.9c-0.2-0.2-0.6-0.2-0.8-0.4s-0.2-0.6-0.4-0.8c-0.2-0.2-0.7,0-0.9-0.2
			c-0.2-0.1-0.4-0.6-0.6-0.7c-0.3-0.1-0.6,0.1-0.9,0c-0.3-0.1-0.5-0.5-0.8-0.5c-0.3-0.1-0.6,0.3-0.9,0.3s-0.6-0.3-0.9-0.3
			s-0.5,0.5-0.8,0.5s-0.7-0.2-0.9,0c-0.2,0.1-0.4,0.5-0.6,0.7c-0.2,0.1-0.7,0-0.9,0.2C83,94.6,83,95,82.8,95.2s-0.6,0.2-0.8,0.4
			c-0.2,0.2,0,0.7-0.2,0.9c-0.1,0.2-0.6,0.3-0.7,0.6c-0.1,0.3,0.1,0.6,0,0.9c-0.1,0.3-0.5,0.5-0.5,0.8s0.3,0.6,0.3,0.9
			c0,0.3-0.3,0.6-0.3,0.9c0,0.3,0.5,0.5,0.5,0.8c0.1,0.3-0.2,0.7,0,0.9c0.1,0.2,0.5,0.4,0.7,0.6c0.1,0.2,0,0.7,0.2,0.9
			c0.2,0.2,0.6,0.2,0.8,0.4s0.2,0.7,0.4,0.8c0.2,0.2,0.7,0,0.9,0.2c0.2,0.1,0.4,0.6,0.6,0.7c0.3,0.1,0.6-0.1,0.9,0
			c0.3,0.1,0.5,0.5,0.8,0.5s0.6-0.3,0.9-0.3c0.3,0,0.6,0.3,0.9,0.3c0.3,0,0.5-0.4,0.8-0.5c0.3-0.1,0.7,0.2,0.9,0
			c0.2-0.1,0.4-0.5,0.6-0.7c0.2-0.1,0.7,0,0.9-0.2c0.2-0.2,0.2-0.6,0.4-0.8s0.7-0.2,0.8-0.4c0.2-0.2,0-0.7,0.2-0.9
			c0.1-0.2,0.6-0.4,0.7-0.6c0.1-0.3-0.1-0.6,0-0.9c0.1-0.3,0.5-0.5,0.5-0.8S93.7,100,93.7,99.7L93.7,99.7z M94.4,125.4
			c0-0.3,0.3-0.6,0.3-0.9s-0.4-0.5-0.5-0.8c-0.1-0.3,0.2-0.7,0-0.9s-0.5-0.4-0.7-0.6s0-0.7-0.2-0.9c-0.2-0.2-0.6-0.2-0.8-0.4
			s-0.2-0.7-0.4-0.8c-0.2-0.2-0.7,0-0.9-0.2c-0.2-0.1-0.4-0.6-0.6-0.7c-0.3-0.1-0.6,0.1-0.9,0c-0.3-0.1-0.5-0.5-0.8-0.5
			c-0.3,0-0.6,0.3-0.9,0.3s-0.6-0.3-0.9-0.3c-0.3,0-0.5,0.4-0.8,0.5c-0.3,0.1-0.7-0.2-0.9,0c-0.2,0.1-0.4,0.5-0.6,0.7
			c-0.2,0.1-0.7,0-0.9,0.2c-0.2,0.2-0.2,0.6-0.4,0.8c-0.2,0.2-0.6,0.2-0.8,0.4c-0.2,0.2,0,0.7-0.2,0.9c-0.1,0.2-0.6,0.4-0.7,0.6
			c-0.1,0.3,0.1,0.6,0,0.9c-0.1,0.3-0.5,0.5-0.5,0.8c-0.1,0.3,0.3,0.6,0.3,0.9s-0.3,0.6-0.3,0.9c0,0.3,0.4,0.5,0.5,0.8
			c0.1,0.3-0.2,0.7,0,0.9c0.1,0.2,0.5,0.4,0.7,0.6c0.1,0.2,0,0.7,0.2,0.9c0.2,0.2,0.6,0.2,0.8,0.4c0.2,0.2,0.2,0.7,0.4,0.8
			c0.2,0.2,0.7,0,0.9,0.2c0.2,0.1,0.3,0.6,0.6,0.7s0.6-0.1,0.9,0c0.3,0.1,0.5,0.5,0.8,0.5c0.3,0,0.6-0.3,0.9-0.3s0.6,0.3,0.9,0.3
			c0.3,0,0.5-0.5,0.8-0.5c0.3,0,0.7,0.2,0.9,0c0.2-0.1,0.4-0.5,0.6-0.7c0.2-0.1,0.7,0,0.9-0.2c0.2-0.2,0.2-0.6,0.4-0.8
			c0.2-0.2,0.7-0.2,0.8-0.4c0.2-0.2,0-0.7,0.2-0.9c0.1-0.2,0.6-0.4,0.7-0.6c0.1-0.3-0.1-0.6,0-0.9c0.1-0.3,0.5-0.5,0.5-0.8
			C94.8,126,94.4,125.7,94.4,125.4z M81.2,129.1c0-0.2,0.3-0.4,0.3-0.6c0-0.2-0.4-0.3-0.5-0.5c-0.1-0.2,0.2-0.5,0.1-0.7
			c-0.1-0.2-0.5-0.2-0.6-0.4s0.1-0.5,0-0.7c-0.1-0.1-0.5-0.1-0.6-0.2s0-0.5-0.2-0.6c-0.1-0.1-0.5,0.1-0.7,0
			c-0.2-0.1-0.2-0.5-0.4-0.6c-0.2-0.1-0.5,0.2-0.6,0.1c-0.2,0-0.3-0.4-0.5-0.5c-0.2,0-0.4,0.3-0.6,0.3s-0.4-0.3-0.6-0.3
			S76.2,125,76,125s-0.5-0.2-0.6-0.1c-0.2,0.1-0.2,0.5-0.4,0.6s-0.5-0.1-0.7,0c-0.1,0.1-0.1,0.5-0.2,0.6s-0.5,0-0.6,0.2
			c-0.1,0.1,0.1,0.5,0,0.7c-0.1,0.2-0.5,0.2-0.6,0.4c-0.1,0.2,0.2,0.5,0.1,0.6s-0.4,0.3-0.5,0.5c0,0.2,0.3,0.4,0.3,0.6
			s-0.3,0.4-0.3,0.6c0,0.2,0.4,0.3,0.5,0.5c0.1,0.2-0.2,0.5-0.1,0.6c0.1,0.2,0.5,0.2,0.6,0.4c0.1,0.2-0.1,0.5,0,0.7
			c0.1,0.1,0.5,0.1,0.6,0.2c0.1,0.1,0,0.5,0.2,0.6c0.1,0.1,0.5-0.1,0.7,0s0.2,0.5,0.4,0.6c0.2,0.1,0.5-0.2,0.6-0.1
			c0.2,0,0.3,0.4,0.5,0.5s0.4-0.3,0.6-0.3s0.4,0.3,0.6,0.3s0.3-0.4,0.5-0.5c0.2-0.1,0.5,0.2,0.6,0.1c0.2-0.1,0.2-0.5,0.4-0.6
			c0.2-0.1,0.5,0.1,0.7,0c0.1-0.1,0.1-0.5,0.2-0.6c0.1-0.1,0.5,0,0.6-0.2c0.1-0.1-0.1-0.5,0-0.7c0.1-0.2,0.5-0.2,0.6-0.4
			c0.1-0.2-0.2-0.5-0.1-0.6s0.4-0.3,0.5-0.5C81.6,129.5,81.2,129.3,81.2,129.1L81.2,129.1z M95.2,76.5c0-0.3,0.3-0.6,0.3-0.9
			c0-0.3-0.4-0.5-0.5-0.8c-0.1-0.3,0.2-0.7,0-0.9c-0.1-0.2-0.5-0.4-0.7-0.6c-0.1-0.2,0-0.7-0.2-0.9c-0.2-0.2-0.6-0.2-0.8-0.4
			s-0.2-0.7-0.4-0.8s-0.7,0-0.9-0.2c-0.2-0.1-0.4-0.6-0.6-0.7c-0.3-0.1-0.6,0.1-0.9,0c-0.3-0.1-0.5-0.5-0.8-0.5
			c-0.3,0-0.6,0.3-0.9,0.3s-0.6-0.3-0.9-0.3s-0.5,0.5-0.8,0.5c-0.3,0-0.7-0.2-0.9,0c-0.2,0.1-0.4,0.5-0.6,0.7
			c-0.2,0.1-0.7,0-0.9,0.2c-0.2,0.2-0.2,0.6-0.4,0.8s-0.7,0.2-0.8,0.4c-0.2,0.2,0,0.7-0.2,0.9c-0.1,0.2-0.6,0.4-0.7,0.6
			c-0.1,0.3,0.1,0.6,0,0.9c-0.1,0.3-0.5,0.5-0.5,0.8s0.3,0.6,0.3,0.9c0,0.3-0.3,0.6-0.3,0.9c0,0.3,0.4,0.5,0.5,0.8
			c0.1,0.3-0.2,0.7,0,0.9c0.1,0.2,0.5,0.4,0.7,0.6c0.1,0.2,0,0.7,0.2,0.9c0.2,0.2,0.6,0.2,0.8,0.4s0.2,0.7,0.4,0.8
			c0.2,0.2,0.7,0,0.9,0.2c0.2,0.1,0.4,0.6,0.6,0.7s0.6-0.1,0.9,0s0.5,0.5,0.8,0.5s0.6-0.3,0.9-0.3s0.6,0.3,0.9,0.3
			c0.3,0,0.5-0.4,0.8-0.5c0.3-0.1,0.7,0.2,0.9,0c0.2-0.1,0.4-0.5,0.6-0.7s0.7,0,0.9-0.2c0.2-0.2,0.2-0.6,0.4-0.8s0.7-0.2,0.8-0.4
			c0.2-0.2,0-0.7,0.2-0.9c0.1-0.2,0.6-0.4,0.7-0.6s-0.1-0.6,0-0.9c0.1-0.3,0.5-0.5,0.5-0.8C95.5,77.1,95.2,76.8,95.2,76.5L95.2,76.5
			z M106.9,88.2c0-0.3,0.3-0.6,0.3-0.9c0-0.3-0.4-0.5-0.5-0.8c-0.1-0.3,0.2-0.7,0-0.9c-0.1-0.2-0.5-0.4-0.7-0.6
			c-0.1-0.2,0-0.7-0.2-0.9c-0.2-0.2-0.6-0.2-0.8-0.4c-0.2-0.2-0.2-0.6-0.4-0.8c-0.2-0.2-0.7,0-0.9-0.2c-0.2-0.1-0.4-0.6-0.6-0.7
			c-0.3-0.1-0.6,0.1-0.9,0c-0.3-0.1-0.5-0.5-0.8-0.5c-0.3-0.1-0.6,0.3-0.9,0.3s-0.6-0.3-0.9-0.3c-0.3,0-0.5,0.5-0.8,0.5
			c-0.3,0.1-0.7-0.2-0.9,0c-0.2,0.1-0.4,0.5-0.6,0.7c-0.2,0.1-0.7,0-0.9,0.2c-0.2,0.2-0.2,0.6-0.4,0.8c-0.2,0.2-0.6,0.2-0.8,0.4
			c-0.2,0.2,0,0.7-0.2,0.9s-0.6,0.3-0.7,0.6c-0.1,0.3,0.1,0.6,0,0.9c-0.1,0.3-0.5,0.5-0.5,0.8s0.3,0.6,0.3,0.9s-0.3,0.6-0.3,0.9
			s0.4,0.5,0.5,0.8c0.1,0.3-0.2,0.7,0,0.9c0.1,0.2,0.5,0.4,0.7,0.6c0.1,0.2,0,0.7,0.2,0.9c0.2,0.2,0.6,0.2,0.8,0.4
			c0.2,0.2,0.2,0.7,0.4,0.8c0.2,0.2,0.7,0,0.9,0.2c0.2,0.1,0.3,0.6,0.6,0.7c0.3,0.1,0.6-0.1,0.9,0c0.3,0.1,0.5,0.5,0.8,0.5
			s0.6-0.3,0.9-0.3s0.6,0.3,0.9,0.3c0.3,0,0.5-0.4,0.8-0.5c0.3-0.1,0.7,0.2,0.9,0s0.4-0.5,0.6-0.7c0.2-0.1,0.7,0,0.9-0.2
			c0.2-0.2,0.2-0.6,0.4-0.8s0.7-0.2,0.8-0.4c0.2-0.2,0-0.7,0.2-0.9c0.1-0.2,0.6-0.4,0.7-0.6c0.1-0.3-0.1-0.6,0-0.9
			c0.1-0.3,0.5-0.5,0.5-0.8S106.9,88.5,106.9,88.2L106.9,88.2z"/>
		<path class="st17" d="M86.4,114.8c0,0.2-0.3,0.4-0.4,0.6c-0.1,0.2,0.1,0.5,0,0.7c-0.1,0.2-0.4,0.3-0.5,0.5c-0.1,0.2,0,0.5-0.2,0.7
			s-0.5,0.2-0.7,0.3c-0.2,0.2-0.1,0.5-0.3,0.7c-0.2,0.1-0.5,0-0.7,0.1c-0.2,0.1-0.3,0.5-0.5,0.5c-0.2,0.1-0.5-0.1-0.7,0
			c-0.2,0.1-0.4,0.4-0.6,0.4c-0.2,0-0.5-0.2-0.7-0.2c-0.2,0-0.5,0.3-0.7,0.2c-0.2,0-0.4-0.3-0.6-0.4c-0.2-0.1-0.5,0.1-0.7,0
			c-0.2-0.1-0.3-0.4-0.5-0.5c-0.2-0.1-0.5,0-0.7-0.2s-0.2-0.5-0.3-0.7c-0.2-0.2-0.5-0.1-0.7-0.3c-0.1-0.2,0-0.5-0.1-0.7
			c-0.1-0.2-0.5-0.3-0.5-0.5c-0.1-0.2,0.1-0.5,0-0.7c-0.1-0.2-0.4-0.4-0.4-0.6c0-0.2,0.2-0.5,0.2-0.7c0-0.2-0.3-0.5-0.2-0.7
			c0-0.2,0.3-0.4,0.4-0.6c0.1-0.2-0.1-0.5,0-0.7c0.1-0.2,0.5-0.3,0.5-0.5c0.1-0.2,0-0.5,0.1-0.7c0.1-0.2,0.5-0.2,0.7-0.3
			c0.2-0.2,0.1-0.5,0.3-0.7s0.5,0,0.7-0.1s0.3-0.5,0.5-0.5c0.2-0.1,0.5,0.1,0.7,0c0.2-0.1,0.4-0.4,0.6-0.4c0.2,0,0.5,0.2,0.7,0.2
			c0.2,0,0.5-0.3,0.7-0.2c0.2,0,0.4,0.3,0.6,0.4c0.2,0.1,0.5-0.1,0.7,0c0.2,0.1,0.3,0.5,0.5,0.5c0.2,0.1,0.5,0,0.7,0.1
			c0.2,0.1,0.2,0.5,0.3,0.7s0.5,0.1,0.7,0.3c0.1,0.2,0,0.5,0.1,0.7c0.1,0.2,0.5,0.3,0.5,0.5c0.1,0.2-0.1,0.5,0,0.7
			c0.1,0.2,0.4,0.4,0.4,0.6c0,0.2-0.2,0.5-0.2,0.7S86.5,114.6,86.4,114.8z M93.7,99.7c0-0.3,0.3-0.6,0.3-0.9c0-0.3-0.5-0.5-0.5-0.8
			c0-0.3,0.2-0.7,0-0.9c-0.1-0.2-0.5-0.4-0.7-0.6s0-0.7-0.2-0.9c-0.2-0.2-0.6-0.2-0.8-0.4s-0.2-0.6-0.4-0.8c-0.2-0.2-0.7,0-0.9-0.2
			c-0.2-0.1-0.4-0.6-0.6-0.7c-0.3-0.1-0.6,0.1-0.9,0c-0.3-0.1-0.5-0.5-0.8-0.5c-0.3-0.1-0.6,0.3-0.9,0.3s-0.6-0.3-0.9-0.3
			s-0.5,0.5-0.8,0.5s-0.7-0.2-0.9,0c-0.2,0.1-0.4,0.5-0.6,0.7c-0.2,0.1-0.7,0-0.9,0.2C83,94.6,83,95,82.8,95.2s-0.6,0.2-0.8,0.4
			c-0.2,0.2,0,0.7-0.2,0.9c-0.1,0.2-0.6,0.3-0.7,0.6c-0.1,0.3,0.1,0.6,0,0.9c-0.1,0.3-0.5,0.5-0.5,0.8s0.3,0.6,0.3,0.9
			c0,0.3-0.3,0.6-0.3,0.9c0,0.3,0.5,0.5,0.5,0.8c0.1,0.3-0.2,0.7,0,0.9c0.1,0.2,0.5,0.4,0.7,0.6c0.1,0.2,0,0.7,0.2,0.9
			c0.2,0.2,0.6,0.2,0.8,0.4s0.2,0.7,0.4,0.8c0.2,0.2,0.7,0,0.9,0.2c0.2,0.1,0.4,0.6,0.6,0.7c0.3,0.1,0.6-0.1,0.9,0
			c0.3,0.1,0.5,0.5,0.8,0.5s0.6-0.3,0.9-0.3c0.3,0,0.6,0.3,0.9,0.3c0.3,0,0.5-0.4,0.8-0.5c0.3-0.1,0.7,0.2,0.9,0
			c0.2-0.1,0.4-0.5,0.6-0.7c0.2-0.1,0.7,0,0.9-0.2c0.2-0.2,0.2-0.6,0.4-0.8s0.7-0.2,0.8-0.4c0.2-0.2,0-0.7,0.2-0.9
			c0.1-0.2,0.6-0.4,0.7-0.6c0.1-0.3-0.1-0.6,0-0.9c0.1-0.3,0.5-0.5,0.5-0.8S93.7,100,93.7,99.7L93.7,99.7z M94.4,125.4
			c0-0.3,0.3-0.6,0.3-0.9s-0.4-0.5-0.5-0.8c-0.1-0.3,0.2-0.7,0-0.9s-0.5-0.4-0.7-0.6s0-0.7-0.2-0.9c-0.2-0.2-0.6-0.2-0.8-0.4
			s-0.2-0.7-0.4-0.8c-0.2-0.2-0.7,0-0.9-0.2c-0.2-0.1-0.4-0.6-0.6-0.7c-0.3-0.1-0.6,0.1-0.9,0c-0.3-0.1-0.5-0.5-0.8-0.5
			c-0.3,0-0.6,0.3-0.9,0.3s-0.6-0.3-0.9-0.3c-0.3,0-0.5,0.4-0.8,0.5c-0.3,0.1-0.7-0.2-0.9,0c-0.2,0.1-0.4,0.5-0.6,0.7
			c-0.2,0.1-0.7,0-0.9,0.2c-0.2,0.2-0.2,0.6-0.4,0.8c-0.2,0.2-0.6,0.2-0.8,0.4c-0.2,0.2,0,0.7-0.2,0.9c-0.1,0.2-0.6,0.4-0.7,0.6
			c-0.1,0.3,0.1,0.6,0,0.9c-0.1,0.3-0.5,0.5-0.5,0.8c-0.1,0.3,0.3,0.6,0.3,0.9s-0.3,0.6-0.3,0.9c0,0.3,0.4,0.5,0.5,0.8
			c0.1,0.3-0.2,0.7,0,0.9c0.1,0.2,0.5,0.4,0.7,0.6c0.1,0.2,0,0.7,0.2,0.9c0.2,0.2,0.6,0.2,0.8,0.4c0.2,0.2,0.2,0.7,0.4,0.8
			c0.2,0.2,0.7,0,0.9,0.2c0.2,0.1,0.3,0.6,0.6,0.7s0.6-0.1,0.9,0c0.3,0.1,0.5,0.5,0.8,0.5c0.3,0,0.6-0.3,0.9-0.3s0.6,0.3,0.9,0.3
			c0.3,0,0.5-0.5,0.8-0.5c0.3,0,0.7,0.2,0.9,0c0.2-0.1,0.4-0.5,0.6-0.7c0.2-0.1,0.7,0,0.9-0.2c0.2-0.2,0.2-0.6,0.4-0.8
			c0.2-0.2,0.7-0.2,0.8-0.4c0.2-0.2,0-0.7,0.2-0.9c0.1-0.2,0.6-0.4,0.7-0.6c0.1-0.3-0.1-0.6,0-0.9c0.1-0.3,0.5-0.5,0.5-0.8
			C94.8,126,94.4,125.7,94.4,125.4z M81.2,129.1c0-0.2,0.3-0.4,0.3-0.6c0-0.2-0.4-0.3-0.5-0.5c-0.1-0.2,0.2-0.5,0.1-0.7
			c-0.1-0.2-0.5-0.2-0.6-0.4s0.1-0.5,0-0.7c-0.1-0.1-0.5-0.1-0.6-0.2s0-0.5-0.2-0.6c-0.1-0.1-0.5,0.1-0.7,0
			c-0.2-0.1-0.2-0.5-0.4-0.6c-0.2-0.1-0.5,0.2-0.6,0.1c-0.2,0-0.3-0.4-0.5-0.5c-0.2,0-0.4,0.3-0.6,0.3s-0.4-0.3-0.6-0.3
			S76.2,125,76,125s-0.5-0.2-0.6-0.1c-0.2,0.1-0.2,0.5-0.4,0.6s-0.5-0.1-0.7,0c-0.1,0.1-0.1,0.5-0.2,0.6s-0.5,0-0.6,0.2
			c-0.1,0.1,0.1,0.5,0,0.7c-0.1,0.2-0.5,0.2-0.6,0.4c-0.1,0.2,0.2,0.5,0.1,0.6s-0.4,0.3-0.5,0.5c0,0.2,0.3,0.4,0.3,0.6
			s-0.3,0.4-0.3,0.6c0,0.2,0.4,0.3,0.5,0.5c0.1,0.2-0.2,0.5-0.1,0.6c0.1,0.2,0.5,0.2,0.6,0.4c0.1,0.2-0.1,0.5,0,0.7
			c0.1,0.1,0.5,0.1,0.6,0.2c0.1,0.1,0,0.5,0.2,0.6c0.1,0.1,0.5-0.1,0.7,0s0.2,0.5,0.4,0.6c0.2,0.1,0.5-0.2,0.6-0.1
			c0.2,0,0.3,0.4,0.5,0.5s0.4-0.3,0.6-0.3s0.4,0.3,0.6,0.3s0.3-0.4,0.5-0.5c0.2-0.1,0.5,0.2,0.6,0.1c0.2-0.1,0.2-0.5,0.4-0.6
			c0.2-0.1,0.5,0.1,0.7,0c0.1-0.1,0.1-0.5,0.2-0.6c0.1-0.1,0.5,0,0.6-0.2c0.1-0.1-0.1-0.5,0-0.7c0.1-0.2,0.5-0.2,0.6-0.4
			c0.1-0.2-0.2-0.5-0.1-0.6s0.4-0.3,0.5-0.5C81.6,129.5,81.2,129.3,81.2,129.1L81.2,129.1z M95.2,76.5c0-0.3,0.3-0.6,0.3-0.9
			c0-0.3-0.4-0.5-0.5-0.8c-0.1-0.3,0.2-0.7,0-0.9c-0.1-0.2-0.5-0.4-0.7-0.6c-0.1-0.2,0-0.7-0.2-0.9c-0.2-0.2-0.6-0.2-0.8-0.4
			s-0.2-0.7-0.4-0.8s-0.7,0-0.9-0.2c-0.2-0.1-0.4-0.6-0.6-0.7c-0.3-0.1-0.6,0.1-0.9,0c-0.3-0.1-0.5-0.5-0.8-0.5
			c-0.3,0-0.6,0.3-0.9,0.3s-0.6-0.3-0.9-0.3s-0.5,0.5-0.8,0.5c-0.3,0-0.7-0.2-0.9,0c-0.2,0.1-0.4,0.5-0.6,0.7
			c-0.2,0.1-0.7,0-0.9,0.2c-0.2,0.2-0.2,0.6-0.4,0.8s-0.7,0.2-0.8,0.4c-0.2,0.2,0,0.7-0.2,0.9c-0.1,0.2-0.6,0.4-0.7,0.6
			c-0.1,0.3,0.1,0.6,0,0.9c-0.1,0.3-0.5,0.5-0.5,0.8s0.3,0.6,0.3,0.9c0,0.3-0.3,0.6-0.3,0.9c0,0.3,0.4,0.5,0.5,0.8
			c0.1,0.3-0.2,0.7,0,0.9c0.1,0.2,0.5,0.4,0.7,0.6c0.1,0.2,0,0.7,0.2,0.9c0.2,0.2,0.6,0.2,0.8,0.4s0.2,0.7,0.4,0.8
			c0.2,0.2,0.7,0,0.9,0.2c0.2,0.1,0.4,0.6,0.6,0.7s0.6-0.1,0.9,0s0.5,0.5,0.8,0.5s0.6-0.3,0.9-0.3s0.6,0.3,0.9,0.3
			c0.3,0,0.5-0.4,0.8-0.5c0.3-0.1,0.7,0.2,0.9,0c0.2-0.1,0.4-0.5,0.6-0.7s0.7,0,0.9-0.2c0.2-0.2,0.2-0.6,0.4-0.8s0.7-0.2,0.8-0.4
			c0.2-0.2,0-0.7,0.2-0.9c0.1-0.2,0.6-0.4,0.7-0.6s-0.1-0.6,0-0.9c0.1-0.3,0.5-0.5,0.5-0.8C95.5,77.1,95.2,76.8,95.2,76.5L95.2,76.5
			z M106.9,88.2c0-0.3,0.3-0.6,0.3-0.9c0-0.3-0.4-0.5-0.5-0.8c-0.1-0.3,0.2-0.7,0-0.9c-0.1-0.2-0.5-0.4-0.7-0.6
			c-0.1-0.2,0-0.7-0.2-0.9c-0.2-0.2-0.6-0.2-0.8-0.4c-0.2-0.2-0.2-0.6-0.4-0.8c-0.2-0.2-0.7,0-0.9-0.2c-0.2-0.1-0.4-0.6-0.6-0.7
			c-0.3-0.1-0.6,0.1-0.9,0c-0.3-0.1-0.5-0.5-0.8-0.5c-0.3-0.1-0.6,0.3-0.9,0.3s-0.6-0.3-0.9-0.3c-0.3,0-0.5,0.5-0.8,0.5
			c-0.3,0.1-0.7-0.2-0.9,0c-0.2,0.1-0.4,0.5-0.6,0.7c-0.2,0.1-0.7,0-0.9,0.2c-0.2,0.2-0.2,0.6-0.4,0.8c-0.2,0.2-0.6,0.2-0.8,0.4
			c-0.2,0.2,0,0.7-0.2,0.9s-0.6,0.3-0.7,0.6c-0.1,0.3,0.1,0.6,0,0.9c-0.1,0.3-0.5,0.5-0.5,0.8s0.3,0.6,0.3,0.9s-0.3,0.6-0.3,0.9
			s0.4,0.5,0.5,0.8c0.1,0.3-0.2,0.7,0,0.9c0.1,0.2,0.5,0.4,0.7,0.6c0.1,0.2,0,0.7,0.2,0.9c0.2,0.2,0.6,0.2,0.8,0.4
			c0.2,0.2,0.2,0.7,0.4,0.8c0.2,0.2,0.7,0,0.9,0.2c0.2,0.1,0.3,0.6,0.6,0.7c0.3,0.1,0.6-0.1,0.9,0c0.3,0.1,0.5,0.5,0.8,0.5
			s0.6-0.3,0.9-0.3s0.6,0.3,0.9,0.3c0.3,0,0.5-0.4,0.8-0.5c0.3-0.1,0.7,0.2,0.9,0s0.4-0.5,0.6-0.7c0.2-0.1,0.7,0,0.9-0.2
			c0.2-0.2,0.2-0.6,0.4-0.8s0.7-0.2,0.8-0.4c0.2-0.2,0-0.7,0.2-0.9c0.1-0.2,0.6-0.4,0.7-0.6c0.1-0.3-0.1-0.6,0-0.9
			c0.1-0.3,0.5-0.5,0.5-0.8S106.9,88.5,106.9,88.2L106.9,88.2z"/>
		<polygon class="st8" points="74.8,138.7 75.5,138.6 76.5,138.4 75.8,136.6 76.9,137.4 76.9,135.9 78.6,136.4 79.9,134.8 
			80.4,135.9 81.4,133.6 82,135.9 83.5,134.6 83.5,136.8 85.6,135.7 85.7,136.8 87.1,134.9 87.5,136.7 88.8,135.4 88.6,137 
			90.7,136 89.8,137.7 91.6,137.5 90.7,138.8 95.1,138.8 92.1,139.2 97.4,140.1 78.2,140.5 80.8,139.2 71.6,139.4 		"/>
		<polygon class="st9" points="74.8,138.7 75.5,138.6 76.5,138.4 75.8,136.6 76.9,137.4 76.9,135.9 78.6,136.4 79.9,134.8 
			80.4,135.9 81.4,133.6 82,135.9 83.5,134.6 83.5,136.8 85.6,135.7 85.7,136.8 87.1,134.9 87.5,136.7 88.8,135.4 88.6,137 
			90.7,136 89.8,137.7 91.6,137.5 90.7,138.8 95.1,138.8 92.1,139.2 97.4,140.1 78.2,140.5 80.8,139.2 71.6,139.4 		"/>
	</g>
</g>
</svg>
