<?xml version="1.0" encoding="utf-8"?>
<!-- Generator: Adobe Illustrator 23.0.3, SVG Export Plug-In . SVG Version: 6.00 Build 0)  -->
<svg version="1.1" id="Layer_1" xmlns="http://www.w3.org/2000/svg" xmlns:xlink="http://www.w3.org/1999/xlink" x="0px" y="0px"
	 viewBox="0 0 160 150" style="enable-background:new 0 0 160 150;" xml:space="preserve">
<style type="text/css">
	.st0{display:none;}
	.st1{display:inline;}
	.st2{fill:#E0E0E0;}
	.st3{fill:#EBEBEB;}
	.st4{fill:#F5F5F5;}
	.st5{fill:#F0F0F0;}
	.st6{fill:#4F97B3;}
	.st7{opacity:0.2;enable-background:new    ;}
	.st8{fill:#263238;}
	.st9{opacity:0.5;fill:#FFFFFF;enable-background:new    ;}
	.st10{opacity:0.7;fill:#FFFFFF;enable-background:new    ;}
	.st11{opacity:0.6;fill:#FFFFFF;enable-background:new    ;}
	.st12{opacity:0.4;fill:#FFFFFF;enable-background:new    ;}
	.st13{opacity:0.2;}
	.st14{opacity:0.8;}
	.st15{fill:#FFFFFF;}
	.st16{opacity:0.1;enable-background:new    ;}
	.st17{opacity:0.2;fill:#FFFFFF;enable-background:new    ;}
	.st18{opacity:0.9;fill:#FFFFFF;enable-background:new    ;}
	.st19{fill:#E8E8E8;}
	.st20{fill:#6D5A55;}
	.st21{fill:#656D83;}
	.st22{fill:#E48282;}
	.st23{fill:#E49581;}
	.st24{fill:#F4B5A3;}
	.st25{fill:#323942;}
</style>
<g class="st0">
	<g id="freepik--background-complete--inject-32" class="st1">
		<path class="st2" d="M0-7.5v121.4h59.9V-7.5H0z M55.6,109.4H3.9V-3h51.7C55.6-3,55.6,109.4,55.6,109.4z"/>
		<path class="st3" d="M62.1,115.9H-2.6V-9.5h64.7V115.9z M1.4,111.9h56.7V-5.5H1.4V111.9z"/>
		<polygon class="st4" points="56.6,24.3 56.6,21.3 31.3,21.3 31.3,-4 28.3,-4 28.3,21.3 2.9,21.3 2.9,24.3 28.3,24.3 28.3,51.7 
			2.9,51.7 2.9,54.7 28.3,54.7 28.3,82 2.9,82 2.9,85 28.3,85 28.3,110.4 31.3,110.4 31.3,85 56.6,85 56.6,82 31.3,82 31.3,54.7 
			56.6,54.7 56.6,51.7 31.3,51.7 31.3,24.3 		"/>
		<path class="st2" d="M100.5-7.5v121.4h59.9V-7.5H100.5z M156.1,109.4h-51.7V-3h51.7V109.4z"/>
		<path class="st3" d="M162.6,115.9H97.9V-9.5h64.7V115.9z M101.9,111.9h56.7V-5.5h-56.7C101.9-5.5,101.9,111.9,101.9,111.9z"/>
		<polygon class="st4" points="157.1,24.3 157.1,21.3 131.7,21.3 131.7,-4 128.7,-4 128.7,21.3 103.4,21.3 103.4,24.3 128.7,24.3 
			128.7,51.7 103.4,51.7 103.4,54.7 128.7,54.7 128.7,82 103.4,82 103.4,85 128.7,85 128.7,110.4 131.7,110.4 131.7,85 157.1,85 
			157.1,82 131.7,82 131.7,54.7 157.1,54.7 157.1,51.7 131.7,51.7 131.7,24.3 		"/>
		<path class="st4" d="M-10.9-23.1H6.3c0.4,0,0.7,0.3,0.7,0.7v3.6c0,0.4-0.3,0.7-0.7,0.7h-17.2c-0.4,0-0.7-0.3-0.7-0.7v-3.6
			C-11.6-22.8-11.3-23.1-10.9-23.1z"/>
		<path class="st4" d="M-16.6-17H0.6c0.4,0,0.7,0.3,0.7,0.7v3.6C1.3-12.3,1-12,0.6-12h-17.2c-0.4,0-0.7-0.3-0.7-0.7v-3.6
			C-17.3-16.7-17-17-16.6-17z"/>
		<path class="st5" d="M2.8-17H20c0.4,0,0.7,0.3,0.7,0.7v3.6c0,0.4-0.3,0.7-0.7,0.7H2.8c-0.4,0-0.7-0.3-0.7-0.7v-3.6
			C2.1-16.7,2.4-17,2.8-17z"/>
		<path class="st4" d="M170.4-12.6h-17.2c-0.4,0-0.7-0.3-0.7-0.7v-3.6c0-0.4,0.3-0.7,0.7-0.7h17.2c0.4,0,0.7,0.3,0.7,0.7v3.6
			C171-12.9,170.7-12.6,170.4-12.6z"/>
		<path class="st4" d="M176-18.7h-17.2c-0.4,0-0.7-0.3-0.7-0.7V-23c0-0.4,0.3-0.7,0.7-0.7H176c0.4,0,0.7,0.3,0.7,0.7v3.6
			C176.7-19,176.4-18.7,176-18.7z"/>
		<path class="st5" d="M156.6-18.7h-17.2c-0.4,0-0.7-0.3-0.7-0.7V-23c0-0.4,0.3-0.7,0.7-0.7h17.2c0.4,0,0.7,0.3,0.7,0.7v3.6
			C157.3-19,157-18.7,156.6-18.7z"/>
		<path class="st4" d="M92.5-12.6H75.3c-0.4,0-0.7-0.3-0.7-0.7v-3.6c0-0.4,0.3-0.7,0.7-0.7h17.2c0.4,0,0.7,0.3,0.7,0.7v3.6
			C93.1-12.9,92.9-12.6,92.5-12.6z"/>
		<path class="st4" d="M101.1-18.7H83.9c-0.4,0-0.7-0.3-0.7-0.7V-23c0-0.4,0.3-0.7,0.7-0.7h17.2c0.4,0,0.7,0.3,0.7,0.7v3.6
			C101.8-19,101.5-18.7,101.1-18.7z"/>
		<path class="st5" d="M81.8-18.7H64.6c-0.4,0-0.7-0.3-0.7-0.7V-23c0-0.4,0.3-0.7,0.7-0.7h17.2c0.4,0,0.7,0.3,0.7,0.7v3.6
			C82.4-19,82.1-18.7,81.8-18.7z"/>
		<path class="st4" d="M170.4,131.4h-17.2c-0.4,0-0.7-0.3-0.7-0.7v-3.6c0-0.4,0.3-0.7,0.7-0.7h17.2c0.4,0,0.7,0.3,0.7,0.7v3.6
			C171,131.1,170.7,131.4,170.4,131.4z"/>
		<path class="st4" d="M176,125.2h-17.2c-0.4,0-0.7-0.3-0.7-0.7v-3.6c0-0.4,0.3-0.7,0.7-0.7H176c0.4,0,0.7,0.3,0.7,0.7v3.6
			C176.7,124.9,176.4,125.2,176,125.2z"/>
		<path class="st5" d="M156.6,125.2h-17.2c-0.4,0-0.7-0.3-0.7-0.7v-3.6c0-0.4,0.3-0.7,0.7-0.7h17.2c0.4,0,0.7,0.3,0.7,0.7v3.6
			C157.3,124.9,157,125.2,156.6,125.2z"/>
		<path class="st4" d="M-10.9,120.9H6.3c0.4,0,0.7,0.3,0.7,0.7v3.6c0,0.4-0.3,0.7-0.7,0.7h-17.2c-0.4,0-0.7-0.3-0.7-0.7v-3.6
			C-11.6,121.2-11.3,120.9-10.9,120.9z"/>
		<path class="st4" d="M-16.6,127H0.6c0.4,0,0.7,0.3,0.7,0.7v3.6c0,0.4-0.3,0.7-0.7,0.7h-17.2c-0.4,0-0.7-0.3-0.7-0.7v-3.6
			C-17.3,127.3-17,127-16.6,127z"/>
		<path class="st5" d="M2.8,127H20c0.4,0,0.7,0.3,0.7,0.7v3.6c0,0.4-0.3,0.7-0.7,0.7H2.8c-0.4,0-0.7-0.3-0.7-0.7v-3.6
			C2.1,127.3,2.4,127,2.8,127z"/>
		<path class="st4" d="M66.9,120.9h17.2c0.4,0,0.7,0.3,0.7,0.7v3.6c0,0.4-0.3,0.7-0.7,0.7H66.9c-0.4,0-0.7-0.3-0.7-0.7v-3.6
			C66.3,121.2,66.6,120.9,66.9,120.9z"/>
		<path class="st4" d="M58.3,127h17.2c0.4,0,0.7,0.3,0.7,0.7v3.6c0,0.4-0.3,0.7-0.7,0.7H58.3c-0.4,0-0.7-0.3-0.7-0.7v-3.6
			C57.6,127.3,57.9,127,58.3,127z"/>
		<path class="st5" d="M77.7,127h17.2c0.4,0,0.7,0.3,0.7,0.7v3.6c0,0.4-0.3,0.7-0.7,0.7H77.7c-0.4,0-0.7-0.3-0.7-0.7v-3.6
			C77,127.3,77.3,127,77.7,127z"/>
		<rect x="163.2" y="144.6" class="st3" width="16.5" height="0.1"/>
		<rect x="116.2" y="146" class="st3" width="4.3" height="0.1"/>
		<rect x="153.2" y="140" class="st3" width="9.6" height="0.1"/>
		<rect x="-18.6" y="140.8" class="st3" width="21.6" height="0.1"/>
		<rect x="7.4" y="140.8" class="st3" width="3.2" height="0.1"/>
		<rect x="20.8" y="143" class="st3" width="46.8" height="0.1"/>
		<path class="st3" d="M73.5,114.3h-96.4c-1.6,0-2.9-1.3-2.9-2.9V-24c0-1.6,1.3-2.8,2.9-2.8h96.4c1.6,0,2.9,1.3,2.9,2.9l0,0v135.5
			C76.4,113.1,75.1,114.3,73.5,114.3z M-22.9-26.7c-1.5,0-2.7,1.2-2.7,2.7v135.5c0,1.5,1.2,2.7,2.7,2.7h96.4c1.5,0,2.7-1.2,2.7-2.7
			V-24c0-1.5-1.2-2.7-2.7-2.7H-22.9z"/>
		<path class="st3" d="M181.5,114.3H85.1c-1.6,0-2.8-1.3-2.9-2.9V-24c0-1.6,1.3-2.8,2.9-2.8h96.4c1.6,0,2.8,1.3,2.8,2.8v135.5
			C184.3,113.1,183.1,114.3,181.5,114.3z M85.1-26.7c-1.5,0-2.7,1.2-2.7,2.7v135.5c0,1.5,1.2,2.7,2.7,2.7h96.4
			c1.5,0,2.7-1.2,2.7-2.7V-24c0-1.5-1.2-2.7-2.7-2.7H85.1z"/>
		<rect x="-44.8" y="136.6" class="st3" width="249.6" height="0.1"/>
	</g>
	<g id="freepik--Basket--inject-32" class="st1">
		<polygon class="st6" points="75.4,143.6 73.5,129.8 82.9,118.6 95.4,120.1 105.7,117.8 116.1,120.1 116.8,125.3 114.8,144.7 
			110.6,146.5 		"/>
		<polygon class="st7" points="108.7,119.6 93,132.7 89.8,128.5 102.6,120 		"/>
		<path class="st8" d="M120.3,124.4H69.1c-0.9,0-1.6-0.7-1.6-1.6l0,0c0-0.9,0.7-1.6,1.6-1.6h51.1c0.9,0,1.6,0.7,1.6,1.6l0,0l0,0
			C121.9,123.7,121.2,124.4,120.3,124.4z"/>
		<path class="st9" d="M120.3,124.4H69.1c-0.9,0-1.6-0.7-1.6-1.6l0,0c0-0.9,0.7-1.6,1.6-1.6h51.1c0.9,0,1.6,0.7,1.6,1.6l0,0l0,0
			C121.9,123.7,121.2,124.4,120.3,124.4z"/>
		<path class="st8" d="M70.5,124.4l1.7,20.3c0.2,2.3,2.1,4.1,4.5,4.1H113c2.3,0,4.3-1.8,4.5-4.1l1.7-20.3
			C119.2,124.4,70.5,124.4,70.5,124.4z M79.6,141.3c0,0.9-0.7,1.7-1.7,1.7c-0.9,0-1.7-0.7-1.7-1.7v-12.2c0-0.9,0.7-1.7,1.7-1.7
			c0.9,0,1.7,0.7,1.7,1.7V141.3z M88,141.3c0,0.9-0.7,1.7-1.7,1.7c-0.9,0-1.7-0.7-1.7-1.7v-12.2c0-0.9,0.7-1.7,1.7-1.7
			c0.9,0,1.7,0.7,1.7,1.7l0,0V141.3z M96.4,141.3c0,0.9-0.7,1.7-1.7,1.7s-1.7-0.7-1.7-1.7v-12.2c0-0.9,0.7-1.7,1.7-1.7
			s1.7,0.7,1.7,1.7l0,0V141.3z M104.8,141.3c-0.1,0.9-0.8,1.6-1.8,1.6c-0.8,0-1.5-0.7-1.6-1.6v-12.2c0.1-0.9,0.8-1.6,1.8-1.6
			c0.8,0,1.5,0.7,1.6,1.6V141.3z M113.2,141.3c0,0.9-0.7,1.7-1.7,1.7c-0.9,0-1.7-0.7-1.7-1.7v-12.2c0-0.9,0.7-1.7,1.7-1.7
			c0.9,0,1.7,0.7,1.7,1.7l0,0V141.3z"/>
		<path class="st10" d="M70.5,124.4l1.7,20.3c0.2,2.3,2.1,4.1,4.5,4.1H113c2.3,0,4.3-1.8,4.5-4.1l1.7-20.3
			C119.2,124.4,70.5,124.4,70.5,124.4z M79.6,141.3c0,0.9-0.7,1.7-1.7,1.7c-0.9,0-1.7-0.7-1.7-1.7v-12.2c0-0.9,0.7-1.7,1.7-1.7
			c0.9,0,1.7,0.7,1.7,1.7V141.3z M88,141.3c0,0.9-0.7,1.7-1.7,1.7c-0.9,0-1.7-0.7-1.7-1.7v-12.2c0-0.9,0.7-1.7,1.7-1.7
			c0.9,0,1.7,0.7,1.7,1.7l0,0V141.3z M96.4,141.3c0,0.9-0.7,1.7-1.7,1.7s-1.7-0.7-1.7-1.7v-12.2c0-0.9,0.7-1.7,1.7-1.7
			s1.7,0.7,1.7,1.7l0,0V141.3z M104.8,141.3c-0.1,0.9-0.8,1.6-1.8,1.6c-0.8,0-1.5-0.7-1.6-1.6v-12.2c0.1-0.9,0.8-1.6,1.8-1.6
			c0.8,0,1.5,0.7,1.6,1.6V141.3z M113.2,141.3c0,0.9-0.7,1.7-1.7,1.7c-0.9,0-1.7-0.7-1.7-1.7v-12.2c0-0.9,0.7-1.7,1.7-1.7
			c0.9,0,1.7,0.7,1.7,1.7l0,0V141.3z"/>
		<polygon class="st6" points="107.7,120.2 114.3,117.8 123.9,120.2 126.2,132.2 118.3,133.2 115.6,121.3 		"/>
		<polygon class="st6" points="117.6,131.9 118.1,133.9 126.7,132.6 126.2,130.6 		"/>
		<polygon class="st11" points="117.6,131.9 118.1,133.9 126.7,132.6 126.2,130.6 		"/>
		<path class="st10" d="M119.5,129.3c0,0.4-0.3,0.6-0.6,0.6c-0.4,0-0.6-0.3-0.6-0.6c0-0.4,0.3-0.6,0.6-0.6S119.5,129,119.5,129.3
			L119.5,129.3z"/>
		<path class="st10" d="M118.6,126.1c0,0.4-0.3,0.6-0.6,0.6c-0.4,0-0.6-0.3-0.6-0.6c0-0.4,0.3-0.6,0.6-0.6
			C118.3,125.5,118.6,125.8,118.6,126.1L118.6,126.1z"/>
		<path class="st6" d="M87.9,120.1l-3.2-1.5l-11.2,1.5l-1.9,6.7l1.9,3c0,0-2.2,10.4-0.6,10.5s3.4-10.1,3.4-10.1l5.6-0.9
			c0,0,0.2,11,2.8,11s0-11.2,0-11.2L87.9,120.1z M72.9,139.3c-1.1-0.4,1.3-9.1,1.3-9.1h1.4C75.6,130.2,74,139.7,72.9,139.3
			L72.9,139.3z M84.7,139.2c-1.4,0.7-2-9.7-2-9.7H84C83.9,129.4,86.1,138.5,84.7,139.2L84.7,139.2z"/>
		<path class="st10" d="M87.9,120.1l-3.2-1.5l-11.2,1.5l-1.9,6.7l1.9,3c0,0-2.2,10.4-0.6,10.5s3.4-10.1,3.4-10.1l5.6-0.9
			c0,0,0.2,11,2.8,11s0-11.2,0-11.2L87.9,120.1z M72.9,139.3c-1.1-0.4,1.3-9.1,1.3-9.1h1.4C75.6,130.2,74,139.7,72.9,139.3
			L72.9,139.3z M84.7,139.2c-1.4,0.7-2-9.7-2-9.7H84C83.9,129.4,86.1,138.5,84.7,139.2L84.7,139.2z"/>
	</g>
	<g id="freepik--Rack--inject-32" class="st1">
		<path class="st8" d="M138.7,146.5h-8.1V53.9c0-4.7-3.8-8.5-8.6-8.6H24.8c-4.7,0-8.5,3.8-8.6,8.6v92.7H8.1c-1.1,0-1.9,0.9-1.9,1.9
			v0.3h21.6v-0.3c0-1.1-0.9-1.9-1.9-1.9l0,0h-8.1V53.9c0-3.9,3.1-7,7-7h97.3c3.9,0,7,3.1,7,7v92.7H121c-1.1,0-1.9,0.9-1.9,1.9v0.3
			h21.6v-0.3C140.7,147.4,139.8,146.5,138.7,146.5z"/>
		<path class="st12" d="M138.7,146.5h-8.1V53.9c0-4.7-3.8-8.5-8.6-8.6H24.8c-4.7,0-8.5,3.8-8.6,8.6v92.7H8.1c-1.1,0-1.9,0.9-1.9,1.9
			v0.3h21.6v-0.3c0-1.1-0.9-1.9-1.9-1.9l0,0h-8.1V53.9c0-3.9,3.1-7,7-7h97.3c3.9,0,7,3.1,7,7v92.7H121c-1.1,0-1.9,0.9-1.9,1.9v0.3
			h21.6v-0.3C140.7,147.4,139.8,146.5,138.7,146.5z"/>
		<path class="st8" d="M48.1,47.4c0-0.2,0-0.3,0.1-0.5h-0.8c0,0.2-0.1,0.3-0.1,0.5C47.2,47.9,48,47.9,48.1,47.4z"/>
		<path class="st8" d="M61.1,59.6l-10.6-6.4v-3c2.2-0.5,3.4-3.1,1.7-4.9c-1-1.1-2.8-1.1-3.9-0.1l-0.1,0.1h1.6
			c0.7-0.1,1.3,0.1,1.8,0.6c0.8,0.8,0.8,2.2,0,3c-0.4,0.4-0.9,0.6-1.4,0.6c-0.2,0-0.4,0.2-0.4,0.4v3.4l-10.6,6.4
			c-0.4,0.3,0,0.9,0.4,0.7l5.2-3.1l3.8-2.3c0.4-0.3,0.9-0.5,1.3-0.8c0.1-0.1,0.3-0.2,0.4-0.2c0.3,0.2,1.2,0.7,1.4,0.9
			c1.2,0.7,2.5,1.5,3.7,2.2l5.4,3.2c0.2,0.1,0.4,0,0.5-0.2S61.3,59.7,61.1,59.6z"/>
		<path class="st6" d="M63.1,74.5l1,19.1l-27.4-0.2l0.6-18.1l-3.7,25.8l-6.9-0.8c0.1-8.8,1.1-17.6,2.9-26.3
			c2.9-13.2,9.8-15.5,9.8-15.5c6.8,3.3,14.7,3.3,21.6,0c0,0,7.6,2.1,9.5,13.6s2.9,28.4,2.9,28.4l-6.9,0.6L63.1,74.5z"/>
		<g class="st13">
			<path d="M32,100.9l1.7,0.2l3.5-24.3c-0.7,0.9-1.5,2.6-2.1,5.5C34.2,86.7,32.6,96.6,32,100.9z"/>
		</g>
		<g class="st13">
			<path d="M68.8,100.9c-0.7-4.3-2.2-14.2-3.1-18.7c-0.7-3.4-1.7-5-2.4-5.8l3.1,24.7L68.8,100.9z"/>
		</g>
		<g class="st14">
			<polygon class="st15" points="63.6,83.7 37,83.7 36.9,88.2 63.8,88.2 			"/>
		</g>
		<path class="st16" d="M40.4,63.6l-2.5,8.5C37.9,72.1,36.9,67,40.4,63.6z"/>
		<path class="st16" d="M60.4,63.6l2.5,8.5C62.9,72.1,64,67,60.4,63.6z"/>
		<path class="st8" d="M60.9,47.4c0-0.2,0-0.3,0.1-0.5h-0.8c0,0.2-0.1,0.3-0.1,0.5C60.1,47.9,60.9,47.9,60.9,47.4z"/>
		<path class="st8" d="M74,59.6l-10.6-6.4v-3c2.2-0.5,3.4-3.1,1.7-4.9c-1-1.1-2.8-1.1-3.9-0.1l-0.1,0.1h1.6c0.7-0.1,1.3,0.1,1.8,0.6
			c0.8,0.8,0.8,2.2,0,3c-0.4,0.4-0.9,0.6-1.4,0.6c-0.2,0-0.4,0.2-0.4,0.4v3.4L52,59.6c-0.2,0.1-0.2,0.4-0.1,0.5
			c0.1,0.2,0.3,0.2,0.5,0.1l5.2-3.1l3.8-2.3c0.4-0.3,0.9-0.5,1.3-0.8c0.1-0.1,0.3-0.2,0.4-0.2c0.3,0.2,1.2,0.7,1.4,0.9l3.7,2.2
			l5.4,3.2C74,60.5,74.4,59.9,74,59.6z"/>
		<path class="st6" d="M52.3,58.5c6.8,3.3,14.7,3.3,21.5,0c0,0,7.4,2.9,10,14.2L76,74.6l1,19.1l-27.4-0.2l0.6-18.1L43.4,73
			C43.4,73,44.8,61.1,52.3,58.5z"/>
		<path class="st9" d="M52.3,58.5c6.8,3.3,14.7,3.3,21.5,0c0,0,7.4,2.9,10,14.2L76,74.6l1,19.1l-27.4-0.2l0.6-18.1L43.4,73
			C43.4,73,44.8,61.1,52.3,58.5z"/>
		<polygon class="st7" points="49.1,75 50.1,75.3 50.6,68.6 		"/>
		<polygon class="st7" points="75,66.8 76,74.5 77.5,74.2 		"/>
		<ellipse class="st6" cx="63" cy="69.5" rx="8.6" ry="3.5"/>
		<path class="st8" d="M84.5,47.4c0-0.2,0-0.3,0.1-0.5h-0.8c0,0.2-0.1,0.3-0.1,0.5C83.7,47.9,84.5,47.9,84.5,47.4z"/>
		<path class="st8" d="M97.6,59.6L87,53.2v-3c2.2-0.5,3.4-3.1,1.7-4.9c-1-1.1-2.8-1.1-3.9-0.1l-0.1,0.1h1.6c0.7-0.1,1.3,0.1,1.8,0.6
			c0.8,0.8,0.8,2.2,0,3c-0.4,0.4-0.9,0.6-1.4,0.6c-0.2,0-0.4,0.2-0.4,0.4v3.4l-10.6,6.4c-0.4,0.3,0,0.9,0.4,0.7l5.2-3.1l3.8-2.3
			c0.4-0.3,0.9-0.5,1.3-0.8c0.1-0.1,0.3-0.2,0.4-0.2c0.3,0.2,1.2,0.7,1.4,0.9l3.7,2.2l5.4,3.2C97.6,60.5,98,59.9,97.6,59.6z"/>
		<path class="st8" d="M109.8,97.1c0,0-1-16.8-2.9-28.4c-0.7-4.4-2.3-7.5-3.9-9.5c-2.1-2.6-5.3-4.1-8.6-4.1h-3.7l-2.2,2.3h-3.7
			l-1.9-2.3h-2.2c-4.7,0-9.1,2.5-11.4,6.6c-1.5,2.8-2.6,5.8-3.2,8.9c-1.8,8.6-2.8,17.4-2.9,26.3l6.9,0.8l3.7-25.8l-0.4,30.8
			l27.4,0.2l-1.1-31.8l3.3,26.6L109.8,97.1z"/>
		<path class="st7" d="M73.3,67.4c-0.3,3.5-5.2,29.9-5.2,29.9l1.3,0.4l0.7,0.1L73.8,72C73.8,71.9,73.6,63.9,73.3,67.4z"/>
		<path class="st7" d="M104.5,97.5c-0.7-4.8-2.4-17-3.5-23.6c-1.3-8.4-1.5-7.4-1.5-7.4v4.6l3.3,26.6L104.5,97.5z"/>
		<polygon class="st8" points="82.8,54.5 86.6,57 90.1,54.5 92.3,54.9 89.8,59.9 86.6,58.1 83.1,59.9 81.1,54.9 		"/>
		<polygon class="st17" points="82.8,54.5 86.6,57 90.1,54.5 92.3,54.9 89.8,59.9 86.6,58.1 83.1,59.9 81.1,54.9 		"/>
		<polygon class="st8" points="62.7,95.9 70.5,96.9 70.3,98.6 62.7,97.6 		"/>
		<polygon class="st17" points="62.7,95.9 70.5,96.9 70.3,98.6 62.7,97.6 		"/>
		<polygon class="st8" points="110.1,96 102.3,96.8 102.5,98.5 110.3,97.8 		"/>
		<polygon class="st17" points="110.1,96 102.3,96.8 102.5,98.5 110.3,97.8 		"/>
		<path class="st10" d="M87.1,67.4c0,0.4-0.3,0.6-0.6,0.6c-0.4,0-0.6-0.3-0.6-0.6s0.3-0.6,0.6-0.6l0,0C86.8,66.7,87.1,67,87.1,67.4z
			"/>
		<path class="st10" d="M87.4,77.1c0,0.4-0.3,0.6-0.6,0.7c-0.4,0-0.6-0.3-0.7-0.6s0.3-0.6,0.6-0.7l0,0
			C87.1,76.5,87.4,76.8,87.4,77.1z"/>
		<path class="st10" d="M87.8,87.3c0,0.4-0.3,0.6-0.6,0.6c-0.4,0-0.6-0.3-0.6-0.6c0-0.4,0.3-0.6,0.6-0.6l0,0
			C87.5,86.6,87.7,86.9,87.8,87.3z"/>
		<path class="st10" d="M87.8,97.6c0,0.4-0.3,0.6-0.6,0.6c-0.4,0-0.6-0.3-0.6-0.6c0-0.4,0.3-0.6,0.6-0.6l0,0
			C87.5,97,87.7,97.3,87.8,97.6L87.8,97.6z"/>
		<path class="st8" d="M100,47.4c0-0.2,0-0.3,0.1-0.5h-0.8c0,0.2-0.1,0.3-0.1,0.5C99.2,47.9,100,47.9,100,47.4z"/>
		<path class="st8" d="M113.1,59.6l-10.6-6.4v-3c2.2-0.5,3.4-3.1,1.6-4.9c-1-1.1-2.8-1.1-3.9-0.1l-0.1,0.1h1.6
			c0.7-0.1,1.3,0.1,1.8,0.6c0.8,0.8,0.8,2.2,0,3c-0.4,0.4-0.9,0.6-1.4,0.6c-0.2,0-0.4,0.2-0.4,0.4v3.4l-10.6,6.4
			c-0.4,0.3,0,0.9,0.4,0.7l5.2-3.1l3.8-2.3c0.4-0.3,0.9-0.5,1.3-0.8c0.1-0.1,0.3-0.2,0.4-0.2c0.3,0.2,1.2,0.7,1.4,0.9l3.7,2.2
			c1.8,1.1,3.6,2.2,5.4,3.2C113.1,60.5,113.5,59.9,113.1,59.6z"/>
		<path class="st6" d="M89.6,59.9l3-2.6c0,0,4.2,3.6,9.5,3.1c3.3-0.4,6.6-1.4,9.5-3.1l2.5,1.9c0,0-3.6,5.7,0.6,12.6l-0.6,21.3H90.5
			l-0.9-21.8C89.5,71.4,94.5,65.3,89.6,59.9z"/>
		<polygon class="st9" points="114.7,75.5 114.6,75.5 110.5,79.7 106.3,75.5 102.1,79.7 98,75.5 93.8,79.7 89.7,75.6 89.9,79.4 
			93.8,83.4 98,79.2 102.1,83.4 106.3,79.2 110.5,83.4 114.6,79.2 		"/>
		<polygon class="st10" points="114.6,79.2 110.5,83.4 106.3,79.2 102.1,83.4 98,79.2 93.8,83.4 89.9,79.4 90,83.3 93.8,87.1 
			98,82.9 102.1,87.1 106.3,82.9 110.5,87.1 114.5,83.1 		"/>
		<polygon class="st18" points="114.5,83.1 110.5,87.1 106.3,82.9 102.1,87.1 98,82.9 93.8,87.1 90,83.3 90.2,87.2 93.8,90.7 
			98,86.6 102.1,90.7 106.3,86.6 110.5,90.7 114.3,86.9 		"/>
	</g>
</g>
<rect x="-8.2" y="-3" class="st19" width="177.7" height="153.2"/>
<g>
	<path class="st20" d="M111,71c2.7,4.7,6.6,8.6,10,12.8c3.5,4.2,6.7,8.8,7.9,14.1c2,8.9-2.7,19-10.9,23c-3.9,1.9-8.2,2.6-12.5,3.1
		c-15.9,2.1-32.1,3.3-47.7-0.3c-4.2-1-8.4-2.3-11.8-4.8s-6.1-6.5-6.2-10.8c-0.2-6.5,5.2-11.7,7.9-17.7c2.9-6.2,3-13.4,2.8-20.3
		c-0.1-3.5-0.2-7.1,1.1-10.4c1.7-4.3,5.7-7.2,9.8-9.3c8.9-4.7,19.1-7,29.2-6.5c5.8,0.3,15.3,3,16.9,9.6c0.5,2.2,0,4.6,0.1,6.8
		C107.8,64.2,109.1,67.8,111,71z"/>
	<path class="st21" d="M25.6,154c0,0,10.6-51.9,56.1-51.9s51.4,51.9,51.4,51.9H25.6z"/>
	<circle class="st22" cx="48.6" cy="56.4" r="8.4"/>
	<circle class="st22" cx="111.3" cy="56.4" r="8.4"/>
	<path class="st23" d="M90.9,87l-1.4-18.8l-14.6,2l-2.4,27.4C77.2,97.1,85.1,94.9,90.9,87z"/>
	<path class="st24" d="M51,48.3c-0.3,4.5-0.1,5.8,0.4,10.3c1,8.9,5.2,16.6,13.3,20.9c8.1,4.3,19,5.8,27.6,2.3
		c6.6-2.7,11.8-7.6,14.4-14.2c3-7.5,3-17.1,2.6-25.2c-1.5-30-25.9-29.5-25.9-29.5S50.9,10.4,51,48.3z"/>
	<path class="st24" d="M72.4,97.7l-1.1,12.1c0,0,0.4,6,10.2,7.2s10.9-9,10.9-9L90.9,87C85.1,94.9,77.2,97.1,72.4,97.7z"/>
	<ellipse class="st25" cx="66.8" cy="54.4" rx="1.5" ry="3"/>
	<ellipse class="st25" cx="94.5" cy="54.9" rx="1.5" ry="3"/>
	<g>
		<path class="st25" d="M80.4,56.4c-0.6,0.4-1.2,0.7-1.7,1.1c-0.5,0.4-1.1,0.9-1.1,1.2c0,0.1,0.1,0.3,0.3,0.5
			c0.2,0.2,0.5,0.4,0.7,0.5c0.5,0.2,1.2,0,1.8-0.3c-0.4,0.6-1.1,1.1-2,0.9c-0.4,0-0.8-0.3-1.1-0.5c-0.3-0.2-0.7-0.7-0.6-1.2
			c0.1-0.5,0.4-0.9,0.7-1.1c0.3-0.2,0.6-0.4,1-0.6C79,56.6,79.7,56.4,80.4,56.4z"/>
	</g>
	<g>
		<path class="st25" d="M76.3,64.4c0.7,0.4,1.4,0.8,2.1,1.1c0.7,0.3,1.4,0.5,2.1,0.5c0.7,0,1.4-0.1,2.1-0.4c0.7-0.3,1.3-0.7,2-1.2
			c-0.2,0.3-0.4,0.7-0.7,1c-0.3,0.3-0.6,0.6-1,0.8c-0.7,0.5-1.6,0.7-2.4,0.7C78.7,66.7,77.2,65.7,76.3,64.4z"/>
	</g>
	<circle class="st22" cx="63.6" cy="64.4" r="3.2"/>
	<circle class="st22" cx="96" cy="64.9" r="3.2"/>
	<g>
		<path class="st20" d="M91.2,48c0.7-1.5,2.4-2.6,4.2-2.5c0.9,0.1,1.7,0.3,2.5,0.8c0.4,0.2,0.7,0.5,1,0.8c0.3,0.3,0.5,0.6,0.8,1
			c-0.4-0.2-0.7-0.4-1.1-0.5c-0.4-0.1-0.7-0.3-1.1-0.5c-0.7-0.3-1.4-0.4-2.1-0.5c-0.7,0-1.4,0.1-2.1,0.4
			C92.5,47.2,91.9,47.6,91.2,48z"/>
	</g>
	<g>
		<path class="st20" d="M61.3,48c0.7-1.5,2.4-2.6,4.2-2.5c0.9,0.1,1.7,0.3,2.5,0.8c0.4,0.2,0.7,0.5,1,0.8c0.3,0.3,0.5,0.6,0.8,1
			c-0.4-0.2-0.7-0.4-1.1-0.5c-0.4-0.1-0.7-0.3-1.1-0.5c-0.7-0.3-1.4-0.4-2.1-0.5c-0.7,0-1.4,0.1-2.1,0.4C62.7,47.2,62,47.6,61.3,48z
			"/>
	</g>
	<path class="st20" d="M50.9,48.3c0,0,25.8-7.1,29.3-22.8c5.9,12.7,19.2,21.4,29.3,22.6c0,0,3.4-36.4-27.9-35.2S51.2,40.9,50.9,48.3
		z"/>
	<path class="st20" d="M78.8,14.8c0,0-3.9-6.9-2.3-7.9c1.6-1,3,6.1,3,6.1s0.2-7,2.4-6.2C84.2,7.6,81.7,15.1,78.8,14.8z"/>
	<path class="st15" d="M53.2,145.7c0,1.3-1,2.3-2.3,2.3c-1.3,0-2.3-1-2.3-2.3c0-1.3,1-2.3,2.3-2.3C52.1,143.4,53.2,144.5,53.2,145.7
		z"/>
	<path class="st15" d="M54.2,116.6c1.1,0.6,1.6,1.9,1.1,3.1c-0.6,1.1-1.9,1.6-3.1,1.1c-1.1-0.6-1.6-1.9-1.1-3.1
		C51.6,116.5,53,116,54.2,116.6z"/>
	<path class="st15" d="M98.6,143.7c1.1,0.6,1.6,1.9,1.1,3.1c-0.6,1.1-1.9,1.6-3.1,1.1c-1.1-0.6-1.6-1.9-1.1-3.1
		C96.1,143.6,97.5,143.1,98.6,143.7z"/>
	<path class="st15" d="M80.3,129.7c1.1,0.6,1.6,1.9,1.1,3.1c-0.6,1.1-1.9,1.6-3.1,1.1c-1.1-0.6-1.6-1.9-1.1-3.1
		C77.8,129.6,79.2,129.1,80.3,129.7z"/>
	<path class="st15" d="M101,111.5c1.1,0.6,1.6,1.9,1.1,3.1c-0.6,1.1-1.9,1.6-3.1,1.1c-1.1-0.6-1.6-1.9-1.1-3.1
		C98.5,111.5,99.9,111,101,111.5z"/>
	<path class="st15" d="M118.7,132c1.1,0.6,1.6,1.9,1.1,3.1c-0.6,1.1-1.9,1.6-3.1,1.1c-1.1-0.6-1.6-1.9-1.1-3.1
		C116.2,132,117.5,131.5,118.7,132z"/>
</g>
</svg>
