<?xml version="1.0" encoding="utf-8"?>
<!-- Generator: Adobe Illustrator 23.0.3, SVG Export Plug-In . SVG Version: 6.00 Build 0)  -->
<svg version="1.1" id="Layer_1" xmlns="http://www.w3.org/2000/svg" xmlns:xlink="http://www.w3.org/1999/xlink" x="0px" y="0px"
	 viewBox="0 0 160 150" style="enable-background:new 0 0 160 150;" xml:space="preserve">
<style type="text/css">
	.st0{fill:#EBEBEB;}
	.st1{fill:#E0E0E0;}
	.st2{fill:#263238;}
	.st3{fill:#455A64;}
	.st4{fill:#F5F5F5;}
	.st5{fill:#FFFFFF;}
	.st6{fill:#05648A;}
	.st7{opacity:0.3;}
	.st8{opacity:0.3;enable-background:new    ;}
	.st9{fill:#FFBE9D;}
	.st10{fill:#EB996E;}
</style>
<path class="st0" d="M161.3,27h-16.8v4.4h16.8V27z"/>
<path class="st1" d="M74.4,129.7c0-1.5-0.3-3-1-4.3c-0.7-1.3-1.6-2.5-2.8-3.4c-1.2-0.9-2.6-1.5-4-1.8c-1.5-0.3-3-0.2-4.4,0.2
	c-1.4,0.4-2.8,1.1-3.9,2.1c-1.1,1-2,2.2-2.5,3.6c-0.6,1.4-0.8,2.9-0.7,4.4c0.1,1.5,0.6,2.9,1.3,4.2l0,0l0,0c0.4,0.6,0.8,1.1,1.3,1.7
	l5.6,7.5c0.2,0.2,0.4,0.4,0.6,0.5c0.2,0.1,0.5,0.2,0.8,0.2s0.5-0.1,0.8-0.2s0.5-0.3,0.6-0.5l5.5-7.3c0.5-0.6,1-1.2,1.4-1.9l0,0
	C73.9,133.1,74.4,131.4,74.4,129.7L74.4,129.7z M64.7,133.9c-0.8,0-1.7-0.3-2.4-0.7c-0.7-0.5-1.2-1.1-1.6-1.9
	c-0.3-0.8-0.4-1.6-0.2-2.5c0.2-0.8,0.6-1.6,1.2-2.2c0.6-0.6,1.4-1,2.2-1.2c0.8-0.2,1.7-0.1,2.5,0.2c0.8,0.3,1.4,0.9,1.9,1.6
	c0.5,0.7,0.7,1.5,0.7,2.4c0,0.6-0.1,1.1-0.3,1.6c-0.2,0.5-0.5,1-0.9,1.4c-0.4,0.4-0.9,0.7-1.4,0.9C65.8,133.8,65.3,133.9,64.7,133.9
	z"/>
<path class="st0" d="M38.5,6H21.7v4.4h16.8V6z"/>
<path class="st1" d="M31.2,15.1C31.2,15,31.2,15,31.2,15.1v-0.3c0-0.2,0-0.5,0-0.9c0-0.8,0-1.9,0-3.3l0.1,0.1l-16.8,0l0.1-0.1v1.1
	c0,0.4,0,0.8,0,1.1v2.2L14.4,15l11.9,0l3.5,0h1L31.2,15.1L31.2,15.1C31.2,15,31.2,15,31.2,15.1l-0.3,0h-0.9l-3.5,0l-12,0.1h-0.1
	v-0.1c0-0.7,0-1.4,0-2.2v-2.2l0.1-0.1l16.8,0h0.1v0.1c0,1.4,0,2.5,0,3.3c0,0.4,0,0.7,0,0.9C31.2,14.9,31.2,14.9,31.2,15.1
	C31.2,15.1,31.2,15.1,31.2,15.1z"/>
<path class="st0" d="M159.4,123.1h-16.8v4.4h16.8V123.1z"/>
<path class="st1" d="M152.1,132.2C152.1,132.2,152.1,132.2,152.1,132.2c0-0.1,0-0.2,0-0.3c0-0.2,0-0.5,0-0.9c0-0.8,0-1.9,0-3.3
	l0.1,0.1l-16.8,0c0,0-0.1,0.1,0.1-0.1v4.4l-0.1-0.1l11.9,0l3.5,0h1L152.1,132.2L152.1,132.2L152.1,132.2l-0.3,0h-0.9l-3.5,0l-12,0.1
	h-0.1v-4.5c0.2-0.2,0,0,0.1-0.1l16.8,0h0.1v0.1c0,1.4,0,2.5,0,3.3c0,0.4,0,0.7,0,0.9C152.1,132,152.1,132.1,152.1,132.2
	C152.1,132.2,152.1,132.2,152.1,132.2L152.1,132.2z"/>
<path class="st1" d="M115,8C115,8,115,8,115,8V7.7c0-0.2,0-0.5,0-0.9c0-0.8,0-1.9,0-3.3l0.1,0.1l-16.8,0l0.1-0.1v2.2
	c0,0.7,0,1.5,0,2.2l-0.1-0.1l11.9,0l3.5,0h1L115,8L115,8C115,8,115,8,115,8l-0.3,0h-0.9l-3.5,0l-12,0h-0.1V8c0-0.7,0-1.4,0-2.2V3.6
	l0.1-0.1l16.8,0h0.1v0.1c0,1.4,0,2.5,0,3.3c0,0.4,0,0.7,0,0.9L115,8C115,8,115,8,115,8z"/>
<path class="st1" d="M117.3,3.6C117.3,3.6,117.3,3.5,117.3,3.6V3.3c0-0.2,0-0.5,0-0.9c0-0.8,0-1.9,0-3.2l0.1,0.1l-10.1,0
	c-0.1,0.1,0.1-0.1,0.1-0.1v2.3c0,0.7,0,1.5,0,2.1l-0.1-0.1l7.2,0l2.1,0h0.6L117.3,3.6c0,0-0.1,0-0.2,0h-0.6l-2.1,0l-7.3,0h-0.1V3.5
	c0-0.7,0-1.4,0-2.1v-2.2l0.1-0.1l10.1,0h0.1v0.1c0,1.4,0,2.5,0,3.3c0,0.4,0,0.7,0,0.9C117.4,3.5,117.3,3.6,117.3,3.6z"/>
<path class="st1" d="M20.4,134.2C20.4,134.2,20.4,134.1,20.4,134.2v-0.3c0-0.2,0-0.5,0-0.9c0-0.8,0-1.9,0-3.3l0.1,0.1l-16.8,0
	l0.1-0.1v2.2c0,0.7,0,1.5,0,2.2l-0.1-0.1l11.9,0l3.5,0h1L20.4,134.2L20.4,134.2L20.4,134.2l-0.3,0h-0.9l-3.5,0l-12,0H3.6v-0.1
	c0-0.7,0-1.4,0-2.2v-2.2l0.1-0.1l16.8,0h0.1v0.1c0,1.4,0,2.5,0,3.3c0,0.4,0,0.7,0,0.9v0.2C20.5,134.1,20.5,134.1,20.4,134.2
	L20.4,134.2z"/>
<path class="st1" d="M22.7,129.7C22.7,129.7,22.7,129.7,22.7,129.7c0-0.1,0-0.2,0-0.3c0-0.2,0-0.5,0-0.9c0-0.8,0-1.9,0-3.2l0.1,0.1
	l-10.1,0l0.1-0.1v2.3c0,0.7,0,1.5,0,2.1l-0.1-0.1l7.2,0l2.1,0h0.6L22.7,129.7c0,0-0.1,0-0.2,0H22l-2.1,0l-7.3,0h-0.1v-0.1
	c0-0.7,0-1.4,0-2.1v-2.3l0.1-0.1l10.1,0h0.1v0.1c0,1.4,0,2.5,0,3.3c0,0.4,0,0.7,0,0.9S22.7,129.7,22.7,129.7z"/>
<path class="st2" d="M152.9,147c0,0-33,0.1-73.7,0.1S5.5,147,5.5,147s33-0.1,73.7-0.1S152.9,146.9,152.9,147z"/>
<path class="st2" d="M145.9,16.9H12.6c-2.4,0-4.4,2-4.4,4.4v90.2c0,2.4,2,4.4,4.4,4.4h133.3c2.4,0,4.4-2,4.4-4.4V21.3
	C150.3,18.9,148.3,16.9,145.9,16.9z"/>
<path class="st2" d="M150.3,21.3l0-0.3c0-0.1,0-0.3,0-0.4c0-0.2-0.1-0.4-0.1-0.5c-0.2-0.6-0.4-1.1-0.8-1.6c-0.4-0.5-0.9-0.8-1.4-1.1
	c-0.4-0.2-0.8-0.3-1.2-0.4c-0.5-0.1-0.9-0.1-1.4-0.1h-3.2h-8l-50.9,0H48.1h-35c-0.4,0-0.9,0-1.3,0.1c-0.4,0.1-0.8,0.2-1.2,0.4
	c-0.8,0.4-1.4,1-1.8,1.8c-0.2,0.4-0.4,0.8-0.4,1.2c-0.1,0.4-0.1,0.9-0.1,1.3v8.1c0,3.6,0,7.3,0,11v22.7c0,15.5,0,31.4,0,47.8
	c0,1,0.3,2,1,2.8c0.6,0.8,1.5,1.3,2.5,1.5c0.5,0.1,1,0.1,1.5,0.1h40.2H98h40.3h7c0.4,0,0.8,0,1.1-0.1c0.9-0.1,1.8-0.5,2.4-1.2
	c0.7-0.7,1.1-1.5,1.2-2.4c0-0.4,0.1-0.7,0-1.1c0-0.4,0-0.7,0-1.1v-2.2c0-5.9,0-11.5,0-16.9c0-21.5,0-38.9,0-50.9c0-6,0-10.7,0-13.8
	c0-1.6,0-2.8,0-3.6C150.2,21.7,150.2,21.3,150.3,21.3c0,0,0,0.4,0,1.2c0,0.8,0,2,0,3.6c0,3.2,0,7.8,0,13.8c0,12,0,29.4,0,50.9
	c0,5.4,0,11,0,16.9c0,0.7,0,1.5,0,2.2v1.1c0,0.4,0,0.8,0,1.1c-0.1,0.8-0.4,1.5-0.9,2.1c-0.5,0.6-1.1,1.1-1.8,1.4
	c-0.4,0.2-0.7,0.3-1.1,0.3c-0.4,0-0.8,0.1-1.2,0.1h-6.9H98H53.5H13.3c-0.5,0-1,0-1.5-0.1c-1-0.2-2-0.7-2.6-1.6c-0.7-0.8-1-1.8-1-2.9
	c0-16.4,0-32.4,0-47.8c0-7.7,0-15.3,0-22.7V21.8c0-0.5,0-0.9,0.1-1.4c0.1-0.4,0.2-0.9,0.5-1.3c0.4-0.8,1.1-1.4,1.9-1.9
	c0.4-0.2,0.8-0.3,1.3-0.4c0.4-0.1,0.9-0.1,1.3-0.1h15.5h19.6h35.1l50.9,0h8h3.2c0.5,0,0.9,0,1.4,0.1c0.4,0.1,0.8,0.2,1.2,0.4
	c0.5,0.3,1,0.7,1.4,1.1c0.4,0.5,0.7,1,0.8,1.6c0.1,0.2,0.1,0.3,0.1,0.5c0,0.1,0,0.3,0,0.4C150.3,21.2,150.3,21.3,150.3,21.3z"/>
<path class="st3" d="M143.1,62.6c0.7,0,1.5,0.2,2.1,0.6c0.6,0.4,1.1,1,1.4,1.7c0.3,0.7,0.4,1.5,0.2,2.2c-0.1,0.7-0.5,1.4-1,1.9
	c-0.5,0.5-1.2,0.9-1.9,1c-0.7,0.1-1.5,0.1-2.2-0.2c-0.7-0.3-1.3-0.8-1.7-1.4c-0.4-0.6-0.6-1.4-0.6-2.1c0-1,0.4-2,1.1-2.7
	C141.2,63,142.1,62.6,143.1,62.6L143.1,62.6z"/>
<path class="st3" d="M15.7,56.3v20.2c0,0.2,0,0.4-0.1,0.5c-0.1,0.2-0.2,0.3-0.3,0.5c-0.1,0.1-0.3,0.2-0.5,0.3
	c-0.2,0.1-0.4,0.1-0.5,0.1l0,0c-0.2,0-0.4,0-0.5-0.1c-0.2-0.1-0.3-0.2-0.5-0.3C13.1,77.4,13,77.2,13,77c-0.1-0.2-0.1-0.4-0.1-0.5
	V56.3c0-0.4,0.1-0.7,0.4-1s0.6-0.4,1-0.4c0.4,0,0.7,0.1,1,0.4C15.5,55.5,15.7,55.9,15.7,56.3z"/>
<path class="st0" d="M137,20.1H18.3v92.8H137V20.1z"/>
<path class="st1" d="M94.8,87.1l9.2,16.2l22.6-0.3l-1.3-17.6L94.8,87.1z"/>
<path class="st1" d="M65,32.5L61.7,58l6.8,1.6l13.4-1.3l-2.5-27.9L65,32.5z"/>
<path class="st4" d="M44.2,84.8H28.4v-19l17.2,0.2L44.2,84.8z"/>
<path class="st4" d="M109.3,85.4c0-0.5,2.8-19.5,2.8-19.5s10.9-3,10.9-2.6c0,0.4,2.2,21.5,2.2,21.5L109.3,85.4z"/>
<path class="st1" d="M30.2,36.9c0,0.5,7.6,15.6,7.6,15.6l8.7-2.3V32.8l-9-0.2L30.2,36.9z"/>
<path class="st1" d="M83.4,68.5h-12v5.7h12V68.5z"/>
<path class="st1" d="M83.5,76l-12.1,0.6l-0.6,11.5l13.9-1.1L83.5,76z"/>
<path class="st1" d="M132.1,54.7l-1.7-23.4h6.6l0,22.9L132.1,54.7z"/>
<path class="st1" d="M105.1,27.5l2.7,29.1l14.4-1.3l-2.5-24.9l-11.4-3H105.1z"/>
<path class="st5" d="M39.1,32.7l-20.7-0.3l0-1.4L38,31.3l2.3-11.2l1.4,0.3L39.1,32.7z"/>
<path class="st5" d="M28.3,55.2L18.2,32.6l0.3-0.1l9.9,22.3L46.4,50l0.1,0.3L28.3,55.2z"/>
<path class="st5" d="M45.6,65.6H18.4v0.7h27.2V65.6z"/>
<path class="st5" d="M28.5,55h-0.3v29.8h0.3V55z"/>
<path class="st5" d="M44.3,84.6H18.4V85h25.9V84.6z"/>
<path class="st5" d="M42.9,111.7l-24.7-5.4l0.3-1.3l23.1,5.1l4-55.2l0.6-22.9l0.9-11.7l1.4,0.1L47.6,32L47,54.9L42.9,111.7z"/>
<path class="st5" d="M46.9,33.5l-8.4-0.8l0.1-1.4L46,32l1.2-2.6l11.1,2.7l49.7-5.7l17.3,4.5l11.6-0.3l0,1.4l-11.8,0.3l-17.3-4.5
	l-49.7,5.7L48,31L46.9,33.5z"/>
<path class="st5" d="M104.7,86.4l-1.4-0.2l3.9-29.7l-3-29.1v-7.4h1.4v7.4l3,29.2L104.7,86.4z"/>
<path class="st5" d="M43.6,90.5l-0.1-1.4l81.3-4.9l11.1-22.5l1.2,0.6l-11.4,23.2l-0.4,0L43.6,90.5z"/>
<path class="st5" d="M84.3,87.9l-5.2-57.5l-0.3-10.2l0.7,0l0.3,10.2L85,87.8L84.3,87.9z"/>
<path class="st5" d="M73.4,112.5l-6-24.5V60.2l-6.8-1.7l2.9-26.3l-0.3-12.1l1.4,0l0.3,12.2l0,0l-2.8,25.2l6.6,1.7v28.7l6,24.4
	L73.4,112.5z"/>
<path class="st5" d="M68.1,65.7H45.6v0.3h22.5V65.7z"/>
<path class="st5" d="M46.4,54.8l-0.1,0.3l15,3.1l0.1-0.3L46.4,54.8z"/>
<path class="st5" d="M68,77.3l-5.3-1.2V65.9H63v9.9l5.1,1.1L68,77.3z"/>
<path class="st5" d="M59.7,112.5l-3-9.6H42.9v-1.4h14.8l3.3,10.6L59.7,112.5z"/>
<path class="st5" d="M103.9,103.4l-9.2-16.3L95,87l9.1,16.1l32.8-0.5l0,0.3L103.9,103.4z"/>
<path class="st5" d="M120,103.3h-0.3v9.3h0.3V103.3z"/>
<path class="st5" d="M126.4,102.9l-1.3-17.6l-6.6-65.3l0.3,0l6.6,65.3l1.3,17.6L126.4,102.9z"/>
<path class="st5" d="M137,54l-68.9,5.5l0,0.3l68.9-5.5L137,54z"/>
<path class="st5" d="M130.7,31.9l-0.7,0.1l2,22.8l0.7-0.1L130.7,31.9z"/>
<path class="st5" d="M131.5,44.7l-10.1,2.5l0.1,0.3l10.1-2.5L131.5,44.7z"/>
<path class="st5" d="M127.1,45.8l-1.8-10.1l-5-0.5l0-0.3l5.3,0.6l1.8,10.4L127.1,45.8z"/>
<path class="st5" d="M92.9,29.2l-0.7,0.1l2.4,27.9l0.7-0.1L92.9,29.2z"/>
<path class="st5" d="M106.3,44.5l-12.2,2.7l0.1,0.3l12.2-2.7L106.3,44.5z"/>
<path class="st5" d="M103.7,103.2l-1.3,9.7l0.7,0.1l1.3-9.7L103.7,103.2z"/>
<path class="st1" d="M46.9,66.5l-1.4,21.4l21.4-1v-8.4l-5.6-1.2v-9.8L46.9,66.5z"/>
<path class="st6" d="M41.1,71.7c0-0.7-0.2-1.5-0.5-2.2c-0.3-0.7-0.8-1.3-1.4-1.7c-0.6-0.5-1.3-0.8-2-0.9s-1.5-0.1-2.2,0.1
	c-0.7,0.2-1.4,0.6-1.9,1c-0.6,0.5-1,1.1-1.3,1.8c-0.3,0.7-0.4,1.4-0.3,2.2c0.1,0.7,0.3,1.5,0.7,2.1l0,0v0c0.2,0.3,0.4,0.5,0.7,0.9
	l2.8,3.7c0.1,0.1,0.2,0.2,0.3,0.3c0.1,0.1,0.3,0.1,0.4,0.1s0.3,0,0.4-0.1s0.2-0.1,0.3-0.3l2.8-3.7c0.3-0.3,0.5-0.6,0.7-0.9l0,0
	C40.8,73.4,41,72.6,41.1,71.7L41.1,71.7z M36.2,73.8c-0.4,0-0.8-0.1-1.2-0.4c-0.4-0.2-0.6-0.6-0.8-1c-0.2-0.4-0.2-0.8-0.1-1.2
	c0.1-0.4,0.3-0.8,0.6-1.1c0.3-0.3,0.7-0.5,1.1-0.6c0.4-0.1,0.8,0,1.2,0.1c0.4,0.2,0.7,0.4,1,0.8c0.2,0.4,0.4,0.8,0.4,1.2
	c0,0.6-0.2,1.1-0.6,1.5C37.3,73.6,36.8,73.8,36.2,73.8L36.2,73.8z"/>
<path class="st6" d="M86.8,54.6c0-0.7-0.2-1.5-0.5-2.2c-0.3-0.7-0.8-1.3-1.4-1.7c-0.6-0.5-1.3-0.8-2-0.9c-0.7-0.1-1.5-0.1-2.2,0.1
	c-0.7,0.2-1.4,0.6-1.9,1.1c-0.6,0.5-1,1.1-1.3,1.8c-0.3,0.7-0.4,1.4-0.3,2.2c0.1,0.7,0.3,1.5,0.7,2.1v0c0.2,0.3,0.4,0.5,0.7,0.9
	l2.8,3.7c0.1,0.1,0.2,0.2,0.3,0.3c0.1,0.1,0.3,0.1,0.4,0.1s0.3,0,0.4-0.1c0.1-0.1,0.2-0.1,0.3-0.3l2.8-3.7c0.2-0.3,0.5-0.6,0.7-0.9
	l0,0C86.5,56.3,86.8,55.5,86.8,54.6L86.8,54.6z M81.9,56.7c-0.4,0-0.8-0.1-1.2-0.4c-0.4-0.2-0.6-0.6-0.8-1c-0.2-0.4-0.2-0.8-0.1-1.2
	c0.1-0.4,0.3-0.8,0.6-1.1c0.3-0.3,0.7-0.5,1.1-0.6c0.4-0.1,0.8,0,1.2,0.1c0.4,0.2,0.7,0.4,1,0.8c0.2,0.4,0.4,0.8,0.4,1.2
	c0,0.3-0.1,0.6-0.2,0.8c-0.1,0.3-0.3,0.5-0.5,0.7c-0.2,0.2-0.4,0.4-0.7,0.5C82.5,56.7,82.2,56.7,81.9,56.7L81.9,56.7z"/>
<path class="st6" d="M66.6,96.7c0-0.5-0.1-1-0.3-1.5c-0.2-0.5-0.6-0.9-1-1.2c-0.4-0.3-0.9-0.5-1.4-0.6c-0.5-0.1-1-0.1-1.5,0.1
	c-0.5,0.1-1,0.4-1.3,0.7c-0.4,0.3-0.7,0.8-0.9,1.2c-0.2,0.5-0.3,1-0.2,1.5c0,0.5,0.2,1,0.5,1.4l0,0c0.1,0.2,0.3,0.4,0.5,0.6l1.9,2.6
	c0.1,0.1,0.1,0.1,0.2,0.2c0.1,0,0.2,0.1,0.3,0.1s0.2,0,0.3-0.1c0.1,0,0.2-0.1,0.2-0.2l1.9-2.5c0.2-0.2,0.3-0.4,0.5-0.6l0,0
	C66.4,97.9,66.6,97.3,66.6,96.7L66.6,96.7z M63.3,98.1c-0.3,0-0.6-0.1-0.8-0.2c-0.2-0.2-0.4-0.4-0.5-0.7c-0.1-0.3-0.1-0.6-0.1-0.8
	c0.1-0.3,0.2-0.5,0.4-0.8c0.2-0.2,0.5-0.3,0.8-0.4c0.3-0.1,0.6,0,0.8,0.1c0.3,0.1,0.5,0.3,0.7,0.5c0.2,0.2,0.2,0.5,0.2,0.8
	c0,0.2,0,0.4-0.1,0.6c-0.1,0.2-0.2,0.3-0.3,0.5C64.2,97.8,64,98,63.8,98C63.7,98.1,63.5,98.1,63.3,98.1L63.3,98.1z"/>
<path class="st6" d="M127,36.2c0-0.8-0.3-1.6-0.9-2.2c-0.6-0.6-1.3-1-2.2-1.1c-0.8-0.1-1.7,0.2-2.3,0.7c-0.7,0.5-1.1,1.2-1.3,2
	c-0.1,0.8,0,1.6,0.4,2.3c0.1,0.2,0.3,0.4,0.5,0.6l1.9,2.6c0.1,0.1,0.1,0.1,0.2,0.2c0.1,0,0.2,0.1,0.3,0.1c0.1,0,0.2,0,0.3-0.1
	c0.1,0,0.2-0.1,0.2-0.2l1.9-2.5c0.2-0.2,0.3-0.4,0.5-0.6l0,0C126.9,37.4,127,36.8,127,36.2L127,36.2z M123.7,37.7
	c-0.3,0-0.6-0.1-0.8-0.2c-0.2-0.2-0.4-0.4-0.5-0.7c-0.1-0.3-0.1-0.6-0.1-0.8c0.1-0.3,0.2-0.5,0.4-0.8c0.2-0.2,0.5-0.3,0.8-0.4
	c0.3-0.1,0.6,0,0.8,0.1c0.3,0.1,0.5,0.3,0.7,0.5c0.2,0.2,0.2,0.5,0.2,0.8c0,0.4-0.2,0.8-0.4,1C124.5,37.5,124.1,37.7,123.7,37.7z"/>
<path class="st6" d="M56.1,37.8c0-0.9-0.2-1.8-0.6-2.6c-0.4-0.8-1-1.5-1.7-2.1c-0.7-0.6-1.6-0.9-2.5-1.1c-0.9-0.2-1.8-0.1-2.7,0.1
	c-0.9,0.2-1.7,0.7-2.4,1.3c-0.7,0.6-1.2,1.4-1.6,2.2c-0.3,0.8-0.5,1.7-0.4,2.7c0.1,0.9,0.3,1.8,0.8,2.6l0,0l0,0
	c0.2,0.4,0.5,0.7,0.8,1.1l3.4,4.5c0.1,0.1,0.2,0.2,0.4,0.3c0.1,0.1,0.3,0.1,0.5,0.1s0.3,0,0.5-0.1c0.1-0.1,0.3-0.2,0.4-0.3l3.4-4.5
	c0.3-0.4,0.6-0.7,0.9-1.1l0,0C55.8,39.9,56.1,38.9,56.1,37.8L56.1,37.8z M50.2,40.4c-0.5,0-1-0.2-1.4-0.4c-0.4-0.3-0.8-0.7-1-1.2
	c-0.2-0.5-0.2-1-0.1-1.5c0.1-0.5,0.3-1,0.7-1.3c0.4-0.4,0.8-0.6,1.3-0.7c0.5-0.1,1,0,1.5,0.1c0.5,0.2,0.9,0.5,1.2,1
	c0.3,0.4,0.4,0.9,0.4,1.4c0,0.7-0.3,1.3-0.8,1.8C51.5,40.1,50.9,40.4,50.2,40.4L50.2,40.4z"/>
<path class="st3" d="M24.4,132.2c0,0-7.8-8.9-10.7-17.8s-1.5-7.9-1.5-7.9s3.9,8.6,6.9,12.8c3,4.2,8.3,10.3,8.3,10.3L24.4,132.2z"/>
<path class="st3" d="M25.9,107.8c-0.1-0.1-0.1-0.2-0.2-0.2c-0.1,0-0.2,0-0.3,0c-0.1,0-0.2,0.1-0.2,0.2c-0.1,0.1-0.1,0.2-0.1,0.3
	c0.5,3.1,1.5,10.5,1.5,15.2c-0.1,6.2,0,8.6,0,8.6h3.2c0,0-0.6-12.8-1.3-16.7C28,112.5,26.9,109.5,25.9,107.8z"/>
<path class="st3" d="M27.7,130.9c1.4-3.1,2.2-6.3,2.7-9.6c0.3-2.3-0.2-5.4-0.9-9.5c-0.3-1.5-0.4-3-0.4-4.6c0-0.2,0.1-0.3,0.2-0.5
	s0.3-0.2,0.4-0.3c0.2,0,0.3,0,0.5,0c0.2,0.1,0.3,0.2,0.4,0.3c0.4,0.7,1.5,3.1,1.8,4.6c0.8,4.1,1.7,6.1,1,9.9
	c-0.7,3.8-3.2,9.8-3.2,9.8L27.7,130.9z"/>
<path class="st3" d="M30.6,131.2c0,0,8.5-18.3,9.1-21c0.6-2.7,2.6-9,2.8-8.6c0.2,0.3,0.6,3.7-0.9,7.4c-1.5,3.8-8.1,22.7-8.1,22.7
	h-2.9"/>
<path class="st2" d="M26.8,130.3c-0.1,0-0.2-0.1-0.2-0.2c-0.2-0.1-0.4-0.3-0.7-0.5c-0.6-0.4-1.4-1.1-2.3-2c-2.4-2.4-4.5-5-6.2-7.9
	c-1.7-2.9-3.1-5.9-4.2-9.1c-0.4-1.2-0.7-2.2-0.9-2.9c-0.1-0.3-0.2-0.6-0.2-0.8c0-0.1,0-0.2-0.1-0.3c0,0.1,0.1,0.2,0.1,0.3
	c0.1,0.2,0.1,0.5,0.3,0.8c0.2,0.7,0.6,1.7,1,2.9c1.1,3.1,2.6,6.2,4.2,9.1c1.7,2.9,3.7,5.5,6.1,7.9c0.9,0.9,1.7,1.6,2.2,2.1
	c0.3,0.2,0.5,0.4,0.6,0.5C26.6,130.2,26.7,130.3,26.8,130.3L26.8,130.3z"/>
<path class="st2" d="M27.7,121.6c0-0.2-0.1-0.4-0.1-0.5c0-0.4-0.1-0.9-0.2-1.5c-0.1-1.2-0.3-2.9-0.6-4.8c-0.3-1.9-0.6-3.6-0.9-4.8
	c-0.1-0.6-0.2-1.1-0.3-1.4c0-0.2-0.1-0.4-0.1-0.5c0.1,0.2,0.1,0.3,0.2,0.5c0.1,0.3,0.2,0.8,0.4,1.4c0.3,1.2,0.6,2.9,0.9,4.8
	c0.3,1.9,0.5,3.6,0.6,4.8c0.1,0.6,0.1,1.1,0.1,1.5C27.7,121.2,27.7,121.4,27.7,121.6L27.7,121.6z"/>
<path class="st2" d="M29.7,106.8c0,0.1,0.1,0.2,0.1,0.2l0.3,0.7c0.1,0.3,0.2,0.7,0.4,1.1c0.1,0.4,0.3,0.9,0.4,1.5
	c0.1,0.3,0.1,0.6,0.2,0.9c0.1,0.3,0.1,0.6,0.2,0.9c0.1,0.6,0.2,1.4,0.3,2.1c0.2,1.6,0.3,3.2,0.2,4.8c-0.1,1.6-0.3,3.2-0.5,4.8
	c-0.2,0.7-0.3,1.4-0.5,2.1c-0.1,0.3-0.2,0.6-0.3,0.9c-0.1,0.3-0.2,0.6-0.3,0.8c-0.2,0.5-0.3,1-0.5,1.4c-0.2,0.4-0.3,0.8-0.4,1.1
	l-0.3,0.7c0,0.1-0.1,0.2-0.1,0.2c0-0.1,0-0.2,0.1-0.2l0.3-0.7c0.1-0.3,0.3-0.6,0.4-1.1c0.1-0.4,0.3-0.9,0.5-1.4l0.3-0.8
	c0.1-0.3,0.2-0.6,0.2-0.9c0.2-0.6,0.3-1.3,0.5-2.1c0.3-1.6,0.5-3.2,0.5-4.8c0-1.6,0-3.2-0.2-4.8c-0.1-0.7-0.2-1.4-0.3-2.1
	c-0.1-0.3-0.1-0.6-0.2-0.9l-0.2-0.9c-0.1-0.6-0.3-1-0.4-1.5s-0.2-0.8-0.3-1.1c-0.1-0.3-0.2-0.5-0.2-0.7
	C29.7,106.9,29.7,106.9,29.7,106.8L29.7,106.8z"/>
<path class="st2" d="M42.4,102C42.4,102,42.4,102,42.4,102c0,0.1,0,0.2,0,0.3c0,0.2-0.1,0.5-0.2,0.9c-0.2,0.8-0.4,1.9-0.9,3.3
	c-0.4,1.4-1,3-1.7,4.7c-0.7,1.8-1.5,3.7-2.2,5.7c-0.8,2-1.4,4-1.9,5.9c-0.6,1.8-1.1,3.4-1.6,4.8c-0.4,1.1-0.8,2.1-1.3,3.1
	c-0.2,0.4-0.3,0.6-0.4,0.8l-0.1,0.2c0,0,0,0,0,0.1c0,0,0,0,0-0.1l0.1-0.2c0.1-0.2,0.2-0.5,0.4-0.8c0.3-0.7,0.8-1.8,1.3-3.1
	c0.5-1.3,1-3,1.5-4.8c0.5-1.8,1.1-3.8,1.9-5.9c0.8-2.1,1.6-4,2.2-5.7c0.7-1.8,1.3-3.4,1.7-4.7c0.4-1.4,0.7-2.5,0.9-3.3
	c0.1-0.4,0.2-0.7,0.2-0.9C42.4,102.2,42.4,102.1,42.4,102C42.4,102,42.4,102,42.4,102L42.4,102z"/>
<path class="st3" d="M16.2,97.9c-0.1-0.1-0.3-0.2-0.4-0.2c-0.2,0-0.3,0-0.5,0.1c-0.1,0.1-0.2,0.2-0.3,0.4c-0.1,0.2-0.1,0.3,0,0.5
	c0.3,0.9,0.6,1.9,1.1,2.8c1.2,2.5,4.6,11.4,6.2,16.3s3.9,14,3.9,14l3.4-0.6c0,0-3.1-15-6.2-20.4C20.9,106.4,18.4,100.1,16.2,97.9z"
	/>
<path class="st2" d="M23.2,120.8c0.1,0.1,0.1,0.3,0.2,0.4c0.1,0.3,0.2,0.7,0.4,1.2c0.3,1,0.7,2.3,1.1,3.9c0.4,1.5,0.7,2.9,0.9,3.9
	l0.3,1.2c0,0.1,0.1,0.3,0.1,0.4c-0.1-0.1-0.1-0.3-0.1-0.4c-0.1-0.3-0.2-0.7-0.3-1.2c-0.3-1-0.6-2.4-1-3.9c-0.4-1.5-0.8-2.9-1-3.9
	l-0.3-1.2C23.3,121.1,23.2,120.9,23.2,120.8L23.2,120.8z"/>
<path class="st2" d="M27.9,131.4C27.8,131.4,27.8,131.4,27.9,131.4c0-0.2,0-0.3-0.1-0.4c0-0.2-0.1-0.6-0.1-1
	c-0.1-0.9-0.3-2.2-0.7-3.8c-0.4-1.9-1-3.7-1.6-5.5c-0.7-2-1.6-4.2-2.6-6.5c-2-4.5-4-8.6-5.4-11.5c-0.7-1.5-1.2-2.7-1.5-3.5
	c-0.2-0.4-0.3-0.8-0.4-1L15.4,98c0,0,0-0.1,0-0.1c0,0,0,0,0,0.1l0.1,0.2l0.4,1c0.4,0.8,0.9,2,1.6,3.5c1.4,3,3.4,7,5.4,11.5
	c1,2.3,1.9,4.5,2.6,6.5c0.6,1.8,1.2,3.6,1.6,5.5c0.3,1.3,0.5,2.5,0.7,3.8c0.1,0.5,0.1,0.8,0.1,1c0,0.1,0,0.2,0,0.3
	C27.9,131.4,27.9,131.4,27.9,131.4L27.9,131.4z"/>
<path class="st2" d="M29.6,131.2c-0.1-0.2-0.1-0.4-0.1-0.6c-0.1-0.4-0.2-0.9-0.3-1.6c-0.2-1.3-0.6-3.2-1.1-5.2c-0.5-2-1.1-3.8-1.5-5
	l-0.5-1.5c-0.1-0.2-0.1-0.4-0.2-0.6c0.1,0.2,0.2,0.3,0.2,0.5c0.1,0.3,0.3,0.9,0.6,1.5c0.6,1.7,1.2,3.3,1.6,5
	c0.4,1.7,0.8,3.4,1.1,5.2c0.1,0.7,0.2,1.2,0.2,1.6C29.6,130.8,29.6,131,29.6,131.2L29.6,131.2z"/>
<path class="st6" d="M36.6,130.7H23.2V147h13.4V130.7z"/>
<g class="st7">
	<path class="st8" d="M36.6,130.7H23.2V147h13.4V130.7z"/>
</g>
<path class="st6" d="M32.3,130.7H20.5V147h11.9V130.7z"/>
<path class="st9" d="M83.9,96.3c0,0,0,12.1-0.2,12.8c-0.2,0.7-0.5,4.3,0.4,6c0.9,1.7,3,5.1,4.8,5.6c1.8,0.5,2.9,0,2.9,0
	s1.1-7.9,0.8-10.2c-0.4-2.3-1.2-7.2-1.2-7.2l-5.7-6.4L83.9,96.3z"/>
<path class="st9" d="M98.2,79.7l5.4-1.6l10.1-0.7l6.1,1.2l-6.6,10.7l-9.6-0.7L98.2,79.7z"/>
<path class="st2" d="M119.4,57.7c0.1,2.6-0.4,5.1-1.4,7.5s-2.5,4.5-4.4,6.2c-0.9-2.5-1.7-5-2.6-7.5"/>
<path class="st2" d="M99.9,42.8c2.2-1.2,4.9-1.4,7.4-0.9c2.5,0.5,4.8,1.6,7,2.9c1.2,0.7,2.5,1.5,3.3,2.6c1.6,2,3.2,5.4,3.4,7.9
	c0.1,2.1-0.7,7.3-1.6,9.2c-0.8,1.7-4.6,3.1-6.5,3.5l-17.2-20c0.3-1.1,0.8-2.2,1.5-3.1C98,44.1,98.9,43.3,99.9,42.8L99.9,42.8z"/>
<path class="st2" d="M96.9,45.5l4.1-0.7c-2.3,5.4-2.9,17.6-4.2,23.3c-1.5-2.2-5-8.9-4.9-11.6C92.2,53.8,92,45,96.9,45.5z"/>
<path class="st9" d="M116.5,54.4c-0.1-1.5-0.6-2.9-1.6-4.1c-1-1.2-2.3-2-3.7-2.4l-9.5-2.4c-4.1-0.4-6.8,4.6-7.1,8.7
	c-0.3,4.6-0.5,9.4,0.1,12.8c1.1,6.9,6.3,7.8,6.3,7.8s0,3.3,0,5.3l8.5,6.7l4.9-7.7L116.5,54.4C116.5,54.4,116.5,54.6,116.5,54.4z"/>
<path class="st2" d="M96.6,59.4c0,0.2,0.1,0.5,0.2,0.6c0.2,0.2,0.4,0.3,0.6,0.3c0.1,0,0.2,0,0.3,0c0.1,0,0.2-0.1,0.3-0.2
	c0.1-0.1,0.2-0.2,0.2-0.3c0-0.1,0.1-0.2,0.1-0.3c0-0.2-0.1-0.5-0.2-0.6c-0.2-0.2-0.4-0.3-0.6-0.3c-0.1,0-0.2,0-0.3,0
	c-0.1,0-0.2,0.1-0.3,0.2c-0.1,0.1-0.2,0.2-0.2,0.3C96.7,59.2,96.6,59.3,96.6,59.4L96.6,59.4z"/>
<path class="st2" d="M95.6,56.9c0.1,0.1,0.8-0.4,1.7-0.4c0.9,0,1.6,0.5,1.7,0.4c0.1-0.1-0.1-0.3-0.4-0.5c-0.4-0.3-0.9-0.4-1.4-0.4
	c-0.5,0-1,0.1-1.4,0.4C95.6,56.7,95.5,56.9,95.6,56.9z"/>
<path class="st2" d="M104.9,59.4c0,0.2,0.1,0.4,0.2,0.6s0.4,0.3,0.6,0.3c0.1,0,0.2,0,0.3,0c0.1,0,0.2-0.1,0.3-0.2
	c0.1-0.1,0.2-0.2,0.2-0.3c0-0.1,0.1-0.2,0.1-0.3c0-0.2-0.1-0.5-0.2-0.6c-0.2-0.2-0.4-0.3-0.6-0.3c-0.1,0-0.2,0-0.3,0
	c-0.1,0-0.2,0.1-0.3,0.2c-0.1,0.1-0.2,0.2-0.2,0.3C104.9,59.2,104.9,59.3,104.9,59.4z"/>
<path class="st2" d="M104.6,56.9c0.1,0.1,0.8-0.4,1.7-0.4c0.9,0,1.6,0.5,1.7,0.4c0.1-0.1-0.1-0.3-0.4-0.5c-0.4-0.3-0.9-0.4-1.4-0.4
	c-0.5,0-1,0.1-1.4,0.4C104.6,56.7,104.5,56.9,104.6,56.9z"/>
<path class="st2" d="M101.6,64.4c0-0.1-0.6-0.2-1.5-0.3c-0.2,0-0.5-0.1-0.5-0.2c0-0.3,0-0.5,0.2-0.7l0.7-1.8c1-2.6,1.7-4.8,1.6-4.8
	c-0.1,0-1,2.1-2,4.7L99.4,63c-0.2,0.3-0.2,0.6-0.1,0.9c0,0.1,0.1,0.2,0.2,0.2c0.1,0.1,0.2,0.1,0.2,0.1c0.1,0,0.3,0.1,0.4,0.1
	C101,64.4,101.6,64.4,101.6,64.4z"/>
<path class="st10" d="M110.1,72.4c0,0-2.2,4.7-9.1,4.1v-1.6C104.2,74.8,107.3,74,110.1,72.4L110.1,72.4z"/>
<path class="st2" d="M104.9,53.5c0.1,0.3,1,0.1,2.1,0.3c1.1,0.1,2,0.4,2.2,0.2c0.1-0.1-0.1-0.3-0.5-0.6c-0.5-0.3-1-0.5-1.6-0.6
	c-0.6-0.1-1.1,0-1.7,0.2C105.1,53.2,104.8,53.4,104.9,53.5z"/>
<path class="st2" d="M95.9,54c0.2,0.2,0.8,0,1.6,0s1.5,0.1,1.6-0.1c0.1-0.1,0-0.3-0.3-0.5c-0.4-0.2-0.8-0.4-1.3-0.4
	c-0.5,0-0.9,0.2-1.3,0.4C95.9,53.7,95.8,53.9,95.9,54z"/>
<path class="st2" d="M96.4,48c0.4-1,1.6-1.7,2.7-1.7c1.1,0,2.2,0.3,3.2,0.9c4.1,2.4,6.2,8.1,10.2,10.5c1,0.6,2.3,0.1,3.1,0.8
	c0.8,0.8,1.4,2.1,0.9,3.1c0.6-0.7,1.1-1.5,1.4-2.4c0.2-0.4,0.3-0.9,0.2-1.4c0-0.5-0.1-0.9-0.3-1.3c-0.3-0.6-1-1.1-1.1-1.7
	c-0.1-0.6,0.1-1.2,0.1-1.8c-0.1-0.6-0.3-1.2-0.6-1.8c-1.6-2.8-3.8-5.3-6.6-6.9c-1.8-1.1-3.9-1.6-6-1.6c-2.1,0-4.2,0.9-5.7,2.3
	C96.9,45.9,95.9,46.8,96.4,48"/>
<path class="st9" d="M115.5,59.4c0.1-0.2,3.7-1.5,3.7,2.3c0,3.7-3.7,3-3.7,2.9C115.5,64.5,115.5,59.4,115.5,59.4z"/>
<path class="st10" d="M116.7,63.2c0,0,0.1,0,0.2,0.1c0.2,0.1,0.3,0.1,0.5,0c0.4-0.1,0.7-0.8,0.7-1.4c0-0.3-0.1-0.6-0.2-0.9
	c0-0.1-0.1-0.2-0.2-0.3c-0.1-0.1-0.2-0.1-0.3-0.2c-0.1,0-0.2,0-0.2,0c-0.1,0-0.1,0.1-0.2,0.2c0,0.1,0,0.2,0,0.2c0,0-0.1-0.1-0.1-0.2
	c0-0.1,0.1-0.2,0.1-0.2c0.1-0.1,0.2-0.1,0.3-0.1c0.2,0,0.3,0.1,0.4,0.2c0.1,0.1,0.2,0.2,0.3,0.4c0.2,0.3,0.2,0.7,0.2,1
	c0,0.7-0.4,1.4-0.9,1.6c-0.1,0-0.2,0-0.3,0c-0.1,0-0.2-0.1-0.3-0.1C116.7,63.2,116.6,63.2,116.7,63.2z"/>
<path class="st3" d="M117,57.5c-0.1,0-0.2-0.1-0.2-0.1c-0.1-0.1-0.4-0.2-0.6-0.4c-0.7-0.5-1.4-1.1-2-1.8c-0.9-1-1.7-2.1-2.4-3.2
	c-0.9-1.3-1.9-2.6-3.1-3.8c-0.6-0.6-1.3-1.1-2-1.6c-0.7-0.4-1.4-0.7-2.1-1c-1.3-0.4-2.6-0.6-3.9-0.5c-0.9,0.1-1.8,0.2-2.6,0.5
	c-0.3,0.1-0.5,0.2-0.7,0.3c-0.1,0-0.2,0.1-0.2,0.1c0.1,0,0.2-0.1,0.2-0.1c0.2-0.1,0.5-0.2,0.7-0.3c0.8-0.3,1.7-0.5,2.6-0.6
	c1.3-0.1,2.7,0,4,0.5c0.8,0.2,1.5,0.6,2.2,1c0.7,0.5,1.4,1,2,1.6c1.1,1.2,2.2,2.5,3.1,3.8c0.7,1.1,1.6,2.2,2.4,3.2
	c0.6,0.7,1.2,1.3,1.9,1.8c0.3,0.2,0.5,0.3,0.6,0.4C116.9,57.4,116.9,57.4,117,57.5L117,57.5z"/>
<path class="st5" d="M117.1,63.8c0.2,0,0.4,0,0.5,0.1c0.2,0.1,0.3,0.3,0.3,0.4c0,0.2,0,0.4-0.1,0.5c-0.1,0.2-0.2,0.3-0.4,0.3
	c-0.2,0.1-0.4,0.1-0.5,0c-0.2-0.1-0.3-0.2-0.4-0.4c-0.1-0.2-0.1-0.4,0-0.5c0.1-0.2,0.2-0.3,0.4-0.4"/>
<path class="st2" d="M116.9,63.9c-0.2,0.1-0.3,0.3-0.3,0.5c0,0.1,0,0.2,0,0.3c0,0.1,0.1,0.2,0.1,0.3c0.1,0.1,0.2,0.2,0.3,0.2
	c0.1,0,0.3,0,0.4,0c0.1,0,0.2-0.1,0.3-0.2c0.1-0.1,0.1-0.2,0.1-0.3c0-0.1,0-0.2,0-0.3c0-0.1-0.1-0.2-0.2-0.2
	c-0.2-0.1-0.4-0.2-0.6-0.2c0,0,0.1,0,0.2,0c0.1,0,0.2,0,0.3,0.1c0.1,0,0.2,0.1,0.3,0.2c0.1,0.1,0.1,0.2,0.2,0.3c0,0.1,0,0.2,0,0.3
	c0,0.2-0.1,0.3-0.2,0.4c-0.1,0.1-0.2,0.2-0.4,0.3c-0.2,0-0.3,0-0.5,0c-0.2,0-0.3-0.1-0.4-0.3c-0.1-0.1-0.1-0.2-0.2-0.3
	c0-0.1,0-0.3,0-0.4c0-0.2,0.1-0.3,0.3-0.4C116.8,63.9,116.9,63.9,116.9,63.9z"/>
<path class="st2" d="M116.1,58.5c0.1,1,0.1,2.1-0.4,3c-0.5,0.9-1.6,1.5-2.5,1c-0.7-0.4-0.9-1.3-1.1-2.1c-0.3-2.4-0.5-4.7-0.9-7.1
	L116.1,58.5z"/>
<path class="st3" d="M97.3,46.2c0,0,0.3-0.1,0.9-0.1c0.8,0,1.7,0.1,2.4,0.4c0.5,0.2,1.1,0.5,1.5,0.8c0.6,0.4,1.1,0.8,1.6,1.2
	c1.2,1,2.2,2.1,3.1,3.3c0.5,0.7,0.9,1.3,1.3,2c0.4,0.6,0.9,1.2,1.5,1.7c1,0.8,2,1.5,3.1,2.1c0.9,0.5,1.7,0.9,2.3,1.1l0.6,0.3
	c0.1,0,0.1,0.1,0.2,0.1c-0.1,0-0.1-0.1-0.2-0.1l-0.6-0.3c-0.5-0.3-1.3-0.6-2.2-1.1c-1.1-0.6-2.1-1.3-3.1-2.1c-0.5-0.5-1-1-1.4-1.6
	c-0.4-0.6-0.9-1.3-1.3-2c-0.9-1.2-2-2.4-3.1-3.4c-0.5-0.4-1-0.8-1.6-1.2c-0.5-0.3-1-0.6-1.6-0.8c-0.8-0.3-1.6-0.4-2.5-0.4
	c-0.2,0-0.5,0-0.7,0.1C97.5,46.1,97.4,46.2,97.3,46.2L97.3,46.2z"/>
<path class="st3" d="M116.2,56.2c0.1,0.1,0.2,0.2,0.3,0.2l0.9,0.6l0.3,0.2c0.1,0.1,0.3,0.1,0.4,0.1c0.1,0,0.2,0,0.3-0.1
	c0,0,0.1-0.1,0.1-0.1c0,0,0-0.1,0-0.1c0-0.2-0.1-0.3-0.2-0.5c-0.3-0.5-0.7-1.1-1.1-1.7l-0.1,0.1c0.7,0.5,1.6,0.8,2.5,0.7
	c0.1,0,0.2,0,0.3-0.1c0.1,0,0.1,0,0.2-0.1c0,0,0.1-0.1,0.1-0.2c0-0.1,0-0.1,0-0.2c0-0.1,0-0.1-0.1-0.2c-0.1-0.1-0.1-0.2-0.2-0.2
	c-0.5-0.5-0.9-1-1.3-1.6c-0.3-0.5-0.6-1.1-0.8-1.7c0,0.2,0.1,0.3,0.1,0.5c0.1,0.4,0.3,0.9,0.6,1.3c0.3,0.6,0.8,1.2,1.3,1.7
	c0.1,0.1,0.3,0.3,0.2,0.4c-0.1,0.1-0.3,0.2-0.4,0.2c-0.9,0-1.7-0.2-2.4-0.7l-0.4-0.3l0.3,0.5l1.1,1.7c0.1,0.1,0.1,0.2,0.2,0.3
	c0,0,0,0,0,0.1c0,0,0,0,0,0.1c0,0,0,0-0.1,0c0,0,0,0-0.1,0c-0.2,0-0.5-0.1-0.7-0.3l-1-0.5C116.4,56.3,116.3,56.3,116.2,56.2z"/>
<path class="st10" d="M105.2,66.1c-0.1-0.3-0.2-0.5-0.5-0.7c-0.2-0.2-0.5-0.3-0.8-0.2c-0.2,0-0.4,0.1-0.6,0.2
	c-0.2,0.1-0.3,0.3-0.4,0.5c-0.1,0.2-0.1,0.4-0.2,0.6c0,0.2,0,0.4,0.1,0.6l0,0.1c0.2,0.2,0.5,0.4,0.7,0.4c0.3,0.1,0.6,0,0.8-0.1
	c0.3-0.1,0.5-0.3,0.6-0.6C105.2,66.7,105.3,66.4,105.2,66.1L105.2,66.1z"/>
<path class="st2" d="M102.2,67.2c0-0.1,1-0.1,1.7-0.9c0.7-0.8,0.7-1.8,0.8-1.8c0.1,0,0.2,0.2,0.2,0.7c0,0.6-0.2,1.1-0.6,1.5
	c-0.4,0.4-0.9,0.7-1.4,0.7C102.5,67.4,102.2,67.3,102.2,67.2z"/>
<path class="st3" d="M91.4,118.7l0.4,2.6l-0.4,1.4c0,0-4.3,5.5-5.7,9.6S84.2,147,84.2,147l49.3,0c0,0-1.7-15.9-7.9-20.9V125l1.5-2.3
	c0,0,0.5-1.8-1.7-1.5C124.6,121.3,91.4,118.7,91.4,118.7z"/>
<path class="st2" d="M125.9,124.6h-0.3l-1,0c-0.9,0-2.1,0-3.7,0c-1.6,0-3.4,0-5.5,0.1c-2.1,0-4.3,0.1-6.7,0c-2.2,0-4.5-0.2-6.7-0.4
	c-1.8-0.2-3.6-0.5-5.4-1c-1.2-0.3-2.4-0.7-3.5-1.1c-0.4-0.1-0.7-0.3-0.9-0.4l-0.2-0.1c-0.1,0-0.1,0-0.1,0l0.1,0l0.2,0.1
	c0.2,0.1,0.5,0.2,0.9,0.3c1.2,0.4,2.3,0.7,3.5,1c1.8,0.4,3.6,0.7,5.4,0.9c2,0.2,4.3,0.4,6.7,0.4c2.4,0,4.6,0,6.7,0
	c2.1,0,3.9-0.1,5.5,0c1.6,0,2.8,0,3.7,0.1c0.4,0,0.8,0,1,0.1L125.9,124.6C125.9,124.6,125.9,124.6,125.9,124.6z"/>
<path class="st2" d="M125.9,126.9C125.9,126.9,125.9,126.9,125.9,126.9h-0.3l-1,0c-0.9,0-2.1,0-3.7,0s-3.4,0-5.5,0.1
	c-2.1,0-4.3,0.1-6.7,0c-2.4,0-4.6-0.2-6.7-0.4c-1.8-0.2-3.6-0.5-5.4-1c-1.2-0.3-2.4-0.7-3.5-1.1c-0.4-0.1-0.7-0.3-0.9-0.4l-0.2-0.1
	c-0.1,0-0.1,0-0.1,0l0.1,0l0.2,0.1c0.2,0.1,0.5,0.2,0.9,0.3c1.2,0.4,2.3,0.8,3.5,1c1.8,0.4,3.6,0.7,5.4,0.9c2,0.2,4.3,0.4,6.7,0.4
	c2.4,0,4.6,0,6.7,0c2.1,0,3.9-0.1,5.5,0c1.6,0,2.8,0,3.7,0.1c0.4,0,0.8,0,1,0.1L125.9,126.9C125.9,126.9,125.9,126.9,125.9,126.9z"
	/>
<path class="st2" d="M93.5,129.5c0-0.2,0.1-0.5,0.2-0.7c0.2-0.6,0.5-1.1,0.8-1.6c0.3-0.5,0.7-1,1.1-1.4c0.2-0.2,0.3-0.4,0.5-0.5
	c0,0-0.8,0.8-1.5,2C93.9,128.5,93.6,129.5,93.5,129.5z"/>
<path class="st2" d="M95.3,132.7c0-0.1,0-0.2,0-0.3c0-0.3,0-0.5,0.1-0.8c0.1-0.9,0.3-1.7,0.6-2.5c0.3-0.8,0.6-1.6,1-2.4
	c0.1-0.3,0.3-0.6,0.5-0.9c-0.1,0.3-0.3,0.7-0.4,1c-0.3,0.8-0.7,1.6-0.9,2.4c-0.3,0.8-0.5,1.7-0.6,2.5
	C95.3,132.3,95.3,132.7,95.3,132.7z"/>
<path class="st2" d="M96.5,120.2c0.1,0.2,0.1,0.3,0.1,0.5c0.1,0.4,0.2,0.8,0.3,1.1c0.3,0.9,0.7,1.5,0.7,1.5
	c-0.4-0.4-0.7-0.9-0.8-1.5c-0.1-0.4-0.2-0.8-0.3-1.2C96.4,120.6,96.4,120.4,96.5,120.2L96.5,120.2z"/>
<path class="st2" d="M97.9,121.3c0.2,0.4,0.3,0.7,0.4,1.1c0.1,0.4,0.2,0.8,0.2,1.2C98.2,122.9,98,122.1,97.9,121.3z"/>
<path class="st2" d="M106.7,120.9c0.1,1.2,0.1,2.3,0,3.5C106.6,123.3,106.6,122.1,106.7,120.9L106.7,120.9z"/>
<path class="st2" d="M107.8,121.8c0.3,0.9,0.2,1.8-0.1,2.7c-0.1,0,0-0.6,0.1-1.3C107.8,122.4,107.8,121.8,107.8,121.8z"/>
<path class="st2" d="M110.8,130c-0.1-0.5-0.2-1-0.3-1.5c-0.1-0.5-0.2-1-0.3-1.5c0.2,0.5,0.4,1,0.5,1.5
	C110.8,128.9,110.9,129.4,110.8,130L110.8,130z"/>
<path class="st6" d="M81.3,95.6c-0.1-0.3,3.5-10.7,5.7-12.3c2.1-1.6,11.9-3.8,11.9-3.8s4.1,4,9.6,3.2c5.5-0.8,9.7-4.7,9.7-4.7
	s10.4,1.4,12.1,2.6c1.8,1.3,6.5,12.6,6.5,12.6l-8.4,7l-0.7,6.4c0,0,0.4,13.3-0.5,14.6c-0.9,1.4-35.4-2.1-35.4-2.1s-1.8-0.3-0.4-3.4
	c1.4-3.1,2.3-5.2,2.3-5.2s-2.4-2.7-2.8-7.5c-0.4-4.8-1.4-5.3-1.4-5.3L81.3,95.6z"/>
<path class="st2" d="M127.5,106.4c-0.1,0,0.5-4.3,1.2-9.6s1.3-9.6,1.3-9.6c0,0-0.5,4.3-1.2,9.7S127.5,106.4,127.5,106.4z"/>
<path class="st2" d="M90.5,99.4c0,0-0.7-1.5-1.4-3.5c-0.8-1.9-1.3-3.5-1.3-3.5c0,0,0.7,1.5,1.4,3.5C90,97.8,90.5,99.4,90.5,99.4z"/>
<g class="st7">
	<path class="st8" d="M101.4,105c-0.2-0.9-0.5-1.7-1.1-2.5c-0.8-0.9-2.1-1.3-3.3-1.3c-1.2,0.1-2.4,0.3-3.6,0.7l-2.2,3.4
		c0.1,0.2,0.2,0.4,0.3,0.6c0.2,0.2,0.3,0.3,0.6,0.3c0.4,0.1,0.8,0.2,1.3,0.2c2.3,0.2,4.6,0.3,6.8,0.3c0.3,0,0.6,0,0.9-0.2
		C101.6,106.3,101.5,105.6,101.4,105z"/>
</g>
<path class="st2" d="M86.4,89.2c0.1,0.1,0.1,0.2,0.2,0.4c0.1,0.2,0.3,0.6,0.4,1c0.3,0.9,0.8,2.1,1.3,3.4c0.5,1.3,0.9,2.6,1.1,3.4
	c0.1,0.4,0.2,0.8,0.3,1.1c0,0.1,0.1,0.3,0.1,0.4c-0.1-0.1-0.1-0.2-0.1-0.4l-0.3-1c-0.3-0.9-0.7-2.1-1.2-3.4
	c-0.5-1.3-0.9-2.5-1.2-3.4c-0.1-0.4-0.3-0.8-0.4-1C86.4,89.4,86.4,89.3,86.4,89.2z"/>
<path class="st2" d="M86.4,90.3l3.9,14.1c0.1,0.2,0.2,0.4,0.4,0.6c0.2,0.1,0.4,0.2,0.7,0.2h8.4c0.2,0,0.3,0,0.5-0.1
	c0.1-0.1,0.3-0.2,0.4-0.3c0.1-0.1,0.2-0.3,0.2-0.4c0-0.2,0-0.3,0-0.5l-3.4-14.1c-0.1-0.2-0.2-0.4-0.4-0.6C96.8,89,96.5,89,96.3,89
	h-8.9c-0.2,0-0.3,0-0.5,0.1c-0.1,0.1-0.3,0.2-0.4,0.3c-0.1,0.1-0.2,0.3-0.2,0.4C86.3,89.9,86.3,90.1,86.4,90.3z"/>
<path class="st9" d="M89.3,92.9c0,0-1-0.5-1.8,0c-0.8,0.5-2.1,2.6-2.1,2.6l-0.8,3.3l0.5,4.5l0.2,2.1l5.1,0.6v-1.7l5.8-4.4
	c0,0,2-0.6,1.9-1.2c-0.2-0.6-0.4-1-1-0.9s-6.8,1.7-6.8,1.7s-1,0.2-0.9-0.1s2.9-1.6,3.4-1.9c0.5-0.3,2.7-0.8,2.4-1.8
	c0-0.2-0.1-0.4-0.2-0.5c-0.1-0.1-0.2-0.3-0.4-0.4c-0.2-0.1-0.3-0.1-0.5-0.1c-0.2,0-0.4,0-0.5,0.1l-5.1,1.8l-0.8,0.2l0.1-1.3l0.9-1.2
	c0.1,0,0.2,0,0.2,0s0.2,0,0.2-0.1c0.1,0,0.1-0.1,0.2-0.2c0.1-0.1,0.1-0.1,0.1-0.2c0.1-0.2,0.1-0.4,0.1-0.6
	C89.5,93.2,89.4,93,89.3,92.9L89.3,92.9z"/>
<path class="st10" d="M88.6,96.7c-0.4,0.2-0.8,0.4-1.2,0.5c-0.4,0.2-0.8,0.3-1.3,0.3c0.4-0.2,0.8-0.4,1.2-0.5
	C87.7,96.9,88.1,96.8,88.6,96.7z"/>
<path class="st10" d="M89.7,99.7c-0.4,0.2-0.8,0.3-1.2,0.4c-0.4,0.1-0.8,0.2-1.2,0.3C88.1,100.1,88.9,99.9,89.7,99.7L89.7,99.7z"/>
<path class="st10" d="M96,100c-0.1,0.1-0.2,0.1-0.3,0.2c-0.2,0.1-0.5,0.2-0.8,0.4c-0.9,0.4-1.9,0.8-2.9,1.1c-1,0.3-2,0.6-3,0.8
	c-0.4,0.1-0.7,0.1-0.9,0.2c-0.1,0-0.2,0-0.3,0c0.4-0.1,0.8-0.3,1.2-0.3c0.8-0.2,1.8-0.5,2.9-0.9c1.1-0.4,2.1-0.8,2.9-1.1
	C95.2,100.3,95.6,100.2,96,100L96,100z"/>
<path class="st10" d="M86.7,102.5c0,0-0.3-0.1-0.4-0.5c-0.1-0.4,0.1-0.7,0.1-0.7c0,0,0,0.3,0.1,0.6
	C86.6,102.3,86.8,102.5,86.7,102.5z"/>
<path class="st10" d="M85.7,99.9c0,0-0.1,0-0.2-0.1c-0.1-0.1-0.3-0.2-0.3-0.4c-0.1-0.2-0.1-0.4,0-0.5c0-0.1,0.1-0.2,0.1-0.2
	c0,0-0.1,0.3,0,0.6C85.5,99.7,85.7,99.8,85.7,99.9z"/>
<path class="st10" d="M85.2,96.6c0,0.1,0,0.1,0,0.2c0,0.1-0.1,0.3-0.1,0.5c-0.1,0.4-0.2,1-0.3,1.7v0c0.2,1.6,0.5,3.9,0.9,6.5v0v0
	c-0.1,0.2-0.1,0.4-0.2,0.6c-0.8,2.1-1.1,4.4-1,6.6c0,0.7,0.1,1.4,0.2,2c0,0.2,0.1,0.4,0.1,0.6c0,0.1,0,0.1,0,0.2
	c0-0.1,0-0.1-0.1-0.2c0-0.1-0.1-0.3-0.1-0.5c-0.1-0.7-0.2-1.4-0.2-2c-0.1-2.3,0.2-4.5,1-6.7c0.1-0.2,0.1-0.4,0.2-0.6v0
	c-0.3-2.6-0.6-4.9-0.8-6.5l0.4-1.7c0-0.2,0.1-0.3,0.1-0.5C85.1,96.7,85.1,96.7,85.2,96.6z"/>
<path class="st10" d="M91.3,103.9c-0.3,0.3-0.7,0.6-1.2,0.8c-0.4,0.2-0.9,0.4-1.3,0.4c0,0,0.6-0.2,1.3-0.6
	C90.7,104.2,91.3,103.8,91.3,103.9z"/>
<path class="st2" d="M123.6,111c0,0,1.3,0.3,1.5,1.2c0.1,0.9-0.9,15.8-0.9,15.8h1.3c0,0,0.5-14.8,0.5-15.9c0-1.1-0.5-1.1-0.7-1.2
	C124.7,110.8,124.1,110.8,123.6,111z"/>
<path class="st9" d="M123,111l6.1,0.2l-1.2-7.4l0.4-3.6l8.1-6.8c0,0,2.8,16.4,3.1,18.3c0.3,2.3-0.1,5.3-1.2,6.4
	c-0.9,0.9-7.7,0-10.3,0c-1.4,0-4.9,0-4.9,0l-1.2-5.7L123,111z"/>
<path class="st10" d="M138.2,111.3c0,0-0.4-0.3-1.2-0.7c-1-0.5-2.2-0.7-3.3-0.6c-0.6,0-1.2,0.2-1.8,0.4c-0.5,0.2-1,0.4-1.4,0.6
	c-0.3,0.1-0.7,0.2-1,0.3c-0.1,0-0.3,0-0.4,0c0.5-0.1,0.9-0.2,1.3-0.4c0.4-0.2,0.9-0.4,1.4-0.6c0.6-0.2,1.2-0.4,1.9-0.4
	c1.2-0.1,2.3,0.1,3.4,0.7c0.3,0.2,0.6,0.3,0.9,0.5C138,111.1,138.1,111.2,138.2,111.3L138.2,111.3z"/>
<path class="st6" d="M116.7,124.6c-0.2,0.3-2.8,22.5-2.8,22.5l26.8-0.1l-4.2-22.3L116.7,124.6z"/>
<path class="st2" d="M121.1,147c0,0-0.3-5-0.6-11.1s-0.5-11.1-0.4-11.1c0.1,0,0.3,5,0.6,11.1C121,142,121.2,147,121.1,147z"/>
<path class="st9" d="M110.2,111.4c0.7-0.1,1.5-0.3,2.2-0.5c0.3-0.2,0.7-0.4,1-0.6l3.4-0.3l6.1,0.9c0,0,1,0.7,0.9,3
	c-0.1,1.5-0.5,3-1,4.5c0,0-2.8,2.2-3.5,2.4c-0.7,0.1-4.9-0.1-5.4-0.4c-0.2-0.2-0.5-0.4-0.6-0.7c-0.2-0.1-0.4-0.3-0.5-0.5
	c-0.1-0.2-0.1-0.5-0.1-0.7c0,0-1.4-1.9-1.6-2.7c-0.2-0.8,0-1,0-1s-0.4-1.1-0.1-1.4c0.1-0.1,0.2-0.2,0.3-0.2c0.1-0.1,0.2-0.1,0.4-0.1
	c0.1,0,0.2,0,0.4,0.1c0.1,0,0.2,0.1,0.3,0.2c0.3,0.4,2.4,0.1,2.4,0.1l1.8-1.2c-0.9,0.2-1.9,0.4-2.8,0.5
	C112.8,112.8,109.9,113.5,110.2,111.4z"/>
<path class="st10" d="M117.3,115.8c0,0-0.4,0.1-1,0.3c-0.3,0.1-0.6,0.2-1,0.3c-0.4,0.1-0.9,0.2-1.3,0.2c-0.5,0-0.9-0.1-1.3-0.3
	c-0.3-0.2-0.6-0.5-0.8-0.7c-0.2-0.2-0.3-0.4-0.4-0.6c-0.1-0.1-0.1-0.2-0.1-0.2c0,0,0.2,0.3,0.7,0.8c0.2,0.3,0.5,0.5,0.8,0.7
	c0.4,0.2,0.8,0.3,1.2,0.3c0.9,0,1.7-0.4,2.3-0.5C116.6,115.8,117,115.8,117.3,115.8L117.3,115.8z"/>
<path class="st10" d="M118.6,114.1c0,0,0.1,0,0.1,0.2c0.1,0.2,0.1,0.3,0,0.5c-0.1,0.2-0.2,0.3-0.3,0.4c-0.1,0.1-0.2,0.1-0.2,0
	c0,0,0.3-0.2,0.4-0.5C118.6,114.4,118.5,114.1,118.6,114.1z"/>
<path class="st10" d="M118.4,118.2c-0.3,0.1-0.6,0.1-0.9,0.2c-0.5,0.1-1.3,0.2-2.1,0.3c-0.4,0.1-0.8,0.1-1.2,0.1c-0.3,0-0.7,0-1-0.2
	c-0.3-0.1-0.5-0.3-0.7-0.5c0.2,0.2,0.5,0.3,0.8,0.4c0.3,0.1,0.6,0.1,0.9,0.1c0.3,0,0.7-0.1,1.2-0.1c0.8-0.1,1.6-0.2,2.1-0.2
	C117.9,118.2,118.1,118.2,118.4,118.2z"/>
<path class="st10" d="M120,116.7c0,0,0.1,0.1,0.1,0.2c0.1,0.2,0.1,0.4,0,0.6c-0.1,0.2-0.2,0.4-0.3,0.5c-0.1,0.1-0.2,0.1-0.2,0.1
	c0,0,0.3-0.3,0.4-0.7C120,117.3,120,117,120,116.7z"/>
<path class="st10" d="M119,120.1c-0.3,0.1-0.5,0.1-0.8,0.1c-1.3,0.1-2.7,0-4-0.2c-0.3,0-0.5-0.1-0.8-0.2c0.3,0,0.6,0,0.8,0.1
	c0.5,0.1,1.2,0.2,2,0.2c0.8,0,1.5,0,2,0C118.5,120.1,118.8,120.1,119,120.1L119,120.1z"/>
<path class="st2" d="M124.9,110.9c0,0,1.2,0.9,1.4,1.5c0.2,0.5,2.6,12.2,2.6,12.2h1c0,0-2.5-12.7-3.1-13.1c-0.2-0.2-0.4-0.3-0.7-0.5
	c-0.2-0.1-0.4-0.2-0.7-0.2C125.3,110.8,125.1,110.8,124.9,110.9L124.9,110.9z"/>
<path class="st2" d="M101.3,113.2c-0.3,0-0.7,0-1,0c-1.6-0.2-3.2-0.7-4.6-1.6c-0.3-0.2-0.6-0.4-0.8-0.6c0,0,0.3,0.2,0.9,0.5
	c0.7,0.4,1.4,0.7,2.2,1c0.8,0.3,1.6,0.4,2.4,0.6C101,113.1,101.3,113.2,101.3,113.2z"/>
<g class="st7">
	<path class="st8" d="M107.4,113c-0.6-0.1-1.3,0-1.9,0.1c-3.2,0.3-6.5,0.3-9.5-1.3c0.4,0.9,1.1,1.6,2,2c1,0.3,2.1,0.5,3.2,0.5
		c2.6,0.1,5.2,0,7.8-0.3c-0.2-0.3-0.4-0.5-0.7-0.6C108,113.1,107.7,113,107.4,113L107.4,113z"/>
</g>
<path class="st5" d="M97.5,79.9c0-1.2-0.5-2.4-1.4-3.3c-0.9-0.9-2-1.4-3.3-1.4H64.9c-1.2,0-2.3,0.5-3.2,1.4c-0.8,0.9-1.3,2-1.3,3.2
	c0,1.2,0.5,2.4,1.3,3.2c0.8,0.9,2,1.4,3.2,1.4h16.8c1.6,1.5,4.3,3.6,4.3,3.6v-3.7l7.4,0.1C95.8,84.4,97.5,82.3,97.5,79.9z"/>
<path class="st2" d="M97.5,79.9c0,0,0,0.1,0,0.3c0,0.2,0,0.5-0.1,0.7c-0.1,0.4-0.2,0.8-0.4,1.1c-0.2,0.5-0.6,1-1,1.3
	c-0.5,0.5-1.1,0.8-1.8,1c-0.2,0-0.4,0.1-0.6,0.1c-0.2,0-0.4,0-0.6,0l-1.3,0l-6-0.1l0.1-0.1c0,1.2,0,2.4,0,3.7v0.1l-0.1-0.1
	c-1.4-1.1-2.8-2.2-4.3-3.6l0.1,0H71.5H66c-0.5,0-0.9,0-1.4,0c-0.9-0.1-1.8-0.4-2.6-1c-0.7-0.6-1.3-1.4-1.6-2.3
	c-0.1-0.4-0.2-0.8-0.2-1.2c0-0.4,0-0.8,0.1-1.2c0.1-0.4,0.2-0.7,0.4-1.1c0.3-0.7,0.8-1.3,1.4-1.7c0.6-0.5,1.3-0.7,2.1-0.9
	c0.4-0.1,0.7-0.1,1.1-0.1h7.4l14.3,0h5.5c0.4,0,0.8,0,1.2,0.1c0.4,0.1,0.7,0.2,1.1,0.3c0.6,0.2,1.1,0.6,1.6,1.1
	c0.4,0.4,0.6,0.8,0.9,1.3c0.1,0.2,0.2,0.4,0.2,0.6c0,0.2,0.1,0.3,0.1,0.5c0,0.2,0.1,0.5,0.1,0.7C97.6,79.8,97.6,79.9,97.5,79.9
	c0,0,0-0.1,0-0.3c0-0.2,0-0.5-0.1-0.7c0-0.1-0.1-0.3-0.1-0.5c-0.1-0.2-0.1-0.4-0.2-0.6c-0.2-0.5-0.5-0.9-0.9-1.2
	c-0.4-0.4-1-0.8-1.5-1c-0.3-0.1-0.7-0.2-1-0.3c-0.4-0.1-0.8-0.1-1.2-0.1H87H72.6h-7.4c-0.4,0-0.7,0-1.1,0.1
	c-0.9,0.1-1.8,0.6-2.4,1.2c-0.7,0.6-1.1,1.5-1.3,2.4c-0.1,0.7-0.1,1.5,0.1,2.2c0.1,0.4,0.3,0.7,0.5,1c0.4,0.6,0.9,1.1,1.5,1.5
	c0.6,0.4,1.3,0.6,2,0.6c0.5,0,0.9,0,1.4,0h5.5h10.2h0l0,0c1.4,1.3,2.9,2.5,4.3,3.6L85.8,88c0-1.3,0-2.6,0-3.7v-0.1h0.1l6,0.1
	c0.9,0,1.7,0.1,2.4-0.1c0.7-0.2,1.3-0.5,1.8-0.9c0.4-0.4,0.7-0.8,1-1.3c0.3-0.6,0.4-1.2,0.5-1.9C97.5,80,97.5,79.9,97.5,79.9z"/>
<path class="st2" d="M91.5,81.4c-0.1,0-0.1,0-0.2,0c-0.3,0-0.6-0.2-0.9-0.4c-0.3-0.2-0.4-0.5-0.5-0.8c-0.1-0.3-0.1-0.7,0-1
	c0.1-0.3,0.3-0.6,0.6-0.8c0.3-0.2,0.6-0.3,0.9-0.3c0.3,0,0.7,0.1,1,0.2c0.3,0.2,0.5,0.4,0.7,0.7c0.1,0.3,0.2,0.6,0.2,1
	c-0.1,0.4-0.3,0.8-0.6,1C92.3,81.2,91.9,81.4,91.5,81.4L91.5,81.4z M91.5,78.3c-0.3,0-0.6,0.1-0.9,0.3c-0.2,0.2-0.4,0.5-0.4,0.8
	c0,0.4,0.1,0.7,0.3,1c0.2,0.3,0.5,0.5,0.9,0.5c0.4,0,0.7-0.1,1-0.3c0.3-0.2,0.5-0.5,0.5-0.9c0-0.2,0-0.4,0-0.5
	c0-0.2-0.1-0.3-0.2-0.5c-0.1-0.1-0.2-0.3-0.4-0.3c-0.2-0.1-0.3-0.1-0.5-0.2C91.6,78.3,91.5,78.3,91.5,78.3L91.5,78.3z"/>
<path class="st2" d="M93.8,81.8c0,0-0.1,0-0.1,0l-1.1-0.9c0,0,0,0,0-0.1c0,0,0,0,0-0.1c0,0,0,0,0-0.1c0,0,0,0,0-0.1s0,0,0.1,0
	c0,0,0,0,0.1,0c0,0,0,0,0.1,0c0,0,0,0,0.1,0l1.1,0.9c0,0,0.1,0.1,0.1,0.1c0,0,0,0.1,0,0.1C93.9,81.7,93.9,81.7,93.8,81.8
	C93.8,81.8,93.8,81.8,93.8,81.8z"/>
</svg>
