<?xml version="1.0" encoding="utf-8"?>
<!-- Generator: Adobe Illustrator 23.0.3, SVG Export Plug-In . SVG Version: 6.00 Build 0)  -->
<svg version="1.1" id="Layer_1" xmlns="http://www.w3.org/2000/svg" xmlns:xlink="http://www.w3.org/1999/xlink" x="0px" y="0px"
	 viewBox="0 0 160 150" style="enable-background:new 0 0 160 150;" xml:space="preserve">
<style type="text/css">
	.st0{fill:#E0E0E0;}
	.st1{fill:#EBEBEB;}
	.st2{fill:#F5F5F5;}
	.st3{fill:#FAFAFA;}
	.st4{fill:#263238;}
	.st5{fill:#4F97B3;}
	.st6{opacity:0.6;}
	.st7{fill:#FFFFFF;}
	.st8{fill:#455A64;}
	.st9{opacity:0.4;}
	.st10{fill:#FFBE9D;}
	.st11{fill:#EB996E;}
	.st12{opacity:0.7;}
	.st13{opacity:0.3;}
	.st14{fill:#AA6550;}
	.st15{fill:#773F32;}
	.st16{fill:#F8AD91;}
	.st17{fill:#CE8679;}
	.st18{opacity:0.2;}
	.st19{clip-path:url(#SVGID_2_);}
</style>
<g>
	<g id="freepik--background-complete--inject-15">
		<rect x="52.2" y="56.3" class="st0" width="0.3" height="17.1"/>
		<rect x="46.7" y="56.6" class="st0" width="0.3" height="17.1"/>
		<rect x="41.3" y="56.3" class="st0" width="0.3" height="17.1"/>
		<rect x="35.9" y="56.6" class="st0" width="0.3" height="17.1"/>
		<rect x="35.7" y="69.8" class="st1" width="39" height="51.4"/>
		<rect x="56.4" y="69.8" class="st0" width="18.3" height="51.4"/>
		<rect x="43.8" y="76.8" class="st2" width="3.5" height="8.5"/>
		<rect x="43.8" y="110.1" class="st2" width="3.5" height="8.5"/>
		<path class="st2" d="M56.4,88.7c0,0.1-4.6,0.2-10.4,0.2s-10.4-0.1-10.4-0.2c0-0.1,4.6-0.2,10.4-0.2S56.4,88.6,56.4,88.7z"/>
		<rect x="43.8" y="93.6" class="st2" width="3.5" height="8.5"/>
		<path class="st2" d="M56.4,105.5c0,0.1-4.6,0.2-10.4,0.2s-10.4-0.1-10.4-0.2c0-0.1,4.6-0.2,10.4-0.2S56.4,105.4,56.4,105.5z"/>
		<rect x="60.3" y="76.8" class="st2" width="3.5" height="8.5"/>
		<rect x="67.9" y="76.8" class="st2" width="3.5" height="8.5"/>
		<rect x="60.3" y="93" class="st2" width="3.5" height="8.5"/>
		<rect x="67.9" y="93" class="st2" width="3.5" height="8.5"/>
		<rect x="60.3" y="109.1" class="st2" width="3.5" height="8.5"/>
		<rect x="67.9" y="109.1" class="st2" width="3.5" height="8.5"/>
		<polygon class="st0" points="56.4,70.7 56.4,66.1 60.3,66.1 60.3,63.5 65.5,63.5 65.5,61.3 74.6,61.3 74.6,70.4 		"/>
		<rect x="56.2" y="53.7" class="st0" width="0.3" height="17.1"/>
		<rect x="60.1" y="53.7" class="st0" width="0.3" height="17.1"/>
		<rect x="65.3" y="51.3" class="st0" width="0.3" height="17.1"/>
		<rect x="74.2" y="51.3" class="st0" width="0.3" height="17.1"/>
		<rect x="69.8" y="51.3" class="st0" width="0.3" height="17.1"/>
		<rect x="36.2" y="65.3" class="st0" width="20.2" height="0.3"/>
		<rect x="36.2" y="61.1" class="st0" width="29.3" height="0.3"/>
		<path class="st0" d="M60.9,6.6L60.9,6.6C61,6.6,61,6.6,61,6.5V6.4l0,0v-3c0-1-0.8-1.7-1.7-1.7c-0.3,0-0.7,0.1-1,0.3L57,1.7
			c-0.2-0.5-0.7-0.8-1.2-0.6c-0.5,0.2-0.8,0.7-0.6,1.2c0.1,0.2,0.2,0.4,0.4,0.5c0.2,0.1,0.4,0.2,0.6,0.1l1.4,1.7v1.9l0,0v0.1
			c0,0,0,0.1,0.1,0.1c0,0,0,0,0,0h0l-0.7,11.5h0.4l0.2-2.5l1.6,2.1l-0.3,0.4h0.3l0.2-0.2l0.2,0.2h0.3l-0.3-0.4l1.6-2.1l0.2,2.5h0.4
			L60.9,6.6z M59.4,6.6l1.1,2.2h-2.4l1.1-2.3L59.4,6.6z M59.6,6.6h0.8l0.1,2.1L59.6,6.6z M58.5,6.6h0.4L58,8.5l0.1-1.9H58.5z
			 M57.9,9.8l1.3,2l-1.5,2.4L57.9,9.8z M58,9.6h2.5l-1.3,2L58,9.6z M60.7,9.9l0.3,4.5l-1.5-2.5L60.7,9.9z M59.3,12.1l1.5,2.5h-3.1
			L59.3,12.1z M57.6,15.3H61l-1.7,2.2L57.6,15.3z"/>
		<path class="st0" d="M62.5,25.6h-0.4V28L60.4,26l1.8-1.9h0.2v-0.6H58v0.6h0.3l1.8,1.9l-1.9,2v-2.5h-0.8v59.6h0.8v-0.5h3.9v0.5h0.8
			V25.6H62.5z M58.3,75.3l1.8,1.9l-1.9,2v-3.9L58.3,75.3z M58.6,75.3h3.3l-1.7,1.8L58.6,75.3z M58.4,74.7l1.8-2l1.8,2H58.4z
			 M58.2,74.6v-4h0.1l1.8,1.9L58.2,74.6z M58.6,70.7h3.3l-1.7,1.8L58.6,70.7z M58.4,70.1l1.8-2l1.8,2H58.4z M58.2,70v-4h0.1l1.8,1.9
			L58.2,70z M58.6,66h3.3l-1.7,1.8L58.6,66z M58.4,65.5l1.8-2l1.8,2H58.4z M58.2,65.4v-4h0.1l1.8,1.9L58.2,65.4z M58.6,61.4h3.3
			l-1.7,1.8L58.6,61.4z M58.4,60.8l1.8-2l1.8,2L58.4,60.8z M58.2,60.7v-4h0.1l1.8,1.9L58.2,60.7z M58.6,56.7h3.3l-1.7,1.8L58.6,56.7
			z M58.4,56.2l1.8-2l1.8,2L58.4,56.2z M58.2,56.1v-4h0.1l1.8,1.9L58.2,56.1z M58.6,52.1h3.3l-1.7,1.8L58.6,52.1z M58.4,51.5l1.8-2
			l1.8,2L58.4,51.5z M58.2,51.4v-4h0.1l1.8,1.9L58.2,51.4z M58.6,47.5h3.3l-1.7,1.8L58.6,47.5z M58.4,46.9l1.8-2l1.8,2L58.4,46.9z
			 M58.2,46.8v-4h0.1l1.8,1.9L58.2,46.8z M58.6,42.8h3.3l-1.7,1.8L58.6,42.8z M58.4,42.2l1.8-2l1.8,2H58.4z M58.2,42.1v-4h0.1
			l1.8,1.9L58.2,42.1z M58.6,38.2h3.3L60.2,40L58.6,38.2z M58.4,37.6l1.8-2l1.8,2H58.4z M58.2,37.5v-4h0.1l1.8,1.9L58.2,37.5z
			 M58.6,33.5h3.3l-1.7,1.8L58.6,33.5z M58.4,79.4l1.8-2l1.8,2L58.4,79.4z M60.4,77.3l1.8-1.9v3.8L60.4,77.3z M60.4,72.6l1.8-1.9
			v3.9L60.4,72.6z M60.4,68l1.8-1.9v3.9L60.4,68z M60.4,63.3l1.8-1.9v3.9L60.4,63.3z M60.4,58.7l1.8-1.9v3.9L60.4,58.7z M60.4,54
			l1.8-1.9V56L60.4,54z M60.4,49.4l1.8-1.9v3.9L60.4,49.4z M60.4,44.8l1.8-1.9v3.9L60.4,44.8z M60.4,40.1l1.8-1.9v3.9L60.4,40.1z
			 M60.4,35.5l1.8-1.9v3.9L60.4,35.5z M62.1,32.9h-3.8l1.9-2L62.1,32.9z M60.4,30.7l1.8-1.9v3.9L60.4,30.7z M58.2,32.8v-4h0.1
			l1.8,1.9L58.2,32.8z M58.2,80h0.1l1.8,1.9l-1.9,2L58.2,80z M58.6,80h3.3l-1.7,1.8L58.6,80z M62.1,80v3.9l-1.8-2L62.1,80z
			 M60.2,30.6l-1.6-1.8h3.3L60.2,30.6z M60.2,82.1l1.8,2h-3.6L60.2,82.1z M58.6,24.1h3.3l-1.7,1.8L58.6,24.1z M62.1,28.2h-3.8l1.9-2
			L62.1,28.2z"/>
		<path class="st0" d="M120.3,22.8l-5.7-4.3c-0.3-0.2-0.6-0.3-1-0.3H38.5V19h0.3V23h-0.3v0.8H120c0.3,0,0.5-0.2,0.5-0.5v-0.1
			C120.5,23.1,120.4,22.9,120.3,22.8z M111,20.8l-1.9-1.8h3.9L111,20.8z M113.1,19.2v3.6l-2-1.8L113.1,19.2z M109,19.3l1.8,1.7
			l-1.8,1.6V19.3z M106.3,20.8l-1.9-1.8h3.9L106.3,20.8z M108.5,19.2v3.6l-2-1.8L108.5,19.2z M104.4,19.3l1.8,1.7l-1.8,1.6
			L104.4,19.3z M101.7,20.8L99.8,19h3.9L101.7,20.8z M103.8,19.2v3.6l-2-1.8L103.8,19.2z M99.7,19.3l1.8,1.7l-1.8,1.6L99.7,19.3z
			 M97,20.8L95.2,19H99L97,20.8z M99.2,19.2v3.6l-2-1.8L99.2,19.2z M95.1,19.3l1.8,1.7l-1.8,1.6L95.1,19.3z M92.4,20.8L90.5,19h3.9
			L92.4,20.8z M94.5,19.2v3.6l-2-1.8L94.5,19.2z M90.5,19.3l1.8,1.7l-1.8,1.6L90.5,19.3z M87.8,20.8L85.9,19h3.9L87.8,20.8z
			 M89.9,19.2v3.6l-2-1.8L89.9,19.2z M85.8,19.3l1.8,1.7l-1.8,1.6V19.3z M83.1,20.8L81.2,19h3.9L83.1,20.8z M85.2,19.2v3.6l-2-1.8
			L85.2,19.2z M81.2,19.3l1.8,1.7l-1.8,1.6V19.3z M78.5,20.8L76.6,19h3.9L78.5,20.8z M80.6,19.2v3.6l-2-1.8L80.6,19.2z M76.5,19.3
			l1.8,1.7l-1.8,1.6L76.5,19.3z M75.9,22.8l-2-1.8l2-1.8L75.9,22.8z M76.5,22.8l1.9-1.8l2,1.9h-3.9L76.5,22.8z M81.2,22.8l1.9-1.8
			l2,1.9h-4L81.2,22.8z M85.8,22.8l1.9-1.8l2,1.9h-4L85.8,22.8z M90.5,22.8l1.9-1.8l2.1,1.9h-4L90.5,22.8z M95.1,22.8l1.9-1.8l2,1.9
			h-3.9L95.1,22.8z M99.7,22.8l1.9-1.8l2,1.9h-3.9L99.7,22.8z M104.4,22.8l1.9-1.8l2,1.9h-3.9V22.8z M109,22.8l1.9-1.8l2,1.9H109
			L109,22.8z M75.8,19l-1.9,1.8L71.9,19H75.8L75.8,19z M39.4,19.3l1.8,1.7l-1.8,1.6L39.4,19.3z M39.4,19h3.9l-1.9,1.8L39.4,19z
			 M69.2,20.8L67.3,19h3.9L69.2,20.8z M71.3,19.2v3.6l-2-1.8L71.3,19.2z M67.2,19.3l1.8,1.7l-1.8,1.6L67.2,19.3z M64.5,20.8L62.7,19
			h3.9L64.5,20.8z M66.7,19.2v3.6l-2-1.8L66.7,19.2z M62.6,19.3l1.8,1.7l-1.8,1.6L62.6,19.3z M59.9,20.8L58,19h3.8L59.9,20.8z
			 M62,19.2v3.6l-2-1.8L62,19.2z M58,19.3l1.8,1.7L58,22.5V19.3z M55.3,20.8L53.4,19h3.9L55.3,20.8z M57.4,19.2v3.6l-2-1.8
			L57.4,19.2z M53.3,19.3l1.8,1.7l-1.8,1.6V19.3z M50.6,20.8L48.7,19h3.9L50.6,20.8z M52.7,19.2v3.6l-2-1.8L52.7,19.2z M48.7,19.3
			l1.8,1.7l-1.8,1.6V19.3z M46,20.8L44.1,19h3.9L46,20.8z M48.1,19.2v3.6l-2-1.8L48.1,19.2z M44,19.3l1.8,1.7L44,22.5L44,19.3z
			 M43.4,19.2v3.6l-1.9-1.8L43.4,19.2z M44,22.8l1.9-1.8l2,1.9H44V22.8z M48.7,22.8l1.9-1.8l2,1.9h-4L48.7,22.8z M53.3,22.8l1.9-1.8
			l2,1.9h-4L53.3,22.8z M58,22.8l1.9-1.8l2,1.9H58L58,22.8z M62.6,22.8l1.9-1.8l2,1.9h-3.9L62.6,22.8z M67.2,22.8l1.9-1.8l2,1.9
			h-3.9L67.2,22.8z M71.9,19.3l1.8,1.7l-1.8,1.6L71.9,19.3z M39.4,22.8l1.9-1.8l2,1.9h-3.9V22.8z M71.9,23v-0.1l1.9-1.8l2,1.9H71.9z
			 M113.7,23V19c0.3,0,0.6,0.1,0.9,0.3l5.2,3.6H113.7z"/>
		<path class="st1" d="M55.2,18.2c0,2.5,0,10.2,0,10.2h9.2l-0.2-1.5c0-0.2,0-0.3,0-0.5l0.7-3.3l-1.7-5.1c-0.1-0.3-0.4-0.6-0.7-0.6
			H56C55.6,17.4,55.2,17.7,55.2,18.2C55.2,18.2,55.2,18.2,55.2,18.2z"/>
		<polygon class="st2" points="59.4,18.1 59.4,23.7 63.8,23.7 64.3,23.1 62.6,18.1 		"/>
		<path class="st0" d="M113.6,18.3c0,0-0.1,0-0.2,0l-0.6-0.2l-2.3-0.6l-8.5-2.4L73.9,6.9L56.4,1.8l0.1,0c-5,4.7-9.3,8.6-12.2,11.4
			c-1.5,1.4-2.7,2.5-3.5,3.2c-0.4,0.4-0.7,0.6-0.9,0.8c-0.2,0.2-0.3,0.3-0.3,0.3l0.1-0.1c0.1,0,0.1-0.1,0.2-0.2l0.9-0.8l3.5-3.2
			L56.3,1.7l0,0h0l17.5,5l28.1,8.1l8.5,2.5l2.3,0.7l0.6,0.2C113.5,18.2,113.6,18.3,113.6,18.3z"/>
		<path class="st1" d="M35.6,17.2c-0.3,0-0.5,0.1-0.7,0.3c-0.4,0.5-1.1,1.5-1.1,1.6s0,3.4,0,5c0,0.5,0.4,0.9,0.9,0.9h8.1
			c0.5,0,0.9-0.4,0.9-0.9v-6c0-0.5-0.4-0.9-0.9-0.9L35.6,17.2z"/>
		<path class="st1" d="M60.5,3.6c0,0.7-0.5,1.2-1.2,1.2c-0.7,0-1.2-0.5-1.2-1.2c0-0.7,0.5-1.2,1.2-1.2c0,0,0,0,0,0
			C60,2.4,60.5,2.9,60.5,3.6C60.5,3.6,60.5,3.6,60.5,3.6z"/>
		<path class="st1" d="M56.8,2c0,0.4-0.3,0.7-0.7,0.7c-0.4,0-0.7-0.3-0.7-0.7s0.3-0.7,0.7-0.7l0,0C56.5,1.3,56.8,1.6,56.8,2z"/>
		<path class="st0" d="M5.4,30.5h0.2l0.1-1.4l0.9,1.2l-0.2,0.2h0.2l0.1-0.1l0.1,0.1H7l-0.2-0.2l0.9-1.2l0.1,1.4H8L7.6,24h0h0
			c0,0,0,0,0-0.1v0l0,0v-1.1l0.8-1c0.3,0,0.6-0.2,0.6-0.5c0-0.3-0.2-0.6-0.5-0.6c-0.1,0-0.2,0-0.3,0.1C8.1,20.9,8.1,21,8,21.2
			l-0.8,0.2c-0.5-0.3-1.1-0.2-1.4,0.3c-0.1,0.2-0.2,0.3-0.2,0.5v1.7l0,0v0.1c0,0,0,0.1,0.1,0.1l0,0L5.4,30.5z M6.8,24l0.6,1.3H6.1
			L6.8,24L6.8,24z M5.9,25.2L6,24h0.5L5.9,25.2z M7.4,24l0.1,1.1L6.9,24H7.4L7.4,24z M7.7,28.4L6.8,27l0.7-1.2L7.7,28.4z M6.7,26.8
			L6,25.7h1.4L6.7,26.8z M6.6,27l-0.9,1.4l0.2-2.6L6.6,27z M7.6,28.5H5.8l0.9-1.4L7.6,28.5z M6.7,30.2l-1-1.3h1.9L6.7,30.2z"/>
		<path class="st0" d="M4.7,34.8v33.9h0.4v-0.3h2.2v0.3h0.4V34.8H7.3v1.4L6.3,35l1-1.1h0.2v-0.3H4.9v0.3h0.1l1,1.1l-1,1.1v-1.4H4.7z
			 M7.3,63.1v2.2l-1.1-1.2L7.3,63.1L7.3,63.1z M6.2,64.1l-1-1h1.9L6.2,64.1z M5.2,62.8l1-1.1l1,1.1H5.2z M6.3,61.5l1-1.1h0.1v2.2
			L6.3,61.5z M6.2,61.5l-1-1h1.9L6.2,61.5z M5.2,60.1l1-1.1l1,1.1H5.2z M6.3,58.9l1-1.1h0.1V60L6.3,58.9z M6.2,58.8l-0.9-1h1.9
			L6.2,58.8z M5.2,57.5l1-1.1l1,1.1H5.2z M6.3,56.3l1-1.1h0.1v2.2L6.3,56.3z M6.2,56.2l-1-1h1.9L6.2,56.2z M5.2,54.8l1-1.1l1,1.1
			H5.2z M6.3,53.6l1-1.1h0.1v2.2L6.3,53.6z M6.2,53.5l-1-1h1.9L6.2,53.5z M5.2,52.2l1-1.1l1,1.1L5.2,52.2z M6.3,51l1-1.1h0.1v2.2
			L6.3,51z M6.2,50.9l-1-1h1.9L6.2,50.9z M5.2,49.6l1-1.1l1,1.1H5.2z M6.3,48.4l1-1.1h0.1v2.2L6.3,48.4z M6.2,48.3l-0.9-1h1.9
			L6.2,48.3z M5.2,46.9l1-1.1l1,1.1L5.2,46.9z M6.3,45.7l1-1.1h0.1v2.2L6.3,45.7z M6.2,45.6l-1-1h1.9L6.2,45.6z M5.2,44.3l1-1.1
			l1,1.1H5.2z M6.3,43.1l1-1.1h0.1v2.2L6.3,43.1z M6.2,43l-1-1h1.9L6.2,43z M5.2,41.6l1-1.1l1,1.1L5.2,41.6z M6.3,40.4l1-1.1h0.1
			v2.2L6.3,40.4z M6.2,40.3l-1-1h1.9L6.2,40.3z M5.2,65.4l1-1.1l1,1.1L5.2,65.4z M5.1,65.3v-2.2l1,1.1L5.1,65.3z M5.1,62.7v-2.2
			l1,1.1L5.1,62.7z M5.1,60v-2.2l1,1.1L5.1,60z M5.1,57.4v-2.2l1,1.1L5.1,57.4z M5.1,54.7v-2.2l1,1.1L5.1,54.7z M5.1,52.1v-2.2
			l1,1.1L5.1,52.1z M5.1,49.5v-2.2l1,1.1L5.1,49.5z M5.1,46.8v-2.2l1,1.1L5.1,46.8z M5.1,44.2V42l1,1.1L5.1,44.2z M5.1,41.5v-2.2
			l1,1.1L5.1,41.5z M6.2,37.8L7.3,39H5.1L6.2,37.8z M5.1,38.8v-2.2l1,1.1L5.1,38.8z M6.3,37.7l1-1.1h0.1v2.2L6.3,37.7z M7.3,68
			l-1.1-1.2l1-1.1h0.1V68z M6.2,66.8l-1-1h1.9L6.2,66.8z M6.1,66.8l-1,1.1v-2.2L6.1,66.8z M5.2,36.6h1.9l-0.9,1L5.2,36.6z M7.2,68.1
			H5.2l1-1.1L7.2,68.1z M6.2,35l-1-1h1.9L6.2,35z M6.2,35.1l1.1,1.2H5.1L6.2,35.1z"/>
		<path class="st0" d="M-28.1,33.4L-28.1,33.4c0,0.2,0.1,0.3,0.3,0.3h46.4v-0.4h-0.2V31h0.2v-0.4h-42.8c-0.2,0-0.4,0.1-0.6,0.2
			l-3.3,2.4C-28.1,33.3-28.1,33.3-28.1,33.4z M-23.8,31h2.2l-1.1,1L-23.8,31z M-22.8,32.1l-1.1,1v-2.1L-22.8,32.1z M-21.6,33.1
			l-1-0.9l1-1V33.1z M-21.2,31h2.2l-1.1,1L-21.2,31z M-20.2,32.1l-1.1,1v-2.1L-20.2,32.1z M-19,33.1l-1-0.9l1-1L-19,33.1z M-18.5,31
			h2.2l-1.1,1L-18.5,31z M-17.5,32.1l-1.1,1v-2.1L-17.5,32.1z M-16.3,33.1l-1-0.9l1-1L-16.3,33.1z M-15.9,31h2.2l-1.1,1L-15.9,31z
			 M-14.9,32.1l-1.1,1v-2.1L-14.9,32.1z M-13.7,33.1l-1-0.9l1-1L-13.7,33.1z M-13.2,31h2.2l-1.1,1L-13.2,31z M-12.2,32.1l-1.1,1
			v-2.1L-12.2,32.1z M-11,33.1l-1-0.9l1-1L-11,33.1z M-10.6,31h2.2l-1.1,1L-10.6,31z M-9.6,32.1l-1.1,1v-2.1L-9.6,32.1z M-8.4,33.1
			l-1-0.9l1-1L-8.4,33.1z M-8,31h2.2l-1.1,1L-8,31z M-7,32.1l-1.1,1v-2.1L-7,32.1z M-5.8,33.1l-1-0.9l1-1L-5.8,33.1z M-5.3,31h2.2
			l-1.1,1L-5.3,31z M-4.3,32.1l-1.1,1v-2.1L-4.3,32.1z M-3.1,33.1l-1-0.9l1-1L-3.1,33.1z M-2.8,31.1l1.1,1l-1.1,1L-2.8,31.1z
			 M-3.1,33.3h-2.2l1.2-1.1L-3.1,33.3L-3.1,33.3z M-5.8,33.3H-8l1.2-1.1L-5.8,33.3L-5.8,33.3z M-8.4,33.3h-2.2l1.2-1.1L-8.4,33.3
			L-8.4,33.3z M-11,33.3h-2.2l1.2-1.1L-11,33.3L-11,33.3z M-13.7,33.3h-2.3l1.2-1.1L-13.7,33.3L-13.7,33.3z M-16.3,33.3h-2.2
			l1.2-1.1L-16.3,33.3L-16.3,33.3z M-19,33.3h-2.2l1.2-1.1L-19,33.3L-19,33.3z M-21.6,33.3h-2.2l1.2-1.1L-21.6,33.3L-21.6,33.3z
			 M-2.6,31.1h2.1l-1.1,1L-2.6,31.1L-2.6,31.1z M18,33.1l-1-0.9l1-1L18,33.1z M16.9,32.1l-1.1-1H18L16.9,32.1z M0,31.1h2.2l-1.1,1
			L0,31.1z M1,32.1l-1.1,1v-2.1L1,32.1z M2.2,33.1l-1-0.9l1-1L2.2,33.1z M2.6,31.1h2.2l-1.1,1L2.6,31.1z M3.6,32.1l-1.1,1v-2.1
			L3.6,32.1z M4.8,33.1l-1-0.9l1-1L4.8,33.1z M5.3,31h2.2l-1.1,1L5.3,31z M6.3,32.1l-1.1,1v-2.1L6.3,32.1z M7.5,33.1l-1-0.9l1-1
			L7.5,33.1z M7.9,31h2.2l-1.1,1L7.9,31z M8.9,32.1l-1.1,1v-2.1L8.9,32.1z M10.1,33.1l-1-0.9l1-1L10.1,33.1z M10.5,31h2.2l-1.1,1
			L10.5,31z M11.6,32.1l-1.1,1v-2.1L11.6,32.1z M12.8,33.1l-1-0.9l1-1L12.8,33.1z M13.2,31h2.2l-1.1,1L13.2,31z M14.2,32.1l-1.1,1
			v-2.1L14.2,32.1z M15.4,33.1l-1-0.9l1-1L15.4,33.1z M16.8,32.1l-1.1,1v-2.1L16.8,32.1z M15.4,33.3h-2.2l1.2-1.1L15.4,33.3
			L15.4,33.3z M12.8,33.3h-2.2l1.2-1.1L12.8,33.3L12.8,33.3z M10.1,33.3H7.9L9,32.2L10.1,33.3L10.1,33.3z M7.5,33.3H5.2l1.2-1.1
			L7.5,33.3L7.5,33.3z M4.8,33.3H2.6l1.2-1.1L4.8,33.3L4.8,33.3z M2.2,33.3h-2.2l1.2-1.1L2.2,33.3L2.2,33.3z M-0.5,33.1l-1-0.9l1-1
			L-0.5,33.1z M18,33.3h-2.2l1.2-1.1L18,33.3L18,33.3z M-2.6,33.3h-0.1l1.2-1.1l1.1,1v0.1H-2.6z M-27.7,33.3l3-2.1
			c0.1-0.1,0.3-0.2,0.5-0.2v2.2L-27.7,33.3z"/>
		<path class="st1" d="M9,30.6c0,1.4,0,5.8,0,5.8H3.8L4,35.5c0-0.1,0-0.2,0-0.3l-0.4-1.9l0.9-2.9c0.1-0.2,0.2-0.3,0.4-0.3h3.7
			C8.8,30.1,9,30.3,9,30.6C9,30.6,9,30.6,9,30.6z"/>
		<polygon class="st2" points="6.6,30.5 6.6,33.7 4.1,33.7 3.9,33.4 4.8,30.5 		"/>
		<path class="st0" d="M-24.2,30.6c0,0,0.1,0,0.1,0l0.3-0.1l1.3-0.4l4.8-1.4l16-4.6l9.9-2.9h0l0,0l9.6,9c-0.1,0-0.1-0.1-0.2-0.1
			c-0.1-0.1-0.3-0.3-0.5-0.5c-0.5-0.4-1.1-1-2-1.8c-1.7-1.6-4.1-3.8-7-6.5l0.1,0l-9.9,2.9l-16,4.6l-4.9,1.4l-1.3,0.4l-0.3,0.1
			L-24.2,30.6z"/>
		<path class="st1" d="M20.2,30c0.2,0,0.3,0.1,0.4,0.2c0.2,0.3,0.6,0.9,0.6,0.9c0,0.1,0,1.9,0,2.8c0,0.3-0.2,0.5-0.5,0.5h-4.6
			c-0.3,0-0.5-0.2-0.5-0.5l0,0v-3.4c0-0.3,0.2-0.5,0.5-0.5l0,0L20.2,30z"/>
		<path class="st1" d="M6,22.3C6,22.6,6.3,23,6.7,23c0.4,0,0.7-0.3,0.7-0.7c0-0.4-0.3-0.7-0.7-0.7C6.3,21.6,6,21.9,6,22.3
			C6,22.3,6,22.3,6,22.3z"/>
		<circle class="st1" cx="8.5" cy="21.4" r="0.4"/>
		<rect x="157.7" y="40.2" class="st2" width="26.7" height="81.1"/>
		<rect x="171.1" y="40.2" class="st1" width="13.4" height="80.8"/>
		<rect x="160.8" y="31.9" class="st2" width="9.4" height="8.3"/>
		<rect x="168" y="31.9" class="st1" width="2.2" height="8.3"/>
		<polyline class="st0" points="155.5,40.2 155.5,39.7 185.2,39.7 185.2,40.2 		"/>
		<rect x="163" y="43.8" class="st3" width="2.3" height="4.8"/>
		<path class="st0" d="M171.1,50.4c0,0.1-3,0.1-6.7,0.1s-6.7,0-6.7-0.1s3-0.1,6.7-0.1S171.1,50.4,171.1,50.4z"/>
		<rect x="176.5" y="43.8" class="st0" width="2.3" height="4.8"/>
		<path class="st0" d="M184.6,50.4c0,0.1-3,0.1-6.7,0.1s-6.7,0-6.7-0.1s3-0.1,6.7-0.1S184.6,50.4,184.6,50.4z"/>
		<rect x="176.5" y="53.3" class="st0" width="2.3" height="4.8"/>
		<path class="st0" d="M184.6,59.9c0,0.1-3,0.1-6.7,0.1s-6.7,0-6.7-0.1c0-0.1,3-0.1,6.7-0.1S184.6,59.8,184.6,59.9z"/>
		<rect x="176.5" y="63" class="st0" width="2.3" height="4.8"/>
		<path class="st0" d="M184.6,69.6c0,0.1-3,0.1-6.7,0.1s-6.7,0-6.7-0.1c0-0.1,3-0.1,6.7-0.1S184.6,69.6,184.6,69.6z"/>
		<rect x="176.5" y="72.7" class="st0" width="2.3" height="4.8"/>
		<path class="st0" d="M184.6,79.4c0,0.1-3,0.1-6.7,0.1s-6.7,0-6.7-0.1s3-0.1,6.7-0.1S184.6,79.3,184.6,79.4z"/>
		<rect x="176.5" y="82.2" class="st0" width="2.3" height="4.8"/>
		<path class="st0" d="M184.6,88.9c0,0.1-3,0.1-6.7,0.1s-6.7,0-6.7-0.1s3-0.1,6.7-0.1S184.6,88.8,184.6,88.9z"/>
		<rect x="176.5" y="91.7" class="st0" width="2.3" height="4.8"/>
		<rect x="176.5" y="101.4" class="st0" width="2.3" height="4.8"/>
		<path class="st0" d="M184.6,98.4c0,0-3,0.1-6.7,0.1s-6.7,0-6.7-0.1s3-0.1,6.7-0.1S184.6,98.3,184.6,98.4z"/>
		<rect x="163" y="53.4" class="st3" width="2.3" height="4.8"/>
		<path class="st0" d="M171.1,60c0,0.1-3,0.1-6.7,0.1s-6.7,0-6.7-0.1s3-0.1,6.7-0.1S171.1,60,171.1,60z"/>
		<rect x="163" y="63" class="st3" width="2.3" height="4.8"/>
		<path class="st0" d="M171.1,69.6c0,0.1-3,0.1-6.7,0.1s-6.7,0-6.7-0.1c0-0.1,3-0.1,6.7-0.1S171.1,69.6,171.1,69.6z"/>
		<rect x="163" y="72.6" class="st3" width="2.3" height="4.8"/>
		<path class="st0" d="M171.1,79.2c0,0.1-3,0.1-6.7,0.1s-6.7,0-6.7-0.1s3-0.1,6.7-0.1S171.1,79.2,171.1,79.2z"/>
		<rect x="163" y="82.2" class="st3" width="2.3" height="4.8"/>
		<path class="st0" d="M171.1,88.9c0,0.1-3,0.1-6.7,0.1s-6.7,0-6.7-0.1s3-0.1,6.7-0.1S171.1,88.8,171.1,88.9z"/>
		<rect x="163" y="91.8" class="st3" width="2.3" height="4.8"/>
		<path class="st0" d="M171.1,98.5c0,0-3,0.1-6.7,0.1s-6.7,0-6.7-0.1c0,0,3-0.1,6.7-0.1S171.1,98.4,171.1,98.5z"/>
		<rect x="163" y="101.4" class="st3" width="2.3" height="4.8"/>
		<rect x="-22.8" y="46.4" class="st0" width="39.4" height="74.8"/>
		<rect x="-1.8" y="46.4" class="st1" width="18.5" height="74.8"/>
		<rect x="-14.5" y="53.5" class="st2" width="3.5" height="8.6"/>
		<rect x="-14.5" y="87.2" class="st2" width="3.5" height="8.6"/>
		<path class="st2" d="M-1.8,65.5c0,0.1-4.7,0.1-10.5,0.1s-10.5-0.1-10.5-0.1c0-0.1,4.7-0.1,10.5-0.1S-1.8,65.4-1.8,65.5z"/>
		<rect x="-14.5" y="70.5" class="st2" width="3.5" height="8.6"/>
		<path class="st2" d="M-1.8,82.5c0,0.1-4.7,0.1-10.5,0.1s-10.5-0.1-10.5-0.1c0-0.1,4.7-0.1,10.5-0.1S-1.8,82.4-1.8,82.5z"/>
		<rect x="2.1" y="53.5" class="st0" width="3.5" height="8.6"/>
		<rect x="9.8" y="53.5" class="st0" width="3.5" height="8.6"/>
		<rect x="2.1" y="69.8" class="st0" width="3.5" height="8.6"/>
		<rect x="9.8" y="69.8" class="st0" width="3.5" height="8.6"/>
		<rect x="2.1" y="86.2" class="st0" width="3.5" height="8.6"/>
		<rect x="9.8" y="86.2" class="st0" width="3.5" height="8.6"/>
		<rect x="-25.7" y="44.6" class="st0" width="45.4" height="1.9"/>
		<path class="st1" d="M17,46.7c0,0.1-8.8,0.1-19.7,0.1s-19.7-0.1-19.7-0.1s8.8-0.1,19.7-0.1S17,46.6,17,46.7z"/>
		<rect x="142.6" y="56" class="st0" width="0.3" height="17.1"/>
		<rect x="137.2" y="56.3" class="st0" width="0.3" height="17.1"/>
		<rect x="131.8" y="56" class="st0" width="0.3" height="17.1"/>
		<rect x="126.3" y="56.3" class="st0" width="0.3" height="17.1"/>
		<rect x="126.1" y="69.6" class="st1" width="39" height="51.4"/>
		<rect x="146.8" y="69.6" class="st0" width="18.3" height="51.4"/>
		<rect x="134.3" y="76.5" class="st2" width="3.5" height="8.5"/>
		<rect x="134.3" y="109.9" class="st2" width="3.5" height="8.5"/>
		<path class="st2" d="M146.8,88.4c0,0.1-4.6,0.2-10.4,0.2s-10.4-0.1-10.4-0.2s4.6-0.2,10.4-0.2S146.8,88.3,146.8,88.4z"/>
		<rect x="134.3" y="93.3" class="st2" width="3.5" height="8.5"/>
		<path class="st2" d="M146.8,105.2c0,0.1-4.6,0.2-10.4,0.2s-10.4-0.1-10.4-0.2c0-0.1,4.6-0.2,10.4-0.2S146.8,105.1,146.8,105.2z"/>
		<rect x="150.7" y="76.5" class="st2" width="3.5" height="8.5"/>
		<rect x="158.3" y="76.5" class="st2" width="3.5" height="8.5"/>
		<rect x="150.7" y="92.7" class="st2" width="3.5" height="8.5"/>
		<rect x="158.3" y="92.7" class="st2" width="3.5" height="8.5"/>
		<rect x="150.7" y="108.9" class="st2" width="3.5" height="8.5"/>
		<rect x="158.3" y="108.9" class="st2" width="3.5" height="8.5"/>
		<polygon class="st0" points="146.8,70.5 146.8,65.8 150.7,65.8 150.7,63.3 156,63.3 156,61 165.1,61 165.1,70.1 		"/>
		<rect x="146.7" y="53.5" class="st0" width="0.3" height="17.1"/>
		<rect x="150.6" y="53.5" class="st0" width="0.3" height="17.1"/>
		<rect x="155.8" y="51.1" class="st0" width="0.3" height="17.1"/>
		<rect x="164.7" y="51.1" class="st0" width="0.3" height="17.1"/>
		<rect x="160.2" y="51.1" class="st0" width="0.3" height="17.1"/>
		<rect x="126.6" y="65" class="st0" width="20.2" height="0.3"/>
		<rect x="126.7" y="60.8" class="st0" width="29.3" height="0.3"/>
	</g>
	<g id="freepik--Floor--inject-15">
		<path class="st4" d="M153.4,148.4c0,0-32.8,0.1-73.3,0.1s-73.4,0-73.4-0.1s32.8-0.1,73.4-0.1S153.4,148.3,153.4,148.4z"/>
		<path class="st4" d="M191.4,121.3c0,0-49.9,0.1-111.4,0.1s-111.4,0-111.4-0.1c0,0,49.9-0.1,111.4-0.1S191.4,121.2,191.4,121.3z"/>
	</g>
	<g id="freepik--Fence--inject-15">
		<rect x="-3.7" y="106.8" class="st4" width="0.8" height="14.4"/>
		<path class="st5" d="M-2.5,106.3c0,0.4-0.4,0.8-0.8,0.8c-0.4,0-0.8-0.4-0.8-0.8c0-0.4,0.4-0.8,0.8-0.8c0,0,0,0,0,0
			C-2.9,105.5-2.5,105.9-2.5,106.3z"/>
		<rect x="11.9" y="106.8" class="st4" width="0.8" height="14.4"/>
		<path class="st5" d="M13.1,106.3c0,0.4-0.4,0.8-0.8,0.8c-0.4,0-0.8-0.4-0.8-0.8c0-0.4,0.4-0.8,0.8-0.8l0,0
			C12.7,105.5,13.1,105.9,13.1,106.3z"/>
		<rect x="-5.9" y="108.2" class="st5" width="20.1" height="3.6"/>
		<polygon class="st2" points="-3.7,108.2 -3.7,108.3 -5.7,111.8 -5.9,111.8 -5.9,108.2 		"/>
		<polygon class="st2" points="1.4,108.2 -0.7,111.8 -3.4,111.8 -2.6,110.4 -1.3,108.2 		"/>
		<polygon class="st2" points="6.5,108.2 4.4,111.8 1.7,111.8 3.8,108.2 		"/>
		<polygon class="st2" points="11.6,108.2 9.5,111.8 6.7,111.8 8.8,108.2 		"/>
		<polygon class="st2" points="14.2,108.2 14.2,111.8 11.8,111.8 13.9,108.2 		"/>
		<rect x="-5.9" y="113.8" class="st5" width="20.1" height="3.6"/>
		<polygon class="st2" points="-3.7,113.8 -3.7,113.8 -5.7,117.4 -5.9,117.4 -5.9,113.8 		"/>
		<polygon class="st2" points="1.4,113.8 -0.7,117.4 -3.4,117.4 -2.6,115.9 -1.3,113.8 		"/>
		<polygon class="st2" points="6.5,113.8 4.4,117.4 1.7,117.4 3.8,113.8 		"/>
		<polygon class="st2" points="11.6,113.8 9.5,117.4 6.7,117.4 8.8,113.8 		"/>
		<polygon class="st2" points="14.2,113.8 14.2,117.4 11.8,117.4 13.9,113.8 		"/>
		<path class="st4" d="M14.2,111.8C14.2,111.8,14.2,111.8,14.2,111.8v-0.2c0-0.2,0-0.4,0-0.7c0-0.6,0-1.5,0-2.7l0,0l-20.1,0l0,0l0,0
			c0,1.2,0,2.4,0,3.6l0,0l14.3,0h4.2h1.1l0,0h-1.1H8.4l-14.3,0h0v-3.6h0l20.1,0h0v0c0,1.2,0,2.1,0,2.7c0,0.3,0,0.5,0,0.7L14.2,111.8
			C14.2,111.8,14.2,111.8,14.2,111.8z"/>
		<path class="st4" d="M14.2,117.4C14.2,117.4,14.2,117.3,14.2,117.4v-0.2c0-0.2,0-0.4,0-0.7c0-0.6,0-1.5,0-2.7l0,0l-20.1,0l0,0l0,0
			c0,1.2,0,2.4,0,3.6l0,0l14.3,0h4.2h1.1l0,0h-1.1H8.4l-14.3,0h0v-3.6h0l20.1,0h0v0c0,1.2,0,2.1,0,2.7c0,0.3,0,0.5,0,0.7L14.2,117.4
			C14.2,117.3,14.2,117.4,14.2,117.4z"/>
	</g>
	<g id="freepik--character-3--inject-15">
		<path class="st5" d="M109.1,140.2l0.3,7.9l-9.9,0.5c0-0.9,5-3.1,5-3.1l-0.4-5.1L109.1,140.2z"/>
		<g class="st6">
			<path class="st7" d="M107.7,144.9c0.2,0.1,0.3,0.2,0.3,0.4c0,0.2-0.2,0.3-0.4,0.3c-0.2-0.1-0.4-0.3-0.3-0.5
				C107.3,145,107.5,144.9,107.7,144.9"/>
		</g>
		<g class="st6">
			<path class="st7" d="M109.5,148.1l0-0.8l-9.5,0.8c0,0-0.4,0.2-0.4,0.5L109.5,148.1z"/>
		</g>
		<path class="st4" d="M104.5,145.5c0,0,0.2,0.1,0.5,0.2c0.2,0.1,0.4,0.3,0.4,0.3c0,0,0-0.3-0.3-0.5
			C104.8,145.3,104.5,145.4,104.5,145.5z"/>
		<path class="st4" d="M103.5,145.9c0,0,0.2,0.1,0.4,0.3c0.2,0.2,0.2,0.4,0.3,0.4s0.1-0.3-0.2-0.5
			C103.8,145.9,103.5,145.9,103.5,145.9z"/>
		<path class="st4" d="M102.9,147.2c0,0,0.1-0.2,0-0.5c-0.1-0.3-0.4-0.4-0.4-0.3s0.1,0.2,0.2,0.4C102.9,147,102.9,147.2,102.9,147.2
			z"/>
		<path class="st4" d="M104.5,144.3c0,0,0.2,0,0.5,0c0.3,0,0.5,0.1,0.5,0c0,0-0.2-0.2-0.5-0.2C104.7,144.1,104.5,144.3,104.5,144.3z
			"/>
		<path class="st4" d="M104.7,143.1c0.2,0,0.3,0,0.5,0c0.2,0,0.3-0.1,0.5-0.2c0.1,0,0.2-0.1,0.3-0.2c0.1,0,0.1-0.1,0.1-0.1
			c0.1-0.1,0.1-0.2,0-0.3c-0.1-0.1-0.1-0.1-0.2-0.1c-0.1,0-0.1,0-0.2,0c-0.1,0-0.2,0.1-0.3,0.1c-0.2,0.1-0.3,0.2-0.4,0.3
			C104.8,143,104.7,143.1,104.7,143.1c0,0.1,0.1-0.1,0.4-0.3c0.1-0.1,0.3-0.2,0.4-0.3c0.1,0,0.2-0.1,0.3-0.1c0.1,0,0.2,0,0.2,0
			s0,0,0,0.1c0,0-0.1,0.1-0.1,0.1c-0.1,0.1-0.2,0.1-0.3,0.2c-0.1,0.1-0.3,0.2-0.5,0.2C105,143,104.9,143,104.7,143.1z"/>
		<path class="st4" d="M104.8,143.2c0.1-0.1,0.1-0.3,0.1-0.5c0-0.2,0-0.4-0.1-0.5c0-0.1-0.1-0.2-0.1-0.3c-0.1-0.1-0.2-0.2-0.3-0.2
			c-0.1,0-0.2,0.1-0.2,0.1c0,0.1,0,0.1,0,0.2c0,0.1,0,0.2,0,0.3c0,0.2,0.1,0.4,0.2,0.5c0.2,0.2,0.4,0.3,0.4,0.3s-0.2-0.1-0.3-0.3
			c-0.1-0.1-0.2-0.3-0.2-0.5c0-0.1,0-0.2,0-0.3c0-0.1,0-0.2,0.1-0.2c0,0,0.1,0.1,0.2,0.2c0.1,0.1,0.1,0.2,0.1,0.3
			c0.1,0.2,0.1,0.3,0.1,0.5C104.8,143,104.7,143.2,104.8,143.2z"/>
		<path class="st5" d="M116.3,139.9l-0.1,8.4l-10.5,0c0.1-1,5.5-3,5.5-3l-0.2-5.4L116.3,139.9z"/>
		<g class="st6">
			<path class="st7" d="M114.5,144.8c0.2,0.1,0.3,0.3,0.3,0.5c-0.1,0.2-0.3,0.3-0.5,0.3c-0.2-0.1-0.4-0.3-0.3-0.5
				C114.1,144.9,114.3,144.8,114.5,144.8"/>
		</g>
		<g class="st6">
			<path class="st7" d="M116.3,148.3v-0.9l-10.1,0.3c0,0-0.5,0.2-0.4,0.5L116.3,148.3z"/>
		</g>
		<path class="st4" d="M111.1,145.2c0,0.1,0.3,0.1,0.5,0.2c0.3,0.2,0.4,0.4,0.4,0.4c0,0,0-0.3-0.3-0.5
			C111.4,145.1,111.1,145.2,111.1,145.2z"/>
		<path class="st4" d="M110,145.7c0,0.1,0.2,0.1,0.4,0.4s0.2,0.4,0.3,0.4c0.1,0,0.1-0.3-0.1-0.6C110.3,145.6,110,145.6,110,145.7z"
			/>
		<path class="st4" d="M109.4,147c0,0,0.1-0.2,0-0.5c-0.1-0.3-0.4-0.4-0.4-0.4s0.1,0.2,0.2,0.4C109.3,146.8,109.3,147,109.4,147z"/>
		<path class="st4" d="M111.2,144c0,0,0.3,0,0.5,0s0.5,0.1,0.5,0.1c0,0-0.2-0.2-0.5-0.2C111.4,143.8,111.2,143.9,111.2,144z"/>
		<path class="st4" d="M111.4,142.7c0.2,0,0.4,0,0.5,0c0.2,0,0.4-0.1,0.5-0.2c0.1,0,0.2-0.1,0.3-0.2c0.1,0,0.1-0.1,0.2-0.1
			c0.1-0.1,0.1-0.2,0-0.3c-0.1-0.1-0.1-0.1-0.2-0.1c-0.1,0-0.1,0-0.2,0c-0.1,0-0.2,0.1-0.3,0.1c-0.2,0.1-0.3,0.2-0.5,0.3
			C111.5,142.6,111.5,142.8,111.4,142.7c0,0.1,0.2-0.1,0.4-0.3c0.1-0.1,0.3-0.2,0.5-0.3c0.1,0,0.2-0.1,0.3-0.1c0.1,0,0.2,0,0.2,0
			s0,0,0,0.1c0,0-0.1,0.1-0.1,0.1c-0.1,0.1-0.2,0.1-0.3,0.2c-0.2,0.1-0.3,0.1-0.5,0.2C111.8,142.6,111.6,142.7,111.4,142.7z"/>
		<path class="st4" d="M111.5,142.8c0.1-0.1,0.2-0.3,0.1-0.5c0-0.2,0-0.4-0.1-0.6c0-0.1-0.1-0.2-0.1-0.3c-0.1-0.1-0.2-0.2-0.3-0.3
			c-0.1,0-0.2,0.1-0.2,0.1c0,0.1,0,0.1-0.1,0.2c0,0.1,0,0.2,0,0.4c0,0.2,0.1,0.4,0.2,0.5c0.2,0.3,0.4,0.3,0.4,0.3s-0.2-0.1-0.3-0.4
			c-0.1-0.2-0.1-0.3-0.2-0.5c0-0.1,0-0.2,0-0.3c0-0.1,0.1-0.2,0.1-0.2c0,0,0.1,0.1,0.2,0.2c0.1,0.1,0.1,0.2,0.1,0.3
			c0.1,0.2,0.1,0.3,0.1,0.5C111.5,142.6,111.5,142.8,111.5,142.8z"/>
		<path class="st4" d="M95.2,92.4c-0.5,0.3-0.7,6.5,0.4,9.5c1.2,3.1,5.4,19.5,5.4,19.5l3.1,22.3l5.3-0.3l-1.9-48.1L95.2,92.4z"/>
		<path class="st4" d="M101.9,95.3c0,0,1.9,13.6,3.2,19s1.7,7.3,1.7,7.3s2.1,4.3,2.1,4.4l1.9,17.3h5.6c0,0,1.5-15.2,0.7-18.2
			c-0.8-3-2.1-7.7-1.8-11.1c0.3-3.4,0.4-10.6,0.4-11.2c0-0.6,1.4-4.7,1.4-4.7c0.4-1.3,0.6-2.7,0.6-4.1
			C117.6,91.7,101.9,95.3,101.9,95.3z"/>
		<path class="st8" d="M109,125.6C108.9,125.6,108.9,125.5,109,125.6l-0.2-0.3c-0.1-0.2-0.3-0.5-0.4-0.8l-1.6-2.9l0,0
			c-0.7-2.5-1.6-6-2.5-9.8c-0.9-4-1.6-7.6-2.2-10.2c-0.3-1.3-0.5-2.4-0.6-3.1c-0.1-0.4-0.1-0.6-0.2-0.8c0-0.1,0-0.2,0-0.2
			c0,0,0,0,0-0.1c0,0,0,0,0,0.1c0,0,0,0.1,0.1,0.2l0.2,0.8c0.2,0.7,0.4,1.8,0.6,3.1c0.6,2.6,1.3,6.2,2.2,10.2
			c0.9,3.9,1.8,7.3,2.5,9.9l0,0c0.6,1.2,1.2,2.2,1.5,3c0.2,0.3,0.3,0.6,0.4,0.8L109,125.6C108.9,125.5,109,125.6,109,125.6z"/>
		<path class="st8" d="M115.9,102.5c-0.2-0.3-0.5-0.5-0.7-0.8c-0.2-0.3-0.5-0.5-0.7-0.8c0.3,0.2,0.6,0.4,0.8,0.7
			C115.6,101.8,115.8,102.1,115.9,102.5z"/>
		<path class="st4" d="M104.3,44.8c-0.1-1.3-0.3-2.6-1.1-3.7c-1.3-1.8-3.7-2.2-5.5-1l-0.6,0.4c-0.5,1.6-0.8,3.2-0.8,4.9
			c0,1,0.4,2,1,2.7c0.3,0.4,0.7,0.7,0.9,1.1c0.1,0.4,0.3,0.8,0.4,1.2c0.5,1.2,2.1,1.7,3.3,1.3c1.2-0.5,2-1.7,2.4-3
			C104.5,47.5,104.4,46.2,104.3,44.8z"/>
		<path class="st5" d="M97.8,40.5c-1.4-0.4-2.3-0.9-2.3-1.5c0-0.6,2.5-1.9,3-2.2c1.3-0.8,2.9,0.2,5.3,0.2c4.6,0.1,8.3,1,8.3,2.2
			c0,0.6-0.9,1-2.3,1.4"/>
		<g class="st9">
			<path d="M98.6,40.5c-1.3-0.3-2.1-0.8-2-1.3c0.1-1.4,3.3-1.8,7.4-1.7s7.3,0.9,7.3,1.9c0,0.5-0.8,0.9-2,1.2"/>
		</g>
		<path class="st10" d="M109.2,40.2c0-3.1-2.6-5.6-5.7-5.6c-0.1,0-0.1,0-0.2,0c-3,0.1-5.3,2.7-5.4,5.7c0,2.6,0,5.3,0.1,6.2
			c0.4,2.9,2.2,3.7,3,4c0.3,0.1,0.5,0.1,0.8,0.1l0,0c0,0,0,0,0,0l-0.2,3.4c0,2.2,1.5,3.9,3.6,4c2.2,0,3.7-1.8,3.7-4L109.2,40.2z"/>
		<path class="st4" d="M98.9,42.2c0,0.2,0.2,0.5,0.4,0.5c0.2,0,0.5-0.2,0.5-0.4c0,0,0,0,0,0c0-0.2-0.2-0.5-0.4-0.5
			C99.1,41.8,98.9,42,98.9,42.2C98.9,42.2,98.9,42.2,98.9,42.2z"/>
		<path class="st4" d="M98.7,41c0.1,0.1,0.4-0.2,0.9-0.2c0.5,0,0.9,0.3,0.9,0.2c0.1-0.1,0-0.1-0.2-0.3c-0.2-0.1-0.5-0.2-0.7-0.2
			c-0.3,0-0.5,0.1-0.7,0.2C98.7,40.8,98.7,40.9,98.7,41z"/>
		<path class="st4" d="M103.4,42.2c0,0.2,0.2,0.5,0.4,0.5c0.2,0,0.5-0.2,0.5-0.4c0,0,0,0,0,0c0-0.2-0.2-0.5-0.4-0.5
			C103.6,41.8,103.4,42,103.4,42.2C103.4,42.2,103.4,42.2,103.4,42.2z"/>
		<path class="st4" d="M103.6,41.1c0.1,0.1,0.4-0.2,0.9-0.2c0.5,0,0.9,0.3,0.9,0.2c0.1-0.1,0-0.1-0.2-0.3c-0.2-0.2-0.5-0.2-0.7-0.2
			c-0.3,0-0.5,0.1-0.7,0.2C103.6,41,103.5,41.1,103.6,41.1z"/>
		<path class="st4" d="M101.7,44.8c-0.3-0.1-0.5-0.1-0.8-0.2c-0.1,0-0.2,0-0.3-0.1c0-0.1,0-0.3,0.1-0.4l0.4-1
			c0.5-1.4,0.9-2.5,0.9-2.5c-0.1,0-0.5,1.1-1.1,2.4c-0.1,0.3-0.3,0.6-0.4,1c-0.1,0.2-0.1,0.3-0.1,0.5c0,0.1,0.1,0.2,0.2,0.2
			c0.1,0,0.1,0,0.2,0C101.2,44.8,101.5,44.8,101.7,44.8z"/>
		<path class="st11" d="M101.8,50.6c0,0,1.9,0.2,4.3-1.2c0,0-0.8,2.5-4.4,2.1L101.8,50.6z"/>
		<path class="st11" d="M101.9,46c0.2-0.2,0.5-0.4,0.8-0.3c0.2,0,0.4,0.1,0.6,0.3c0.1,0.2,0.1,0.4,0,0.6c-0.2,0.2-0.4,0.2-0.6,0.2
			c-0.2-0.1-0.4-0.2-0.6-0.4c-0.1,0-0.1-0.1-0.1-0.1C101.9,46.1,101.9,46,101.9,46"/>
		<path class="st4" d="M103.2,45.1c-0.1,0-0.1,0.5-0.5,0.9c-0.5,0.4-1,0.3-1,0.4c0,0.1,0.1,0.1,0.4,0.1c0.3,0,0.6-0.1,0.9-0.3
			c0.2-0.2,0.4-0.5,0.4-0.8C103.3,45.3,103.2,45.1,103.2,45.1z"/>
		<path class="st4" d="M103.4,39.6c0,0.1,0.5,0.1,1.1,0.2c0.6,0.1,1,0.2,1.1,0.1c0-0.1,0-0.2-0.2-0.3c-0.2-0.2-0.5-0.3-0.8-0.3
			c-0.3,0-0.6,0-0.9,0.1C103.5,39.4,103.4,39.5,103.4,39.6z"/>
		<path class="st4" d="M98.9,39.7c0.1,0.1,0.4,0,0.8,0c0.4,0,0.8,0.1,0.8,0c0-0.1,0-0.2-0.2-0.3c-0.2-0.1-0.4-0.2-0.7-0.2
			c-0.2,0-0.5,0.1-0.7,0.2C98.9,39.5,98.9,39.7,98.9,39.7z"/>
		<path class="st4" d="M101.7,36.9c0.5,0.8,1.4,1.3,2.3,1.4c0.6,0.1,1.3,0,1.7,0.4c0.3,0.3,0.4,0.8,0.6,1.2c0.2,0.6,0.2,1.4,0.8,1.8
			c0.5,0.3,0.8,0.2,1.1,0.6c0.3,0.4,0.4,1.1,0.4,1.6c0,0.6,0,1.4,0.5,1.7c0-2,0.7-4.3,0.8-6.3c0-0.3,0-0.6-0.1-0.9
			c-0.2-0.6-1-1-1.6-1.1c-1.9-0.5-3.8-0.6-5.7-0.7"/>
		<path class="st5" d="M96.7,38.5c0,0,1.3-4.9,1.4-5.1s1.5-2.4,4.9-2.9l2.7,0c0,0,3.9,1.3,4.6,2.3c0.7,1,0.9,5.6,0.9,5.6l-7.7-1.8
			l-5.3,1.2L96.7,38.5z"/>
		<path class="st5" d="M103.8,29.9H103c-0.3,0-0.6,0.2-0.7,0.5c-0.1,0.2-0.2,0.5-0.2,0.8c-0.1,0.9-0.3,6.7-0.3,6.7l3.4-0.1l0-7.2
			l1.2,0.3v-0.2c0-0.1-0.1-0.2-0.1-0.3l0,0c-0.1-0.1-0.3-0.2-0.5-0.2L103.8,29.9z"/>
		<path class="st8" d="M97.6,39l0.4-1.7l5.4-1.6l6.4,2l0,1.9C105.9,38.2,101.7,38,97.6,39z"/>
		<path class="st5" d="M98.6,36.8L98.3,37l-1.8,1.3c2.4-0.7,4.8-1.1,7.3-1.1c3.7,0.1,7.9,1.4,7.9,1.4l-2.4-1.5l0,0
			c-0.8-0.8-1.8-1.3-3-1.4l-4.7-0.2C100.5,35.6,99.4,36,98.6,36.8z"/>
		<path class="st4" d="M97,38.4c0,0,0,0,0.1-0.1c0.1-0.1,0.2-0.2,0.4-0.2c0.5-0.2,1-0.4,1.5-0.5c1.7-0.4,3.5-0.4,5.3-0.2
			c1,0.1,2,0.2,2.9,0.3c0.8,0.1,1.6,0.3,2.3,0.5c0.3,0.1,0.6,0.2,0.9,0.3c0.2,0.1,0.4,0.2,0.6,0.4c0.1,0.1,0.2,0.3,0.2,0.4
			c0,0.1,0,0.1,0,0.2c0-0.2-0.1-0.4-0.2-0.5c-0.2-0.1-0.4-0.3-0.6-0.3c-0.3-0.1-0.5-0.2-0.9-0.3c-0.6-0.2-1.4-0.3-2.3-0.5
			c-0.9-0.1-1.9-0.2-2.9-0.3c-1.8-0.2-3.5-0.1-5.3,0.2c-0.5,0.1-1,0.2-1.5,0.4C97.2,38.3,97,38.4,97,38.4z"/>
		<path class="st4" d="M97.7,38.9c-0.4,1.5-2.2,4,0.3,5.6c0,0,0.1-3.4,0.4-4.7c0.1-0.4,0.2-0.8,0.4-1.1"/>
		<path class="st4" d="M109.1,39.6c1.6,0,2.9,1.2,2.9,2.8c0,0.4,0,0.8,0,1.2c0.2,0.3,0.3,0.7,0.5,1c0.4,0.8,0.5,1.7,0.5,2.6
			c-0.3,1.8-2,4.3-4,4.2"/>
		<path class="st4" d="M109.6,49.9c-0.4,0.2-0.8,0.1-1.2-0.1c-0.3-0.2-0.6-0.6-0.8-0.9c-0.6-1.2-0.6-2.7,0.1-3.9
			c-1.3-1.6-1.7-3.7-1.1-5.7l2.9,0.3L109.6,49.9z"/>
		<path class="st4" d="M96.5,38.1c0.1,0,0.1,0,0.2-0.1l0.4-0.2l1.5-0.9l0,0l0,0l0.4-0.5c0.1-0.2,0.3-0.3,0.4-0.5
			c0.2-0.1,0.4-0.2,0.6-0.3c0.2,0,0.5-0.1,0.7-0.1c1,0,2,0,3.2,0.1c1,0,2,0.1,3,0.2c0.2,0,0.4,0,0.6,0.1c0.2,0.1,0.4,0.2,0.5,0.3
			c0.3,0.3,0.5,0.6,0.8,0.9l0,0l0,0l1.8,0.9l0.5,0.2l0.2,0.1c-0.1,0-0.1-0.1-0.2-0.1l-0.5-0.3l-1.8-0.9l0,0
			c-0.2-0.3-0.5-0.6-0.8-0.9c-0.2-0.2-0.3-0.3-0.5-0.4c-0.2-0.1-0.4-0.1-0.7-0.1c-0.9-0.1-1.9-0.1-3-0.2c-1.1,0-2.2-0.1-3.2,0
			c-0.2,0-0.5,0-0.7,0.1c-0.2,0.1-0.4,0.2-0.6,0.3c-0.2,0.1-0.3,0.3-0.4,0.5l-0.3,0.5l0,0L97,37.7l-0.4,0.3
			C96.5,38,96.5,38,96.5,38.1z"/>
		<path class="st4" d="M105.2,35.6c0-0.1,0-0.2,0-0.2c0-0.2,0-0.4,0-0.6c0-0.6,0-1.3,0-2.2c0-0.4,0-0.8,0-1.2c0-0.2,0-0.4,0-0.5
			c0-0.1,0.1-0.2,0.2-0.2c0,0,0,0,0,0l0.6,0.1c0.1,0,0.2,0,0.2,0c-0.1,0-0.1-0.1-0.2-0.1c-0.2,0-0.4-0.1-0.6-0.2
			c-0.2,0-0.3,0.1-0.3,0.3c0,0,0,0,0,0v0.5c0,0.4,0,0.8,0,1.2c0,0.8,0,1.6,0,2.2c0,0.3,0,0.5,0,0.6
			C105.2,35.5,105.2,35.5,105.2,35.6z"/>
		<path class="st4" d="M101.9,35.5c0.1-0.2,0.1-0.5,0.1-0.7c0-0.4,0.1-1.1,0.1-1.7c0-0.7,0.1-1.3,0.1-1.7c0-0.2,0-0.5,0-0.7
			c0,0.2-0.1,0.5-0.1,0.7c0,0.4-0.1,1.1-0.1,1.7c0,0.7-0.1,1.3-0.1,1.7C101.9,35,101.9,35.3,101.9,35.5z"/>
		<path class="st4" d="M110.7,40.3c0.4,0,0.7,0.3,0.8,0.7c0.1,0.4,0.2,0.7,0.2,1.1c0,0.4,0.2,0.7,0.5,1c0.3,0.2,0.6,0.2,0.9,0.3
			c0.4,0.3,0.5,0.8,0.3,1.2c0.8,0.2,1.3,1,1.1,1.9c-0.1,0.4-0.4,0.8-0.8,1c0.5,0.7,0.2,1.7-0.4,2.3c-1.2,1.2-3.1,1.2-4.3,0.1
			c-0.5-0.5-0.8-1.1-0.9-1.8"/>
		<path class="st8" d="M112.7,43.2c0,0,0-0.1-0.1-0.3c-0.1-0.3-0.3-0.5-0.6-0.6c-0.4-0.2-0.8-0.3-1.2-0.4c-0.5-0.1-1-0.1-1.6-0.3
			c-0.3-0.1-0.6-0.2-0.8-0.3c-0.2-0.1-0.4-0.3-0.6-0.5c-0.3-0.3-0.6-0.7-0.9-1c-0.2-0.3-0.4-0.6-0.5-0.7c-0.1-0.1-0.1-0.2-0.2-0.3
			c0.3,0.3,0.5,0.6,0.8,1c0.3,0.4,0.6,0.7,0.9,1c0.2,0.2,0.4,0.3,0.6,0.5c0.2,0.1,0.5,0.2,0.8,0.3c0.6,0.1,1.1,0.2,1.6,0.3
			c0.5,0.1,0.9,0.2,1.3,0.4c0.3,0.2,0.5,0.4,0.6,0.7C112.7,43,112.7,43.1,112.7,43.2z"/>
		<path class="st8" d="M114.4,46.6c0,0,0-0.2-0.1-0.4c-0.1-0.4-0.4-0.7-0.7-1c-0.4-0.4-1-0.7-1.5-0.9c-0.6-0.3-1.4-0.4-2.1-0.8
			c-0.7-0.3-1.3-0.7-1.9-1.3c-0.4-0.4-0.8-0.9-1.1-1.5c-0.3-0.4-0.5-0.8-0.6-1.1c-0.1-0.1-0.1-0.3-0.2-0.4c0.1,0.1,0.2,0.2,0.3,0.4
			c0.2,0.2,0.4,0.6,0.7,1c0.3,0.5,0.7,1,1.1,1.4c0.5,0.5,1.1,0.9,1.8,1.2c0.7,0.3,1.5,0.5,2.1,0.8c0.6,0.2,1.1,0.6,1.6,1
			c0.3,0.3,0.5,0.7,0.7,1.1c0,0.1,0.1,0.2,0.1,0.3C114.4,46.6,114.4,46.6,114.4,46.6z"/>
		<path class="st8" d="M96.5,43.2c0-0.2,0.1-0.4,0.1-0.7c0.1-0.5,0.3-1,0.6-1.5c0.2-0.5,0.5-1,0.7-1.4c0.1-0.2,0.2-0.4,0.4-0.5
			c0,0-0.5,0.9-1,2.1C96.9,42.2,96.6,43.2,96.5,43.2z"/>
		<path class="st4" d="M95.5,58.7c-0.7,1.1-4.9,13.4-5,14.2c-0.1,0.8-0.2,3.5,0.4,4s4.3,0.3,4.3,0.3l3.9-21.4v-0.3
			C99.1,55.5,96.2,57.5,95.5,58.7z"/>
		<path class="st4" d="M93.5,77.2c-1.1,0-2.3-0.1-2.6-0.4c-0.6-0.6-0.4-3.7-0.4-4c0-0.4,1.2-3.9,2.2-7c1.1-3.1,2.4-6.6,2.7-7.2l0,0
			c0.7-1.1,3.6-3.1,3.6-3.2l0,0v0.3l-3.9,21.4l0,0C95.2,77.2,94.4,77.2,93.5,77.2z M95.5,58.7c-0.4,0.6-1.7,4.1-2.7,7.2
			c-1.1,3.1-2.2,6.5-2.2,6.9c0,0.3-0.2,3.4,0.4,4c0.6,0.5,4.1,0.3,4.3,0.3l3.9-21.4v-0.3C98.9,55.7,96.2,57.6,95.5,58.7L95.5,58.7z"
			/>
		<path class="st5" d="M101.6,53.1l-0.7,7.2c0,0,7-6,8.1-7.1l0,0l3,0.6c2.7,0.5,5,2.6,5.7,5.2c0.3,1,0.4,2.1,0.5,3.2
			c0,3.9-0.8,25.9-0.8,25.9s0.8,7,0.1,9.1c-0.7,2.1-0.6,1.6-0.6,1.6s-4.8-1.5-6.9-1.5c-2.1-0.1-7.3-0.2-9.6-1
			c-2.3-0.8-5.5-3.7-5.5-3.7L96,64c0.1-3,1.1-5.8,2.8-8.2l0,0L101.6,53.1z"/>
		<g class="st12">
			<path class="st7" d="M95.2,82.8c0,0,22.3,2.8,22.3,2.9s-0.1,2.3-0.1,2.3l0.1,1.6l-22.5-2.2L95.2,82.8z"/>
		</g>
		<g class="st12">
			<path class="st7" d="M95.3,80c0.2,0,14.9,0.7,16.5,1.4c1.6,0.6,5.8,1,5.8,1s0.2-3.8,0.2-3.8c0,0-4.5,0-5.2-0.3
				c-0.7-0.3-2.1-1.7-2.1-1.7l-15-0.9L95.3,80z"/>
		</g>
		<path class="st4" d="M109.9,56.3c-0.1,0.2-0.1,0.3-0.2,0.5c-0.1,0.1-0.2,0.3-0.3,0.5c-0.1,0.2-0.2,0.4-0.3,0.7
			c-0.2,0.5-0.5,1.2-0.8,1.9c-0.3,0.8-0.5,1.6-0.7,2.4c-0.2,0.8-0.3,1.6-0.4,2.5c-0.1,0.8-0.1,1.5-0.1,2c0,0.6,0,1,0.1,1.4
			c0,0.2,0,0.3,0,0.5c0-0.2-0.1-0.3-0.1-0.5c0-0.3-0.1-0.8-0.1-1.4c0-0.7,0-1.4,0-2.1c0.1-1.7,0.5-3.3,1-4.9
			c0.2-0.6,0.5-1.3,0.8-1.9c0.1-0.3,0.3-0.5,0.4-0.7c0.1-0.2,0.2-0.4,0.3-0.5C109.7,56.6,109.8,56.4,109.9,56.3z"/>
		<path class="st4" d="M110.2,53.9c0,0-0.3,0.3-0.8,0.8c-0.6,0.6-1.1,1.3-1.6,2.1c-0.4,0.7-0.8,1.5-1.1,2.4c-0.2,0.6-0.3,1-0.3,1
			c0-0.1,0-0.2,0-0.3c0-0.3,0.1-0.5,0.2-0.8c0.5-1.7,1.4-3.2,2.7-4.5c0.2-0.2,0.4-0.4,0.6-0.5C110,54,110.1,54,110.2,53.9z"/>
		<path class="st10" d="M101.9,72.2l2.5-0.9l2.2-1.6l-0.5,1.3c0,0,5.1,0,5.3,0.2c0.2,0.2,0.2,0.4,0.1,0.6c0,0,0,0-0.1,0.1
			c-0.2,0.2-4.3,0.6-4.3,0.6s4.6,0.4,4.5,0.5c-0.1,0.1,0,0.6-0.6,0.7c-0.6,0.1-3.2,0.4-3.2,0.4l3.5,0.2c0,0,0.2,0.5-0.6,0.7
			c-0.8,0.2-3.2,0.5-3.2,0.5s3.3-0.4,3.2,0c-0.1,0.4,0.1,0.8-0.4,0.8s-5.5,0.5-6.1,0.4c-0.6-0.1-3.2,0-3.2,0l0.1-4.5L101.9,72.2z"/>
		<path class="st10" d="M100.9,76.8c0,0,5.7,1.8,7.1,1.7s2.6-0.4,3.3-3c0.7-2.6,1.8-6,1.8-6l-6.1-0.8l-1.7,4.1l-4.4,0.3V76.8z"/>
		<path class="st4" d="M107,68.7c0,0-0.2-0.6,0-0.9c0.2-0.2,0.3-0.5,0.3-0.8c0,0,2-6.5,2.5-7.8s2.3-5,4.3-4.3s2.8,3.5,2.7,5.7
			c-0.1,2.2-0.7,15.2-0.7,15.2l-4.8-0.3l1.8-6L107,68.7z"/>
		<path class="st4" d="M116.2,75.8L116.2,75.8l-4.8-0.3l1.8-6l-6.1-0.8l0,0c0,0-0.2-0.6,0-0.9c0.2-0.2,0.3-0.5,0.3-0.8
			c0-0.1,2-6.5,2.5-7.8c0.4-1,0.9-2,1.6-2.9c0.3-0.5,0.8-0.9,1.3-1.2c0.4-0.3,0.9-0.4,1.4-0.2c1.1,0.4,1.8,1.4,2.1,2.3
			c0.4,1.1,0.6,2.3,0.6,3.5C116.8,62.9,116.2,75.7,116.2,75.8L116.2,75.8z M111.4,75.5l4.8,0.3c0-0.4,0.6-13,0.7-15.2
			c0.1-1.2-0.1-2.3-0.6-3.4c-0.3-0.8-1-1.9-2.1-2.2c-0.5-0.1-1-0.1-1.4,0.2c-0.5,0.3-0.9,0.7-1.3,1.2c-0.7,0.9-1.2,1.9-1.6,2.9
			c-0.5,1.3-2.5,7.7-2.5,7.8c-0.1,0.3-0.2,0.5-0.4,0.8c-0.2,0.3,0,0.8,0,0.9l6.1,0.8l0,0L111.4,75.5z"/>
		<path class="st4" d="M101.6,53.8c0,0-0.4,1.6,2.6,1.1c3-0.5,4.7-1.6,4.7-1.6l0.9,0.1l-9,7L101.6,53.8z"/>
		<path class="st4" d="M100.9,60.4L100.9,60.4l0.7-6.4c0-0.1,0-0.1,0-0.2l0,0v0.2c0,0.2,0.1,0.4,0.2,0.6c0.4,0.4,1.2,0.5,2.4,0.3
			c3-0.5,4.7-1.6,4.7-1.6l0,0l0.9,0.1h0L100.9,60.4z M101.6,54l-0.6,6.3l8.9-7l-0.9-0.1c-0.1,0.1-1.8,1.2-4.7,1.6
			c-1.2,0.2-2,0.1-2.4-0.3C101.7,54.4,101.6,54.2,101.6,54L101.6,54z"/>
		<path class="st4" d="M109,51.9c-0.1,0.1,0.8,1.4,0.8,1.4l-7,5.4l-0.7-2.5c0,0-1.7,1.8-1.8,1.7c-0.1-0.1,1-4.8,1-4.8l0.3-0.4
			l0.9,2.2L109,51.9z"/>
		<path class="st4" d="M102.9,58.7L102.9,58.7l-0.7-2.5c-0.1,0.1-0.5,0.5-0.9,0.9c-0.8,0.8-0.9,0.8-0.9,0.8l0,0c0,0,0,0,0.5-2.4
			c0.3-1.2,0.5-2.4,0.5-2.4l0,0l0.3-0.4l0,0l0.9,2.2l6.5-3l0,0c0.2,0.5,0.5,1,0.8,1.4l0,0l0,0L102.9,58.7z M102.1,56.2L102.1,56.2
			l0.7,2.5l7-5.4c0,0-0.2-0.4-0.4-0.7c-0.2-0.2-0.3-0.5-0.4-0.7l-6.4,3l0,0l-0.9-2.2l-0.3,0.4c-0.4,1.6-1,4.7-1,4.8
			C101,57.4,101.5,56.8,102.1,56.2L102.1,56.2z"/>
		<path class="st8" d="M109.9,53.3c0,0-0.1,0.1-0.1,0.1l-0.4,0.3l-1.3,1c-1.1,0.8-2.7,1.9-4.4,3.1l-0.6,0.4l-0.1,0.1v-0.2
			c0-0.6-0.1-1.1-0.2-1.6c-0.1-0.5-0.2-1-0.2-1.5l0.1,0l-1.6,2.1l-0.5,0.6c-0.1,0.1-0.1,0.1-0.2,0.2c0-0.1,0.1-0.2,0.1-0.2l0.4-0.6
			l1.6-2.2l0.1-0.2V55c0,0.5,0.1,1,0.2,1.5c0.1,0.5,0.2,1.1,0.2,1.7l-0.1-0.1l0.6-0.4c1.7-1.2,3.3-2.3,4.4-3.1l1.4-0.9l0.4-0.2
			C109.8,53.4,109.9,53.3,109.9,53.3z"/>
		<path class="st8" d="M113.7,67.4c0,0,0.2,0.1,0.3,0.3c0.4,0.6,0.2,1.3-0.4,1.7c0,0-0.1,0.1-0.1,0.1c-0.2,0.1-0.4,0.1-0.4,0.1
			s0.1-0.1,0.3-0.2c0.6-0.3,0.8-1,0.5-1.6C113.8,67.5,113.7,67.4,113.7,67.4z"/>
		<path class="st8" d="M114.2,65.9c0,0,0.1,0,0.2,0.2c0.1,0.2,0.2,0.5,0.2,0.7c0,0.3-0.1,0.5-0.3,0.7c-0.1,0.1-0.3,0.2-0.3,0.1
			c0,0,0.1-0.1,0.2-0.2c0.1-0.2,0.2-0.4,0.3-0.6c0-0.2,0-0.4-0.1-0.6C114.2,66,114.2,65.9,114.2,65.9z"/>
		<path class="st8" d="M116.3,60.6c-0.3,0.9-0.6,1.9-0.9,2.8c-0.3,0.9-0.7,1.8-1.1,2.7c0.3-0.9,0.6-1.9,0.9-2.8
			C115.5,62.4,115.8,61.5,116.3,60.6z"/>
		<path class="st8" d="M113.7,67.7c-0.3,0-0.5-0.1-0.8-0.2c-0.6-0.2-1.3-0.3-1.9-0.3c-0.7,0-1.3,0-2,0c-0.3,0-0.5,0.1-0.8,0.1
			c0.3-0.1,0.5-0.1,0.8-0.2c1.3-0.2,2.7,0,4,0.3C113.2,67.4,113.4,67.5,113.7,67.7z"/>
		<path class="st8" d="M113.4,66.6c0,0.1-1.1,0-2.4,0.1c-1.3,0.1-2.4,0.3-2.4,0.3c0.2-0.1,0.5-0.2,0.7-0.2c0.6-0.1,1.1-0.2,1.7-0.2
			c0.6,0,1.1-0.1,1.7,0C112.9,66.5,113.1,66.6,113.4,66.6z"/>
		<path class="st10" d="M101.9,72.2l2.5-0.9l2.2-1.6l-0.6,1.4c0,0,5.1,0,5.3,0.2c0.2,0.2,0.2,0.4,0.1,0.6c0,0,0,0-0.1,0.1
			c-0.2,0.2-4.3,0.6-4.3,0.6s4.6,0.4,4.5,0.5c-0.1,0.1,0,0.6-0.6,0.7c-0.6,0.1-3.2,0.4-3.2,0.4l3.5,0.2c0,0,0.2,0.5-0.6,0.7
			c-0.8,0.2-3.2,0.5-3.2,0.5s3.3-0.4,3.2,0c-0.1,0.4,0.1,0.8-0.4,0.8s-5.5,0.5-6.1,0.4c-0.6-0.1-8.7,0.3-8.7,0.3l0.3-6.3L101.9,72.2
			z"/>
		<path class="st11" d="M101.9,72.2l-0.1,0l-0.3-0.1l-1.2-0.3l-4.6-1l0.1,0c-0.1,1.8-0.2,3.9-0.3,6.3l-0.1-0.1l4.2-0.2l2.3-0.1
			c0.8,0,1.6-0.1,2.4,0c1.6-0.1,3.3-0.2,5-0.4l0.6,0h0.3c0.1,0,0.2,0,0.2-0.1c0.1-0.1,0.1-0.4,0.1-0.6c0,0,0-0.1,0,0l0,0h0
			c0,0-0.1,0-0.1,0c-0.1,0-0.2,0-0.3,0c-0.9,0-1.8,0.1-2.7,0.2l0-0.2l1.1-0.2l1.6-0.3c0.3,0,0.5-0.1,0.8-0.2c0.1,0,0.2-0.1,0.3-0.2
			c0.1-0.1,0.1-0.2,0.1-0.3l0.1,0.1l-3.5-0.2v-0.2l2.3-0.3l0.6-0.1c0.2,0,0.4,0,0.5-0.1c0.2-0.1,0.3-0.2,0.3-0.4l0-0.1
			c0,0,0-0.1,0-0.1l0,0l0,0c0,0,0,0,0,0c0,0,0,0,0,0.1l0,0l0,0h0l-0.1,0l-0.1,0c-1.4-0.2-2.9-0.3-4.2-0.4v-0.1c1-0.1,2-0.2,3-0.3
			c0.2,0,0.5-0.1,0.7-0.1c0.1,0,0.2,0,0.3-0.1c0.1,0,0.2,0,0.3-0.1c0.1-0.1,0.1-0.4,0-0.5c0,0,0,0,0,0c0-0.1-0.2-0.1-0.3-0.1l-0.3,0
			c-1.7-0.1-3.3-0.1-4.7-0.1h-0.1l0-0.1l0.6-1.4l0.1,0.1l-2.2,1.6l0,0l-1.9,0.6l-0.5,0.2C101.9,72.2,101.9,72.2,101.9,72.2l0.2-0.1
			l0.5-0.2l1.9-0.7l0,0l2.2-1.6l0.1-0.1l-0.1,0.2c-0.2,0.4-0.4,0.9-0.6,1.4l0-0.1c1.4,0,3,0,4.7,0.1l0.3,0l0.2,0l0.1,0
			c0,0,0.1,0,0.1,0.1c0.1,0.1,0.1,0.2,0.1,0.4c0,0.1-0.1,0.3-0.2,0.3c-0.1,0-0.1,0.1-0.2,0.1c-0.1,0-0.1,0-0.2,0
			c-0.1,0-0.2,0-0.3,0.1c-0.2,0-0.5,0.1-0.7,0.1c-1,0.1-1.9,0.2-3,0.3v-0.1c1.4,0.1,2.8,0.2,4.2,0.4l0.1,0l0.1,0h0l0,0c0,0,0,0,0,0
			c0,0,0,0.1,0,0.1c0,0.1,0,0,0,0l0,0c0,0,0,0,0,0c0,0,0,0,0,0l0,0.1c0,0.1-0.1,0.2-0.1,0.3c-0.1,0.1-0.2,0.1-0.3,0.2
			c-0.2,0.1-0.4,0.1-0.6,0.1l-0.6,0.1l-2.3,0.3V74l3.5,0.2h0.1l0,0.1c0,0.2,0,0.3-0.1,0.4c-0.1,0.1-0.2,0.2-0.4,0.3
			c-0.3,0.1-0.5,0.1-0.8,0.2l-1.6,0.3l-1.1,0.2l0-0.2c0.9-0.1,1.8-0.2,2.7-0.2c0.1,0,0.2,0,0.3,0c0.1,0,0.1,0,0.2,0.1l0.1,0
			c0,0,0,0,0,0.1c0,0,0,0.1,0,0.1c0,0.1,0,0.2,0,0.3c0,0.1,0,0.3-0.1,0.4c-0.1,0.1-0.2,0.1-0.4,0.1l-0.3,0l-0.6,0
			c-1.7,0.1-3.4,0.3-5,0.4c-0.8,0-1.6,0-2.4,0L99.6,77l-4.2,0.2h-0.1v-0.1c0.1-2.4,0.2-4.6,0.3-6.3v-0.1h0.1l4.5,1l1.2,0.3
			L101.9,72.2C101.8,72.1,101.8,72.2,101.9,72.2z"/>
		<g class="st13">
			<path d="M107.2,67.4c-0.3-1.8-0.1-3.7,0.5-5.5c0.5-1.8,1.2-3.5,2-5.2c-1,0.9-1.7,2-2.1,3.3c-0.4,1.3-0.8,2.5-1,3.9
				c-0.2,1.4-0.4,3,0.4,4.2L107.2,67.4"/>
		</g>
	</g>
	<g id="freepik--character-1--inject-15">
		<path class="st5" d="M46.6,136.8l0,11.5l14.3,0c-0.1-1.4-7.5-4.1-7.5-4.1l0.3-7.4L46.6,136.8z"/>
		<g class="st6">
			<path class="st7" d="M49,143.6c-0.3,0.1-0.5,0.4-0.4,0.7c0.1,0.3,0.4,0.5,0.7,0.4c0.3-0.1,0.5-0.4,0.4-0.7
				C49.6,143.7,49.2,143.5,49,143.6"/>
		</g>
		<g class="st6">
			<path class="st7" d="M46.6,148.4v-1.2l13.8,0.5c0,0,0.6,0.3,0.6,0.7L46.6,148.4z"/>
		</g>
		<path class="st4" d="M53.7,144.2c0,0.1-0.4,0.1-0.7,0.3c-0.3,0.2-0.5,0.5-0.6,0.5c-0.1,0,0-0.4,0.5-0.7
			C53.3,144,53.7,144.1,53.7,144.2z"/>
		<path class="st4" d="M55.2,144.8c0,0.1-0.3,0.2-0.5,0.5s-0.3,0.6-0.4,0.6c-0.1,0-0.1-0.4,0.2-0.8
			C54.8,144.8,55.2,144.7,55.2,144.8z"/>
		<path class="st4" d="M56,146.6c-0.1,0-0.2-0.3,0-0.7c0.2-0.4,0.5-0.5,0.5-0.5s-0.2,0.3-0.3,0.6S56.1,146.6,56,146.6z"/>
		<path class="st4" d="M53.5,142.5c0,0.1-0.3,0-0.7,0c-0.4,0-0.7,0.1-0.7,0.1c0-0.1,0.3-0.3,0.7-0.3
			C53.2,142.3,53.6,142.4,53.5,142.5z"/>
		<path class="st4" d="M53.2,140.8c-0.2,0.1-0.5,0.1-0.7,0c-0.3,0-0.5-0.1-0.8-0.2c-0.1-0.1-0.3-0.1-0.4-0.2c-0.1,0-0.2-0.1-0.2-0.2
			c-0.1-0.1-0.1-0.3,0-0.4c0.1-0.1,0.2-0.2,0.3-0.2c0.1,0,0.2,0,0.3,0c0.2,0,0.3,0.1,0.4,0.2c0.2,0.1,0.5,0.3,0.6,0.4
			C53.1,140.6,53.2,140.8,53.2,140.8c-0.1,0.1-0.2-0.1-0.6-0.4c-0.2-0.1-0.4-0.3-0.6-0.4c-0.1-0.1-0.3-0.1-0.4-0.1
			c-0.2,0-0.3,0-0.3,0c0,0.1,0,0,0,0.1c0,0,0.1,0.1,0.2,0.1c0.1,0.1,0.2,0.2,0.4,0.2c0.2,0.1,0.5,0.2,0.7,0.3
			C52.8,140.7,53,140.7,53.2,140.8z"/>
		<path class="st4" d="M53.1,140.9c0,0-0.2-0.2-0.2-0.7c0-0.4,0.1-0.8,0.3-1.2c0.1-0.2,0.3-0.3,0.5-0.4c0.1,0,0.2,0.1,0.3,0.2
			c0,0.1,0.1,0.2,0.1,0.3c0,0.2,0,0.3,0,0.5c0,0.3-0.2,0.5-0.3,0.7c-0.3,0.4-0.6,0.5-0.6,0.4c0,0,0.2-0.2,0.4-0.5
			c0.1-0.2,0.2-0.4,0.2-0.7c0-0.1,0-0.3,0-0.4c0-0.2-0.1-0.3-0.1-0.3s-0.2,0.1-0.3,0.2c-0.1,0.1-0.1,0.3-0.2,0.4
			c-0.1,0.2-0.1,0.5-0.1,0.7C53.1,140.6,53.2,140.9,53.1,140.9z"/>
		<path class="st5" d="M26,135.5l-1.7,11.4l14.2,2.2c0.1-1.4-6.8-5.2-6.8-5.2l1.4-7.3L26,135.5z"/>
		<g class="st6">
			<path class="st7" d="M27.4,142.5c-0.3,0-0.5,0.3-0.5,0.6c0,0.3,0.3,0.5,0.6,0.5c0.3,0,0.5-0.3,0.5-0.6
				C27.9,142.7,27.6,142.5,27.4,142.5"/>
		</g>
		<g class="st6">
			<path class="st7" d="M24.3,146.8l0.2-1.1l13.5,2.5c0,0,0.6,0.4,0.4,0.8L24.3,146.8z"/>
		</g>
		<path class="st4" d="M31.9,143.8c0,0.1-0.4,0-0.7,0.2c-0.4,0.2-0.6,0.4-0.7,0.4c-0.1,0,0.1-0.4,0.6-0.6S31.9,143.7,31.9,143.8z"/>
		<path class="st4" d="M33.3,144.6c0,0.1-0.3,0.1-0.6,0.4c-0.3,0.3-0.4,0.6-0.5,0.5c-0.1,0-0.1-0.4,0.3-0.7
			C32.9,144.5,33.3,144.5,33.3,144.6z"/>
		<path class="st4" d="M33.9,146.5c-0.1,0-0.1-0.4,0.1-0.7c0.2-0.4,0.6-0.5,0.6-0.4c0,0.1-0.2,0.2-0.4,0.5
			C34,146.2,33.9,146.5,33.9,146.5z"/>
		<path class="st4" d="M32,142.1c0,0.1-0.3-0.1-0.7-0.1c-0.4,0-0.7,0-0.7,0s0.3-0.3,0.8-0.2S32.1,142,32,142.1z"/>
		<path class="st4" d="M31.9,140.3c-0.2,0-0.5,0-0.7-0.1c-0.2-0.1-0.5-0.2-0.7-0.3c-0.1-0.1-0.3-0.2-0.4-0.3
			c-0.1-0.1-0.1-0.1-0.2-0.2c-0.1-0.1-0.1-0.3,0-0.4c0.1-0.1,0.2-0.1,0.3-0.1c0.1,0,0.2,0,0.3,0.1c0.4,0.2,0.7,0.4,1,0.7
			C31.9,140.1,31.9,140.4,31.9,140.3c-0.1,0.1-0.2-0.2-0.5-0.5c-0.2-0.2-0.4-0.3-0.6-0.5c-0.1-0.1-0.3-0.1-0.4-0.2
			c-0.1-0.1-0.3-0.1-0.3,0c0,0.1,0,0,0,0.1c0,0.1,0.1,0.1,0.1,0.1c0.3,0.3,0.6,0.5,1,0.6C31.5,140.2,31.7,140.2,31.9,140.3z"/>
		<path class="st4" d="M31.8,140.4c-0.1-0.2-0.1-0.5-0.1-0.7c0-0.4,0.2-0.8,0.5-1.2c0.1-0.2,0.3-0.3,0.5-0.3c0.1,0,0.2,0.1,0.3,0.2
			c0,0.1,0,0.2,0,0.3c0,0.2,0,0.3-0.1,0.5c-0.1,0.3-0.2,0.5-0.4,0.7c-0.3,0.3-0.6,0.4-0.6,0.3c0,0,0.2-0.1,0.5-0.5
			c0.2-0.2,0.3-0.4,0.3-0.6c0-0.1,0.1-0.3,0.1-0.4c0-0.2,0-0.3-0.1-0.3c-0.1,0-0.2,0.1-0.3,0.2c-0.1,0.1-0.2,0.2-0.2,0.4
			c-0.1,0.2-0.2,0.4-0.2,0.7C31.8,140.2,31.9,140.4,31.8,140.4z"/>
		<path class="st4" d="M54,106.6c0.1-3.5-0.7-25.4-0.7-25.4l-24.3,0.4c0.1,0.3-4.4,60.5-4.4,60.5l7.9,0.4l3.6-28.2
			c0,0,1.5-2.9,1.6-3.9c0.1-1.3,3.6-18.4,3.6-18.4s1.4,9.7,2.6,20.7c1.4,13,1.7,27.9,1.9,29.2l8.6-0.1
			C54.7,141.9,53.9,110.2,54,106.6z"/>
		<path class="st8" d="M42,84.4c0,0.3,0.1,0.6,0,0.9c0,0.6,0,1.3,0,2.2c0,0.4,0,0.8,0,1.2c0,0.3-0.1,0.7-0.3,1
			c-0.1,0.3-0.4,0.5-0.7,0.6c0.2-0.2,0.4-0.4,0.6-0.7c0.1-0.3,0.2-0.6,0.2-0.9c0-0.4,0-0.8,0-1.2c0-0.9,0-1.6,0.1-2.2
			C41.9,85,41.9,84.7,42,84.4z"/>
		<path class="st8" d="M41.2,85c0-0.1,0-0.1-0.1-0.2c-0.1-0.2-0.2-0.3-0.3-0.4c-0.2-0.2-0.5-0.2-0.8-0.1c-0.4,0.2-0.6,0.6-0.5,1
			c0.2,0.4,0.6,0.6,1,0.5c0.1,0,0.1-0.1,0.2-0.1c0.2-0.1,0.3-0.3,0.3-0.4C41.2,85.2,41.2,85.1,41.2,85c0,0,0,0.1,0,0.2
			c0,0.2-0.2,0.4-0.3,0.5C40.6,86,40.3,86,40,85.9c-0.5-0.2-0.8-0.7-0.6-1.2c0.2-0.5,0.7-0.8,1.2-0.6c0.1,0,0.2,0.1,0.3,0.2
			c0.2,0.1,0.3,0.3,0.3,0.5C41.2,85,41.2,85,41.2,85z"/>
		<path class="st8" d="M53.5,86.1c0,0-0.1,0-0.2,0c-0.2,0-0.4,0-0.6,0c-1.4-0.2-2.6-0.9-3.5-2c-0.1-0.2-0.2-0.3-0.3-0.5
			c-0.1-0.1-0.1-0.2-0.1-0.2s0.2,0.3,0.5,0.7c0.9,1.1,2.1,1.8,3.4,2C53.2,86.1,53.5,86.1,53.5,86.1z"/>
		<path class="st8" d="M36.9,113.2c0,0.1-0.1,0.2-0.2,0.2c-0.1,0.2-0.3,0.4-0.5,0.6c-0.5,0.5-1.1,1.2-1.8,2c-0.7,0.7-1.5,1.4-2,1.8
			c-0.3,0.2-0.5,0.4-0.6,0.5c-0.1,0.1-0.2,0.1-0.3,0.2c0.3-0.3,0.5-0.5,0.8-0.8c0.5-0.5,1.2-1.1,2-1.9s1.4-1.4,1.9-1.9
			C36.4,113.8,36.7,113.5,36.9,113.2z"/>
		<path class="st8" d="M53.1,44.6c0,0,1.8,0.7,2.4,4.2c0.7,3.5,1.9,25.6,1.9,25.6l-3.9,0.3L53.1,44.6z"/>
		<polygon class="st8" points="37.8,42.5 35.6,42.8 44.5,56.1 46.8,42.7 		"/>
		<path class="st5" d="M53.1,44.6c-1.7-0.8-6.2-1.9-6.2-1.9l-2.4,10.5l-8.9-10.4c0,0-6,0.8-7.1,1.5l0,0.1l4.6,17.2
			c0.2,0.7,0.1,1.4-0.2,2l-3.1,5l-0.4,7.8l-0.3,5.2c0,0,9.9,2.2,12.4,2.2C43.9,84,53.7,82,53.7,82s-0.5-28-0.5-30
			C53.2,49.8,53.1,44.6,53.1,44.6z"/>
		<g class="st12">
			<path class="st7" d="M29.7,70.5c0.6-0.4,23.7-2.5,23.7-2.5l0.1,5.2l-24.1,1.5l0.2-2.6L29.7,70.5z"/>
		</g>
		<g class="st12">
			<polygon class="st7" points="53.6,75.1 53.6,80.1 29.1,80.6 29.4,76.4 			"/>
		</g>
		<path class="st8" d="M28.5,62.4l1.4,6.2l3.3-5.2c0.3-0.4,0.4-1,0.2-1.5L31,53.8L28.5,62.4"/>
		<path class="st8" d="M28.5,44.3c-0.5,0.3-0.9,0.7-1.2,1.2c-0.4,0.7-6.6,20.9-6.6,21.8s3.9,12.2,3.9,12.2l6.3-2.4l-2.8-10.4
			l3.5-10.9L28.5,44.3z"/>
		<path class="st4" d="M28.2,67c0,0-0.3-0.4-0.8-0.6c-0.5-0.3-1-0.4-1-0.4C27.2,65.9,27.9,66.4,28.2,67L28.2,67z"/>
		<path class="st4" d="M28.1,66.8c0.1,0.1,0.1,0.3,0.1,0.4c0.1,0.3,0.2,0.7,0.3,1.1c0.3,0.9,0.6,2.2,1,3.6c0.4,1.4,0.8,2.7,1,3.7
			c0.1,0.5,0.2,0.9,0.2,1.1c0,0.1,0.1,0.3,0.1,0.4c-0.1-0.1-0.1-0.3-0.1-0.4c-0.1-0.3-0.2-0.7-0.3-1.1c-0.3-0.9-0.6-2.2-1-3.6
			s-0.8-2.7-1-3.7c-0.1-0.5-0.2-0.9-0.3-1.1C28.2,67,28.1,66.9,28.1,66.8z"/>
		<path class="st4" d="M30.9,57.5c0,0.1,0,0.3,0,0.4c0,0.2-0.1,0.6-0.2,1c-0.2,1.1-0.5,2.3-0.9,3.4c-0.4,1.3-0.9,2.4-1.2,3.3l-0.4,1
			c0,0.1-0.1,0.2-0.1,0.4c0-0.1,0-0.3,0.1-0.4c0.1-0.2,0.2-0.6,0.3-1c0.3-0.9,0.7-2,1.1-3.3c0.4-1.1,0.7-2.2,1-3.3
			c0.1-0.4,0.2-0.8,0.2-1C30.8,57.7,30.9,57.6,30.9,57.5z"/>
		<path class="st14" d="M31.1,89.4c1.2-0.5,2.2-1.4,3.1-2.4c0,0,0-0.1,0-0.1c0,0,0.1,0,0.1,0c0.3-0.4,0.7-0.8,1-1.3
			C34.5,85,33.5,84,34.7,84c1.5,0,2.6-0.6,2.8-0.9c0.2-0.4-0.2-0.8-0.6-0.6c-0.5,0.2-1,0.3-1.5,0.3c-0.4,0-0.8,0-1.2-0.1
			c-0.2-0.1-1-0.8-1.9-1.3c-0.1-0.1-0.3-0.1-0.4-0.1l-0.3-0.1c-0.4-0.1-0.7-0.3-0.8-0.7L30,77.5l-4.4,1.7l2.4,5.2
			C28,84.4,29.8,87.6,31.1,89.4z"/>
		<path class="st8" d="M30.2,89.8c0.3-0.1,0.7-0.2,1-0.3c1.6-0.7,2.9-1.8,3.8-3.2c0.2-0.3,0.4-0.6,0.5-0.9c-0.1,0-0.8,1.4-2.3,2.7
			C31.7,89.2,30.2,89.7,30.2,89.8z"/>
		<path class="st4" d="M44,84c0,0,0-6.9,0.1-15.4c0.1-8.5,0.2-15.4,0.2-15.4c0,0,0,6.9-0.1,15.4C44.2,77.1,44.1,84,44,84z"/>
		<path class="st14" d="M56.5,74.5v8l-3.8,3.6c0,0-3-0.4-3.6-2.2l2.4-2.3c0,0-1.3,0.6-2,0c-0.7-0.6-0.6-0.9,0-0.7
			c0.6,0.2,1.6,0,2-0.3c0.6-0.4,1.2-0.7,1.8-1.1h0.4l-0.1-5.1H56.5z"/>
		<path class="st5" d="M49.6,29.3c1.4-0.4,2.3-0.9,2.3-1.5c0-0.6-2.5-1.9-3-2.2c-1.3-0.8-2.9,0.2-5.3,0.2c-4.6,0.1-8.3,1-8.3,2.2
			c0,0.6,0.9,1,2.3,1.4"/>
		<g class="st9">
			<path d="M48.8,29.2c1.3-0.3,2.1-0.8,2-1.3c-0.1-1.4-3.3-1.8-7.4-1.7c-4.1,0.1-7.3,0.9-7.3,1.9c0,0.5,0.8,0.9,2,1.2"/>
		</g>
		<path class="st14" d="M49.4,28.2c-0.2-3.5-3-6.3-6.5-6.4h-0.3c-3.8,0.1-5.8,3.3-5.6,7.1l0.4,13.8c0.1,2.3,1.9,4.1,4.2,4.1l0,0
			c2.3,0,4.2-1.9,4.2-4.2c0,0,0,0,0,0c0-1,0-1.8,0-1.8c0,0,3.6-0.4,3.8-4C49.7,35,49.6,31.4,49.4,28.2z"/>
		<path class="st15" d="M45.8,40.8c-1.7-0.1-3.3-0.6-4.6-1.5c0,0,1,2.3,4.6,2.1V40.8z"/>
		<path class="st4" d="M48.2,31.2c0,0.3-0.2,0.5-0.5,0.5c-0.3,0-0.5-0.2-0.5-0.5c0,0,0,0,0,0c0-0.3,0.2-0.5,0.5-0.5
			C47.9,30.7,48.2,30.9,48.2,31.2C48.2,31.1,48.2,31.1,48.2,31.2z"/>
		<path class="st4" d="M48.6,29.9c-0.1,0.1-0.4-0.2-1-0.3c-0.6,0-1,0.3-1,0.2s0-0.2,0.2-0.3c0.2-0.2,0.5-0.2,0.8-0.2
			c0.3,0,0.6,0.1,0.8,0.3C48.6,29.8,48.6,29.9,48.6,29.9z"/>
		<path class="st4" d="M42.8,31.1c0,0.3-0.2,0.5-0.5,0.5c-0.3,0-0.5-0.2-0.5-0.5c0,0,0,0,0,0c0-0.3,0.2-0.5,0.5-0.5
			C42.6,30.6,42.8,30.8,42.8,31.1C42.8,31.1,42.8,31.1,42.8,31.1z"/>
		<path class="st4" d="M43.1,29.8c-0.1,0.1-0.4-0.2-1-0.3s-1,0.2-1,0.2c-0.1-0.1,0-0.2,0.2-0.3c0.2-0.2,0.5-0.2,0.8-0.2
			c0.3,0,0.6,0.1,0.8,0.3C43.1,29.7,43.2,29.8,43.1,29.8z"/>
		<path class="st4" d="M45,34c0.3-0.1,0.6-0.1,0.9-0.1c0.1,0,0.3,0,0.3-0.1c0-0.1,0-0.3-0.1-0.4l-0.4-1.1c-0.5-1.5-0.9-2.8-0.9-2.8
			c0.1,0,0.5,1.2,1.1,2.8l0.4,1.1c0.1,0.2,0.1,0.4,0.1,0.6c0,0.1-0.1,0.2-0.2,0.2c-0.1,0-0.2,0-0.2,0C45.6,34.1,45.3,34.1,45,34z"/>
		<path class="st4" d="M43.4,34.3c0.1,0,0.1,0.6,0.6,1c0.5,0.4,1.1,0.4,1.1,0.5S44.9,36,44.7,36c-0.4,0-0.7-0.1-1-0.4
			c-0.3-0.2-0.4-0.5-0.4-0.9C43.3,34.5,43.3,34.3,43.4,34.3z"/>
		<path class="st4" d="M43.3,28.2c-0.1,0.1-0.6,0.1-1.3,0.1s-1.2,0.2-1.3,0.1c0-0.1,0.1-0.2,0.3-0.3c0.3-0.2,0.6-0.3,0.9-0.3
			c0.3,0,0.7,0,1,0.1C43.2,28.1,43.3,28.2,43.3,28.2z"/>
		<path class="st4" d="M48.5,28.5c-0.1,0.1-0.5,0-0.9,0c-0.5,0-0.8,0.1-0.9-0.1c0-0.1,0-0.2,0.2-0.3c0.2-0.1,0.5-0.2,0.8-0.2
			c0.3,0,0.5,0.1,0.7,0.3C48.5,28.3,48.5,28.5,48.5,28.5z"/>
		<path class="st14" d="M37.8,31.1c-0.1,0-2.5-0.8-2.4,1.7c0,2.5,2.5,2,2.5,1.9C37.8,34.6,37.8,31.1,37.8,31.1z"/>
		<path class="st15" d="M37.1,33.7c0,0,0,0-0.1,0.1c-0.1,0-0.2,0-0.3,0c-0.3-0.1-0.5-0.5-0.5-1c0-0.2,0-0.4,0.1-0.6
			c0-0.2,0.2-0.3,0.3-0.3c0.1,0,0.2,0,0.3,0.1c0,0.1,0,0.1,0,0.1c0,0,0.1,0,0-0.1c0-0.1,0-0.1-0.1-0.2c-0.1-0.1-0.2-0.1-0.2-0.1
			c-0.2,0-0.4,0.2-0.4,0.4c-0.1,0.2-0.2,0.4-0.1,0.7c0,0.5,0.3,1,0.6,1.1c0.1,0,0.3,0,0.4-0.1C37,33.8,37.1,33.7,37.1,33.7z"/>
		<path class="st5" d="M50.7,27.3c0,0-1.3-4.9-1.4-5.1c-0.1-0.2-1.5-2.4-4.9-2.9l-2.7,0c0,0-3.9,1.3-4.6,2.3s-0.9,5.6-0.9,5.6
			l7.7-1.8l5.3,1.2L50.7,27.3z"/>
		<path class="st5" d="M43.6,18.7h0.8c0.3,0,0.6,0.2,0.7,0.5c0.1,0.2,0.2,0.5,0.2,0.8c0.1,0.9,0.3,6.7,0.3,6.7l-3.4-0.1l0-7.2
			L41,19.6l0-0.2c0-0.1,0.1-0.3,0.1-0.3l0,0c0.1-0.1,0.3-0.2,0.5-0.2L43.6,18.7z"/>
		<path class="st8" d="M49.5,28l-0.1-1.9L44,24.5l-7,2.4v1.7C41,27.3,45.3,27,49.5,28z"/>
		<path class="st5" d="M48.8,25.6l0.2,0.2l1.8,1.3c-2.4-0.7-4.8-1.1-7.3-1.1c-2.4,0.1-5.1,0.7-6.6,1.1c-0.8,0.2-1.3,0.3-1.3,0.3
			l2.4-1.5l0,0c0.8-0.8,1.8-1.3,3-1.4l4.7-0.2C46.9,24.4,48,24.8,48.8,25.6z"/>
		<path class="st4" d="M50.4,27.2c0,0,0,0-0.1-0.1C50.1,27,50,27,49.9,26.9c-0.5-0.2-1-0.4-1.5-0.5c-1.7-0.4-3.5-0.4-5.3-0.2
			c-1,0.1-2,0.2-2.9,0.3c-0.8,0.1-1.6,0.3-2.3,0.5c-0.3,0.1-0.6,0.2-0.9,0.3c-0.2,0.1-0.4,0.2-0.6,0.4c-0.1,0.1-0.2,0.3-0.2,0.4
			c0,0.1,0,0.1,0,0.2c0-0.2,0.1-0.4,0.2-0.5c0.2-0.1,0.4-0.3,0.6-0.3c0.3-0.1,0.5-0.2,0.9-0.3c0.6-0.2,1.4-0.3,2.3-0.5
			s1.9-0.2,2.9-0.3c1.8-0.2,3.5-0.1,5.3,0.2c0.5,0.1,1,0.2,1.5,0.5C50.2,27.1,50.4,27.2,50.4,27.2z"/>
		<path class="st4" d="M50.9,26.9c-0.1,0-0.1,0-0.2-0.1l-0.4-0.2l-1.5-0.9l0,0l0,0c-0.1-0.1-0.2-0.3-0.4-0.5
			c-0.1-0.2-0.3-0.3-0.4-0.5c-0.2-0.1-0.4-0.2-0.6-0.3c-0.2,0-0.5-0.1-0.7-0.1c-1,0-2,0-3.2,0.1c-1,0-2,0.1-3,0.2
			c-0.2,0-0.4,0-0.6,0.1c-0.2,0.1-0.4,0.2-0.5,0.3c-0.3,0.3-0.5,0.6-0.8,0.9l0,0l0,0l-1.8,0.9L36.4,27c-0.1,0-0.1,0.1-0.2,0.1
			c0.1,0,0.1-0.1,0.2-0.1l0.5-0.3l1.8-0.9h0c0.2-0.3,0.5-0.6,0.8-0.9c0.2-0.2,0.3-0.3,0.6-0.4c0.2-0.1,0.4-0.1,0.7-0.1
			c0.9-0.1,1.9-0.1,3-0.2c1.1,0,2.2-0.1,3.2,0c0.2,0,0.5,0,0.7,0.1c0.2,0.1,0.4,0.2,0.6,0.3c0.2,0.1,0.3,0.3,0.4,0.5l0.3,0.5l0,0
			l1.5,0.9l0.4,0.3C50.9,26.8,50.9,26.8,50.9,26.9z"/>
		<path class="st4" d="M42.2,24.4c0-0.1,0-0.2,0-0.2c0-0.2,0-0.4,0-0.6c0-0.6,0-1.3,0-2.2c0-0.4,0-0.8,0-1.2c0-0.2,0-0.4,0-0.5
			c0-0.1-0.1-0.2-0.2-0.2c0,0,0,0,0,0l-0.6,0.1c-0.1,0-0.2,0-0.2,0c0.1,0,0.1-0.1,0.2-0.1c0.2,0,0.4-0.1,0.6-0.2
			c0.2,0,0.3,0.1,0.3,0.3c0,0,0,0,0,0v0.5c0,0.4,0,0.8,0,1.2c0,0.8,0,1.6,0,2.2c0,0.3,0,0.5,0,0.6C42.2,24.3,42.2,24.3,42.2,24.4z"
			/>
		<path class="st4" d="M45.5,24.3c-0.1-0.2-0.1-0.5-0.1-0.7c0-0.4-0.1-1.1-0.1-1.7c0-0.7-0.1-1.3-0.1-1.7c0-0.2,0-0.5,0-0.7
			c0,0.2,0.1,0.5,0.1,0.7c0,0.4,0.1,1.1,0.1,1.7c0,0.7,0.1,1.3,0.1,1.7C45.5,23.8,45.5,24.1,45.5,24.3z"/>
	</g>
	<g id="freepik--character-2--inject-15">
		<path class="st8" d="M71.5,139.1l0.2,9l-11.1,0.3c0-1.1,5.7-3.3,5.7-3.3l-0.3-5.7L71.5,139.1z"/>
		<g class="st6">
			<path class="st7" d="M69.7,144.5c0.2,0.1,0.4,0.3,0.3,0.5c-0.1,0.2-0.3,0.4-0.5,0.3c-0.2-0.1-0.4-0.3-0.3-0.5
				C69.3,144.5,69.5,144.4,69.7,144.5"/>
		</g>
		<g class="st6">
			<path class="st7" d="M71.7,148.1l0-0.9L61,147.8c0,0-0.5,0.2-0.4,0.6L71.7,148.1z"/>
		</g>
		<path class="st4" d="M66.1,145c0,0.1,0.3,0.1,0.5,0.2c0.3,0.2,0.4,0.4,0.5,0.4s0-0.3-0.4-0.5C66.4,144.8,66.1,144.9,66.1,145z"/>
		<path class="st4" d="M65,145.5c0,0.1,0.2,0.1,0.4,0.4c0.2,0.2,0.3,0.5,0.3,0.5c0.1,0,0.1-0.3-0.2-0.6
			C65.3,145.5,65,145.4,65,145.5z"/>
		<path class="st4" d="M64.3,146.9c0.1,0,0.1-0.3,0-0.6c-0.1-0.3-0.4-0.4-0.4-0.4c0,0,0.1,0.2,0.3,0.4
			C64.3,146.7,64.3,146.9,64.3,146.9z"/>
		<path class="st4" d="M66.2,143.7c0,0,0.3,0,0.6,0s0.5,0.1,0.6,0.1c0,0-0.2-0.2-0.6-0.2C66.4,143.4,66.2,143.6,66.2,143.7z"/>
		<path class="st4" d="M66.4,142.3c0.2,0,0.4,0,0.6,0c0.2,0,0.4-0.1,0.6-0.2c0.1-0.1,0.2-0.1,0.3-0.2c0.1,0,0.1-0.1,0.2-0.1
			c0.1-0.1,0.1-0.2,0-0.3c-0.1-0.1-0.1-0.1-0.2-0.1c-0.1,0-0.1,0-0.2,0c-0.1,0-0.2,0.1-0.3,0.1c-0.2,0.1-0.4,0.2-0.5,0.3
			C66.5,142.2,66.4,142.4,66.4,142.3c0,0.1,0.2-0.1,0.4-0.3c0.1-0.1,0.3-0.2,0.5-0.3c0.1,0,0.2-0.1,0.3-0.1c0.1,0,0.2,0,0.3,0
			s0,0,0,0.1c0,0-0.1,0.1-0.1,0.1c-0.1,0.1-0.2,0.1-0.3,0.2c-0.2,0.1-0.3,0.2-0.5,0.2C66.8,142.2,66.6,142.3,66.4,142.3z"/>
		<path class="st4" d="M66.5,142.4c0.1-0.2,0.1-0.4,0.1-0.5c0-0.2,0-0.4-0.1-0.6c0-0.1-0.1-0.2-0.2-0.3c-0.1-0.1-0.2-0.3-0.4-0.3
			c-0.1,0-0.2,0.1-0.2,0.2c0,0.1,0,0.1-0.1,0.2c0,0.1,0,0.3,0,0.4c0,0.2,0.1,0.4,0.3,0.6c0.2,0.3,0.5,0.3,0.5,0.3
			c0,0-0.2-0.1-0.3-0.4c-0.1-0.2-0.2-0.3-0.2-0.5c0-0.1,0-0.2,0-0.3c0-0.1,0.1-0.2,0.1-0.2s0.2,0.1,0.2,0.2c0.1,0.1,0.1,0.2,0.1,0.3
			c0.1,0.2,0.1,0.4,0.1,0.6C66.5,142.2,66.5,142.4,66.5,142.4z"/>
		<path class="st8" d="M78.4,139.4l-0.2,9l11.1,0.3c0-1.1-5.7-3.3-5.7-3.3l0.3-5.7L78.4,139.4z"/>
		<g class="st6">
			<path class="st7" d="M80.1,144.7c-0.2,0.1-0.4,0.3-0.3,0.5c0.1,0.2,0.3,0.4,0.5,0.3c0.2-0.1,0.4-0.3,0.3-0.5
				C80.6,144.8,80.3,144.7,80.1,144.7"/>
		</g>
		<g class="st6">
			<path class="st7" d="M78.2,148.4v-0.9l10.7,0.6c0,0,0.5,0.2,0.4,0.6L78.2,148.4z"/>
		</g>
		<path class="st4" d="M83.8,145.2c0,0.1-0.3,0.1-0.5,0.2s-0.4,0.4-0.5,0.4s0-0.3,0.4-0.5S83.8,145.2,83.8,145.2z"/>
		<path class="st4" d="M84.9,145.8c0,0.1-0.2,0.1-0.4,0.4c-0.2,0.2-0.3,0.5-0.3,0.5c-0.1,0-0.1-0.3,0.2-0.6
			C84.6,145.7,84.9,145.7,84.9,145.8z"/>
		<path class="st4" d="M85.5,147.2c0,0-0.1-0.3,0-0.6s0.4-0.4,0.4-0.4s-0.1,0.2-0.3,0.4C85.6,146.9,85.6,147.2,85.5,147.2z"/>
		<path class="st4" d="M83.7,143.9c0,0-0.3,0-0.6,0c-0.3,0-0.5,0.1-0.6,0.1c0,0,0.2-0.2,0.6-0.2S83.7,143.9,83.7,143.9z"/>
		<path class="st4" d="M83.5,142.6c-0.2,0.1-0.4,0.1-0.6,0c-0.2,0-0.4-0.1-0.6-0.2c-0.1-0.1-0.2-0.1-0.3-0.2c-0.1,0-0.1-0.1-0.2-0.1
			c-0.1-0.1-0.1-0.2,0-0.3c0.1-0.1,0.1-0.1,0.2-0.1c0.1,0,0.1,0,0.2,0c0.1,0,0.2,0.1,0.3,0.1c0.2,0.1,0.4,0.2,0.5,0.3
			C83.4,142.4,83.4,142.6,83.5,142.6c0,0.1-0.2-0.1-0.4-0.3c-0.2-0.1-0.3-0.2-0.5-0.3c-0.1,0-0.2-0.1-0.3-0.1c-0.1,0-0.2,0-0.2,0
			c0,0,0,0,0,0.1c0,0,0.1,0.1,0.1,0.1c0.1,0.1,0.2,0.1,0.3,0.2c0.2,0.1,0.4,0.2,0.5,0.2C83.1,142.5,83.3,142.5,83.5,142.6z"/>
		<path class="st4" d="M83.4,142.7c-0.1-0.2-0.1-0.4-0.1-0.5c0-0.2,0-0.4,0.1-0.6c0-0.1,0.1-0.2,0.2-0.3c0.1-0.1,0.2-0.3,0.4-0.3
			c0.1,0,0.2,0.1,0.2,0.2c0,0.1,0,0.1,0.1,0.2c0,0.1,0,0.3,0,0.4c0,0.2-0.1,0.4-0.3,0.6c-0.2,0.3-0.5,0.3-0.5,0.3
			c0,0,0.2-0.1,0.3-0.4c0.1-0.2,0.2-0.3,0.2-0.5c0-0.1,0-0.2,0-0.3c0-0.1-0.1-0.2-0.1-0.2s-0.2,0.1-0.2,0.2
			c-0.1,0.1-0.1,0.2-0.1,0.3c-0.1,0.2-0.1,0.4-0.1,0.6C83.4,142.5,83.4,142.7,83.4,142.7z"/>
		<path class="st4" d="M59.2,94.7c0,0,2.2,22.2,2,23.2c-0.1,1,0.7,3.4,0.7,3.4s0.3,4.8,0,6.1c-0.3,1.3,0.1,4.4,0.1,4.4
			s2.3,6.3,2.7,8.5c0.2,1.5,0.3,3,0.4,4.5H72l1.7-25.9l1.6-12.2l2.3,38c0,0,7.6,0.2,7.2,0.1c-0.4-0.1,0.5-3.9,0.5-3.9l1.9-3.8
			c0,0,3.2-40,3.1-41.9c-0.1-1.4-14.7-0.9-22.4-0.5C65.1,94.8,59.2,94.7,59.2,94.7z"/>
		<polygon class="st8" points="90.4,97.6 90.4,96.3 66.4,95.6 66,97.6 		"/>
		<path class="st8" d="M63.3,111.5c1.4,0.1,2.7-0.9,2.8-2.4c0-0.1,0-0.1,0-0.2l0.2-11.3l0-2.1L59,95.4v3.2l-0.7-0.1l-0.8,3.2
			l-1.6,0.4l-0.2,5.6c0,0,2.2,2.7,3,3.2C59.1,111.1,61.4,111.3,63.3,111.5z"/>
		<path class="st1" d="M96,61.8c0,0-0.8-2.5-1.1-3.2c-0.3-0.6-1.8-2.7-1.8-2.7l-10.4-4.6c-1.3,1.5-3.2,2.4-5.2,2.2
			c-1.8-0.1-2.8-2.3-2.8-2.3l-9.4,0.6c-1.4,0.1-2.7,0.6-3.7,1.4c-3.3,2.6-9.9,8.1-9.9,8.1l-4.5-2.1c0,0-3.1,2.2-3,2.4s1.5,6.5,4,8
			c2.5,1.5,4.2,1.7,6.8,0c2.2-1.5,6.8-4.8,5-5.2c-2.1,12.3-4.4,24.8-1.4,30.9l33.3,0.9l-0.3-27.2l7.3,0.5L96,61.8z"/>
		<path class="st4" d="M96,61.8c0,0,0.1,0.2,0.2,0.5s0.3,0.9,0.6,1.5c0.5,1.3,1.2,3.3,2.2,5.9v0h-0.1l-7.3-0.5l0,0
			c0.1,7,0.2,16.3,0.3,27.2v0.1h-0.1l-33.3-0.9h0l0,0c-0.7-1.6-1.1-3.3-1.3-5c-0.2-1.7-0.2-3.5-0.1-5.2c0.2-3.6,0.6-7.2,1.1-10.7
			c0.5-3.4,1.1-6.7,1.7-10v-0.1l0.1,0c0.2,0,0.3,0.1,0.4,0.3c0.1,0.2,0,0.4-0.1,0.5c-0.1,0.3-0.3,0.5-0.6,0.8
			c-0.4,0.5-0.9,0.9-1.4,1.3c-1,0.8-2,1.5-3,2.2c-1,0.7-2.1,1.3-3.3,1.5c-0.6,0.1-1.2,0-1.8-0.1c-0.6-0.2-1.1-0.4-1.7-0.7
			c-0.1-0.1-0.3-0.1-0.4-0.2c-0.1-0.1-0.3-0.2-0.4-0.2c-0.1-0.1-0.2-0.2-0.4-0.3l-0.3-0.3c-0.1-0.1-0.2-0.2-0.3-0.3
			c-0.1-0.1-0.2-0.2-0.3-0.4c-0.2-0.2-0.3-0.5-0.5-0.7c-0.6-1-1-2.1-1.4-3.2c-0.2-0.5-0.4-1.1-0.5-1.6L44.1,62l-0.1-0.2l0-0.1
			c0,0,0,0,0-0.1l0,0c0,0,0,0,0-0.1c0.1-0.1,0.2-0.2,0.3-0.3c0.9-0.7,1.8-1.4,2.6-2l0,0l0,0l4.5,2.1h-0.1l5.6-4.5l2.7-2.2l1.3-1.1
			c0.4-0.4,0.9-0.7,1.4-0.9c0.5-0.3,1-0.4,1.5-0.6c0.5-0.1,1.1-0.2,1.6-0.2l3.1-0.2l5.9-0.4h0l0,0c0.4,0.8,1,1.4,1.7,1.9
			c0.7,0.4,1.6,0.4,2.4,0.3c1.5-0.2,2.9-1,3.9-2.1l0,0h0l10.4,4.6l0,0l0,0c0.6,0.9,1.2,1.7,1.6,2.4c0.2,0.3,0.4,0.7,0.5,1
			c0.1,0.3,0.2,0.6,0.3,0.9c0.2,0.5,0.3,0.9,0.4,1.2S96,61.8,96,61.8c0-0.1-0.2-0.6-0.5-1.6c-0.1-0.3-0.2-0.6-0.3-0.9
			c-0.1-0.4-0.3-0.7-0.5-1c-0.4-0.7-1-1.5-1.6-2.4l0,0l-10.4-4.6l0.1,0c-1,1.2-2.4,2-3.9,2.2c-0.2,0-0.4,0-0.6,0.1
			c-0.2,0-0.4,0-0.6,0c-0.4,0-0.8-0.1-1.2-0.3c-0.7-0.5-1.4-1.2-1.7-1.9l0.1,0l-5.8,0.4l-3.1,0.2c-0.5,0-1.1,0.1-1.6,0.2
			c-0.5,0.1-1,0.3-1.5,0.6c-0.5,0.3-0.9,0.6-1.4,0.9L60,54.7l-2.7,2.2l-5.6,4.6l0,0l0,0l-4.5-2.1h0.1c-0.9,0.6-1.8,1.3-2.6,2
			c-0.1,0.1-0.2,0.2-0.3,0.3c0,0,0,0,0,0l0,0c0,0,0,0-0.1,0c0,0,0.1,0,0.1,0v0v0v0.1l0.1,0.2c0.1,0.3,0.1,0.5,0.2,0.8
			c0.2,0.5,0.3,1.1,0.5,1.6c0.4,1.1,0.8,2.1,1.4,3.2c0.1,0.3,0.3,0.5,0.5,0.7c0.1,0.1,0.2,0.2,0.3,0.3c0.1,0.1,0.2,0.2,0.3,0.3
			c0.4,0.4,0.9,0.8,1.4,1c0.5,0.3,1.1,0.5,1.6,0.7c0.6,0.2,1.2,0.2,1.7,0.1c1.2-0.2,2.2-0.8,3.2-1.5s2-1.4,2.9-2.2
			c0.5-0.4,0.9-0.8,1.4-1.3c0.2-0.2,0.4-0.5,0.5-0.7c0.1-0.1,0.1-0.2,0.1-0.4c-0.1-0.1-0.2-0.2-0.3-0.2l0.1-0.1
			c-0.6,3.3-1.1,6.6-1.6,10c-0.6,3.5-0.9,7.1-1.1,10.7c-0.1,1.7,0,3.5,0.1,5.2c0.1,1.7,0.6,3.4,1.3,4.9l-0.1,0l33.3,1l-0.1,0.1
			c-0.1-10.9-0.2-20.2-0.3-27.2v0h0l7.3,0.5l0,0l-2.1-5.9c-0.2-0.7-0.4-1.2-0.5-1.5C96.1,61.9,96,61.8,96,61.8z"/>
		<path class="st5" d="M74.3,51.3c-0.3,0-9.7,0.2-9.7,0.2s-1.6,7-1.6,8.2c0,0.8-2.6,10.7-5.4,20.4c-1.7,5.8,0.3,16.2,0.3,16.2h10.4
			l1.5-9.8l4.1-28.8c0,0-0.5-2.8-0.2-4.5S74.3,51.3,74.3,51.3z"/>
		<g class="st12">
			<path class="st7" d="M56.9,86.1c0,1,0,2,0.1,3l12.3-0.5l0.3-2.5H56.9z"/>
		</g>
		<path class="st5" d="M93,55.9l-9.4-4.6l-2.3,4.9c0,0-3.3,7.1-3.6,14.1c-0.3,7-0.8,26.1-0.8,26.1l15.5,0.3l-2.8-34.5
			C89.5,62.1,92.7,56.8,93,55.9z"/>
		<g class="st12">
			<path class="st7" d="M87.8,53.3c0,0-0.8,1.3-1,2.2s-0.8,6.8-1.1,16.4c-0.3,9.6-0.3,10.2-0.3,10.2l2.6,0.1c0,0-0.6-17.7-0.1-19.4
				c0.5-1.7,2.6-8.2,2.6-8.2L87.8,53.3z"/>
		</g>
		<path class="st4" d="M84,59.9c0,0,0.1-0.4,0.3-1.1c0.2-0.9,0.3-1.8,0.3-2.7c0-0.9-0.1-1.8-0.2-2.7c-0.1-0.7-0.2-1.1-0.2-1.1
			c0,0.1,0.1,0.2,0.1,0.3c0.1,0.2,0.1,0.5,0.2,0.8c0.2,0.9,0.3,1.8,0.3,2.7c0,0.9-0.1,1.8-0.4,2.7c-0.1,0.3-0.2,0.5-0.3,0.8
			C84.1,59.7,84.1,59.8,84,59.9z"/>
		<g class="st12">
			<path class="st7" d="M68.7,58.6c0.6-2.6,1.7-5.1,3.4-7.2l-3.4,0.1c-1.8,1.5-2.9,3.8-3,6.2l1.2,0.3L68.7,58.6z"/>
		</g>
		<path class="st4" d="M65.6,99c-0.1,0.1-0.2,0.1-0.3,0.1c-0.2,0.1-0.4,0.2-0.8,0.3c-0.9,0.3-1.8,0.5-2.7,0.6
			c-0.9,0-1.9-0.2-2.7-0.7c-0.2-0.2-0.5-0.3-0.6-0.5c-0.1-0.1-0.1-0.2-0.2-0.3c0.3,0.3,0.6,0.5,0.9,0.7c0.8,0.4,1.7,0.7,2.6,0.6
			c0.9-0.1,1.8-0.2,2.7-0.5C64.9,99.2,65.2,99.1,65.6,99z"/>
		<path class="st8" d="M76.1,104.6c0,0-0.1,0.1-0.2,0.1c-0.3,0-0.5-0.1-0.7-0.3c-0.2-0.3-0.4-0.7-0.4-1c-0.1-0.4-0.1-0.8-0.2-1.3
			c-0.1-0.9-0.3-1.8-0.3-2.4c-0.1-0.3-0.1-0.7-0.1-1c0.1,0.3,0.2,0.6,0.2,1c0.1,0.6,0.2,1.4,0.4,2.4c0.1,0.5,0.1,0.9,0.2,1.3
			c0,0.3,0.1,0.7,0.3,1c0.2,0.2,0.4,0.3,0.6,0.3C76,104.7,76.1,104.6,76.1,104.6z"/>
		<path class="st8" d="M75.9,99c-0.2,0.1-0.3,0.3-0.3,0.5c-0.1,0.2,0,0.4,0.1,0.6c0.2,0.3,0.6,0.3,0.9,0.1c0.1-0.1,0.2-0.3,0.2-0.5
			c0-0.2-0.1-0.4-0.3-0.5C76.3,99.1,76.1,99,75.9,99c0,0,0,0,0.2-0.1c0.2,0,0.3,0,0.5,0.1c0.2,0.1,0.4,0.4,0.4,0.6
			c0,0.4-0.4,0.8-0.8,0.8c-0.2,0-0.4-0.1-0.5-0.3c-0.1-0.2-0.2-0.5-0.1-0.7c0-0.2,0.2-0.3,0.3-0.4C75.8,99,75.9,99,75.9,99z"/>
		<path class="st8" d="M89.9,99.9c-0.1,0.1-0.1,0.1-0.2,0.2c-0.2,0.2-0.4,0.3-0.6,0.4c-1.6,0.8-3.5,0.4-4.7-1
			c-0.2-0.2-0.3-0.4-0.4-0.6c0-0.1-0.1-0.2-0.1-0.3c0.2,0.3,0.4,0.6,0.6,0.8c1.1,1.3,2.9,1.7,4.5,1C89.3,100.3,89.6,100.1,89.9,99.9
			z"/>
		<path class="st8" d="M69.1,130.6c0,0-1.5-2.2-3.3-4.9c-1.8-2.7-3.2-4.9-3.2-5s1.5,2.2,3.3,4.9S69.1,130.5,69.1,130.6z"/>
		<path class="st8" d="M86.9,117.2c0,0.1-0.1,0.2-0.2,0.3c-0.1,0.2-0.3,0.5-0.6,0.8c-0.5,0.7-1.2,1.6-2,2.6c-0.8,1-1.7,1.8-2.3,2.4
			c-0.3,0.3-0.6,0.5-0.7,0.7c-0.1,0.1-0.2,0.2-0.3,0.2c0.1-0.1,0.2-0.2,0.2-0.3l0.7-0.7c0.6-0.6,1.4-1.5,2.2-2.4
			c0.8-1,1.6-1.9,2.1-2.6l0.6-0.8C86.7,117.4,86.8,117.3,86.9,117.2z"/>
		<path class="st4" d="M67.1,97.6c-0.1,0-0.2,0-0.3,0l-1,0l0,0c-0.1,0.7-0.1,1.7-0.1,2.8c0,1.2,0,2.5,0,3.9c0,1.1,0,2.2-0.1,3.2
			c0,0.9-0.3,1.7-0.7,2.5c-0.3,0.5-0.7,0.9-1.2,1.2c-0.1,0.1-0.3,0.1-0.4,0.2c-0.1,0-0.1,0-0.2,0c0.2-0.1,0.4-0.2,0.6-0.3
			c0.5-0.3,0.9-0.7,1.2-1.2c0.4-0.8,0.6-1.6,0.6-2.4c0.1-1,0-2,0.1-3.1c0-1.4,0-2.7,0.1-3.9c0-1,0-1.9,0.1-2.9v0h0l1,0
			C66.8,97.5,66.9,97.5,67.1,97.6z"/>
		<path class="st5" d="M71.1,39c-1.5-0.4-2.4-1-2.4-1.6c0-0.6,2.6-2,3.2-2.4c1.4-0.9,3.2,0.2,5.7,0.3c4.9,0.1,8.9,1.1,8.9,2.3
			c0,0.6-0.9,1.1-2.5,1.5"/>
		<g class="st9">
			<path d="M72,39c-1.3-0.4-2.2-0.9-2.2-1.4c0.1-1.5,3.6-1.9,7.9-1.9s7.9,1,7.9,2.1c0,0.5-0.8,1-2.2,1.3"/>
		</g>
		<path class="st0" d="M71.2,39.2c-0.5-0.1-0.9-0.5-1-1c-0.2-0.5,0.1-1,0.4-1.4c0.1-0.2,0.3-0.4,0.3-0.7c0.2-0.5-0.2-1.2-0.1-1.8
			s0.6-0.9,1.1-1.1c0.5-0.2,1.1-0.3,1.5-0.6c0.4-0.3,0.7-0.8,1.1-1.1c0.6-0.5,1.3-0.6,2-0.4c0.7,0.2,1.3,0.8,2,0.8
			c0.5,0.1,1.1-0.1,1.6-0.2c1.2,0,2.4,0.8,2.7,2c0.1,0.5,0.3,1,0.6,1.4c0.4,0.5,1.2,0.7,1.5,1.3c0.2,0.4,0.2,0.8,0,1.2
			c-0.2,0.4-0.3,0.8-0.3,1.2c0,0.7,0.5,1.2,1.1,1.4c-0.1,0.4-0.4,0.7-0.8,0.9c0.3,0.2,0.6,0.2,0.9,0.2c-0.5,1.5-2.2,2.4-3.8,1.8
			c-0.1,0-0.1,0-0.2-0.1"/>
		<path class="st16" d="M83,41.9c0.1,0,2.4-0.7,2.3,1.6c0,2.3-2.4,1.8-2.4,1.8S83,41.9,83,41.9z"/>
		<path class="st17" d="M83.6,44.4c0,0,0,0,0.1,0.1c0.1,0,0.2,0,0.3,0c0.3-0.2,0.5-0.5,0.5-0.9c0-0.2,0-0.4-0.1-0.6
			c0-0.2-0.2-0.3-0.3-0.3c-0.1,0-0.2,0-0.2,0.1c0,0.1,0,0.1,0,0.1c0,0,0,0,0-0.1c0-0.1,0-0.1,0.1-0.1c0.1,0,0.1-0.1,0.2-0.1
			c0.2,0,0.4,0.2,0.4,0.4c0.1,0.2,0.1,0.4,0.1,0.6c0,0.5-0.3,0.9-0.6,1C83.9,44.6,83.8,44.5,83.6,44.4
			C83.6,44.4,83.6,44.4,83.6,44.4z"/>
		<path class="st16" d="M78,32.5h-0.3c-3.3,0-6.1,2.7-6.3,6C71.1,41.6,71,45,71,46.7c0,3.7,3.6,3.9,3.6,3.9l0,0
			c0,2.2,1.7,3.9,3.9,3.9c0,0,0,0,0,0H79c2.1,0,3.9-1.7,3.9-3.8l0.3-11.4C83.4,35.7,81.6,32.6,78,32.5z"/>
		<path class="st17" d="M74.7,50.6c1.4,0,2.8-0.4,4-1.2c0,0,0.1,0,0.1,0c0,0,0,0.1,0,0.1c-0.4,0.6-1.5,1.9-4,1.9
			c-0.2,0-0.3-0.1-0.3-0.3L74.7,50.6C74.6,50.6,74.6,50.6,74.7,50.6C74.7,50.6,74.7,50.6,74.7,50.6z"/>
		<path class="st4" d="M72.5,41.3c0,0.3,0.2,0.5,0.5,0.5c0.3,0,0.5-0.2,0.5-0.4c0,0,0,0,0,0c0-0.3-0.2-0.5-0.5-0.5
			C72.8,40.8,72.6,41,72.5,41.3C72.5,41.3,72.5,41.3,72.5,41.3z"/>
		<path class="st4" d="M77.9,41.1c0,0.3,0.2,0.5,0.5,0.5c0.3,0,0.5-0.2,0.5-0.4c0,0,0,0,0,0c0-0.3-0.2-0.5-0.5-0.5
			C78.1,40.6,77.9,40.8,77.9,41.1C77.9,41.1,77.9,41.1,77.9,41.1z"/>
		<path class="st4" d="M72.1,40.3c0.1,0.1,0.4-0.2,1-0.2c0.5,0,0.9,0.3,1,0.2c0.1-0.1,0-0.1-0.2-0.3c-0.2-0.2-0.5-0.2-0.8-0.2
			c-0.3,0-0.5,0.1-0.8,0.3C72.1,40.1,72,40.3,72.1,40.3z"/>
		<path class="st4" d="M77.4,40.1c0.1,0.1,0.4-0.2,0.9-0.3c0.5,0,0.9,0.2,1,0.1s0-0.1-0.2-0.3c-0.2-0.1-0.5-0.2-0.8-0.2
			c-0.3,0-0.5,0.1-0.7,0.3C77.4,39.9,77.4,40,77.4,40.1z"/>
		<path class="st4" d="M75.5,44.1C75.2,44,74.9,44,74.6,44c-0.1,0-0.3,0-0.3-0.1c0-0.1,0-0.3,0.1-0.4c0.1-0.3,0.2-0.7,0.4-1
			c0.5-1.5,0.9-2.7,0.9-2.7c-0.1,0-0.5,1.2-1.1,2.6c-0.1,0.4-0.3,0.7-0.4,1c-0.1,0.2-0.1,0.4-0.1,0.5c0,0.1,0.1,0.2,0.2,0.2
			c0.1,0,0.2,0,0.2,0C74.9,44.1,75.2,44.1,75.5,44.1z"/>
		<path class="st4" d="M77,44.4c-0.1,0-0.1,0.6-0.6,1c-0.5,0.4-1.1,0.4-1.1,0.4c0,0.1,0.1,0.1,0.4,0.1c0.3,0,0.7-0.1,0.9-0.3
			c0.2-0.2,0.4-0.5,0.4-0.8C77.1,44.6,77.1,44.4,77,44.4z"/>
		<path class="st0" d="M77.2,37.8c0.1,0.1,0.6,0,1.2,0c0.6,0,1.1,0.1,1.2,0c0-0.1-0.1-0.2-0.3-0.3c-0.6-0.3-1.3-0.3-1.8,0
			C77.2,37.6,77.1,37.8,77.2,37.8z"/>
		<path class="st0" d="M72.2,38.9c0.1,0.1,0.5,0,0.9,0s0.8,0.1,0.9-0.1c0-0.1,0-0.2-0.2-0.3c-0.5-0.3-1-0.2-1.4,0.1
			C72.2,38.7,72.1,38.8,72.2,38.9z"/>
		<path class="st0" d="M75.1,32.2c1.2-0.5,2.4-0.3,3.7-0.2c1,0.1,2,0.4,2.8,1c1.3,0.9,2,2.4,2.2,4.1c0.1,1.6,0,3.1-0.3,4.7l-0.1,0
			c0.1,0.4,0.1,0.8,0.1,1.2c-0.1,0.4-0.5,0.6-0.9,0.6C82,43.3,82,42.7,82,42.2c0.1-1.6,0-3.2-0.2-4.8c-0.1-1.2-0.8-2.6-1.8-3.2
			c-2.1-1.2-3.7,0-4.4,0.3c-1.2-0.9-2.4-0.3-3.1,0.5C72.8,33.8,73.9,32.7,75.1,32.2z"/>
		<path class="st2" d="M84.5,36c0,0.1-0.1,0.2-0.4,0.2c-0.4,0-0.8,0-1.2-0.1c-0.5-0.2-1.1-0.4-1.5-0.8c-0.5-0.3-1-0.7-1.6-1
			c-0.5-0.3-1-0.5-1.6-0.5c-0.5,0-0.9,0.1-1.4,0.2c-0.8,0.3-1.2,0.7-1.3,0.6c0,0,0-0.1,0-0.2c0-0.1,0.1-0.2,0.1-0.3
			c0.2-0.3,0.5-0.6,0.8-0.9c0.5-0.3,1.1-0.5,1.7-0.6c0.4,0,0.7,0,1.1,0.1c0.4,0.1,0.7,0.3,1.1,0.4c0.6,0.4,1.1,0.7,1.6,1.2
			c0.4,0.3,0.8,0.6,1.2,0.9c0.3,0.2,0.6,0.3,0.9,0.4C84.4,35.8,84.5,35.9,84.5,36z"/>
		<path class="st2" d="M84.6,37.9c-0.1,0.1-0.3,0.1-0.4,0.1c-0.8,0.1-1.5-0.2-2.1-0.7c-0.1-0.1-0.2-0.2-0.3-0.3
			c0.1,0.1,0.2,0.2,0.4,0.3c0.6,0.4,1.3,0.7,2,0.6C84.5,37.9,84.6,37.9,84.6,37.9z"/>
		<path class="st2" d="M85.7,40.2c0,0-0.1,0-0.2,0c-0.2,0-0.3-0.1-0.5-0.2c-0.5-0.2-1-0.5-1.4-0.8c-0.5-0.3-0.9-0.7-1.2-1.1
			c-0.1-0.1-0.2-0.3-0.3-0.4c0,0-0.1-0.1-0.1-0.1c0.2,0.2,0.3,0.3,0.5,0.5c0.4,0.4,0.8,0.7,1.2,1.1c0.4,0.3,0.9,0.6,1.4,0.8
			C85.4,40.1,85.7,40.2,85.7,40.2z"/>
		<path class="st2" d="M77.5,31.7c0,0-0.2,0.1-0.5,0.2c-0.4,0.2-0.8,0.4-1.1,0.8c-0.3,0.3-0.4,0.8-0.5,1.2c0,0.2,0,0.4,0.1,0.5
			c0,0-0.1-0.1-0.1-0.1c-0.1-0.1-0.1-0.3-0.1-0.4c0-0.5,0.1-0.9,0.4-1.3c0.3-0.3,0.7-0.6,1.1-0.8C77.1,31.8,77.3,31.7,77.5,31.7z"/>
		<path class="st2" d="M76.2,31c0,0-0.2,0.1-0.4,0.4c-0.7,0.7-0.9,1.6-0.6,2.5c0.1,0.3,0.2,0.5,0.2,0.5c0,0,0,0-0.1-0.1
			c-0.1-0.1-0.1-0.2-0.2-0.4c-0.4-0.9-0.1-1.9,0.6-2.6c0.1-0.1,0.2-0.2,0.3-0.3C76.1,31,76.2,30.9,76.2,31z"/>
		<path class="st2" d="M83.3,42.2c-0.3,0-0.6-0.1-0.8-0.3c-0.2-0.1-0.4-0.4-0.5-0.6c0,0,0.2,0.3,0.6,0.5
			C83,42.1,83.4,42.2,83.3,42.2z"/>
		<path class="st2" d="M83.5,42.6c-0.6,0-1.2-0.3-1.5-0.8c0.2,0.2,0.5,0.4,0.7,0.5C82.9,42.5,83.2,42.6,83.5,42.6z"/>
		<path class="st2" d="M72.3,35.6c-0.1,0-0.2,0-0.3-0.1c-0.2-0.1-0.4-0.3-0.6-0.6c-0.1-0.2-0.2-0.5-0.2-0.8c0-0.1,0-0.2,0.1-0.3
			c0,0.1,0,0.2,0,0.3c0,0.3,0.1,0.5,0.2,0.7c0.1,0.2,0.3,0.4,0.5,0.6C72.2,35.6,72.3,35.6,72.3,35.6z"/>
		<path class="st2" d="M72.6,34.9c-0.2-0.2-0.4-0.4-0.5-0.7c-0.2-0.2-0.3-0.5-0.3-0.8c0,0,0.2,0.3,0.4,0.8
			C72.4,34.6,72.7,34.9,72.6,34.9z"/>
		<path class="st17" d="M80.6,40.2c0,0-0.1,0.1-0.4,0.2c-0.1,0.1-0.3,0.1-0.4,0.1c0.1-0.1,0.3-0.1,0.4-0.2
			C80.4,40.2,80.6,40.2,80.6,40.2z"/>
		<path class="st17" d="M81,40.7c-0.3,0-0.7,0-1-0.1c0.2,0,0.3,0,0.5,0C80.6,40.6,80.8,40.6,81,40.7z"/>
		<path class="st17" d="M72,41.1c0,0-0.1,0-0.3,0.1c-0.2,0-0.3,0-0.3,0s0.1,0,0.3-0.1C71.9,41,72,41,72,41.1z"/>
		<path class="st17" d="M71.9,40.8c0,0-0.1,0-0.2-0.1c-0.1-0.1-0.2-0.2-0.2-0.2c0,0,0.1,0,0.2,0.1C71.8,40.7,71.9,40.8,71.9,40.8z"
			/>
		<path class="st17" d="M77.3,36.1c0,0-0.2,0.1-0.4,0.2s-0.6,0.3-1,0.4c-0.3,0.2-0.7,0.2-1.1,0.3c-0.1,0-0.2,0-0.3,0
			c0,0-0.1,0-0.1,0c0,0,0.2,0,0.4,0c0.4,0,0.7-0.1,1-0.3c0.4-0.2,0.7-0.3,1-0.4C77,36.1,77.1,36.1,77.3,36.1z"/>
		<path class="st17" d="M76.6,36c-0.3,0.2-0.7,0.3-1,0.4c-0.4,0.1-0.7,0.1-1.1,0c0.4,0,0.7,0,1.1-0.1C75.9,36.2,76.3,36.1,76.6,36z"
			/>
		<path class="st17" d="M77.7,44.6c0,0-0.1-0.2-0.3-0.3c-0.1,0-0.3,0-0.4,0c0,0,0-0.1,0.1-0.1c0.1,0,0.2,0,0.3,0
			c0.1,0,0.2,0.1,0.3,0.2C77.7,44.5,77.7,44.6,77.7,44.6z"/>
		<path class="st17" d="M78.1,44.5c0,0-0.1-0.2-0.3-0.4C77.7,44,77.5,44,77.4,44c0,0,0,0,0.1,0c0.1,0,0.3,0,0.4,0.1
			c0.1,0.1,0.2,0.2,0.2,0.3C78.2,44.4,78.1,44.5,78.1,44.5z"/>
		<path class="st5" d="M69.9,36.9c0,0,1.3-5.2,1.5-5.5c0.1-0.2,1.6-2.5,5.2-3.1l2.9,0c0,0,4.2,1.4,4.9,2.4c0.7,1,1,6,1,6l-8.2-1.9
			l-5.6,1.3L69.9,36.9z"/>
		<path class="st5" d="M77.6,27.7h-0.8c-0.3,0-0.6,0.2-0.8,0.5c-0.1,0.3-0.2,0.5-0.2,0.8c-0.1,0.9-0.4,7.2-0.4,7.2l3.7-0.1l0-7.8
			l1.2,0.3l0-0.2c0-0.1-0.1-0.3-0.2-0.4l0,0c-0.1-0.1-0.3-0.2-0.5-0.2L77.6,27.7z"/>
		<path class="st8" d="M70.3,37.4l0.4-1.3l6.5-2.2l8.2,3.3l-0.2,1C85.2,38.2,77.6,35.6,70.3,37.4z"/>
		<path class="st5" d="M71.9,35.1l-0.2,0.2l-2,1.4c0.3,0,0.5,0,0.8-0.1c1.3-0.6,4-1.1,7-1c2.5,0.1,5.1,0.7,6.8,1.1
			c0.2,0.1,0.5,0.2,0.7,0.3c0.3,0.1,0.7,0.1,1,0.1l-2.6-1.6l0,0c-0.8-0.9-2-1.4-3.2-1.5l-5-0.2C74,33.8,72.8,34.3,71.9,35.1z"/>
		<path class="st4" d="M70.3,36.8c0,0,0,0,0.1-0.1c0.1-0.1,0.3-0.2,0.4-0.2c0.5-0.2,1.1-0.4,1.6-0.5c1.9-0.4,3.8-0.5,5.7-0.3
			c1.1,0.1,2.2,0.2,3.1,0.3c0.8,0.1,1.7,0.3,2.5,0.6c0.4,0.1,0.7,0.2,0.9,0.3c0.2,0.1,0.5,0.2,0.6,0.4c0.1,0.1,0.2,0.3,0.2,0.4
			c0,0.1,0,0.2,0,0.2c0-0.2-0.1-0.4-0.2-0.5c-0.2-0.2-0.4-0.3-0.6-0.3c-0.3-0.1-0.6-0.2-0.9-0.3c-0.7-0.2-1.5-0.4-2.5-0.5
			s-2-0.2-3.1-0.3c-1.9-0.2-3.8-0.1-5.6,0.2c-0.6,0.1-1.1,0.3-1.6,0.5C70.5,36.7,70.3,36.8,70.3,36.8z"/>
		<path class="st4" d="M69.7,36.4c0.1,0,0.1-0.1,0.2-0.1l0.4-0.3l1.6-1l0,0l0,0l0.4-0.5c0.1-0.2,0.3-0.3,0.4-0.5
			c0.2-0.1,0.4-0.3,0.6-0.3c0.2-0.1,0.5-0.1,0.7-0.1c1,0,2.2,0,3.4,0.1c1.1,0,2.2,0.1,3.2,0.2c0.2,0,0.5,0,0.7,0.1
			c0.2,0.1,0.4,0.2,0.6,0.3c0.3,0.3,0.6,0.6,0.8,0.9l0,0l0,0l2,0.9l0.5,0.3c0.1,0,0.1,0.1,0.2,0.1l-0.2-0.1l-0.5-0.3l-1.9-1h0
			c-0.3-0.3-0.5-0.6-0.8-0.9c-0.2-0.2-0.4-0.3-0.6-0.4c-0.2-0.1-0.5-0.1-0.7-0.1c-1-0.1-2-0.1-3.2-0.2c-1.2-0.1-2.3-0.1-3.4-0.1
			c-0.3,0-0.5,0-0.8,0.1c-0.2,0.1-0.5,0.2-0.6,0.3c-0.2,0.2-0.3,0.3-0.4,0.5L71.9,35l0,0l-1.6,1l-0.4,0.3
			C69.8,36.3,69.8,36.4,69.7,36.4z"/>
		<path class="st4" d="M79.1,33.2c0-0.1,0-0.2,0-0.3c0-0.2,0-0.4,0-0.7c0-0.6,0-1.4,0-2.3c0-0.5,0-0.9,0-1.3c0-0.2,0-0.4,0-0.6
			c0-0.1,0.1-0.2,0.2-0.2c0,0,0,0,0,0l0.7,0.1c0.1,0,0.2,0,0.3,0c-0.1,0-0.2-0.1-0.2-0.1c-0.2,0-0.4-0.1-0.7-0.2
			c-0.2,0-0.3,0.1-0.4,0.3c0,0,0,0,0,0.1c0,0.2,0,0.4,0,0.6V30c0,0.9,0,1.7,0,2.3c0,0.3,0,0.5,0,0.7C79.1,33.1,79.1,33.1,79.1,33.2z
			"/>
		<path class="st4" d="M75.5,33.1c0.1-0.2,0.1-0.5,0.1-0.8c0.1-0.5,0.1-1.1,0.1-1.9c0-0.7,0.1-1.4,0.1-1.9c0-0.3,0-0.5,0-0.8
			c-0.1,0.3-0.1,0.5-0.1,0.8c0,0.5-0.1,1.1-0.1,1.9c0,0.7-0.1,1.3-0.1,1.9C75.5,32.6,75.5,32.8,75.5,33.1z"/>
		<path class="st1" d="M41.6,46.3c0.3,2.2,0.7,4.5,1.2,6.6c0.8,3.1,3.3,8,3.4,10.3c0.1,2.3-2.1,16.9-2.1,16.9l14.4,3.7l10.6,8.6
			c0,0,31.2,4.3,31.2,4c0-0.3,1.1-35.5,1.1-34.8s-12.6,1.1-12.6,1.1l-22-4.9L41.6,46.3z"/>
		<path class="st4" d="M41.6,46.3l25.3,11.4l0,0l22,4.9h0c1.7-0.1,3.4-0.1,5.1-0.2c1.7-0.1,3.5-0.2,5.3-0.4c0.4-0.1,0.9-0.1,1.3-0.2
			c0.2,0,0.4-0.1,0.6-0.2c0,0,0,0,0,0l0,0l0,0c0.3,0,0.1,0,0.2,0v0v0.2V62c0,0.9-0.1,1.9-0.1,2.8c-0.1,1.9-0.1,3.8-0.2,5.7
			c-0.2,7.7-0.5,15.8-0.7,24.2l0,1.1v0.3v0.2c0,0,0,0.1,0,0.1c0,0,0,0,0,0c0,0,0,0-0.1,0c-0.2,0-0.4,0-0.6,0
			c-0.7-0.1-1.4-0.1-2.2-0.2l-4.3-0.5L85,94.6l-15.9-2.1h0h0l-10.6-8.6l0,0l-14.5-3.7H44v-0.1c0.8-5.3,1.5-10,1.9-14.3
			c0.1-0.5,0.1-1,0.1-1.6c0-0.3,0-0.5,0-0.8c0-0.1,0-0.3,0-0.4c0-0.1,0-0.2,0-0.4c-0.2-0.9-0.4-1.8-0.8-2.7
			c-0.6-1.7-1.3-3.2-1.8-4.7c-0.3-0.7-0.5-1.4-0.7-2c-0.2-0.6-0.3-1.3-0.4-1.8c-0.2-1.1-0.4-2.1-0.5-2.9c-0.1-0.8-0.2-1.4-0.3-1.8
			S41.6,46.3,41.6,46.3c0,0,0,0.2,0.1,0.6c0.1,0.4,0.1,1,0.3,1.8c0.1,0.8,0.3,1.7,0.5,2.9c0.1,0.6,0.3,1.2,0.4,1.8
			c0.2,0.6,0.4,1.3,0.7,2c0.5,1.4,1.2,2.9,1.8,4.7c0.3,0.9,0.6,1.8,0.8,2.7l0,0.4c0,0.1,0,0.3,0,0.4c0,0.3,0,0.5,0,0.8
			c0,0.5-0.1,1-0.1,1.6c-0.5,4.2-1.1,9-1.9,14.3l0-0.1l14.4,3.7h0l0,0l10.6,8.6l0,0l15.9,2.1l8.3,1.1l4.3,0.5
			c0.7,0.1,1.4,0.2,2.1,0.2c0.2,0,0.4,0,0.5,0h0c0,0,0,0,0,0c0,0,0.1,0-0.1,0v-0.1v-0.1v-0.3l0-1.1c0.3-8.4,0.5-16.5,0.8-24.2
			c0.1-1.9,0.1-3.8,0.2-5.7c0-0.9,0.1-1.9,0.1-2.8v-0.3v-0.2v0c0.1,0-0.2,0,0.2,0v0c0,0,0,0.1,0,0.1c0,0-0.1,0.1-0.1,0.1
			c-0.2,0.1-0.4,0.2-0.7,0.2c-0.5,0.1-0.9,0.1-1.4,0.2c-1.8,0.2-3.6,0.3-5.3,0.4s-3.5,0.2-5.2,0.2h0l-21.9-4.9l0,0L41.6,46.3z"/>
		<path class="st16" d="M44,61.1l-1-1.2c-0.2-0.2-0.3-0.5-0.4-0.7c0-0.3,0.2-0.6,0.5-0.5c-0.4-0.2-0.5-0.6-0.4-0.9
			c0.1-0.3,0.4-0.4,0.6-0.4c-0.2-0.2-0.3-0.5-0.4-0.8c-0.1-0.3,0-0.6,0.2-0.8c0.3-0.2,0.6-0.3,0.9-0.1c0.3,0.1,0.6,0.3,0.8,0.6
			c0.4,0.4,0.7,0.7,1,1.1c0.1,0.1,0.2,0.3,0.3,0.5c0.1,0.2,0,0.4-0.2,0.5c0.7,0.2,1,0.9,0.9,1.5c0,0,0,0,0,0c0.2,0.4-0.2,0.9-0.7,1
			c-0.5,0-0.9-0.1-1.3-0.4c0.4,0.1,0.6,0.4,0.6,0.8c0,0.4-0.3,0.7-0.6,0.7c-0.4,0-0.7-0.2-0.8-0.5"/>
		<path class="st16" d="M101.3,68.5c0.6,0,1,0.6,1,1.1c0,0.2-0.1,0.5-0.3,0.6c0.3,0.2,0.4,0.6,0.3,0.9c-0.1,0.3-0.3,0.6-0.4,1
			c-0.2,0.6,0,1.2-0.4,1.6c-0.3,0.3-0.9,0.3-1.3,0.3c-0.5-0.1-1-0.2-1.5-0.3c-0.2,0-0.4-0.1-0.6-0.2c-0.2-0.1-0.3-0.3-0.3-0.6
			c0-0.2,0.2-0.4,0.4-0.4c0,0,0,0,0,0c-0.4,0-0.6-0.4-0.6-0.7c0-0.2,0.2-0.4,0.4-0.5c-0.1-0.3-0.1-0.6,0.2-0.8
			c0.2-0.2,0.5-0.3,0.8-0.3C99.9,70,100.7,69.3,101.3,68.5"/>
		<path class="st4" d="M88.4,63.3C88.4,63.3,88.4,63.4,88.4,63.3c0,0.1,0,0.2,0,0.3c0,0.2,0,0.5,0,0.9c0,0.8,0,1.9,0,3.3
			c0,2.8,0,6.7,0,11c0,4.3,0,8.2,0,11c0,1.4,0,2.5,0,3.3c0,0.4,0,0.7,0,0.9c0,0.1,0,0.2,0,0.2c0,0,0,0.1,0,0.1c0,0,0-0.1,0-0.1
			c0-0.1,0-0.1,0-0.2c0-0.2,0-0.5,0-0.9c0-0.8,0-1.9,0-3.3c0-2.8,0-6.7,0-11c0-4.3,0-8.2,0-11c0-1.4,0-2.5,0-3.3c0-0.4,0-0.7,0-0.9
			C88.4,63.5,88.4,63.5,88.4,63.3C88.4,63.4,88.4,63.3,88.4,63.3z"/>
		<path class="st4" d="M66.7,59.4C66.7,59.4,66.7,59.4,66.7,59.4c0,0.1,0,0.2,0,0.3c0,0.2,0,0.5,0.1,1c0.1,0.8,0.2,2,0.3,3.5
			c0.2,3,0.6,7.1,1,11.6c0.4,4.5,0.8,8.6,1,11.6c0.1,1.5,0.2,2.7,0.3,3.5c0,0.4,0.1,0.7,0.1,1l0,0.2c0,0,0,0.1,0,0.1
			c0,0,0-0.1,0-0.1l0-0.2c0-0.2-0.1-0.5-0.1-1c-0.1-0.8-0.2-2-0.4-3.5c-0.3-3-0.7-7-1.1-11.6s-0.7-8.6-0.9-11.6
			c-0.1-1.5-0.2-2.7-0.2-3.5c0-0.4,0-0.7-0.1-1C66.8,59.6,66.8,59.5,66.7,59.4C66.7,59.4,66.7,59.4,66.7,59.4z"/>
		<path class="st4" d="M56.8,54.3c0,0,0.4,6.4,0.9,14.4c0.4,7.9,0.8,14.4,0.7,14.4s-0.4-6.4-0.9-14.4S56.7,54.3,56.8,54.3z"/>
		<g class="st18">
			<path d="M62.4,104.1c0.1-0.2,0.2-0.5,0.2-0.7c0-0.2,0-0.5,0-0.7c0.1-0.5,0.4-0.9,0.6-1.4c0.3-0.7,0.4-1.5,0.2-2.3
				c0-0.2-0.2-0.4-0.3-0.4c0,0.5-0.1,0.9-0.2,1.3c-0.2,0.4-0.5,0.8-0.8,1.2c-0.2,0.5-0.4,1-0.4,1.5c0,0.5,0.1,1,0.2,1.6"/>
		</g>
		<path class="st0" d="M61,104l1,0l0,0c0-0.8,0-2.1,0-2.2c0.2-0.4,0.4-0.8,0.7-1.2c0.2-0.3,0.3-0.6,0.5-0.8l-1.9-0.3l0.5-1.5
			l-0.3-0.1c0,0-1.2,0.7-1.5,1.4s0.3,1.5,0.4,1.7s0.6,1,0.5,2.8L61,104L61,104"/>
		<path class="st0" d="M62.4,99.6l0.4-1.5l0.2,0c0,0,0.4,0.9,0.2,1.6L62.4,99.6z"/>
		<path class="st4" d="M60.9,101L60.9,101L60.9,101l0.3,0l0.9,0.1v0c0,0.1-0.1,0.1-0.1,0.2c0,0.1-0.1,0.2-0.1,0.3c0,0.2,0,0.4,0,0.6
			c0,0.4,0,0.9,0,1.4c0,0.1,0,0.1,0,0.2c0,0.1-0.1,0.1-0.1,0.1c-0.1,0.1-0.2,0.1-0.3,0c0,0-0.1-0.1-0.1-0.1c0-0.1,0-0.1,0-0.2
			c0-0.1,0-0.2,0-0.3c0-0.4,0-0.9,0-1.2c0-0.1,0-0.2,0-0.2c0-0.1,0-0.1-0.1-0.2c0-0.1-0.1-0.2-0.1-0.3S60.9,101.1,60.9,101L60.9,101
			C60.9,101,60.9,101,60.9,101L60.9,101L60.9,101c0.1,0.1,0.1,0.2,0.1,0.3c0,0.1,0.1,0.2,0.1,0.3c0,0.1,0,0.1,0.1,0.2
			c0,0.1,0,0.2,0,0.2v1.5c0,0.1,0,0.1,0,0.2c0,0.1,0,0.1,0.1,0.2c0.1,0.1,0.2,0.1,0.3,0c0.1,0,0.1-0.1,0.1-0.2c0-0.1,0-0.1,0-0.2
			c0-0.5,0-0.9,0-1.4c0-0.2,0-0.4,0-0.6c0-0.1,0.1-0.2,0.1-0.3c0-0.1,0.1-0.2,0.1-0.2l0,0H62l-0.9-0.1L60.9,101L60.9,101L60.9,101z"
			/>
		<g class="st13">
			<polygon points="61.1,100.3 62,100.4 62.3,100 61.4,99.9 			"/>
		</g>
		<path class="st4" d="M62.1,99.9c0,0-0.1,0.1-0.2,0.3c-0.1,0.1-0.1,0.2-0.2,0.3c0,0,0.1-0.1,0.2-0.3C62,100.1,62.1,100,62.1,99.9z"
			/>
		<path class="st4" d="M61.9,99.8c0,0-0.1,0.1-0.2,0.3c-0.1,0.1-0.1,0.2-0.2,0.3C61.6,100.3,61.8,100.1,61.9,99.8L61.9,99.8z"/>
		<path class="st4" d="M61.6,99.8c0,0-0.1,0.1-0.2,0.3c-0.1,0.1-0.1,0.2-0.2,0.3c0.1-0.1,0.2-0.2,0.2-0.3
			C61.5,100,61.6,99.9,61.6,99.8z"/>
		<path class="st4" d="M63.3,99.8L63.3,99.8l-0.1,0l-0.3-0.1l-1.1-0.2l-1.1-0.2l-0.3-0.1l-0.1,0h0c0,0,0,0,0,0h0.1l0.3,0
			c0.3,0,0.7,0.1,1.1,0.2c0.4,0.1,0.8,0.1,1.1,0.2l0.3,0.1L63.3,99.8L63.3,99.8z"/>
		<path class="st4" d="M65.6,102.4c-0.1,0.1-0.2,0.2-0.3,0.3c-0.1,0.1-0.2,0.2-0.4,0.3l-0.5,0.4c-1.1,0.7-2.4,0.9-3.6,0.7
			c-1.2-0.2-2.4-0.5-3.6-1.1c-0.4-0.2-0.8-0.4-1-0.5c-0.1-0.1-0.2-0.1-0.3-0.2c0.1,0,0.3,0.1,0.4,0.2c0.2,0.1,0.6,0.3,1,0.5
			c1.1,0.5,2.3,0.9,3.5,1.1c1.2,0.2,2.5-0.1,3.6-0.7l0.5-0.4c0.2-0.1,0.3-0.2,0.4-0.3C65.4,102.5,65.5,102.4,65.6,102.4z"/>
		<path class="st4" d="M62.5,110.3c0,0,0,0.1-0.2,0.2c-0.3,0.1-0.5,0.1-0.8,0c-0.4-0.2-0.6-0.6-0.7-1c-0.1-0.5-0.1-1-0.1-1.4
			c0-1,0.1-1.9,0.1-2.6c0-0.4,0-0.7,0.1-1.1c0,0.4,0.1,0.7,0,1.1c0,0.7,0,1.6,0,2.6c0,0.5,0,0.9,0.1,1.4c0.1,0.4,0.3,0.7,0.6,0.9
			c0.2,0.1,0.5,0.1,0.7,0.1C62.3,110.4,62.4,110.4,62.5,110.3z"/>
		<g class="st13">
			<path d="M84.2,52.3c-0.1,2.8-1.4,5.9-0.8,8.8C84.9,58.4,85.2,55.2,84.2,52.3"/>
		</g>
	</g>
	<g id="freepik--Crane--inject-15">
		<path class="st4" d="M136.9,57c-0.3-0.6-1-0.9-1.7-0.6c-0.3,0.1-0.5,0.3-0.6,0.6l-2,0.2l2,3.9l1.2-2.3c0.7-0.1,1.2-0.7,1.1-1.4
			C137,57.2,137,57.1,136.9,57L136.9,57z"/>
		<path class="st4" d="M125.6,51.3l1.3-0.5l-3.1-0.8c-0.4-0.6-1.1-0.8-1.7-0.4c-0.6,0.4-0.8,1.1-0.4,1.7c0.4,0.6,1.1,0.8,1.7,0.4
			c0,0,0.1,0,0.1-0.1l2.9,1.8L125.6,51.3z"/>
		<path class="st4" d="M150.2,89.5L150.2,89.5l-21.1-39.3L129,50l-3.3,1.5l15.9,41.9v0l9.5,15.1l0.2,0l0.2,0l0.2,0l-2-3.1l1.1-2.9
			l3,1.1l1.3,4.4l0.2,0l0.2,0l0.2,0L150.2,89.5z M151.6,95.9l-3.8-1l2.2-4.3L151.6,95.9z M147.5,94.8l-4.7-1.2l6.9-3.1L147.5,94.8z
			 M149.2,88.8l-4.8-1.3l2-4L149.2,88.8z M144.1,87.4l-4.3-1.2l6.3-2.9L144.1,87.4z M145.8,82.4l-4.5-1.6l1.6-3.8L145.8,82.4z
			 M141,80.7l-3.9-1.4l5.5-2.5L141,80.7z M142.3,75.9l-4.1-1.8l1.2-3.6L142.3,75.9z M137.9,74l-3.5-1.5l4.7-2.1L137.9,74z
			 M138.9,69.4L138.9,69.4l-3.7-2l0.8-3.4L138.9,69.4z M135.3,62.8l-3.2-2.1l0.4-3L135.3,62.8z M131.8,60.4l-2.6-1.7l3-1.4
			L131.8,60.4z M129,51.2l2.7,5l-2.8-2.3L129,51.2z M128.5,57.5l-2-5.2l2.1,1.7L128.5,57.5z M128.6,53.6l-2.2-1.9l2.3-1L128.6,53.6z
			 M129,54.3l2.7,2.2l-2.8,1.3L129,54.3z M129.1,59.1l2.6,1.7l-0.5,3.7L129.1,59.1z M132,61l3.1,2.1l-3.6,1.6L132,61z M135.7,63.8
			l-0.8,3.5l-3.1-1.7L135.7,63.8z M131.8,66l3,1.6l-0.9,3.9L131.8,66z M135.1,67.8l3.3,1.8l-4.2,1.9L135.1,67.8z M134.4,72.8
			l3.5,1.5l-1.4,4.1L134.4,72.8z M138.1,74.4l3.9,1.7l-5.2,2.4L138.1,74.4z M137,79.6l3.9,1.4l-1.8,4.3L137,79.6z M141.2,81.1
			l4.2,1.5l-6,2.7L141.2,81.1z M139.5,86.5l4.4,1.2l-2.2,4.5L139.5,86.5z M144.2,87.7l4.7,1.3l-7,3.2L144.2,87.7z M142.6,93.9
			l4.8,1.2l-1.8,3.5L142.6,93.9z M147.6,95.2l3.9,1l-5.8,2.6L147.6,95.2z M149.5,104.9l-2.5-4l3.6,1.3L149.5,104.9z M150.6,101.9
			l-4-1.5l-0.1-0.2l5.6-2.5l0.1,0.2L150.6,101.9z M151,102l1.4-3.6l1.4,4.6L151,102z"/>
		<path class="st4" d="M122.5,68.8c0,0,0-0.1,0-0.3s0-0.5,0-1c0-0.9,0-2.1,0-3.7c0-3.2,0-7.8,0-13.5v0h0l5.9-0.6h0l0,0l15.4,17.2
			l22.4,25.1l6.8,7.6l1.8,2.1l0.5,0.5c0.1,0.1,0.2,0.2,0.2,0.2s-0.1-0.1-0.2-0.2l-0.5-0.5l-1.9-2.1c-1.6-1.8-3.9-4.4-6.8-7.6
			l-22.4-25.1l-15.4-17.2h0l-5.9,0.6l0,0c0,5.7,0,10.3,0,13.5c0,1.6,0,2.9,0,3.7c0,0.4,0,0.8,0,1C122.5,68.6,122.5,68.8,122.5,68.8z
			"/>
		<path class="st4" d="M122,63.5h0.7c0.1,0,0.1,0.1,0.1,0.1v1.8c0,0.1-0.1,0.1-0.1,0.1H122c-0.1,0-0.1-0.1-0.1-0.1v-1.8
			C121.9,63.6,122,63.5,122,63.5z"/>
		<path class="st4" d="M124,65.9h-3.1c-0.2,0-0.3-0.2-0.3-0.3l0,0c0-0.2,0.2-0.3,0.3-0.3c0,0,0,0,0,0h3.1c0.2,0,0.3,0.1,0.3,0.3l0,0
			C124.3,65.7,124.2,65.9,124,65.9C124,65.9,124,65.9,124,65.9z"/>
		<path class="st4" d="M122.7,71.4V71l-0.5,0.2c0,0.2,0,0.3,0,0.5c0,0,0,0.1,0,0.1c0,0,0.1,0.1,0.1,0.1c0.2,0.1,0.4,0.2,0.5,0.4
			c0.1,0.3,0,0.6-0.2,0.7c0,0-0.1,0-0.1,0c-0.3,0.1-0.6-0.1-0.7-0.4c0,0,0,0,0,0c0-0.1,0-0.2-0.1-0.2c-0.2,0-0.2,0.2-0.2,0.3
			c0,0.5,0.4,0.9,0.9,0.9c0.2,0,0.4,0,0.5-0.1c0.3-0.1,0.4-0.4,0.5-0.7C123.6,71.9,122.6,71.5,122.7,71.4z"/>
		<path class="st0" d="M123.1,71.2l2-4.8c0.1-0.3,0-0.7-0.3-0.9c-0.1,0-0.2-0.1-0.3-0.1h-4c-0.4,0-0.7,0.3-0.7,0.6
			c0,0.1,0,0.2,0.1,0.3l2,4.8c0.1,0.3,0.5,0.5,0.8,0.4C122.9,71.5,123,71.4,123.1,71.2z"/>
		<path class="st5" d="M120.7,65.9l-0.5,0.5c0,0,0,0,0,0.1l0.2,0.4l1-1L120.7,65.9z"/>
		<polygon class="st5" points="122.6,65.9 122,65.9 120.5,67.3 120.7,67.7 		"/>
		<polygon class="st5" points="124,68.3 124.4,67.2 121.7,70 121.8,70.4 		"/>
		<path class="st5" d="M123.5,69.4l-1.5,1.5l0,0.1c0,0.1,0.1,0.2,0.2,0.2l0.7-0.7L123.5,69.4z"/>
		<polygon class="st5" points="123.9,65.9 123.2,65.9 120.9,68.2 121.1,68.6 		"/>
		<path class="st5" d="M124.8,66.2c0-0.1,0-0.1-0.1-0.2c-0.1-0.1-0.1-0.1-0.2-0.2l-3.2,3.2l0.2,0.4L124.8,66.2z"/>
		<path class="st4" d="M173.9,101.3h2.6c0.5,0,0.8,0.4,0.8,0.8v0v1.2l0,0H173l0,0v-1.2C173,101.7,173.4,101.3,173.9,101.3z"/>
		<path class="st4" d="M165.5,102.8h-0.7v-4.2c0-0.2,0-0.4,0.1-0.5l0.4-1.1c0,0,0,0,0,0c0,0,0,0,0,0l0.4,0.7l-0.1,0.3
			c-0.1,0.2-0.1,0.4-0.1,0.6L165.5,102.8z"/>
		<path class="st5" d="M182.9,103.6c-0.2-0.5-0.6-0.8-1.2-0.9h-17.7v-2.9c0-0.4-0.3-0.7-0.7-0.7c0,0,0,0,0,0h-8.6
			c-0.3,0-0.6,0.2-0.7,0.5l-0.3,0.8h1c0.2,0,0.4,0.1,0.6,0.3c0.1,0.2,0.2,0.4,0.2,0.6l-0.9,4.3c-0.1,0.3-0.4,0.6-0.7,0.6h-1.8
			c0,0.3,0,0.6,0.1,0.8l0.1,0.4l-4.7,0.9c-0.1,0-0.1,0.1-0.2,0.1l-0.4,1.2c0,0.1,0,0.1-0.1,0.2l0,0l0,0c-0.1,0.4,0,1,0.2,1h5
			l-0.2,0.2l-0.3,0.9h31.9C183.5,109.1,183.4,104.8,182.9,103.6z M160.8,100.9l-0.5,4.3c0,0.1,0,0.1,0,0.2c-0.2,0.9-1,1.5-1.9,1.5
			h-2.1c-0.4,0-0.6-0.3-0.7-0.6c0-0.1,0-0.1,0-0.2l1-5.1c0.1-0.3,0.4-0.6,0.7-0.6h2.9C160.6,100.3,160.8,100.5,160.8,100.9
			C160.8,100.8,160.8,100.9,160.8,100.9L160.8,100.9z"/>
		<path class="st8" d="M168.7,114.1l-13.6,0.2c-0.1,0-0.2-0.3-0.2-0.3v-1.5c0-0.1,0.1-0.2,0.2-0.2h13.6c0.1,0,0.2,0.1,0.2,0.2v1.5
			C168.8,114,168.8,114.1,168.7,114.1z"/>
		<path class="st5" d="M160.8,100.9l-0.5,4.3c0,0.1,0,0.1,0,0.2c-0.2,0.9-1,1.5-1.9,1.5h-2.1c-0.4,0-0.6-0.3-0.7-0.6
			c0-0.1,0-0.1,0-0.2l1-5.1c0.1-0.3,0.4-0.6,0.7-0.6h2.9C160.6,100.3,160.8,100.5,160.8,100.9C160.8,100.8,160.8,100.9,160.8,100.9
			L160.8,100.9z"/>
		<g>
			<defs>
				<path id="SVGID_1_" d="M160.8,100.9l-0.5,4.3c0,0.1,0,0.1,0,0.2c-0.2,0.9-1,1.5-1.9,1.5h-2.1c-0.4,0-0.6-0.3-0.7-0.6
					c0-0.1,0-0.1,0-0.2l1-5.1c0.1-0.3,0.4-0.6,0.7-0.6h2.9C160.6,100.3,160.8,100.5,160.8,100.9
					C160.8,100.8,160.8,100.9,160.8,100.9L160.8,100.9z"/>
			</defs>
			<clipPath id="SVGID_2_">
				<use xlink:href="#SVGID_1_"  style="overflow:visible;"/>
			</clipPath>
			<g class="st19">
				<g>
					<path class="st5" d="M183.5,112.3c0-0.1,0-0.2,0-0.3h-31.8c0,0.1-0.1,0.2,0,0.3H183.5z"/>
				</g>
				<path class="st5" d="M154.1,99.5l-1.9,5.9c-0.2,0.5-0.2,1-0.1,1.5l0.8,3.8h11.1v-11c0-0.4-0.3-0.7-0.7-0.7c0,0,0,0,0,0h-8.6
					C154.5,99,154.2,99.2,154.1,99.5z"/>
			</g>
		</g>
		<path class="st8" d="M156.4,106.8c-0.4,0-0.6-0.3-0.7-0.6c0-0.1,0-0.1,0-0.2l1-5.1c0.1-0.3,0.4-0.6,0.7-0.6h2.9
			c0.3,0,0.5,0.2,0.5,0.5c0,0,0,0,0,0.1l-0.5,4.3c0,0.1,0,0.1,0,0.2c-0.2,0.9-1,1.5-1.9,1.5L156.4,106.8z"/>
		<path class="st8" d="M152.1,106.1c0-0.2,0.1-0.4,0.1-0.6l1.7-5.2h1c0.2,0,0.4,0.1,0.6,0.3c0.1,0.2,0.2,0.4,0.2,0.6l-0.9,4.3
			c-0.1,0.3-0.4,0.6-0.7,0.6L152.1,106.1z"/>
		<path class="st4" d="M183.5,112.8h-31.9c-0.2,0-0.2-0.9,0-0.9h31.9C183.8,111.9,183.8,112.8,183.5,112.8z"/>
		<path class="st4" d="M164.1,102.9C164.1,102.9,164.1,102.9,164.1,102.9v0.2c0,0.1,0,0.3,0,0.5c0,0.5,0,1.1-0.1,2
			c0,0.8-0.1,1.8-0.1,2.9c0,0.3,0,0.6,0,0.8c0,0.3-0.1,0.6-0.2,0.9c-0.2,0.3-0.4,0.5-0.7,0.6c-0.3,0.1-0.6,0.1-0.9,0.1l-6.4-0.1
			l-2,0l-0.5,0H153h0h0h0.7l2,0l6.4,0.1c0.3,0,0.6,0,0.9-0.1c0.3-0.1,0.5-0.3,0.7-0.5c0.1-0.3,0.2-0.5,0.2-0.8c0-0.3,0-0.6,0-0.8
			c0-1.1,0.1-2.1,0.1-2.9c0-0.8,0.1-1.5,0.1-1.9c0-0.2,0-0.4,0-0.5L164.1,102.9C164.1,102.9,164.1,102.9,164.1,102.9z"/>
		<path class="st4" d="M155,110.7c0,0-0.1-0.9-0.1-2.1c0-1.2,0-2.1,0.1-2.1s0,0.9,0,2.1C155.1,109.8,155,110.7,155,110.7z"/>
		<path class="st4" d="M156.7,99c0,0.1,0,0.2,0,0.3c0,0.2-0.1,0.5-0.1,0.8c-0.1,0.7-0.3,1.6-0.5,2.7s-0.5,2-0.6,2.6
			c-0.1,0.3-0.2,0.6-0.2,0.8c0,0.1-0.1,0.2-0.1,0.3c0-0.1,0-0.2,0.1-0.3c0.1-0.2,0.1-0.5,0.2-0.8c0.2-0.7,0.4-1.6,0.6-2.7
			c0.2-1,0.4-2,0.6-2.7c0.1-0.3,0.1-0.6,0.2-0.8C156.6,99.2,156.7,99.1,156.7,99z"/>
		<path class="st5" d="M160.4,108.5c0.1,0,0.1,0,0.2-0.1c0.1,0,0.1-0.1,0.1-0.2c0-0.1,0-0.2,0-0.3c-0.1-0.1-0.2-0.1-0.3-0.1h-0.4h-1
			c-0.1,0-0.3,0.1-0.3,0.3c0,0.1,0.1,0.3,0.2,0.3c0,0,0.1,0,0.1,0h0.3h0.4h0.5C160.2,108.4,160.3,108.4,160.4,108.5
			c-0.1,0-0.1,0-0.2,0c-0.1,0-0.3,0-0.5,0l-0.4,0h-0.3c-0.2,0-0.4-0.2-0.4-0.4c0-0.2,0.2-0.3,0.4-0.4h1h0.4c0.1,0,0.3,0.1,0.3,0.2
			c0,0.1,0,0.1,0,0.2c0,0.1,0,0.1,0,0.2c0,0.1-0.1,0.1-0.1,0.2C160.5,108.4,160.4,108.5,160.4,108.5
			C160.4,108.5,160.4,108.5,160.4,108.5z"/>
		<path class="st4" d="M181.4,103.9c0,0-1.3,0-2.9,0s-2.9,0-2.9,0s1.3-0.1,2.9-0.1S181.4,103.9,181.4,103.9z"/>
		<path class="st4" d="M181.4,104.5c0,0-1.3,0-2.9,0s-2.9,0-2.9,0s1.3,0,2.9,0S181.4,104.4,181.4,104.5z"/>
		<path class="st4" d="M181.4,105c0,0-1.3,0.1-2.9,0.1s-2.9,0-2.9-0.1s1.3,0,2.9,0S181.4,105,181.4,105z"/>
		<path class="st4" d="M181.4,105.6c0,0-1.3,0-2.9,0s-2.9,0-2.9,0c0,0,1.3,0,2.9,0S181.4,105.6,181.4,105.6z"/>
		<path class="st4" d="M181.4,106.2c0,0-1.3,0-2.9,0s-2.9,0-2.9,0s1.3,0,2.9,0S181.4,106.2,181.4,106.2z"/>
		<path class="st4" d="M181.4,106.8c0,0-1.3,0-2.9,0s-2.9,0-2.9,0s1.3,0,2.9,0S181.4,106.8,181.4,106.8z"/>
		<path class="st4" d="M181.4,107.4c0,0-1.3,0-2.9,0s-2.9,0-2.9,0s1.3,0,2.9,0S181.4,107.3,181.4,107.4z"/>
		<path class="st4" d="M148.4,121.1c-1.7,0-3.2-1.7-3.2-3.4c0.1-1.8,1.5-3.2,3.3-3.2l28.1-1.3c1.5-0.1,2.8,0.7,3.5,2
			c0.4,0.8,0.5,1.7,0.3,2.6c-0.7,3.4-3.6,3.4-4.7,3.3C174.7,121,148.4,121.1,148.4,121.1z"/>
		<circle class="st8" cx="148" cy="116.3" r="2.6"/>
		
			<ellipse transform="matrix(0.7071 -0.7071 0.7071 0.7071 -31.1551 159.0371)" class="st8" cx="176.4" cy="117.1" rx="3.4" ry="3.4"/>
		<path class="st8" d="M176.8,113.8L176.8,113.8l-0.3,0l-0.8,0.1c-0.7,0.1-1.8,0.2-3,0.3c-2.6,0.2-6.1,0.5-10.1,0.6
			c-3.9,0.2-7.5,0.2-10.1,0.3c-1.3,0-2.3,0-3.1,0h-0.8h-0.2h-0.1h0.1h0.2h0.8l3.1,0c2.6,0,6.1-0.1,10.1-0.3
			c3.9-0.2,7.5-0.4,10.1-0.6l3-0.2l0.8-0.1L176.8,113.8L176.8,113.8z"/>
		<path class="st8" d="M175.7,120.2c0,0-6.1,0-13.7,0c-7.5,0-13.7,0-13.7,0s6.1,0,13.7,0C169.6,120.2,175.7,120.2,175.7,120.2z"/>
		<path class="st5" d="M153.1,110.6c-0.1-0.2-0.1-0.4-0.2-0.7c-0.1-0.4-0.3-1-0.4-1.6c-0.2-0.5-0.3-1.1-0.3-1.6c0-0.2,0-0.3,0-0.5
			c0-0.1,0-0.1,0-0.2c0,0,0,0.3,0.1,0.7c0.1,0.4,0.2,1,0.4,1.6s0.3,1.2,0.4,1.6c0,0.2,0.1,0.4,0.1,0.5
			C153.1,110.5,153.1,110.6,153.1,110.6z"/>
		<path class="st3" d="M174.5,119.2c-0.1,0-0.1-0.1-0.2-0.1c-0.2-0.1-0.3-0.3-0.4-0.5c-0.2-0.3-0.3-0.5-0.4-0.9
			c-0.1-0.4-0.1-0.8-0.1-1.2c0.1-0.7,0.6-1.3,1.2-1.7c0.2-0.1,0.4-0.2,0.6-0.3c0.1,0,0.2,0,0.2,0c-0.3,0.1-0.5,0.2-0.8,0.4
			c-0.3,0.2-0.5,0.4-0.7,0.6c-0.2,0.3-0.4,0.6-0.5,1c-0.1,0.4-0.1,0.8,0,1.1c0.1,0.3,0.2,0.6,0.4,0.8
			C174.1,118.8,174.3,119,174.5,119.2z"/>
		<path class="st7" d="M159.8,103.3c-0.5,0.4-1,0.8-1.5,1.1c-0.5,0.4-1,0.7-1.5,1c0.5-0.4,1-0.8,1.5-1.1
			C158.7,103.9,159.2,103.6,159.8,103.3z"/>
		<path class="st7" d="M160,102.5c-0.4,0.3-0.8,0.7-1.3,1c-0.4,0.3-0.9,0.6-1.3,0.9c0.4-0.3,0.8-0.7,1.3-1
			C159.1,103,159.5,102.7,160,102.5z"/>
		<path class="st7" d="M154.5,103.7c-0.2,0.2-0.4,0.4-0.6,0.5c-0.2,0.2-0.5,0.3-0.7,0.4c0.2-0.2,0.4-0.4,0.6-0.5
			C154,103.9,154.3,103.8,154.5,103.7z"/>
		<path class="st7" d="M154.9,102.9c-0.2,0.2-0.5,0.5-0.7,0.6c-0.2,0.2-0.5,0.4-0.8,0.6c0.2-0.2,0.5-0.5,0.7-0.6
			C154.3,103.3,154.6,103.1,154.9,102.9z"/>
		<path class="st5" d="M160.8,107.5c-0.7,0.1-1.4,0.1-2.1,0C159.4,107.4,160.1,107.4,160.8,107.5z"/>
		<path class="st3" d="M147.9,119.9c-0.1,0-0.2,0-0.2,0c-0.2-0.1-0.4-0.2-0.6-0.3c-0.3-0.2-0.5-0.4-0.7-0.7
			c-0.2-0.3-0.3-0.7-0.4-1.1c0-0.4,0.1-0.8,0.2-1.1c0.1-0.3,0.3-0.6,0.6-0.8c0.2-0.1,0.3-0.3,0.5-0.4c0.1,0,0.1-0.1,0.2-0.1
			c-0.3,0.1-0.5,0.3-0.7,0.5c-0.2,0.2-0.4,0.5-0.5,0.8c-0.3,0.7-0.3,1.5,0.2,2.2c0.2,0.3,0.4,0.5,0.6,0.7
			C147.3,119.7,147.6,119.8,147.9,119.9z"/>
		<path class="st7" d="M151.8,109.5c0,0-1,0-2.2,0s-2.3,0-2.3,0s1,0,2.3,0S151.8,109.5,151.8,109.5z"/>
		<path class="st5" d="M131.4,54.2l-1.7-3.7c-0.5-1.1-1.9-1.6-3-1.1c0,0,0,0,0,0l0,0c-1.1,0.5-1.6,1.8-1.1,3c0,0,0,0,0,0l1.7,3.7
			c0,0.1,0.1,0.1,0.2,0.1l3.9-1.8C131.4,54.4,131.5,54.3,131.4,54.2C131.5,54.2,131.5,54.2,131.4,54.2z"/>
	</g>
	<g id="freepik--Briefcase--inject-15">
		<polygon class="st8" points="148.6,148.2 124.1,148.2 124.1,131.1 146.8,131.1 		"/>
		<rect x="121.3" y="131.1" class="st4" width="24.6" height="17.1"/>
		<path class="st8" d="M146.1,131.1c0,0-0.1,0.1-0.2,0.1l-0.7,0.4c-0.6,0.3-1.5,0.9-2.5,1.5c-1.1,0.7-2.3,1.5-3.8,2.2
			c-1.6,0.9-3.3,1.4-5.1,1.7c-0.9,0.1-1.9,0.1-2.8-0.1c-0.9-0.1-1.7-0.4-2.5-0.7c-1.4-0.6-2.6-1.3-3.8-2.2c-1-0.8-1.8-1.4-2.3-1.9
			l-0.6-0.5c-0.1-0.1-0.1-0.1-0.2-0.2c0.1,0.1,0.2,0.1,0.2,0.2l0.6,0.5c0.5,0.4,1.3,1.1,2.3,1.9c1.2,0.9,2.4,1.6,3.8,2.2
			c1.6,0.7,3.5,1,5.2,0.8c1.8-0.3,3.5-0.8,5.1-1.7c1.5-0.7,2.7-1.5,3.8-2.2c1.1-0.6,2-1.2,2.6-1.5c0.3-0.2,0.6-0.3,0.7-0.4
			C145.9,131.2,146,131.2,146.1,131.1z"/>
		<path class="st8" d="M137.9,131.1c-0.2-0.5-0.4-0.9-0.7-1.3c-0.3-0.4-0.8-0.8-1.2-1c-0.6-0.3-1.2-0.5-1.9-0.5
			c-0.7,0-1.3,0.2-1.9,0.5c-0.5,0.3-0.9,0.6-1.2,1c-0.3,0.4-0.6,0.8-0.8,1.3c0,0,0,0,0-0.1c0-0.1,0.1-0.2,0.1-0.3
			c0.1-0.3,0.3-0.7,0.5-1c0.3-0.4,0.8-0.8,1.3-1.1c1.2-0.7,2.7-0.7,3.9,0c0.5,0.3,0.9,0.6,1.2,1.1c0.2,0.3,0.4,0.6,0.5,1
			c0,0.1,0.1,0.2,0.1,0.3C137.9,131.1,137.9,131.1,137.9,131.1z"/>
		<path class="st8" d="M133.8,139.7c0-0.1,0-0.2,0-0.3c0-0.2,0-0.5,0-0.9c0-0.7,0-1.7,0-2.9l0.1,0.1h-1.5c0.2-0.2,0,0,0.1-0.1l0,0
			v0.3c0,0.1,0,0.2,0,0.3v0.6c0,0.4,0,0.7,0,1.1c0,0.7,0,1.3,0,1.8l-0.1-0.1c0.5,0,0.8,0,1.1,0C133.5,139.7,133.7,139.7,133.8,139.7
			c-0.1,0-0.2,0-0.4,0c-0.3,0-0.6,0-1.1,0h-0.1v-0.1c0-0.5,0-1.1,0-1.8c0-0.3,0-0.7,0-1.1v-1.2l0,0c0,0-0.1,0.1,0.1-0.1h1.6v0.1
			c0,1.2,0,2.2,0,3c0,0.3,0,0.6,0,0.8C133.8,139.5,133.8,139.6,133.8,139.7z"/>
	</g>
</g>
</svg>
