<?xml version="1.0" encoding="utf-8"?>
<!-- Generator: Adobe Illustrator 23.0.3, SVG Export Plug-In . SVG Version: 6.00 Build 0)  -->
<svg version="1.1" id="Layer_1" xmlns="http://www.w3.org/2000/svg" xmlns:xlink="http://www.w3.org/1999/xlink" x="0px" y="0px"
	 viewBox="0 0 160 150" style="enable-background:new 0 0 160 150;" xml:space="preserve">
<style type="text/css">
	.st0{display:none;}
	.st1{display:inline;fill:#455A64;}
	.st2{display:inline;fill:#263238;}
	.st3{display:inline;fill:#4F97B3;}
	.st4{display:inline;fill:#FFFFFF;}
	.st5{fill:#EBEBEB;}
	.st6{fill:#DBDBDB;}
	.st7{fill:#C7C7C7;}
	.st8{fill:#263238;}
	.st9{fill:#4F97B3;}
	.st10{opacity:0.1;}
	.st11{opacity:0.1;enable-background:new    ;}
	.st12{fill:#37474F;}
	.st13{fill:#455A64;}
	.st14{fill:#F7A9A0;}
	.st15{fill:none;}
	.st16{fill:#FF9CBD;}
</style>
<g id="freepik--Lamp--inject-5" class="st0">
	<rect x="199.5" y="125.2" class="st1" width="17.2" height="2"/>
	<rect x="207.1" y="48.6" class="st1" width="2" height="76.6"/>
	<rect x="207.1" y="48.6" class="st2" width="2" height="10.3"/>
	<polygon class="st3" points="218.9,54.5 197.3,54.5 198.9,49.4 198.9,49.2 203.5,34.2 212.7,34.2 217.2,49.2 217.2,49.2 
		217.3,49.4 	"/>
	<path class="st4" d="M204.2,37.7c0,0.1-0.1,0.1-0.1,0.1c-0.1,0-0.1-0.1-0.1-0.1c0-0.1,0.1-0.1,0.1-0.1
		C204.2,37.6,204.2,37.6,204.2,37.7L204.2,37.7z M206.8,37.6c-0.1,0-0.1,0.1-0.1,0.1c0,0.1,0.1,0.1,0.1,0.1c0.1,0,0.1-0.1,0.1-0.1
		C206.9,37.6,206.8,37.6,206.8,37.6C206.8,37.6,206.8,37.6,206.8,37.6L206.8,37.6z M209.4,37.6c-0.1,0-0.1,0.1-0.1,0.1
		s0.1,0.1,0.1,0.1c0.1,0,0.1-0.1,0.1-0.1v0C209.6,37.6,209.5,37.6,209.4,37.6L209.4,37.6z M212.1,37.6c-0.1,0-0.1,0.1-0.1,0.1
		c0,0.1,0.1,0.1,0.1,0.1c0.1,0,0.1-0.1,0.1-0.1C212.2,37.6,212.1,37.6,212.1,37.6z M205.4,35.7c-0.1,0-0.1,0.1-0.1,0.1
		c0,0.1,0.1,0.1,0.1,0.1c0.1,0,0.1-0.1,0.1-0.1C205.6,35.8,205.5,35.7,205.4,35.7L205.4,35.7L205.4,35.7z M208.1,35.7
		c-0.1,0-0.1,0.1-0.1,0.1c0,0.1,0.1,0.1,0.1,0.1c0.1,0,0.1-0.1,0.1-0.1c0,0,0,0,0,0C208.2,35.8,208.2,35.7,208.1,35.7L208.1,35.7
		L208.1,35.7z M210.7,35.7c-0.1,0-0.1,0.1-0.1,0.1c0,0.1,0.1,0.1,0.1,0.1c0.1,0,0.1-0.1,0.1-0.1c0,0,0,0,0,0
		C210.9,35.8,210.8,35.7,210.7,35.7L210.7,35.7L210.7,35.7z M201.4,41.4c-0.1,0-0.1,0.1-0.1,0.1c0,0.1,0.1,0.1,0.1,0.1
		c0.1,0,0.1-0.1,0.1-0.1C201.6,41.5,201.5,41.4,201.4,41.4L201.4,41.4L201.4,41.4z M204.1,41.4c-0.1,0-0.1,0.1-0.1,0.1
		c0,0.1,0.1,0.1,0.1,0.1c0.1,0,0.1-0.1,0.1-0.1C204.2,41.5,204.2,41.4,204.1,41.4C204.1,41.4,204.1,41.4,204.1,41.4L204.1,41.4z
		 M206.8,41.4c-0.1,0-0.1,0.1-0.1,0.1c0,0.1,0.1,0.1,0.2,0.1c0.1,0,0.1-0.1,0.1-0.1C206.9,41.5,206.8,41.4,206.8,41.4L206.8,41.4z
		 M209.4,41.4c-0.1,0-0.1,0.1-0.1,0.1c0,0.1,0.1,0.1,0.2,0.1c0.1,0,0.1-0.1,0.1-0.1C209.6,41.5,209.5,41.4,209.4,41.4L209.4,41.4z
		 M212.1,41.4c-0.1,0-0.1,0.1-0.1,0.1s0.1,0.1,0.1,0.1s0.1-0.1,0.1-0.1C212.2,41.5,212.1,41.4,212.1,41.4L212.1,41.4z M214.7,41.4
		c-0.1,0-0.1,0.1-0.1,0.1s0.1,0.1,0.1,0.1c0.1,0,0.1-0.1,0.1-0.1C214.9,41.5,214.8,41.4,214.7,41.4L214.7,41.4z M202.8,39.6
		c-0.1,0-0.1,0.1-0.1,0.1s0.1,0.1,0.1,0.1c0.1,0,0.1-0.1,0.1-0.1v0C202.9,39.6,202.9,39.6,202.8,39.6
		C202.8,39.6,202.8,39.6,202.8,39.6L202.8,39.6z M205.4,39.6c-0.1,0-0.1,0.1-0.1,0.1s0.1,0.1,0.1,0.1c0.1,0,0.1-0.1,0.1-0.1v0
		C205.6,39.6,205.5,39.6,205.4,39.6C205.4,39.6,205.4,39.6,205.4,39.6L205.4,39.6z M208.1,39.6c-0.1,0-0.1,0.1-0.1,0.1
		s0.1,0.1,0.1,0.1s0.1-0.1,0.1-0.1v0C208.2,39.6,208.2,39.6,208.1,39.6C208.1,39.6,208.1,39.6,208.1,39.6L208.1,39.6z M210.7,39.6
		c-0.1,0-0.1,0.1-0.1,0.1s0.1,0.1,0.1,0.1c0.1,0,0.1-0.1,0.1-0.1v0C210.9,39.6,210.8,39.6,210.7,39.6
		C210.7,39.6,210.7,39.6,210.7,39.6L210.7,39.6z M213.4,39.6c-0.1,0-0.1,0.1-0.1,0.1s0.1,0.1,0.1,0.1c0.1,0,0.1-0.1,0.1-0.1v0
		C213.5,39.6,213.5,39.6,213.4,39.6C213.4,39.6,213.4,39.6,213.4,39.6L213.4,39.6z M201.4,45.3c-0.1,0-0.1,0.1-0.1,0.1
		c0,0.1,0.1,0.1,0.1,0.1c0.1,0,0.1-0.1,0.1-0.1C201.6,45.3,201.5,45.3,201.4,45.3z M204.1,45.3c-0.1,0-0.1,0.1-0.1,0.1
		c0,0.1,0.1,0.1,0.1,0.1s0.1-0.1,0.1-0.1C204.2,45.3,204.2,45.3,204.1,45.3z M206.8,45.3c-0.1,0-0.1,0.1-0.1,0.1
		c0,0.1,0.1,0.1,0.1,0.1c0.1,0,0.1-0.1,0.1-0.1C206.9,45.3,206.8,45.3,206.8,45.3C206.8,45.3,206.8,45.3,206.8,45.3L206.8,45.3z
		 M209.4,45.3c-0.1,0-0.1,0.1-0.1,0.1s0.1,0.1,0.1,0.1s0.1-0.1,0.1-0.1v0C209.6,45.3,209.5,45.3,209.4,45.3L209.4,45.3z M212.1,45.3
		c-0.1,0-0.1,0.1-0.1,0.1c0,0.1,0.1,0.1,0.1,0.1c0.1,0,0.1-0.1,0.1-0.1C212.2,45.3,212.1,45.3,212.1,45.3z M214.7,45.3
		c-0.1,0-0.1,0.1-0.1,0.1c0,0.1,0.1,0.1,0.1,0.1c0.1,0,0.1-0.1,0.1-0.1C214.9,45.3,214.8,45.3,214.7,45.3z M202.8,43.4
		c-0.1,0-0.1,0.1-0.1,0.1s0.1,0.1,0.1,0.1c0.1,0,0.1-0.1,0.1-0.1v0C202.9,43.5,202.9,43.4,202.8,43.4
		C202.8,43.4,202.8,43.4,202.8,43.4L202.8,43.4z M205.4,43.4c-0.1,0-0.1,0.1-0.1,0.1s0.1,0.1,0.1,0.1s0.1-0.1,0.1-0.1v0
		C205.6,43.5,205.5,43.4,205.4,43.4C205.4,43.4,205.4,43.4,205.4,43.4L205.4,43.4z M208.1,43.4c-0.1,0-0.1,0.1-0.1,0.1
		s0.1,0.1,0.1,0.1c0.1,0,0.1-0.1,0.1-0.1v0C208.2,43.5,208.2,43.4,208.1,43.4C208.1,43.4,208.1,43.4,208.1,43.4L208.1,43.4z
		 M210.7,43.4c-0.1,0-0.1,0.1-0.1,0.1s0.1,0.1,0.1,0.1c0.1,0,0.1-0.1,0.1-0.1v0C210.9,43.5,210.8,43.4,210.7,43.4
		C210.7,43.4,210.7,43.4,210.7,43.4L210.7,43.4z M213.4,43.4c-0.1,0-0.1,0.1-0.1,0.1s0.1,0.1,0.1,0.1s0.1-0.1,0.1-0.1v0
		C213.5,43.5,213.5,43.4,213.4,43.4C213.4,43.4,213.4,43.4,213.4,43.4L213.4,43.4z M198.9,49.2l-0.1,0.2
		C198.9,49.4,198.9,49.3,198.9,49.2C198.9,49.3,198.9,49.2,198.9,49.2L198.9,49.2z M201.4,49.1c-0.1,0-0.1,0.1-0.1,0.1
		c0,0.1,0.1,0.1,0.1,0.1s0.1-0.1,0.1-0.1C201.6,49.2,201.5,49.1,201.4,49.1z M204.1,49.1c-0.1,0-0.1,0.1-0.1,0.1
		c0,0.1,0.1,0.1,0.1,0.1c0.1,0,0.1-0.1,0.1-0.1C204.2,49.2,204.2,49.1,204.1,49.1z M206.8,49.1c-0.1,0-0.1,0.1-0.1,0.1
		c0,0.1,0.1,0.1,0.1,0.1c0.1,0,0.1-0.1,0.1-0.1C206.9,49.2,206.8,49.1,206.8,49.1C206.8,49.1,206.8,49.1,206.8,49.1L206.8,49.1z
		 M209.4,49.1c-0.1,0-0.1,0.1-0.1,0.1s0.1,0.1,0.1,0.1c0.1,0,0.1-0.1,0.1-0.1v0C209.6,49.2,209.5,49.1,209.4,49.1L209.4,49.1z
		 M212.1,49.1c-0.1,0-0.1,0.1-0.1,0.1c0,0.1,0.1,0.1,0.1,0.1l0,0c0.1,0,0.1-0.1,0.1-0.1C212.2,49.2,212.1,49.1,212.1,49.1z
		 M214.7,49.1c-0.1,0-0.1,0.1-0.1,0.1c0,0.1,0.1,0.1,0.1,0.1s0.1-0.1,0.1-0.1C214.9,49.2,214.8,49.1,214.7,49.1z M217.2,49.2
		C217.2,49.2,217.2,49.3,217.2,49.2c0,0.1,0,0.1,0.1,0.2L217.2,49.2z M200.1,47.3c-0.1,0-0.1,0.1-0.2,0.1c0,0.1,0.1,0.1,0.1,0.2
		c0.1,0,0.1-0.1,0.2-0.1c0,0,0,0,0,0C200.3,47.3,200.2,47.3,200.1,47.3L200.1,47.3z M202.8,47.3c-0.1,0-0.1,0.1-0.2,0.1
		c0,0.1,0.1,0.1,0.1,0.2c0.1,0,0.1-0.1,0.2-0.1c0,0,0,0,0,0C202.9,47.3,202.9,47.3,202.8,47.3L202.8,47.3z M205.4,47.3
		c-0.1,0-0.1,0.1-0.2,0.1c0,0.1,0.1,0.1,0.1,0.2c0.1,0,0.1-0.1,0.2-0.1c0,0,0,0,0,0C205.6,47.3,205.5,47.3,205.4,47.3L205.4,47.3z
		 M208.1,47.3c-0.1,0-0.1,0.1-0.2,0.1c0,0.1,0.1,0.1,0.1,0.2s0.1-0.1,0.2-0.1c0,0,0,0,0,0C208.2,47.3,208.2,47.3,208.1,47.3
		L208.1,47.3z M210.7,47.3c-0.1,0-0.1,0.1-0.2,0.1c0,0.1,0.1,0.1,0.1,0.2c0.1,0,0.1-0.1,0.2-0.1c0,0,0,0,0,0
		C210.9,47.3,210.8,47.3,210.7,47.3L210.7,47.3z M213.4,47.3c-0.1,0-0.1,0.1-0.2,0.1c0,0.1,0.1,0.1,0.1,0.2c0.1,0,0.1-0.1,0.2-0.1
		c0,0,0,0,0,0C213.5,47.3,213.5,47.3,213.4,47.3L213.4,47.3z M216,47.3c-0.1,0-0.1,0.1-0.2,0.1c0,0.1,0.1,0.1,0.1,0.2
		c0.1,0,0.1-0.1,0.2-0.1c0,0,0,0,0,0C216.2,47.3,216.1,47.3,216,47.3L216,47.3z M198.8,53c-0.1,0-0.1,0.1-0.2,0.1
		c0,0.1,0.1,0.1,0.1,0.2c0.1,0,0.1-0.1,0.2-0.1c0,0,0,0,0,0C199,53.1,198.9,53,198.8,53z M201.5,53c-0.1,0-0.1,0.1-0.1,0.2
		c0,0.1,0.1,0.1,0.1,0.1c0.1,0,0.1-0.1,0.1-0.2C201.6,53,201.5,53,201.5,53z M204.1,53c-0.1,0-0.1,0.1-0.1,0.2
		c0,0.1,0.1,0.1,0.1,0.1c0.1,0,0.1-0.1,0.1-0.2C204.2,53,204.2,53,204.1,53z M206.8,53c-0.1,0-0.1,0.1-0.1,0.1s0.1,0.1,0.1,0.1
		s0.1-0.1,0.1-0.1C206.9,53.1,206.9,53,206.8,53C206.8,53,206.8,53,206.8,53L206.8,53z M209.4,53c-0.1,0-0.1,0.1-0.2,0.1
		c0,0.1,0.1,0.1,0.1,0.2c0.1,0,0.1-0.1,0.2-0.1c0,0,0,0,0,0C209.6,53.1,209.5,53,209.4,53C209.4,53,209.4,53,209.4,53L209.4,53z
		 M212.1,53c-0.1,0-0.1,0.1-0.1,0.2c0,0.1,0.1,0.1,0.1,0.1c0.1,0,0.1-0.1,0.1-0.2C212.2,53,212.1,53,212.1,53z M214.7,53
		c-0.1,0-0.1,0.1-0.1,0.2c0,0.1,0.1,0.1,0.1,0.1c0.1,0,0.1-0.1,0.1-0.2C214.9,53,214.8,53,214.7,53z M217.4,53
		c-0.1,0-0.1,0.1-0.2,0.1c0,0.1,0.1,0.1,0.1,0.2c0.1,0,0.1-0.1,0.2-0.1c0,0,0,0,0,0C217.5,53.1,217.5,53,217.4,53
		C217.4,53,217.4,53,217.4,53L217.4,53z M200.1,51.1c-0.1,0-0.1,0.1-0.1,0.1s0.1,0.1,0.1,0.1s0.1-0.1,0.1-0.1v0
		C200.3,51.2,200.2,51.1,200.1,51.1C200.1,51.1,200.1,51.1,200.1,51.1L200.1,51.1z M202.8,51.1c-0.1,0-0.1,0.1-0.1,0.1
		s0.1,0.1,0.1,0.1c0.1,0,0.1-0.1,0.1-0.1v0C202.9,51.2,202.9,51.1,202.8,51.1C202.8,51.1,202.8,51.1,202.8,51.1L202.8,51.1z
		 M205.4,51.1c-0.1,0-0.1,0.1-0.1,0.1s0.1,0.1,0.1,0.1c0.1,0,0.1-0.1,0.1-0.1v0C205.6,51.2,205.5,51.1,205.4,51.1
		C205.4,51.1,205.4,51.1,205.4,51.1L205.4,51.1z M208.1,51.1c-0.1,0-0.1,0.1-0.1,0.1s0.1,0.1,0.1,0.1s0.1-0.1,0.1-0.1v0
		C208.2,51.2,208.2,51.1,208.1,51.1C208.1,51.1,208.1,51.1,208.1,51.1L208.1,51.1z M210.8,51.1c-0.1,0-0.1,0.1-0.1,0.1
		s0.1,0.1,0.1,0.1c0.1,0,0.1-0.1,0.1-0.1v0C210.9,51.2,210.8,51.1,210.8,51.1C210.8,51.1,210.7,51.1,210.8,51.1L210.8,51.1z
		 M213.4,51.1c-0.1,0-0.1,0.1-0.1,0.1s0.1,0.1,0.1,0.1c0.1,0,0.1-0.1,0.1-0.1v0C213.6,51.2,213.5,51.1,213.4,51.1
		C213.4,51.1,213.4,51.1,213.4,51.1L213.4,51.1z M216.1,51.1c-0.1,0-0.1,0.1-0.1,0.1s0.1,0.1,0.1,0.1s0.1-0.1,0.1-0.1v0
		C216.2,51.2,216.1,51.1,216.1,51.1C216.1,51.1,216.1,51.1,216.1,51.1L216.1,51.1z"/>
</g>
<g>
	<g id="freepik--background-complete--inject-5">
		<polygon class="st5" points="3.5,116.4 40.7,116.4 41.9,92.7 2.3,92.7 		"/>
		<path class="st6" d="M38,103.5H5.2l-0.5-8.2h33.8L38,103.5z M5.5,103.3h32.3l0.5-7.6H5L5.5,103.3z"/>
		<path class="st6" d="M37.6,113H6.1l-0.4-7.4H38L37.6,113z M6.4,112.7h30.9l0.4-6.8H6.1L6.4,112.7z"/>
		<path class="st6" d="M25.4,100.3h-7l-0.3-2h7.5L25.4,100.3z M18.7,100h6.4l0.2-1.4h-6.8L18.7,100z"/>
		<path class="st6" d="M25.4,110.3h-7l-0.2-2h7.5L25.4,110.3z M18.7,110h6.4l0.2-1.4h-6.8L18.7,110z"/>
		<polygon class="st5" points="8.6,116.4 8.3,118.9 7.5,124.1 6.1,124.1 6.1,116.4 		"/>
		<polygon class="st6" points="8.6,116.4 8.3,118.9 6.1,118.9 6.1,116.4 		"/>
		<polygon class="st5" points="35.6,116.4 35.9,118.9 36.7,124.1 38.1,124.1 38.1,116.4 		"/>
		<polygon class="st6" points="35.6,116.4 35.9,118.9 38.1,118.9 38.1,116.4 		"/>
		<path class="st7" d="M107.8,48.4H79.3V19.9h28.5V48.4z M80.6,47.1h25.8V21.2H80.6V47.1z"/>
		<rect x="92.5" y="23.1" class="st5" width="8.9" height="20.1"/>
		<rect x="123.1" y="35.9" class="st7" width="19.5" height="6.7"/>
		<rect x="160.8" y="30" class="st5" width="8.5" height="14.2"/>
		<path class="st7" d="M146.1,48.4h-28.5V19.9h28.5V48.4z M118.9,47.1h25.8V21.2h-25.8V47.1z"/>
		<path class="st7" d="M184.5,48.4h-28.5V19.9h28.5V48.4z M157.3,47.1h25.8V21.2h-25.8L157.3,47.1z"/>
		<rect x="88.4" y="29" class="st7" width="10.3" height="10.3"/>
		<rect x="126.7" y="29" class="st5" width="10.3" height="10.3"/>
		<rect x="165" y="29" class="st7" width="10.3" height="10.3"/>
	</g>
	<g id="freepik--Floor--inject-5">
		<polygon class="st8" points="-2.8,124.1 25.4,124.1 53.6,124 110,124 166.4,124 194.6,124.1 222.8,124.1 194.6,124.2 166.4,124.3 
			110,124.3 53.6,124.3 25.4,124.2 		"/>
	</g>
	<g id="freepik--Sofa--inject-5">
		<rect x="79" y="57.7" class="st9" width="105.8" height="53.7"/>
		<rect x="65.2" y="75.1" class="st9" width="13.8" height="36.2"/>
		<rect x="184.7" y="75.1" class="st9" width="13.8" height="36.2"/>
		<g class="st10">
			<rect x="131.7" y="57.7" width="0.3" height="43"/>
			<rect x="78.8" y="75.1" width="0.3" height="36.2"/>
			<rect x="184.6" y="75.1" width="0.3" height="36.2"/>
			<path d="M132,100.8H78.8V89.6H132V100.8z M79.2,100.5h52.5V89.9H79.2V100.5z"/>
			<path d="M184.9,100.8h-53.2V89.6h53.2V100.8z M132,100.5h52.5V89.9H132V100.5z"/>
		</g>
		<g class="st10">
			<path d="M82.6,69.5c-0.1,0-0.2,0.1-0.2,0.2c0,0.1,0.1,0.2,0.2,0.2s0.2-0.1,0.2-0.2C82.8,69.6,82.7,69.5,82.6,69.5z"/>
			<path d="M83,97.4c-0.1,0-0.2,0.1-0.2,0.3c0,0.1,0.1,0.2,0.2,0.2c0.1,0,0.2-0.1,0.2-0.3C83.2,97.5,83.1,97.4,83,97.4z"/>
			<path d="M96.1,93C96.1,93,96,93,96.1,93c-0.1-0.1-0.1-0.1-0.2-0.1c0,0,0,0,0,0c0,0,0,0,0,0.1C95.7,93.3,96.2,93.3,96.1,93z"/>
			<path d="M73.3,98C73.3,97.9,73.3,97.9,73.3,98c-0.1-0.1-0.1-0.1-0.2-0.1c0,0,0,0,0,0c0,0,0,0,0,0.1C72.9,98.2,73.4,98.2,73.3,98z
				"/>
			<path d="M84.5,70.9c-0.1,0-0.1,0.1-0.1,0.2c0,0.1,0.1,0.1,0.1,0.1c0.1,0,0.1-0.1,0.1-0.2C84.6,70.9,84.6,70.9,84.5,70.9z"/>
			<path d="M155.8,76.5c-0.1,0-0.1,0.1-0.1,0.2c0,0.1,0.1,0.1,0.1,0.1c0.1,0,0.1-0.1,0.1-0.2C155.9,76.6,155.9,76.5,155.8,76.5z"/>
			<path d="M69.9,88.6c-0.1,0-0.1,0.1-0.1,0.2c0,0.1,0.1,0.1,0.1,0.1c0.1,0,0.1-0.1,0.1-0.2C70,88.6,69.9,88.6,69.9,88.6z"/>
			<path d="M92.8,61.1c-0.1-0.1-0.2-0.1-0.3,0c-0.1,0.1-0.1,0.2-0.1,0.3c0,0.1,0.2,0.2,0.3,0.2c0.1,0,0.1-0.1,0.2-0.2
				C92.9,61.3,92.9,61.2,92.8,61.1z"/>
			<path d="M84.9,96.1c-0.1-0.1-0.2-0.1-0.3,0c-0.1,0.1-0.1,0.2-0.1,0.3c0,0.1,0.2,0.2,0.3,0.2c0.1,0,0.1-0.1,0.2-0.2
				C85,96.3,85,96.2,84.9,96.1z"/>
			<path d="M175.2,98c0.1,0,0.2-0.1,0.2-0.2c0-0.1-0.1-0.2-0.2-0.2c-0.1,0-0.2,0.1-0.2,0.2C174.9,97.9,175,98,175.2,98z"/>
			<path d="M127.8,98.4c0.1,0,0.2-0.1,0.2-0.3c0-0.1-0.1-0.2-0.2-0.2c-0.1,0-0.2,0.1-0.2,0.3C127.6,98.4,127.7,98.4,127.8,98.4z"/>
			<path d="M173.9,61.7c0.1,0,0.2-0.1,0.2-0.2c0-0.1-0.1-0.2-0.2-0.2c-0.1,0-0.2,0.1-0.2,0.2C173.6,61.6,173.7,61.7,173.9,61.7z"/>
			<path d="M116.5,68c0.1,0,0.2-0.1,0.2-0.2s-0.1-0.2-0.2-0.2s-0.2,0.1-0.2,0.2S116.3,68,116.5,68z"/>
			<path d="M158.3,74.4C158.3,74.4,158.3,74.5,158.3,74.4c0.1,0.1,0.1,0.1,0.2,0.1c0,0,0,0,0,0c0,0,0,0,0-0.1
				C158.7,74.2,158.2,74.2,158.3,74.4z"/>
			<path d="M137.7,96.3L137.7,96.3c0.1,0.1,0.1,0.1,0.2,0.1c0,0,0,0,0,0c0,0,0,0,0-0.1C138.1,96,137.6,96,137.7,96.3z"/>
			<path d="M192.4,92.2C192.4,92.2,192.4,92.2,192.4,92.2c0.1,0.1,0.1,0.1,0.2,0.1c0,0,0,0,0,0l0-0.1
				C192.8,91.9,192.3,91.9,192.4,92.2z"/>
			<path d="M173.2,96.6c0.1,0,0.1-0.1,0.1-0.2c0-0.1-0.1-0.1-0.1-0.1c-0.1,0-0.1,0.1-0.1,0.2C173.1,96.5,173.1,96.6,173.2,96.6z"/>
			<path d="M187.9,78.9c0.1,0,0.1-0.1,0.1-0.2c0-0.1-0.1-0.1-0.1-0.1c-0.1,0-0.1,0.1-0.1,0.2C187.8,78.8,187.8,78.9,187.9,78.9z"/>
			<path d="M189.1,102.3c0.1,0,0.1-0.1,0.1-0.2c0-0.1-0.1-0.1-0.1-0.1c-0.1,0-0.1,0.1-0.1,0.2C189,102.2,189.1,102.3,189.1,102.3z"
				/>
			<path d="M161.6,106.3c0.1,0.1,0.2,0.1,0.3,0c0.1-0.1,0.1-0.2,0.1-0.3c0-0.1-0.2-0.2-0.3-0.2c-0.1,0-0.1,0.1-0.2,0.2
				C161.5,106.1,161.5,106.2,161.6,106.3z"/>
			<path d="M172.9,71.4c0.1,0.1,0.2,0.1,0.3,0c0.1-0.1,0.1-0.2,0.1-0.3c0-0.1-0.2-0.2-0.3-0.2c-0.1,0-0.1,0.1-0.2,0.2
				C172.7,71.1,172.8,71.3,172.9,71.4z"/>
			<path d="M109.5,82.5c0.1,0.1,0.2,0.1,0.3,0c0.1-0.1,0.1-0.2,0.1-0.3c0-0.1-0.2-0.2-0.3-0.2c-0.1,0-0.1,0.1-0.2,0.2
				C109.4,82.3,109.4,82.5,109.5,82.5z"/>
			<path d="M193.8,89.9c0.1,0.1,0.2,0.1,0.3,0c0.1-0.1,0.1-0.2,0.1-0.3c0-0.1-0.2-0.2-0.3-0.2c-0.1,0-0.2,0.1-0.2,0.2
				C193.6,89.7,193.7,89.8,193.8,89.9z"/>
		</g>
		<path class="st11" d="M79.2,100.5c8.6,2,17.4,3.1,26.3,3.1c9-0.1,17.9-1.1,26.6-3L79.2,100.5z"/>
		<path class="st11" d="M131.9,100.5c8.6,2,17.4,3.1,26.2,3.1c9-0.1,17.9-1.1,26.6-3L131.9,100.5z"/>
		<rect x="65.2" y="108.1" class="st12" width="133.3" height="3.2"/>
		<polygon class="st12" points="83.7,111.3 80.2,118.5 76.6,125.7 73.6,125.7 74.7,118.5 75.8,111.3 		"/>
		<polygon class="st8" points="75.8,111.3 83.7,111.3 81.5,115.7 75.2,115.7 		"/>
		<polygon class="st12" points="188.8,125.7 185.8,125.7 182.2,118.5 178.7,111.3 186.6,111.3 187.7,118.5 		"/>
		<polygon class="st8" points="187.3,115.7 180.9,115.7 178.7,111.3 186.6,111.3 		"/>
	</g>
	<g id="freepik--Shadow--inject-5">
		<ellipse class="st5" cx="110" cy="142.4" rx="93.3" ry="6.6"/>
	</g>
	<g id="freepik--Carpet--inject-5">
		<polygon class="st9" points="216.6,146.2 118.9,146.2 122.2,129 192,129 		"/>
		<g class="st10">
			<polygon points="125.7,129 123.8,146.2 123.4,146.2 125.4,129 			"/>
			<polygon points="130.3,129 128.9,146.2 128.6,146.2 129.9,129 			"/>
			<polygon points="134.8,129 134.4,146.2 134.1,146.2 134.5,129 			"/>
			<polygon points="140.2,146.2 139.9,146.2 139,129 139.4,129 			"/>
			<polygon points="146.1,146.2 145.7,146.2 143.6,129 143.9,129 			"/>
			<polygon points="152.2,146.2 151.9,146.2 148.2,129 148.5,129 			"/>
			<polygon points="158.7,146.2 158.3,146.2 152.7,129 153.1,129 			"/>
			<polygon points="165.5,146.2 165.1,146.2 157.3,129 157.7,129 			"/>
			<polygon points="172.3,146.2 171.9,146.2 161.9,129 162.3,129 			"/>
			<polygon points="179.4,146.2 179,146.2 166.5,129 166.9,129 			"/>
			<polygon points="186.9,146.2 186.4,146.2 171,129 171.5,129 			"/>
			<polygon points="194.7,146.2 194.2,146.2 175.6,129 176.1,129 			"/>
			<polygon points="203.2,146.2 202.6,146.2 180.6,129 181.1,129 			"/>
			<polygon points="210.3,146.2 209.7,146.2 185.8,129 186.4,129 			"/>
		</g>
		<path class="st11" d="M138.4,146.2h-19.5l3.4-17.2h9.8C133.8,134,136.9,142.4,138.4,146.2z"/>
		<path class="st9" d="M191.2,129.1c1.8-0.2,3.6-0.2,5.4,0C194.8,129.3,192.9,129.3,191.2,129.1z"/>
		<path class="st9" d="M192.9,130.3c1.8-0.2,3.6-0.2,5.4,0C196.5,130.5,194.7,130.5,192.9,130.3z"/>
		<path class="st9" d="M194.6,131.5c1.8-0.2,3.6-0.2,5.4,0C198.2,131.7,196.4,131.7,194.6,131.5z"/>
		<path class="st9" d="M196.4,132.7c1.8-0.2,3.6-0.2,5.4,0C200,132.9,198.2,132.9,196.4,132.7z"/>
		<path class="st9" d="M198.1,133.9c1.8-0.2,3.6-0.2,5.4,0C201.7,134.2,199.9,134.2,198.1,133.9z"/>
		<path class="st9" d="M199.8,135.1c1.8-0.2,3.6-0.2,5.4,0C203.4,135.4,201.6,135.4,199.8,135.1z"/>
		<path class="st9" d="M201.6,136.4c1.8-0.2,3.6-0.2,5.4,0C205.2,136.6,203.4,136.6,201.6,136.4z"/>
		<path class="st9" d="M203.3,137.6c1.8-0.2,3.6-0.2,5.4,0C206.9,137.8,205.1,137.8,203.3,137.6z"/>
		<path class="st9" d="M205.1,138.8c1.8-0.2,3.6-0.2,5.4,0C208.7,139,206.8,139,205.1,138.8z"/>
		<path class="st9" d="M206.8,140c1.8-0.2,3.6-0.2,5.4,0C210.4,140.2,208.6,140.2,206.8,140z"/>
		<path class="st9" d="M208.5,141.2c1.8-0.2,3.6-0.2,5.4,0C212.1,141.4,210.3,141.4,208.5,141.2z"/>
		<path class="st9" d="M210.3,142.4c1.8-0.2,3.6-0.2,5.4,0C213.9,142.6,212.1,142.6,210.3,142.4z"/>
		<path class="st9" d="M212,143.6c0.9-0.1,1.8-0.2,2.7-0.2c0.9,0,1.8,0,2.7,0.2C215.6,143.9,213.8,143.9,212,143.6z"/>
		<path class="st9" d="M213.7,144.8c0.9-0.1,1.8-0.2,2.7-0.2c0.9,0,1.8,0,2.7,0.2C217.3,145.1,215.5,145.1,213.7,144.8z"/>
		<path class="st9" d="M215.5,146c0.9-0.1,1.8-0.2,2.7-0.2c0.9,0,1.8,0,2.7,0.2C219.1,146.3,217.3,146.3,215.5,146z"/>
		<path class="st9" d="M111.3,122.4c0.3-1.9,4.4-5.5,7.7-5.5c3.3,0,7.6,2.3,8.1,3.6c0.5,1.4,3.2,20.5,3,21.8s-6.4,3.6-10.6,3.8
			c-4.2,0.2-10.6-1.5-10.9-3.3C108.4,141.1,111.3,122.4,111.3,122.4z"/>
		<path class="st11" d="M119.4,141.9c0.4,0,0.7,0,1.1-0.1c0.2,0,0.4-0.1,0.5-0.1c0.1,0,0.2-0.1,0.3-0.1c0.1,0,0.1-0.1,0.1-0.2
			c0,0,0,0,0,0c-0.1-0.1-0.3-0.2-0.5-0.2c-0.2,0-0.4,0-0.6-0.1c-0.4,0-0.7,0-1.1,0c-0.4,0-0.7,0.1-1.1,0.2c-0.2,0-0.3,0.1-0.5,0.2
			c-0.2,0.1-0.3,0.2-0.3,0.4c0,0.2,0.1,0.3,0.2,0.4c0.1,0.1,0.3,0.2,0.5,0.2c0.3,0.1,0.7,0.2,1.1,0.2c0.7,0,1.5,0,2.2-0.3
			c0.4-0.1,0.7-0.2,1-0.5c0.1-0.1,0.3-0.2,0.3-0.4c0.1-0.2,0-0.3-0.1-0.5c-0.2-0.3-0.6-0.4-0.9-0.5c-0.4-0.1-0.7-0.2-1.1-0.2
			c-0.7-0.1-1.5-0.1-2.2,0c-0.7,0.1-1.4,0.3-2.1,0.6c-0.3,0.1-0.6,0.3-0.8,0.6c-0.2,0.3,0.1,0.6,0.4,0.8c0.6,0.4,1.3,0.7,2,0.8
			c0.7,0.2,1.5,0.2,2.2,0.2c0.7,0,1.5-0.1,2.2-0.3c0.7-0.1,1.4-0.4,2-0.8c0.3-0.2,0.5-0.5,0.6-0.8c0.1-0.3-0.1-0.7-0.3-0.9
			c-0.6-0.4-1.3-0.7-2-0.8c-0.7-0.1-1.5-0.2-2.2-0.2c-0.7,0-1.5,0-2.2,0.1c-0.7,0.1-1.5,0.2-2.2,0.4c-0.7,0.2-1.4,0.4-2,0.8
			c-0.3,0.2-0.5,0.4-0.6,0.8c0,0.3,0.1,0.6,0.4,0.8c0.6,0.5,1.2,0.8,1.9,1c1.4,0.4,2.9,0.6,4.3,0.5c1.5-0.1,2.9-0.3,4.3-0.7
			c0.7-0.2,1.4-0.5,2-0.9c0.3-0.2,0.5-0.4,0.7-0.7c0.1-0.3,0-0.6-0.2-0.8c-0.5-0.5-1.2-0.8-1.9-1c-0.7-0.2-1.4-0.4-2.1-0.5
			c-1.5-0.2-2.9-0.2-4.4-0.1c-1.5,0.1-2.9,0.3-4.3,0.8c-0.7,0.2-1.4,0.5-2,0.9c-0.3,0.2-0.5,0.4-0.7,0.7c-0.1,0.3,0,0.6,0.2,0.9
			c0.5,0.5,1.1,1,1.7,1.2c0.7,0.3,1.4,0.5,2.1,0.7c1.4,0.3,2.9,0.4,4.4,0.4c1.5,0,2.9-0.1,4.4-0.4c0.7-0.1,1.4-0.3,2.1-0.5
			c0.7-0.2,1.4-0.5,2-0.8c0.3-0.2,0.6-0.4,0.8-0.7c0.2-0.3,0.3-0.6,0.1-0.9c-0.3-0.6-0.9-1.1-1.5-1.5c-1.3-0.7-2.7-1.1-4.2-1.2
			c-1.5-0.2-2.9-0.2-4.4-0.2c-1.5,0-2.9,0.2-4.4,0.4c-1.4,0.3-2.9,0.6-4.2,1.4c-0.3,0.2-0.6,0.4-0.8,0.7c-0.3,0.3-0.4,0.6-0.5,0.9
			c-0.1,0.3,0.1,0.7,0.3,0.9c0.3,0.3,0.5,0.5,0.9,0.7c1.3,0.7,2.7,1.2,4.2,1.5c1.4,0.3,2.9,0.5,4.4,0.5c1.5,0,3-0.1,4.4-0.3
			c1.5-0.2,2.9-0.5,4.3-1c-1.4,0.5-2.8,0.9-4.3,1.1c-1.5,0.2-2.9,0.3-4.4,0.4c-1.5,0-3-0.1-4.4-0.4c-1.5-0.3-2.9-0.7-4.2-1.4
			c-0.3-0.2-0.6-0.4-0.9-0.7c-0.1-0.1-0.2-0.3-0.3-0.5c-0.1-0.2-0.1-0.4,0-0.6c0.1-0.4,0.3-0.7,0.5-1c0.3-0.3,0.6-0.5,0.9-0.7
			c1.3-0.8,2.8-1.2,4.2-1.4c1.5-0.3,2.9-0.4,4.4-0.5c1.5-0.1,3,0,4.5,0.1c1.5,0.2,2.9,0.6,4.3,1.3c0.3,0.2,0.6,0.4,0.9,0.7
			c0.3,0.3,0.5,0.6,0.7,0.9c0.1,0.2,0.1,0.4,0.1,0.6c0,0.2-0.1,0.4-0.2,0.6c-0.2,0.3-0.5,0.6-0.9,0.7c-0.6,0.4-1.3,0.7-2.1,0.9
			c-0.7,0.2-1.4,0.4-2.2,0.5c-1.5,0.2-3,0.4-4.4,0.4c-1.5,0-3-0.1-4.5-0.4c-0.7-0.2-1.5-0.4-2.1-0.7c-0.7-0.3-1.4-0.7-1.9-1.3
			c-0.1-0.2-0.2-0.3-0.3-0.5c-0.1-0.2,0-0.4,0.1-0.6c0.2-0.4,0.5-0.7,0.8-0.9c0.6-0.4,1.3-0.7,2-1c1.4-0.4,2.9-0.7,4.4-0.8
			c1.5-0.1,3-0.1,4.5,0.1c0.7,0.1,1.5,0.3,2.2,0.5c0.7,0.2,1.4,0.6,2,1.1c0.1,0.1,0.3,0.3,0.3,0.5c0.1,0.2,0.1,0.4,0,0.6
			c-0.2,0.4-0.5,0.7-0.8,0.9c-0.6,0.4-1.3,0.7-2.1,0.9c-1.4,0.4-2.9,0.7-4.4,0.7c-1.5,0.1-3-0.1-4.4-0.5c-0.7-0.2-1.4-0.6-2-1.1
			c-0.1-0.1-0.3-0.3-0.4-0.5c-0.1-0.2-0.1-0.4-0.1-0.6c0.1-0.4,0.4-0.7,0.7-0.9c0.6-0.4,1.3-0.7,2.1-0.9c0.7-0.2,1.5-0.3,2.2-0.4
			c0.7-0.1,1.5-0.1,2.2-0.1c0.7,0,1.5,0.1,2.2,0.2c0.4,0.1,0.7,0.2,1.1,0.3c0.4,0.1,0.7,0.3,1,0.5c0.1,0.1,0.3,0.3,0.3,0.5
			c0.1,0.2,0.1,0.4,0,0.6c-0.1,0.4-0.4,0.7-0.7,0.9c-0.6,0.4-1.3,0.7-2.1,0.8c-0.7,0.2-1.5,0.3-2.2,0.3c-0.7,0-1.5,0-2.2-0.2
			c-0.7-0.1-1.4-0.4-2.1-0.9c-0.2-0.1-0.3-0.3-0.4-0.4c-0.1-0.1-0.1-0.2-0.1-0.3c0-0.1,0-0.2,0.1-0.3c0.2-0.3,0.5-0.6,0.9-0.7
			c0.7-0.3,1.4-0.5,2.2-0.6c0.7-0.1,1.5-0.1,2.2,0c0.4,0,0.7,0.1,1.1,0.2c0.4,0.1,0.7,0.3,1,0.6c0.1,0.2,0.2,0.4,0.1,0.6
			c-0.1,0.2-0.2,0.3-0.4,0.5c-0.3,0.2-0.6,0.4-1,0.5c-0.7,0.2-1.5,0.3-2.2,0.2c-0.4,0-0.7-0.1-1.1-0.2c-0.2-0.1-0.3-0.1-0.5-0.3
			c-0.2-0.1-0.3-0.3-0.3-0.5c0.1-0.2,0.2-0.3,0.4-0.4c0.2-0.1,0.3-0.2,0.5-0.2c0.4-0.1,0.7-0.2,1.1-0.2c0.4,0,0.7,0,1.1,0
			c0.2,0,0.4,0,0.6,0.1c0.2,0,0.4,0.1,0.5,0.2c0,0.1,0,0.2-0.1,0.2c0,0,0,0,0,0c-0.1,0-0.2,0.1-0.3,0.1c-0.2,0-0.4,0.1-0.5,0.1
			C120.2,141.8,119.8,141.9,119.4,141.9z"/>
		<g class="st10">
			<path d="M112.2,120.7l-2.5,20.5l-0.3,0l2.4-19.9C111.9,121,112.1,120.9,112.2,120.7z"/>
			<path d="M115.6,117.9l-1.4,21.2l-0.3,0l1.4-21C115.4,118,115.5,117.9,115.6,117.9z"/>
			<path d="M129.4,141.1l-0.4-0.2l-2.5-21.2c0.1,0.1,0.3,0.3,0.4,0.4L129.4,141.1z"/>
			<path d="M124.8,138.8l-0.3,0l-1.2-21l0.3,0.1L124.8,138.8z"/>
			<path d="M119.9,116.9l-0.3,21.7h-0.3l0.3-21.7C119.6,116.9,119.8,116.9,119.9,116.9z"/>
		</g>
	</g>
	<g id="freepik--character-1--inject-5">
		<path class="st9" d="M24.3,5.5v55.4h-1.4v-5.6c0-0.4-0.3-0.7-0.7-0.7c-0.4,0-0.7,0.3-0.7,0.7v5.6h-2.8v-1.7c0-0.4-0.3-0.7-0.7-0.7
			c-0.4,0-0.7,0.3-0.7,0.7v1.7h-4.2v-1.3c0-0.4-0.3-0.7-0.7-0.7c-0.4,0-0.7,0.3-0.7,0.7v1.3H9.4v-2.7c0-0.4-0.3-0.7-0.7-0.7
			c-0.4,0-0.7,0.3-0.7,0.7v2.7H6.6V5.5H24.3z"/>
		<polygon class="st9" points="35.6,22.8 17.9,27.3 6.6,5.5 24.3,1 		"/>
		<path class="st9" d="M6.6,57.5H8l0,0V74c0,0.4-0.3,0.7-0.7,0.7c0,0,0,0,0,0l0,0c-0.4,0-0.7-0.3-0.7-0.7L6.6,57.5L6.6,57.5z"/>
		<path class="st9" d="M13.9,64.3L13.9,64.3c-0.4,0-0.7-0.3-0.7-0.7v-8.9h1.4v8.9C14.6,64,14.3,64.3,13.9,64.3L13.9,64.3z"/>
		<path class="st9" d="M22.9,54.7h1.4l0,0v8.9c0,0.4-0.3,0.7-0.7,0.7l0,0c-0.4,0-0.7-0.3-0.7-0.7L22.9,54.7
			C22.9,54.7,22.9,54.7,22.9,54.7z"/>
		<path class="st9" d="M19.5,71.5L19.5,71.5c-0.4,0-0.7-0.3-0.7-0.7V59h1.4v11.8C20.1,71.2,19.8,71.5,19.5,71.5L19.5,71.5z"/>
		<path class="st9" d="M16.7,66.9L16.7,66.9c-0.4,0-0.7-0.3-0.7-0.7v-8.9h1.4v8.9C17.4,66.6,17.1,66.9,16.7,66.9L16.7,66.9z"/>
		<path class="st9" d="M10.1,69.2L10.1,69.2c-0.4,0-0.7-0.3-0.7-0.7V52h1.4v16.5C10.8,68.9,10.5,69.2,10.1,69.2
			C10.1,69.2,10.1,69.2,10.1,69.2z"/>
		<path class="st9" d="M14.6,52H16l0,0v16.5c0,0.4-0.3,0.7-0.7,0.7l0,0c-0.4,0-0.7-0.3-0.7-0.7C14.6,68.5,14.6,52,14.6,52z"/>
		<path class="st9" d="M11.1,71.9L11.1,71.9c-0.4,0-0.7-0.3-0.7-0.7V54.7h1.4v16.5C11.8,71.6,11.5,71.9,11.1,71.9z"/>
		<path class="st9" d="M20.9,74.4L20.9,74.4c-0.4,0-0.7-0.3-0.7-0.7V57.2h1.4v16.5C21.5,74.1,21.2,74.4,20.9,74.4z"/>
		<circle class="st9" cx="23.6" cy="66" r="0.7"/>
		<path class="st9" d="M16,69.7c0,0.4-0.3,0.7-0.7,0.7c-0.4,0-0.7-0.3-0.7-0.7c0-0.4,0.3-0.7,0.7-0.7c0,0,0,0,0,0
			C15.7,69,16,69.3,16,69.7z"/>
		<path class="st9" d="M8,76.4c0,0.4-0.3,0.7-0.7,0.7c-0.4,0-0.7-0.3-0.7-0.7c0-0.4,0.3-0.7,0.7-0.7C7.7,75.7,8,76,8,76.4
			C8,76.4,8,76.4,8,76.4z"/>
		<path class="st5" d="M34.5,143.5c0.7,0.2,21.8,0,22.6-0.6c0.3-0.2,0.4-3.3,0.5-7v-0.1c0-0.8,0-1.6,0-2.4c0-0.1,0-0.2,0-0.3
			l-13.7,0v0.4l0.1,2.2v0.2c0,0-8,3.7-8.8,4.4C34.3,141.1,33.7,143.2,34.5,143.5z"/>
		<path class="st9" d="M34.5,143.5c0.4,0.1,6.1,0.1,11.7,0c1.1,0,2.2,0,3.3-0.1c4-0.1,7.3-0.3,7.6-0.5s0.4-3.2,0.5-6.8
			c0-0.1,0-0.1,0-0.2c0-0.1,0-0.1,0-0.1l0,0l-13.6,0v0.2c0,0-8,3.7-8.8,4.4S33.7,143.2,34.5,143.5z"/>
		<path class="st8" d="M34.7,142.6c3.6-0.1,17.9-0.3,21.4-0.2c0,0,0,0,0,0C52.6,142.7,38.3,142.8,34.7,142.6
			C34.6,142.7,34.6,142.6,34.7,142.6z"/>
		<path class="st8" d="M42.5,135.9c1.4-0.3,3.1-0.1,4.2,0.9c0,0,0,0.1-0.1,0.1c-1.3-0.4-2.7-0.7-4.1-0.8
			C42.5,136.1,42.4,136,42.5,135.9C42.4,135.9,42.5,135.9,42.5,135.9z"/>
		<path class="st8" d="M41.5,136.5c1.4-0.3,3.1-0.1,4.2,0.9c0,0,0,0.1-0.1,0.1c-1.3-0.4-2.7-0.7-4.1-0.8
			C41.5,136.7,41.4,136.6,41.5,136.5C41.4,136.5,41.5,136.5,41.5,136.5z"/>
		<path class="st8" d="M40.5,137.1c1.4-0.3,3.1-0.1,4.2,0.9c0,0,0,0.1-0.1,0.1c-1.3-0.4-2.7-0.7-4.1-0.8
			C40.5,137.3,40.4,137.3,40.5,137.1C40.4,137.2,40.4,137.1,40.5,137.1z"/>
		<path class="st8" d="M46.2,143.5c1.1,0,2.2,0,3.3-0.1c4-0.1,7.3-0.3,7.6-0.5c0.3-0.2,0.4-3.2,0.5-6.8c0-0.1,0-0.1,0-0.2
			c0-0.1,0-0.1,0-0.1l0,0C55.8,137.1,49.2,141.5,46.2,143.5z"/>
		<path class="st13" d="M43.2,135.9h15.2c0,0-3.1-35.5-2.9-36.1c0.2-0.8,1-4.4,2.2-9.1c0.4-1.5,0.8-3,1.2-4.7
			c1.1-4.4,2.4-9.2,3.5-13.5c1.6-6.3,2.9-11.2,2.9-11.2H52.4c0,0-1.5,4.8-3.4,10.9c-3.1,10.1-7.2,23.9-7.6,27.3
			C40.7,105,43.2,135.9,43.2,135.9z"/>
		<path class="st8" d="M43.9,133.3c2.3,0,1.7-0.1,4-0.1c1.1,0,8.6-0.1,9.7,0.1c0,0,0,0,0,0c-1.1,0.2-8.5,0.1-9.7,0.1
			C45.5,133.4,46.2,133.4,43.9,133.3C43.9,133.3,43.8,133.3,43.9,133.3C43.8,133.3,43.9,133.3,43.9,133.3z"/>
		<path class="st8" d="M52.6,97.6c0.5-2.2,1.2-4.3,1.9-6.5c1.3-4.4,2.6-8.8,4-13.1c0.7-2.2,1.3-4.4,2-6.6c0.3-1.1,0.7-2.2,1-3.3
			c0.4-1.1,0.7-2.1,1-3.2c0.1-0.4,0.2-0.2,0,0.4c-0.3,1.1-0.6,2.3-1,3.4c-0.7,2.2-1.3,4.5-2,6.7c-1.3,4.5-2.6,8.9-4,13.3
			c-0.7,2.2-1.3,4.5-2,6.7c-0.3,1.1-0.6,2.1-0.8,3.2c-0.2,1.1-0.2,2.3-0.1,3.5c0.1,2.3,0.4,4.6,0.6,7l0.6,7
			c0.4,4.6,0.8,9.3,1.3,13.9c0.1,0.6,0.1,1.2,0.1,1.8c0,0.2-0.3,0.2-0.3,0c-0.5-4.6-0.9-9.2-1.3-13.7c-0.4-4.6-0.9-9.1-1.3-13.7
			c-0.1-1.1-0.2-2.3-0.2-3.4C52.2,99.7,52.4,98.6,52.6,97.6z"/>
		<path class="st8" d="M65.3,61.4C65.3,61.4,65.3,61.4,65.3,61.4c-0.1,0.5-1.3,5.2-2.9,11.2c-1.1,4.2-2.4,9-3.5,13.5
			c-0.1,0.3-0.2,0.6-0.2,0.9c-1.5-8.9-4-19.6-4.8-25.6L65.3,61.4z"/>
		<path class="st9" d="M42.1,98.1c-1.1,1.8,0.1,2.8,0.2,3.6c0.1,0.8-0.3,3.6,0.8,3.7s1.6-4.1,2.5-5c1-0.9,3.5-1.2,3.6-3.4
			s-2.4-2.5-3.2-3.9s-1.8-1.6-2.4-0.3C43.1,94.2,42.9,96.8,42.1,98.1z"/>
		<path class="st9" d="M49.8,93.5c0.1,0.9,1.7-0.1,1.3-0.8C50.7,92,49.7,92.8,49.8,93.5z"/>
		<path class="st9" d="M48.3,93.6c0.3,0.3,1-0.5,0.5-0.9S47.9,93.2,48.3,93.6z"/>
		<path class="st5" d="M50.9,143.7c0.7,0.2,21.8,0.1,22.6-0.5c0.3-0.2,0.5-3.3,0.5-7v-0.1c0-0.8,0-1.6,0-2.4c0-0.1,0-0.2,0-0.3H60.3
			v0.4l0.1,2.2v0.2c0,0-8,3.7-8.9,4.3C50.7,141.3,50.1,143.4,50.9,143.7z"/>
		<path class="st9" d="M50.9,143.7c0.7,0.2,21.8,0.1,22.6-0.5c0.3-0.2,0.5-3.3,0.5-7v-0.1l-13.6,0v0.2c0,0-8,3.7-8.9,4.3
			C50.7,141.3,50.1,143.4,50.9,143.7z"/>
		<path class="st8" d="M51.1,142.8c3.6-0.1,17.9-0.3,21.4-0.1c0,0,0,0,0,0C69,143,54.6,143,51.1,142.8C51,142.9,51,142.9,51.1,142.8
			z"/>
		<path class="st8" d="M58.9,136.1c1.4-0.3,3.1-0.1,4.2,0.9c0,0,0,0.1-0.1,0.1c-1.3-0.4-2.7-0.7-4.1-0.8
			C58.9,136.3,58.8,136.2,58.9,136.1C58.8,136.2,58.9,136.1,58.9,136.1z"/>
		<path class="st8" d="M57.9,136.7c1.4-0.3,3.1-0.1,4.2,0.9c0,0,0,0.1-0.1,0.1c-1.3-0.4-2.7-0.7-4.1-0.8
			C57.9,136.9,57.8,136.8,57.9,136.7C57.9,136.8,57.9,136.7,57.9,136.7z"/>
		<path class="st8" d="M56.9,137.4c1.4-0.3,3.1-0.1,4.2,0.9c0,0,0,0.1-0.1,0.1c-1.3-0.4-2.7-0.7-4.1-0.8
			C56.9,137.5,56.8,137.5,56.9,137.4C56.8,137.4,56.8,137.4,56.9,137.4z"/>
		<path class="st13" d="M52.8,61.4c0,0,0.3,6.2,1.7,11c0.1,0.4,0.2,0.8,0.4,1.2c1.3,0.5,2.5,1.2,3.7,1.9c0,0,0.1,5,0.3,10.5
			c0.2,6.2,0.3,13.1,0.3,14.5c-0.1,5.5,0.7,35.6,0.7,35.6l15.2,0.1c0,0-2.7-33.6-2.7-35.6c0-3.2-0.7-17.5-1.3-27.8
			c-0.4-6.4-0.7-11.3-0.7-11.3L52.8,61.4z"/>
		<path class="st8" d="M60.4,133.4c2.3,0,1.7-0.1,4-0.1c1.1,0,8.6,0,9.7,0.1c0,0,0,0,0,0c0,0,0,0,0,0c-1.1,0.2-8.5,0.1-9.7,0.1
			C62.1,133.5,62.7,133.5,60.4,133.4C60.4,133.5,60.4,133.4,60.4,133.4C60.4,133.4,60.4,133.4,60.4,133.4L60.4,133.4z"/>
		<path class="st8" d="M69.1,63.6c0.3,8.5,0.6,17,0.9,25.4s0.9,17,1.6,25.5c0.4,4.7,0.8,11.4,1.3,16.1c0,0,0,0-0.1,0
			c-1.1-8.4-1.7-18.8-2.3-27.3s-0.9-16.9-1.2-25.4c-0.2-4.8-0.3-9.6-0.4-14.4C69,63.5,69.1,63.5,69.1,63.6z"/>
		<path class="st8" d="M54.3,73.2c1.5,0.6,3,1.4,4.3,2.3c0,0,0,0,0,0.1c0,0,0,0-0.1,0c0,0,0,0,0,0c-1.5-0.7-3-1.4-4.4-2.2
			C54.2,73.4,54.1,73.3,54.3,73.2C54.2,73.2,54.2,73.2,54.3,73.2z"/>
		<path class="st8" d="M54.2,68c0.1,0.5,0.2,1.1,0.3,1.6c0.1,0.5,0.2,1,0.3,1.5c0.1,0.5,0.4,0.9,0.7,1.3c0.2,0.2,0.4,0.3,0.6,0.5
			c0.1,0.1,0.2,0.2,0.4,0.3c0-0.1,0-0.1,0-0.2c0-0.2-0.1-0.4-0.1-0.6c-0.1-0.5-0.1-0.9-0.2-1.4c-0.1-0.9-0.3-1.8-0.4-2.7
			c0,0,0-0.1,0.1,0c0.2,0.9,0.5,1.7,0.7,2.6c0.1,0.4,0.4,2.6,0.4,2.7c0,0.2,0,0.3,0,0.5c0,0.2,0,0.3,0,0.5c0,0,0,0-0.1,0
			c0,0,0,0,0,0l0,0c-0.1-0.1-0.1-0.3-0.1-0.5c0-0.2-0.1-0.3-0.1-0.5c0-0.1,0-0.1,0-0.2c-0.2-0.1-0.4-0.3-0.6-0.4s-0.4-0.3-0.6-0.5
			c-0.4-0.3-0.6-0.7-0.8-1.2c-0.1-0.5-0.2-1-0.3-1.5C54.3,69.2,54.2,68.6,54.2,68C54.1,68,54.2,68,54.2,68z"/>
		<path class="st9" d="M65.4,80.8c-0.6-0.6-2.3-1.1-3.1-0.1c-0.8,1,0.7,2.1,0.6,2.6c-0.1,0.5-1.1,0.5-1.2,1.1
			c-0.1,0.6,0.3,0.9,0.5,1.3c0.3,0.3,0.2,1.8,1.5,2.1c1.3,0.3,1.8-1.5,2.4-1.9c0.7-0.5,2.2-0.9,2.1-2c-0.2-1.1-2.1-0.7-2.4-1.2
			C65.6,82.2,66.1,81.5,65.4,80.8z"/>
		<path class="st9" d="M61.7,83.1c-0.1-0.6-1.1-0.3-1,0.3C60.8,84,61.7,83.3,61.7,83.1z"/>
		<path class="st9" d="M61.4,81.4c-0.3,0.1-0.1,0.6,0.2,0.5S61.6,81.3,61.4,81.4z"/>
		<path class="st14" d="M57.7,44.8c-4.3,4-11.4,9.8-14.4,9.2c-2.6-0.5-8.3-2.9-11.5-5.8c-0.8-0.7,4-8.3,4.8-7.5
			c1.7,1.8,6.1,4.5,7.4,4.9c1.1,0.4,8.7-3.1,12.7-4.5C61.7,39.5,59.4,43.1,57.7,44.8z"/>
		<path class="st14" d="M36.3,49.8c1.1-0.3,1.8-7.6,1-8.4c-0.2-0.2-0.4-0.4-0.9-0.9l0,0c-1.1-1.2-2-2.6-2.7-4.1
			c-0.8-1.8-1.7-4.6-2.7-4.2c-1.4,0.6-0.6,4.2-0.1,6.3c-1.1-0.3-2.1-0.4-2.7-0.3c-2,0.5-1.1,9.8,0.8,10.7
			C30.8,49.8,35.2,50.1,36.3,49.8z"/>
		
			<rect x="35.3" y="33.3" transform="matrix(0.9684 -0.2496 0.2496 0.9684 -14.2391 10.9769)" class="st8" width="1.8" height="56.7"/>
		<polygon class="st7" points="29.1,35.2 27.9,30.9 16.5,33.9 15,28.2 18.4,27.3 18.5,27.7 15.4,28.4 16.7,33.5 28.2,30.5 
			29.4,35.1 		"/>
		
			<rect x="28.5" y="33.4" transform="matrix(0.9686 -0.2487 0.2487 0.9686 -8.2757 8.5464)" class="st13" width="2.5" height="7.3"/>
		<rect x="17" y="22.5" transform="matrix(0.9686 -0.2487 0.2487 0.9686 -5.5501 7.4669)" class="st5" width="19.5" height="6.4"/>
		<path class="st14" d="M31.4,38.1c0.6,0.9-0.8,1.1-0.8,1.1s2.1,0.2,2.3,1.4c0.2,1.2-1.5,1.3-1.6,1.3c0.1,0,2,0.3,2.1,1.5
			c0.1,1.2-1.6,1.1-1.7,1.1c0.1,0,1.4,0.7,1.3,1.6c-0.2,1.6-3.6,0.1-4.8,0.6c0,0,0.7,2.1,0.7,2.2c0,0-3.3-1.3-3.9-3
			c-0.2-0.5,0-1.1,0.4-1.3c0,0-1.1-0.3-1.2-1.3c-0.1-0.5,0.6-1,0.6-1c-0.5-0.2-0.9-0.6-0.9-1.1c-0.1-0.7,0.7-1.1,0.7-1.1
			s-0.7-0.7-0.5-1.4C24.4,37.2,30.1,36.2,31.4,38.1z"/>
		<path class="st8" d="M24.7,39.9C24.7,39.9,24.7,39.9,24.7,39.9c1.9-0.9,3.9-1.1,5.9-0.7c0.1,0,0.1,0.1,0,0.1
			C28.7,39.2,26.7,39.4,24.7,39.9z"/>
		<path class="st8" d="M24.9,42.2C24.8,42.2,24.8,42.2,24.9,42.2c2.1-0.9,4.4-1.1,6.5-0.4c0.1,0,0.1,0.1,0,0.1
			C29.9,41.5,26.7,41.8,24.9,42.2z"/>
		<path class="st8" d="M31.9,44.6c-2.1-0.6-4.2-0.5-6.3-0.1c0,0,0,0,0,0c1-0.5,2.4-0.6,3.5-0.6C30,43.8,31,44,31.9,44.6
			C31.9,44.5,31.9,44.6,31.9,44.6z"/>
		<path class="st8" d="M30.6,39.2c0.1,0,0,0.1,0,0.1c0.3,0.1,2.2,0.7,2.2,1.4c0,0.6-0.8,0.9-1.1,1l-0.9,0.1l0.9,0.2
			c0.4,0.1,0.7,0.3,1.1,0.5c0.3,0.2,0.5,0.5,0.6,0.9c0.1,0.3-0.1,0.7-0.4,0.8c-0.4,0.1-0.7,0.2-1.1,0.1l-1-0.1l0.9,0.4
			c0.3,0.1,0.5,0.3,0.7,0.5c0.2,0.2,0.4,0.4,0.5,0.7c0.1,0.2,0,0.5-0.2,0.7c-0.2,0.2-0.5,0.2-0.8,0.3c-0.6,0-1.2,0-1.8-0.1
			c-0.3,0-0.6,0-0.9-0.1c-0.3,0-0.6,0-0.9,0.1c0.3-0.1,0.6-0.1,0.9,0c0.3,0,0.6,0.1,0.9,0.1c0.6,0.1,1.2,0.2,1.9,0.2
			c0.3,0,0.7-0.1,0.9-0.3c0.3-0.2,0.4-0.6,0.3-1c-0.1-0.3-0.3-0.6-0.6-0.8c-0.2-0.2-0.5-0.4-0.8-0.5l-0.1,0.3c0.4,0.1,0.9,0,1.3-0.1
			c0.2-0.1,0.4-0.3,0.5-0.5c0.1-0.2,0.1-0.5,0.1-0.7c-0.1-0.5-0.4-0.9-0.8-1.1c-0.4-0.2-0.8-0.4-1.2-0.5l0,0.3
			c0.4-0.1,1.3-0.4,1.5-1.2C33.2,39.6,31,39.2,30.6,39.2z"/>
		<path class="st8" d="M30.6,39.2c0.2-0.1,0.4-0.2,0.6-0.3c0.2-0.1,0.2-0.3,0.2-0.5c0-0.2-0.1-0.4-0.3-0.5c-0.1-0.2-0.3-0.3-0.5-0.5
			c0.2,0.1,0.5,0.2,0.6,0.3c0.2,0.1,0.4,0.4,0.4,0.6c0,0.1,0,0.3-0.1,0.4c-0.1,0.1-0.2,0.2-0.3,0.3C31.1,39.2,30.8,39.2,30.6,39.2z"
			/>
		<path class="st9" d="M51.6,43l1.6,6.4c0,0,3.7-3.2,5.6-5.6c1.9-2.4,1.6-3.9-2.8-2.5C54.5,41.8,53,42.3,51.6,43z"/>
		<path class="st8" d="M54.3,48.1c-0.3-1.8-0.8-3.5-1.3-5.2c0,0-0.1,0-0.1,0C52.9,43.3,53.9,47.2,54.3,48.1
			C54.2,48.1,54.3,48.1,54.3,48.1z"/>
		<path class="st9" d="M70.6,66.6h-20c-0.3-0.3,4.2-23.1,6.3-25.9c0.5-0.6,3.4-1.4,5-0.1c3.6,2.9,6,12.5,6.9,15.5
			C69.8,59.5,70.4,63,70.6,66.6z"/>
		<path class="st13" d="M50.4,66.6c0,0,2.6-19.7,5.9-25.5l0.4-0.3l-1.1,5.9l4.6-0.2l1.7-6.2c0.2,0.1,0.4,0.2,0.5,0.4
			c0,0,0.2,7.8,0.7,9.9c0.5,2.1,2.7,6.9,3.6,7.5c0.9,0.6,3.6,2,3.6,2l0.4,6.4H50.4z"/>
		<path class="st9" d="M55.2,54.1c-1.5,0.4-2.6,1.6-2,2c0.6,0.5,1.8,0.1,2.4,0.8c0.6,0.8,1.4,0.8,1.8-0.7S56.6,53.7,55.2,54.1z"/>
		<path class="st9" d="M52.8,57.7c-0.2,1,1.6,0.7,1.5,0.1C54.1,57.2,52.9,57,52.8,57.7z"/>
		<path class="st14" d="M57.9,43.7c0.7,0.1,2.8-1.2,3.6-2.6c0.1-0.1-0.3-4-0.3-4.8c0-0.2-5,1.1-5,1.1c0.3,1,0.4,2,0.4,3
			c0,0.1,0,0.2,0,0.3c0,0,0,0,0,0.1C56.5,41.4,56.8,43.5,57.9,43.7z"/>
		<path class="st8" d="M60.9,36.2c-0.2,1.2-1,4.5-3.7,4.6c-0.2,0-0.3,0-0.5,0c0,0,0,0,0-0.1c0-0.1,0-0.2,0-0.3c0-1-0.2-2-0.4-3
			C56.2,37.4,59.8,36.4,60.9,36.2z"/>
		<path class="st15" d="M58.3,39.7L58.3,39.7"/>
		<path class="st14" d="M62.3,31c0.2,1.8-1.6,6.7-3,7.5c-2.1,1.3-5,0.9-6-1.5c-1-2.3,1.5-8.6,3.1-9.3C58.7,26.6,62,28.3,62.3,31z"/>
		<path class="st8" d="M56.9,33.2C56.9,33.2,56.9,33.2,56.9,33.2c-0.1,0.4-0.2,0.8,0,1c0,0,0,0,0,0C56.6,34,56.7,33.5,56.9,33.2z"/>
		<path class="st8" d="M57.3,33c0.5,0.2,0.2,1.2-0.3,1.1C56.5,33.9,56.8,32.8,57.3,33z"/>
		<path class="st8" d="M55.1,32.6C55.1,32.6,55.1,32.6,55.1,32.6c-0.1,0.4-0.3,0.7-0.6,0.7c0,0,0,0,0,0C54.8,33.4,55,32.9,55.1,32.6
			z"/>
		<path class="st8" d="M54.9,32.1c-0.5-0.2-0.9,0.8-0.4,1C55,33.4,55.3,32.3,54.9,32.1z"/>
		<path class="st8" d="M57.9,32.8c-0.1-0.1-0.2-0.2-0.4-0.3c-0.1-0.1-0.3-0.2-0.3-0.4c0-0.1,0-0.2,0.1-0.3c0.2-0.1,0.4,0,0.6,0.1
			c0.2,0.1,0.3,0.3,0.4,0.5c0,0.1-0.1,0.3-0.2,0.3C58,32.8,57.9,32.8,57.9,32.8z"/>
		<path class="st8" d="M54.8,31.2c0.2,0,0.3,0,0.5,0c0.2,0,0.3,0,0.5-0.1c0.1-0.1,0.1-0.2,0.1-0.3c-0.1-0.2-0.3-0.3-0.5-0.3
			c-0.2,0-0.4,0-0.6,0.1c-0.1,0.1-0.1,0.2,0,0.4C54.6,31.2,54.7,31.2,54.8,31.2z"/>
		<path class="st8" d="M56.3,36.3c-0.1,0.1-0.2,0.1-0.3,0.1c-0.1,0-0.2-0.1-0.3-0.2 M55.6,36.2c0.1,0.2,0.2,0.3,0.4,0.3
			c0.2,0,0.3-0.1,0.4-0.2c0,0,0,0,0,0L55.6,36.2z"/>
		<path class="st8" d="M56.3,35.2c-0.3,0.2-0.6,0.3-0.9,0.3c-0.1,0-0.3-0.1-0.4-0.1c0,0-0.1,0-0.1,0l-0.1,0c0,0-0.1-0.1,0-0.1l0,0
			c0,0,0,0,0,0l0,0v0c0.1-0.3,0.2-0.6,0.2-0.6c-0.1,0-0.7,0.1-0.6-0.1c0.4-1.1,0.9-2.2,1.6-3.3c0,0,0,0,0,0c0,0,0,0,0,0l0,0
			c-0.4,1.1-0.9,2-1.3,3.1c0.2,0,0.4,0,0.6,0c0,0-0.3,0.7-0.3,0.8l0,0C55.4,35.3,55.8,35.3,56.3,35.2C56.3,35.1,56.3,35.2,56.3,35.2
			z"/>
		<path class="st8" d="M55.2,35.3c0.1,0.2,0.2,0.4,0.4,0.6c0.1,0.1,0.2,0.1,0.4,0.1c0.3,0,0.4-0.2,0.4-0.4c0-0.1,0-0.2,0-0.4
			C55.9,35.3,55.5,35.4,55.2,35.3z"/>
		<path class="st16" d="M55.6,35.8c0.1,0.1,0.2,0.1,0.4,0.1c0.3,0,0.4-0.2,0.4-0.4C56,35.5,55.7,35.6,55.6,35.8z"/>
		<path class="st8" d="M54.8,29.6c1.4,1.6,4.1,0.4,4.1,0.4c0.1,0.8,0.8,1.5,1.6,1.6c0,0-0.4,2.9,0.4,3.1c1.1,0.3,2.4-3.5,2.3-4.4
			c-0.2-0.9-1.1-1.3-1.1-1.3c0-0.5-0.2-1-0.5-1.3C61,26.9,58.1,27,58.1,27c-0.1-0.4-0.2-0.8-0.5-1.1c-0.2-0.3-0.7-0.4-1-0.2
			c0,0,0,0,0,0c0.1,0.2,0.1,0.5,0.1,0.8c-0.1,0.9-0.8,0.7-0.6-0.1c0.1-0.3,0.2-0.5,0.5-0.7c-0.2-0.6-0.7-0.9-1.1-0.7
			C54.7,25.4,53.7,28.3,54.8,29.6z"/>
		<path class="st14" d="M60.5,34.8c0,0,1.5-1.4,2.1-0.8c0.6,0.6-0.7,2.7-1.6,2.9c-0.5,0.1-1-0.2-1.1-0.7c0,0,0,0,0,0L60.5,34.8z"/>
		<path class="st8" d="M62.3,34.7c-0.7,0.1-1.1,0.6-1.4,1.2c0.2-0.2,0.5-0.2,0.7-0.1c0,0,0,0,0.1,0.1c0,0,0,0,0,0
			c-0.2-0.1-0.5-0.1-0.6,0.1c-0.1,0.1-0.3,0.3-0.4,0.4c0,0.1-0.1,0-0.1-0.1l0,0C60.6,35.5,61.4,34.5,62.3,34.7L62.3,34.7z"/>
		<path class="st14" d="M33.2,67.2c0,0.6,0.4,1.2,1,1.4c-0.3,0.4-0.4,1-0.3,1.5c0.2,0.9,1.7,1.1,1.7,1.1c-0.2,0.5-0.2,1.1-0.1,1.6
			c0.2,0.9,1.7,1.2,1.7,1.2c0.1,0.6,0.4,1.1,0.8,1.5c1.2,1,3.5,0.2,4.9-0.3s5.1-3.2,5.8-3.7l-3.1-9.3c0,0-7.1,0.3-8.7,1.2
			C35.7,64.1,33.2,66,33.2,67.2z"/>
		<path class="st8" d="M34.3,68.4c1.3-1.1,2.8-1.7,4.3-2.4c0,0,0,0,0,0s0,0,0,0C37.1,66.7,35.8,67.7,34.3,68.4
			C34.3,68.5,34.2,68.4,34.3,68.4z"/>
		<path class="st8" d="M35.6,71c0.3-0.2,0.7-0.4,1-0.5c0.4-0.2,0.7-0.3,1.1-0.5c0.8-0.3,1.5-0.6,2.3-0.8c0,0,0.1,0,0,0.1
			c-0.7,0.3-1.5,0.6-2.2,0.9l-1.1,0.5c-0.3,0.2-0.7,0.3-1.1,0.4C35.6,71.1,35.6,71.1,35.6,71C35.6,71,35.6,71,35.6,71z"/>
		<path class="st8" d="M37.3,74c0.3-0.2,0.6-0.3,0.9-0.4l1-0.4c0.7-0.3,1.4-0.5,2.1-0.8c0,0,0.1,0,0,0.1c-0.7,0.3-1.4,0.6-2.1,0.9
			l-1,0.4C37.9,73.9,37.6,74,37.3,74C37.3,74,37.3,74,37.3,74z"/>
		<path class="st14" d="M48.8,71.6c4-2.2,13.5-7.7,14.4-10.3c0.8-2.6,1.4-13.8,1.3-16.2S63,42.1,61.7,45c-1.3,3-4.6,11.8-4.9,12.5
			c-0.3,0.7-10.6,4-11.9,4.8C43.6,63.1,48,72,48.8,71.6z"/>
		<path class="st9" d="M59.1,49.8l5.6,3.4c0,0,0.4-4.9,0-7.9s-1.6-3.8-3.7,0.2C60.3,46.9,59.7,48.4,59.1,49.8z"/>
		<path class="st8" d="M64.5,51.4c-1.5-1-3-1.9-4.7-2.6c0,0-0.1,0,0,0C60.2,49.1,63.7,51.1,64.5,51.4C64.5,51.4,64.6,51.4,64.5,51.4
			z"/>
		<path class="st8" d="M65.3,48.7C65.3,48.7,65.2,48.7,65.3,48.7C65.2,48.7,65.2,48.7,65.3,48.7c-0.1,0.2-0.2,0.4-0.2,0.6l0,0.1
			c0-0.5,0-1.1,0-1.6c0,0,0,0,0,0c0,1.8-0.2,3.6-0.2,5.4c-0.1,0-0.5-0.2-0.5-0.3s0,0,0,0s0.6,0.3,0.6,0.3s0.2-2.4,0.2-3.5
			c0-0.1,0.1-0.3,0.1-0.4S65.2,48.9,65.3,48.7z"/>
	</g>
</g>
</svg>
