<?xml version="1.0" encoding="utf-8"?>
<!-- Generator: Adobe Illustrator 23.0.3, SVG Export Plug-In . SVG Version: 6.00 Build 0)  -->
<svg version="1.1" id="Layer_1" xmlns="http://www.w3.org/2000/svg" xmlns:xlink="http://www.w3.org/1999/xlink" x="0px" y="0px"
	 viewBox="0 0 160 150" style="enable-background:new 0 0 160 150;" xml:space="preserve">
<style type="text/css">
	.st0{fill:#F0F0F0;}
	.st1{fill:#4F97B3;}
	.st2{opacity:0.4;fill:#FFFFFF;enable-background:new    ;}
	.st3{opacity:0.2;fill:#FFFFFF;enable-background:new    ;}
	.st4{opacity:0.15;enable-background:new    ;}
	.st5{opacity:0.9;fill:#FFFFFF;enable-background:new    ;}
	.st6{opacity:0.5;fill:#FFFFFF;enable-background:new    ;}
	.st7{opacity:0.7;fill:#FFFFFF;enable-background:new    ;}
	.st8{opacity:0.2;fill:#4F97B3;enable-background:new    ;}
	.st9{opacity:0.8;fill:#FFFFFF;enable-background:new    ;}
	.st10{opacity:3.000000e-02;enable-background:new    ;}
	.st11{opacity:0.1;fill:#4F97B3;enable-background:new    ;}
	.st12{opacity:5.000000e-02;enable-background:new    ;}
	.st13{fill:#FAFAFA;}
	.st14{fill:#EBEBEB;}
	.st15{fill:#E0E0E0;}
	.st16{opacity:0.1;enable-background:new    ;}
	.st17{opacity:0.6;fill:#FFFFFF;enable-background:new    ;}
	.st18{opacity:0.3;fill:#FFFFFF;enable-background:new    ;}
	.st19{opacity:0.2;enable-background:new    ;}
	.st20{fill:#37474F;}
	.st21{fill:#455A64;}
	.st22{fill:#263238;}
	.st23{opacity:0.3;fill:#4F97B3;enable-background:new    ;}
	.st24{opacity:0.5;fill:#4F97B3;enable-background:new    ;}
	.st25{opacity:0.15;fill:#FFFFFF;enable-background:new    ;}
	.st26{clip-path:url(#SVGID_2_);}
	.st27{opacity:0.2;}
	.st28{fill:#F5F5F5;}
	.st29{fill:#FFFFFF;}
	.st30{opacity:0.15;}
	.st31{opacity:0.75;fill:#FFFFFF;enable-background:new    ;}
</style>
<g>
	<g id="freepik--Shadows--inject-4">
		<polygon id="freepik--Shadow--inject-4" class="st0" points="90.5,72.3 117.5,56.7 136.8,67.9 109.8,83.4 		"/>
		<polygon id="freepik--shadow--inject-4" class="st0" points="118.5,123.3 135.3,113.6 101.7,94.2 84.9,103.9 		"/>
		<path class="st0" d="M96.8,83.7c4.5,2.6,4.8,6.7,0.5,9.2c-4.3,2.5-11.4,2.3-15.9-0.3L66.4,84l15.4-8.9L96.8,83.7z"/>
	</g>
	<g id="freepik--Sink--inject-4">
		<g id="freepik--bathroom-sink--inject-4">
			<polygon class="st1" points="111.7,44.4 131,33.3 131,69 111.7,80.1 			"/>
			<polygon class="st2" points="111.7,44.4 131,33.3 131,69 111.7,80.1 			"/>
			<polyline class="st1" points="111.7,69.5 111.7,44.4 94.4,34.4 94.4,70.1 111.7,80.1 111.7,69.5 			"/>
			<polyline class="st3" points="111.7,69.5 111.7,44.4 94.4,34.4 94.4,70.1 111.7,80.1 111.7,69.5 			"/>
			<polygon class="st4" points="111.7,50 131,38.9 131,33.3 111.7,44.4 94.4,34.4 94.4,40 			"/>
			<polygon class="st1" points="90.5,35.5 117.5,19.9 136.8,31.1 109.8,46.7 			"/>
			<polygon class="st5" points="90.5,35.5 117.5,19.9 136.8,31.1 109.8,46.7 			"/>
			<polygon class="st1" points="109.8,47.8 109.8,46.7 90.5,35.5 90.5,36.6 			"/>
			<polygon class="st6" points="109.8,47.8 109.8,46.7 90.5,35.5 90.5,36.6 			"/>
			<polygon class="st1" points="136.8,31.1 136.8,32.2 109.8,47.8 109.8,46.7 			"/>
			<polygon class="st7" points="136.8,31.1 136.8,32.2 109.8,47.8 109.8,46.7 			"/>
			<ellipse class="st8" cx="114.6" cy="33.9" rx="10" ry="5.8"/>
			<path class="st1" d="M105.1,28.9V15.1h1.6v13.8l0,0c0,0.1-0.1,0.3-0.2,0.3c-0.4,0.2-0.8,0.2-1.1,0
				C105.2,29.2,105.2,29,105.1,28.9z"/>
			<path class="st9" d="M105.1,28.9V15.1h1.6v13.8l0,0c0,0.1-0.1,0.3-0.2,0.3c-0.4,0.2-0.8,0.2-1.1,0
				C105.2,29.2,105.2,29,105.1,28.9z"/>
			<path class="st10" d="M105.1,28.9V15.1h1.6v13.8l0,0c0,0.1-0.1,0.3-0.2,0.3c-0.4,0.2-0.8,0.2-1.1,0
				C105.2,29.2,105.2,29,105.1,28.9z"/>
			<path class="st11" d="M105.7,29.3c-0.1,0-0.2-0.1-0.3-0.1c-0.1-0.1-0.2-0.2-0.2-0.3V15.1h0.6L105.7,29.3z"/>
			<path class="st12" d="M105.7,29.3c-0.1,0-0.2-0.1-0.3-0.1c-0.1-0.1-0.2-0.2-0.2-0.3V15.1h0.6L105.7,29.3z"/>
			<path class="st1" d="M106.5,15.4c-0.4,0.2-0.8,0.2-1.1,0c-0.2-0.1-0.3-0.3-0.2-0.4c0-0.1,0.1-0.2,0.2-0.2c0.4-0.2,0.8-0.2,1.1,0
				c0.2,0.1,0.3,0.3,0.2,0.4C106.7,15.3,106.6,15.4,106.5,15.4z"/>
			<path class="st9" d="M106.5,15.4c-0.4,0.2-0.8,0.2-1.1,0c-0.2-0.1-0.3-0.3-0.2-0.4c0-0.1,0.1-0.2,0.2-0.2c0.4-0.2,0.8-0.2,1.1,0
				c0.2,0.1,0.3,0.3,0.2,0.4C106.7,15.3,106.6,15.4,106.5,15.4z"/>
			<path class="st0" d="M126.8,26.3c0-3.8-5.4-6.8-12.1-6.8c-6.7,0-12.1,3.1-12.1,6.8c0,1.6,0.9,3,2.5,4.2l0,0
				c1.7,1.2,3.4,2.6,4.9,4.1l0,0l0.1,0.1l0,0c0.9,0.9,2.6,1.5,4.6,1.5s3.7-0.6,4.6-1.5l0,0l0.1-0.1l0,0c1.5-1.5,3.2-2.9,4.9-4.1l0,0
				C125.9,29.3,126.8,27.8,126.8,26.3z"/>
			<ellipse class="st13" cx="114.6" cy="26.3" rx="12.1" ry="6.8"/>
			<ellipse class="st14" cx="114.6" cy="26" rx="11.2" ry="6.1"/>
			<path class="st15" d="M114.6,32.1c1.6,0,3.1-0.2,4.6-0.5c-0.9-0.9-2.6-1.5-4.6-1.5s-3.7,0.6-4.6,1.5
				C111.6,31.9,113.1,32.1,114.6,32.1z"/>
			<polygon class="st1" points="109.1,19 105.7,17 106.7,16.4 110.1,18.4 			"/>
			<polygon class="st9" points="109.1,19 105.7,17 106.7,16.4 110.1,18.4 			"/>
			<polygon class="st1" points="105.7,17.5 109.1,19.5 109.1,19 105.7,17 			"/>
			<polygon class="st7" points="105.7,17.5 109.1,19.5 109.1,19 105.7,17 			"/>
			<polygon class="st16" points="105.7,17.5 109.1,19.5 109.1,19 105.7,17 			"/>
			<polygon class="st1" points="110.5,20.6 109.1,19 110.1,18.4 111.5,20 			"/>
			<polygon class="st7" points="110.5,20.6 109.1,19 110.1,18.4 111.5,20 			"/>
			<polygon class="st1" points="109.1,19 110.5,20.6 110.5,21.2 109.1,19.5 			"/>
			<polygon class="st7" points="109.1,19 110.5,20.6 110.5,21.2 109.1,19.5 			"/>
			<polygon class="st16" points="109.1,19 110.5,20.6 110.5,21.2 109.1,19.5 			"/>
			<polygon class="st1" points="111.5,20 110.5,20.6 110.5,21.2 111.5,20.6 			"/>
			<polygon class="st17" points="111.5,20 110.5,20.6 110.5,21.2 111.5,20.6 			"/>
			<polygon class="st16" points="111.5,20 110.5,20.6 110.5,21.2 111.5,20.6 			"/>
			<g id="freepik--Soap--inject-4">
				<path class="st1" d="M96.8,26.1l1-0.6c0.3-0.2,0.6-0.2,0.9-0.1c0.2,0.1,1.7,1,2,1.1c0.3,0.2,0.4,0.5,0.4,0.8v7.4
					c0,0.2-0.1,0.4-0.3,0.6l-2.9,1.7c-0.1,0-0.2,0.1-0.2,0l-2-1.1c-0.1,0-0.1-0.1-0.1-0.2v-7.4C95.6,27.4,96,26.6,96.8,26.1z"/>
				<path class="st18" d="M96.8,26.1l1-0.6c0.3-0.2,0.6-0.2,0.9-0.1c0.2,0.1,1.7,1,2,1.1c0.3,0.2,0.4,0.5,0.4,0.8v3.3l-5.4-3.1
					C95.8,27,96.2,26.4,96.8,26.1z"/>
				<path class="st19" d="M101.1,34.8c0,0.2-0.1,0.4-0.3,0.6l-2.9,1.7c-0.1,0-0.2,0.1-0.2,0l-2-1.1c-0.1,0-0.1-0.1-0.1-0.2v-7.4
					c0-0.2,0-0.5,0.1-0.7l5.4,3.1V34.8z"/>
				<path class="st1" d="M97.8,37.1c-0.1,0-0.2,0.1-0.2,0c-0.1,0-0.1-0.1-0.1-0.2v-7.4c0.1-0.9,0.5-1.7,1.3-2.2l1-0.6
					c0.3-0.2,0.6-0.2,0.9-0.1c0.2,0.2,0.4,0.5,0.4,0.8v7.4c0,0.2-0.1,0.4-0.3,0.6L97.8,37.1z"/>
				<path class="st20" d="M97.4,25.3v1.1c0,0.1,0.1,0.3,0.2,0.3c0.4,0.2,0.8,0.2,1.2,0c0.1-0.1,0.2-0.2,0.2-0.3v-1.1H97.4z"/>
				<path class="st21" d="M97.7,25.6c0.4,0.2,0.8,0.2,1.2,0c0.2-0.1,0.3-0.3,0.2-0.5c0-0.1-0.1-0.2-0.2-0.2c-0.4-0.2-0.8-0.2-1.2,0
					c-0.2,0.1-0.3,0.3-0.2,0.5C97.5,25.5,97.5,25.6,97.7,25.6z"/>
				<path class="st20" d="M98,23.6v1.7c0,0,0,0.1,0.1,0.1c0.1,0.1,0.2,0.1,0.4,0c0,0,0.1-0.1,0.1-0.1v-1.7H98z"/>
				<path class="st22" d="M98,24.3L98,24.3c0.2,0,0.4,0,0.5,0.1v-0.8H98V24.3z"/>
				<path class="st21" d="M99.8,24.2l-0.2-0.1c-0.2-0.2-0.4-0.4-0.4-0.7c-0.1-0.2-0.2-0.3-0.3-0.3c-0.3-0.1-0.7-0.1-1,0
					c-0.5,0.2-0.6,0.6-0.3,0.8c0.1,0.1,0.3,0.1,0.5,0.1c0.4,0,0.8,0.1,1.1,0.2l0.2,0.1C99.5,24.4,99.7,24.4,99.8,24.2z"/>
			</g>
			<polygon class="st4" points="107.1,53.1 107.1,61.7 97.8,56.3 97.8,47.7 			"/>
			<g id="freepik--toilet-paper--inject-4">
				<path class="st1" d="M94,50.8l3.8-3.1l0.9,0.5v4.3l-3.6,1.2c-0.2,0.1-0.5,0.1-0.7,0l-0.9-0.5c-0.2-0.1-0.4-0.4-0.3-0.7
					C93.2,51.9,93.5,51.2,94,50.8z"/>
				<path class="st9" d="M94,50.8l3.8-3.1l0.9,0.5v4.3l-3.6,1.2c-0.2,0.1-0.5,0.1-0.7,0l-0.9-0.5c-0.2-0.1-0.4-0.4-0.3-0.7
					C93.2,51.9,93.5,51.2,94,50.8z"/>
				<path class="st1" d="M95,51.3c-0.5,0.5-0.8,1.1-0.9,1.8c0,0.6,0.5,0.9,1.1,0.7l3.6-1.2v-4.3L95,51.3z"/>
				<path class="st6" d="M95,51.3c-0.5,0.5-0.8,1.1-0.9,1.8c0,0.6,0.5,0.9,1.1,0.7l3.6-1.2v-4.3L95,51.3z"/>
				<path id="freepik--Tube--inject-4" class="st21" d="M103.4,57.4c0.1,0,0.1,0,0.2,0c0.2-0.1,0.3-0.3,0.3-0.5c0-0.1,0-0.1-0.1-0.2
					L95.6,52c-0.1,0-0.1,0-0.2,0c-0.2,0.1-0.3,0.3-0.3,0.5c0,0.1,0,0.1,0.1,0.2L103.4,57.4z"/>
				<path class="st13" d="M103.9,53.3c0.4,0.2,0.7,0.8,0.7,1.5c-0.1,1.7-1,3.2-2.4,4.1c-0.7,0.4-1.2,0.4-1.7,0.2l-4.7-2.7
					c-0.4-0.2-0.7-0.8-0.7-1.5c0.1-1.7,1-3.2,2.4-4.1c0.7-0.4,1.3-0.4,1.7-0.2L103.9,53.3z"/>
				<path class="st19" d="M95.2,54.8l7.1,4.1c-0.7,0.4-1.2,0.4-1.7,0.2l-4.7-2.7C95.4,56.1,95.2,55.6,95.2,54.8z"/>
				<path class="st14" d="M102.3,53.4c-1.4,0.9-2.3,2.4-2.4,4.1c0,1.5,1.1,2.1,2.4,1.4c1.4-0.9,2.3-2.4,2.4-4.1
					C104.6,53.3,103.6,52.7,102.3,53.4z"/>
				<polygon class="st0" points="99.9,57.5 99.9,62.8 95.2,60 95.2,54.8 				"/>
				<path class="st22" d="M102.3,55c-0.6,0.4-1,1-1,1.7c0,0.7,0.5,0.9,1,0.6c0.6-0.4,1-1,1-1.7C103.3,54.9,102.8,54.7,102.3,55z"/>
				<path class="st21" d="M101.3,56.2l1.3,0.8l0.7,0.4c0.1,0,0.1,0,0.2,0c0.2-0.1,0.3-0.3,0.3-0.5c0-0.1,0-0.1-0.1-0.2l-0.7-0.4
					l-1.4-0.8C101.5,55.8,101.4,56,101.3,56.2z"/>
				<path class="st1" d="M102.4,55.6l3.8-3l0.9,0.5v4.3l-3.6,1.2c-0.2,0.1-0.5,0.1-0.7,0l-0.9-0.5c-0.2-0.1-0.4-0.4-0.3-0.7
					C101.6,56.7,101.9,56.1,102.4,55.6z"/>
				<path class="st9" d="M102.4,55.6l3.8-3l0.9,0.5v4.3l-3.6,1.2c-0.2,0.1-0.5,0.1-0.7,0l-0.9-0.5c-0.2-0.1-0.4-0.4-0.3-0.7
					C101.6,56.7,101.9,56.1,102.4,55.6z"/>
				<path class="st1" d="M103.4,56.2c-0.5,0.5-0.8,1.1-0.9,1.8c0,0.6,0.5,0.9,1.1,0.7l3.6-1.2v-4.3L103.4,56.2z"/>
				<path class="st6" d="M103.4,56.2c-0.5,0.5-0.8,1.1-0.9,1.8c0,0.6,0.5,0.9,1.1,0.7l3.6-1.2v-4.3L103.4,56.2z"/>
			</g>
		</g>
	</g>
	<g id="freepik--WC--inject-4">
		<g id="freepik--wc--inject-4">
			<path class="st1" d="M96.1,77.7c0-1-0.6-1.9-1.9-2.7l-12-6.9l-10,5.8v8.9l12.7,7.3c2.6,1.5,6.7,1.5,9.3,0
				c1.3-0.7,1.9-1.7,1.9-2.7L96.1,77.7L96.1,77.7z"/>
			<path class="st2" d="M96.1,77.7c0-1-0.6-1.9-1.9-2.7l-12-6.9l-10,5.8v8.9l12.7,7.3c2.6,1.5,6.7,1.5,9.3,0
				c1.3-0.7,1.9-1.7,1.9-2.7L96.1,77.7L96.1,77.7z"/>
			<path class="st16" d="M94.2,75l-12-6.9l-10,5.8v8.9l9.6,5.6c-3.9-2.2-7.1-6.5-5.2-6.7s4,1.8,9.1,2.8s9.1-2.4,10.4-4.9v-1.8
				C96.1,76.8,95.5,75.8,94.2,75z"/>
			<path class="st1" d="M70.3,68.4l-3.9-2.2l0,0c0,1.4,0.7,2.7,1.9,3.3l1.9,1.1V68.4z"/>
			<path class="st6" d="M70.3,68.4l-3.9-2.2l0,0c0,1.4,0.7,2.7,1.9,3.3l1.9,1.1V68.4z"/>
			<polygon class="st1" points="66.4,66.1 66.4,50.5 79.9,42.7 83.8,45 85.7,59.5 70.3,68.4 			"/>
			<polygon class="st6" points="66.4,66.1 66.4,50.5 79.9,42.7 83.8,45 85.7,59.5 70.3,68.4 			"/>
			<polygon class="st1" points="70.3,52.8 83.8,45 85.7,59.5 70.3,68.4 			"/>
			<polygon class="st7" points="70.3,52.8 83.8,45 85.7,59.5 70.3,68.4 			"/>
			<polygon class="st1" points="66.4,50.5 70.3,52.8 83.8,45 79.9,42.7 			"/>
			<polygon class="st5" points="66.4,50.5 70.3,52.8 83.8,45 79.9,42.7 			"/>
			<path class="st21" d="M74.1,48.3c0.6,0.3,1.3,0.3,1.9,0c0.5-0.3,0.5-0.8,0-1.1c-0.6-0.3-1.3-0.3-1.9,0
				C73.6,47.5,73.6,48,74.1,48.3z"/>
			<path class="st1" d="M100.3,70.4c0-0.1,0-0.2,0-0.3h0c-0.2-1.5-1.4-3.1-3.5-4.3l-11.1-6.4l-15.4,8.9l0,0v6.4l11.1,6.4l0,0
				c6.1,3.5,13.8,1.3,17.3-4.7c0.9-1.6,1.4-3.3,1.6-5.1C100.3,71.1,100.3,70.7,100.3,70.4z"/>
			<path class="st7" d="M100.3,70.4c0-0.1,0-0.2,0-0.3h0c-0.2-1.5-1.4-3.1-3.5-4.3l-11.1-6.4l-15.4,8.9l0,0v6.4l11.1,6.4l0,0
				c6.1,3.5,13.8,1.3,17.3-4.7c0.9-1.6,1.4-3.3,1.6-5.1C100.3,71.1,100.3,70.7,100.3,70.4z"/>
			<path class="st23" d="M100.3,70.2L100.3,70.2c-0.3-1.5-1.4-3.1-3.6-4.3l-11.1-6.4l-15.4,8.9l0,0v0.6l11.1,6.4
				c4.5,2.6,11.7,2.8,15.9,0.3c1.5-0.9,2.4-1.9,2.8-3.1c0.1-0.4,0.1-0.8,0.2-1.2c0.1-0.3,0.1-0.6,0.1-0.9
				C100.3,70.3,100.3,70.3,100.3,70.2L100.3,70.2z"/>
			<path class="st1" d="M96.8,64.7l-11.1-6.4l-15.4,8.9v1.1l11.1,6.4c4.5,2.6,11.7,2.8,15.9,0.3c2-1.2,3-2.7,3-4.3
				c0-0.2,0-0.9,0-1.1C100.3,67.9,99.1,66.1,96.8,64.7z"/>
			<path class="st7" d="M96.8,64.7l-11.1-6.4l-15.4,8.9v1.1l11.1,6.4c4.5,2.6,11.7,2.8,15.9,0.3c2-1.2,3-2.7,3-4.3
				c0-0.2,0-0.9,0-1.1C100.3,67.9,99.1,66.1,96.8,64.7z"/>
			<path class="st1" d="M96.8,64.7c4.5,2.6,4.8,6.7,0.5,9.2c-4.3,2.5-11.4,2.3-15.9-0.3l-11.1-6.4l15.4-8.9L96.8,64.7z"/>
			<path class="st5" d="M96.8,64.7c4.5,2.6,4.8,6.7,0.5,9.2c-4.3,2.5-11.4,2.3-15.9-0.3l-11.1-6.4l15.4-8.9L96.8,64.7z"/>
		</g>
	</g>
	<g id="freepik--Carpet--inject-4">
		<path id="freepik--bath-mat--inject-4" class="st1" d="M86.5,103.9c-0.3-0.4-0.2-0.9,0.1-1.1c0,0,0.1,0,0.1-0.1
			c0.3-0.2,0.7-0.2,1,0c0-0.2,0.1-0.4,0.2-0.5c0.1-0.2,0.2-0.3,0.3-0.4c0.2-0.1,0.4-0.2,0.6-0.1c0.2,0,0.4,0.1,0.6,0.2
			c0.1-0.2,0.2-0.4,0.3-0.6c0.1-0.3,0.3-0.6,0.5-0.9c0.2-0.2,0.5-0.3,0.8-0.2c0.2,0.1,0.3,0.3,0.3,0.5c0.6-0.6,1.4-0.9,2.3-1
			c-0.2-0.2-0.4-0.5-0.4-0.7c0,0,0,0,0,0c0,0,0,0,0,0c0.3-0.1,0.6,0,0.8,0.2c0.1-0.4,0.5-0.6,0.9-0.5c0,0,0.1,0,0.1,0
			c0.4-0.7,1.1-1.2,2-1.3c0,0,0.1-0.5,0.2-0.6c0-0.2,0.1-0.4,0.3-0.5c0.2-0.1,0.4-0.1,0.5,0.1c0-0.2,0-0.3,0.1-0.5
			c0-0.2,0.1-0.3,0.3-0.4c0.3-0.2,0.4,0.4,0.5,0.6c0.1-0.5,0.5-0.7,1-0.7c0.1,0,0.2,0.1,0.4,0.2c0.1-0.1,0.1-0.3,0.1-0.5
			c0-0.1-0.2-0.3-0.1-0.5c0.1-0.4,0.7,0.1,0.8,0.2c-0.1-0.4,0.6-0.7,0.7-0.3c0.2-0.2,0.5-0.4,0.8-0.5c0.3-0.1,0.6-0.1,0.8,0.1
			c0.1,0.1,0.2,0.3,0.2,0.4c0.1-0.1,0.2-0.1,0.3-0.1c0.3,0,0.5,0.4,0.6,0.7c0.1,0,0.2,0,0.3,0c0.1,0,0.2,0.1,0.3,0.1
			c0.2,0.1,0.3,0.3,0.3,0.5c0.2-0.1,0.4-0.2,0.7-0.2c0.2,0,0.5,0.1,0.6,0.3c0.1,0.1,0.1,0.3,0.1,0.4c0-0.1,0.6-0.1,0.6-0.1
			c0.4,0.1,0.7,0.5,0.7,0.9c0.2-0.1,0.4-0.1,0.6-0.1c0.2,0,0.4,0.2,0.4,0.4c0.3,0,0.6,0,0.9,0.1c0.1,0.1,0.2,0.2,0.2,0.3
			c0,0.2-0.1,0.3-0.1,0.5c0.3,0,0.5,0,0.8,0c0.4,0.1,0.7,0.4,0.8,0.9c0.5-0.2,1,0.2,1.1,0.7c0.2-0.2,0.5-0.3,0.7-0.1
			c0,0.1,0.2,0.4,0.1,0.4c0.1-0.2,0.2-0.3,0.4-0.3c0.2,0,0.3,0,0.5,0.1c0.6,0.3,1.1,0.7,1.2,1.4c0-0.1,0.3-0.2,0.3-0.2
			c0.1,0,0.3-0.1,0.4,0c0.2,0,0.5,0.1,0.6,0.2c0.2,0.3-0.1,0.4-0.2,0.6c0.2-0.1,0.5,0,0.7,0.1c0.2,0.2,0.3,0.4,0.3,0.7
			c0.2-0.2,0.5-0.2,0.8-0.1c0.2,0.1,0.4,0.3,0.5,0.6c0.3-0.2,0.7-0.3,1-0.2c0.1,0,0.2,0.1,0.3,0.2c0.1,0.1,0.1,0.3,0,0.4
			c0,0.1-0.1,0.2-0.2,0.4c0.2-0.2,0.8,0.5,0.8,0.6c0.2-0.3,0.6-0.4,1-0.2c0.3,0.2,0.4,0.6,0.3,0.9c0.3-0.1,0.6-0.2,0.9-0.1
			c0.3,0.1,0.5,0.5,0.3,0.7c0.3,0,0.2-0.7,0.6-0.7c0.1,0,0.2,0.1,0.2,0.2c0.2,0.3,0.3,0.6,0.3,1c0.1-0.3,0.4-0.4,0.7-0.3
			c0,0,0.1,0,0.1,0.1c0.2,0.2,0.3,0.6,0.1,0.9c0.5-0.3,1.1-0.2,1.4,0.3c0.1,0.2,0.2,0.4,0.2,0.6c0.2-0.3,0.5-0.3,0.8-0.2
			c0,0,0,0,0.1,0c0.2,0.2,0.4,0.5,0.4,0.9c0.4-0.3,0.9-0.3,1.3,0c0.1,0,0.1,0.1,0.1,0.2c0,0.2-0.3,0.3-0.3,0.5
			c0.6-0.1,1.3,0.3,1.4,0.9c0,0,0,0,0,0c0.6-0.2,1.3,0.1,1.5,0.7c0,0,0,0.1,0,0.1c0.2-0.2,0.6-0.2,0.9,0c0.2,0.2,0.4,0.5,0.5,0.8
			c0.3-0.2,0.6-0.1,0.8,0.2c0.2,0.2,0.1,0.6-0.1,0.7c0,0,0,0,0,0l-16,9.3L86.5,103.9z"/>
		<path class="st9" d="M86.5,103.9c-0.3-0.4-0.2-0.9,0.1-1.1c0,0,0.1,0,0.1-0.1c0.3-0.2,0.7-0.2,1,0c0-0.2,0.1-0.4,0.2-0.5
			c0.1-0.2,0.2-0.3,0.3-0.4c0.2-0.1,0.4-0.2,0.6-0.1c0.2,0,0.4,0.1,0.6,0.2c0.1-0.2,0.2-0.4,0.3-0.6c0.1-0.3,0.3-0.6,0.5-0.9
			c0.2-0.2,0.5-0.3,0.8-0.2c0.2,0.1,0.3,0.3,0.3,0.5c0.6-0.6,1.4-0.9,2.3-1c-0.2-0.2-0.4-0.5-0.4-0.7c0,0,0,0,0,0c0,0,0,0,0,0
			c0.3-0.1,0.6,0,0.8,0.2c0.1-0.4,0.5-0.6,0.9-0.5c0,0,0.1,0,0.1,0c0.4-0.7,1.1-1.2,2-1.3c0,0,0.1-0.5,0.2-0.6
			c0-0.2,0.1-0.4,0.3-0.5c0.2-0.1,0.4-0.1,0.5,0.1c0-0.2,0-0.3,0.1-0.5c0-0.2,0.1-0.3,0.3-0.4c0.3-0.2,0.4,0.4,0.5,0.6
			c0.1-0.5,0.5-0.7,1-0.7c0.1,0,0.2,0.1,0.4,0.2c0.1-0.1,0.1-0.3,0.1-0.5c0-0.1-0.2-0.3-0.1-0.5c0.1-0.4,0.7,0.1,0.8,0.2
			c-0.1-0.4,0.6-0.7,0.7-0.3c0.2-0.2,0.5-0.4,0.8-0.5c0.3-0.1,0.6-0.1,0.8,0.1c0.1,0.1,0.2,0.3,0.2,0.4c0.1-0.1,0.2-0.1,0.3-0.1
			c0.3,0,0.5,0.4,0.6,0.7c0.1,0,0.2,0,0.3,0c0.1,0,0.2,0.1,0.3,0.1c0.2,0.1,0.3,0.3,0.3,0.5c0.2-0.1,0.4-0.2,0.7-0.2
			c0.2,0,0.5,0.1,0.6,0.3c0.1,0.1,0.1,0.3,0.1,0.4c0-0.1,0.6-0.1,0.6-0.1c0.4,0.1,0.7,0.5,0.7,0.9c0.2-0.1,0.4-0.1,0.6-0.1
			c0.2,0,0.4,0.2,0.4,0.4c0.3,0,0.6,0,0.9,0.1c0.1,0.1,0.2,0.2,0.2,0.3c0,0.2-0.1,0.3-0.1,0.5c0.3,0,0.5,0,0.8,0
			c0.4,0.1,0.7,0.4,0.8,0.9c0.5-0.2,1,0.2,1.1,0.7c0.2-0.2,0.5-0.3,0.7-0.1c0,0.1,0.2,0.4,0.1,0.4c0.1-0.2,0.2-0.3,0.4-0.3
			c0.2,0,0.3,0,0.5,0.1c0.6,0.3,1.1,0.7,1.2,1.4c0-0.1,0.3-0.2,0.3-0.2c0.1,0,0.3-0.1,0.4,0c0.2,0,0.5,0.1,0.6,0.2
			c0.2,0.3-0.1,0.4-0.2,0.6c0.2-0.1,0.5,0,0.7,0.1c0.2,0.2,0.3,0.4,0.3,0.7c0.2-0.2,0.5-0.2,0.8-0.1c0.2,0.1,0.4,0.3,0.5,0.6
			c0.3-0.2,0.7-0.3,1-0.2c0.1,0,0.2,0.1,0.3,0.2c0.1,0.1,0.1,0.3,0,0.4c0,0.1-0.1,0.2-0.2,0.4c0.2-0.2,0.8,0.5,0.8,0.6
			c0.2-0.3,0.6-0.4,1-0.2c0.3,0.2,0.4,0.6,0.3,0.9c0.3-0.1,0.6-0.2,0.9-0.1c0.3,0.1,0.5,0.5,0.3,0.7c0.3,0,0.2-0.7,0.6-0.7
			c0.1,0,0.2,0.1,0.2,0.2c0.2,0.3,0.3,0.6,0.3,1c0.1-0.3,0.4-0.4,0.7-0.3c0,0,0.1,0,0.1,0.1c0.2,0.2,0.3,0.6,0.1,0.9
			c0.5-0.3,1.1-0.2,1.4,0.3c0.1,0.2,0.2,0.4,0.2,0.6c0.2-0.3,0.5-0.3,0.8-0.2c0,0,0,0,0.1,0c0.2,0.2,0.4,0.5,0.4,0.9
			c0.4-0.3,0.9-0.3,1.3,0c0.1,0,0.1,0.1,0.1,0.2c0,0.2-0.3,0.3-0.3,0.5c0.6-0.1,1.3,0.3,1.4,0.9c0,0,0,0,0,0
			c0.6-0.2,1.3,0.1,1.5,0.7c0,0,0,0.1,0,0.1c0.2-0.2,0.6-0.2,0.9,0c0.2,0.2,0.4,0.5,0.5,0.8c0.3-0.2,0.6-0.1,0.8,0.2
			c0.2,0.2,0.1,0.6-0.1,0.7c0,0,0,0,0,0l-16,9.3L86.5,103.9z"/>
		<path class="st8" d="M134.7,112.4c0-0.1-0.1-0.1-0.2-0.2l-16,9.2l-32.1-18.5c-0.2,0.3-0.2,0.7,0,1l32,18.5l16-9.3
			C134.8,113,134.8,112.6,134.7,112.4C134.7,112.4,134.7,112.4,134.7,112.4z"/>
		<path class="st16" d="M134.7,112.4c0-0.1-0.1-0.1-0.2-0.2l-16,9.2v0.9l16-9.3c0.2-0.1,0.3-0.3,0.2-0.5
			C134.7,112.5,134.7,112.4,134.7,112.4z"/>
	</g>
	<g id="freepik--Shower--inject-4">
		<path class="st15" d="M62.9,11.3v82.9l-4.1-2.4V14.2c0-0.3,0.6-0.9,1.6-1.5L62.9,11.3z"/>
		<path class="st1" d="M67,96.6l-8.2-4.7V14.2c0,0.1,0,0.1,0.1,0.2c0.4,0.2,1.6-0.2,2.8-0.8l2.4-1.4c1.2-0.7,2.4-1.1,2.8-0.8
			c0.1,0,0.1,0.1,0.1,0.2L67,96.6z"/>
		<path class="st18" d="M60.3,14.2c-0.7,0.2-1.2,0.3-1.4,0.2c-0.1,0-0.1-0.1-0.1-0.2v77.7l1.5,0.9L60.3,14.2z"/>
		<path class="st16" d="M66.9,11.3c-0.4-0.2-1.6,0.2-2.8,0.8l-0.5,0.3v82.2l3.4,2V11.5C67,11.4,67,11.3,66.9,11.3z"/>
		<path class="st0" d="M67,14.2c0-0.1,0-0.1-0.1-0.2c-0.4-0.2-1.6,0.2-2.8,0.8l-2.4,1.4c-1.2,0.7-2.4,1.1-2.8,0.8
			c-0.1,0-0.1-0.1-0.1-0.2v-2.7c0,0.1,0,0.1,0.1,0.2c0.4,0.2,1.6-0.2,2.8-0.8l2.4-1.4c1.2-0.7,2.4-1.1,2.8-0.8
			c0.1,0,0.1,0.1,0.1,0.2V14.2z"/>
		<path class="st15" d="M65.6,12.8L65.6,12.8L63,14.3c-1,0.6-1.6,1.1-1.6,1.5v77.7l1.5,0.9l0,0l4.1,2.3V11.5
			C67,11.8,66.5,12.3,65.6,12.8z"/>
		<path class="st1" d="M69.7,98.2l-8.2-4.7V15.8c0,0.1,0,0.1,0.1,0.2c0.4,0.2,1.6-0.2,2.8-0.8l2.4-1.4c1.2-0.7,2.4-1.1,2.8-0.8
			c0.1,0,0.1,0.1,0.1,0.2L69.7,98.2z"/>
		<path class="st18" d="M63,15.7c-0.7,0.2-1.2,0.3-1.4,0.2c-0.1,0-0.1-0.1-0.1-0.2v77.7l1.5,0.9L63,15.7z"/>
		<path class="st16" d="M69.6,12.8c-0.4-0.2-1.6,0.2-2.8,0.8L66.2,14v82.2l3.4,2V13C69.7,13,69.6,12.9,69.6,12.8z"/>
		<path class="st0" d="M69.7,15.7c0-0.1,0-0.1-0.1-0.2c-0.4-0.2-1.6,0.2-2.8,0.8l-2.4,1.4c-1.2,0.7-2.4,1.1-2.8,0.8
			c-0.1,0-0.1-0.1-0.1-0.2v-2.7c0,0.1,0,0.1,0.1,0.2c0.4,0.2,1.6-0.2,2.8-0.8l2.4-1.4c1.2-0.7,2.4-1.1,2.8-0.8
			c0.1,0,0.1,0.1,0.1,0.2V15.7z"/>
		<path class="st15" d="M68.3,14.4L68.3,14.4l-2.5,1.5c-1,0.6-1.6,1.1-1.6,1.5V95l1.5,0.9l0,0l4.1,2.3V13
			C69.7,13.3,69.2,13.9,68.3,14.4z"/>
		<path class="st1" d="M72.4,99.7L64.1,95V17.3c0,0.1,0,0.1,0.1,0.2c0.4,0.2,1.6-0.2,2.8-0.8l2.4-1.4c1.2-0.7,2.4-1.1,2.8-0.8
			c0.1,0,0.1,0.1,0.1,0.2L72.4,99.7z"/>
		<path class="st18" d="M65.6,17.3c-0.7,0.2-1.2,0.3-1.4,0.2c-0.1,0-0.1-0.1-0.1-0.2V95l1.5,0.9L65.6,17.3z"/>
		<path class="st16" d="M72.3,14.4c-0.4-0.2-1.6,0.2-2.8,0.8l-0.5,0.3v82.2l3.5,2V14.6C72.4,14.5,72.3,14.4,72.3,14.4z"/>
		<path class="st0" d="M72.4,17.3c0-0.1,0-0.1-0.1-0.2c-0.4-0.2-1.6,0.2-2.8,0.8L67,19.3c-1.2,0.7-2.4,1.1-2.8,0.8
			c-0.1,0-0.1-0.1-0.1-0.2v-2.7c0,0.1,0,0.1,0.1,0.2c0.4,0.2,1.6-0.2,2.8-0.8l2.4-1.4c1.2-0.7,2.4-1.1,2.8-0.8
			c0.1,0,0.1,0.1,0.1,0.2V17.3z"/>
		<path class="st15" d="M70.9,15.9L70.9,15.9l-2.5,1.5c-1,0.6-1.6,1.1-1.6,1.5v77.7l1.5,0.9l0,0l4.1,2.3V14.6
			C72.4,14.9,71.8,15.4,70.9,15.9z"/>
		<path class="st1" d="M75.1,101.3l-8.2-4.7V18.9c0,0.1,0,0.1,0.1,0.2c0.4,0.2,1.6-0.2,2.8-0.8l2.4-1.4c1.2-0.7,2.4-1.1,2.8-0.8
			c0.1,0,0.1,0.1,0.1,0.2L75.1,101.3z"/>
		<path class="st18" d="M68.3,18.8c-0.7,0.2-1.2,0.3-1.4,0.2c-0.1,0-0.1-0.1-0.1-0.2v77.7l1.5,0.9L68.3,18.8z"/>
		<path class="st16" d="M74.9,15.9c-0.4-0.2-1.6,0.2-2.8,0.8l-0.5,0.3v82.2l3.5,2V16.1C75.1,16,75,16,74.9,15.9z"/>
		<path class="st0" d="M75.1,18.8c0-0.1,0-0.1-0.1-0.2c-0.4-0.2-1.6,0.2-2.8,0.8l-2.4,1.4c-1.2,0.7-2.4,1.1-2.8,0.8
			c-0.1,0-0.1-0.1-0.1-0.2v-2.7c0,0.1,0,0.1,0.1,0.2c0.4,0.2,1.6-0.2,2.8-0.8l2.4-1.4c1.2-0.7,2.4-1.1,2.8-0.8
			c0.1,0,0.1,0.1,0.1,0.2V18.8z"/>
		<path class="st15" d="M73.6,17.5L73.6,17.5L71.1,19c-1,0.6-1.6,1.1-1.6,1.5v77.7L71,99l0,0l4.1,2.3V16.1
			C75.1,16.4,74.5,17,73.6,17.5z"/>
		<path class="st1" d="M77.7,102.8l-8.2-4.7V20.4c0,0.1,0,0.1,0.1,0.2c0.4,0.2,1.6-0.2,2.8-0.8l2.4-1.4c1.2-0.7,2.4-1.1,2.8-0.8
			c0.1,0,0.1,0.1,0.1,0.2L77.7,102.8z"/>
		<path class="st18" d="M71,20.4c-0.7,0.2-1.2,0.3-1.4,0.2c-0.1,0-0.1-0.1-0.1-0.2v77.7L71,99L71,20.4z"/>
		<path class="st16" d="M77.6,17.5c-0.4-0.2-1.6,0.2-2.8,0.8l-0.5,0.3v82.2l3.5,2V17.7C77.7,17.6,77.7,17.5,77.6,17.5z"/>
		<path class="st0" d="M77.7,20.4c0-0.1,0-0.1-0.1-0.2C77.3,20,76,20.4,74.8,21l-2.4,1.4c-1.2,0.7-2.4,1.1-2.8,0.8
			c-0.1,0-0.1-0.1-0.1-0.2v-2.7c0,0.1,0,0.1,0.1,0.2c0.4,0.2,1.6-0.2,2.8-0.8l2.4-1.4c1.2-0.7,2.4-1.1,2.8-0.8
			c0.1,0,0.1,0.1,0.1,0.2V20.4z"/>
		<path class="st15" d="M76.3,19L76.3,19l-2.5,1.5c-1,0.6-1.6,1.1-1.6,1.5v77.7l1.5,0.9l0,0l4.1,2.3V17.7C77.8,18,77.2,18.5,76.3,19
			z"/>
		<path class="st1" d="M80.4,104.4l-8.2-4.8V22c0,0.1,0,0.1,0.1,0.2c0.4,0.2,1.6-0.2,2.8-0.8l2.4-1.4c1.2-0.7,2.4-1.1,2.8-0.8
			c0.1,0,0.1,0.1,0.1,0.2L80.4,104.4z"/>
		<path class="st18" d="M73.7,21.9c-0.7,0.2-1.2,0.3-1.4,0.2c-0.1,0-0.1-0.1-0.1-0.2v77.7l1.5,0.9L73.7,21.9z"/>
		<path class="st16" d="M80.3,19c-0.4-0.2-1.6,0.2-2.8,0.8L77,20.2v82.2l3.5,2V19.2C80.4,19.1,80.4,19.1,80.3,19z"/>
		<path class="st0" d="M80.4,21.9c0-0.1,0-0.1-0.1-0.2c-0.4-0.2-1.6,0.2-2.8,0.8L75.1,24c-1.2,0.7-2.4,1.1-2.8,0.8
			c-0.1,0-0.1-0.1-0.1-0.2V22c0,0.1,0,0.1,0.1,0.2c0.4,0.2,1.6-0.2,2.8-0.8l2.4-1.4c1.2-0.7,2.4-1.1,2.8-0.8c0.1,0,0.1,0.1,0.1,0.2
			V21.9z"/>
		<path class="st15" d="M79,20.6L79,20.6l-2.5,1.5c-1,0.6-1.6,1.1-1.6,1.5v77.7l1.5,0.9l0,0l4.1,2.3V19.2
			C80.5,19.5,79.9,20.1,79,20.6z"/>
		<path class="st1" d="M83.1,105.9l-8.2-4.8V23.5c0,0.1,0,0.1,0.1,0.2c0.4,0.2,1.6-0.2,2.8-0.8l2.4-1.4c1.2-0.7,2.4-1.1,2.8-0.8
			c0.1,0,0.1,0.1,0.1,0.2L83.1,105.9z"/>
		<path class="st18" d="M76.4,23.5c-0.6,0.2-1.2,0.3-1.4,0.2c-0.1,0-0.1-0.1-0.1-0.2v77.7l1.5,0.9L76.4,23.5z"/>
		<path class="st16" d="M83,20.6c-0.4-0.2-1.6,0.2-2.8,0.8l-0.5,0.3V104l3.5,2V20.8C83.1,20.7,83.1,20.6,83,20.6z"/>
		<path class="st0" d="M83.1,23.5c0-0.1,0-0.1-0.1-0.2c-0.4-0.2-1.6,0.2-2.8,0.8l-2.4,1.4c-1.2,0.7-2.4,1.1-2.8,0.8
			c-0.1,0-0.1-0.1-0.1-0.2v-2.7c0,0.1,0,0.1,0.1,0.2c0.4,0.2,1.6-0.2,2.8-0.8l2.4-1.4c1.2-0.7,2.4-1.1,2.8-0.8
			c0.1,0,0.1,0.1,0.1,0.2V23.5z"/>
		<path class="st1" d="M53.8,3.9c-0.3-0.2-0.7-0.1-1.1,0.1c-0.9,0.6-1.4,1.5-1.5,2.6c0,0.4,0.1,0.7,0.4,1c0.1,0.1,0.4,0.2,0.5,0.3
			c0.3,0.2,0.7,0.1,1-0.1c0.9-0.6,1.4-1.5,1.5-2.6c0-0.4-0.1-0.8-0.5-1L53.8,3.9z"/>
		<path class="st6" d="M53.8,3.9c-0.3-0.2-0.7-0.1-1.1,0.1c-0.9,0.6-1.4,1.5-1.5,2.6c0,0.4,0.1,0.7,0.4,1c0.1,0.1,0.4,0.2,0.5,0.3
			c0.3,0.2,0.7,0.1,1-0.1c0.9-0.6,1.4-1.5,1.5-2.6c0-0.4-0.1-0.8-0.5-1L53.8,3.9z"/>
		<path class="st1" d="M51.8,6.9c0.1-1.1,0.6-2,1.5-2.6c0.8-0.5,1.5-0.1,1.5,0.9c-0.1,1.1-0.6,2-1.5,2.6C52.4,8.3,51.8,7.9,51.8,6.9
			z"/>
		<path class="st7" d="M51.8,6.9c0.1-1.1,0.6-2,1.5-2.6c0.8-0.5,1.5-0.1,1.5,0.9c-0.1,1.1-0.6,2-1.5,2.6C52.4,8.3,51.8,7.9,51.8,6.9
			z"/>
		<path class="st1" d="M135.6,52.8L53.7,5.5c-0.1,0-0.2,0-0.3,0c-0.3,0.2-0.4,0.5-0.5,0.8c0,0.1,0,0.2,0.1,0.3L134.9,54
			c0.1,0,0.2,0,0.3,0c0.3-0.2,0.4-0.5,0.5-0.8C135.7,53,135.7,52.9,135.6,52.8z"/>
		<path class="st6" d="M135.6,52.8L53.7,5.5c-0.1,0-0.2,0-0.3,0c-0.3,0.2-0.4,0.5-0.5,0.8c0,0.1,0,0.2,0.1,0.3L134.9,54
			c0.1,0,0.2,0,0.3,0c0.3-0.2,0.4-0.5,0.5-0.8C135.7,53,135.7,52.9,135.6,52.8z"/>
		<path class="st23" d="M53,6.7L134.9,54c0.1,0,0.2,0,0.3,0c0.1-0.1,0.2-0.1,0.2-0.2L53,6.1c0,0.1-0.1,0.2-0.1,0.3
			C52.9,6.5,52.9,6.6,53,6.7z"/>
		<path class="st1" d="M136.2,51.5c-0.3-0.2-0.7-0.1-1.1,0.1c-0.9,0.6-1.4,1.5-1.5,2.6c0,0.4,0.1,0.7,0.4,1c0.1,0.1,0.4,0.2,0.5,0.3
			c0.3,0.2,0.7,0.1,1-0.1c0.9-0.6,1.4-1.5,1.5-2.6c0-0.4-0.1-0.8-0.5-1L136.2,51.5z"/>
		<path class="st6" d="M136.2,51.5c-0.3-0.2-0.7-0.1-1.1,0.1c-0.9,0.6-1.4,1.5-1.5,2.6c0,0.4,0.1,0.7,0.4,1c0.1,0.1,0.4,0.2,0.5,0.3
			c0.3,0.2,0.7,0.1,1-0.1c0.9-0.6,1.4-1.5,1.5-2.6c0-0.4-0.1-0.8-0.5-1L136.2,51.5z"/>
		<path class="st1" d="M134.1,54.4c0.1-1.1,0.6-2,1.5-2.6c0.8-0.5,1.5-0.1,1.5,0.9c-0.1,1.1-0.6,2-1.5,2.6
			C134.8,55.8,134.1,55.4,134.1,54.4z"/>
		<path class="st7" d="M134.1,54.4c0.1-1.1,0.6-2,1.5-2.6c0.8-0.5,1.5-0.1,1.5,0.9c-0.1,1.1-0.6,2-1.5,2.6
			C134.8,55.8,134.1,55.4,134.1,54.4z"/>
		<path class="st21" d="M61.3,12.7c0.1-0.1,0.2,0,0.2,0.1c0,0.2-0.1,0.3-0.2,0.4c-0.1,0.1-0.2,0-0.2-0.1C61,13,61.1,12.8,61.3,12.7z
			"/>
		<path class="st20" d="M62.6,10.7l-0.2-0.1c0-0.3-0.3-0.6-0.6-0.6c-0.1,0-0.2,0-0.2,0.1c-0.1,0-0.2,0.1-0.2,0.1
			c-0.3,0.2-0.6,0.5-0.8,0.8c-0.3,0.4-0.4,0.8-0.4,1.3c-0.1,0.4,0.1,0.7,0.5,0.8c0.2,0.1,0.4,0,0.6-0.2c0.1-0.1,0.2-0.1,0.2-0.2
			c0,0.1,0,0.1,0,0.2c-0.1,0-0.1,0.1-0.2,0.1c-0.2,0.1-0.4,0.2-0.6,0.2c-0.1,0-0.3,0-0.4-0.1c-0.3-0.2-0.4-0.5-0.4-0.9
			c0-0.5,0.2-1,0.4-1.4c0.2-0.4,0.5-0.6,0.8-0.9c0,0,0.1-0.1,0.1-0.1c0.4-0.2,0.9-0.1,1.1,0.3C62.5,10.4,62.6,10.5,62.6,10.7z"/>
		<path class="st21" d="M62.6,13.5c0.1-0.1,0.2,0,0.2,0.1c0,0.2-0.1,0.3-0.2,0.4c-0.1,0.1-0.2,0-0.2-0.1
			C62.3,13.8,62.4,13.6,62.6,13.5z"/>
		<path class="st20" d="M63.9,11.5l-0.2-0.1c0-0.2-0.1-0.4-0.3-0.5c-0.2-0.1-0.4-0.1-0.6,0c-0.1,0-0.2,0.1-0.2,0.1
			c-0.3,0.2-0.6,0.5-0.8,0.8c-0.3,0.4-0.4,0.8-0.4,1.3c0,0.3,0.1,0.6,0.3,0.7c0.3,0.1,0.6,0.1,0.8-0.1c0.1-0.1,0.2-0.1,0.2-0.2
			c0,0.1,0,0.1,0,0.2c-0.1,0-0.1,0.1-0.2,0.1C62.5,14,62.2,14,62,14c-0.1,0-0.3,0-0.4-0.1c-0.3-0.2-0.4-0.5-0.4-0.9
			c0-0.5,0.2-1,0.4-1.4c0.2-0.4,0.5-0.6,0.8-0.9c0,0,0.1-0.1,0.1-0.1c0.4-0.2,0.9-0.1,1.1,0.3C63.9,11.1,63.9,11.3,63.9,11.5z"/>
		<path class="st21" d="M63.9,14.3c0.1-0.1,0.2,0,0.2,0.1c0,0.2-0.1,0.3-0.2,0.4c-0.1,0.1-0.2,0-0.2-0.1
			C63.7,14.5,63.8,14.4,63.9,14.3z"/>
		<path class="st20" d="M65.1,12.1L65.1,12.1c0-0.2-0.1-0.4-0.3-0.5c-0.2-0.1-0.4-0.1-0.6,0c-0.1,0-0.2,0.1-0.2,0.1
			c-0.3,0.2-0.6,0.5-0.8,0.8c-0.3,0.4-0.4,0.8-0.4,1.3c0,0.3,0.1,0.6,0.3,0.7c0.3,0.1,0.6,0.1,0.8-0.1c0.1,0,0.2-0.1,0.2-0.2
			c0,0.1,0,0.1,0,0.2c-0.1,0-0.1,0.1-0.2,0.1c-0.2,0.1-0.4,0.2-0.6,0.2c-0.1,0-0.3,0-0.4-0.1c-0.3-0.2-0.5-0.5-0.4-0.9
			c0-0.5,0.2-1,0.5-1.4c0.2-0.3,0.5-0.6,0.9-0.9c0,0,0.1,0,0.1-0.1c0.4-0.2,0.9-0.1,1.1,0.2c0.1,0.1,0.1,0.3,0.1,0.5L65.1,12.1z"/>
		<path class="st21" d="M65.3,15.1c0.1-0.1,0.2,0,0.2,0.1c0,0.2-0.1,0.3-0.2,0.4c-0.1,0.1-0.2,0-0.2-0.1
			C65,15.3,65.1,15.2,65.3,15.1z"/>
		<path class="st20" d="M66.4,12.9L66.4,12.9c0-0.3-0.3-0.6-0.7-0.6c-0.1,0-0.1,0-0.2,0.1c-0.1,0-0.2,0.1-0.2,0.1
			c-0.3,0.2-0.6,0.5-0.8,0.8c-0.3,0.4-0.4,0.8-0.4,1.3c-0.1,0.4,0.1,0.7,0.5,0.8c0.2,0.1,0.4,0,0.6-0.2c0.1,0,0.2-0.1,0.2-0.2
			c0,0.1,0,0.1,0,0.2c-0.1,0-0.1,0.1-0.2,0.1c-0.2,0.1-0.4,0.2-0.6,0.2c-0.1,0-0.3,0-0.4-0.1c-0.3-0.2-0.4-0.5-0.4-0.9
			c0-0.5,0.2-1,0.4-1.4c0.2-0.4,0.5-0.6,0.8-0.9c0,0,0.1,0,0.1-0.1c0.3-0.1,0.6-0.2,0.8,0c0.2,0.2,0.4,0.4,0.4,0.7L66.4,12.9z"/>
		<path class="st21" d="M66.6,15.8c0.1-0.1,0.2,0,0.2,0.1c0,0.2-0.1,0.3-0.2,0.4c-0.1,0.1-0.2,0-0.2-0.1
			C66.4,16.1,66.5,15.9,66.6,15.8z"/>
		<path class="st20" d="M67.7,13.7L67.7,13.7c0-0.2-0.1-0.4-0.3-0.5c-0.2-0.1-0.4-0.1-0.6,0c-0.1,0-0.2,0.1-0.2,0.1
			c-0.3,0.2-0.6,0.5-0.8,0.8c-0.3,0.4-0.4,0.8-0.4,1.3c0,0.3,0.1,0.6,0.3,0.7c0.3,0.1,0.6,0.1,0.8-0.1c0.1-0.1,0.2-0.1,0.2-0.2
			c0,0.1,0,0.1,0,0.2c-0.1,0-0.1,0.1-0.2,0.1c-0.2,0.1-0.4,0.2-0.6,0.2c-0.1,0-0.3,0-0.4-0.1c-0.3-0.2-0.4-0.5-0.4-0.9
			c0-0.5,0.2-1,0.4-1.4c0.2-0.4,0.5-0.6,0.9-0.9c0,0,0.1,0,0.1-0.1c0.3-0.1,0.6-0.2,0.8,0c0.2,0.2,0.4,0.4,0.4,0.7L67.7,13.7z"/>
		<path class="st21" d="M67.9,16.6c0.1-0.1,0.2,0,0.2,0.1c0,0.2-0.1,0.3-0.2,0.4c-0.1,0.1-0.2,0-0.2-0.1
			C67.7,16.8,67.8,16.7,67.9,16.6z"/>
		<path class="st20" d="M69.1,14.4L69.1,14.4c0-0.2-0.1-0.4-0.3-0.5c-0.2-0.1-0.4-0.1-0.6,0C68.1,14,68,14,68,14
			c-0.3,0.2-0.6,0.5-0.8,0.8c-0.3,0.4-0.4,0.8-0.4,1.3c0,0.3,0.1,0.6,0.3,0.7c0.3,0.1,0.6,0.1,0.8-0.1c0.1,0,0.2-0.1,0.2-0.2
			c0,0.1,0,0.1,0,0.2c-0.1,0-0.1,0.1-0.2,0.1c-0.2,0.1-0.4,0.2-0.6,0.2c-0.1,0-0.3,0-0.4-0.1c-0.3-0.2-0.4-0.5-0.4-0.9
			c0-0.5,0.2-1,0.4-1.4c0.2-0.4,0.5-0.7,0.8-0.9c0,0,0.1,0,0.1-0.1c0.3-0.1,0.6-0.2,0.8,0c0.2,0.2,0.4,0.4,0.4,0.7L69.1,14.4z"/>
		<path class="st21" d="M69.3,17.4c0.1-0.1,0.2,0,0.2,0.1c0,0.2-0.1,0.3-0.2,0.4c-0.1,0.1-0.2,0-0.2-0.1
			C69,17.6,69.1,17.5,69.3,17.4z"/>
		<path class="st20" d="M70.6,15.3l-0.2-0.1c0-0.2-0.1-0.4-0.3-0.5c-0.2-0.1-0.4-0.1-0.6,0c-0.1,0-0.2,0.1-0.2,0.1
			c-0.3,0.2-0.6,0.5-0.8,0.8c-0.3,0.4-0.4,0.8-0.4,1.3c-0.1,0.4,0.1,0.7,0.5,0.8c0.2,0.1,0.5,0,0.6-0.2c0.1-0.1,0.2-0.1,0.3-0.2
			c0,0.1,0,0.1,0,0.2c-0.1,0-0.1,0.1-0.2,0.1c-0.2,0.1-0.4,0.2-0.6,0.2c-0.1,0-0.3,0-0.4-0.1c-0.3-0.2-0.4-0.5-0.4-0.9
			c0-0.5,0.2-1,0.4-1.4c0.2-0.4,0.5-0.7,0.9-0.9c0,0,0.1,0,0.1-0.1c0.4-0.2,0.9-0.1,1.1,0.2C70.6,15,70.6,15.1,70.6,15.3L70.6,15.3z
			"/>
		<path class="st21" d="M70.6,18.1c0.1-0.1,0.2,0,0.2,0.1c0,0.2-0.1,0.3-0.2,0.4c-0.1,0.1-0.2,0-0.2-0.1
			C70.4,18.4,70.5,18.2,70.6,18.1z"/>
		<path class="st20" d="M71.9,16.1L71.8,16c0-0.2-0.1-0.4-0.3-0.5c-0.2-0.1-0.4-0.1-0.6,0c-0.1,0-0.2,0.1-0.2,0.1
			c-0.3,0.2-0.6,0.5-0.8,0.8c-0.3,0.4-0.4,0.8-0.4,1.3c-0.1,0.4,0.1,0.7,0.5,0.8c0.2,0.1,0.4,0,0.6-0.2c0.1-0.1,0.2-0.1,0.2-0.2
			c0,0.1,0,0.1,0,0.2c-0.1,0-0.1,0.1-0.2,0.1c-0.2,0.1-0.4,0.2-0.6,0.2c-0.1,0-0.3,0-0.4-0.1c-0.3-0.2-0.4-0.5-0.4-0.9
			c0-0.5,0.2-1,0.4-1.4c0.2-0.4,0.5-0.7,0.9-0.9c0,0,0.1,0,0.1-0.1c0.4-0.2,0.9-0.1,1.1,0.2C71.9,15.8,71.9,15.9,71.9,16.1
			L71.9,16.1z"/>
		<path class="st21" d="M71.9,18.9c0.1-0.1,0.2,0,0.2,0.1c0,0.2-0.1,0.3-0.2,0.4c-0.1,0.1-0.2,0-0.2-0.1
			C71.7,19.2,71.8,19,71.9,18.9z"/>
		<path class="st20" d="M73.3,16.9l-0.2-0.1c0-0.2-0.1-0.4-0.3-0.5c-0.2-0.1-0.4-0.1-0.6,0c-0.1,0-0.2,0.1-0.2,0.1
			c-0.3,0.2-0.6,0.5-0.8,0.8c-0.3,0.4-0.4,0.8-0.4,1.3c-0.1,0.4,0.1,0.7,0.5,0.8c0.2,0.1,0.4,0,0.6-0.2c0.1-0.1,0.2-0.1,0.2-0.2
			c0,0.1,0,0.1,0,0.2c-0.1,0-0.1,0.1-0.2,0.1c-0.2,0.1-0.4,0.2-0.6,0.2c-0.1,0-0.3,0-0.4-0.1c-0.3-0.2-0.4-0.5-0.4-0.9
			c0-0.5,0.2-1,0.4-1.4c0.2-0.4,0.5-0.7,0.9-0.9c0,0,0.1,0,0.1-0.1c0.4-0.2,0.9-0.1,1.1,0.2C73.2,16.5,73.3,16.7,73.3,16.9
			L73.3,16.9z"/>
		<path class="st21" d="M73.3,19.7c0.1-0.1,0.2,0,0.2,0.1c0,0.2-0.1,0.3-0.2,0.4c-0.1,0.1-0.2,0-0.2-0.1
			C73,19.9,73.1,19.8,73.3,19.7z"/>
		<path class="st20" d="M74.6,17.6l-0.2-0.1c0-0.2-0.1-0.4-0.3-0.5c-0.2-0.1-0.4-0.1-0.6,0c-0.1,0-0.2,0.1-0.2,0.1
			c-0.3,0.2-0.6,0.5-0.8,0.8c-0.2,0.4-0.4,0.8-0.4,1.3c-0.1,0.4,0.1,0.7,0.5,0.8c0.2,0.1,0.4,0,0.6-0.2c0.1-0.1,0.2-0.1,0.2-0.2
			c0,0.1,0,0.1,0,0.2c-0.1,0-0.1,0.1-0.2,0.1c-0.2,0.1-0.4,0.2-0.6,0.2c-0.1,0-0.3,0-0.4-0.1c-0.3-0.2-0.4-0.5-0.4-0.9
			c0-0.5,0.2-1,0.4-1.4c0.2-0.4,0.5-0.7,0.9-0.9c0,0,0.1,0,0.1-0.1c0.4-0.2,0.9-0.1,1.1,0.2C74.6,17.3,74.6,17.5,74.6,17.6
			L74.6,17.6z"/>
		<path class="st21" d="M74.6,20.4c0.1-0.1,0.2,0,0.2,0.1c0,0.2-0.1,0.3-0.2,0.4c-0.1,0.1-0.2,0-0.2-0.1
			C74.4,20.7,74.5,20.5,74.6,20.4z"/>
		<path class="st20" d="M75.9,18.4l-0.2-0.1c0-0.2-0.1-0.4-0.3-0.5c-0.2-0.1-0.4-0.1-0.6,0c-0.1,0-0.2,0.1-0.2,0.1
			c-0.3,0.2-0.6,0.5-0.8,0.8c-0.3,0.4-0.4,0.8-0.4,1.3c-0.1,0.4,0.1,0.7,0.5,0.8c0.2,0.1,0.4,0,0.6-0.2c0.1-0.1,0.2-0.1,0.2-0.2
			c0,0.1,0,0.1,0,0.2c-0.1,0-0.1,0.1-0.2,0.1C74.5,20.9,74.3,21,74,21c-0.1,0-0.3,0-0.4-0.1c-0.3-0.2-0.4-0.5-0.4-0.9
			c0-0.5,0.2-1,0.4-1.4c0.2-0.4,0.5-0.6,0.9-0.9c0,0,0.1,0,0.1-0.1c0.4-0.2,0.9-0.1,1.1,0.2C75.9,18.1,75.9,18.2,75.9,18.4
			L75.9,18.4z"/>
		<path class="st21" d="M76,21.2c0.1-0.1,0.2,0,0.2,0.1c0,0.2-0.1,0.3-0.2,0.4c-0.1,0.1-0.2,0-0.2-0.1C75.7,21.5,75.8,21.3,76,21.2z
			"/>
		<path class="st20" d="M77.3,19.2l-0.2-0.1c0-0.2-0.1-0.4-0.3-0.5c-0.2-0.1-0.4-0.1-0.6,0c-0.1,0-0.2,0.1-0.2,0.1
			c-0.3,0.2-0.6,0.5-0.8,0.8c-0.3,0.4-0.4,0.8-0.4,1.3c-0.1,0.4,0.1,0.7,0.5,0.8c0.2,0.1,0.4,0,0.6-0.2c0.1-0.1,0.2-0.1,0.2-0.2
			c0,0.1,0,0.1,0,0.2c-0.1,0-0.1,0.1-0.2,0.1c-0.2,0.1-0.4,0.2-0.6,0.2c-0.1,0-0.3,0-0.4-0.1c-0.3-0.2-0.4-0.5-0.4-0.9
			c0-0.5,0.2-1,0.4-1.4c0.2-0.4,0.5-0.7,0.9-0.9c0,0,0.1,0,0.1-0.1c0.3-0.2,0.6-0.2,0.8,0C77.1,18.6,77.3,18.9,77.3,19.2z"/>
		<path class="st21" d="M77.3,22c0.1-0.1,0.2,0,0.2,0.1c0,0.2-0.1,0.3-0.2,0.4c-0.1,0.1-0.2,0-0.2-0.1C77.1,22.2,77.1,22.1,77.3,22z
			"/>
		<path class="st20" d="M78.6,19.9l-0.2-0.1c0-0.3-0.3-0.6-0.6-0.6c-0.1,0-0.2,0-0.3,0.1c-0.1,0-0.2,0.1-0.2,0.1
			c-0.3,0.2-0.6,0.5-0.8,0.8c-0.3,0.4-0.4,0.8-0.4,1.3c-0.1,0.4,0.1,0.7,0.5,0.8c0.2,0.1,0.4,0,0.6-0.2c0.1-0.1,0.2-0.1,0.2-0.2
			c0,0.1,0,0.1,0,0.2c-0.1,0-0.1,0.1-0.2,0.1c-0.2,0.1-0.4,0.2-0.6,0.2c-0.1,0-0.3,0-0.4-0.1c-0.3-0.2-0.4-0.5-0.4-0.9
			c0-0.5,0.2-1,0.4-1.4c0.2-0.4,0.5-0.7,0.9-0.9c0,0,0.1,0,0.1-0.1c0.4-0.2,0.9-0.1,1.1,0.2C78.6,19.6,78.6,19.8,78.6,19.9z"/>
		<path class="st21" d="M78.6,22.8c0.1-0.1,0.2,0,0.2,0.1c0,0.2-0.1,0.3-0.2,0.4c-0.1,0.1-0.2,0-0.2-0.1
			C78.4,23,78.5,22.8,78.6,22.8z"/>
		<path class="st20" d="M80,20.7l-0.2-0.1c0-0.2-0.1-0.4-0.3-0.5c-0.2-0.1-0.4-0.1-0.6,0c-0.1,0-0.2,0.1-0.2,0.1
			c-0.3,0.2-0.6,0.5-0.8,0.8c-0.3,0.4-0.4,0.8-0.4,1.3c0,0.3,0.1,0.6,0.3,0.7c0.3,0.1,0.6,0.1,0.8-0.1c0.1-0.1,0.2-0.1,0.2-0.2
			c0,0.1,0,0.1,0,0.2c-0.1,0-0.1,0.1-0.2,0.1c-0.2,0.1-0.4,0.2-0.6,0.2c-0.1,0-0.3,0-0.4-0.1c-0.3-0.2-0.4-0.5-0.4-0.9
			c0-0.5,0.2-1,0.4-1.4c0.2-0.4,0.5-0.7,0.9-0.9c0,0,0.1,0,0.1-0.1c0.4-0.2,0.9-0.1,1.1,0.2C79.9,20.4,80,20.5,80,20.7L80,20.7z"/>
		<path class="st1" d="M30.9,64.4c-0.5-0.3-1.1-0.2-1.8,0.2c-1.5,1-2.5,2.7-2.6,4.5c0,0.8,0.3,1.4,0.7,1.6c0.2,0.1,0.2,0.2,0.5,0.3
			c0.5,0.3,1.1,0.2,1.8-0.2c1.5-1,2.5-2.7,2.6-4.5c0-0.8-0.3-1.4-0.8-1.7C31.1,64.6,31.1,64.5,30.9,64.4z"/>
		<path class="st6" d="M30.9,64.4c-0.5-0.3-1.1-0.2-1.8,0.2c-1.5,1-2.5,2.7-2.6,4.5c0,0.8,0.3,1.4,0.7,1.6c0.2,0.1,0.2,0.2,0.5,0.3
			c0.5,0.3,1.1,0.2,1.8-0.2c1.5-1,2.5-2.7,2.6-4.5c0-0.8-0.3-1.4-0.8-1.7C31.1,64.6,31.1,64.5,30.9,64.4z"/>
		<path class="st1" d="M26.9,69.3c0-1.6,1.2-3.6,2.6-4.5c1.4-0.8,2.6-0.2,2.6,1.5c-0.1,1.8-1.1,3.5-2.6,4.5
			C28.1,71.6,26.9,71,26.9,69.3z"/>
		<path class="st7" d="M26.9,69.3c0-1.6,1.2-3.6,2.6-4.5c1.4-0.8,2.6-0.2,2.6,1.5c-0.1,1.8-1.1,3.5-2.6,4.5
			C28.1,71.6,26.9,71,26.9,69.3z"/>
		<polygon class="st1" points="29.1,68.7 30.8,69.7 32.8,74.6 34.1,73.9 32.6,68.7 30.8,67.6 		"/>
		<polygon class="st9" points="29.1,68.7 30.8,69.7 32.8,74.6 34.1,73.9 32.6,68.7 30.8,67.6 		"/>
		<polygon class="st1" points="29.1,68.7 29.1,69.2 30.4,69.9 32.5,75.4 32.8,74.6 30.8,69.7 		"/>
		<polygon class="st7" points="29.1,68.7 29.1,69.2 30.4,69.9 32.5,75.4 32.8,74.6 30.8,69.7 		"/>
		<polygon class="st24" points="29.1,68.7 29.1,69.2 30.4,69.9 32.5,75.4 32.8,74.6 30.8,69.7 		"/>
		<polygon class="st1" points="33.8,74.7 34.1,73.9 32.8,74.6 32.5,75.4 		"/>
		<polygon class="st7" points="33.8,74.7 34.1,73.9 32.8,74.6 32.5,75.4 		"/>
		<path class="st1" d="M30.8,8.2c-0.5-0.3-1.1-0.2-1.8,0.2c-1.6,1-2.5,2.7-2.6,4.5c0,0.8,0.3,1.4,0.8,1.7c0.2,0.1,0.5,0.3,0.7,0.4
			c0.5,0.3,1.1,0.2,1.8-0.2c1.6-1,2.5-2.7,2.6-4.5c0-0.8-0.3-1.4-0.8-1.7C31.3,8.4,31.1,8.3,30.8,8.2z"/>
		<path class="st6" d="M30.8,8.2c-0.5-0.3-1.1-0.2-1.8,0.2c-1.6,1-2.5,2.7-2.6,4.5c0,0.8,0.3,1.4,0.8,1.7c0.2,0.1,0.5,0.3,0.7,0.4
			c0.5,0.3,1.1,0.2,1.8-0.2c1.6-1,2.5-2.7,2.6-4.5c0-0.8-0.3-1.4-0.8-1.7C31.3,8.4,31.1,8.3,30.8,8.2z"/>
		<path class="st1" d="M27,13.3c0.1-1.8,1.1-3.5,2.6-4.5c1.4-0.8,2.6-0.2,2.6,1.5c-0.1,1.8-1.1,3.5-2.6,4.5C28.2,15.6,27,15,27,13.3
			z"/>
		<path class="st7" d="M27,13.3c0.1-1.8,1.1-3.5,2.6-4.5c1.4-0.8,2.6-0.2,2.6,1.5c-0.1,1.8-1.1,3.5-2.6,4.5C28.2,15.6,27,15,27,13.3
			z"/>
		<path class="st1" d="M37.7,17.6l-1-0.6c-0.2-0.1-0.4-0.1-0.6-0.1l-0.6,0.4c-0.2,0.1-0.3,0.3-0.2,0.6v22c0,0.6,0.3,1.1,0.9,1.5
			l1,0.6c0.2,0.1,0.4,0.1,0.6,0.1l0.6-0.4c0.2-0.1,0.3-0.3,0.2-0.5v-22C38.5,18.5,38.2,18,37.7,17.6z"/>
		<path class="st17" d="M35.2,39.9c0,0.6,0.3,1.1,0.9,1.5l1,0.6c0.2,0.1,0.4,0.1,0.6,0.1l0.6-0.4c0.2-0.1,0.3-0.3,0.2-0.5v-22
			c0-0.2-0.1-0.4-0.1-0.6l-3.2,1.8L35.2,39.9z"/>
		<path class="st7" d="M37.7,17.6l-1-0.6c-0.2-0.1-0.4-0.1-0.6-0.1l-0.6,0.4c-0.2,0.1-0.3,0.3-0.2,0.6v2.4l3.2-1.8
			C38.2,18.1,38,17.8,37.7,17.6z"/>
		<path class="st1" d="M36.1,17.5l1,0.6c0.5,0.3,0.8,0.9,0.9,1.5v22c0,0.5-0.4,0.8-0.9,0.5l-1-0.6c-0.5-0.3-0.8-0.9-0.9-1.5v-22
			C35.2,17.4,35.6,17.2,36.1,17.5z"/>
		<path class="st2" d="M36.1,17.5l1,0.6c0.5,0.3,0.8,0.9,0.9,1.5v22c0,0.5-0.4,0.8-0.9,0.5l-1-0.6c-0.5-0.3-0.8-0.9-0.9-1.5v-22
			C35.2,17.4,35.6,17.2,36.1,17.5z"/>
		<path class="st20" d="M36.5,12.3L36.5,12.3L36.5,12.3L36.5,12.3l-0.1,0c0,0,0,0-0.1,0c0,0-0.1,0-0.1,0c-0.1,0-0.2,0-0.3,0.1
			l-3.5,1.3c-0.3,0.1-0.5-0.1-0.6-0.4c0-0.1,0-0.2,0-0.3v-1c0-0.7-0.2-1.3-0.6-1.4c0,0,0,0,0,0l-0.1,0c-0.1,0-0.2,0-0.2,0v0.3
			c0.1,0,0.2,0,0.2,0c0.2,0.1,0.4,0.5,0.4,1.1v0.9c0,0.4,0.1,0.7,0.4,1l0,0l0,0c0.2,0.1,0.4,0.1,0.6,0l3.4-1.3h0
			c0.1-0.1,0.3-0.1,0.4,0c0.2,0.2,0.4,0.6,0.4,1.1v6.3l0.3-0.2v-6.1C37.2,13,36.9,12.5,36.5,12.3z"/>
		<path class="st21" d="M36.6,12.3c-0.2-0.1-0.5-0.1-0.7,0l-3.5,1.3c-0.3,0.1-0.5-0.1-0.6-0.4l3.3-1.3c0.2-0.1,0.5-0.1,0.7,0
			L36.6,12.3z"/>
		<path class="st22" d="M31.9,13.8l-0.7-0.4l0,0c-0.3-0.2-0.4-0.6-0.4-1v-0.9c0-0.2,0-0.5-0.1-0.7c0.1,0,0.1-0.1,0.2-0.1
			c0.1,0,0.2,0,0.2,0c0.2,0.1,0.4,0.5,0.4,1.1v0.9C31.5,13.2,31.6,13.6,31.9,13.8L31.9,13.8z"/>
		<path class="st22" d="M36.9,13.8v6.3l-0.7-0.4v-6.3c0-0.3,0-0.5-0.1-0.8h0c0.1-0.1,0.3-0.1,0.4,0C36.7,12.8,36.9,13.2,36.9,13.8z"
			/>
		<g id="freepik--tube--inject-4">
			<path class="st1" d="M48.7,15c-0.1,0.2-0.3,0.2-0.5,0.2c-0.1,0-0.3,0-0.4-0.1c-2.6-1.8-5.6-2.9-8.8-3.3c-5.7-0.8-9.1,0.5-9.2,0.6
				c-0.1,0-0.2,0-0.3,0h0h-0.1l0,0c-0.1-0.1-0.2-0.2-0.2-0.4c0-0.4,0.2-0.7,0.5-0.9c0,0,0.1,0,0.1,0c0,0,0,0,0.1,0
				c1.3-0.4,4.4-1.1,9.2-0.4c5.7,0.8,9.2,3.5,9.4,3.6C48.9,14.4,48.9,14.8,48.7,15z"/>
			<path class="st6" d="M48.7,15c-0.1,0.2-0.3,0.2-0.5,0.2c-0.1,0-0.3,0-0.4-0.1c-2.6-1.8-5.6-2.9-8.8-3.3c-5.7-0.8-9.1,0.5-9.2,0.6
				c-0.1,0-0.2,0-0.3,0h0h-0.1l0,0c-0.1-0.1-0.2-0.2-0.2-0.4c0-0.4,0.2-0.7,0.5-0.9c0,0,0.1,0,0.1,0c0,0,0,0,0.1,0
				c1.3-0.4,4.4-1.1,9.2-0.4c5.7,0.8,9.2,3.5,9.4,3.6C48.9,14.4,48.9,14.8,48.7,15z"/>
			<path class="st23" d="M48.2,15.3c0.2,0,0.4-0.1,0.5-0.2l0,0c-2.2-1.4-4.5-2.4-7-3.2c-4.1-1.2-8.8-0.7-10.3-0.4
				c-1.5,0.4-2.1,0.6-1.9,0c-0.1,0.2-0.2,0.4-0.2,0.6c0,0.1,0.1,0.3,0.2,0.4l0,0h0.1h0c0.1,0,0.2,0,0.3,0c0,0,3.4-1.3,9.2-0.6
				c3.2,0.4,6.2,1.5,8.8,3.3C47.9,15.2,48.1,15.3,48.2,15.3z"/>
		</g>
		<path class="st21" d="M23.1,47.6l13.3-7.7c0,0,0.1,0,0.2,0c0.1,0.1,0.2,0.2,0.2,0.4c0,0.1,0,0.1-0.1,0.1l-13.3,7.7
			c0,0-0.1,0-0.2,0C23.1,48,23,47.9,23,47.7C23,47.7,23,47.6,23.1,47.6z"/>
		<path class="st1" d="M25.2,44.8l-2-1.1c-0.2-0.1-0.3-0.3-0.4-0.5c0-0.1,0-0.6,0-0.7c0-0.2,0.2-0.4,0.4-0.5l11.7-6.7
			c0.5-0.3,1.2-0.3,1.7,0l2,1.1c0.2,0.1,0.3,0.3,0.4,0.5v0.7c0,0.2-0.2,0.4-0.4,0.5l-11.7,6.7C26.3,45.1,25.7,45.1,25.2,44.8z"/>
		<path class="st17" d="M34.8,35.2c0.5-0.3,1.2-0.3,1.7,0l2,1.1c0.2,0.1,0.3,0.3,0.4,0.5v0.7c0,0.2-0.2,0.4-0.4,0.5l-11.7,6.7
			c-0.2,0.1-0.4,0.2-0.6,0.2v-4.8L34.8,35.2z"/>
		<path class="st2" d="M25.2,44.8l-2-1.1c-0.2-0.1-0.3-0.3-0.4-0.5c0-0.1,0-0.6,0-0.7c0-0.2,0.2-0.4,0.4-0.5l3-1.8V45
			C25.9,45.1,25.5,45,25.2,44.8z"/>
		<path class="st1" d="M23.2,43l2,1.1c0.5,0.3,1.2,0.3,1.7,0l11.7-6.7c0.5-0.3,0.5-0.7,0-1l-2-1.1c-0.5-0.3-1.2-0.3-1.7,0L23.2,42
			C22.7,42.2,22.7,42.7,23.2,43z"/>
		<path class="st7" d="M23.2,43l2,1.1c0.5,0.3,1.2,0.3,1.7,0l11.7-6.7c0.5-0.3,0.5-0.7,0-1l-2-1.1c-0.5-0.3-1.2-0.3-1.7,0L23.2,42
			C22.7,42.2,22.7,42.7,23.2,43z"/>
		<path class="st19" d="M35.4,37c0.9,0.5,0.9,1.4,0,1.9c-1.1,0.5-2.3,0.5-3.4,0c-0.9-0.5-0.9-1.4,0-1.9C33.1,36.4,34.4,36.4,35.4,37
			z"/>
		<g id="freepik--Jar--inject-4">
			<path class="st1" d="M36,34.4c0-0.4-0.3-0.8-0.7-0.9c-1-0.5-2.2-0.5-3.2,0c-0.4,0.2-0.6,0.5-0.7,0.9l0,0v3.2l0,0
				c0,0.4,0.3,0.8,0.7,0.9c1,0.5,2.2,0.5,3.2,0c0.4-0.2,0.6-0.5,0.7-0.9l0,0V34.4z"/>
			<path class="st19" d="M36,34.4c0-0.4-0.3-0.8-0.7-0.9c-1-0.5-2.2-0.5-3.2,0c-0.4,0.2-0.6,0.5-0.7,0.9l0,0v3.2l0,0
				c0,0.4,0.3,0.8,0.7,0.9c1,0.5,2.2,0.5,3.2,0c0.4-0.2,0.6-0.5,0.7-0.9l0,0V34.4z"/>
			<path class="st25" d="M35.2,33.4v5.2c0.1,0,0.1-0.1,0.2-0.1c0.1-0.1,0.3-0.2,0.4-0.3v-4.5c-0.1-0.1-0.2-0.2-0.4-0.3
				C35.3,33.5,35.2,33.4,35.2,33.4z"/>
			<path class="st25" d="M34.6,38.8c0.1,0,0.2-0.1,0.3-0.1v-5.4c-0.1,0-0.2-0.1-0.3-0.1V38.8z"/>
			<path class="st8" d="M36,34.2c-0.1-0.2-0.3-0.3-0.5-0.5c-1-0.5-2.1-0.5-3.2-0.1v-0.2l-0.1,0.1c-0.4,0.2-0.6,0.5-0.7,0.9v1.9l0,0
				v1.3c0,0.4,0.3,0.8,0.7,0.9c1,0.5,2.2,0.5,3.2,0c0.1-0.1,0.3-0.2,0.4-0.3c-0.4,0.4-1.5,0.6-2.2,0.5c-0.8-0.2-1.2-0.6-1.2-1v-1.9
				c1,0.4,2.2,0.4,3.2-0.1c0.2-0.1,0.4-0.3,0.6-0.5v-0.7C36,34.4,36,34.3,36,34.2z"/>
			<path class="st4" d="M31.9,37.8v-4.1c-0.2,0.2-0.4,0.4-0.4,0.7v3.2c0,0.4,0.3,0.8,0.7,0.9c0.3,0.1,0.6,0.3,0.9,0.3
				C32.2,38.6,31.9,38,31.9,37.8z"/>
			<path class="st23" d="M32.3,38.4c0.9,0.4,2,0.4,2.9,0c0.8-0.4,0.8-1.1,0-1.5c-0.9-0.4-2-0.4-2.9,0C31.5,37.4,31.5,38,32.3,38.4z"
				/>
			<path class="st15" d="M36.2,33.9c0-0.4-0.3-0.8-0.7-1c-1.1-0.5-2.3-0.5-3.4,0c-0.4,0.2-0.7,0.6-0.7,1l0,0v0.6l0,0
				c0,0.4,0.3,0.8,0.7,1c1.1,0.5,2.3,0.5,3.4,0c0.4-0.2,0.7-0.6,0.7-1l0,0V33.9L36.2,33.9z"/>
			<g>
				<defs>
					<path id="SVGID_1_" d="M36.2,33.9c0-0.4-0.3-0.8-0.7-1c-1.1-0.5-2.3-0.5-3.4,0c-0.4,0.2-0.7,0.6-0.7,1l0,0v0.6l0,0
						c0,0.4,0.3,0.8,0.7,1c1.1,0.5,2.3,0.5,3.4,0c0.4-0.2,0.7-0.6,0.7-1l0,0V33.9L36.2,33.9z"/>
				</defs>
				<clipPath id="SVGID_2_">
					<use xlink:href="#SVGID_1_"  style="overflow:visible;"/>
				</clipPath>
				<g class="st26">
					<g class="st27">
						<rect x="36.1" y="33.8" width="0.1" height="1.2"/>
						<rect x="35.8" y="34.2" width="0.1" height="1.2"/>
						<rect x="35.4" y="34.5" width="0.1" height="1.2"/>
						<rect x="35" y="34.7" width="0.1" height="1.2"/>
						<rect x="34.5" y="34.8" width="0.1" height="1.2"/>
						<rect x="34" y="34.9" width="0.1" height="1.2"/>
						<rect x="33.4" y="34.9" width="0.1" height="1.2"/>
						<rect x="32.9" y="34.8" width="0.1" height="1.2"/>
						<rect x="32.4" y="34.7" width="0.1" height="1.2"/>
						<polygon points="32.1,35.7 32,36.8 32,34.5 32.1,34.5 						"/>
						<polygon points="31.7,35.4 31.6,36.5 31.6,34.2 31.7,34.2 						"/>
						<rect x="31.3" y="33.7" width="0.1" height="1.3"/>
					</g>
					<path class="st16" d="M34.3,35.8c-1.2,0-1.8-0.4-2-0.7c-0.1-0.2-0.2-0.2-0.2-0.7c0,0-0.1-1-0.1-1s-0.3-0.1-0.5-0.1
						c-0.1,0.1-0.2,0.3-0.2,0.5l0,0v0.6l0,0c0,0.4,0.3,0.8,0.7,1C32.8,35.8,33.6,35.9,34.3,35.8z"/>
				</g>
			</g>
			<path class="st14" d="M32.1,34.8c1.1,0.5,2.3,0.5,3.4,0c0.9-0.5,0.9-1.4,0-1.9c-1.1-0.5-2.3-0.5-3.4,0
				C31.2,33.4,31.2,34.3,32.1,34.8z"/>
			<path class="st28" d="M35.6,34.8c0.8-0.5,0.8-1.4-0.1-1.9c-0.5-0.3-1.1-0.4-1.6-0.4c-0.3,0-0.6,0.1-0.9,0.3
				c-0.8,0.5-0.8,1.4,0,1.8C33.8,35,34.7,35.1,35.6,34.8z"/>
			<path class="st29" d="M31.6,34.4c0.6,0.5,1.4,0.8,2.3,0.7c1.5,0,2.1-0.9,2.2-1.1c0.1-0.3,0-0.6-0.2-0.9c0.2,0.2,0.3,0.4,0.3,0.7
				v0.6c0,0.1,0,0.4-0.4,0.8c0.2-0.2,0.3-0.4,0.3-0.6v-0.3c0,0-0.5,0.9-2.2,0.9S31.7,34.5,31.6,34.4z"/>
		</g>
		<path class="st19" d="M29.4,41.4c0.5,0.3,0.5,0.7,0,1c-0.6,0.3-1.2,0.3-1.8,0c-0.5-0.3-0.5-0.7,0-1C28.2,41.1,28.8,41.1,29.4,41.4
			z"/>
		<g>
			<path class="st1" d="M29.6,41.8L29.6,41.8v-1.1h-2.2v1.1l0,0c0,0.2,0.1,0.4,0.3,0.5c0.5,0.2,1.1,0.2,1.5,0
				C29.5,42.2,29.6,42,29.6,41.8z"/>
			<path class="st1" d="M27.4,41.8c0,0.2,0.1,0.4,0.3,0.5c0.5,0.2,1.1,0.2,1.5,0c0.2-0.1,0.3-0.3,0.3-0.5"/>
			<path class="st4" d="M29.3,42c-0.5,0.2-1.1,0.2-1.5,0c-0.2-0.1-0.3-0.3-0.3-0.5v0.1c0,0.2,0.1,0.4,0.3,0.5
				C28.2,42.3,28.8,42.3,29.3,42c0.2,0,0.3-0.2,0.3-0.4v-0.1C29.6,41.7,29.5,41.9,29.3,42z"/>
			<path class="st20" d="M27.1,33.9c0-0.1,0.1-0.2,0.1-0.3l2.5-1.4c0.1,0,0.1,0,0.1,0.1V33l-2.8,1.6L27.1,33.9z"/>
			<path class="st21" d="M30,40.7L29.9,33l-2.8,1.6l-0.1,6.2l0,0c0,0.3,0.2,0.5,0.4,0.6c0.7,0.3,1.4,0.3,2.1,0
				C29.8,41.2,30,41,30,40.7z"/>
			<path class="st1" d="M29.3,36.8c0.2-0.1,0.4,0,0.4,0.2c0,0.3-0.2,0.6-0.4,0.7c-0.2,0.1-0.4,0-0.4-0.2
				C28.9,37.2,29,36.9,29.3,36.8z"/>
			<path class="st1" d="M28.4,38.5c-0.1,0-0.2,0-0.2,0.1c0,0.1,0.1,0.1,0.2,0.1c0.4,0,0.7-0.1,1.1-0.2c0.2-0.1,0.4-0.3,0.4-0.6v-0.2
				c0,0.3-0.2,0.5-0.4,0.6C29.2,38.4,28.8,38.5,28.4,38.5z"/>
		</g>
		<path class="st28" d="M38.5,34.5l-11.7,6.7c-0.5,0.3-1.2,0.3-1.7,0l-2-1.1v0.6l2,1.1c0.5,0.3,1.2,0.3,1.7,0L38.5,35
			c0.2-0.1,0.3-0.3,0.4-0.5V34c0,0.1,0,0.2-0.1,0.3C38.7,34.3,38.6,34.4,38.5,34.5z"/>
		<path class="st15" d="M38.5,33.5l-2-1.1v0.6l2,1.1c0.1,0.1,0.2,0.1,0.3,0.2C39,34,38.9,33.7,38.5,33.5z"/>
		<path class="st1" d="M25.2,33.3l-2-1.1c-0.2-0.1-0.3-0.3-0.4-0.5c0-0.1,0-0.6,0-0.7c0-0.2,0.2-0.4,0.4-0.5l11.7-6.7
			c0.5-0.3,1.2-0.3,1.7,0l2,1.1c0.2,0.1,0.3,0.3,0.4,0.5v0.7c0,0.2-0.2,0.4-0.4,0.5l-11.7,6.7C26.3,33.5,25.7,33.5,25.2,33.3z"/>
		<path class="st17" d="M34.8,23.7c0.5-0.3,1.2-0.3,1.7,0l2,1.1c0.2,0.1,0.3,0.3,0.4,0.5v0.7c0,0.2-0.2,0.4-0.4,0.5l-11.7,6.7
			c-0.2,0.1-0.4,0.2-0.6,0.2v-4.8L34.8,23.7z"/>
		<path class="st2" d="M25.2,33.3l-2-1.1c-0.2-0.1-0.3-0.3-0.4-0.5c0-0.1,0-0.6,0-0.7c0-0.2,0.2-0.4,0.4-0.5l3-1.8v4.8
			C25.9,33.5,25.5,33.4,25.2,33.3z"/>
		<path class="st1" d="M23.2,31.4l2,1.1c0.5,0.3,1.2,0.3,1.7,0l11.7-6.7c0.5-0.3,0.5-0.7,0-1l-2-1.1c-0.5-0.3-1.2-0.3-1.7,0
			l-11.7,6.7C22.7,30.7,22.7,31.1,23.2,31.4z"/>
		<path class="st7" d="M23.2,31.4l2,1.1c0.5,0.3,1.2,0.3,1.7,0l11.7-6.7c0.5-0.3,0.5-0.7,0-1l-2-1.1c-0.5-0.3-1.2-0.3-1.7,0
			l-11.7,6.7C22.7,30.7,22.7,31.1,23.2,31.4z"/>
		<path class="st19" d="M32.3,28.9l2.3-1.3c0.2-0.1,0.2-0.2,0.2-0.4c0-0.1-0.1-0.2-0.2-0.2L33,26c-0.3-0.2-0.7-0.2-1,0l-2.3,1.3
			c-0.2,0.1-0.2,0.2-0.2,0.4c0,0.1,0.1,0.2,0.2,0.2l1.6,0.9C31.6,29,32,29,32.3,28.9z"/>
		<g id="freepik--soap--inject-4">
			<path class="st1" d="M30.9,19.6l0.9-0.5c0.2-0.2,0.5-0.2,0.7-0.1c0.2,0.1,1.4,0.8,1.6,0.9c0.2,0.2,0.3,0.4,0.3,0.7v6.2
				c0,0.2-0.1,0.4-0.3,0.5l-2.4,1.4c-0.1,0-0.1,0-0.2,0L30,27.8c-0.1,0-0.1-0.1-0.1-0.2v-6.2C29.9,20.7,30.3,20,30.9,19.6z"/>
			<path class="st18" d="M30.9,19.6l0.9-0.5c0.2-0.2,0.5-0.2,0.7-0.1c0.2,0.1,1.4,0.8,1.6,0.9c0.2,0.2,0.3,0.4,0.3,0.7v2.8L30,20.8
				C30.2,20.3,30.5,19.9,30.9,19.6z"/>
			<path class="st19" d="M34.5,26.8c0,0.2-0.1,0.4-0.3,0.5l-2.4,1.4c-0.1,0-0.1,0-0.2,0l-1.6-0.9c-0.1,0-0.1-0.1-0.1-0.2v-6.2
				c0-0.2,0-0.4,0.1-0.6l4.5,2.6L34.5,26.8z"/>
			<path class="st1" d="M31.8,28.7c-0.1,0.1-0.2,0.1-0.2,0c0,0,0-0.1,0-0.1v-6.2c0-0.7,0.4-1.4,1.1-1.8l0.9-0.5
				c0.2-0.2,0.5-0.2,0.8-0.1c0.2,0.2,0.3,0.4,0.3,0.7v6.2c0,0.2-0.1,0.4-0.3,0.5L31.8,28.7z"/>
			<path class="st20" d="M31.4,18.9v0.9c0,0.1,0.1,0.2,0.2,0.3c0.3,0.2,0.7,0.2,1,0c0.1-0.1,0.2-0.2,0.2-0.3v-0.9H31.4z"/>
			<path class="st21" d="M31.7,19.2c0.3,0.2,0.7,0.2,1,0c0.2-0.1,0.2-0.2,0.2-0.4c0-0.1-0.1-0.2-0.2-0.2c-0.3-0.2-0.7-0.2-1,0
				C31.4,18.8,31.4,19,31.7,19.2z"/>
			<path class="st20" d="M31.9,17.5v1.5c0,0,0,0.1,0.1,0.1c0.1,0,0.2,0,0.3,0c0,0,0.1,0,0.1-0.1v-1.5H31.9z"/>
			<path class="st22" d="M31.9,18.1L31.9,18.1c0.2,0,0.3,0,0.4,0v-0.7H32L31.9,18.1z"/>
			<path class="st21" d="M33.4,18l-0.1-0.1c-0.2-0.1-0.3-0.3-0.4-0.5c0-0.1-0.1-0.2-0.3-0.3c-0.3-0.1-0.6-0.1-0.8,0
				c-0.4,0.2-0.5,0.5-0.2,0.7c0.1,0.1,0.2,0.1,0.4,0.1c0.3,0,0.6,0.1,0.9,0.2l0.2,0.1C33.2,18.2,33.4,18.1,33.4,18z"/>
		</g>
		<path class="st19" d="M28,31.4l2.3-1.3c0.2-0.1,0.2-0.2,0.2-0.4c0-0.1-0.1-0.2-0.2-0.2l-1.6-0.9c-0.3-0.2-0.7-0.2-1,0l-2.3,1.3
			c-0.3,0.2-0.3,0.4,0,0.6l1.6,0.9C27.3,31.5,27.7,31.5,28,31.4z"/>
		<g>
			<path class="st1" d="M26.6,22.1l0.9-0.5c0.2-0.2,0.5-0.2,0.7-0.1c0.2,0.1,1.4,0.8,1.6,0.9c0.2,0.2,0.3,0.4,0.3,0.7v6.2
				c0,0.2-0.1,0.4-0.3,0.5l-2.4,1.4c-0.1,0-0.1,0-0.2,0l-1.6-0.9c-0.1,0-0.1-0.1-0.1-0.2v-6.2C25.6,23.1,26,22.5,26.6,22.1z"/>
			<path class="st7" d="M26.6,22.1l0.9-0.5c0.2-0.2,0.5-0.2,0.7-0.1c0.2,0.1,1.4,0.8,1.6,0.9c0.2,0.2,0.3,0.4,0.3,0.7v2.8l-4.5-2.6
				C25.8,22.8,26.2,22.3,26.6,22.1z"/>
			<path class="st17" d="M30.2,29.3c0,0.2-0.1,0.4-0.3,0.5l-2.4,1.4c-0.1,0-0.1,0-0.2,0l-1.6-0.9c-0.1,0-0.1-0.1-0.1-0.2v-6.2
				c0-0.2,0-0.4,0.1-0.6l4.5,2.6V29.3z"/>
			<path class="st1" d="M27.5,31.2c-0.1,0-0.1,0-0.2,0c-0.1,0-0.1-0.1-0.1-0.2v-6.2c0-0.7,0.4-1.4,1.1-1.8l0.9-0.5
				c0.2-0.2,0.5-0.2,0.8-0.1c0.2,0.2,0.3,0.4,0.3,0.7v6.2c0,0.2-0.1,0.4-0.3,0.5L27.5,31.2z"/>
			<path class="st9" d="M27.5,31.2c-0.1,0-0.1,0-0.2,0c-0.1,0-0.1-0.1-0.1-0.2v-6.2c0-0.7,0.4-1.4,1.1-1.8l0.9-0.5
				c0.2-0.2,0.5-0.2,0.8-0.1c0.2,0.2,0.3,0.4,0.3,0.7v6.2c0,0.2-0.1,0.4-0.3,0.5L27.5,31.2z"/>
			<path class="st20" d="M27.1,21.4v0.9c0,0.1,0.1,0.2,0.2,0.3c0.3,0.2,0.7,0.2,1,0c0.1-0.1,0.2-0.2,0.2-0.3v-0.9H27.1z"/>
			<path class="st21" d="M27.3,21.7c0.3,0.2,0.7,0.2,1,0c0.2-0.1,0.2-0.2,0.2-0.4c0-0.1-0.1-0.2-0.2-0.2c-0.3-0.2-0.7-0.2-1,0
				c-0.2,0.1-0.2,0.2-0.2,0.4C27.2,21.6,27.3,21.7,27.3,21.7z"/>
			<path class="st20" d="M27.6,20v1.5c0,0,0,0.1,0.1,0.1c0.1,0,0.2,0,0.3,0c0,0,0.1,0,0.1-0.1V20H27.6z"/>
			<path class="st22" d="M27.6,20.6L27.6,20.6c0.2,0,0.3,0,0.4,0V20h-0.4V20.6z"/>
			<path class="st21" d="M29.1,20.5L29,20.4c-0.2-0.1-0.3-0.3-0.4-0.5c0-0.1-0.1-0.2-0.3-0.3c-0.3-0.1-0.6-0.1-0.8,0
				c-0.4,0.2-0.5,0.5-0.2,0.7c0.1,0.1,0.2,0.1,0.4,0.1c0.3,0,0.6,0.1,0.9,0.2l0.2,0.1C28.9,20.7,29,20.6,29.1,20.5z"/>
		</g>
		<path class="st28" d="M38.5,22.9l-11.7,6.7c-0.5,0.3-1.2,0.3-1.7,0l-2-1.1v0.6l2,1.1c0.5,0.3,1.2,0.3,1.7,0l11.7-6.7
			c0.2-0.1,0.3-0.3,0.4-0.5v-0.5c0,0.1,0,0.2-0.1,0.3C38.7,22.8,38.6,22.9,38.5,22.9z"/>
		<path class="st15" d="M38.5,21.9l-2-1.1v0.6l2,1.1c0.1,0.1,0.2,0.1,0.3,0.2C39,22.4,38.9,22.1,38.5,21.9z"/>
		<path class="st21" d="M31.3,10.5L31.3,10.5C31.2,10.5,31.2,10.5,31.3,10.5l-0.2-0.1c-0.1,0-0.2,0-0.2,0c-0.1,0-0.2,0-0.3,0.1
			c-0.8,0.4-1.4,1.7-1.4,2.8v1c0,0.6-0.2,1.1-0.6,1.5l-3.5,2.7c-0.7,0.6-1.3,1.8-1.3,2.9v6.1l-0.7-0.4v-6.1c0-1.1,0.5-2.4,1.3-2.9
			l3.5-2.7c0.4-0.4,0.6-0.9,0.6-1.5v-1c0-1.2,0.6-2.4,1.4-2.8c0.2-0.1,0.5-0.2,0.7,0L31.3,10.5z"/>
		<path class="st20" d="M30.9,10.4c-0.1,0-0.2,0-0.3,0.1c-0.8,0.4-1.4,1.7-1.4,2.8v1c0,0.6-0.2,1.1-0.6,1.5l-3.5,2.7
			c-0.7,0.6-1.3,1.8-1.3,2.9v6.1l0.3-0.2v-5.9c0-1,0.5-2.2,1.1-2.7l3.5-2.7c0.5-0.4,0.8-1.1,0.7-1.7v-1c0-1,0.6-2.2,1.2-2.6
			c0.1,0,0.1-0.1,0.2-0.1L30.9,10.4z"/>
		<path class="st1" d="M24.3,25.4l-1-0.6c-0.2-0.1-0.4-0.1-0.6-0.1l-0.7,0.4c-0.2,0.1-0.3,0.3-0.2,0.6v22c0,0.6,0.3,1.2,0.9,1.5
			l1,0.6c0.2,0.1,0.4,0.2,0.6,0.1l0.6-0.4c0.2-0.1,0.3-0.3,0.2-0.6v-22C25.1,26.2,24.8,25.7,24.3,25.4z"/>
		<path class="st17" d="M21.9,47.6c0,0.6,0.3,1.2,0.9,1.5l1,0.6c0.2,0.1,0.4,0.2,0.6,0.1l0.6-0.4c0.2-0.1,0.3-0.3,0.2-0.6v-22
			c0-0.2-0.1-0.4-0.1-0.6L21.9,28L21.9,47.6z"/>
		<path class="st7" d="M24.3,25.4l-1-0.6c-0.2-0.1-0.4-0.1-0.6-0.1l-0.7,0.4c-0.2,0.1-0.3,0.3-0.2,0.6V28l3.2-1.8
			C24.9,25.9,24.6,25.6,24.3,25.4z"/>
		<path class="st1" d="M22.7,25.2l1,0.6c0.5,0.3,0.8,0.9,0.9,1.5v22c0,0.5-0.4,0.8-0.9,0.5l-1-0.6c-0.5-0.3-0.8-0.9-0.9-1.5v-22
			C21.9,25.1,22.2,24.9,22.7,25.2z"/>
		<path class="st2" d="M22.7,25.2l1,0.6c0.5,0.3,0.8,0.9,0.9,1.5v22c0,0.5-0.4,0.8-0.9,0.5l-1-0.6c-0.5-0.3-0.8-0.9-0.9-1.5v-22
			C21.9,25.1,22.2,24.9,22.7,25.2z"/>
		<path class="st21" d="M35.9,44.1c-0.2,0-0.3-0.1-0.5-0.1c-0.6-0.4-1-1-1-1.7v-0.7c0-0.1,0-0.1,0.1-0.1c0.1,0,0.1,0,0.1,0.1
			c0,0,0,0,0,0v0.7c0,0.6,0.4,1.2,0.9,1.5c0.2,0.1,0.4,0.1,0.6,0.1c0.2-0.1,0.2-0.3,0.2-0.5c0-0.1,0-0.1,0.1-0.1
			c0.1,0,0.1,0,0.1,0.1c0,0,0,0,0,0c0,0.3-0.1,0.6-0.3,0.7C36.1,44.1,36,44.1,35.9,44.1z"/>
		<path class="st20" d="M36.8,43c0,0.2-0.2,0.4-0.4,0.4S36,43.3,36,43s0.2-0.4,0.4-0.4h0C36.7,42.6,36.8,42.8,36.8,43
			C36.8,43,36.8,43,36.8,43z"/>
		<path class="st21" d="M32.2,49.8C32.2,49.8,32.1,49.8,32.2,49.8l-3.3-1.9c-0.6-0.4-1-1-1-1.7v-0.7c0-0.1,0-0.1,0.1-0.1
			c0,0,0,0,0,0c0.1,0,0.1,0.1,0.1,0.1l0,0v0.7c0,0.6,0.4,1.2,0.9,1.5l3.2,1.8l5.1-3l-3.1-1.8c-0.6-0.4-1-1-1-1.7v-0.7
			c0-0.1,0.1-0.1,0.1-0.1l0,0c0.1,0,0.1,0.1,0.1,0.1c0,0,0,0,0,0v0.7c0,0.6,0.4,1.2,0.9,1.5l3.2,1.9c0,0,0.1,0.1,0.1,0.1
			c0,0,0,0.1-0.1,0.1L32.2,49.8C32.2,49.8,32.2,49.8,32.2,49.8z"/>
		<path class="st21" d="M28.9,47.9c-0.1,0-0.1,0-0.1-0.1c0,0,0-0.1,0.1-0.1l5.3-3.1c0.1,0,0.1,0,0.2,0c0,0.1,0,0.1,0,0.2
			c0,0,0,0,0,0L28.9,47.9C29,47.9,28.9,47.9,28.9,47.9z"/>
		<path class="st21" d="M32.2,49.8C32.2,49.8,32.1,49.8,32.2,49.8l-3.3-1.9c-0.1,0-0.1-0.1,0-0.2c0-0.1,0.1-0.1,0.2,0l3.2,1.9
			c0.1,0,0.1,0.1,0,0.2C32.2,49.8,32.2,49.8,32.2,49.8z"/>
		<path class="st21" d="M33.1,49.3C33,49.3,33,49.3,33.1,49.3l-3.3-1.9c-0.1,0-0.1-0.1,0-0.2c0-0.1,0.1-0.1,0.2,0l3.2,1.9
			c0.1,0,0.1,0.1,0,0.2c0,0,0,0,0,0C33.1,49.3,33.1,49.3,33.1,49.3z"/>
		<path class="st21" d="M34,48.8C33.9,48.8,33.9,48.8,34,48.8l-3.3-1.9c-0.1,0-0.1-0.1,0-0.2c0-0.1,0.1-0.1,0.2,0l3.2,1.9
			c0.1,0,0.1,0.1,0,0.2C34,48.7,34,48.8,34,48.8z"/>
		<path class="st21" d="M34.8,48.2C34.8,48.2,34.8,48.2,34.8,48.2l-3.3-1.9c-0.1,0-0.1-0.1,0-0.2c0,0,0,0,0,0c0-0.1,0.1-0.1,0.2,0
			l3.2,1.9C35,48.1,35,48.1,34.8,48.2C34.9,48.2,34.9,48.2,34.8,48.2z"/>
		<path class="st21" d="M35.7,47.7C35.7,47.7,35.7,47.7,35.7,47.7l-3.3-1.9c-0.1,0-0.1-0.1,0-0.2c0-0.1,0.1-0.1,0.2,0c0,0,0,0,0,0
			l3.2,1.9c0.1,0,0.1,0.1,0,0.2C35.8,47.7,35.8,47.7,35.7,47.7z"/>
		<path class="st21" d="M36.6,47.2C36.6,47.2,36.6,47.2,36.6,47.2l-3.3-1.9c-0.1,0-0.1-0.1,0-0.2c0,0,0,0,0,0c0-0.1,0.1-0.1,0.2,0
			l3.2,1.9C36.7,47,36.7,47.1,36.6,47.2C36.7,47.2,36.7,47.2,36.6,47.2z"/>
		<path class="st21" d="M37.5,46.7C37.5,46.7,37.5,46.7,37.5,46.7l-3.3-1.9c-0.1,0-0.1-0.1,0-0.2c0-0.1,0.1-0.1,0.2,0c0,0,0,0,0,0
			l3.2,1.9c0.1,0,0.1,0.1,0,0.2C37.6,46.7,37.6,46.7,37.5,46.7L37.5,46.7z"/>
		<g>
			<path class="st1" d="M36.3,44.8c-0.1-0.1-0.1-0.2-0.2-0.3c-0.1-0.1-0.3-0.2-0.4-0.3c-0.3-0.2-0.6-0.3-0.9-0.3l0,0
				c-0.8-0.2-1.7-0.1-2.5,0.3l-1.6,0.9l-0.3,0.2c-0.2,0.1-0.3,0.2-0.4,0.3c0,0-0.1,0.1-0.1,0.1c-0.2,0.3-0.4,0.7-0.4,1.1
				c0,0.4,0.1,0.8,0.3,1.1l0,0.1l0.1,0.1c0,0,0.1,0.1,0.1,0.1c0.1,0.1,0.2,0.2,0.3,0.2c0.3,0.2,0.6,0.3,0.9,0.3
				c0.3,0,0.5,0.1,0.8,0.1c0.8,0,1.6-0.4,2.1-1c0.1-0.1,0.2-0.2,0.3-0.3c0.2-0.2,0.5-0.3,0.8-0.3c0.4,0,0.7-0.2,0.9-0.5l0,0
				C36.7,46.1,36.7,45.4,36.3,44.8L36.3,44.8z"/>
			<path class="st1" d="M30.4,47.3c1.1,0.5,2.3,0.5,3.4,0l1.9-1.1c0.9-0.5,1-1.4,0-2c-1.1-0.5-2.3-0.5-3.4,0l-1.9,1.1
				C29.5,45.9,29.5,46.8,30.4,47.3z"/>
			<path class="st3" d="M30.4,47.3c1.1,0.5,2.3,0.5,3.4,0l1.9-1.1c0.9-0.5,1-1.4,0-2c-1.1-0.5-2.3-0.5-3.4,0l-1.9,1.1
				C29.5,45.9,29.5,46.8,30.4,47.3z"/>
			<path class="st1" d="M30.9,46.4c0.1,0,0.1-0.1,0.2-0.1c0.1,0,0.1,0,0.2,0c0.1,0,0.1,0,0.2,0c0,0,0.1,0,0.1,0c0,0,0,0,0,0
				c0,0,0,0,0,0l-0.2,0.1l0,0h-0.1h-0.1c0,0-0.1,0-0.1,0l-0.1,0c0,0,0,0,0,0c0,0,0,0,0,0c0,0,0,0,0,0c0,0,0,0,0.1,0h0.1l0.1,0
				l0.2-0.1c0.1,0,0.1,0,0.2-0.1c0.1,0,0.1,0,0.2,0c0.1,0,0.1,0,0.2,0c0.1,0,0.1,0,0.1,0.1c0,0,0.1,0.1,0.1,0.1c0,0,0,0.1,0,0.1
				c0,0,0,0.1-0.1,0.1c0,0-0.1,0.1-0.2,0.1c-0.1,0.1-0.3,0.1-0.4,0.1c-0.1,0-0.1,0-0.2,0c-0.1,0-0.1,0-0.2,0c0,0,0,0,0,0
				c0,0,0,0,0,0l0.2-0.1h0h0.1c0,0,0.1,0,0.1,0l0.1,0c0,0,0.1-0.1,0.1-0.1c0,0,0,0,0-0.1c0,0,0,0-0.1,0c0,0-0.1,0-0.1,0l-0.1,0
				l-0.2,0.1c-0.1,0-0.2,0.1-0.3,0.1c-0.1,0-0.2,0-0.3-0.1c0,0-0.1-0.1-0.1-0.1c0,0,0-0.1,0-0.1c0,0,0-0.1,0.1-0.1
				C30.8,46.5,30.9,46.4,30.9,46.4z"/>
			<path class="st1" d="M31.9,46.3c0,0-0.1-0.1-0.1-0.1c0,0,0-0.1,0-0.1c0,0,0-0.1,0.1-0.1c0-0.1,0.1-0.1,0.2-0.1
				c0.1,0,0.1-0.1,0.2-0.1c0.1,0,0.2,0,0.2,0c0.1,0,0.2,0,0.2,0c0.1,0,0.1,0,0.2,0.1l0.1,0.1l0.1,0.1c0,0,0.1,0.1,0.1,0.1
				c0,0,0,0.1,0,0.1c0,0,0,0.1-0.1,0.1c0,0.1-0.1,0.1-0.2,0.1c-0.1,0-0.2,0.1-0.2,0.1c-0.1,0-0.2,0-0.2,0c-0.1,0-0.2,0-0.2,0
				c-0.1,0-0.1,0-0.2-0.1L32,46.3L31.9,46.3z M32.8,46L32.8,46L32.7,46l-0.1,0l-0.1,0c-0.1,0-0.1,0-0.2,0c0,0-0.1,0-0.1,0
				c0,0-0.1,0-0.1,0c0,0-0.1,0-0.1,0.1c0,0,0,0,0,0.1c0,0,0,0,0,0.1c0,0,0,0,0.1,0l0.1,0l0.1,0l0.1,0l0.1,0c0.1,0,0.1,0,0.2,0
				c0.1,0,0.1,0,0.2-0.1C32.9,46.2,32.9,46.2,32.8,46C32.9,46.1,32.9,46.1,32.8,46z"/>
			<path class="st1" d="M33.2,45.1C33.2,45.1,33.2,45.1,33.2,45.1l0.1,0l1.3,0.4h0l0,0c0,0,0,0,0,0l-0.2,0.1c0,0,0,0-0.1,0h0l-0.2,0
				l-0.4,0.2l0.1,0.1c0,0,0,0,0,0c0,0,0,0,0,0L33.6,46c0,0,0,0,0,0c0,0,0,0,0,0l0,0l-0.6-0.7c0,0,0,0,0,0c0,0,0,0,0,0L33.2,45.1z
				 M33.6,45.6l0.2-0.1l-0.5-0.1L33.6,45.6z"/>
			<path class="st1" d="M34.2,44.5c0.1,0,0.1-0.1,0.2-0.1c0.1,0,0.1,0,0.2,0c0.1,0,0.1,0,0.2,0c0.1,0,0.1,0,0.2,0.1
				c0,0,0.1,0.1,0.1,0.1c0,0,0,0.1,0,0.1c0,0,0,0.1-0.1,0.1c0,0-0.1,0.1-0.2,0.1L34.7,45l0.3,0.2c0,0,0,0,0,0c0,0,0,0,0,0l-0.2,0.1
				c0,0,0,0,0,0c0,0,0,0,0,0l-1-0.6c0,0,0,0,0,0c0,0,0,0,0,0L34.2,44.5z M34.5,44.9l0.2-0.1c0,0,0.1,0,0.1-0.1c0,0,0-0.1,0-0.1
				c0,0-0.1,0-0.1,0c0,0-0.1,0-0.1,0l-0.2,0.1L34.5,44.9z"/>
			<g class="st30">
				<path d="M30.9,46.4c0.1,0,0.1-0.1,0.2-0.1c0.1,0,0.1,0,0.2,0c0.1,0,0.1,0,0.2,0c0,0,0.1,0,0.1,0c0,0,0,0,0,0c0,0,0,0,0,0
					l-0.2,0.1l0,0h-0.1h-0.1c0,0-0.1,0-0.1,0l-0.1,0c0,0,0,0,0,0c0,0,0,0,0,0c0,0,0,0,0,0c0,0,0,0,0.1,0h0.1l0.1,0l0.2-0.1
					c0.1,0,0.1,0,0.2-0.1c0.1,0,0.1,0,0.2,0c0.1,0,0.1,0,0.2,0c0.1,0,0.1,0,0.1,0.1c0,0,0.1,0.1,0.1,0.1c0,0,0,0.1,0,0.1
					c0,0,0,0.1-0.1,0.1c0,0-0.1,0.1-0.2,0.1c-0.1,0.1-0.3,0.1-0.4,0.1c-0.1,0-0.1,0-0.2,0c-0.1,0-0.1,0-0.2,0c0,0,0,0,0,0
					c0,0,0,0,0,0l0.2-0.1h0h0.1c0,0,0.1,0,0.1,0l0.1,0c0,0,0.1-0.1,0.1-0.1c0,0,0,0,0-0.1c0,0,0,0-0.1,0c0,0-0.1,0-0.1,0l-0.1,0
					l-0.2,0.1c-0.1,0-0.2,0.1-0.3,0.1c-0.1,0-0.2,0-0.3-0.1c0,0-0.1-0.1-0.1-0.1c0,0,0-0.1,0-0.1c0,0,0-0.1,0.1-0.1
					C30.8,46.5,30.9,46.4,30.9,46.4z"/>
				<path d="M31.9,46.3c0,0-0.1-0.1-0.1-0.1c0,0,0-0.1,0-0.1c0,0,0-0.1,0.1-0.1c0-0.1,0.1-0.1,0.2-0.1c0.1,0,0.1-0.1,0.2-0.1
					c0.1,0,0.2,0,0.2,0c0.1,0,0.2,0,0.2,0c0.1,0,0.1,0,0.2,0.1l0.1,0.1l0.1,0.1c0,0,0.1,0.1,0.1,0.1c0,0,0,0.1,0,0.1
					c0,0,0,0.1-0.1,0.1c0,0.1-0.1,0.1-0.2,0.1c-0.1,0-0.2,0.1-0.2,0.1c-0.1,0-0.2,0-0.2,0c-0.1,0-0.2,0-0.2,0c-0.1,0-0.1,0-0.2-0.1
					L32,46.3L31.9,46.3z M32.8,46L32.8,46L32.7,46l-0.1,0l-0.1,0c-0.1,0-0.1,0-0.2,0c0,0-0.1,0-0.1,0c0,0-0.1,0-0.1,0
					c0,0-0.1,0-0.1,0.1c0,0,0,0,0,0.1c0,0,0,0,0,0.1c0,0,0,0,0.1,0l0.1,0l0.1,0l0.1,0l0.1,0c0.1,0,0.1,0,0.2,0c0.1,0,0.1,0,0.2-0.1
					C32.9,46.2,32.9,46.2,32.8,46C32.9,46.1,32.9,46.1,32.8,46z"/>
				<path d="M33.2,45.1C33.2,45.1,33.2,45.1,33.2,45.1l0.1,0l1.3,0.4h0l0,0c0,0,0,0,0,0l-0.2,0.1c0,0,0,0-0.1,0h0l-0.2,0l-0.4,0.2
					l0.1,0.1c0,0,0,0,0,0c0,0,0,0,0,0L33.6,46c0,0,0,0,0,0c0,0,0,0,0,0l0,0l-0.6-0.7c0,0,0,0,0,0c0,0,0,0,0,0L33.2,45.1z M33.6,45.6
					l0.2-0.1l-0.5-0.1L33.6,45.6z"/>
				<path d="M34.2,44.5c0.1,0,0.1-0.1,0.2-0.1c0.1,0,0.1,0,0.2,0c0.1,0,0.1,0,0.2,0c0.1,0,0.1,0,0.2,0.1c0,0,0.1,0.1,0.1,0.1
					c0,0,0,0.1,0,0.1c0,0,0,0.1-0.1,0.1c0,0-0.1,0.1-0.2,0.1L34.7,45l0.3,0.2c0,0,0,0,0,0c0,0,0,0,0,0l-0.2,0.1c0,0,0,0,0,0
					c0,0,0,0,0,0l-1-0.6c0,0,0,0,0,0c0,0,0,0,0,0L34.2,44.5z M34.5,44.9l0.2-0.1c0,0,0.1,0,0.1-0.1c0,0,0-0.1,0-0.1c0,0-0.1,0-0.1,0
					c0,0-0.1,0-0.1,0l-0.2,0.1L34.5,44.9z"/>
			</g>
			<path class="st1" d="M33.9,47.1c-0.1,0-0.3,0-0.3,0.1c0-0.1-0.1-0.2-0.1-0.2c-0.1-0.1-0.3-0.2-0.5-0.1c-0.1,0-0.2,0-0.2,0.1
				c-0.1,0-0.1,0.1-0.2,0.2c0-0.1,0-0.2-0.1-0.3c-0.1-0.1-0.2-0.1-0.3-0.2c-0.2,0-0.3,0-0.4,0.1c0-0.2-0.1-0.3-0.2-0.4
				c-0.1-0.1-0.3-0.1-0.4,0c0-0.1,0-0.1-0.1-0.2c-0.1-0.1-0.2-0.2-0.4-0.2c-0.2,0-0.4,0.2-0.5,0.4c-0.2-0.1-0.4,0.1-0.5,0.3
				c0,0,0,0.1,0,0.1c0,0.2,0.2,0.4,0.4,0.4c-0.1,0.2-0.1,0.4,0,0.6c0.1,0.2,0.4,0.2,0.6,0.2c0.1,0,0.2-0.1,0.3-0.2
				c0,0.1,0.1,0.2,0.3,0.3c0.1,0,0.1,0,0.2,0c0.1,0,0.1-0.1,0.2-0.1c0,0.1,0.1,0.2,0.1,0.2c0.1,0.1,0.2,0.1,0.3,0.1
				c0.1-0.1,0.3-0.2,0.3-0.3c0,0.1,0.1,0.2,0.3,0.2c0.2,0,0.3,0,0.5-0.1c0.1-0.1,0.2-0.2,0.1-0.4c0.3,0.1,0.9,0.1,0.9-0.3
				C34.1,47.2,34,47.2,33.9,47.1z M34.7,46.6c-0.1-0.1-0.2-0.1-0.4-0.1c-0.1,0-0.2,0.1-0.3,0.2c0,0.1,0,0.2,0,0.2
				c0,0,0.1,0.1,0.1,0.1c0.1,0,0.2,0.1,0.2,0.1c0.1,0,0.2,0,0.2-0.1C34.8,46.8,34.8,46.7,34.7,46.6z"/>
			<path class="st9" d="M33.9,47.1c-0.1,0-0.3,0-0.3,0.1c0-0.1-0.1-0.2-0.1-0.2c-0.1-0.1-0.3-0.2-0.5-0.1c-0.1,0-0.2,0-0.2,0.1
				c-0.1,0-0.1,0.1-0.2,0.2c0-0.1,0-0.2-0.1-0.3c-0.1-0.1-0.2-0.1-0.3-0.2c-0.2,0-0.3,0-0.4,0.1c0-0.2-0.1-0.3-0.2-0.4
				c-0.1-0.1-0.3-0.1-0.4,0c0-0.1,0-0.1-0.1-0.2c-0.1-0.1-0.2-0.2-0.4-0.2c-0.2,0-0.4,0.2-0.5,0.4c-0.2-0.1-0.4,0.1-0.5,0.3
				c0,0,0,0.1,0,0.1c0,0.2,0.2,0.4,0.4,0.4c-0.1,0.2-0.1,0.4,0,0.6c0.1,0.2,0.4,0.2,0.6,0.2c0.1,0,0.2-0.1,0.3-0.2
				c0,0.1,0.1,0.2,0.3,0.3c0.1,0,0.1,0,0.2,0c0.1,0,0.1-0.1,0.2-0.1c0,0.1,0.1,0.2,0.1,0.2c0.1,0.1,0.2,0.1,0.3,0.1
				c0.1-0.1,0.3-0.2,0.3-0.3c0,0.1,0.1,0.2,0.3,0.2c0.2,0,0.3,0,0.5-0.1c0.1-0.1,0.2-0.2,0.1-0.4c0.3,0.1,0.9,0.1,0.9-0.3
				C34.1,47.2,34,47.2,33.9,47.1z M34.7,46.6c-0.1-0.1-0.2-0.1-0.4-0.1c-0.1,0-0.2,0.1-0.3,0.2c0,0.1,0,0.2,0,0.2
				c0,0,0.1,0.1,0.1,0.1c0.1,0,0.2,0.1,0.2,0.1c0.1,0,0.2,0,0.2-0.1C34.8,46.8,34.8,46.7,34.7,46.6z"/>
		</g>
		<g id="freepik--Sponge--inject-4">
			<path class="st1" d="M27.6,51L27.6,51C27.5,51,27.5,51,27.6,51c0.3-2,0.1-2.6,0-2.6c0,0,0-0.1,0-0.1c0,0,0,0,0,0c0,0,0.1,0,0.1,0
				C28,48.4,27.9,49.4,27.6,51C27.7,51,27.6,51,27.6,51z"/>
			<path class="st21" d="M27.9,48.7c-0.2,0-0.3-0.1-0.5-0.1c-0.6-0.4-1-1-1-1.7v-0.7c0-0.1,0.1-0.1,0.1-0.1c0,0,0.1,0,0.1,0.1v0.7
				c0,0.6,0.4,1.2,0.9,1.5c0.2,0.2,0.5,0.2,0.7,0c0.1-0.1,0.2-0.3,0.1-0.4c0-0.1,0-0.1,0.1-0.1s0.1,0,0.1,0.1c0,0,0,0,0,0
				c0,0.3-0.1,0.6-0.3,0.7C28.1,48.7,28,48.7,27.9,48.7z"/>
			<path class="st20" d="M28.8,47.6c0,0.2-0.2,0.4-0.4,0.4S28,47.9,28,47.6c0-0.2,0.2-0.4,0.4-0.4c0,0,0,0,0,0
				C28.6,47.2,28.8,47.4,28.8,47.6C28.8,47.6,28.8,47.6,28.8,47.6z"/>
			<path class="st1" d="M23.5,53.1c0,0.1,0,0.2,0,0.4c0.1,0.3,0.3,0.5,0.3,0.7c0.1,0.4-0.2,0.7-0.3,1.1c-0.1,0.5,0.3,1,0.8,1.2
				c0.2,0.1,0.5,0.1,0.7,0.2c0.3,0.2,0.7,0.5,0.9,0.7c0.3,0.3,0.7,0.4,1.1,0.3c0.3-0.1,0.5-0.5,0.8-0.5c0.2,0,0.3,0.1,0.4,0.1
				c0.3,0.2,0.6,0.3,0.9,0.3c0.3,0.1,0.7-0.1,0.9-0.3c0.3-0.3,0.2-0.8,0.4-1.2c0.2-0.4,0.6-0.5,0.7-0.9c0.1-0.5-0.3-0.9-0.3-1.4
				c0.1-0.3,0.2-0.5,0.3-0.7c0.1-0.4,0-0.8-0.3-1c-0.3-0.3-0.7-0.4-0.9-0.7c-0.1-0.2-0.1-0.3-0.2-0.5c-0.2-0.4-0.7-0.7-1.2-0.7
				c-0.5,0-0.9,0.3-1.4,0.3c-0.4,0-0.8-0.3-1.3-0.1c-0.3,0.1-0.6,0.4-0.7,0.7c-0.1,0.3-0.1,0.7-0.3,0.9c-0.2,0.1-0.4,0.2-0.6,0.2
				C23.9,52.5,23.6,52.8,23.5,53.1z"/>
			<path class="st17" d="M23.5,53.1c0,0.1,0,0.2,0,0.4c0.1,0.3,0.3,0.5,0.3,0.7c0.1,0.4-0.2,0.7-0.3,1.1c-0.1,0.5,0.3,1,0.8,1.2
				c0.2,0.1,0.5,0.1,0.7,0.2c0.3,0.2,0.7,0.5,0.9,0.7c0.3,0.3,0.7,0.4,1.1,0.3c0.3-0.1,0.5-0.5,0.8-0.5c0.2,0,0.3,0.1,0.4,0.1
				c0.3,0.2,0.6,0.3,0.9,0.3c0.3,0.1,0.7-0.1,0.9-0.3c0.3-0.3,0.2-0.8,0.4-1.2c0.2-0.4,0.6-0.5,0.7-0.9c0.1-0.5-0.3-0.9-0.3-1.4
				c0.1-0.3,0.2-0.5,0.3-0.7c0.1-0.4,0-0.8-0.3-1c-0.3-0.3-0.7-0.4-0.9-0.7c-0.1-0.2-0.1-0.3-0.2-0.5c-0.2-0.4-0.7-0.7-1.2-0.7
				c-0.5,0-0.9,0.3-1.4,0.3c-0.4,0-0.8-0.3-1.3-0.1c-0.3,0.1-0.6,0.4-0.7,0.7c-0.1,0.3-0.1,0.7-0.3,0.9c-0.2,0.1-0.4,0.2-0.6,0.2
				C23.9,52.5,23.6,52.8,23.5,53.1z"/>
			<path class="st23" d="M30.1,57.5c0.3-0.3,0.2-0.8,0.4-1.2c-0.2,0.1-0.3,0.2-0.4,0.3c-0.1,0.2-0.2,0.3-0.4,0.4
				c-0.2,0.1-0.4,0-0.6-0.1c-0.2-0.1-0.3-0.3-0.5-0.3c-0.3,0-0.7,0-1,0.2c-0.2,0.1-0.3,0.1-0.5,0.1c-0.2,0-0.4,0-0.6,0
				c-0.1,0-0.2-0.1-0.3-0.1c-0.2-0.1-0.3-0.3-0.4-0.5c-0.1-0.2-0.3-0.3-0.5-0.4c-0.2-0.1-0.4-0.3-0.4-0.5c0-0.3,0.1-0.5,0.1-0.7
				c0-0.4-0.6-0.8-0.5-1.2c0.1-0.4,0.6-0.6,0.8-1c0.1-0.3,0-0.7,0-1c0,0.2-0.1,0.5-0.3,0.7c-0.2,0.1-0.4,0.2-0.6,0.2
				c-0.4,0.1-0.7,0.4-0.8,0.8c0,0.1,0,0.2,0,0.4c0.1,0.3,0.3,0.5,0.3,0.7c0.1,0.4-0.2,0.7-0.3,1.1c-0.1,0.5,0.3,1,0.8,1.2
				c0.2,0.1,0.5,0.1,0.7,0.2c0.3,0.2,0.7,0.5,0.9,0.7c0.3,0.3,0.7,0.4,1.1,0.3c0.3-0.1,0.5-0.5,0.8-0.5c0.2,0,0.3,0.1,0.4,0.1
				c0.3,0.2,0.6,0.3,0.9,0.3C29.5,57.8,29.9,57.7,30.1,57.5z"/>
			<path class="st23" d="M29.2,53c0.1,0.2,0.1,0.4,0,0.6c-0.2,0.4-0.7,0.5-1.1,0.7c-0.2,0.2-0.3,0.4-0.4,0.7c0,0.3,0.1,0.5,0.3,0.7
				c-0.1-0.2,0-0.5,0.2-0.6c0.2-0.1,0.4-0.2,0.7-0.2c0.2,0,0.5-0.1,0.7-0.2c0.5-0.3,0.7-0.8,0.6-1.4c-0.1-0.2-0.3-0.5-0.5-0.6
				c-0.2-0.1-0.6-0.3-0.8-0.2C29,52.7,29.2,52.9,29.2,53z"/>
			<path class="st23" d="M27.4,52.1c-0.2,0.2-0.3,0.5-0.4,0.7c-0.2,0.3-0.7,0.5-1.1,0.4c0.1,0,0.2-0.1,0.3-0.2
				c0-0.1,0.1-0.2,0.1-0.3c0-0.2,0.1-0.4,0.2-0.6c0.4-0.8,1.3-1.1,2-0.7c0.2,0.1,0.3,0.2,0.4,0.3c0.1,0.1,0.3,0.4,0,0.4
				c-0.2,0-0.5-0.2-0.7-0.2C27.9,51.8,27.6,51.9,27.4,52.1z"/>
			<path class="st23" d="M25.6,54.2c0,0,0-0.1,0-0.1c0-0.1-0.2-0.3,0-0.3c0.2,0,0.3,0.2,0.4,0.3c0.1,0.2,0.1,0.4,0.2,0.6
				c0,0.2,0.1,0.4,0.2,0.6c0.2,0.3,0.7,0.4,1,0.3c0,0.2-0.1,0.3-0.3,0.4C27,56,26.8,56,26.6,56c-0.2,0-0.5-0.1-0.7-0.2
				c-0.2-0.1-0.4-0.3-0.4-0.5c-0.1-0.2,0-0.5,0.1-0.7C25.6,54.5,25.6,54.3,25.6,54.2z"/>
			<path class="st1" d="M27.3,51C27.3,51,27.3,51,27.3,51c-0.2-0.7-0.3-1.4-0.3-2c0-0.5,0.2-0.7,0.3-0.8c0.1-0.1,0.2,0,0.3,0
				c0,0,0,0.1,0,0.1c0,0-0.1,0-0.1,0c0,0,0,0,0,0c0,0-0.1,0-0.2,0c-0.1,0-0.2,0.1-0.2,0.6c0,0.6,0.1,1.3,0.2,1.9
				C27.4,51,27.4,51,27.3,51C27.3,51,27.3,51,27.3,51L27.3,51z"/>
		</g>
		<path class="st1" d="M57.5,17.2c0-0.1-0.1-0.2-0.2-0.3c-1.1-0.5-3.6-1.7-5.1-2.4c-1.8-0.9-3.2-1.3-4.3-0.7c-0.6,0.3-0.9,0.6-0.9,1
			c0,0.1,0,0.5,0,0.7c0,0.6,0.7,1.3,2,2.2c1.6,1.1,3.2,2.2,3.9,2.8c0.3,0.2,0.6,0.2,0.8,0l3.6-2.3c0.1-0.1,0.1-0.1,0.1-0.2
			L57.5,17.2z"/>
		<path class="st17" d="M57.5,17.2c0-0.1-0.1-0.2-0.2-0.3c-1.1-0.5-3.6-1.7-5.1-2.4c-1.8-0.9-3.2-1.3-4.3-0.7
			c-0.6,0.3-0.9,0.6-0.9,1c0,0.1,0,0.5,0,0.7c0,0.6,0.7,1.3,2,2.2c1.6,1.1,3.2,2.2,3.9,2.8c0.3,0.2,0.6,0.2,0.8,0l3.6-2.3
			c0.1-0.1,0.1-0.1,0.1-0.2L57.5,17.2z"/>
		<path class="st1" d="M47.9,13.8c-1.5,0.8-1,1.7,1.1,3.2c1.6,1.1,3.2,2.2,3.9,2.8c0.2,0.2,0.6,0.2,0.8,0l3.5-2.3
			c0.1-0.1,0.2-0.3,0.1-0.4c0,0-0.1-0.1-0.1-0.1c-1.1-0.5-3.6-1.7-5.1-2.4C50.4,13.7,49.1,13.3,47.9,13.8z"/>
		<path class="st7" d="M47.9,13.8c-1.5,0.8-1,1.7,1.1,3.2c1.6,1.1,3.2,2.2,3.9,2.8c0.2,0.2,0.6,0.2,0.8,0l3.5-2.3
			c0.1-0.1,0.2-0.3,0.1-0.4c0,0-0.1-0.1-0.1-0.1c-1.1-0.5-3.6-1.7-5.1-2.4C50.4,13.7,49.1,13.3,47.9,13.8z"/>
		<polygon class="st1" points="6.3,114 47.7,90.1 113.2,127.9 71.7,151.8 		"/>
		<polygon class="st5" points="6.3,114 47.7,90.1 113.2,127.9 71.7,151.8 		"/>
		<polygon class="st1" points="113.2,127.9 113.2,124.8 47.7,87 47.7,90.1 		"/>
		<polygon class="st31" points="113.2,127.9 113.2,124.8 47.7,87 47.7,90.1 		"/>
		<polygon class="st1" points="113.2,124.8 114.5,124.1 49,86.3 47.7,87 		"/>
		<polygon class="st5" points="113.2,124.8 114.5,124.1 49,86.3 47.7,87 		"/>
		<polygon class="st1" points="114.5,124.1 114.5,127.2 113.2,127.9 113.2,124.8 		"/>
		<polygon class="st17" points="114.5,124.1 114.5,127.2 113.2,127.9 113.2,124.8 		"/>
		<path class="st21" d="M33,110.9c2.2,1.3,5.7,1.3,7.9,0c2.2-1.3,2.2-3.3,0-4.6c-2.2-1.3-5.7-1.3-7.9,0S30.8,109.6,33,110.9z"/>
		<path class="st1" d="M33.1,110.8c2.1,1.2,5.6,1.2,7.7,0c2.1-1.2,2.1-3.2,0-4.4s-5.6-1.2-7.7,0C31,107.6,31,109.6,33.1,110.8z
			 M41.2,109c0.2-0.1,0.4-0.1,0.3,0.1c-0.1,0.2-0.1,0.4-0.2,0.5c-0.1,0.2-0.3,0.3-0.5,0.4c-0.2,0.1-0.4,0.1-0.6,0
			c-0.2-0.1-0.2-0.3,0-0.4L41.2,109z M38.6,110.5c0.2-0.1,0.5-0.1,0.7,0c0.2,0.1,0.2,0.3,0.1,0.4c-0.2,0.1-0.5,0.2-0.7,0.3
			c-0.3,0.1-0.6,0.1-0.9,0.1c-0.3,0-0.4-0.1-0.2-0.2L38.6,110.5z M41,107.9c0.2-0.1,0.5-0.1,0.5,0.1c0,0,0,0,0,0.1
			c0.1,0.2-0.1,0.4-0.3,0.5l-1.3,0.8c-0.2,0.1-0.5,0.1-0.7,0c-0.2-0.1-0.2-0.3,0-0.4L41,107.9z M37.5,109.9c0.2-0.1,0.5-0.1,0.7,0
			c0.2,0.1,0.2,0.3,0,0.4l-1.3,0.8c-0.3,0.1-0.6,0.2-0.9,0.2h-0.1c-0.3,0-0.3-0.2-0.1-0.3L37.5,109.9z M40.2,107.2
			c0.2-0.1,0.5-0.1,0.7,0c0.1,0.1,0.1,0.3-0.1,0.5l-1.9,1.1c-0.2,0.1-0.5,0.1-0.7,0c-0.2-0.1-0.2-0.3,0-0.4L40.2,107.2z M36.5,109.3
			c0.2-0.1,0.5-0.1,0.7,0c0.2,0.1,0.2,0.3,0,0.4l-1.9,1.1c-0.2,0.1-0.5,0.2-0.8,0.1c-0.2-0.1-0.2-0.3,0-0.4L36.5,109.3z M32.7,108.3
			c-0.2,0.1-0.4,0.1-0.3-0.1c0.1-0.2,0.1-0.3,0.2-0.5c0.1-0.2,0.3-0.3,0.5-0.4c0.2-0.1,0.4-0.1,0.6,0c0.2,0.1,0.2,0.3,0,0.4
			L32.7,108.3z M38.7,106.4c0.2-0.1,0.5-0.2,0.8-0.1c0.2,0.1,0.2,0.3,0,0.4l-2.1,1.2c-0.2,0.1-0.5,0.1-0.7,0c-0.2-0.1-0.2-0.3,0-0.4
			L38.7,106.4z M35.1,108.5c0.2-0.1,0.5-0.1,0.7,0c0.2,0.1,0.2,0.3,0,0.4l-2.1,1.2c-0.2,0.1-0.5,0.1-0.7,0c-0.1-0.1-0.1-0.3,0.1-0.5
			L35.1,108.5z M37.1,106.1c0.3-0.1,0.6-0.2,0.9-0.2H38c0.3,0,0.3,0.2,0.1,0.3l-1.8,1c-0.2,0.1-0.5,0.1-0.7,0
			c-0.2-0.1-0.2-0.3,0-0.4L37.1,106.1z M34.1,107.9c0.2-0.1,0.5-0.1,0.7,0c0.2,0.1,0.2,0.3,0,0.4l-1.8,1c-0.2,0.1-0.5,0.1-0.5-0.1
			c0,0,0,0,0-0.1c-0.1-0.2,0.1-0.4,0.3-0.5L34.1,107.9z M35.3,106.1c0.3-0.1,0.6-0.1,0.9-0.1c0.3,0,0.4,0.1,0.1,0.2l-1,0.6
			c-0.2,0.1-0.5,0.1-0.7,0c-0.2-0.1-0.2-0.3-0.1-0.4C34.8,106.3,35.1,106.2,35.3,106.1L35.3,106.1z"/>
	</g>
</g>
</svg>
